<svg width="138" height="20" viewBox="0 0 138 20" fill="none" xmlns="http://www.w3.org/2000/svg">
<path d="M36.688 6.848V18H35.232V6.848H36.688ZM43.4415 9.072C44.5082 9.072 45.3722 9.39733 46.0335 10.048C46.6948 10.688 47.0255 11.616 47.0255 12.832V18H45.5855V13.04C45.5855 12.1653 45.3668 11.4987 44.9295 11.04C44.4922 10.5707 43.8948 10.336 43.1375 10.336C42.3695 10.336 41.7562 10.576 41.2975 11.056C40.8495 11.536 40.6255 12.2347 40.6255 13.152V18H39.1695V9.232H40.6255V10.48C40.9135 10.032 41.3028 9.68533 41.7935 9.44C42.2948 9.19467 42.8442 9.072 43.4415 9.072ZM51.1799 10.432V15.6C51.1799 16.0267 51.2705 16.3307 51.4519 16.512C51.6332 16.6827 51.9479 16.768 52.3959 16.768H53.4679V18H52.1559C51.3452 18 50.7372 17.8133 50.3319 17.44C49.9265 17.0667 49.7239 16.4533 49.7239 15.6V10.432H48.5879V9.232H49.7239V7.024H51.1799V9.232H53.4679V10.432H51.1799ZM63.232 13.28C63.232 13.5573 63.216 13.8507 63.184 14.16H56.176C56.2293 15.024 56.5227 15.7013 57.056 16.192C57.6 16.672 58.256 16.912 59.024 16.912C59.6533 16.912 60.176 16.768 60.592 16.48C61.0187 16.1813 61.3173 15.7867 61.488 15.296H63.056C62.8213 16.1387 62.352 16.8267 61.648 17.36C60.944 17.8827 60.0693 18.144 59.024 18.144C58.192 18.144 57.4453 17.9573 56.784 17.584C56.1333 17.2107 55.6213 16.6827 55.248 16C54.8747 15.3067 54.688 14.5067 54.688 13.6C54.688 12.6933 54.8693 11.8987 55.232 11.216C55.5947 10.5333 56.1013 10.0107 56.752 9.648C57.4133 9.27467 58.1707 9.088 59.024 9.088C59.856 9.088 60.592 9.26933 61.232 9.632C61.872 9.99467 62.3627 10.496 62.704 11.136C63.056 11.7653 63.232 12.48 63.232 13.28ZM61.728 12.976C61.728 12.4213 61.6053 11.9467 61.36 11.552C61.1147 11.1467 60.7787 10.8427 60.352 10.64C59.936 10.4267 59.472 10.32 58.96 10.32C58.224 10.32 57.5947 10.5547 57.072 11.024C56.56 11.4933 56.2667 12.144 56.192 12.976H61.728ZM66.6099 10.656C66.8659 10.1547 67.2285 9.76533 67.6979 9.488C68.1779 9.21067 68.7592 9.072 69.4419 9.072V10.576H69.0579C67.4259 10.576 66.6099 11.4613 66.6099 13.232V18H65.1539V9.232H66.6099V10.656ZM81.6666 9.072C82.3493 9.072 82.9573 9.216 83.4906 9.504C84.024 9.78133 84.4453 10.2027 84.7546 10.768C85.064 11.3333 85.2186 12.0213 85.2186 12.832V18H83.7786V13.04C83.7786 12.1653 83.56 11.4987 83.1226 11.04C82.696 10.5707 82.1146 10.336 81.3786 10.336C80.6213 10.336 80.0186 10.5813 79.5706 11.072C79.1226 11.552 78.8986 12.2507 78.8986 13.168V18H77.4586V13.04C77.4586 12.1653 77.24 11.4987 76.8026 11.04C76.376 10.5707 75.7946 10.336 75.0586 10.336C74.3013 10.336 73.6986 10.5813 73.2506 11.072C72.8026 11.552 72.5786 12.2507 72.5786 13.168V18H71.1226V9.232H72.5786V10.496C72.8666 10.0373 73.2506 9.68533 73.7306 9.44C74.2213 9.19467 74.76 9.072 75.3466 9.072C76.0826 9.072 76.7333 9.23733 77.2986 9.568C77.864 9.89867 78.2853 10.384 78.5626 11.024C78.808 10.4053 79.2133 9.92533 79.7786 9.584C80.344 9.24267 80.9733 9.072 81.6666 9.072ZM95.607 13.28C95.607 13.5573 95.591 13.8507 95.559 14.16H88.551C88.6043 15.024 88.8977 15.7013 89.431 16.192C89.975 16.672 90.631 16.912 91.399 16.912C92.0283 16.912 92.551 16.768 92.967 16.48C93.3937 16.1813 93.6923 15.7867 93.863 15.296H95.431C95.1963 16.1387 94.727 16.8267 94.023 17.36C93.319 17.8827 92.4443 18.144 91.399 18.144C90.567 18.144 89.8203 17.9573 89.159 17.584C88.5083 17.2107 87.9963 16.6827 87.623 16C87.2497 15.3067 87.063 14.5067 87.063 13.6C87.063 12.6933 87.2443 11.8987 87.607 11.216C87.9697 10.5333 88.4763 10.0107 89.127 9.648C89.7883 9.27467 90.5457 9.088 91.399 9.088C92.231 9.088 92.967 9.26933 93.607 9.632C94.247 9.99467 94.7377 10.496 95.079 11.136C95.431 11.7653 95.607 12.48 95.607 13.28ZM94.103 12.976C94.103 12.4213 93.9803 11.9467 93.735 11.552C93.4897 11.1467 93.1537 10.8427 92.727 10.64C92.311 10.4267 91.847 10.32 91.335 10.32C90.599 10.32 89.9697 10.5547 89.447 11.024C88.935 11.4933 88.6417 12.144 88.567 12.976H94.103ZM96.9849 13.584C96.9849 12.688 97.1662 11.904 97.5289 11.232C97.8915 10.5493 98.3875 10.0213 99.0169 9.648C99.6569 9.27467 100.372 9.088 101.161 9.088C101.844 9.088 102.478 9.248 103.065 9.568C103.652 9.87733 104.1 10.288 104.409 10.8V6.16H105.881V18H104.409V16.352C104.121 16.8747 103.694 17.3067 103.129 17.648C102.564 17.9787 101.902 18.144 101.145 18.144C100.366 18.144 99.6569 17.952 99.0169 17.568C98.3875 17.184 97.8915 16.6453 97.5289 15.952C97.1662 15.2587 96.9849 14.4693 96.9849 13.584ZM104.409 13.6C104.409 12.9387 104.276 12.3627 104.009 11.872C103.742 11.3813 103.38 11.008 102.921 10.752C102.473 10.4853 101.977 10.352 101.433 10.352C100.889 10.352 100.393 10.48 99.9449 10.736C99.4969 10.992 99.1395 11.3653 98.8729 11.856C98.6062 12.3467 98.4729 12.9227 98.4729 13.584C98.4729 14.256 98.6062 14.8427 98.8729 15.344C99.1395 15.8347 99.4969 16.2133 99.9449 16.48C100.393 16.736 100.889 16.864 101.433 16.864C101.977 16.864 102.473 16.736 102.921 16.48C103.38 16.2133 103.742 15.8347 104.009 15.344C104.276 14.8427 104.409 14.2613 104.409 13.6ZM109.093 7.808C108.816 7.808 108.581 7.712 108.389 7.52C108.197 7.328 108.101 7.09333 108.101 6.816C108.101 6.53867 108.197 6.304 108.389 6.112C108.581 5.92 108.816 5.824 109.093 5.824C109.36 5.824 109.584 5.92 109.765 6.112C109.957 6.304 110.053 6.53867 110.053 6.816C110.053 7.09333 109.957 7.328 109.765 7.52C109.584 7.712 109.36 7.808 109.093 7.808ZM109.797 9.232V18H108.341V9.232H109.797ZM111.735 13.584C111.735 12.688 111.916 11.904 112.279 11.232C112.642 10.5493 113.138 10.0213 113.767 9.648C114.407 9.27467 115.116 9.088 115.895 9.088C116.663 9.088 117.33 9.25333 117.895 9.584C118.46 9.91467 118.882 10.3307 119.159 10.832V9.232H120.631V18H119.159V16.368C118.871 16.88 118.439 17.3067 117.863 17.648C117.298 17.9787 116.636 18.144 115.879 18.144C115.1 18.144 114.396 17.952 113.767 17.568C113.138 17.184 112.642 16.6453 112.279 15.952C111.916 15.2587 111.735 14.4693 111.735 13.584ZM119.159 13.6C119.159 12.9387 119.026 12.3627 118.759 11.872C118.492 11.3813 118.13 11.008 117.671 10.752C117.223 10.4853 116.727 10.352 116.183 10.352C115.639 10.352 115.143 10.48 114.695 10.736C114.247 10.992 113.89 11.3653 113.623 11.856C113.356 12.3467 113.223 12.9227 113.223 13.584C113.223 14.256 113.356 14.8427 113.623 15.344C113.89 15.8347 114.247 16.2133 114.695 16.48C115.143 16.736 115.639 16.864 116.183 16.864C116.727 16.864 117.223 16.736 117.671 16.48C118.13 16.2133 118.492 15.8347 118.759 15.344C119.026 14.8427 119.159 14.2613 119.159 13.6ZM124.867 10.432V15.6C124.867 16.0267 124.958 16.3307 125.139 16.512C125.321 16.6827 125.635 16.768 126.083 16.768H127.155V18H125.843C125.033 18 124.425 17.8133 124.019 17.44C123.614 17.0667 123.411 16.4533 123.411 15.6V10.432H122.275V9.232H123.411V7.024H124.867V9.232H127.155V10.432H124.867ZM136.92 13.28C136.92 13.5573 136.904 13.8507 136.872 14.16H129.864C129.917 15.024 130.21 15.7013 130.744 16.192C131.288 16.672 131.944 16.912 132.712 16.912C133.341 16.912 133.864 16.768 134.28 16.48C134.706 16.1813 135.005 15.7867 135.176 15.296H136.744C136.509 16.1387 136.04 16.8267 135.336 17.36C134.632 17.8827 133.757 18.144 132.712 18.144C131.88 18.144 131.133 17.9573 130.472 17.584C129.821 17.2107 129.309 16.6827 128.936 16C128.562 15.3067 128.376 14.5067 128.376 13.6C128.376 12.6933 128.557 11.8987 128.92 11.216C129.282 10.5333 129.789 10.0107 130.44 9.648C131.101 9.27467 131.858 9.088 132.712 9.088C133.544 9.088 134.28 9.26933 134.92 9.632C135.56 9.99467 136.05 10.496 136.392 11.136C136.744 11.7653 136.92 12.48 136.92 13.28ZM135.416 12.976C135.416 12.4213 135.293 11.9467 135.048 11.552C134.802 11.1467 134.466 10.8427 134.04 10.64C133.624 10.4267 133.16 10.32 132.648 10.32C131.912 10.32 131.282 10.5547 130.76 11.024C130.248 11.4933 129.954 12.144 129.88 12.976H135.416Z" fill="#414141"/>
<rect width="20" height="20" rx="3" fill="#F76519"/>
<rect x="5" y="11" width="2" height="5" fill="white"/>
<rect x="9" y="9" width="2" height="7" fill="white"/>
<rect x="13" y="5" width="2" height="11" fill="#FDAC82"/>
</svg>
