<svg width="349" height="367" viewBox="0 0 349 367" fill="none" xmlns="http://www.w3.org/2000/svg">
<rect width="349" height="367" rx="15" fill="white"/>
<path d="M40.856 58.592H33.872L32.672 62H29.816L35.792 45.296H38.96L44.936 62H42.056L40.856 58.592ZM40.088 56.36L37.376 48.608L34.64 56.36H40.088ZM46.6224 55.376C46.6224 54.016 46.8944 52.824 47.4384 51.8C47.9984 50.76 48.7664 49.96 49.7424 49.4C50.7184 48.84 51.8384 48.56 53.1024 48.56C54.7024 48.56 56.0224 48.944 57.0624 49.712C58.1184 50.464 58.8304 51.544 59.1984 52.952H56.2464C56.0064 52.296 55.6224 51.784 55.0944 51.416C54.5664 51.048 53.9024 50.864 53.1024 50.864C51.9824 50.864 51.0864 51.264 50.4144 52.064C49.7584 52.848 49.4304 53.952 49.4304 55.376C49.4304 56.8 49.7584 57.912 50.4144 58.712C51.0864 59.512 51.9824 59.912 53.1024 59.912C54.6864 59.912 55.7344 59.216 56.2464 57.824H59.1984C58.8144 59.168 58.0944 60.24 57.0384 61.04C55.9824 61.824 54.6704 62.216 53.1024 62.216C51.8384 62.216 50.7184 61.936 49.7424 61.376C48.7664 60.8 47.9984 60 47.4384 58.976C46.8944 57.936 46.6224 56.736 46.6224 55.376ZM65.117 51.008V58.328C65.117 58.824 65.229 59.184 65.453 59.408C65.693 59.616 66.093 59.72 66.653 59.72H68.333V62H66.173C64.941 62 63.997 61.712 63.341 61.136C62.685 60.56 62.357 59.624 62.357 58.328V51.008H60.797V48.776H62.357V45.488H65.117V48.776H68.333V51.008H65.117ZM72.2467 47.024C71.7507 47.024 71.3347 46.856 70.9987 46.52C70.6627 46.184 70.4947 45.768 70.4947 45.272C70.4947 44.776 70.6627 44.36 70.9987 44.024C71.3347 43.688 71.7507 43.52 72.2467 43.52C72.7267 43.52 73.1347 43.688 73.4707 44.024C73.8067 44.36 73.9747 44.776 73.9747 45.272C73.9747 45.768 73.8067 46.184 73.4707 46.52C73.1347 46.856 72.7267 47.024 72.2467 47.024ZM73.5907 48.776V62H70.8547V48.776H73.5907ZM82.2948 59.552L86.0388 48.776H88.9428L83.9028 62H80.6388L75.6228 48.776H78.5508L82.2948 59.552ZM92.4029 47.024C91.9069 47.024 91.4909 46.856 91.1549 46.52C90.8189 46.184 90.6509 45.768 90.6509 45.272C90.6509 44.776 90.8189 44.36 91.1549 44.024C91.4909 43.688 91.9069 43.52 92.4029 43.52C92.8829 43.52 93.2909 43.688 93.6269 44.024C93.9629 44.36 94.1309 44.776 94.1309 45.272C94.1309 45.768 93.9629 46.184 93.6269 46.52C93.2909 46.856 92.8829 47.024 92.4029 47.024ZM93.7469 48.776V62H91.0109V48.776H93.7469ZM100.531 51.008V58.328C100.531 58.824 100.643 59.184 100.867 59.408C101.107 59.616 101.507 59.72 102.067 59.72H103.747V62H101.587C100.355 62 99.4111 61.712 98.7551 61.136C98.0991 60.56 97.7711 59.624 97.7711 58.328V51.008H96.2111V48.776H97.7711V45.488H100.531V48.776H103.747V51.008H100.531ZM118.173 48.776L110.061 68.216H107.229L109.917 61.784L104.709 48.776H107.757L111.477 58.856L115.341 48.776H118.173ZM125.56 53.624C125.56 51.992 125.936 50.528 126.688 49.232C127.456 47.936 128.488 46.928 129.784 46.208C131.096 45.472 132.528 45.104 134.08 45.104C135.856 45.104 137.432 45.544 138.808 46.424C140.2 47.288 141.208 48.52 141.832 50.12H138.544C138.112 49.24 137.512 48.584 136.744 48.152C135.976 47.72 135.088 47.504 134.08 47.504C132.976 47.504 131.992 47.752 131.128 48.248C130.264 48.744 129.584 49.456 129.088 50.384C128.608 51.312 128.368 52.392 128.368 53.624C128.368 54.856 128.608 55.936 129.088 56.864C129.584 57.792 130.264 58.512 131.128 59.024C131.992 59.52 132.976 59.768 134.08 59.768C135.088 59.768 135.976 59.552 136.744 59.12C137.512 58.688 138.112 58.032 138.544 57.152H141.832C141.208 58.752 140.2 59.984 138.808 60.848C137.432 61.712 135.856 62.144 134.08 62.144C132.512 62.144 131.08 61.784 129.784 61.064C128.488 60.328 127.456 59.312 126.688 58.016C125.936 56.72 125.56 55.256 125.56 53.624ZM151.874 48.56C152.882 48.56 153.778 48.776 154.562 49.208C155.362 49.64 155.986 50.28 156.434 51.128C156.898 51.976 157.13 53 157.13 54.2V62H154.418V54.608C154.418 53.424 154.122 52.52 153.53 51.896C152.938 51.256 152.13 50.936 151.106 50.936C150.082 50.936 149.266 51.256 148.658 51.896C148.066 52.52 147.77 53.424 147.77 54.608V62H145.034V44.24H147.77V50.312C148.234 49.752 148.818 49.32 149.522 49.016C150.242 48.712 151.026 48.56 151.874 48.56ZM159.708 55.328C159.708 54 159.98 52.824 160.524 51.8C161.084 50.776 161.836 49.984 162.78 49.424C163.74 48.848 164.796 48.56 165.948 48.56C166.988 48.56 167.892 48.768 168.66 49.184C169.444 49.584 170.068 50.088 170.532 50.696V48.776H173.292V62H170.532V60.032C170.068 60.656 169.436 61.176 168.636 61.592C167.836 62.008 166.924 62.216 165.9 62.216C164.764 62.216 163.724 61.928 162.78 61.352C161.836 60.76 161.084 59.944 160.524 58.904C159.98 57.848 159.708 56.656 159.708 55.328ZM170.532 55.376C170.532 54.464 170.34 53.672 169.956 53C169.588 52.328 169.1 51.816 168.492 51.464C167.884 51.112 167.228 50.936 166.524 50.936C165.82 50.936 165.164 51.112 164.556 51.464C163.948 51.8 163.452 52.304 163.068 52.976C162.7 53.632 162.516 54.416 162.516 55.328C162.516 56.24 162.7 57.04 163.068 57.728C163.452 58.416 163.948 58.944 164.556 59.312C165.18 59.664 165.836 59.84 166.524 59.84C167.228 59.84 167.884 59.664 168.492 59.312C169.1 58.96 169.588 58.448 169.956 57.776C170.34 57.088 170.532 56.288 170.532 55.376ZM179.622 50.696C180.022 50.024 180.55 49.504 181.206 49.136C181.878 48.752 182.67 48.56 183.582 48.56V51.392H182.886C181.814 51.392 180.998 51.664 180.438 52.208C179.894 52.752 179.622 53.696 179.622 55.04V62H176.886V48.776H179.622V50.696ZM189.289 51.008V58.328C189.289 58.824 189.401 59.184 189.625 59.408C189.865 59.616 190.265 59.72 190.825 59.72H192.505V62H190.345C189.113 62 188.169 61.712 187.513 61.136C186.857 60.56 186.529 59.624 186.529 58.328V51.008H184.969V48.776H186.529V45.488H189.289V48.776H192.505V51.008H189.289Z" fill="#D84545"/>
<path d="M29 103H319" stroke="#CECECE" stroke-dasharray="4 2"/>
<path d="M29 140H319" stroke="#CECECE" stroke-dasharray="4 2"/>
<path d="M29 177H319" stroke="#CECECE" stroke-dasharray="4 2"/>
<path d="M29 251H319" stroke="#CECECE" stroke-dasharray="4 2"/>
<path d="M29 288H319" stroke="#CECECE" stroke-dasharray="4 2"/>
<path d="M29 214H319" stroke="#CECECE" stroke-dasharray="4 2"/>
<rect x="29" y="243" width="31" height="46" rx="6" fill="#D84545"/>
<rect x="185" y="131" width="31" height="158" rx="6" fill="#D84545"/>
<rect x="133" y="209" width="31" height="80" rx="6" fill="#F8D974"/>
<rect x="289" y="157" width="31" height="132" rx="6" fill="#1EA7FF"/>
<rect x="81" y="140" width="31" height="149" rx="6" fill="#1EA7FF"/>
<rect x="237" y="174" width="31" height="115" rx="6" fill="#F8D974"/>
<circle cx="70.5" cy="322.5" r="5" stroke="#D5D5FD"/>
<circle cx="70.5" cy="322.5" r="2.5" fill="#F8D974"/>
<path d="M84.852 327V318.6H86.352L89.196 324.192L92.028 318.6H93.528V327H92.256V320.796L89.688 325.8H88.704L86.124 320.808V327H84.852ZM97.9708 327.144C97.3868 327.144 96.8668 327.016 96.4108 326.76C95.9628 326.496 95.6108 326.132 95.3548 325.668C95.0988 325.204 94.9708 324.664 94.9708 324.048C94.9708 323.424 95.0948 322.876 95.3428 322.404C95.5988 321.932 95.9508 321.564 96.3988 321.3C96.8548 321.036 97.3828 320.904 97.9828 320.904C98.5668 320.904 99.0748 321.036 99.5068 321.3C99.9388 321.556 100.275 321.9 100.515 322.332C100.755 322.764 100.875 323.24 100.875 323.76C100.875 323.84 100.871 323.928 100.863 324.024C100.863 324.112 100.859 324.212 100.851 324.324H96.2188C96.2588 324.9 96.4468 325.34 96.7828 325.644C97.1268 325.94 97.5228 326.088 97.9708 326.088C98.3308 326.088 98.6308 326.008 98.8708 325.848C99.1188 325.68 99.3028 325.456 99.4228 325.176H100.695C100.535 325.736 100.215 326.204 99.7348 326.58C99.2628 326.956 98.6748 327.144 97.9708 327.144ZM97.9708 321.948C97.5468 321.948 97.1708 322.076 96.8428 322.332C96.5148 322.58 96.3148 322.956 96.2428 323.46H99.6028C99.5788 322.996 99.4148 322.628 99.1108 322.356C98.8068 322.084 98.4268 321.948 97.9708 321.948ZM104.907 327.144C104.331 327.144 103.823 327.008 103.383 326.736C102.943 326.464 102.599 326.092 102.351 325.62C102.103 325.148 101.979 324.612 101.979 324.012C101.979 323.412 102.103 322.88 102.351 322.416C102.599 321.944 102.943 321.576 103.383 321.312C103.831 321.04 104.343 320.904 104.919 320.904C105.391 320.904 105.803 320.996 106.155 321.18C106.515 321.364 106.795 321.624 106.995 321.96V318.36H108.267V327H107.127L106.995 326.076C106.803 326.356 106.539 326.604 106.203 326.82C105.867 327.036 105.435 327.144 104.907 327.144ZM105.135 326.04C105.679 326.04 106.123 325.852 106.467 325.476C106.819 325.1 106.995 324.616 106.995 324.024C106.995 323.424 106.819 322.94 106.467 322.572C106.123 322.196 105.679 322.008 105.135 322.008C104.591 322.008 104.143 322.196 103.791 322.572C103.439 322.94 103.263 323.424 103.263 324.024C103.263 324.416 103.343 324.764 103.503 325.068C103.663 325.372 103.883 325.612 104.163 325.788C104.451 325.956 104.775 326.04 105.135 326.04ZM110.59 319.92C110.35 319.92 110.15 319.848 109.99 319.704C109.838 319.552 109.762 319.364 109.762 319.14C109.762 318.916 109.838 318.732 109.99 318.588C110.15 318.436 110.35 318.36 110.59 318.36C110.83 318.36 111.026 318.436 111.178 318.588C111.338 318.732 111.418 318.916 111.418 319.14C111.418 319.364 111.338 319.552 111.178 319.704C111.026 319.848 110.83 319.92 110.59 319.92ZM109.954 327V321.048H111.226V327H109.954ZM114.922 327.144C114.418 327.144 114.002 327.06 113.674 326.892C113.346 326.724 113.102 326.504 112.942 326.232C112.782 325.952 112.702 325.648 112.702 325.32C112.702 324.744 112.926 324.288 113.374 323.952C113.822 323.616 114.462 323.448 115.294 323.448H116.854V323.34C116.854 322.876 116.726 322.528 116.47 322.296C116.222 322.064 115.898 321.948 115.498 321.948C115.146 321.948 114.838 322.036 114.574 322.212C114.318 322.38 114.162 322.632 114.106 322.968H112.834C112.874 322.536 113.018 322.168 113.266 321.864C113.522 321.552 113.842 321.316 114.226 321.156C114.618 320.988 115.046 320.904 115.51 320.904C116.342 320.904 116.986 321.124 117.442 321.564C117.898 321.996 118.126 322.588 118.126 323.34V327H117.022L116.914 325.98C116.746 326.308 116.502 326.584 116.182 326.808C115.862 327.032 115.442 327.144 114.922 327.144ZM115.174 326.112C115.518 326.112 115.806 326.032 116.038 325.872C116.278 325.704 116.462 325.484 116.59 325.212C116.726 324.94 116.81 324.64 116.842 324.312H115.426C114.922 324.312 114.562 324.4 114.346 324.576C114.138 324.752 114.034 324.972 114.034 325.236C114.034 325.508 114.134 325.724 114.334 325.884C114.542 326.036 114.822 326.112 115.174 326.112Z" fill="#232360"/>
<circle cx="153.5" cy="322.5" r="5" stroke="#CAEAFF"/>
<circle cx="153.5" cy="322.5" r="2.5" fill="#1EA7FF"/>
<path d="M167.852 327V318.6H170.792C171.448 318.6 171.992 318.712 172.424 318.936C172.856 319.152 173.176 319.452 173.384 319.836C173.6 320.212 173.708 320.64 173.708 321.12C173.708 321.576 173.604 321.996 173.396 322.38C173.196 322.756 172.88 323.056 172.448 323.28C172.016 323.504 171.464 323.616 170.792 323.616H169.124V327H167.852ZM169.124 322.572H170.732C171.332 322.572 171.76 322.444 172.016 322.188C172.28 321.924 172.412 321.568 172.412 321.12C172.412 320.656 172.28 320.296 172.016 320.04C171.76 319.776 171.332 319.644 170.732 319.644H169.124V322.572ZM174.917 327V318.36H176.189V322.008C176.389 321.664 176.665 321.396 177.017 321.204C177.377 321.004 177.773 320.904 178.205 320.904C178.917 320.904 179.477 321.128 179.885 321.576C180.293 322.024 180.497 322.692 180.497 323.58V327H179.237V323.712C179.237 322.56 178.777 321.984 177.857 321.984C177.377 321.984 176.977 322.152 176.657 322.488C176.345 322.824 176.189 323.304 176.189 323.928V327H174.917ZM184.779 327.144C184.211 327.144 183.699 327.016 183.243 326.76C182.795 326.496 182.439 326.132 182.175 325.668C181.911 325.196 181.779 324.648 181.779 324.024C181.779 323.4 181.911 322.856 182.175 322.392C182.447 321.92 182.811 321.556 183.267 321.3C183.723 321.036 184.231 320.904 184.791 320.904C185.359 320.904 185.867 321.036 186.315 321.3C186.771 321.556 187.131 321.92 187.395 322.392C187.667 322.856 187.803 323.4 187.803 324.024C187.803 324.648 187.667 325.196 187.395 325.668C187.131 326.132 186.771 326.496 186.315 326.76C185.859 327.016 185.347 327.144 184.779 327.144ZM184.779 326.052C185.083 326.052 185.363 325.976 185.619 325.824C185.883 325.672 186.095 325.448 186.255 325.152C186.415 324.848 186.495 324.472 186.495 324.024C186.495 323.576 186.415 323.204 186.255 322.908C186.103 322.604 185.895 322.376 185.631 322.224C185.375 322.072 185.095 321.996 184.791 321.996C184.487 321.996 184.203 322.072 183.939 322.224C183.683 322.376 183.475 322.604 183.315 322.908C183.155 323.204 183.075 323.576 183.075 324.024C183.075 324.472 183.155 324.848 183.315 325.152C183.475 325.448 183.683 325.672 183.939 325.824C184.195 325.976 184.475 326.052 184.779 326.052ZM191.441 327C190.857 327 190.393 326.86 190.049 326.58C189.705 326.292 189.533 325.784 189.533 325.056V322.116H188.513V321.048H189.533L189.689 319.536H190.805V321.048H192.485V322.116H190.805V325.056C190.805 325.384 190.873 325.612 191.009 325.74C191.153 325.86 191.397 325.92 191.741 325.92H192.425V327H191.441ZM196.428 327.144C195.86 327.144 195.348 327.016 194.892 326.76C194.444 326.496 194.088 326.132 193.824 325.668C193.56 325.196 193.428 324.648 193.428 324.024C193.428 323.4 193.56 322.856 193.824 322.392C194.096 321.92 194.46 321.556 194.916 321.3C195.372 321.036 195.88 320.904 196.44 320.904C197.008 320.904 197.516 321.036 197.964 321.3C198.42 321.556 198.78 321.92 199.044 322.392C199.316 322.856 199.452 323.4 199.452 324.024C199.452 324.648 199.316 325.196 199.044 325.668C198.78 326.132 198.42 326.496 197.964 326.76C197.508 327.016 196.996 327.144 196.428 327.144ZM196.428 326.052C196.732 326.052 197.012 325.976 197.268 325.824C197.532 325.672 197.744 325.448 197.904 325.152C198.064 324.848 198.144 324.472 198.144 324.024C198.144 323.576 198.064 323.204 197.904 322.908C197.752 322.604 197.544 322.376 197.28 322.224C197.024 322.072 196.744 321.996 196.44 321.996C196.136 321.996 195.852 322.072 195.588 322.224C195.332 322.376 195.124 322.604 194.964 322.908C194.804 323.204 194.724 323.576 194.724 324.024C194.724 324.472 194.804 324.848 194.964 325.152C195.124 325.448 195.332 325.672 195.588 325.824C195.844 325.976 196.124 326.052 196.428 326.052ZM203.203 327.144C202.451 327.144 201.831 326.96 201.343 326.592C200.855 326.224 200.575 325.736 200.503 325.128H201.787C201.851 325.4 202.003 325.636 202.243 325.836C202.483 326.028 202.799 326.124 203.191 326.124C203.575 326.124 203.855 326.044 204.031 325.884C204.207 325.724 204.295 325.54 204.295 325.332C204.295 325.028 204.171 324.824 203.923 324.72C203.683 324.608 203.347 324.508 202.915 324.42C202.579 324.348 202.243 324.252 201.907 324.132C201.579 324.012 201.303 323.844 201.079 323.628C200.863 323.404 200.755 323.104 200.755 322.728C200.755 322.208 200.955 321.776 201.355 321.432C201.755 321.08 202.315 320.904 203.035 320.904C203.699 320.904 204.235 321.064 204.643 321.384C205.059 321.704 205.303 322.156 205.375 322.74H204.151C204.111 322.484 203.991 322.284 203.791 322.14C203.599 321.996 203.339 321.924 203.011 321.924C202.691 321.924 202.443 321.992 202.267 322.128C202.091 322.256 202.003 322.424 202.003 322.632C202.003 322.84 202.123 323.004 202.363 323.124C202.611 323.244 202.935 323.352 203.335 323.448C203.735 323.536 204.103 323.64 204.439 323.76C204.783 323.872 205.059 324.04 205.267 324.264C205.475 324.488 205.579 324.816 205.579 325.248C205.587 325.792 205.375 326.244 204.943 326.604C204.519 326.964 203.939 327.144 203.203 327.144Z" fill="#232360"/>
<circle cx="241.5" cy="322.5" r="5" stroke="#FFE7E2"/>
<circle cx="241.5" cy="322.5" r="2.5" fill="#D84545"/>
<path d="M255.852 327V318.6H258.576C259.56 318.6 260.368 318.772 261 319.116C261.64 319.46 262.112 319.948 262.416 320.58C262.728 321.204 262.884 321.948 262.884 322.812C262.884 323.668 262.728 324.412 262.416 325.044C262.112 325.668 261.64 326.152 261 326.496C260.368 326.832 259.56 327 258.576 327H255.852ZM257.124 325.92H258.528C259.288 325.92 259.888 325.796 260.328 325.548C260.776 325.3 261.096 324.944 261.288 324.48C261.488 324.016 261.588 323.46 261.588 322.812C261.588 322.164 261.488 321.604 261.288 321.132C261.096 320.66 260.776 320.3 260.328 320.052C259.888 319.796 259.288 319.668 258.528 319.668H257.124V325.92ZM267.026 327.144C266.458 327.144 265.946 327.016 265.49 326.76C265.042 326.496 264.686 326.132 264.422 325.668C264.158 325.196 264.026 324.648 264.026 324.024C264.026 323.4 264.158 322.856 264.422 322.392C264.694 321.92 265.058 321.556 265.514 321.3C265.97 321.036 266.478 320.904 267.038 320.904C267.606 320.904 268.114 321.036 268.562 321.3C269.018 321.556 269.378 321.92 269.642 322.392C269.914 322.856 270.049 323.4 270.049 324.024C270.049 324.648 269.914 325.196 269.642 325.668C269.378 326.132 269.018 326.496 268.562 326.76C268.106 327.016 267.594 327.144 267.026 327.144ZM267.026 326.052C267.33 326.052 267.61 325.976 267.866 325.824C268.13 325.672 268.342 325.448 268.502 325.152C268.662 324.848 268.742 324.472 268.742 324.024C268.742 323.576 268.662 323.204 268.502 322.908C268.35 322.604 268.142 322.376 267.878 322.224C267.622 322.072 267.342 321.996 267.038 321.996C266.734 321.996 266.45 322.072 266.186 322.224C265.93 322.376 265.722 322.604 265.562 322.908C265.402 323.204 265.322 323.576 265.322 324.024C265.322 324.472 265.402 324.848 265.562 325.152C265.722 325.448 265.93 325.672 266.186 325.824C266.442 325.976 266.722 326.052 267.026 326.052ZM274.245 327.144C273.661 327.144 273.137 327.012 272.673 326.748C272.217 326.484 271.857 326.12 271.593 325.656C271.337 325.184 271.209 324.64 271.209 324.024C271.209 323.408 271.337 322.868 271.593 322.404C271.857 321.932 272.217 321.564 272.673 321.3C273.137 321.036 273.661 320.904 274.245 320.904C274.981 320.904 275.597 321.096 276.093 321.48C276.597 321.864 276.921 322.384 277.065 323.04H275.733C275.653 322.712 275.477 322.456 275.205 322.272C274.933 322.088 274.613 321.996 274.245 321.996C273.933 321.996 273.645 322.076 273.381 322.236C273.117 322.388 272.905 322.616 272.745 322.92C272.585 323.216 272.505 323.584 272.505 324.024C272.505 324.464 272.585 324.836 272.745 325.14C272.905 325.436 273.117 325.664 273.381 325.824C273.645 325.984 273.933 326.064 274.245 326.064C274.613 326.064 274.933 325.972 275.205 325.788C275.477 325.604 275.653 325.344 275.733 325.008H277.065C276.929 325.648 276.609 326.164 276.105 326.556C275.601 326.948 274.981 327.144 274.245 327.144ZM280.821 327.144C280.069 327.144 279.449 326.96 278.961 326.592C278.473 326.224 278.193 325.736 278.121 325.128H279.405C279.469 325.4 279.621 325.636 279.861 325.836C280.101 326.028 280.417 326.124 280.809 326.124C281.193 326.124 281.473 326.044 281.649 325.884C281.825 325.724 281.913 325.54 281.913 325.332C281.913 325.028 281.789 324.824 281.541 324.72C281.301 324.608 280.965 324.508 280.533 324.42C280.197 324.348 279.861 324.252 279.525 324.132C279.197 324.012 278.921 323.844 278.697 323.628C278.481 323.404 278.373 323.104 278.373 322.728C278.373 322.208 278.573 321.776 278.973 321.432C279.373 321.08 279.933 320.904 280.653 320.904C281.317 320.904 281.853 321.064 282.261 321.384C282.677 321.704 282.921 322.156 282.993 322.74H281.769C281.729 322.484 281.609 322.284 281.409 322.14C281.217 321.996 280.957 321.924 280.629 321.924C280.309 321.924 280.061 321.992 279.885 322.128C279.709 322.256 279.621 322.424 279.621 322.632C279.621 322.84 279.741 323.004 279.981 323.124C280.229 323.244 280.553 323.352 280.953 323.448C281.353 323.536 281.721 323.64 282.057 323.76C282.401 323.872 282.677 324.04 282.885 324.264C283.093 324.488 283.197 324.816 283.197 325.248C283.205 325.792 282.993 326.244 282.561 326.604C282.137 326.964 281.557 327.144 280.821 327.144Z" fill="#232360"/>
</svg>
