<svg width="349" height="410" viewBox="0 0 349 410" fill="none" xmlns="http://www.w3.org/2000/svg">
<rect width="349" height="410" fill="#E5E5E5"/>
<g clip-path="url(#clip0_55_329)">
<rect width="1440" height="1024" transform="translate(-1061 -182)" fill="white"/>
<rect x="-1056" y="-216" width="1440" height="1024" fill="#F3F4F8"/>
<rect width="349" height="410" rx="15" fill="white"/>
<rect x="30" y="25" width="289" height="124" rx="11" fill="#FFF6D0"/>
<path d="M136 86C136 106.435 119.435 123 99 123C78.5655 123 62 106.435 62 86C62 65.5655 78.5655 49 99 49C119.435 49 136 65.5655 136 86ZM72.0601 86C72.0601 100.878 84.1215 112.94 99 112.94C113.878 112.94 125.94 100.878 125.94 86C125.94 71.1215 113.878 59.0601 99 59.0601C84.1215 59.0601 72.0601 71.1215 72.0601 86Z" fill="white"/>
<path d="M95.9544 44.0763C95.8883 42.9737 96.7288 42.0215 97.8332 42.005C106.162 41.8801 114.374 44.096 121.525 48.4199C129.248 53.0894 135.368 59.9964 139.074 68.2248C142.78 76.4531 143.897 85.6138 142.277 94.4916C140.656 103.369 136.374 111.545 130 117.933C123.625 124.321 115.459 128.62 106.585 130.259C97.7107 131.899 88.5477 130.802 80.3114 127.113C72.0752 123.425 65.1551 117.319 60.4692 109.606C56.13 102.465 53.8965 94.2574 54.0037 85.9282C54.0179 84.8237 54.9682 83.9812 56.071 84.045L63.7299 84.4881C64.8326 84.5519 65.6684 85.4981 65.6719 86.6027C65.6905 92.5668 67.3342 98.4273 70.4441 103.546C73.901 109.236 79.006 113.74 85.082 116.461C91.158 119.182 97.9177 119.991 104.464 118.782C111.011 117.572 117.035 114.401 121.738 109.688C126.44 104.976 129.599 98.9448 130.795 92.3955C131.99 85.8463 131.166 79.0883 128.432 73.0181C125.698 66.948 121.183 61.8525 115.486 58.4078C110.361 55.3088 104.497 53.6776 98.5326 53.6717C97.4281 53.6706 96.4801 52.8368 96.4139 51.7343L95.9544 44.0763Z" fill="#D84545"/>
<path d="M91.238 83.278L87.514 92H85.526L89.278 83.502H84.49V81.822H91.238V83.278ZM99.2719 83.488H94.7359V85.882C94.9319 85.6393 95.2119 85.4433 95.5759 85.294C95.9399 85.1353 96.3273 85.056 96.7379 85.056C97.4846 85.056 98.0959 85.2193 98.5719 85.546C99.0479 85.8727 99.3933 86.2927 99.6079 86.806C99.8226 87.31 99.9299 87.8513 99.9299 88.43C99.9299 89.5033 99.6219 90.3667 99.0059 91.02C98.3993 91.6733 97.5313 92 96.4019 92C95.3379 92 94.4886 91.734 93.8539 91.202C93.2193 90.67 92.8599 89.9747 92.7759 89.116H94.6799C94.7639 89.4893 94.9506 89.788 95.2399 90.012C95.5386 90.236 95.9166 90.348 96.3739 90.348C96.9246 90.348 97.3399 90.1753 97.6199 89.83C97.8999 89.4847 98.0399 89.0273 98.0399 88.458C98.0399 87.8793 97.8953 87.4407 97.6059 87.142C97.3259 86.834 96.9106 86.68 96.3599 86.68C95.9679 86.68 95.6413 86.778 95.3799 86.974C95.1186 87.17 94.9319 87.4313 94.8199 87.758H92.9439V81.766H99.2719V83.488ZM101.198 84.3C101.198 83.5907 101.403 83.0353 101.814 82.634C102.234 82.2327 102.77 82.032 103.424 82.032C104.077 82.032 104.609 82.2327 105.02 82.634C105.44 83.0353 105.65 83.5907 105.65 84.3C105.65 85.0187 105.44 85.5787 105.02 85.98C104.609 86.3813 104.077 86.582 103.424 86.582C102.77 86.582 102.234 86.3813 101.814 85.98C101.403 85.5787 101.198 85.0187 101.198 84.3ZM110.186 82.2L104.684 92H102.78L108.268 82.2H110.186ZM103.41 83.208C102.896 83.208 102.64 83.572 102.64 84.3C102.64 85.0373 102.896 85.406 103.41 85.406C103.662 85.406 103.858 85.3173 103.998 85.14C104.138 84.9533 104.208 84.6733 104.208 84.3C104.208 83.572 103.942 83.208 103.41 83.208ZM107.344 89.886C107.344 89.1673 107.549 88.612 107.96 88.22C108.38 87.8187 108.916 87.618 109.57 87.618C110.223 87.618 110.75 87.8187 111.152 88.22C111.562 88.612 111.768 89.1673 111.768 89.886C111.768 90.6047 111.562 91.1647 111.152 91.566C110.75 91.9673 110.223 92.168 109.57 92.168C108.907 92.168 108.37 91.9673 107.96 91.566C107.549 91.1647 107.344 90.6047 107.344 89.886ZM109.556 88.794C109.024 88.794 108.758 89.158 108.758 89.886C108.758 90.6233 109.024 90.992 109.556 90.992C110.078 90.992 110.34 90.6233 110.34 89.886C110.34 89.158 110.078 88.794 109.556 88.794Z" fill="#242526"/>
<path d="M173.958 78.138H170.066L169.422 80H167.364L170.878 70.214H173.16L176.674 80H174.602L173.958 78.138ZM173.426 76.57L172.012 72.482L170.598 76.57H173.426ZM181.221 78.194L183.181 72.244H185.267L182.397 80H180.017L177.161 72.244H179.261L181.221 78.194ZM185.864 76.094C185.864 75.31 186.018 74.6147 186.326 74.008C186.644 73.4013 187.068 72.9347 187.6 72.608C188.142 72.2813 188.744 72.118 189.406 72.118C189.985 72.118 190.489 72.2347 190.918 72.468C191.357 72.7013 191.707 72.9953 191.968 73.35V72.244H193.942V80H191.968V78.866C191.716 79.23 191.366 79.5333 190.918 79.776C190.48 80.0093 189.971 80.126 189.392 80.126C188.739 80.126 188.142 79.958 187.6 79.622C187.068 79.286 186.644 78.8147 186.326 78.208C186.018 77.592 185.864 76.8873 185.864 76.094ZM191.968 76.122C191.968 75.646 191.875 75.24 191.688 74.904C191.502 74.5587 191.25 74.2973 190.932 74.12C190.615 73.9333 190.274 73.84 189.91 73.84C189.546 73.84 189.21 73.9287 188.902 74.106C188.594 74.2833 188.342 74.5447 188.146 74.89C187.96 75.226 187.866 75.6273 187.866 76.094C187.866 76.5607 187.96 76.9713 188.146 77.326C188.342 77.6713 188.594 77.9373 188.902 78.124C189.22 78.3107 189.556 78.404 189.91 78.404C190.274 78.404 190.615 78.3153 190.932 78.138C191.25 77.9513 191.502 77.69 191.688 77.354C191.875 77.0087 191.968 76.598 191.968 76.122ZM196.851 71.32C196.505 71.32 196.216 71.2127 195.983 70.998C195.759 70.774 195.647 70.4987 195.647 70.172C195.647 69.8453 195.759 69.5747 195.983 69.36C196.216 69.136 196.505 69.024 196.851 69.024C197.196 69.024 197.481 69.136 197.705 69.36C197.938 69.5747 198.055 69.8453 198.055 70.172C198.055 70.4987 197.938 70.774 197.705 70.998C197.481 71.2127 197.196 71.32 196.851 71.32ZM197.817 72.244V80H195.857V72.244H197.817ZM201.713 69.64V80H199.753V69.64H201.713ZM203.146 76.094C203.146 75.31 203.3 74.6147 203.608 74.008C203.925 73.4013 204.35 72.9347 204.882 72.608C205.423 72.2813 206.025 72.118 206.688 72.118C207.266 72.118 207.77 72.2347 208.2 72.468C208.638 72.7013 208.988 72.9953 209.25 73.35V72.244H211.224V80H209.25V78.866C208.998 79.23 208.648 79.5333 208.2 79.776C207.761 80.0093 207.252 80.126 206.674 80.126C206.02 80.126 205.423 79.958 204.882 79.622C204.35 79.286 203.925 78.8147 203.608 78.208C203.3 77.592 203.146 76.8873 203.146 76.094ZM209.25 76.122C209.25 75.646 209.156 75.24 208.97 74.904C208.783 74.5587 208.531 74.2973 208.214 74.12C207.896 73.9333 207.556 73.84 207.192 73.84C206.828 73.84 206.492 73.9287 206.184 74.106C205.876 74.2833 205.624 74.5447 205.428 74.89C205.241 75.226 205.148 75.6273 205.148 76.094C205.148 76.5607 205.241 76.9713 205.428 77.326C205.624 77.6713 205.876 77.9373 206.184 78.124C206.501 78.3107 206.837 78.404 207.192 78.404C207.556 78.404 207.896 78.3153 208.214 78.138C208.531 77.9513 208.783 77.69 208.97 77.354C209.156 77.0087 209.25 76.598 209.25 76.122ZM215.098 73.378C215.35 73.0047 215.695 72.7013 216.134 72.468C216.582 72.2347 217.091 72.118 217.66 72.118C218.323 72.118 218.92 72.2813 219.452 72.608C219.993 72.9347 220.418 73.4013 220.726 74.008C221.043 74.6053 221.202 75.3007 221.202 76.094C221.202 76.8873 221.043 77.592 220.726 78.208C220.418 78.8147 219.993 79.286 219.452 79.622C218.92 79.958 218.323 80.126 217.66 80.126C217.081 80.126 216.573 80.014 216.134 79.79C215.705 79.5567 215.359 79.258 215.098 78.894V80H213.138V69.64H215.098V73.378ZM219.2 76.094C219.2 75.6273 219.102 75.226 218.906 74.89C218.719 74.5447 218.467 74.2833 218.15 74.106C217.842 73.9287 217.506 73.84 217.142 73.84C216.787 73.84 216.451 73.9333 216.134 74.12C215.826 74.2973 215.574 74.5587 215.378 74.904C215.191 75.2493 215.098 75.6553 215.098 76.122C215.098 76.5887 215.191 76.9947 215.378 77.34C215.574 77.6853 215.826 77.9513 216.134 78.138C216.451 78.3153 216.787 78.404 217.142 78.404C217.506 78.404 217.842 78.3107 218.15 78.124C218.467 77.9373 218.719 77.6713 218.906 77.326C219.102 76.9807 219.2 76.57 219.2 76.094ZM224.586 69.64V80H222.626V69.64H224.586ZM233.733 75.954C233.733 76.234 233.714 76.486 233.677 76.71H228.007C228.053 77.27 228.249 77.7087 228.595 78.026C228.94 78.3433 229.365 78.502 229.869 78.502C230.597 78.502 231.115 78.1893 231.423 77.564H233.537C233.313 78.3107 232.883 78.9267 232.249 79.412C231.614 79.888 230.835 80.126 229.911 80.126C229.164 80.126 228.492 79.9627 227.895 79.636C227.307 79.3 226.845 78.8287 226.509 78.222C226.182 77.6153 226.019 76.9153 226.019 76.122C226.019 75.3193 226.182 74.6147 226.509 74.008C226.835 73.4013 227.293 72.9347 227.881 72.608C228.469 72.2813 229.145 72.118 229.911 72.118C230.648 72.118 231.306 72.2767 231.885 72.594C232.473 72.9113 232.925 73.364 233.243 73.952C233.569 74.5307 233.733 75.198 233.733 75.954ZM231.703 75.394C231.693 74.89 231.511 74.4887 231.157 74.19C230.802 73.882 230.368 73.728 229.855 73.728C229.369 73.728 228.959 73.8773 228.623 74.176C228.296 74.4653 228.095 74.8713 228.021 75.394H231.703ZM241.873 80.098C241.192 80.098 240.576 79.9813 240.025 79.748C239.484 79.5147 239.055 79.1787 238.737 78.74C238.42 78.3013 238.257 77.7833 238.247 77.186H240.347C240.375 77.5873 240.515 77.9047 240.767 78.138C241.029 78.3713 241.383 78.488 241.831 78.488C242.289 78.488 242.648 78.3807 242.909 78.166C243.171 77.942 243.301 77.6527 243.301 77.298C243.301 77.0087 243.213 76.7707 243.035 76.584C242.858 76.3973 242.634 76.2527 242.363 76.15C242.102 76.038 241.738 75.9167 241.271 75.786C240.637 75.5993 240.119 75.4173 239.717 75.24C239.325 75.0533 238.985 74.778 238.695 74.414C238.415 74.0407 238.275 73.546 238.275 72.93C238.275 72.3513 238.42 71.8473 238.709 71.418C238.999 70.9887 239.405 70.662 239.927 70.438C240.45 70.2047 241.047 70.088 241.719 70.088C242.727 70.088 243.544 70.3353 244.169 70.83C244.804 71.3153 245.154 71.9967 245.219 72.874H243.063C243.045 72.538 242.9 72.2627 242.629 72.048C242.368 71.824 242.018 71.712 241.579 71.712C241.197 71.712 240.889 71.81 240.655 72.006C240.431 72.202 240.319 72.4867 240.319 72.86C240.319 73.1213 240.403 73.3407 240.571 73.518C240.749 73.686 240.963 73.826 241.215 73.938C241.477 74.0407 241.841 74.162 242.307 74.302C242.942 74.4887 243.46 74.6753 243.861 74.862C244.263 75.0487 244.608 75.3287 244.897 75.702C245.187 76.0753 245.331 76.5653 245.331 77.172C245.331 77.6947 245.196 78.18 244.925 78.628C244.655 79.076 244.258 79.4353 243.735 79.706C243.213 79.9673 242.592 80.098 241.873 80.098ZM249.312 73.854V77.606C249.312 77.8673 249.373 78.0587 249.494 78.18C249.625 78.292 249.84 78.348 250.138 78.348H251.048V80H249.816C248.164 80 247.338 79.1973 247.338 77.592V73.854H246.414V72.244H247.338V70.326H249.312V72.244H251.048V73.854H249.312ZM255.902 80.126C255.156 80.126 254.484 79.9627 253.886 79.636C253.289 79.3 252.818 78.8287 252.472 78.222C252.136 77.6153 251.968 76.9153 251.968 76.122C251.968 75.3287 252.141 74.6287 252.486 74.022C252.841 73.4153 253.322 72.9487 253.928 72.622C254.535 72.286 255.212 72.118 255.958 72.118C256.705 72.118 257.382 72.286 257.988 72.622C258.595 72.9487 259.071 73.4153 259.416 74.022C259.771 74.6287 259.948 75.3287 259.948 76.122C259.948 76.9153 259.766 77.6153 259.402 78.222C259.048 78.8287 258.562 79.3 257.946 79.636C257.34 79.9627 256.658 80.126 255.902 80.126ZM255.902 78.418C256.257 78.418 256.588 78.334 256.896 78.166C257.214 77.9887 257.466 77.7273 257.652 77.382C257.839 77.0367 257.932 76.6167 257.932 76.122C257.932 75.3847 257.736 74.82 257.344 74.428C256.962 74.0267 256.49 73.826 255.93 73.826C255.37 73.826 254.899 74.0267 254.516 74.428C254.143 74.82 253.956 75.3847 253.956 76.122C253.956 76.8593 254.138 77.4287 254.502 77.83C254.876 78.222 255.342 78.418 255.902 78.418ZM263.346 73.448C263.598 73.0373 263.925 72.7153 264.326 72.482C264.737 72.2487 265.203 72.132 265.726 72.132V74.19H265.208C264.592 74.19 264.125 74.3347 263.808 74.624C263.5 74.9133 263.346 75.4173 263.346 76.136V80H261.386V72.244H263.346V73.448ZM266.542 76.094C266.542 75.31 266.696 74.6147 267.004 74.008C267.321 73.4013 267.746 72.9347 268.278 72.608C268.819 72.2813 269.421 72.118 270.084 72.118C270.663 72.118 271.167 72.2347 271.596 72.468C272.035 72.7013 272.385 72.9953 272.646 73.35V72.244H274.62V80H272.646V78.866C272.394 79.23 272.044 79.5333 271.596 79.776C271.157 80.0093 270.649 80.126 270.07 80.126C269.417 80.126 268.819 79.958 268.278 79.622C267.746 79.286 267.321 78.8147 267.004 78.208C266.696 77.592 266.542 76.8873 266.542 76.094ZM272.646 76.122C272.646 75.646 272.553 75.24 272.366 74.904C272.179 74.5587 271.927 74.2973 271.61 74.12C271.293 73.9333 270.952 73.84 270.588 73.84C270.224 73.84 269.888 73.9287 269.58 74.106C269.272 74.2833 269.02 74.5447 268.824 74.89C268.637 75.226 268.544 75.6273 268.544 76.094C268.544 76.5607 268.637 76.9713 268.824 77.326C269.02 77.6713 269.272 77.9373 269.58 78.124C269.897 78.3107 270.233 78.404 270.588 78.404C270.952 78.404 271.293 78.3153 271.61 78.138C271.927 77.9513 272.179 77.69 272.366 77.354C272.553 77.0087 272.646 76.598 272.646 76.122ZM279.572 72.118C280.151 72.118 280.66 72.2347 281.098 72.468C281.537 72.692 281.882 72.986 282.134 73.35V72.244H284.108V80.056C284.108 80.7747 283.964 81.414 283.674 81.974C283.385 82.5433 282.951 82.9913 282.372 83.318C281.794 83.654 281.094 83.822 280.272 83.822C279.171 83.822 278.266 83.5653 277.556 83.052C276.856 82.5387 276.46 81.8387 276.366 80.952H278.312C278.415 81.3067 278.634 81.5867 278.97 81.792C279.316 82.0067 279.731 82.114 280.216 82.114C280.786 82.114 281.248 81.9413 281.602 81.596C281.957 81.26 282.134 80.7467 282.134 80.056V78.852C281.882 79.216 281.532 79.5193 281.084 79.762C280.646 80.0047 280.142 80.126 279.572 80.126C278.919 80.126 278.322 79.958 277.78 79.622C277.239 79.286 276.81 78.8147 276.492 78.208C276.184 77.592 276.03 76.8873 276.03 76.094C276.03 75.31 276.184 74.6147 276.492 74.008C276.81 73.4013 277.234 72.9347 277.766 72.608C278.308 72.2813 278.91 72.118 279.572 72.118ZM282.134 76.122C282.134 75.646 282.041 75.24 281.854 74.904C281.668 74.5587 281.416 74.2973 281.098 74.12C280.781 73.9333 280.44 73.84 280.076 73.84C279.712 73.84 279.376 73.9287 279.068 74.106C278.76 74.2833 278.508 74.5447 278.312 74.89C278.126 75.226 278.032 75.6273 278.032 76.094C278.032 76.5607 278.126 76.9713 278.312 77.326C278.508 77.6713 278.76 77.9373 279.068 78.124C279.386 78.3107 279.722 78.404 280.076 78.404C280.44 78.404 280.781 78.3153 281.098 78.138C281.416 77.9513 281.668 77.69 281.854 77.354C282.041 77.0087 282.134 76.598 282.134 76.122ZM293.233 75.954C293.233 76.234 293.214 76.486 293.177 76.71H287.507C287.553 77.27 287.749 77.7087 288.095 78.026C288.44 78.3433 288.865 78.502 289.369 78.502C290.097 78.502 290.615 78.1893 290.923 77.564H293.037C292.813 78.3107 292.383 78.9267 291.749 79.412C291.114 79.888 290.335 80.126 289.411 80.126C288.664 80.126 287.992 79.9627 287.395 79.636C286.807 79.3 286.345 78.8287 286.009 78.222C285.682 77.6153 285.519 76.9153 285.519 76.122C285.519 75.3193 285.682 74.6147 286.009 74.008C286.335 73.4013 286.793 72.9347 287.381 72.608C287.969 72.2813 288.645 72.118 289.411 72.118C290.148 72.118 290.806 72.2767 291.385 72.594C291.973 72.9113 292.425 73.364 292.743 73.952C293.069 74.5307 293.233 75.198 293.233 75.954ZM291.203 75.394C291.193 74.89 291.011 74.4887 290.657 74.19C290.302 73.882 289.868 73.728 289.355 73.728C288.869 73.728 288.459 73.8773 288.123 74.176C287.796 74.4653 287.595 74.8713 287.521 75.394H291.203Z" fill="#242526"/>
<path d="M167.54 96.5V95.252H170.036V104H168.656V96.5H167.54ZM172.671 102.14C173.439 101.476 174.043 100.932 174.483 100.508C174.931 100.076 175.303 99.628 175.599 99.164C175.895 98.7 176.043 98.236 176.043 97.772C176.043 97.292 175.927 96.916 175.695 96.644C175.471 96.372 175.115 96.236 174.627 96.236C174.155 96.236 173.787 96.388 173.523 96.692C173.267 96.988 173.131 97.388 173.115 97.892H171.795C171.819 96.98 172.091 96.284 172.611 95.804C173.139 95.316 173.807 95.072 174.615 95.072C175.487 95.072 176.167 95.312 176.655 95.792C177.151 96.272 177.399 96.912 177.399 97.712C177.399 98.288 177.251 98.844 176.955 99.38C176.667 99.908 176.319 100.384 175.911 100.808C175.511 101.224 174.999 101.708 174.375 102.26L173.835 102.74H177.639V103.88H171.807V102.884L172.671 102.14ZM180.317 99.428C179.485 99.012 179.069 98.356 179.069 97.46C179.069 97.028 179.177 96.632 179.393 96.272C179.609 95.912 179.933 95.628 180.365 95.42C180.797 95.204 181.325 95.096 181.949 95.096C182.565 95.096 183.089 95.204 183.521 95.42C183.961 95.628 184.289 95.912 184.505 96.272C184.721 96.632 184.829 97.028 184.829 97.46C184.829 97.908 184.713 98.304 184.481 98.648C184.257 98.984 183.957 99.244 183.581 99.428C184.037 99.596 184.397 99.872 184.661 100.256C184.925 100.632 185.057 101.076 185.057 101.588C185.057 102.108 184.925 102.568 184.661 102.968C184.397 103.368 184.029 103.676 183.557 103.892C183.085 104.108 182.549 104.216 181.949 104.216C181.349 104.216 180.813 104.108 180.341 103.892C179.877 103.676 179.513 103.368 179.249 102.968C178.985 102.568 178.853 102.108 178.853 101.588C178.853 101.068 178.985 100.62 179.249 100.244C179.513 99.868 179.869 99.596 180.317 99.428ZM183.521 97.628C183.521 97.18 183.381 96.836 183.101 96.596C182.821 96.356 182.437 96.236 181.949 96.236C181.469 96.236 181.089 96.356 180.809 96.596C180.529 96.836 180.389 97.184 180.389 97.64C180.389 98.04 180.533 98.368 180.821 98.624C181.117 98.872 181.493 98.996 181.949 98.996C182.405 98.996 182.781 98.868 183.077 98.612C183.373 98.356 183.521 98.028 183.521 97.628ZM181.949 100.028C181.421 100.028 180.989 100.16 180.653 100.424C180.325 100.68 180.161 101.052 180.161 101.54C180.161 101.996 180.321 102.368 180.641 102.656C180.961 102.936 181.397 103.076 181.949 103.076C182.493 103.076 182.921 102.932 183.233 102.644C183.553 102.356 183.713 101.988 183.713 101.54C183.713 101.06 183.549 100.688 183.221 100.424C182.901 100.16 182.477 100.028 181.949 100.028ZM192.709 98.06C192.493 97.644 192.193 97.332 191.809 97.124C191.425 96.908 190.981 96.8 190.477 96.8C189.925 96.8 189.433 96.924 189.001 97.172C188.569 97.42 188.229 97.772 187.981 98.228C187.741 98.684 187.621 99.212 187.621 99.812C187.621 100.412 187.741 100.944 187.981 101.408C188.229 101.864 188.569 102.216 189.001 102.464C189.433 102.712 189.925 102.836 190.477 102.836C191.221 102.836 191.825 102.628 192.289 102.212C192.753 101.796 193.037 101.232 193.141 100.52H190.009V99.428H194.605V100.496C194.517 101.144 194.285 101.74 193.909 102.284C193.541 102.828 193.057 103.264 192.457 103.592C191.865 103.912 191.205 104.072 190.477 104.072C189.693 104.072 188.977 103.892 188.329 103.532C187.681 103.164 187.165 102.656 186.781 102.008C186.405 101.36 186.217 100.628 186.217 99.812C186.217 98.996 186.405 98.264 186.781 97.616C187.165 96.968 187.681 96.464 188.329 96.104C188.985 95.736 189.701 95.552 190.477 95.552C191.365 95.552 192.153 95.772 192.841 96.212C193.537 96.644 194.041 97.26 194.353 98.06H192.709ZM200.419 99.716C200.867 99.796 201.247 100.032 201.559 100.424C201.871 100.816 202.027 101.26 202.027 101.756C202.027 102.18 201.915 102.564 201.691 102.908C201.475 103.244 201.159 103.512 200.743 103.712C200.327 103.904 199.843 104 199.291 104H195.955V95.66H199.135C199.703 95.66 200.191 95.756 200.599 95.948C201.007 96.14 201.315 96.4 201.523 96.728C201.731 97.048 201.835 97.408 201.835 97.808C201.835 98.288 201.707 98.688 201.451 99.008C201.195 99.328 200.851 99.564 200.419 99.716ZM197.323 99.164H199.015C199.463 99.164 199.811 99.064 200.059 98.864C200.315 98.656 200.443 98.36 200.443 97.976C200.443 97.6 200.315 97.308 200.059 97.1C199.811 96.884 199.463 96.776 199.015 96.776H197.323V99.164ZM199.171 102.884C199.635 102.884 199.999 102.772 200.263 102.548C200.527 102.324 200.659 102.012 200.659 101.612C200.659 101.204 200.519 100.88 200.239 100.64C199.959 100.4 199.587 100.28 199.123 100.28H197.323V102.884H199.171ZM211.07 92.672L207.806 106.1H206.462L209.714 92.672H211.07ZM221.372 96.428H217.352V98.816C217.52 98.592 217.768 98.404 218.096 98.252C218.432 98.1 218.788 98.024 219.164 98.024C219.836 98.024 220.38 98.168 220.796 98.456C221.22 98.744 221.52 99.108 221.696 99.548C221.88 99.988 221.972 100.452 221.972 100.94C221.972 101.532 221.856 102.06 221.624 102.524C221.4 102.98 221.06 103.34 220.604 103.604C220.156 103.868 219.604 104 218.948 104C218.076 104 217.376 103.784 216.848 103.352C216.32 102.92 216.004 102.348 215.9 101.636H217.232C217.32 102.012 217.516 102.312 217.82 102.536C218.124 102.752 218.504 102.86 218.96 102.86C219.528 102.86 219.952 102.688 220.232 102.344C220.52 102 220.664 101.544 220.664 100.976C220.664 100.4 220.52 99.96 220.232 99.656C219.944 99.344 219.52 99.188 218.96 99.188C218.568 99.188 218.236 99.288 217.964 99.488C217.7 99.68 217.508 99.944 217.388 100.28H216.092V95.228H221.372V96.428ZM223.216 96.5V95.252H225.712V104H224.332V96.5H223.216ZM228.347 102.14C229.115 101.476 229.719 100.932 230.159 100.508C230.607 100.076 230.979 99.628 231.275 99.164C231.571 98.7 231.719 98.236 231.719 97.772C231.719 97.292 231.603 96.916 231.371 96.644C231.147 96.372 230.791 96.236 230.303 96.236C229.831 96.236 229.463 96.388 229.199 96.692C228.943 96.988 228.807 97.388 228.791 97.892H227.471C227.495 96.98 227.767 96.284 228.287 95.804C228.815 95.316 229.483 95.072 230.291 95.072C231.163 95.072 231.843 95.312 232.331 95.792C232.827 96.272 233.075 96.912 233.075 97.712C233.075 98.288 232.927 98.844 232.631 99.38C232.343 99.908 231.995 100.384 231.587 100.808C231.187 101.224 230.675 101.708 230.051 102.26L229.511 102.74H233.315V103.88H227.483V102.884L228.347 102.14ZM240.733 98.06C240.517 97.644 240.217 97.332 239.833 97.124C239.449 96.908 239.005 96.8 238.501 96.8C237.949 96.8 237.457 96.924 237.025 97.172C236.593 97.42 236.253 97.772 236.005 98.228C235.765 98.684 235.645 99.212 235.645 99.812C235.645 100.412 235.765 100.944 236.005 101.408C236.253 101.864 236.593 102.216 237.025 102.464C237.457 102.712 237.949 102.836 238.501 102.836C239.245 102.836 239.849 102.628 240.313 102.212C240.777 101.796 241.061 101.232 241.165 100.52H238.033V99.428H242.629V100.496C242.541 101.144 242.309 101.74 241.933 102.284C241.565 102.828 241.081 103.264 240.481 103.592C239.889 103.912 239.229 104.072 238.501 104.072C237.717 104.072 237.001 103.892 236.353 103.532C235.705 103.164 235.189 102.656 234.805 102.008C234.429 101.36 234.241 100.628 234.241 99.812C234.241 98.996 234.429 98.264 234.805 97.616C235.189 96.968 235.705 96.464 236.353 96.104C237.009 95.736 237.725 95.552 238.501 95.552C239.389 95.552 240.177 95.772 240.865 96.212C241.561 96.644 242.065 97.26 242.377 98.06H240.733ZM248.442 99.716C248.89 99.796 249.27 100.032 249.582 100.424C249.894 100.816 250.05 101.26 250.05 101.756C250.05 102.18 249.938 102.564 249.714 102.908C249.498 103.244 249.182 103.512 248.766 103.712C248.35 103.904 247.866 104 247.314 104H243.978V95.66H247.158C247.726 95.66 248.214 95.756 248.622 95.948C249.03 96.14 249.338 96.4 249.546 96.728C249.754 97.048 249.858 97.408 249.858 97.808C249.858 98.288 249.73 98.688 249.474 99.008C249.218 99.328 248.874 99.564 248.442 99.716ZM245.346 99.164H247.038C247.486 99.164 247.834 99.064 248.082 98.864C248.338 98.656 248.466 98.36 248.466 97.976C248.466 97.6 248.338 97.308 248.082 97.1C247.834 96.884 247.486 96.776 247.038 96.776H245.346V99.164ZM247.194 102.884C247.658 102.884 248.022 102.772 248.286 102.548C248.55 102.324 248.682 102.012 248.682 101.612C248.682 101.204 248.542 100.88 248.262 100.64C247.982 100.4 247.61 100.28 247.146 100.28H245.346V102.884H247.194Z" fill="#768396"/>
<path d="M95.298 178.27V188H93.702V181.336L90.734 188H89.628L86.646 181.336V188H85.05V178.27H86.772L90.188 185.9L93.59 178.27H95.298ZM104.466 183.954C104.466 184.243 104.447 184.505 104.41 184.738H98.5157C98.5624 185.354 98.791 185.849 99.2017 186.222C99.6124 186.595 100.116 186.782 100.714 186.782C101.572 186.782 102.179 186.423 102.534 185.704H104.256C104.022 186.413 103.598 186.997 102.982 187.454C102.375 187.902 101.619 188.126 100.714 188.126C99.9764 188.126 99.3137 187.963 98.7257 187.636C98.147 187.3 97.6897 186.833 97.3537 186.236C97.027 185.629 96.8637 184.929 96.8637 184.136C96.8637 183.343 97.0224 182.647 97.3397 182.05C97.6664 181.443 98.119 180.977 98.6977 180.65C99.2857 180.323 99.9577 180.16 100.714 180.16C101.442 180.16 102.09 180.319 102.66 180.636C103.229 180.953 103.672 181.401 103.99 181.98C104.307 182.549 104.466 183.207 104.466 183.954ZM102.8 183.45C102.79 182.862 102.58 182.391 102.17 182.036C101.759 181.681 101.25 181.504 100.644 181.504C100.093 181.504 99.6217 181.681 99.2297 182.036C98.8377 182.381 98.6044 182.853 98.5297 183.45H102.8ZM105.504 184.108C105.504 183.333 105.663 182.647 105.98 182.05C106.307 181.453 106.746 180.991 107.296 180.664C107.856 180.328 108.477 180.16 109.158 180.16C109.662 180.16 110.157 180.272 110.642 180.496C111.137 180.711 111.529 181 111.818 181.364V177.64H113.428V188H111.818V186.838C111.557 187.211 111.193 187.519 110.726 187.762C110.269 188.005 109.742 188.126 109.144 188.126C108.472 188.126 107.856 187.958 107.296 187.622C106.746 187.277 106.307 186.801 105.98 186.194C105.663 185.578 105.504 184.883 105.504 184.108ZM111.818 184.136C111.818 183.604 111.706 183.142 111.482 182.75C111.268 182.358 110.983 182.059 110.628 181.854C110.274 181.649 109.891 181.546 109.48 181.546C109.07 181.546 108.687 181.649 108.332 181.854C107.978 182.05 107.688 182.344 107.464 182.736C107.25 183.119 107.142 183.576 107.142 184.108C107.142 184.64 107.25 185.107 107.464 185.508C107.688 185.909 107.978 186.217 108.332 186.432C108.696 186.637 109.079 186.74 109.48 186.74C109.891 186.74 110.274 186.637 110.628 186.432C110.983 186.227 111.268 185.928 111.482 185.536C111.706 185.135 111.818 184.668 111.818 184.136ZM116.337 179.264C116.047 179.264 115.805 179.166 115.609 178.97C115.413 178.774 115.315 178.531 115.315 178.242C115.315 177.953 115.413 177.71 115.609 177.514C115.805 177.318 116.047 177.22 116.337 177.22C116.617 177.22 116.855 177.318 117.051 177.514C117.247 177.71 117.345 177.953 117.345 178.242C117.345 178.531 117.247 178.774 117.051 178.97C116.855 179.166 116.617 179.264 116.337 179.264ZM117.121 180.286V188H115.525V180.286H117.121ZM118.684 184.108C118.684 183.333 118.843 182.647 119.16 182.05C119.487 181.453 119.925 180.991 120.476 180.664C121.036 180.328 121.652 180.16 122.324 180.16C122.931 180.16 123.458 180.281 123.906 180.524C124.363 180.757 124.727 181.051 124.998 181.406V180.286H126.608V188H124.998V186.852C124.727 187.216 124.359 187.519 123.892 187.762C123.425 188.005 122.893 188.126 122.296 188.126C121.633 188.126 121.027 187.958 120.476 187.622C119.925 187.277 119.487 186.801 119.16 186.194C118.843 185.578 118.684 184.883 118.684 184.108ZM124.998 184.136C124.998 183.604 124.886 183.142 124.662 182.75C124.447 182.358 124.163 182.059 123.808 181.854C123.453 181.649 123.071 181.546 122.66 181.546C122.249 181.546 121.867 181.649 121.512 181.854C121.157 182.05 120.868 182.344 120.644 182.736C120.429 183.119 120.322 183.576 120.322 184.108C120.322 184.64 120.429 185.107 120.644 185.508C120.868 185.909 121.157 186.217 121.512 186.432C121.876 186.637 122.259 186.74 122.66 186.74C123.071 186.74 123.453 186.637 123.808 186.432C124.163 186.227 124.447 185.928 124.662 185.536C124.886 185.135 124.998 184.668 124.998 184.136Z" fill="#242526"/>
<rect x="84" y="201" width="235" height="5" rx="2.5" fill="#E6E9ED"/>
<rect x="84" y="201" width="171" height="5" rx="2.5" fill="#BB6BD9"/>
<path d="M278.476 186.14C279.244 185.476 279.848 184.932 280.288 184.508C280.736 184.076 281.108 183.628 281.404 183.164C281.7 182.7 281.848 182.236 281.848 181.772C281.848 181.292 281.732 180.916 281.5 180.644C281.276 180.372 280.92 180.236 280.432 180.236C279.96 180.236 279.592 180.388 279.328 180.692C279.072 180.988 278.936 181.388 278.92 181.892H277.6C277.624 180.98 277.896 180.284 278.416 179.804C278.944 179.316 279.612 179.072 280.42 179.072C281.292 179.072 281.972 179.312 282.46 179.792C282.956 180.272 283.204 180.912 283.204 181.712C283.204 182.288 283.056 182.844 282.76 183.38C282.472 183.908 282.124 184.384 281.716 184.808C281.316 185.224 280.804 185.708 280.18 186.26L279.64 186.74H283.444V187.88H277.612V186.884L278.476 186.14ZM284.646 183.512C284.646 182.128 284.878 181.048 285.342 180.272C285.814 179.488 286.622 179.096 287.766 179.096C288.91 179.096 289.714 179.488 290.178 180.272C290.65 181.048 290.886 182.128 290.886 183.512C290.886 184.912 290.65 186.008 290.178 186.8C289.714 187.584 288.91 187.976 287.766 187.976C286.622 187.976 285.814 187.584 285.342 186.8C284.878 186.008 284.646 184.912 284.646 183.512ZM289.542 183.512C289.542 182.864 289.498 182.316 289.41 181.868C289.33 181.42 289.162 181.056 288.906 180.776C288.65 180.488 288.27 180.344 287.766 180.344C287.262 180.344 286.882 180.488 286.626 180.776C286.37 181.056 286.198 181.42 286.11 181.868C286.03 182.316 285.99 182.864 285.99 183.512C285.99 184.184 286.03 184.748 286.11 185.204C286.19 185.66 286.358 186.028 286.614 186.308C286.878 186.588 287.262 186.728 287.766 186.728C288.27 186.728 288.65 186.588 288.906 186.308C289.17 186.028 289.342 185.66 289.422 185.204C289.502 184.748 289.542 184.184 289.542 183.512ZM292.333 183.512C292.333 182.128 292.565 181.048 293.029 180.272C293.501 179.488 294.309 179.096 295.453 179.096C296.597 179.096 297.401 179.488 297.865 180.272C298.337 181.048 298.573 182.128 298.573 183.512C298.573 184.912 298.337 186.008 297.865 186.8C297.401 187.584 296.597 187.976 295.453 187.976C294.309 187.976 293.501 187.584 293.029 186.8C292.565 186.008 292.333 184.912 292.333 183.512ZM297.229 183.512C297.229 182.864 297.185 182.316 297.097 181.868C297.017 181.42 296.849 181.056 296.593 180.776C296.337 180.488 295.957 180.344 295.453 180.344C294.949 180.344 294.569 180.488 294.313 180.776C294.057 181.056 293.885 181.42 293.797 181.868C293.717 182.316 293.677 182.864 293.677 183.512C293.677 184.184 293.717 184.748 293.797 185.204C293.877 185.66 294.045 186.028 294.301 186.308C294.565 186.588 294.949 186.728 295.453 186.728C295.957 186.728 296.337 186.588 296.593 186.308C296.857 186.028 297.029 185.66 297.109 185.204C297.189 184.748 297.229 184.184 297.229 183.512ZM309.354 182.06C309.138 181.644 308.838 181.332 308.454 181.124C308.07 180.908 307.626 180.8 307.122 180.8C306.57 180.8 306.078 180.924 305.646 181.172C305.214 181.42 304.874 181.772 304.626 182.228C304.386 182.684 304.266 183.212 304.266 183.812C304.266 184.412 304.386 184.944 304.626 185.408C304.874 185.864 305.214 186.216 305.646 186.464C306.078 186.712 306.57 186.836 307.122 186.836C307.866 186.836 308.47 186.628 308.934 186.212C309.398 185.796 309.682 185.232 309.786 184.52H306.654V183.428H311.25V184.496C311.162 185.144 310.93 185.74 310.554 186.284C310.186 186.828 309.702 187.264 309.102 187.592C308.51 187.912 307.85 188.072 307.122 188.072C306.338 188.072 305.622 187.892 304.974 187.532C304.326 187.164 303.81 186.656 303.426 186.008C303.05 185.36 302.862 184.628 302.862 183.812C302.862 182.996 303.05 182.264 303.426 181.616C303.81 180.968 304.326 180.464 304.974 180.104C305.63 179.736 306.346 179.552 307.122 179.552C308.01 179.552 308.798 179.772 309.486 180.212C310.182 180.644 310.686 181.26 310.998 182.06H309.354ZM317.063 183.716C317.511 183.796 317.891 184.032 318.203 184.424C318.515 184.816 318.671 185.26 318.671 185.756C318.671 186.18 318.559 186.564 318.335 186.908C318.119 187.244 317.803 187.512 317.387 187.712C316.971 187.904 316.487 188 315.935 188H312.599V179.66H315.779C316.347 179.66 316.835 179.756 317.243 179.948C317.651 180.14 317.959 180.4 318.167 180.728C318.375 181.048 318.479 181.408 318.479 181.808C318.479 182.288 318.351 182.688 318.095 183.008C317.839 183.328 317.495 183.564 317.063 183.716ZM313.967 183.164H315.659C316.107 183.164 316.455 183.064 316.703 182.864C316.959 182.656 317.087 182.36 317.087 181.976C317.087 181.6 316.959 181.308 316.703 181.1C316.455 180.884 316.107 180.776 315.659 180.776H313.967V183.164ZM315.815 186.884C316.279 186.884 316.643 186.772 316.907 186.548C317.171 186.324 317.303 186.012 317.303 185.612C317.303 185.204 317.163 184.88 316.883 184.64C316.603 184.4 316.231 184.28 315.767 184.28H313.967V186.884H315.815Z" fill="#768396"/>
<rect x="30" y="169" width="42" height="42" rx="9" fill="#F7F7F9"/>
<path fill-rule="evenodd" clip-rule="evenodd" d="M44.9483 180.452C43.1211 180.718 41.7184 182.121 41.4515 183.948C41.2187 185.542 41 187.662 41 190C41 191.716 41.0945 193.451 41.3202 195.158C41.3736 195.562 41.8643 195.721 42.1524 195.433L45.5858 192C46.3668 191.219 47.6332 191.219 48.4142 192L49.6465 193.232C49.8417 193.427 50.1583 193.427 50.3536 193.232L53.5858 190C54.3669 189.219 55.6332 189.219 56.4142 190L60.0231 193.609C60.3204 193.906 60.827 193.726 60.8614 193.307C60.9453 192.285 61 191.17 61 190C61 187.662 60.7813 185.542 60.5485 183.948C60.2816 182.121 58.8789 180.718 57.0517 180.452C55.4577 180.219 53.3382 180 51 180C48.6618 180 46.5423 180.219 44.9483 180.452ZM49 186C49 187.105 48.1046 188 47 188C45.8954 188 45 187.105 45 186C45 184.895 45.8954 184 47 184C48.1046 184 49 184.895 49 186Z" fill="#BB6BD9"/>
<path d="M60.2638 197.077C60.3374 196.902 60.2884 196.702 60.1542 196.568L55.3536 191.768C55.1583 191.572 54.8417 191.572 54.6465 191.768L51.4142 195C50.6332 195.781 49.3668 195.781 48.5858 195L47.3536 193.768C47.1583 193.572 46.8417 193.572 46.6465 193.768L42.656 197.758C42.4747 197.939 42.4578 198.231 42.6408 198.411C43.25 199.009 44.0475 199.417 44.9483 199.548C46.5423 199.781 48.6618 200 51 200C53.3382 200 55.4577 199.781 57.0517 199.548C58.5189 199.334 59.7123 198.388 60.2638 197.077Z" fill="#BB6BD9"/>
<path d="M88.228 236.27C89.264 236.27 90.1693 236.471 90.944 236.872C91.728 237.264 92.33 237.833 92.75 238.58C93.1793 239.317 93.394 240.181 93.394 241.17C93.394 242.159 93.1793 243.018 92.75 243.746C92.33 244.474 91.728 245.034 90.944 245.426C90.1693 245.809 89.264 246 88.228 246H85.05V236.27H88.228ZM88.228 244.698C89.3667 244.698 90.2393 244.39 90.846 243.774C91.4527 243.158 91.756 242.29 91.756 241.17C91.756 240.041 91.4527 239.159 90.846 238.524C90.2393 237.889 89.3667 237.572 88.228 237.572H86.646V244.698H88.228ZM98.3218 246.126C97.5938 246.126 96.9358 245.963 96.3478 245.636C95.7598 245.3 95.2978 244.833 94.9618 244.236C94.6258 243.629 94.4578 242.929 94.4578 242.136C94.4578 241.352 94.6304 240.657 94.9758 240.05C95.3211 239.443 95.7924 238.977 96.3898 238.65C96.9871 238.323 97.6544 238.16 98.3918 238.16C99.1291 238.16 99.7964 238.323 100.394 238.65C100.991 238.977 101.462 239.443 101.808 240.05C102.153 240.657 102.326 241.352 102.326 242.136C102.326 242.92 102.148 243.615 101.794 244.222C101.439 244.829 100.954 245.3 100.338 245.636C99.7311 245.963 99.0591 246.126 98.3218 246.126ZM98.3218 244.74C98.7324 244.74 99.1151 244.642 99.4698 244.446C99.8338 244.25 100.128 243.956 100.352 243.564C100.576 243.172 100.688 242.696 100.688 242.136C100.688 241.576 100.58 241.105 100.366 240.722C100.151 240.33 99.8664 240.036 99.5118 239.84C99.1571 239.644 98.7744 239.546 98.3638 239.546C97.9531 239.546 97.5704 239.644 97.2158 239.84C96.8704 240.036 96.5951 240.33 96.3898 240.722C96.1844 241.105 96.0818 241.576 96.0818 242.136C96.0818 242.967 96.2918 243.611 96.7118 244.068C97.1411 244.516 97.6778 244.74 98.3218 244.74ZM103.372 242.136C103.372 241.343 103.53 240.647 103.848 240.05C104.174 239.443 104.622 238.977 105.192 238.65C105.761 238.323 106.414 238.16 107.152 238.16C108.085 238.16 108.855 238.384 109.462 238.832C110.078 239.271 110.493 239.901 110.708 240.722H108.986C108.846 240.339 108.622 240.041 108.314 239.826C108.006 239.611 107.618 239.504 107.152 239.504C106.498 239.504 105.976 239.737 105.584 240.204C105.201 240.661 105.01 241.305 105.01 242.136C105.01 242.967 105.201 243.615 105.584 244.082C105.976 244.549 106.498 244.782 107.152 244.782C108.076 244.782 108.687 244.376 108.986 243.564H110.708C110.484 244.348 110.064 244.973 109.448 245.44C108.832 245.897 108.066 246.126 107.152 246.126C106.414 246.126 105.761 245.963 105.192 245.636C104.622 245.3 104.174 244.833 103.848 244.236C103.53 243.629 103.372 242.929 103.372 242.136ZM119.284 238.286V246H117.688V245.09C117.436 245.407 117.105 245.659 116.694 245.846C116.293 246.023 115.863 246.112 115.406 246.112C114.799 246.112 114.253 245.986 113.768 245.734C113.292 245.482 112.914 245.109 112.634 244.614C112.363 244.119 112.228 243.522 112.228 242.822V238.286H113.81V242.584C113.81 243.275 113.983 243.807 114.328 244.18C114.673 244.544 115.145 244.726 115.742 244.726C116.339 244.726 116.811 244.544 117.156 244.18C117.511 243.807 117.688 243.275 117.688 242.584V238.286H119.284ZM130.728 238.16C131.335 238.16 131.876 238.286 132.352 238.538C132.837 238.79 133.215 239.163 133.486 239.658C133.766 240.153 133.906 240.75 133.906 241.45V246H132.324V241.688C132.324 240.997 132.151 240.47 131.806 240.106C131.461 239.733 130.989 239.546 130.392 239.546C129.795 239.546 129.319 239.733 128.964 240.106C128.619 240.47 128.446 240.997 128.446 241.688V246H126.864V241.688C126.864 240.997 126.691 240.47 126.346 240.106C126.001 239.733 125.529 239.546 124.932 239.546C124.335 239.546 123.859 239.733 123.504 240.106C123.159 240.47 122.986 240.997 122.986 241.688V246H121.39V238.286H122.986V239.168C123.247 238.851 123.579 238.603 123.98 238.426C124.381 238.249 124.811 238.16 125.268 238.16C125.884 238.16 126.435 238.291 126.92 238.552C127.405 238.813 127.779 239.191 128.04 239.686C128.273 239.219 128.637 238.851 129.132 238.58C129.627 238.3 130.159 238.16 130.728 238.16ZM143.007 241.954C143.007 242.243 142.988 242.505 142.951 242.738H137.057C137.103 243.354 137.332 243.849 137.743 244.222C138.153 244.595 138.657 244.782 139.255 244.782C140.113 244.782 140.72 244.423 141.075 243.704H142.797C142.563 244.413 142.139 244.997 141.523 245.454C140.916 245.902 140.16 246.126 139.255 246.126C138.517 246.126 137.855 245.963 137.267 245.636C136.688 245.3 136.231 244.833 135.895 244.236C135.568 243.629 135.405 242.929 135.405 242.136C135.405 241.343 135.563 240.647 135.881 240.05C136.207 239.443 136.66 238.977 137.239 238.65C137.827 238.323 138.499 238.16 139.255 238.16C139.983 238.16 140.631 238.319 141.201 238.636C141.77 238.953 142.213 239.401 142.531 239.98C142.848 240.549 143.007 241.207 143.007 241.954ZM141.341 241.45C141.331 240.862 141.121 240.391 140.711 240.036C140.3 239.681 139.791 239.504 139.185 239.504C138.634 239.504 138.163 239.681 137.771 240.036C137.379 240.381 137.145 240.853 137.071 241.45H141.341ZM148.469 238.16C149.076 238.16 149.617 238.286 150.093 238.538C150.579 238.79 150.957 239.163 151.227 239.658C151.498 240.153 151.633 240.75 151.633 241.45V246H150.051V241.688C150.051 240.997 149.879 240.47 149.533 240.106C149.188 239.733 148.717 239.546 148.119 239.546C147.522 239.546 147.046 239.733 146.691 240.106C146.346 240.47 146.173 240.997 146.173 241.688V246H144.577V238.286H146.173V239.168C146.435 238.851 146.766 238.603 147.167 238.426C147.578 238.249 148.012 238.16 148.469 238.16ZM155.531 239.588V243.858C155.531 244.147 155.596 244.357 155.727 244.488C155.867 244.609 156.1 244.67 156.427 244.67H157.407V246H156.147C155.428 246 154.878 245.832 154.495 245.496C154.112 245.16 153.921 244.614 153.921 243.858V239.588H153.011V238.286H153.921V236.368H155.531V238.286H157.407V239.588H155.531ZM161.678 246.126C161.071 246.126 160.525 246.019 160.04 245.804C159.564 245.58 159.186 245.281 158.906 244.908C158.626 244.525 158.477 244.101 158.458 243.634H160.11C160.138 243.961 160.292 244.236 160.572 244.46C160.861 244.675 161.221 244.782 161.65 244.782C162.098 244.782 162.443 244.698 162.686 244.53C162.938 244.353 163.064 244.129 163.064 243.858C163.064 243.569 162.924 243.354 162.644 243.214C162.373 243.074 161.939 242.92 161.342 242.752C160.763 242.593 160.292 242.439 159.928 242.29C159.564 242.141 159.247 241.912 158.976 241.604C158.715 241.296 158.584 240.89 158.584 240.386C158.584 239.975 158.705 239.602 158.948 239.266C159.191 238.921 159.536 238.65 159.984 238.454C160.441 238.258 160.964 238.16 161.552 238.16C162.429 238.16 163.134 238.384 163.666 238.832C164.207 239.271 164.497 239.873 164.534 240.638H162.938C162.91 240.293 162.77 240.017 162.518 239.812C162.266 239.607 161.925 239.504 161.496 239.504C161.076 239.504 160.754 239.583 160.53 239.742C160.306 239.901 160.194 240.111 160.194 240.372C160.194 240.577 160.269 240.75 160.418 240.89C160.567 241.03 160.749 241.142 160.964 241.226C161.179 241.301 161.496 241.399 161.916 241.52C162.476 241.669 162.933 241.823 163.288 241.982C163.652 242.131 163.965 242.355 164.226 242.654C164.487 242.953 164.623 243.349 164.632 243.844C164.632 244.283 164.511 244.675 164.268 245.02C164.025 245.365 163.68 245.636 163.232 245.832C162.793 246.028 162.275 246.126 161.678 246.126Z" fill="#242526"/>
<rect x="84" y="259" width="235" height="5" rx="2.5" fill="#E6E9ED"/>
<rect x="84" y="259" width="74" height="5" rx="2.5" fill="#0061FE"/>
<path d="M280.54 238.5V237.252H283.036V246H281.656V238.5H280.54ZM285.671 244.14C286.439 243.476 287.043 242.932 287.483 242.508C287.931 242.076 288.303 241.628 288.599 241.164C288.895 240.7 289.043 240.236 289.043 239.772C289.043 239.292 288.927 238.916 288.695 238.644C288.471 238.372 288.115 238.236 287.627 238.236C287.155 238.236 286.787 238.388 286.523 238.692C286.267 238.988 286.131 239.388 286.115 239.892H284.795C284.819 238.98 285.091 238.284 285.611 237.804C286.139 237.316 286.807 237.072 287.615 237.072C288.487 237.072 289.167 237.312 289.655 237.792C290.151 238.272 290.399 238.912 290.399 239.712C290.399 240.288 290.251 240.844 289.955 241.38C289.667 241.908 289.319 242.384 288.911 242.808C288.511 243.224 287.999 243.708 287.375 244.26L286.835 244.74H290.639V245.88H284.807V244.884L285.671 244.14ZM296.545 239.28C296.457 238.912 296.297 238.636 296.065 238.452C295.833 238.268 295.509 238.176 295.093 238.176C294.461 238.176 293.989 238.42 293.677 238.908C293.365 239.388 293.201 240.188 293.185 241.308C293.393 240.956 293.697 240.684 294.097 240.492C294.497 240.3 294.929 240.204 295.393 240.204C295.921 240.204 296.385 240.32 296.785 240.552C297.193 240.776 297.509 241.104 297.733 241.536C297.965 241.968 298.081 242.484 298.081 243.084C298.081 243.644 297.969 244.144 297.745 244.584C297.529 245.024 297.205 245.372 296.773 245.628C296.341 245.876 295.821 246 295.213 246C294.389 246 293.741 245.82 293.269 245.46C292.805 245.092 292.477 244.576 292.285 243.912C292.101 243.248 292.009 242.42 292.009 241.428C292.009 238.5 293.041 237.036 295.105 237.036C295.905 237.036 296.533 237.252 296.989 237.684C297.453 238.116 297.725 238.648 297.805 239.28H296.545ZM295.093 241.356C294.605 241.356 294.189 241.504 293.845 241.8C293.509 242.088 293.341 242.508 293.341 243.06C293.341 243.612 293.497 244.052 293.809 244.38C294.129 244.7 294.573 244.86 295.141 244.86C295.645 244.86 296.041 244.704 296.329 244.392C296.625 244.08 296.773 243.664 296.773 243.144C296.773 242.6 296.629 242.168 296.341 241.848C296.061 241.52 295.645 241.356 295.093 241.356ZM308.874 240.06C308.658 239.644 308.358 239.332 307.974 239.124C307.59 238.908 307.146 238.8 306.642 238.8C306.09 238.8 305.598 238.924 305.166 239.172C304.734 239.42 304.394 239.772 304.146 240.228C303.906 240.684 303.786 241.212 303.786 241.812C303.786 242.412 303.906 242.944 304.146 243.408C304.394 243.864 304.734 244.216 305.166 244.464C305.598 244.712 306.09 244.836 306.642 244.836C307.386 244.836 307.99 244.628 308.454 244.212C308.918 243.796 309.202 243.232 309.306 242.52H306.174V241.428H310.77V242.496C310.682 243.144 310.45 243.74 310.074 244.284C309.706 244.828 309.222 245.264 308.622 245.592C308.03 245.912 307.37 246.072 306.642 246.072C305.858 246.072 305.142 245.892 304.494 245.532C303.846 245.164 303.33 244.656 302.946 244.008C302.57 243.36 302.382 242.628 302.382 241.812C302.382 240.996 302.57 240.264 302.946 239.616C303.33 238.968 303.846 238.464 304.494 238.104C305.15 237.736 305.866 237.552 306.642 237.552C307.53 237.552 308.318 237.772 309.006 238.212C309.702 238.644 310.206 239.26 310.518 240.06H308.874ZM316.583 241.716C317.031 241.796 317.411 242.032 317.723 242.424C318.035 242.816 318.191 243.26 318.191 243.756C318.191 244.18 318.079 244.564 317.855 244.908C317.639 245.244 317.323 245.512 316.907 245.712C316.491 245.904 316.007 246 315.455 246H312.119V237.66H315.299C315.867 237.66 316.355 237.756 316.763 237.948C317.171 238.14 317.479 238.4 317.687 238.728C317.895 239.048 317.999 239.408 317.999 239.808C317.999 240.288 317.871 240.688 317.615 241.008C317.359 241.328 317.015 241.564 316.583 241.716ZM313.487 241.164H315.179C315.627 241.164 315.975 241.064 316.223 240.864C316.479 240.656 316.607 240.36 316.607 239.976C316.607 239.6 316.479 239.308 316.223 239.1C315.975 238.884 315.627 238.776 315.179 238.776H313.487V241.164ZM315.335 244.884C315.799 244.884 316.163 244.772 316.427 244.548C316.691 244.324 316.823 244.012 316.823 243.612C316.823 243.204 316.683 242.88 316.403 242.64C316.123 242.4 315.751 242.28 315.287 242.28H313.487V244.884H315.335Z" fill="#768396"/>
<rect x="30" y="227" width="42" height="42" rx="9" fill="#F7F7F9"/>
<path fill-rule="evenodd" clip-rule="evenodd" d="M53 238C53 237.448 52.5523 237 52 237H45C43.3431 237 42 238.343 42 240V256C42 257.657 43.3431 259 45 259H57C58.6569 259 60 257.657 60 256V245C60 244.448 59.5523 244 59 244H56C54.3431 244 53 242.657 53 241V238ZM47 249C47 248.448 47.4477 248 48 248H54C54.5523 248 55 248.448 55 249C55 249.552 54.5523 250 54 250H48C47.4477 250 47 249.552 47 249ZM47 253C47 252.448 47.4477 252 48 252H51C51.5523 252 52 252.448 52 253C52 253.552 51.5523 254 51 254H48C47.4477 254 47 253.552 47 253Z" fill="#0061FE"/>
<path d="M55.9774 237.177C55.4681 236.963 55 237.447 55 237.999V240.999C55 241.551 55.4477 241.999 56 241.999H59C59.5523 241.999 60.0361 241.531 59.8225 241.022C59.73 240.801 59.5972 240.596 59.4142 240.413L56.5858 237.585C56.4028 237.402 56.1979 237.269 55.9774 237.177Z" fill="#0061FE"/>
<path d="M95.298 294.27V304H93.702V297.336L90.734 304H89.628L86.646 297.336V304H85.05V294.27H86.772L90.188 301.9L93.59 294.27H95.298ZM104.382 296.286V304H102.786V303.09C102.534 303.407 102.202 303.659 101.792 303.846C101.39 304.023 100.961 304.112 100.504 304.112C99.897 304.112 99.351 303.986 98.8657 303.734C98.3897 303.482 98.0117 303.109 97.7317 302.614C97.461 302.119 97.3257 301.522 97.3257 300.822V296.286H98.9077V300.584C98.9077 301.275 99.0804 301.807 99.4257 302.18C99.771 302.544 100.242 302.726 100.84 302.726C101.437 302.726 101.908 302.544 102.254 302.18C102.608 301.807 102.786 301.275 102.786 300.584V296.286H104.382ZM109.288 304.126C108.681 304.126 108.135 304.019 107.65 303.804C107.174 303.58 106.796 303.281 106.516 302.908C106.236 302.525 106.086 302.101 106.068 301.634H107.72C107.748 301.961 107.902 302.236 108.182 302.46C108.471 302.675 108.83 302.782 109.26 302.782C109.708 302.782 110.053 302.698 110.296 302.53C110.548 302.353 110.674 302.129 110.674 301.858C110.674 301.569 110.534 301.354 110.254 301.214C109.983 301.074 109.549 300.92 108.952 300.752C108.373 300.593 107.902 300.439 107.538 300.29C107.174 300.141 106.856 299.912 106.586 299.604C106.324 299.296 106.194 298.89 106.194 298.386C106.194 297.975 106.315 297.602 106.558 297.266C106.8 296.921 107.146 296.65 107.594 296.454C108.051 296.258 108.574 296.16 109.162 296.16C110.039 296.16 110.744 296.384 111.276 296.832C111.817 297.271 112.106 297.873 112.144 298.638H110.548C110.52 298.293 110.38 298.017 110.128 297.812C109.876 297.607 109.535 297.504 109.106 297.504C108.686 297.504 108.364 297.583 108.14 297.742C107.916 297.901 107.804 298.111 107.804 298.372C107.804 298.577 107.878 298.75 108.028 298.89C108.177 299.03 108.359 299.142 108.574 299.226C108.788 299.301 109.106 299.399 109.526 299.52C110.086 299.669 110.543 299.823 110.898 299.982C111.262 300.131 111.574 300.355 111.836 300.654C112.097 300.953 112.232 301.349 112.242 301.844C112.242 302.283 112.12 302.675 111.878 303.02C111.635 303.365 111.29 303.636 110.842 303.832C110.403 304.028 109.885 304.126 109.288 304.126ZM114.778 295.264C114.489 295.264 114.246 295.166 114.05 294.97C113.854 294.774 113.756 294.531 113.756 294.242C113.756 293.953 113.854 293.71 114.05 293.514C114.246 293.318 114.489 293.22 114.778 293.22C115.058 293.22 115.296 293.318 115.492 293.514C115.688 293.71 115.786 293.953 115.786 294.242C115.786 294.531 115.688 294.774 115.492 294.97C115.296 295.166 115.058 295.264 114.778 295.264ZM115.562 296.286V304H113.966V296.286H115.562ZM117.125 300.136C117.125 299.343 117.284 298.647 117.601 298.05C117.928 297.443 118.376 296.977 118.945 296.65C119.515 296.323 120.168 296.16 120.905 296.16C121.839 296.16 122.609 296.384 123.215 296.832C123.831 297.271 124.247 297.901 124.461 298.722H122.739C122.599 298.339 122.375 298.041 122.067 297.826C121.759 297.611 121.372 297.504 120.905 297.504C120.252 297.504 119.729 297.737 119.337 298.204C118.955 298.661 118.763 299.305 118.763 300.136C118.763 300.967 118.955 301.615 119.337 302.082C119.729 302.549 120.252 302.782 120.905 302.782C121.829 302.782 122.441 302.376 122.739 301.564H124.461C124.237 302.348 123.817 302.973 123.201 303.44C122.585 303.897 121.82 304.126 120.905 304.126C120.168 304.126 119.515 303.963 118.945 303.636C118.376 303.3 117.928 302.833 117.601 302.236C117.284 301.629 117.125 300.929 117.125 300.136Z" fill="#242526"/>
<rect x="84" y="317" width="235" height="5" rx="2.5" fill="#E6E9ED"/>
<rect x="84" y="317" width="17" height="5" rx="2.5" fill="#FF4A4A"/>
<path d="M285.476 301.14C286.244 300.476 286.848 299.932 287.288 299.508C287.736 299.076 288.108 298.628 288.404 298.164C288.7 297.7 288.848 297.236 288.848 296.772C288.848 296.292 288.732 295.916 288.5 295.644C288.276 295.372 287.92 295.236 287.432 295.236C286.96 295.236 286.592 295.388 286.328 295.692C286.072 295.988 285.936 296.388 285.92 296.892H284.6C284.624 295.98 284.896 295.284 285.416 294.804C285.944 294.316 286.612 294.072 287.42 294.072C288.292 294.072 288.972 294.312 289.46 294.792C289.956 295.272 290.204 295.912 290.204 296.712C290.204 297.288 290.056 297.844 289.76 298.38C289.472 298.908 289.124 299.384 288.716 299.808C288.316 300.224 287.804 300.708 287.18 301.26L286.64 301.74H290.444V302.88H284.612V301.884L285.476 301.14ZM291.646 298.512C291.646 297.128 291.878 296.048 292.342 295.272C292.814 294.488 293.622 294.096 294.766 294.096C295.91 294.096 296.714 294.488 297.178 295.272C297.65 296.048 297.886 297.128 297.886 298.512C297.886 299.912 297.65 301.008 297.178 301.8C296.714 302.584 295.91 302.976 294.766 302.976C293.622 302.976 292.814 302.584 292.342 301.8C291.878 301.008 291.646 299.912 291.646 298.512ZM296.542 298.512C296.542 297.864 296.498 297.316 296.41 296.868C296.33 296.42 296.162 296.056 295.906 295.776C295.65 295.488 295.27 295.344 294.766 295.344C294.262 295.344 293.882 295.488 293.626 295.776C293.37 296.056 293.198 296.42 293.11 296.868C293.03 297.316 292.99 297.864 292.99 298.512C292.99 299.184 293.03 299.748 293.11 300.204C293.19 300.66 293.358 301.028 293.614 301.308C293.878 301.588 294.262 301.728 294.766 301.728C295.27 301.728 295.65 301.588 295.906 301.308C296.17 301.028 296.342 300.66 296.422 300.204C296.502 299.748 296.542 299.184 296.542 298.512ZM308.666 297.06C308.45 296.644 308.15 296.332 307.766 296.124C307.382 295.908 306.938 295.8 306.434 295.8C305.882 295.8 305.39 295.924 304.958 296.172C304.526 296.42 304.186 296.772 303.938 297.228C303.698 297.684 303.578 298.212 303.578 298.812C303.578 299.412 303.698 299.944 303.938 300.408C304.186 300.864 304.526 301.216 304.958 301.464C305.39 301.712 305.882 301.836 306.434 301.836C307.178 301.836 307.782 301.628 308.246 301.212C308.71 300.796 308.994 300.232 309.098 299.52H305.966V298.428H310.562V299.496C310.474 300.144 310.242 300.74 309.866 301.284C309.498 301.828 309.014 302.264 308.414 302.592C307.822 302.912 307.162 303.072 306.434 303.072C305.65 303.072 304.934 302.892 304.286 302.532C303.638 302.164 303.122 301.656 302.738 301.008C302.362 300.36 302.174 299.628 302.174 298.812C302.174 297.996 302.362 297.264 302.738 296.616C303.122 295.968 303.638 295.464 304.286 295.104C304.942 294.736 305.658 294.552 306.434 294.552C307.322 294.552 308.11 294.772 308.798 295.212C309.494 295.644 309.998 296.26 310.31 297.06H308.666ZM316.376 298.716C316.824 298.796 317.204 299.032 317.516 299.424C317.828 299.816 317.984 300.26 317.984 300.756C317.984 301.18 317.872 301.564 317.648 301.908C317.432 302.244 317.116 302.512 316.7 302.712C316.284 302.904 315.8 303 315.248 303H311.912V294.66H315.092C315.66 294.66 316.148 294.756 316.556 294.948C316.964 295.14 317.272 295.4 317.48 295.728C317.688 296.048 317.792 296.408 317.792 296.808C317.792 297.288 317.664 297.688 317.408 298.008C317.152 298.328 316.808 298.564 316.376 298.716ZM313.28 298.164H314.972C315.42 298.164 315.768 298.064 316.016 297.864C316.272 297.656 316.4 297.36 316.4 296.976C316.4 296.6 316.272 296.308 316.016 296.1C315.768 295.884 315.42 295.776 314.972 295.776H313.28V298.164ZM315.128 301.884C315.592 301.884 315.956 301.772 316.22 301.548C316.484 301.324 316.616 301.012 316.616 300.612C316.616 300.204 316.476 299.88 316.196 299.64C315.916 299.4 315.544 299.28 315.08 299.28H313.28V301.884H315.128Z" fill="#768396"/>
<rect x="30" y="285" width="42" height="42" rx="9" fill="#F7F7F9"/>
<path d="M89.488 362.098C88.5827 362.098 87.7473 361.888 86.982 361.468C86.226 361.039 85.624 360.446 85.176 359.69C84.7373 358.925 84.518 358.066 84.518 357.114C84.518 356.162 84.7373 355.308 85.176 354.552C85.624 353.796 86.226 353.208 86.982 352.788C87.7473 352.359 88.5827 352.144 89.488 352.144C90.4027 352.144 91.238 352.359 91.994 352.788C92.7593 353.208 93.3613 353.796 93.8 354.552C94.2387 355.308 94.458 356.162 94.458 357.114C94.458 358.066 94.2387 358.925 93.8 359.69C93.3613 360.446 92.7593 361.039 91.994 361.468C91.238 361.888 90.4027 362.098 89.488 362.098ZM89.488 360.712C90.132 360.712 90.706 360.567 91.21 360.278C91.714 359.979 92.106 359.559 92.386 359.018C92.6753 358.467 92.82 357.833 92.82 357.114C92.82 356.395 92.6753 355.765 92.386 355.224C92.106 354.683 91.714 354.267 91.21 353.978C90.706 353.689 90.132 353.544 89.488 353.544C88.844 353.544 88.27 353.689 87.766 353.978C87.262 354.267 86.8653 354.683 86.576 355.224C86.296 355.765 86.156 356.395 86.156 357.114C86.156 357.833 86.296 358.467 86.576 359.018C86.8653 359.559 87.262 359.979 87.766 360.278C88.27 360.567 88.844 360.712 89.488 360.712ZM97.8905 355.588V359.858C97.8905 360.147 97.9558 360.357 98.0865 360.488C98.2265 360.609 98.4598 360.67 98.7865 360.67H99.7665V362H98.5065C97.7878 362 97.2372 361.832 96.8545 361.496C96.4718 361.16 96.2805 360.614 96.2805 359.858V355.588H95.3705V354.286H96.2805V352.368H97.8905V354.286H99.7665V355.588H97.8905ZM105.228 354.16C105.816 354.16 106.338 354.286 106.796 354.538C107.262 354.79 107.626 355.163 107.888 355.658C108.158 356.153 108.294 356.75 108.294 357.45V362H106.712V357.688C106.712 356.997 106.539 356.47 106.194 356.106C105.848 355.733 105.377 355.546 104.78 355.546C104.182 355.546 103.706 355.733 103.352 356.106C103.006 356.47 102.834 356.997 102.834 357.688V362H101.238V351.64H102.834V355.182C103.104 354.855 103.445 354.603 103.856 354.426C104.276 354.249 104.733 354.16 105.228 354.16ZM117.399 357.954C117.399 358.243 117.381 358.505 117.343 358.738H111.449C111.496 359.354 111.725 359.849 112.135 360.222C112.546 360.595 113.05 360.782 113.647 360.782C114.506 360.782 115.113 360.423 115.467 359.704H117.189C116.956 360.413 116.531 360.997 115.915 361.454C115.309 361.902 114.553 362.126 113.647 362.126C112.91 362.126 112.247 361.963 111.659 361.636C111.081 361.3 110.623 360.833 110.287 360.236C109.961 359.629 109.797 358.929 109.797 358.136C109.797 357.343 109.956 356.647 110.273 356.05C110.6 355.443 111.053 354.977 111.631 354.65C112.219 354.323 112.891 354.16 113.647 354.16C114.375 354.16 115.024 354.319 115.593 354.636C116.163 354.953 116.606 355.401 116.923 355.98C117.241 356.549 117.399 357.207 117.399 357.954ZM115.733 357.45C115.724 356.862 115.514 356.391 115.103 356.036C114.693 355.681 114.184 355.504 113.577 355.504C113.027 355.504 112.555 355.681 112.163 356.036C111.771 356.381 111.538 356.853 111.463 357.45H115.733ZM120.566 355.406C120.799 355.014 121.107 354.711 121.49 354.496C121.882 354.272 122.344 354.16 122.876 354.16V355.812H122.47C121.845 355.812 121.369 355.971 121.042 356.288C120.725 356.605 120.566 357.156 120.566 357.94V362H118.97V354.286H120.566V355.406ZM133.706 352.27V353.572H129.576V356.442H132.796V357.744H129.576V362H127.98V352.27H133.706ZM135.997 353.264C135.707 353.264 135.465 353.166 135.269 352.97C135.073 352.774 134.975 352.531 134.975 352.242C134.975 351.953 135.073 351.71 135.269 351.514C135.465 351.318 135.707 351.22 135.997 351.22C136.277 351.22 136.515 351.318 136.711 351.514C136.907 351.71 137.005 351.953 137.005 352.242C137.005 352.531 136.907 352.774 136.711 352.97C136.515 353.166 136.277 353.264 135.997 353.264ZM136.781 354.286V362H135.185V354.286H136.781ZM140.472 351.64V362H138.876V351.64H140.472ZM149.638 357.954C149.638 358.243 149.619 358.505 149.582 358.738H143.688C143.734 359.354 143.963 359.849 144.374 360.222C144.784 360.595 145.288 360.782 145.886 360.782C146.744 360.782 147.351 360.423 147.706 359.704H149.428C149.194 360.413 148.77 360.997 148.154 361.454C147.547 361.902 146.791 362.126 145.886 362.126C145.148 362.126 144.486 361.963 143.898 361.636C143.319 361.3 142.862 360.833 142.526 360.236C142.199 359.629 142.036 358.929 142.036 358.136C142.036 357.343 142.194 356.647 142.512 356.05C142.838 355.443 143.291 354.977 143.87 354.65C144.458 354.323 145.13 354.16 145.886 354.16C146.614 354.16 147.262 354.319 147.832 354.636C148.401 354.953 148.844 355.401 149.162 355.98C149.479 356.549 149.638 357.207 149.638 357.954ZM147.972 357.45C147.962 356.862 147.752 356.391 147.342 356.036C146.931 355.681 146.422 355.504 145.816 355.504C145.265 355.504 144.794 355.681 144.402 356.036C144.01 356.381 143.776 356.853 143.702 357.45H147.972Z" fill="#242526"/>
<rect x="84" y="375" width="235" height="5" rx="2.5" fill="#E6E9ED"/>
<rect x="84" y="375" width="30" height="5" rx="2.5" fill="#1EA7FF"/>
<path d="M284.696 355.412C284.744 354.668 285.028 354.088 285.548 353.672C286.076 353.256 286.748 353.048 287.564 353.048C288.124 353.048 288.608 353.148 289.016 353.348C289.424 353.548 289.732 353.82 289.94 354.164C290.148 354.508 290.252 354.896 290.252 355.328C290.252 355.824 290.12 356.248 289.856 356.6C289.592 356.952 289.276 357.188 288.908 357.308V357.356C289.38 357.5 289.748 357.764 290.012 358.148C290.276 358.524 290.408 359.008 290.408 359.6C290.408 360.072 290.3 360.492 290.084 360.86C289.868 361.228 289.548 361.52 289.124 361.736C288.7 361.944 288.192 362.048 287.6 362.048C286.736 362.048 286.024 361.828 285.464 361.388C284.912 360.94 284.616 360.3 284.576 359.468H285.896C285.928 359.892 286.092 360.24 286.388 360.512C286.684 360.776 287.084 360.908 287.588 360.908C288.076 360.908 288.452 360.776 288.716 360.512C288.98 360.24 289.112 359.892 289.112 359.468C289.112 358.908 288.932 358.512 288.572 358.28C288.22 358.04 287.676 357.92 286.94 357.92H286.628V356.792H286.952C287.6 356.784 288.092 356.676 288.428 356.468C288.772 356.26 288.944 355.932 288.944 355.484C288.944 355.1 288.82 354.796 288.572 354.572C288.324 354.34 287.972 354.224 287.516 354.224C287.068 354.224 286.72 354.34 286.472 354.572C286.224 354.796 286.076 355.076 286.028 355.412H284.696ZM293.321 357.428C292.489 357.012 292.073 356.356 292.073 355.46C292.073 355.028 292.181 354.632 292.397 354.272C292.613 353.912 292.937 353.628 293.369 353.42C293.801 353.204 294.329 353.096 294.953 353.096C295.569 353.096 296.093 353.204 296.525 353.42C296.965 353.628 297.293 353.912 297.509 354.272C297.725 354.632 297.833 355.028 297.833 355.46C297.833 355.908 297.717 356.304 297.485 356.648C297.261 356.984 296.961 357.244 296.585 357.428C297.041 357.596 297.401 357.872 297.665 358.256C297.929 358.632 298.061 359.076 298.061 359.588C298.061 360.108 297.929 360.568 297.665 360.968C297.401 361.368 297.033 361.676 296.561 361.892C296.089 362.108 295.553 362.216 294.953 362.216C294.353 362.216 293.817 362.108 293.345 361.892C292.881 361.676 292.517 361.368 292.253 360.968C291.989 360.568 291.857 360.108 291.857 359.588C291.857 359.068 291.989 358.62 292.253 358.244C292.517 357.868 292.873 357.596 293.321 357.428ZM296.525 355.628C296.525 355.18 296.385 354.836 296.105 354.596C295.825 354.356 295.441 354.236 294.953 354.236C294.473 354.236 294.093 354.356 293.813 354.596C293.533 354.836 293.393 355.184 293.393 355.64C293.393 356.04 293.537 356.368 293.825 356.624C294.121 356.872 294.497 356.996 294.953 356.996C295.409 356.996 295.785 356.868 296.081 356.612C296.377 356.356 296.525 356.028 296.525 355.628ZM294.953 358.028C294.425 358.028 293.993 358.16 293.657 358.424C293.329 358.68 293.165 359.052 293.165 359.54C293.165 359.996 293.325 360.368 293.645 360.656C293.965 360.936 294.401 361.076 294.953 361.076C295.497 361.076 295.925 360.932 296.237 360.644C296.557 360.356 296.717 359.988 296.717 359.54C296.717 359.06 296.553 358.688 296.225 358.424C295.905 358.16 295.481 358.028 294.953 358.028ZM308.831 356.06C308.615 355.644 308.315 355.332 307.931 355.124C307.547 354.908 307.103 354.8 306.599 354.8C306.047 354.8 305.555 354.924 305.123 355.172C304.691 355.42 304.351 355.772 304.103 356.228C303.863 356.684 303.743 357.212 303.743 357.812C303.743 358.412 303.863 358.944 304.103 359.408C304.351 359.864 304.691 360.216 305.123 360.464C305.555 360.712 306.047 360.836 306.599 360.836C307.343 360.836 307.947 360.628 308.411 360.212C308.875 359.796 309.159 359.232 309.263 358.52H306.131V357.428H310.727V358.496C310.639 359.144 310.407 359.74 310.031 360.284C309.663 360.828 309.179 361.264 308.579 361.592C307.987 361.912 307.327 362.072 306.599 362.072C305.815 362.072 305.099 361.892 304.451 361.532C303.803 361.164 303.287 360.656 302.903 360.008C302.527 359.36 302.339 358.628 302.339 357.812C302.339 356.996 302.527 356.264 302.903 355.616C303.287 354.968 303.803 354.464 304.451 354.104C305.107 353.736 305.823 353.552 306.599 353.552C307.487 353.552 308.275 353.772 308.963 354.212C309.659 354.644 310.163 355.26 310.475 356.06H308.831ZM316.54 357.716C316.988 357.796 317.368 358.032 317.68 358.424C317.992 358.816 318.148 359.26 318.148 359.756C318.148 360.18 318.036 360.564 317.812 360.908C317.596 361.244 317.28 361.512 316.864 361.712C316.448 361.904 315.964 362 315.412 362H312.076V353.66H315.256C315.824 353.66 316.312 353.756 316.72 353.948C317.128 354.14 317.436 354.4 317.644 354.728C317.852 355.048 317.956 355.408 317.956 355.808C317.956 356.288 317.828 356.688 317.572 357.008C317.316 357.328 316.972 357.564 316.54 357.716ZM313.444 357.164H315.136C315.584 357.164 315.932 357.064 316.18 356.864C316.436 356.656 316.564 356.36 316.564 355.976C316.564 355.6 316.436 355.308 316.18 355.1C315.932 354.884 315.584 354.776 315.136 354.776H313.444V357.164ZM315.292 360.884C315.756 360.884 316.12 360.772 316.384 360.548C316.648 360.324 316.78 360.012 316.78 359.612C316.78 359.204 316.64 358.88 316.36 358.64C316.08 358.4 315.708 358.28 315.244 358.28H313.444V360.884H315.292Z" fill="#768396"/>
<rect x="30" y="343" width="42" height="42" rx="9" fill="#F7F7F9"/>
<path d="M52 353C52.5523 353 53 353.448 53 354V357C53 358.657 54.3431 360 56 360H59C59.5523 360 60 360.448 60 361V372C60 373.657 58.6569 375 57 375H45C43.3431 375 42 373.657 42 372V356C42 354.343 43.3431 353 45 353H52Z" fill="#1EA7FF"/>
<path d="M55.9774 353.177C55.4681 352.963 55 353.447 55 353.999V356.999C55 357.551 55.4477 357.999 56 357.999H59C59.5523 357.999 60.0361 357.531 59.8225 357.022C59.73 356.801 59.5972 356.596 59.4142 356.413L56.5858 353.585C56.4028 353.402 56.1979 353.269 55.9774 353.177Z" fill="#1EA7FF"/>
<path d="M45 312.573C47.206 312.573 49 310.779 49 308.573V298.428L58 301.7V309.13C57.3949 308.769 56.7044 308.577 56 308.573C53.794 308.573 52 310.367 52 312.573C52 314.779 53.794 316.573 56 316.573C58.206 316.573 60 314.779 60 312.573V301C60.0001 300.795 59.937 300.594 59.8193 300.426C59.7016 300.258 59.5349 300.131 59.342 300.061L48.342 296.061C48.191 296.006 48.0289 295.988 47.8695 296.008C47.71 296.029 47.558 296.088 47.4263 296.18C47.2945 296.273 47.187 296.395 47.1128 296.538C47.0386 296.681 46.9999 296.839 47 297V305.13C46.3949 304.769 45.7044 304.577 45 304.573C42.794 304.573 41 306.367 41 308.573C41 310.779 42.794 312.573 45 312.573Z" fill="#FF4A4A"/>
</g>
<defs>
<clipPath id="clip0_55_329">
<rect width="1440" height="1024" fill="white" transform="translate(-1061 -182)"/>
</clipPath>
</defs>
</svg>
