<svg width="1440" height="784" viewBox="0 0 1440 784" fill="none" xmlns="http://www.w3.org/2000/svg">
<path d="M321.147 5.61221V19.5122H318.867V9.99221L314.627 19.5122H313.047L308.787 9.99221V19.5122H306.507V5.61221H308.967L313.847 16.5122L318.707 5.61221H321.147ZM328.923 19.6922C327.883 19.6922 326.943 19.4589 326.103 18.9922C325.263 18.5122 324.603 17.8455 324.123 16.9922C323.643 16.1255 323.403 15.1255 323.403 13.9922C323.403 12.8722 323.65 11.8789 324.143 11.0122C324.637 10.1455 325.31 9.47887 326.163 9.01221C327.017 8.54554 327.97 8.31221 329.023 8.31221C330.077 8.31221 331.03 8.54554 331.883 9.01221C332.737 9.47887 333.41 10.1455 333.903 11.0122C334.397 11.8789 334.643 12.8722 334.643 13.9922C334.643 15.1122 334.39 16.1055 333.883 16.9722C333.377 17.8389 332.683 18.5122 331.803 18.9922C330.937 19.4589 329.977 19.6922 328.923 19.6922ZM328.923 17.7122C329.51 17.7122 330.057 17.5722 330.563 17.2922C331.083 17.0122 331.503 16.5922 331.823 16.0322C332.143 15.4722 332.303 14.7922 332.303 13.9922C332.303 13.1922 332.15 12.5189 331.843 11.9722C331.537 11.4122 331.13 10.9922 330.623 10.7122C330.117 10.4322 329.57 10.2922 328.983 10.2922C328.397 10.2922 327.85 10.4322 327.343 10.7122C326.85 10.9922 326.457 11.4122 326.163 11.9722C325.87 12.5189 325.723 13.1922 325.723 13.9922C325.723 15.1789 326.023 16.0989 326.623 16.7522C327.237 17.3922 328.003 17.7122 328.923 17.7122ZM342.457 8.31221C343.324 8.31221 344.097 8.49221 344.777 8.85221C345.47 9.21221 346.01 9.74554 346.397 10.4522C346.784 11.1589 346.977 12.0122 346.977 13.0122V19.5122H344.717V13.3522C344.717 12.3655 344.47 11.6122 343.977 11.0922C343.484 10.5589 342.81 10.2922 341.957 10.2922C341.104 10.2922 340.424 10.5589 339.917 11.0922C339.424 11.6122 339.177 12.3655 339.177 13.3522V19.5122H336.897V8.49221H339.177V9.75221C339.55 9.29887 340.024 8.94554 340.597 8.69221C341.184 8.43887 341.804 8.31221 342.457 8.31221Z" fill="#9AA8BD"/>
<path d="M318.125 32.0922V28.9122H323.665V43.5122H320.105V32.0922H318.125ZM335.324 31.4722L330.304 43.5122H326.804L331.884 31.8522H325.664V28.9322H335.324V31.4722Z" fill="#1E232A"/>
<path d="M115.571 19.6522C114.637 19.6522 113.797 19.4922 113.051 19.1722C112.304 18.8389 111.717 18.3722 111.291 17.7722C110.864 17.1722 110.651 16.4722 110.651 15.6722H113.091C113.144 16.2722 113.377 16.7655 113.791 17.1522C114.217 17.5389 114.811 17.7322 115.571 17.7322C116.357 17.7322 116.971 17.5455 117.411 17.1722C117.851 16.7855 118.071 16.2922 118.071 15.6922C118.071 15.2255 117.931 14.8455 117.651 14.5522C117.384 14.2589 117.044 14.0322 116.631 13.8722C116.231 13.7122 115.671 13.5389 114.951 13.3522C114.044 13.1122 113.304 12.8722 112.731 12.6322C112.171 12.3789 111.691 11.9922 111.291 11.4722C110.891 10.9522 110.691 10.2589 110.691 9.39221C110.691 8.59221 110.891 7.89221 111.291 7.29221C111.691 6.69221 112.251 6.23221 112.971 5.91221C113.691 5.59221 114.524 5.43221 115.471 5.43221C116.817 5.43221 117.917 5.77221 118.771 6.45221C119.637 7.11887 120.117 8.03887 120.211 9.21221H117.691C117.651 8.70554 117.411 8.27221 116.971 7.91221C116.531 7.55221 115.951 7.37221 115.231 7.37221C114.577 7.37221 114.044 7.53887 113.631 7.87221C113.217 8.20554 113.011 8.68554 113.011 9.31221C113.011 9.73887 113.137 10.0922 113.391 10.3722C113.657 10.6389 113.991 10.8522 114.391 11.0122C114.791 11.1722 115.337 11.3455 116.031 11.5322C116.951 11.7855 117.697 12.0389 118.271 12.2922C118.857 12.5455 119.351 12.9389 119.751 13.4722C120.164 13.9922 120.371 14.6922 120.371 15.5722C120.371 16.2789 120.177 16.9455 119.791 17.5722C119.417 18.1989 118.864 18.7055 118.131 19.0922C117.411 19.4655 116.557 19.6522 115.571 19.6522ZM133.041 8.49221V19.5122H130.761V18.2122C130.401 18.6655 129.928 19.0255 129.341 19.2922C128.768 19.5455 128.154 19.6722 127.501 19.6722C126.634 19.6722 125.854 19.4922 125.161 19.1322C124.481 18.7722 123.941 18.2389 123.541 17.5322C123.154 16.8255 122.961 15.9722 122.961 14.9722V8.49221H125.221V14.6322C125.221 15.6189 125.468 16.3789 125.961 16.9122C126.454 17.4322 127.128 17.6922 127.981 17.6922C128.834 17.6922 129.508 17.4322 130.001 16.9122C130.508 16.3789 130.761 15.6189 130.761 14.6322V8.49221H133.041ZM141.609 8.31221C142.476 8.31221 143.249 8.49221 143.929 8.85221C144.623 9.21221 145.163 9.74554 145.549 10.4522C145.936 11.1589 146.129 12.0122 146.129 13.0122V19.5122H143.869V13.3522C143.869 12.3655 143.623 11.6122 143.129 11.0922C142.636 10.5589 141.963 10.2922 141.109 10.2922C140.256 10.2922 139.576 10.5589 139.069 11.0922C138.576 11.6122 138.329 12.3655 138.329 13.3522V19.5122H136.049V8.49221H138.329V9.75221C138.703 9.29887 139.176 8.94554 139.749 8.69221C140.336 8.43887 140.956 8.31221 141.609 8.31221Z" fill="#9AA8BD"/>
<path d="M118.927 32.0922V28.9122H124.467V43.5122H120.907V32.0922H118.927ZM134.027 32.8522C133.92 32.3589 133.733 31.9922 133.467 31.7522C133.2 31.4989 132.82 31.3722 132.327 31.3722C131.567 31.3722 131.02 31.7055 130.687 32.3722C130.353 33.0255 130.18 34.0655 130.167 35.4922C130.46 35.0255 130.88 34.6589 131.427 34.3922C131.987 34.1255 132.6 33.9922 133.267 33.9922C134.573 33.9922 135.62 34.4055 136.407 35.2322C137.207 36.0589 137.607 37.2122 137.607 38.6922C137.607 39.6655 137.407 40.5189 137.007 41.2522C136.62 41.9855 136.047 42.5589 135.287 42.9722C134.54 43.3855 133.653 43.5922 132.627 43.5922C130.573 43.5922 129.147 42.9522 128.347 41.6722C127.547 40.3789 127.147 38.5255 127.147 36.1122C127.147 33.5789 127.567 31.6989 128.407 30.4722C129.26 29.2322 130.62 28.6122 132.487 28.6122C133.487 28.6122 134.327 28.8122 135.007 29.2122C135.7 29.5989 136.22 30.1122 136.567 30.7522C136.927 31.3922 137.14 32.0922 137.207 32.8522H134.027ZM132.447 36.6922C131.873 36.6922 131.393 36.8655 131.007 37.2122C130.633 37.5455 130.447 38.0255 130.447 38.6522C130.447 39.2922 130.62 39.7922 130.967 40.1522C131.327 40.5122 131.833 40.6922 132.487 40.6922C133.073 40.6922 133.533 40.5189 133.867 40.1722C134.213 39.8122 134.387 39.3255 134.387 38.7122C134.387 38.0855 134.22 37.5922 133.887 37.2322C133.553 36.8722 133.073 36.6922 132.447 36.6922Z" fill="#1E232A"/>
<path d="M515.97 5.61221V7.47221H512.27V19.5122H509.99V7.47221H506.27V5.61221H515.97ZM528.259 8.49221V19.5122H525.979V18.2122C525.619 18.6655 525.145 19.0255 524.559 19.2922C523.985 19.5455 523.372 19.6722 522.719 19.6722C521.852 19.6722 521.072 19.4922 520.379 19.1322C519.699 18.7722 519.159 18.2389 518.759 17.5322C518.372 16.8255 518.179 15.9722 518.179 14.9722V8.49221H520.439V14.6322C520.439 15.6189 520.685 16.3789 521.179 16.9122C521.672 17.4322 522.345 17.6922 523.199 17.6922C524.052 17.6922 524.725 17.4322 525.219 16.9122C525.725 16.3789 525.979 15.6189 525.979 14.6322V8.49221H528.259ZM541.367 13.7322C541.367 14.1455 541.34 14.5189 541.287 14.8522H532.867C532.934 15.7322 533.26 16.4389 533.847 16.9722C534.434 17.5055 535.154 17.7722 536.007 17.7722C537.234 17.7722 538.1 17.2589 538.607 16.2322H541.067C540.734 17.2455 540.127 18.0789 539.247 18.7322C538.38 19.3722 537.3 19.6922 536.007 19.6922C534.954 19.6922 534.007 19.4589 533.167 18.9922C532.34 18.5122 531.687 17.8455 531.207 16.9922C530.74 16.1255 530.507 15.1255 530.507 13.9922C530.507 12.8589 530.734 11.8655 531.187 11.0122C531.654 10.1455 532.3 9.47887 533.127 9.01221C533.967 8.54554 534.927 8.31221 536.007 8.31221C537.047 8.31221 537.974 8.53887 538.787 8.99221C539.6 9.44554 540.234 10.0855 540.687 10.9122C541.14 11.7255 541.367 12.6655 541.367 13.7322ZM538.987 13.0122C538.974 12.1722 538.674 11.4989 538.087 10.9922C537.5 10.4855 536.774 10.2322 535.907 10.2322C535.12 10.2322 534.447 10.4855 533.887 10.9922C533.327 11.4855 532.994 12.1589 532.887 13.0122H538.987Z" fill="#9AA8BD"/>
<path d="M514.096 32.0922V28.9122H519.636V43.5122H516.076V32.0922H514.096ZM524.376 35.6722C523.122 35.0055 522.496 33.9589 522.496 32.5322C522.496 31.8122 522.682 31.1589 523.056 30.5722C523.429 29.9722 523.996 29.4989 524.756 29.1522C525.516 28.7922 526.449 28.6122 527.556 28.6122C528.662 28.6122 529.589 28.7922 530.336 29.1522C531.096 29.4989 531.662 29.9722 532.036 30.5722C532.409 31.1589 532.596 31.8122 532.596 32.5322C532.596 33.2522 532.422 33.8789 532.076 34.4122C531.742 34.9455 531.289 35.3655 530.716 35.6722C531.436 36.0189 531.989 36.4989 532.376 37.1122C532.762 37.7122 532.956 38.4189 532.956 39.2322C532.956 40.1789 532.716 40.9989 532.236 41.6922C531.756 42.3722 531.102 42.8922 530.276 43.2522C529.462 43.6122 528.556 43.7922 527.556 43.7922C526.556 43.7922 525.642 43.6122 524.816 43.2522C524.002 42.8922 523.356 42.3722 522.876 41.6922C522.396 40.9989 522.156 40.1789 522.156 39.2322C522.156 38.4055 522.349 37.6922 522.736 37.0922C523.122 36.4789 523.669 36.0055 524.376 35.6722ZM529.276 33.0522C529.276 32.5055 529.116 32.0855 528.796 31.7922C528.489 31.4855 528.076 31.3322 527.556 31.3322C527.036 31.3322 526.616 31.4855 526.296 31.7922C525.989 32.0989 525.836 32.5255 525.836 33.0722C525.836 33.5922 525.996 34.0055 526.316 34.3122C526.636 34.6055 527.049 34.7522 527.556 34.7522C528.062 34.7522 528.476 34.5989 528.796 34.2922C529.116 33.9855 529.276 33.5722 529.276 33.0522ZM527.556 37.1522C526.929 37.1522 526.422 37.3255 526.036 37.6722C525.649 38.0055 525.456 38.4722 525.456 39.0722C525.456 39.6322 525.642 40.0922 526.016 40.4522C526.402 40.8122 526.916 40.9922 527.556 40.9922C528.196 40.9922 528.696 40.8122 529.056 40.4522C529.429 40.0922 529.616 39.6322 529.616 39.0722C529.616 38.4855 529.422 38.0189 529.036 37.6722C528.662 37.3255 528.169 37.1522 527.556 37.1522Z" fill="#1E232A"/>
<path d="M716.099 5.61221L711.979 19.5122H709.399L706.479 8.99221L703.379 19.5122L700.819 19.5322L696.879 5.61221H699.299L702.179 16.9322L705.299 5.61221H707.859L710.759 16.8722L713.659 5.61221H716.099ZM728.079 13.7322C728.079 14.1455 728.052 14.5189 727.999 14.8522H719.579C719.646 15.7322 719.972 16.4389 720.559 16.9722C721.146 17.5055 721.866 17.7722 722.719 17.7722C723.946 17.7722 724.812 17.2589 725.319 16.2322H727.779C727.446 17.2455 726.839 18.0789 725.959 18.7322C725.092 19.3722 724.012 19.6922 722.719 19.6922C721.666 19.6922 720.719 19.4589 719.879 18.9922C719.052 18.5122 718.399 17.8455 717.919 16.9922C717.452 16.1255 717.219 15.1255 717.219 13.9922C717.219 12.8589 717.446 11.8655 717.899 11.0122C718.366 10.1455 719.012 9.47887 719.839 9.01221C720.679 8.54554 721.639 8.31221 722.719 8.31221C723.759 8.31221 724.686 8.53887 725.499 8.99221C726.312 9.44554 726.946 10.0855 727.399 10.9122C727.852 11.7255 728.079 12.6655 728.079 13.7322ZM725.699 13.0122C725.686 12.1722 725.386 11.4989 724.799 10.9922C724.212 10.4855 723.486 10.2322 722.619 10.2322C721.832 10.2322 721.159 10.4855 720.599 10.9922C720.039 11.4855 719.706 12.1589 719.599 13.0122H725.699ZM729.563 13.9522C729.563 12.8455 729.79 11.8655 730.243 11.0122C730.71 10.1589 731.336 9.49887 732.123 9.03221C732.923 8.55221 733.81 8.31221 734.783 8.31221C735.503 8.31221 736.21 8.47221 736.903 8.79221C737.61 9.09887 738.17 9.51221 738.583 10.0322V4.71221H740.883V19.5122H738.583V17.8522C738.21 18.3855 737.69 18.8255 737.023 19.1722C736.37 19.5189 735.616 19.6922 734.763 19.6922C733.803 19.6922 732.923 19.4522 732.123 18.9722C731.336 18.4789 730.71 17.7989 730.243 16.9322C729.79 16.0522 729.563 15.0589 729.563 13.9522ZM738.583 13.9922C738.583 13.2322 738.423 12.5722 738.103 12.0122C737.796 11.4522 737.39 11.0255 736.883 10.7322C736.376 10.4389 735.83 10.2922 735.243 10.2922C734.656 10.2922 734.11 10.4389 733.603 10.7322C733.096 11.0122 732.683 11.4322 732.363 11.9922C732.056 12.5389 731.903 13.1922 731.903 13.9522C731.903 14.7122 732.056 15.3789 732.363 15.9522C732.683 16.5255 733.096 16.9655 733.603 17.2722C734.123 17.5655 734.67 17.7122 735.243 17.7122C735.83 17.7122 736.376 17.5655 736.883 17.2722C737.39 16.9789 737.796 16.5522 738.103 15.9922C738.423 15.4189 738.583 14.7522 738.583 13.9922ZM710.066 32.0922V28.9122H715.606V43.5122H712.046V32.0922H710.066ZM721.626 39.2322C721.826 40.2855 722.439 40.8122 723.466 40.8122C724.172 40.8122 724.672 40.4989 724.966 39.8722C725.259 39.2455 725.406 38.2255 725.406 36.8122C725.112 37.2255 724.712 37.5455 724.206 37.7722C723.699 37.9989 723.132 38.1122 722.506 38.1122C721.652 38.1122 720.892 37.9389 720.226 37.5922C719.559 37.2322 719.032 36.7055 718.646 36.0122C718.272 35.3055 718.086 34.4522 718.086 33.4522C718.086 32.4655 718.286 31.6055 718.686 30.8722C719.099 30.1389 719.679 29.5722 720.426 29.1722C721.186 28.7722 722.079 28.5722 723.106 28.5722C725.079 28.5722 726.459 29.1855 727.246 30.4122C728.032 31.6389 728.426 33.4455 728.426 35.8322C728.426 37.5655 728.266 38.9989 727.946 40.1322C727.639 41.2522 727.112 42.1055 726.366 42.6922C725.632 43.2789 724.626 43.5722 723.346 43.5722C722.332 43.5722 721.466 43.3722 720.746 42.9722C720.039 42.5722 719.492 42.0455 719.106 41.3922C718.732 40.7389 718.519 40.0189 718.466 39.2322H721.626ZM723.286 35.4122C723.846 35.4122 724.292 35.2455 724.626 34.9122C724.959 34.5655 725.126 34.0989 725.126 33.5122C725.126 32.8722 724.952 32.3789 724.606 32.0322C724.259 31.6855 723.792 31.5122 723.206 31.5122C722.619 31.5122 722.152 31.6922 721.806 32.0522C721.472 32.3989 721.306 32.8789 721.306 33.4922C721.306 34.0655 721.472 34.5322 721.806 34.8922C722.152 35.2389 722.646 35.4122 723.286 35.4122Z" fill="#FFCB12"/>
<path d="M903.324 5.61221V7.47221H899.624V19.5122H897.344V7.47221H893.624V5.61221H903.324ZM911.333 8.31221C912.173 8.31221 912.919 8.49221 913.573 8.85221C914.239 9.21221 914.759 9.74554 915.133 10.4522C915.519 11.1589 915.713 12.0122 915.713 13.0122V19.5122H913.453V13.3522C913.453 12.3655 913.206 11.6122 912.713 11.0922C912.219 10.5589 911.546 10.2922 910.693 10.2922C909.839 10.2922 909.159 10.5589 908.653 11.0922C908.159 11.6122 907.913 12.3655 907.913 13.3522V19.5122H905.633V4.71221H907.913V9.77221C908.299 9.30554 908.786 8.94554 909.373 8.69221C909.973 8.43887 910.626 8.31221 911.333 8.31221ZM928.601 8.49221V19.5122H926.321V18.2122C925.961 18.6655 925.488 19.0255 924.901 19.2922C924.328 19.5455 923.714 19.6722 923.061 19.6722C922.194 19.6722 921.414 19.4922 920.721 19.1322C920.041 18.7722 919.501 18.2389 919.101 17.5322C918.714 16.8255 918.521 15.9722 918.521 14.9722V8.49221H920.781V14.6322C920.781 15.6189 921.028 16.3789 921.521 16.9122C922.014 17.4322 922.688 17.6922 923.541 17.6922C924.394 17.6922 925.068 17.4322 925.561 16.9122C926.068 16.3789 926.321 15.6189 926.321 14.6322V8.49221H928.601Z" fill="#9AA8BD"/>
<path d="M900.02 40.7722C900.474 40.4122 900.68 40.2455 900.64 40.2722C901.947 39.1922 902.974 38.3055 903.72 37.6122C904.48 36.9189 905.12 36.1922 905.64 35.4322C906.16 34.6722 906.42 33.9322 906.42 33.2122C906.42 32.6655 906.294 32.2389 906.04 31.9322C905.787 31.6255 905.407 31.4722 904.9 31.4722C904.394 31.4722 903.994 31.6655 903.7 32.0522C903.42 32.4255 903.28 32.9589 903.28 33.6522H899.98C900.007 32.5189 900.247 31.5722 900.7 30.8122C901.167 30.0522 901.774 29.4922 902.52 29.1322C903.28 28.7722 904.12 28.5922 905.04 28.5922C906.627 28.5922 907.82 28.9989 908.62 29.8122C909.434 30.6255 909.84 31.6855 909.84 32.9922C909.84 34.4189 909.354 35.7455 908.38 36.9722C907.407 38.1855 906.167 39.3722 904.66 40.5322H910.06V43.3122H900.02V40.7722ZM911.566 36.0122C911.566 33.7189 912.006 31.9122 912.886 30.5922C913.779 29.2722 915.213 28.6122 917.186 28.6122C919.159 28.6122 920.586 29.2722 921.466 30.5922C922.359 31.9122 922.806 33.7189 922.806 36.0122C922.806 38.3322 922.359 40.1522 921.466 41.4722C920.586 42.7922 919.159 43.4522 917.186 43.4522C915.213 43.4522 913.779 42.7922 912.886 41.4722C912.006 40.1522 911.566 38.3322 911.566 36.0122ZM919.446 36.0122C919.446 34.6655 919.299 33.6322 919.006 32.9122C918.713 32.1789 918.106 31.8122 917.186 31.8122C916.266 31.8122 915.659 32.1789 915.366 32.9122C915.073 33.6322 914.926 34.6655 914.926 36.0122C914.926 36.9189 914.979 37.6722 915.086 38.2722C915.193 38.8589 915.406 39.3389 915.726 39.7122C916.059 40.0722 916.546 40.2522 917.186 40.2522C917.826 40.2522 918.306 40.0722 918.626 39.7122C918.959 39.3389 919.179 38.8589 919.286 38.2722C919.393 37.6722 919.446 36.9189 919.446 36.0122Z" fill="#1E232A"/>
<path d="M1109.17 5.61221V7.47221H1103.27V11.5722H1107.87V13.4322H1103.27V19.5122H1100.99V5.61221H1109.17ZM1113.57 10.0922C1113.9 9.53221 1114.34 9.09887 1114.89 8.79221C1115.45 8.47221 1116.11 8.31221 1116.87 8.31221V10.6722H1116.29C1115.39 10.6722 1114.71 10.8989 1114.25 11.3522C1113.79 11.8055 1113.57 12.5922 1113.57 13.7122V19.5122H1111.29V8.49221H1113.57V10.0922ZM1120.12 7.03221C1119.71 7.03221 1119.36 6.89221 1119.08 6.61221C1118.8 6.33221 1118.66 5.98554 1118.66 5.57221C1118.66 5.15887 1118.8 4.81221 1119.08 4.53221C1119.36 4.25221 1119.71 4.11221 1120.12 4.11221C1120.52 4.11221 1120.86 4.25221 1121.14 4.53221C1121.42 4.81221 1121.56 5.15887 1121.56 5.57221C1121.56 5.98554 1121.42 6.33221 1121.14 6.61221C1120.86 6.89221 1120.52 7.03221 1120.12 7.03221ZM1121.24 8.49221V19.5122H1118.96V8.49221H1121.24Z" fill="#9AA8BD"/>
<path d="M1102.42 40.7722C1102.88 40.4122 1103.08 40.2455 1103.04 40.2722C1104.35 39.1922 1105.38 38.3055 1106.12 37.6122C1106.88 36.9189 1107.52 36.1922 1108.04 35.4322C1108.56 34.6722 1108.82 33.9322 1108.82 33.2122C1108.82 32.6655 1108.7 32.2389 1108.44 31.9322C1108.19 31.6255 1107.81 31.4722 1107.3 31.4722C1106.8 31.4722 1106.4 31.6655 1106.1 32.0522C1105.82 32.4255 1105.68 32.9589 1105.68 33.6522H1102.38C1102.41 32.5189 1102.65 31.5722 1103.1 30.8122C1103.57 30.0522 1104.18 29.4922 1104.92 29.1322C1105.68 28.7722 1106.52 28.5922 1107.44 28.5922C1109.03 28.5922 1110.22 28.9989 1111.02 29.8122C1111.84 30.6255 1112.24 31.6855 1112.24 32.9922C1112.24 34.4189 1111.76 35.7455 1110.78 36.9722C1109.81 38.1855 1108.57 39.3722 1107.06 40.5322H1112.46V43.3122H1102.42V40.7722ZM1113.61 32.0922V28.9122H1119.15V43.5122H1115.59V32.0922H1113.61Z" fill="#1E232A"/>
<path d="M1290.1 19.6522C1289.17 19.6522 1288.33 19.4922 1287.58 19.1722C1286.83 18.8389 1286.25 18.3722 1285.82 17.7722C1285.39 17.1722 1285.18 16.4722 1285.18 15.6722H1287.62C1287.67 16.2722 1287.91 16.7655 1288.32 17.1522C1288.75 17.5389 1289.34 17.7322 1290.1 17.7322C1290.89 17.7322 1291.5 17.5455 1291.94 17.1722C1292.38 16.7855 1292.6 16.2922 1292.6 15.6922C1292.6 15.2255 1292.46 14.8455 1292.18 14.5522C1291.91 14.2589 1291.57 14.0322 1291.16 13.8722C1290.76 13.7122 1290.2 13.5389 1289.48 13.3522C1288.57 13.1122 1287.83 12.8722 1287.26 12.6322C1286.7 12.3789 1286.22 11.9922 1285.82 11.4722C1285.42 10.9522 1285.22 10.2589 1285.22 9.39221C1285.22 8.59221 1285.42 7.89221 1285.82 7.29221C1286.22 6.69221 1286.78 6.23221 1287.5 5.91221C1288.22 5.59221 1289.05 5.43221 1290 5.43221C1291.35 5.43221 1292.45 5.77221 1293.3 6.45221C1294.17 7.11887 1294.65 8.03887 1294.74 9.21221H1292.22C1292.18 8.70554 1291.94 8.27221 1291.5 7.91221C1291.06 7.55221 1290.48 7.37221 1289.76 7.37221C1289.11 7.37221 1288.57 7.53887 1288.16 7.87221C1287.75 8.20554 1287.54 8.68554 1287.54 9.31221C1287.54 9.73887 1287.67 10.0922 1287.92 10.3722C1288.19 10.6389 1288.52 10.8522 1288.92 11.0122C1289.32 11.1722 1289.87 11.3455 1290.56 11.5322C1291.48 11.7855 1292.23 12.0389 1292.8 12.2922C1293.39 12.5455 1293.88 12.9389 1294.28 13.4722C1294.69 13.9922 1294.9 14.6922 1294.9 15.5722C1294.9 16.2789 1294.71 16.9455 1294.32 17.5722C1293.95 18.1989 1293.39 18.7055 1292.66 19.0922C1291.94 19.4655 1291.09 19.6522 1290.1 19.6522ZM1296.83 13.9522C1296.83 12.8455 1297.06 11.8655 1297.51 11.0122C1297.98 10.1589 1298.6 9.49887 1299.39 9.03221C1300.19 8.55221 1301.07 8.31221 1302.03 8.31221C1302.9 8.31221 1303.65 8.48554 1304.29 8.83221C1304.94 9.16554 1305.46 9.58554 1305.85 10.0922V8.49221H1308.15V19.5122H1305.85V17.8722C1305.46 18.3922 1304.94 18.8255 1304.27 19.1722C1303.6 19.5189 1302.84 19.6922 1301.99 19.6922C1301.04 19.6922 1300.18 19.4522 1299.39 18.9722C1298.6 18.4789 1297.98 17.7989 1297.51 16.9322C1297.06 16.0522 1296.83 15.0589 1296.83 13.9522ZM1305.85 13.9922C1305.85 13.2322 1305.69 12.5722 1305.37 12.0122C1305.06 11.4522 1304.66 11.0255 1304.15 10.7322C1303.64 10.4389 1303.1 10.2922 1302.51 10.2922C1301.92 10.2922 1301.38 10.4389 1300.87 10.7322C1300.36 11.0122 1299.95 11.4322 1299.63 11.9922C1299.32 12.5389 1299.17 13.1922 1299.17 13.9522C1299.17 14.7122 1299.32 15.3789 1299.63 15.9522C1299.95 16.5255 1300.36 16.9655 1300.87 17.2722C1301.39 17.5655 1301.94 17.7122 1302.51 17.7122C1303.1 17.7122 1303.64 17.5655 1304.15 17.2722C1304.66 16.9789 1305.06 16.5522 1305.37 15.9922C1305.69 15.4189 1305.85 14.7522 1305.85 13.9922ZM1313.81 10.3522V16.4522C1313.81 16.8655 1313.9 17.1655 1314.09 17.3522C1314.29 17.5255 1314.62 17.6122 1315.09 17.6122H1316.49V19.5122H1314.69C1313.66 19.5122 1312.87 19.2722 1312.33 18.7922C1311.78 18.3122 1311.51 17.5322 1311.51 16.4522V10.3522H1310.21V8.49221H1311.51V5.75221H1313.81V8.49221H1316.49V10.3522H1313.81Z" fill="#9AA8BD"/>
<path d="M1289.91 40.7722C1290.36 40.4122 1290.57 40.2455 1290.53 40.2722C1291.83 39.1922 1292.86 38.3055 1293.61 37.6122C1294.37 36.9189 1295.01 36.1922 1295.53 35.4322C1296.05 34.6722 1296.31 33.9322 1296.31 33.2122C1296.31 32.6655 1296.18 32.2389 1295.93 31.9322C1295.67 31.6255 1295.29 31.4722 1294.79 31.4722C1294.28 31.4722 1293.88 31.6655 1293.59 32.0522C1293.31 32.4255 1293.17 32.9589 1293.17 33.6522H1289.87C1289.89 32.5189 1290.13 31.5722 1290.59 30.8122C1291.05 30.0522 1291.66 29.4922 1292.41 29.1322C1293.17 28.7722 1294.01 28.5922 1294.93 28.5922C1296.51 28.5922 1297.71 28.9989 1298.51 29.8122C1299.32 30.6255 1299.73 31.6855 1299.73 32.9922C1299.73 34.4189 1299.24 35.7455 1298.27 36.9722C1297.29 38.1855 1296.05 39.3722 1294.55 40.5322H1299.95V43.3122H1289.91V40.7722ZM1301.33 40.7722C1301.79 40.4122 1301.99 40.2455 1301.95 40.2722C1303.26 39.1922 1304.29 38.3055 1305.03 37.6122C1305.79 36.9189 1306.43 36.1922 1306.95 35.4322C1307.47 34.6722 1307.73 33.9322 1307.73 33.2122C1307.73 32.6655 1307.61 32.2389 1307.35 31.9322C1307.1 31.6255 1306.72 31.4722 1306.21 31.4722C1305.71 31.4722 1305.31 31.6655 1305.01 32.0522C1304.73 32.4255 1304.59 32.9589 1304.59 33.6522H1301.29C1301.32 32.5189 1301.56 31.5722 1302.01 30.8122C1302.48 30.0522 1303.09 29.4922 1303.83 29.1322C1304.59 28.7722 1305.43 28.5922 1306.35 28.5922C1307.94 28.5922 1309.13 28.9989 1309.93 29.8122C1310.75 30.6255 1311.15 31.6855 1311.15 32.9922C1311.15 34.4189 1310.67 35.7455 1309.69 36.9722C1308.72 38.1855 1307.48 39.3722 1305.97 40.5322H1311.37V43.3122H1301.33V40.7722Z" fill="#1E232A"/>
<g opacity="0.5">
<path d="M1641 121.213L-159 121.213" stroke="#C6CBD3"/>
<path d="M1641 219.425L-159 219.425" stroke="#C6CBD3"/>
<path d="M1641 317.638L-159 317.638" stroke="#C6CBD3"/>
<path d="M1641 415.85L-159 415.85" stroke="#C6CBD3"/>
<path d="M1641 514.063L-159 514.063" stroke="#C6CBD3"/>
<path d="M1641 612.276L-159 612.276" stroke="#C6CBD3"/>
<path d="M1641 710.488L-159 710.488" stroke="#C6CBD3"/>
<path d="M422.984 23V882.86" stroke="#C6CBD3"/>
<path d="M226.558 23V882.86" stroke="#C6CBD3"/>
<path d="M30.1332 23V882.86" stroke="#C6CBD3"/>
<path d="M619.409 23V882.86" stroke="#C6CBD3"/>
<path d="M815.834 23V882.86" stroke="#C6CBD3"/>
<path d="M1012.26 23V882.86" stroke="#C6CBD3"/>
<path d="M1208.68 23V882.86" stroke="#C6CBD3"/>
<path d="M1405.11 23V882.86" stroke="#C6CBD3"/>
</g>
</svg>
