<svg width="262" height="329" viewBox="0 0 262 329" fill="none" xmlns="http://www.w3.org/2000/svg">
<rect width="262" height="329" rx="16" fill="white"/>
<rect x="9" y="8" width="243.144" height="210" rx="15" fill="#F46767"/>
<path d="M37.6895 65.6719V87H32.9287V65.6719H37.6895ZM44.1787 65.6719V69.3779H26.5713V65.6719H44.1787ZM52.4258 87.293C51.166 87.293 50.0381 87.0928 49.042 86.6924C48.0459 86.292 47.2012 85.7402 46.5078 85.0371C45.8242 84.3242 45.3018 83.5039 44.9404 82.5762C44.5791 81.6484 44.3984 80.6572 44.3984 79.6025V79.0459C44.3984 77.8643 44.5645 76.7754 44.8965 75.7793C45.2285 74.7832 45.7119 73.9189 46.3467 73.1865C46.9912 72.4443 47.7822 71.873 48.7197 71.4727C49.6572 71.0625 50.7266 70.8574 51.9277 70.8574C53.0508 70.8574 54.0518 71.043 54.9307 71.4141C55.8096 71.7754 56.5518 72.2979 57.1572 72.9814C57.7627 73.6553 58.2217 74.4707 58.5342 75.4277C58.8564 76.375 59.0176 77.4395 59.0176 78.6211V80.4961H46.2441V77.5518H54.5352V77.2002C54.5352 76.6436 54.4326 76.1553 54.2275 75.7354C54.0322 75.3154 53.7393 74.9932 53.3486 74.7686C52.9678 74.5342 52.4844 74.417 51.8984 74.417C51.3418 74.417 50.8779 74.5342 50.5068 74.7686C50.1357 75.0029 49.8379 75.335 49.6133 75.7646C49.3984 76.1846 49.2422 76.6777 49.1445 77.2441C49.0469 77.8008 48.998 78.4014 48.998 79.0459V79.6025C48.998 80.2178 49.0811 80.7793 49.2471 81.2871C49.4131 81.7949 49.6572 82.2295 49.9795 82.5908C50.3018 82.9521 50.6924 83.2354 51.1514 83.4404C51.6104 83.6455 52.1328 83.748 52.7188 83.748C53.4414 83.748 54.1299 83.6113 54.7842 83.3379C55.4385 83.0547 56.0049 82.6152 56.4834 82.0195L58.6221 84.4658C58.2998 84.9346 57.8457 85.3887 57.2598 85.8281C56.6836 86.2578 55.9902 86.6094 55.1797 86.8828C54.3691 87.1562 53.4512 87.293 52.4258 87.293ZM69.6377 83.2207V76.4238C69.6377 75.9453 69.5645 75.5352 69.418 75.1934C69.2715 74.8516 69.042 74.583 68.7295 74.3877C68.417 74.1924 68.0117 74.0947 67.5137 74.0947C67.0938 74.0947 66.7275 74.168 66.415 74.3145C66.1123 74.4609 65.8779 74.6709 65.7119 74.9443C65.5557 75.2178 65.4775 75.5547 65.4775 75.9551H60.9072C60.9072 75.2422 61.0684 74.5781 61.3906 73.9629C61.7129 73.3477 62.1719 72.8057 62.7676 72.3369C63.373 71.8682 64.0957 71.5068 64.9355 71.2529C65.7754 70.9893 66.7178 70.8574 67.7627 70.8574C69.0029 70.8574 70.1064 71.0674 71.0732 71.4873C72.0498 71.8975 72.8213 72.5176 73.3877 73.3477C73.9541 74.168 74.2373 75.2031 74.2373 76.4531V83.0889C74.2373 84.0459 74.291 84.7979 74.3984 85.3447C74.5156 85.8818 74.6816 86.3506 74.8965 86.751V87H70.2822C70.0674 86.541 69.9062 85.9746 69.7988 85.3008C69.6914 84.6172 69.6377 83.9238 69.6377 83.2207ZM70.209 77.332L70.2383 79.8516H67.9678C67.46 79.8516 67.0205 79.915 66.6494 80.042C66.2881 80.1689 65.9951 80.3447 65.7705 80.5693C65.5459 80.7842 65.3799 81.0381 65.2725 81.3311C65.1748 81.6143 65.126 81.9268 65.126 82.2686C65.126 82.5908 65.2041 82.8838 65.3604 83.1475C65.5166 83.4014 65.7314 83.6016 66.0049 83.748C66.2783 83.8945 66.5957 83.9678 66.957 83.9678C67.5527 83.9678 68.0605 83.8506 68.4805 83.6162C68.9102 83.3818 69.2422 83.0986 69.4766 82.7666C69.7109 82.4248 69.8281 82.1074 69.8281 81.8145L70.9268 83.7188C70.751 84.1094 70.5361 84.5146 70.2822 84.9346C70.0283 85.3447 69.7061 85.7305 69.3154 86.0918C68.9248 86.4434 68.4512 86.7314 67.8945 86.9561C67.3477 87.1807 66.6885 87.293 65.917 87.293C64.9209 87.293 64.0176 87.0928 63.207 86.6924C62.3965 86.2822 61.7471 85.7207 61.2588 85.0078C60.7803 84.2949 60.541 83.4746 60.541 82.5469C60.541 81.7168 60.6924 80.9795 60.9951 80.335C61.2979 79.6904 61.752 79.1436 62.3574 78.6943C62.9727 78.2451 63.7441 77.9082 64.6719 77.6836C65.5996 77.4492 66.6836 77.332 67.9238 77.332H70.209ZM83.8613 83.7334C84.3496 83.7334 84.7744 83.6406 85.1357 83.4551C85.4971 83.2695 85.7754 83.0107 85.9707 82.6787C86.1758 82.3369 86.2783 81.9268 86.2783 81.4482H90.585C90.585 82.6006 90.2871 83.6162 89.6914 84.4951C89.1055 85.374 88.3145 86.0625 87.3184 86.5605C86.3223 87.0488 85.1992 87.293 83.9492 87.293C82.7188 87.293 81.6445 87.0928 80.7266 86.6924C79.8086 86.2822 79.042 85.7109 78.4268 84.9785C77.8115 84.2461 77.3477 83.3965 77.0352 82.4297C76.7324 81.4531 76.5811 80.3984 76.5811 79.2656V78.8848C76.5811 77.7617 76.7324 76.7119 77.0352 75.7354C77.3477 74.7588 77.8115 73.9043 78.4268 73.1719C79.042 72.4395 79.8037 71.873 80.7119 71.4727C81.6299 71.0625 82.7041 70.8574 83.9346 70.8574C85.2334 70.8574 86.3809 71.1064 87.377 71.6045C88.3828 72.1025 89.1689 72.8203 89.7354 73.7578C90.3018 74.6855 90.585 75.8037 90.585 77.1123H86.2783C86.2783 76.6045 86.1855 76.1504 86 75.75C85.8242 75.3398 85.5508 75.0176 85.1797 74.7832C84.8184 74.5391 84.3691 74.417 83.832 74.417C83.2754 74.417 82.8164 74.5391 82.4551 74.7832C82.1035 75.0176 81.835 75.3447 81.6494 75.7646C81.4639 76.1846 81.3369 76.6631 81.2686 77.2002C81.2002 77.7275 81.166 78.2891 81.166 78.8848V79.2656C81.166 79.8711 81.2002 80.4473 81.2686 80.9941C81.3369 81.5312 81.4639 82.0049 81.6494 82.415C81.8447 82.8252 82.1182 83.1475 82.4697 83.3818C82.8213 83.6162 83.2852 83.7334 83.8613 83.7334ZM97.3232 64.5V87H92.7529V64.5H97.3232ZM96.7227 78.5186L95.5801 78.5479C95.5801 77.4346 95.7168 76.4141 95.9902 75.4863C96.2734 74.5488 96.6738 73.7334 97.1914 73.04C97.709 72.3467 98.3291 71.8096 99.0518 71.4287C99.7842 71.0479 100.59 70.8574 101.469 70.8574C102.25 70.8574 102.963 70.9697 103.607 71.1943C104.252 71.4189 104.809 71.7754 105.277 72.2637C105.746 72.752 106.107 73.3916 106.361 74.1826C106.615 74.9736 106.742 75.9355 106.742 77.0684V87H102.143V77.0391C102.143 76.3652 102.045 75.8379 101.85 75.457C101.664 75.0762 101.391 74.8076 101.029 74.6514C100.678 74.4951 100.248 74.417 99.7402 74.417C99.1445 74.417 98.6514 74.5244 98.2607 74.7393C97.8701 74.9443 97.5625 75.2324 97.3379 75.6035C97.1133 75.9746 96.9521 76.4092 96.8545 76.9072C96.7666 77.4053 96.7227 77.9424 96.7227 78.5186ZM114.55 71.1504V87H109.965V71.1504H114.55ZM109.687 67.0488C109.687 66.3848 109.921 65.8428 110.39 65.4229C110.858 64.9932 111.474 64.7783 112.235 64.7783C112.997 64.7783 113.612 64.9932 114.081 65.4229C114.56 65.8428 114.799 66.3848 114.799 67.0488C114.799 67.7031 114.56 68.2451 114.081 68.6748C113.612 69.0947 112.997 69.3047 112.235 69.3047C111.474 69.3047 110.858 69.0947 110.39 68.6748C109.921 68.2451 109.687 67.7031 109.687 67.0488ZM122.328 74.5342V87H117.743V71.1504H122.05L122.328 74.5342ZM121.728 78.5186L120.585 78.5479C120.585 77.3564 120.731 76.2871 121.024 75.3398C121.317 74.3926 121.732 73.5869 122.27 72.9229C122.816 72.249 123.466 71.7363 124.218 71.3848C124.979 71.0332 125.819 70.8574 126.737 70.8574C127.479 70.8574 128.158 70.9648 128.773 71.1797C129.389 71.3945 129.916 71.7412 130.355 72.2197C130.805 72.6885 131.146 73.3135 131.381 74.0947C131.615 74.8662 131.732 75.8184 131.732 76.9512V87H127.133V76.9365C127.133 76.2725 127.04 75.7598 126.854 75.3984C126.669 75.0371 126.396 74.7832 126.034 74.6367C125.683 74.4902 125.253 74.417 124.745 74.417C124.208 74.417 123.749 74.5244 123.368 74.7393C122.987 74.9443 122.675 75.2324 122.431 75.6035C122.187 75.9746 122.006 76.4092 121.889 76.9072C121.781 77.4053 121.728 77.9424 121.728 78.5186ZM144.711 71.1504H148.871V86.4287C148.871 87.8838 148.539 89.1191 147.875 90.1348C147.221 91.1504 146.308 91.9219 145.136 92.4492C143.964 92.9766 142.592 93.2402 141.02 93.2402C140.336 93.2402 139.623 93.1475 138.881 92.9619C138.139 92.7861 137.44 92.5176 136.786 92.1562C136.132 91.8047 135.585 91.3555 135.146 90.8086L137.094 88.1133C137.543 88.6211 138.08 89.0312 138.705 89.3438C139.33 89.666 140.043 89.8271 140.844 89.8271C141.576 89.8271 142.196 89.6953 142.704 89.4316C143.212 89.168 143.598 88.7822 143.861 88.2744C144.135 87.7666 144.271 87.1514 144.271 86.4287V74.8564L144.711 71.1504ZM134.12 79.2656V78.958C134.12 77.7568 134.267 76.6631 134.56 75.6768C134.853 74.6807 135.277 73.8262 135.834 73.1133C136.4 72.3906 137.079 71.834 137.87 71.4434C138.671 71.0527 139.569 70.8574 140.565 70.8574C141.64 70.8574 142.528 71.0625 143.231 71.4727C143.935 71.873 144.506 72.4395 144.945 73.1719C145.385 73.8945 145.731 74.749 145.985 75.7354C146.239 76.7119 146.444 77.7715 146.601 78.9141V79.4414C146.444 80.5352 146.22 81.5557 145.927 82.5029C145.634 83.4502 145.253 84.2852 144.784 85.0078C144.315 85.7207 143.729 86.2822 143.026 86.6924C142.333 87.0928 141.503 87.293 140.536 87.293C139.55 87.293 138.661 87.0928 137.87 86.6924C137.079 86.292 136.4 85.7305 135.834 85.0078C135.277 84.2852 134.853 83.4355 134.56 82.459C134.267 81.4824 134.12 80.418 134.12 79.2656ZM138.69 78.958V79.2656C138.69 79.8906 138.749 80.4717 138.866 81.0088C138.993 81.5459 139.179 82.0195 139.423 82.4297C139.677 82.8398 139.989 83.1621 140.36 83.3965C140.741 83.6211 141.186 83.7334 141.693 83.7334C142.436 83.7334 143.036 83.5771 143.495 83.2646C143.964 82.9424 144.306 82.498 144.521 81.9316C144.745 81.3652 144.862 80.7061 144.872 79.9541V78.416C144.872 77.791 144.809 77.2295 144.682 76.7314C144.555 76.2334 144.364 75.8135 144.11 75.4717C143.866 75.1299 143.544 74.8711 143.144 74.6953C142.753 74.5098 142.279 74.417 141.723 74.417C141.225 74.417 140.785 74.5342 140.404 74.7686C140.023 74.9932 139.706 75.3105 139.452 75.7207C139.198 76.1309 139.008 76.6143 138.881 77.1709C138.754 77.7178 138.69 78.3135 138.69 78.958ZM32.5332 100.672V122H27.7578V100.672H32.5332ZM40.9268 109.666V113.357H31.2002V109.666H40.9268ZM41.8643 100.672V104.378H31.2002V100.672H41.8643ZM42.9775 114.236V113.929C42.9775 112.767 43.1436 111.697 43.4756 110.721C43.8076 109.734 44.2959 108.88 44.9404 108.157C45.585 107.435 46.376 106.873 47.3135 106.473C48.251 106.062 49.3252 105.857 50.5361 105.857C51.7666 105.857 52.8506 106.062 53.7881 106.473C54.7354 106.873 55.5312 107.435 56.1758 108.157C56.8203 108.88 57.3086 109.734 57.6406 110.721C57.9727 111.697 58.1387 112.767 58.1387 113.929V114.236C58.1387 115.389 57.9727 116.458 57.6406 117.444C57.3086 118.421 56.8203 119.275 56.1758 120.008C55.5312 120.73 54.7402 121.292 53.8027 121.692C52.8652 122.093 51.7861 122.293 50.5654 122.293C49.3545 122.293 48.2754 122.093 47.3281 121.692C46.3809 121.292 45.585 120.73 44.9404 120.008C44.2959 119.275 43.8076 118.421 43.4756 117.444C43.1436 116.458 42.9775 115.389 42.9775 114.236ZM47.5625 113.929V114.236C47.5625 114.861 47.6113 115.447 47.709 115.994C47.8164 116.541 47.9873 117.02 48.2217 117.43C48.4561 117.84 48.7637 118.162 49.1445 118.396C49.5352 118.621 50.0088 118.733 50.5654 118.733C51.1221 118.733 51.5908 118.621 51.9717 118.396C52.3525 118.162 52.6602 117.84 52.8945 117.43C53.1289 117.02 53.2949 116.541 53.3926 115.994C53.5 115.447 53.5537 114.861 53.5537 114.236V113.929C53.5537 113.313 53.5 112.737 53.3926 112.2C53.2949 111.653 53.1289 111.17 52.8945 110.75C52.6602 110.33 52.3477 110.003 51.957 109.769C51.5762 109.534 51.1025 109.417 50.5361 109.417C49.9893 109.417 49.5254 109.534 49.1445 109.769C48.7637 110.003 48.4561 110.33 48.2217 110.75C47.9873 111.17 47.8164 111.653 47.709 112.2C47.6113 112.737 47.5625 113.313 47.5625 113.929ZM69.8428 118.177V106.15H74.4424V122H70.1357L69.8428 118.177ZM70.3262 114.939L71.5859 114.91C71.5859 115.975 71.459 116.956 71.2051 117.854C70.9609 118.753 70.5898 119.534 70.0918 120.198C69.6035 120.862 68.9932 121.38 68.2607 121.751C67.5381 122.112 66.6934 122.293 65.7266 122.293C64.9453 122.293 64.2275 122.186 63.5732 121.971C62.9287 121.746 62.3721 121.399 61.9033 120.931C61.4346 120.452 61.0732 119.842 60.8193 119.1C60.5654 118.348 60.4385 117.449 60.4385 116.404V106.15H65.0088V116.434C65.0088 116.844 65.0576 117.195 65.1553 117.488C65.2627 117.771 65.4043 118.006 65.5801 118.191C65.7656 118.377 65.9902 118.514 66.2539 118.602C66.5273 118.689 66.8252 118.733 67.1475 118.733C67.958 118.733 68.5928 118.567 69.0518 118.235C69.5205 117.894 69.8477 117.439 70.0332 116.873C70.2285 116.297 70.3262 115.652 70.3262 114.939ZM81.8984 109.534V122H77.3135V106.15H81.6201L81.8984 109.534ZM81.2979 113.519L80.1553 113.548C80.1553 112.356 80.3018 111.287 80.5947 110.34C80.8877 109.393 81.3027 108.587 81.8398 107.923C82.3867 107.249 83.0361 106.736 83.7881 106.385C84.5498 106.033 85.3896 105.857 86.3076 105.857C87.0498 105.857 87.7285 105.965 88.3438 106.18C88.959 106.395 89.4863 106.741 89.9258 107.22C90.375 107.688 90.7168 108.313 90.9512 109.095C91.1855 109.866 91.3027 110.818 91.3027 111.951V122H86.7031V111.937C86.7031 111.272 86.6104 110.76 86.4248 110.398C86.2393 110.037 85.9658 109.783 85.6045 109.637C85.2529 109.49 84.8232 109.417 84.3154 109.417C83.7783 109.417 83.3193 109.524 82.9385 109.739C82.5576 109.944 82.2451 110.232 82.001 110.604C81.7568 110.975 81.5762 111.409 81.459 111.907C81.3516 112.405 81.2979 112.942 81.2979 113.519ZM103.52 118.455V99.5H108.119V122H103.988L103.52 118.455ZM93.6465 114.266V113.958C93.6465 112.757 93.7783 111.663 94.042 110.677C94.3154 109.681 94.7109 108.826 95.2285 108.113C95.7559 107.391 96.4053 106.834 97.1768 106.443C97.9482 106.053 98.832 105.857 99.8281 105.857C100.746 105.857 101.547 106.062 102.23 106.473C102.914 106.873 103.495 107.439 103.974 108.172C104.462 108.895 104.857 109.749 105.16 110.735C105.463 111.712 105.692 112.771 105.849 113.914V114.441C105.702 115.535 105.473 116.556 105.16 117.503C104.857 118.45 104.462 119.285 103.974 120.008C103.495 120.721 102.909 121.282 102.216 121.692C101.532 122.093 100.727 122.293 99.7988 122.293C98.8027 122.293 97.9189 122.093 97.1475 121.692C96.3857 121.292 95.7461 120.73 95.2285 120.008C94.7109 119.285 94.3154 118.436 94.042 117.459C93.7783 116.482 93.6465 115.418 93.6465 114.266ZM98.2168 113.958V114.266C98.2168 114.891 98.2607 115.472 98.3486 116.009C98.4463 116.546 98.6025 117.02 98.8174 117.43C99.0322 117.84 99.3154 118.162 99.667 118.396C100.019 118.621 100.448 118.733 100.956 118.733C101.64 118.733 102.201 118.577 102.641 118.265C103.08 117.942 103.412 117.498 103.637 116.932C103.861 116.365 103.979 115.706 103.988 114.954V113.416C103.988 112.791 103.925 112.229 103.798 111.731C103.671 111.233 103.48 110.813 103.227 110.472C102.982 110.13 102.675 109.871 102.304 109.695C101.933 109.51 101.493 109.417 100.985 109.417C100.487 109.417 100.062 109.534 99.7109 109.769C99.3594 109.993 99.0713 110.311 98.8467 110.721C98.6318 111.131 98.4707 111.614 98.3633 112.171C98.2656 112.718 98.2168 113.313 98.2168 113.958ZM119.56 118.221V111.424C119.56 110.945 119.486 110.535 119.34 110.193C119.193 109.852 118.964 109.583 118.651 109.388C118.339 109.192 117.934 109.095 117.436 109.095C117.016 109.095 116.649 109.168 116.337 109.314C116.034 109.461 115.8 109.671 115.634 109.944C115.478 110.218 115.399 110.555 115.399 110.955H110.829C110.829 110.242 110.99 109.578 111.312 108.963C111.635 108.348 112.094 107.806 112.689 107.337C113.295 106.868 114.018 106.507 114.857 106.253C115.697 105.989 116.64 105.857 117.685 105.857C118.925 105.857 120.028 106.067 120.995 106.487C121.972 106.897 122.743 107.518 123.31 108.348C123.876 109.168 124.159 110.203 124.159 111.453V118.089C124.159 119.046 124.213 119.798 124.32 120.345C124.438 120.882 124.604 121.351 124.818 121.751V122H120.204C119.989 121.541 119.828 120.975 119.721 120.301C119.613 119.617 119.56 118.924 119.56 118.221ZM120.131 112.332L120.16 114.852H117.89C117.382 114.852 116.942 114.915 116.571 115.042C116.21 115.169 115.917 115.345 115.692 115.569C115.468 115.784 115.302 116.038 115.194 116.331C115.097 116.614 115.048 116.927 115.048 117.269C115.048 117.591 115.126 117.884 115.282 118.147C115.438 118.401 115.653 118.602 115.927 118.748C116.2 118.895 116.518 118.968 116.879 118.968C117.475 118.968 117.982 118.851 118.402 118.616C118.832 118.382 119.164 118.099 119.398 117.767C119.633 117.425 119.75 117.107 119.75 116.814L120.849 118.719C120.673 119.109 120.458 119.515 120.204 119.935C119.95 120.345 119.628 120.73 119.237 121.092C118.847 121.443 118.373 121.731 117.816 121.956C117.27 122.181 116.61 122.293 115.839 122.293C114.843 122.293 113.939 122.093 113.129 121.692C112.318 121.282 111.669 120.721 111.181 120.008C110.702 119.295 110.463 118.475 110.463 117.547C110.463 116.717 110.614 115.979 110.917 115.335C111.22 114.69 111.674 114.144 112.279 113.694C112.895 113.245 113.666 112.908 114.594 112.684C115.521 112.449 116.605 112.332 117.846 112.332H120.131ZM135.219 106.15V109.358H125.814V106.15H135.219ZM127.968 102.225H132.553V117.034C132.553 117.474 132.606 117.811 132.714 118.045C132.821 118.279 132.997 118.445 133.241 118.543C133.485 118.631 133.798 118.675 134.179 118.675C134.452 118.675 134.687 118.665 134.882 118.646C135.077 118.626 135.258 118.602 135.424 118.572V121.883C135.033 122.01 134.618 122.107 134.179 122.176C133.739 122.254 133.261 122.293 132.743 122.293C131.757 122.293 130.902 122.132 130.18 121.81C129.467 121.487 128.92 120.979 128.539 120.286C128.158 119.583 127.968 118.67 127.968 117.547V102.225ZM142.235 106.15V122H137.65V106.15H142.235ZM137.372 102.049C137.372 101.385 137.606 100.843 138.075 100.423C138.544 99.9932 139.159 99.7783 139.921 99.7783C140.683 99.7783 141.298 99.9932 141.767 100.423C142.245 100.843 142.484 101.385 142.484 102.049C142.484 102.703 142.245 103.245 141.767 103.675C141.298 104.095 140.683 104.305 139.921 104.305C139.159 104.305 138.544 104.095 138.075 103.675C137.606 103.245 137.372 102.703 137.372 102.049ZM144.872 114.236V113.929C144.872 112.767 145.038 111.697 145.37 110.721C145.702 109.734 146.19 108.88 146.835 108.157C147.479 107.435 148.271 106.873 149.208 106.473C150.146 106.062 151.22 105.857 152.431 105.857C153.661 105.857 154.745 106.062 155.683 106.473C156.63 106.873 157.426 107.435 158.07 108.157C158.715 108.88 159.203 109.734 159.535 110.721C159.867 111.697 160.033 112.767 160.033 113.929V114.236C160.033 115.389 159.867 116.458 159.535 117.444C159.203 118.421 158.715 119.275 158.07 120.008C157.426 120.73 156.635 121.292 155.697 121.692C154.76 122.093 153.681 122.293 152.46 122.293C151.249 122.293 150.17 122.093 149.223 121.692C148.275 121.292 147.479 120.73 146.835 120.008C146.19 119.275 145.702 118.421 145.37 117.444C145.038 116.458 144.872 115.389 144.872 114.236ZM149.457 113.929V114.236C149.457 114.861 149.506 115.447 149.604 115.994C149.711 116.541 149.882 117.02 150.116 117.43C150.351 117.84 150.658 118.162 151.039 118.396C151.43 118.621 151.903 118.733 152.46 118.733C153.017 118.733 153.485 118.621 153.866 118.396C154.247 118.162 154.555 117.84 154.789 117.43C155.023 117.02 155.189 116.541 155.287 115.994C155.395 115.447 155.448 114.861 155.448 114.236V113.929C155.448 113.313 155.395 112.737 155.287 112.2C155.189 111.653 155.023 111.17 154.789 110.75C154.555 110.33 154.242 110.003 153.852 109.769C153.471 109.534 152.997 109.417 152.431 109.417C151.884 109.417 151.42 109.534 151.039 109.769C150.658 110.003 150.351 110.33 150.116 110.75C149.882 111.17 149.711 111.653 149.604 112.2C149.506 112.737 149.457 113.313 149.457 113.929ZM166.918 109.534V122H162.333V106.15H166.64L166.918 109.534ZM166.317 113.519L165.175 113.548C165.175 112.356 165.321 111.287 165.614 110.34C165.907 109.393 166.322 108.587 166.859 107.923C167.406 107.249 168.056 106.736 168.808 106.385C169.569 106.033 170.409 105.857 171.327 105.857C172.069 105.857 172.748 105.965 173.363 106.18C173.979 106.395 174.506 106.741 174.945 107.22C175.395 107.688 175.736 108.313 175.971 109.095C176.205 109.866 176.322 110.818 176.322 111.951V122H171.723V111.937C171.723 111.272 171.63 110.76 171.444 110.398C171.259 110.037 170.985 109.783 170.624 109.637C170.272 109.49 169.843 109.417 169.335 109.417C168.798 109.417 168.339 109.524 167.958 109.739C167.577 109.944 167.265 110.232 167.021 110.604C166.776 110.975 166.596 111.409 166.479 111.907C166.371 112.405 166.317 112.942 166.317 113.519ZM187.748 117.591C187.748 117.298 187.655 117.039 187.47 116.814C187.294 116.59 186.972 116.385 186.503 116.199C186.044 116.014 185.395 115.828 184.555 115.643C183.764 115.477 183.026 115.262 182.343 114.998C181.659 114.725 181.063 114.397 180.556 114.017C180.048 113.626 179.652 113.167 179.369 112.64C179.086 112.103 178.944 111.492 178.944 110.809C178.944 110.145 179.086 109.515 179.369 108.919C179.662 108.323 180.082 107.796 180.629 107.337C181.186 106.878 181.859 106.517 182.65 106.253C183.451 105.989 184.359 105.857 185.375 105.857C186.771 105.857 187.978 106.077 188.993 106.517C190.009 106.946 190.79 107.552 191.337 108.333C191.884 109.104 192.157 109.988 192.157 110.984H187.587C187.587 110.574 187.509 110.218 187.353 109.915C187.196 109.612 186.957 109.378 186.635 109.212C186.312 109.036 185.888 108.948 185.36 108.948C184.95 108.948 184.589 109.021 184.276 109.168C183.974 109.305 183.734 109.495 183.559 109.739C183.393 109.983 183.31 110.267 183.31 110.589C183.31 110.813 183.358 111.019 183.456 111.204C183.563 111.38 183.725 111.546 183.939 111.702C184.164 111.849 184.452 111.98 184.804 112.098C185.165 112.215 185.604 112.327 186.122 112.435C187.226 112.64 188.231 112.928 189.14 113.299C190.058 113.67 190.79 114.183 191.337 114.837C191.894 115.491 192.172 116.355 192.172 117.43C192.172 118.133 192.011 118.777 191.688 119.363C191.376 119.949 190.922 120.462 190.326 120.901C189.73 121.341 189.018 121.683 188.188 121.927C187.357 122.171 186.42 122.293 185.375 122.293C183.881 122.293 182.616 122.024 181.581 121.487C180.546 120.95 179.765 120.276 179.237 119.466C178.72 118.646 178.461 117.806 178.461 116.946H182.753C182.772 117.474 182.904 117.903 183.148 118.235C183.402 118.567 183.729 118.812 184.13 118.968C184.53 119.114 184.979 119.188 185.478 119.188C185.976 119.188 186.391 119.119 186.723 118.982C187.055 118.846 187.309 118.66 187.484 118.426C187.66 118.182 187.748 117.903 187.748 117.591ZM32.8408 135.672V157H28.0801V135.672H32.8408Z" fill="#313134"/>
<path d="M175.465 194.469H176.777L179.244 201.049L181.705 194.469H183.018L179.76 203H178.717L175.465 194.469ZM174.867 194.469H176.115L176.332 200.164V203H174.867V194.469ZM182.367 194.469H183.621V203H182.15V200.164L182.367 194.469ZM188.801 201.729V198.705C188.801 198.479 188.76 198.283 188.678 198.119C188.596 197.955 188.471 197.828 188.303 197.738C188.139 197.648 187.932 197.604 187.682 197.604C187.451 197.604 187.252 197.643 187.084 197.721C186.916 197.799 186.785 197.904 186.691 198.037C186.598 198.17 186.551 198.32 186.551 198.488H185.145C185.145 198.238 185.205 197.996 185.326 197.762C185.447 197.527 185.623 197.318 185.854 197.135C186.084 196.951 186.359 196.807 186.68 196.701C187 196.596 187.359 196.543 187.758 196.543C188.234 196.543 188.656 196.623 189.023 196.783C189.395 196.943 189.686 197.186 189.896 197.51C190.111 197.83 190.219 198.232 190.219 198.717V201.535C190.219 201.824 190.238 202.084 190.277 202.314C190.32 202.541 190.381 202.738 190.459 202.906V203H189.012C188.945 202.848 188.893 202.654 188.854 202.42C188.818 202.182 188.801 201.951 188.801 201.729ZM189.006 199.145L189.018 200.018H188.004C187.742 200.018 187.512 200.043 187.312 200.094C187.113 200.141 186.947 200.211 186.814 200.305C186.682 200.398 186.582 200.512 186.516 200.645C186.449 200.777 186.416 200.928 186.416 201.096C186.416 201.264 186.455 201.418 186.533 201.559C186.611 201.695 186.725 201.803 186.873 201.881C187.025 201.959 187.209 201.998 187.424 201.998C187.713 201.998 187.965 201.939 188.18 201.822C188.398 201.701 188.57 201.555 188.695 201.383C188.82 201.207 188.887 201.041 188.895 200.885L189.352 201.512C189.305 201.672 189.225 201.844 189.111 202.027C188.998 202.211 188.85 202.387 188.666 202.555C188.486 202.719 188.27 202.854 188.016 202.959C187.766 203.064 187.477 203.117 187.148 203.117C186.734 203.117 186.365 203.035 186.041 202.871C185.717 202.703 185.463 202.479 185.279 202.197C185.096 201.912 185.004 201.59 185.004 201.23C185.004 200.895 185.066 200.598 185.191 200.34C185.32 200.078 185.508 199.859 185.754 199.684C186.004 199.508 186.309 199.375 186.668 199.285C187.027 199.191 187.438 199.145 187.898 199.145H189.006ZM194.602 196.66V197.691H191.027V196.66H194.602ZM192.059 195.107H193.471V201.248C193.471 201.443 193.498 201.594 193.553 201.699C193.611 201.801 193.691 201.869 193.793 201.904C193.895 201.939 194.014 201.957 194.15 201.957C194.248 201.957 194.342 201.951 194.432 201.939C194.521 201.928 194.594 201.916 194.648 201.904L194.654 202.982C194.537 203.018 194.4 203.049 194.244 203.076C194.092 203.104 193.916 203.117 193.717 203.117C193.393 203.117 193.105 203.061 192.855 202.947C192.605 202.83 192.41 202.641 192.27 202.379C192.129 202.117 192.059 201.77 192.059 201.336V195.107ZM198.486 203.117C198.018 203.117 197.594 203.041 197.215 202.889C196.84 202.732 196.52 202.516 196.254 202.238C195.992 201.961 195.791 201.635 195.65 201.26C195.51 200.885 195.439 200.48 195.439 200.047V199.812C195.439 199.316 195.512 198.867 195.656 198.465C195.801 198.062 196.002 197.719 196.26 197.434C196.518 197.145 196.822 196.924 197.174 196.771C197.525 196.619 197.906 196.543 198.316 196.543C198.77 196.543 199.166 196.619 199.506 196.771C199.846 196.924 200.127 197.139 200.35 197.416C200.576 197.689 200.744 198.016 200.854 198.395C200.967 198.773 201.023 199.191 201.023 199.648V200.252H196.125V199.238H199.629V199.127C199.621 198.873 199.57 198.635 199.477 198.412C199.387 198.189 199.248 198.01 199.061 197.873C198.873 197.736 198.623 197.668 198.311 197.668C198.076 197.668 197.867 197.719 197.684 197.82C197.504 197.918 197.354 198.061 197.232 198.248C197.111 198.436 197.018 198.662 196.951 198.928C196.889 199.189 196.857 199.484 196.857 199.812V200.047C196.857 200.324 196.895 200.582 196.969 200.82C197.047 201.055 197.16 201.26 197.309 201.436C197.457 201.611 197.637 201.75 197.848 201.852C198.059 201.949 198.299 201.998 198.568 201.998C198.908 201.998 199.211 201.93 199.477 201.793C199.742 201.656 199.973 201.463 200.168 201.213L200.912 201.934C200.775 202.133 200.598 202.324 200.379 202.508C200.16 202.688 199.893 202.834 199.576 202.947C199.264 203.061 198.9 203.117 198.486 203.117ZM201.855 199.9V199.766C201.855 199.309 201.922 198.885 202.055 198.494C202.188 198.1 202.379 197.758 202.629 197.469C202.883 197.176 203.191 196.949 203.555 196.789C203.922 196.625 204.336 196.543 204.797 196.543C205.262 196.543 205.676 196.625 206.039 196.789C206.406 196.949 206.717 197.176 206.971 197.469C207.225 197.758 207.418 198.1 207.551 198.494C207.684 198.885 207.75 199.309 207.75 199.766V199.9C207.75 200.357 207.684 200.781 207.551 201.172C207.418 201.562 207.225 201.904 206.971 202.197C206.717 202.486 206.408 202.713 206.045 202.877C205.682 203.037 205.27 203.117 204.809 203.117C204.344 203.117 203.928 203.037 203.561 202.877C203.197 202.713 202.889 202.486 202.635 202.197C202.381 201.904 202.188 201.562 202.055 201.172C201.922 200.781 201.855 200.357 201.855 199.9ZM203.268 199.766V199.9C203.268 200.186 203.297 200.455 203.355 200.709C203.414 200.963 203.506 201.186 203.631 201.377C203.756 201.568 203.916 201.719 204.111 201.828C204.307 201.938 204.539 201.992 204.809 201.992C205.07 201.992 205.297 201.938 205.488 201.828C205.684 201.719 205.844 201.568 205.969 201.377C206.094 201.186 206.186 200.963 206.244 200.709C206.307 200.455 206.338 200.186 206.338 199.9V199.766C206.338 199.484 206.307 199.219 206.244 198.969C206.186 198.715 206.092 198.49 205.963 198.295C205.838 198.1 205.678 197.947 205.482 197.838C205.291 197.725 205.062 197.668 204.797 197.668C204.531 197.668 204.301 197.725 204.105 197.838C203.914 197.947 203.756 198.1 203.631 198.295C203.506 198.49 203.414 198.715 203.355 198.969C203.297 199.219 203.268 199.484 203.268 199.766ZM216.551 200.803C216.551 200.627 216.523 200.471 216.469 200.334C216.418 200.197 216.326 200.072 216.193 199.959C216.061 199.846 215.873 199.736 215.631 199.631C215.393 199.521 215.088 199.41 214.717 199.297C214.311 199.172 213.936 199.033 213.592 198.881C213.252 198.725 212.955 198.545 212.701 198.342C212.447 198.135 212.25 197.898 212.109 197.633C211.969 197.363 211.898 197.053 211.898 196.701C211.898 196.354 211.971 196.037 212.115 195.752C212.264 195.467 212.473 195.221 212.742 195.014C213.016 194.803 213.338 194.641 213.709 194.527C214.08 194.41 214.49 194.352 214.939 194.352C215.572 194.352 216.117 194.469 216.574 194.703C217.035 194.938 217.389 195.252 217.635 195.646C217.885 196.041 218.01 196.477 218.01 196.953H216.551C216.551 196.672 216.49 196.424 216.369 196.209C216.252 195.99 216.072 195.818 215.83 195.693C215.592 195.568 215.289 195.506 214.922 195.506C214.574 195.506 214.285 195.559 214.055 195.664C213.824 195.77 213.652 195.912 213.539 196.092C213.426 196.271 213.369 196.475 213.369 196.701C213.369 196.861 213.406 197.008 213.48 197.141C213.555 197.27 213.668 197.391 213.82 197.504C213.973 197.613 214.164 197.717 214.395 197.814C214.625 197.912 214.896 198.006 215.209 198.096C215.682 198.236 216.094 198.393 216.445 198.564C216.797 198.732 217.09 198.924 217.324 199.139C217.559 199.354 217.734 199.598 217.852 199.871C217.969 200.141 218.027 200.447 218.027 200.791C218.027 201.15 217.955 201.475 217.811 201.764C217.666 202.049 217.459 202.293 217.189 202.496C216.924 202.695 216.604 202.85 216.229 202.959C215.857 203.064 215.443 203.117 214.986 203.117C214.576 203.117 214.172 203.062 213.773 202.953C213.379 202.844 213.02 202.678 212.695 202.455C212.371 202.229 212.113 201.947 211.922 201.611C211.73 201.271 211.635 200.875 211.635 200.422H213.105C213.105 200.699 213.152 200.936 213.246 201.131C213.344 201.326 213.479 201.486 213.65 201.611C213.822 201.732 214.021 201.822 214.248 201.881C214.479 201.939 214.725 201.969 214.986 201.969C215.33 201.969 215.617 201.92 215.848 201.822C216.082 201.725 216.258 201.588 216.375 201.412C216.492 201.236 216.551 201.033 216.551 200.803ZM220.699 196.66V203H219.281V196.66H220.699ZM219.188 194.996C219.188 194.781 219.258 194.604 219.398 194.463C219.543 194.318 219.742 194.246 219.996 194.246C220.246 194.246 220.443 194.318 220.588 194.463C220.732 194.604 220.805 194.781 220.805 194.996C220.805 195.207 220.732 195.383 220.588 195.523C220.443 195.664 220.246 195.734 219.996 195.734C219.742 195.734 219.543 195.664 219.398 195.523C219.258 195.383 219.188 195.207 219.188 194.996ZM223.758 194V203H222.34V194H223.758ZM227.367 201.881L228.92 196.66H230.385L228.182 203H227.268L227.367 201.881ZM226.178 196.66L227.76 201.904L227.836 203H226.922L224.707 196.66H226.178ZM234.738 201.729V198.705C234.738 198.479 234.697 198.283 234.615 198.119C234.533 197.955 234.408 197.828 234.24 197.738C234.076 197.648 233.869 197.604 233.619 197.604C233.389 197.604 233.189 197.643 233.021 197.721C232.854 197.799 232.723 197.904 232.629 198.037C232.535 198.17 232.488 198.32 232.488 198.488H231.082C231.082 198.238 231.143 197.996 231.264 197.762C231.385 197.527 231.561 197.318 231.791 197.135C232.021 196.951 232.297 196.807 232.617 196.701C232.938 196.596 233.297 196.543 233.695 196.543C234.172 196.543 234.594 196.623 234.961 196.783C235.332 196.943 235.623 197.186 235.834 197.51C236.049 197.83 236.156 198.232 236.156 198.717V201.535C236.156 201.824 236.176 202.084 236.215 202.314C236.258 202.541 236.318 202.738 236.396 202.906V203H234.949C234.883 202.848 234.83 202.654 234.791 202.42C234.756 202.182 234.738 201.951 234.738 201.729ZM234.943 199.145L234.955 200.018H233.941C233.68 200.018 233.449 200.043 233.25 200.094C233.051 200.141 232.885 200.211 232.752 200.305C232.619 200.398 232.52 200.512 232.453 200.645C232.387 200.777 232.354 200.928 232.354 201.096C232.354 201.264 232.393 201.418 232.471 201.559C232.549 201.695 232.662 201.803 232.811 201.881C232.963 201.959 233.146 201.998 233.361 201.998C233.65 201.998 233.902 201.939 234.117 201.822C234.336 201.701 234.508 201.555 234.633 201.383C234.758 201.207 234.824 201.041 234.832 200.885L235.289 201.512C235.242 201.672 235.162 201.844 235.049 202.027C234.936 202.211 234.787 202.387 234.604 202.555C234.424 202.719 234.207 202.854 233.953 202.959C233.703 203.064 233.414 203.117 233.086 203.117C232.672 203.117 232.303 203.035 231.979 202.871C231.654 202.703 231.4 202.479 231.217 202.197C231.033 201.912 230.941 201.59 230.941 201.23C230.941 200.895 231.004 200.598 231.129 200.34C231.258 200.078 231.445 199.859 231.691 199.684C231.941 199.508 232.246 199.375 232.605 199.285C232.965 199.191 233.375 199.145 233.836 199.145H234.943Z" fill="#7A7A88"/>
<path d="M46.8618 254.858C46.8542 254.794 46.8395 254.73 46.8179 254.669V254.606C46.7827 254.534 46.7357 254.468 46.6788 254.41V254.41L42.2855 250.21C42.2249 250.156 42.1557 250.111 42.0804 250.077H42.0145C41.9402 250.036 41.858 250.01 41.7729 250H37.343C36.7604 250 36.2017 250.221 35.7897 250.615C35.3778 251.009 35.1464 251.543 35.1464 252.1V261.9C35.1464 262.457 35.3778 262.991 35.7897 263.385C36.2017 263.779 36.7604 264 37.343 264H44.6652C45.2478 264 45.8065 263.779 46.2184 263.385C46.6304 262.991 46.8618 262.457 46.8618 261.9V254.9C46.8618 254.9 46.8618 254.9 46.8618 254.858ZM42.4685 252.387L44.365 254.2H43.2007C43.0065 254.2 42.8203 254.126 42.683 253.995C42.5457 253.864 42.4685 253.686 42.4685 253.5V252.387ZM45.3974 261.9C45.3974 262.086 45.3202 262.264 45.1829 262.395C45.0456 262.526 44.8594 262.6 44.6652 262.6H37.343C37.1488 262.6 36.9626 262.526 36.8253 262.395C36.6879 262.264 36.6108 262.086 36.6108 261.9V252.1C36.6108 251.914 36.6879 251.736 36.8253 251.605C36.9626 251.474 37.1488 251.4 37.343 251.4H41.0041V253.5C41.0041 254.057 41.2355 254.591 41.6475 254.985C42.0594 255.379 42.6181 255.6 43.2007 255.6H45.3974V261.9Z" fill="#6D6D6F"/>
<path d="M58.5503 259.875V261H52.8315V260.033L55.6089 257.004C55.9136 256.66 56.1538 256.363 56.3296 256.113C56.5054 255.863 56.6284 255.639 56.6987 255.439C56.7729 255.236 56.8101 255.039 56.8101 254.848C56.8101 254.578 56.7593 254.342 56.6577 254.139C56.5601 253.932 56.4155 253.77 56.2241 253.652C56.0327 253.531 55.8003 253.471 55.5269 253.471C55.2104 253.471 54.9448 253.539 54.73 253.676C54.5151 253.812 54.353 254.002 54.2437 254.244C54.1343 254.482 54.0796 254.756 54.0796 255.064H52.6675C52.6675 254.568 52.7808 254.115 53.0073 253.705C53.2339 253.291 53.562 252.963 53.9917 252.721C54.4214 252.475 54.939 252.352 55.5444 252.352C56.1147 252.352 56.5991 252.447 56.9976 252.639C57.396 252.83 57.6987 253.102 57.9058 253.453C58.1167 253.805 58.2222 254.221 58.2222 254.701C58.2222 254.967 58.1792 255.23 58.0933 255.492C58.0073 255.754 57.8843 256.016 57.7241 256.277C57.5679 256.535 57.3823 256.795 57.1675 257.057C56.9526 257.314 56.7163 257.576 56.4585 257.842L54.6128 259.875H58.5503ZM65.2124 256.02V257.414C65.2124 258.082 65.146 258.652 65.0132 259.125C64.8843 259.594 64.6968 259.975 64.4507 260.268C64.2046 260.561 63.9097 260.775 63.5659 260.912C63.2261 261.049 62.8452 261.117 62.4233 261.117C62.0874 261.117 61.7749 261.074 61.4858 260.988C61.2007 260.902 60.9429 260.768 60.7124 260.584C60.4819 260.4 60.2847 260.164 60.1206 259.875C59.9604 259.582 59.8354 259.232 59.7456 258.826C59.6597 258.42 59.6167 257.949 59.6167 257.414V256.02C59.6167 255.348 59.6831 254.781 59.8159 254.32C59.9487 253.855 60.1382 253.479 60.3843 253.189C60.6304 252.896 60.9233 252.684 61.2632 252.551C61.6069 252.418 61.9897 252.352 62.4116 252.352C62.7515 252.352 63.064 252.395 63.3491 252.48C63.6382 252.562 63.896 252.693 64.1226 252.873C64.353 253.053 64.5483 253.287 64.7085 253.576C64.8726 253.861 64.9976 254.207 65.0835 254.613C65.1694 255.016 65.2124 255.484 65.2124 256.02ZM63.8003 257.613V255.809C63.8003 255.469 63.7808 255.17 63.7417 254.912C63.7026 254.65 63.644 254.43 63.5659 254.25C63.4917 254.066 63.3979 253.918 63.2847 253.805C63.1714 253.688 63.0425 253.604 62.8979 253.553C62.7534 253.498 62.5913 253.471 62.4116 253.471C62.1929 253.471 61.9976 253.514 61.8257 253.6C61.6538 253.682 61.5093 253.814 61.3921 253.998C61.2749 254.182 61.1851 254.424 61.1226 254.725C61.064 255.021 61.0347 255.383 61.0347 255.809V257.613C61.0347 257.957 61.0542 258.26 61.0933 258.521C61.1323 258.783 61.1909 259.008 61.269 259.195C61.3472 259.379 61.4409 259.531 61.5503 259.652C61.6636 259.77 61.7925 259.855 61.937 259.91C62.0854 259.965 62.2476 259.992 62.4233 259.992C62.646 259.992 62.8433 259.949 63.0151 259.863C63.187 259.777 63.3315 259.641 63.4487 259.453C63.5659 259.262 63.6538 259.014 63.7124 258.709C63.771 258.404 63.8003 258.039 63.8003 257.613Z" fill="#6D6D6F"/>
<path d="M134.911 259.887H135.029C135.568 259.887 136.017 259.816 136.376 259.676C136.74 259.531 137.029 259.332 137.243 259.078C137.458 258.824 137.613 258.525 137.706 258.182C137.8 257.838 137.847 257.465 137.847 257.062V255.592C137.847 255.244 137.81 254.939 137.736 254.678C137.665 254.412 137.564 254.191 137.431 254.016C137.302 253.836 137.152 253.701 136.98 253.611C136.812 253.521 136.63 253.477 136.435 253.477C136.22 253.477 136.027 253.525 135.855 253.623C135.687 253.717 135.544 253.848 135.427 254.016C135.314 254.18 135.226 254.373 135.163 254.596C135.105 254.814 135.075 255.049 135.075 255.299C135.075 255.533 135.103 255.76 135.157 255.979C135.216 256.193 135.302 256.385 135.415 256.553C135.529 256.721 135.671 256.854 135.843 256.951C136.015 257.049 136.216 257.098 136.447 257.098C136.665 257.098 136.866 257.057 137.05 256.975C137.234 256.889 137.394 256.773 137.531 256.629C137.667 256.484 137.775 256.322 137.853 256.143C137.931 255.963 137.974 255.779 137.982 255.592L138.521 255.756C138.521 256.053 138.458 256.346 138.333 256.635C138.212 256.92 138.042 257.182 137.823 257.42C137.609 257.654 137.357 257.842 137.068 257.982C136.782 258.123 136.472 258.193 136.136 258.193C135.73 258.193 135.37 258.117 135.058 257.965C134.749 257.809 134.491 257.598 134.284 257.332C134.081 257.066 133.929 256.762 133.827 256.418C133.726 256.074 133.675 255.713 133.675 255.334C133.675 254.924 133.738 254.539 133.863 254.18C133.988 253.82 134.169 253.504 134.407 253.23C134.646 252.953 134.935 252.738 135.275 252.586C135.618 252.43 136.007 252.352 136.441 252.352C136.902 252.352 137.306 252.441 137.654 252.621C138.001 252.801 138.294 253.049 138.532 253.365C138.771 253.682 138.95 254.049 139.072 254.467C139.193 254.885 139.253 255.334 139.253 255.814V256.312C139.253 256.816 139.208 257.303 139.118 257.771C139.029 258.236 138.882 258.668 138.679 259.066C138.48 259.461 138.216 259.809 137.888 260.109C137.564 260.406 137.165 260.639 136.693 260.807C136.224 260.971 135.673 261.053 135.04 261.053H134.911V259.887Z" fill="#6D6D6F"/>
<path d="M214.246 256.096H215.09C215.418 256.096 215.689 256.039 215.904 255.926C216.123 255.812 216.285 255.656 216.39 255.457C216.496 255.258 216.549 255.029 216.549 254.771C216.549 254.502 216.5 254.271 216.402 254.08C216.308 253.885 216.164 253.734 215.968 253.629C215.777 253.523 215.533 253.471 215.236 253.471C214.986 253.471 214.759 253.521 214.556 253.623C214.357 253.721 214.199 253.861 214.082 254.045C213.965 254.225 213.906 254.439 213.906 254.689H212.488C212.488 254.236 212.607 253.834 212.845 253.482C213.084 253.131 213.408 252.855 213.818 252.656C214.232 252.453 214.697 252.352 215.213 252.352C215.763 252.352 216.244 252.443 216.654 252.627C217.068 252.807 217.39 253.076 217.621 253.436C217.851 253.795 217.966 254.24 217.966 254.771C217.966 255.014 217.91 255.26 217.797 255.51C217.683 255.76 217.515 255.988 217.293 256.195C217.07 256.398 216.793 256.564 216.461 256.693C216.129 256.818 215.744 256.881 215.306 256.881H214.246V256.096ZM214.246 257.197V256.424H215.306C215.806 256.424 216.232 256.482 216.584 256.6C216.939 256.717 217.228 256.879 217.451 257.086C217.674 257.289 217.836 257.521 217.937 257.783C218.043 258.045 218.095 258.322 218.095 258.615C218.095 259.014 218.023 259.369 217.879 259.682C217.738 259.99 217.537 260.252 217.275 260.467C217.013 260.682 216.707 260.844 216.355 260.953C216.008 261.062 215.629 261.117 215.218 261.117C214.851 261.117 214.5 261.066 214.164 260.965C213.828 260.863 213.527 260.713 213.261 260.514C212.996 260.311 212.785 260.059 212.629 259.758C212.476 259.453 212.4 259.102 212.4 258.703H213.812C213.812 258.957 213.871 259.182 213.988 259.377C214.109 259.568 214.277 259.719 214.492 259.828C214.711 259.938 214.961 259.992 215.242 259.992C215.539 259.992 215.795 259.939 216.009 259.834C216.224 259.729 216.388 259.572 216.502 259.365C216.619 259.158 216.677 258.908 216.677 258.615C216.677 258.283 216.613 258.014 216.484 257.807C216.355 257.6 216.172 257.447 215.933 257.35C215.695 257.248 215.414 257.197 215.09 257.197H214.246ZM224.968 256.02V257.414C224.968 258.082 224.902 258.652 224.769 259.125C224.64 259.594 224.453 259.975 224.207 260.268C223.961 260.561 223.666 260.775 223.322 260.912C222.982 261.049 222.601 261.117 222.179 261.117C221.843 261.117 221.531 261.074 221.242 260.988C220.957 260.902 220.699 260.768 220.468 260.584C220.238 260.4 220.041 260.164 219.877 259.875C219.716 259.582 219.591 259.232 219.502 258.826C219.416 258.42 219.373 257.949 219.373 257.414V256.02C219.373 255.348 219.439 254.781 219.572 254.32C219.705 253.855 219.894 253.479 220.14 253.189C220.386 252.896 220.679 252.684 221.019 252.551C221.363 252.418 221.746 252.352 222.168 252.352C222.508 252.352 222.82 252.395 223.105 252.48C223.394 252.562 223.652 252.693 223.879 252.873C224.109 253.053 224.304 253.287 224.465 253.576C224.629 253.861 224.754 254.207 224.84 254.613C224.925 255.016 224.968 255.484 224.968 256.02ZM223.556 257.613V255.809C223.556 255.469 223.537 255.17 223.498 254.912C223.459 254.65 223.4 254.43 223.322 254.25C223.248 254.066 223.154 253.918 223.041 253.805C222.927 253.688 222.799 253.604 222.654 253.553C222.509 253.498 222.347 253.471 222.168 253.471C221.949 253.471 221.754 253.514 221.582 253.6C221.41 253.682 221.265 253.814 221.148 253.998C221.031 254.182 220.941 254.424 220.879 254.725C220.82 255.021 220.791 255.383 220.791 255.809V257.613C220.791 257.957 220.81 258.26 220.849 258.521C220.888 258.783 220.947 259.008 221.025 259.195C221.103 259.379 221.197 259.531 221.306 259.652C221.42 259.77 221.549 259.855 221.693 259.91C221.841 259.965 222.004 259.992 222.179 259.992C222.402 259.992 222.599 259.949 222.771 259.863C222.943 259.777 223.088 259.641 223.205 259.453C223.322 259.262 223.41 259.014 223.468 258.709C223.527 258.404 223.556 258.039 223.556 257.613Z" fill="#6D6D6F"/>
<path d="M193.098 257.181C193.566 256.801 193.942 256.33 194.199 255.802C194.456 255.273 194.589 254.699 194.589 254.118C194.589 253.026 194.127 251.978 193.305 251.206C192.482 250.434 191.367 250 190.204 250C189.041 250 187.925 250.434 187.103 251.206C186.28 251.978 185.818 253.026 185.818 254.118C185.818 254.699 185.951 255.273 186.209 255.802C186.466 256.33 186.841 256.801 187.309 257.181C186.082 257.703 185.04 258.546 184.309 259.609C183.578 260.673 183.188 261.911 183.187 263.176C183.187 263.395 183.279 263.604 183.444 263.759C183.608 263.913 183.831 264 184.064 264C184.297 264 184.52 263.913 184.684 263.759C184.849 263.604 184.941 263.395 184.941 263.176C184.941 261.866 185.496 260.609 186.483 259.683C187.469 258.756 188.808 258.235 190.204 258.235C191.599 258.235 192.938 258.756 193.925 259.683C194.912 260.609 195.466 261.866 195.466 263.176C195.466 263.395 195.559 263.604 195.723 263.759C195.888 263.913 196.111 264 196.343 264C196.576 264 196.799 263.913 196.964 263.759C197.128 263.604 197.22 263.395 197.22 263.176C197.219 261.911 196.83 260.673 196.099 259.609C195.368 258.546 194.326 257.703 193.098 257.181V257.181ZM190.204 256.588C189.683 256.588 189.175 256.443 188.742 256.172C188.309 255.9 187.972 255.515 187.773 255.063C187.574 254.612 187.522 254.115 187.623 253.636C187.725 253.156 187.975 252.716 188.343 252.371C188.711 252.025 189.18 251.79 189.69 251.695C190.201 251.599 190.73 251.648 191.211 251.835C191.691 252.022 192.102 252.339 192.392 252.745C192.681 253.151 192.835 253.629 192.835 254.118C192.835 254.773 192.558 255.401 192.064 255.865C191.571 256.328 190.902 256.588 190.204 256.588ZM198.747 256.852C199.308 256.258 199.675 255.525 199.802 254.741C199.93 253.956 199.814 253.153 199.467 252.429C199.121 251.705 198.559 251.091 197.849 250.66C197.139 250.229 196.312 250 195.466 250C195.234 250 195.011 250.087 194.846 250.241C194.682 250.396 194.589 250.605 194.589 250.824C194.589 251.042 194.682 251.251 194.846 251.406C195.011 251.56 195.234 251.647 195.466 251.647C196.164 251.647 196.833 251.907 197.327 252.371C197.82 252.834 198.098 253.462 198.098 254.118C198.096 254.55 197.974 254.975 197.743 255.349C197.512 255.723 197.181 256.034 196.782 256.251C196.652 256.321 196.543 256.422 196.467 256.543C196.39 256.664 196.347 256.801 196.343 256.942C196.34 257.082 196.374 257.221 196.443 257.344C196.512 257.468 196.614 257.574 196.738 257.651L197.08 257.865L197.194 257.922C198.251 258.393 199.143 259.138 199.765 260.069C200.386 261 200.712 262.078 200.703 263.176C200.703 263.395 200.795 263.604 200.959 263.759C201.124 263.913 201.347 264 201.58 264C201.812 264 202.035 263.913 202.2 263.759C202.364 263.604 202.457 263.395 202.457 263.176C202.464 261.913 202.127 260.668 201.477 259.561C200.828 258.454 199.888 257.522 198.747 256.852V256.852Z" fill="#6D6D6F"/>
<rect x="88.3984" y="250" width="1.06504" height="14" fill="#EFEFEF"/>
<rect x="161.886" y="250" width="1.06504" height="14" fill="#EFEFEF"/>
<path d="M125.616 251.154C125.529 251.088 125.428 251.042 125.319 251.017C125.211 250.993 125.098 250.992 124.989 251.014C124.192 251.171 123.37 251.173 122.572 251.02C121.774 250.867 121.018 250.562 120.351 250.125C120.226 250.044 120.077 250 119.925 250C119.774 250 119.625 250.044 119.5 250.125C118.833 250.562 118.077 250.867 117.279 251.02C116.481 251.173 115.659 251.171 114.862 251.014C114.753 250.992 114.64 250.993 114.532 251.017C114.423 251.042 114.322 251.088 114.235 251.154C114.149 251.22 114.079 251.303 114.031 251.398C113.984 251.492 113.959 251.596 113.959 251.7V256.917C113.959 257.921 114.213 258.911 114.703 259.803C115.192 260.696 115.901 261.466 116.771 262.05L119.493 263.87C119.619 263.955 119.77 264 119.925 264C120.08 264 120.232 263.955 120.358 263.87L123.08 262.05C123.95 261.466 124.659 260.696 125.148 259.803C125.637 258.911 125.892 257.921 125.892 256.917V251.7C125.892 251.596 125.867 251.492 125.82 251.398C125.772 251.303 125.702 251.22 125.616 251.154ZM124.4 256.917C124.401 257.698 124.203 258.467 123.823 259.161C123.442 259.855 122.891 260.454 122.215 260.908L119.925 262.442L117.636 260.908C116.96 260.454 116.408 259.855 116.028 259.161C115.648 258.467 115.45 257.698 115.451 256.917V252.506C117.014 252.631 118.58 252.291 119.925 251.532C121.271 252.291 122.837 252.631 124.4 252.506V256.917ZM121.074 255.314L119.068 257.204L118.404 256.574C118.264 256.442 118.073 256.368 117.875 256.368C117.676 256.368 117.486 256.442 117.345 256.574C117.205 256.706 117.126 256.885 117.126 257.071C117.126 257.258 117.205 257.436 117.345 257.568L118.538 258.689C118.608 258.754 118.69 258.806 118.781 258.842C118.872 258.877 118.969 258.896 119.068 258.896C119.166 258.896 119.264 258.877 119.355 258.842C119.446 258.806 119.528 258.754 119.597 258.689L122.163 256.301C122.303 256.169 122.382 255.99 122.382 255.804C122.382 255.617 122.303 255.438 122.163 255.307C122.022 255.175 121.832 255.101 121.633 255.101C121.435 255.101 121.244 255.175 121.104 255.307L121.074 255.314Z" fill="#6D6D6F"/>
<rect x="19.1707" y="279" width="221.528" height="7" rx="3.5" fill="#F2F2F2"/>
<rect x="19" y="279" width="114" height="7" rx="3.5" fill="#3C3D44"/>
<path d="M25.0769 305.223H26.5417C26.4949 305.781 26.3386 306.279 26.073 306.717C25.8074 307.15 25.4343 307.492 24.9539 307.742C24.4734 307.992 23.8894 308.117 23.2019 308.117C22.6746 308.117 22.2 308.023 21.7781 307.836C21.3562 307.645 20.9949 307.375 20.6941 307.027C20.3933 306.676 20.1628 306.252 20.0027 305.756C19.8464 305.26 19.7683 304.705 19.7683 304.092V303.383C19.7683 302.77 19.8484 302.215 20.0085 301.719C20.1726 301.223 20.407 300.799 20.7117 300.447C21.0164 300.092 21.3816 299.82 21.8074 299.633C22.2371 299.445 22.7195 299.352 23.2546 299.352C23.9343 299.352 24.5085 299.477 24.9773 299.727C25.446 299.977 25.8093 300.322 26.0671 300.764C26.3289 301.205 26.489 301.711 26.5476 302.281H25.0828C25.0437 301.914 24.9578 301.6 24.825 301.338C24.696 301.076 24.5046 300.877 24.2507 300.74C23.9968 300.6 23.6648 300.529 23.2546 300.529C22.9187 300.529 22.6257 300.592 22.3757 300.717C22.1257 300.842 21.9167 301.025 21.7488 301.268C21.5808 301.51 21.4539 301.809 21.3679 302.164C21.2859 302.516 21.2449 302.918 21.2449 303.371V304.092C21.2449 304.521 21.282 304.912 21.3562 305.264C21.4343 305.611 21.5515 305.91 21.7078 306.16C21.8679 306.41 22.071 306.604 22.3171 306.74C22.5632 306.877 22.8582 306.945 23.2019 306.945C23.6199 306.945 23.9578 306.879 24.2156 306.746C24.4773 306.613 24.6746 306.42 24.8074 306.166C24.9441 305.908 25.0339 305.594 25.0769 305.223ZM27.4675 304.9V304.766C27.4675 304.309 27.5339 303.885 27.6667 303.494C27.7996 303.1 27.991 302.758 28.241 302.469C28.4949 302.176 28.8035 301.949 29.1667 301.789C29.5339 301.625 29.948 301.543 30.4089 301.543C30.8738 301.543 31.2878 301.625 31.6511 301.789C32.0183 301.949 32.3289 302.176 32.5828 302.469C32.8367 302.758 33.03 303.1 33.1628 303.494C33.2957 303.885 33.3621 304.309 33.3621 304.766V304.9C33.3621 305.357 33.2957 305.781 33.1628 306.172C33.03 306.562 32.8367 306.904 32.5828 307.197C32.3289 307.486 32.0203 307.713 31.657 307.877C31.2937 308.037 30.8816 308.117 30.4207 308.117C29.9558 308.117 29.5398 308.037 29.1726 307.877C28.8093 307.713 28.5007 307.486 28.2468 307.197C27.9929 306.904 27.7996 306.562 27.6667 306.172C27.5339 305.781 27.4675 305.357 27.4675 304.9ZM28.8796 304.766V304.9C28.8796 305.186 28.9089 305.455 28.9675 305.709C29.0261 305.963 29.1179 306.186 29.2429 306.377C29.3679 306.568 29.5281 306.719 29.7234 306.828C29.9187 306.938 30.1511 306.992 30.4207 306.992C30.6824 306.992 30.9089 306.938 31.1003 306.828C31.2957 306.719 31.4558 306.568 31.5808 306.377C31.7058 306.186 31.7976 305.963 31.8562 305.709C31.9187 305.455 31.95 305.186 31.95 304.9V304.766C31.95 304.484 31.9187 304.219 31.8562 303.969C31.7976 303.715 31.7039 303.49 31.575 303.295C31.45 303.1 31.2898 302.947 31.0945 302.838C30.9031 302.725 30.6746 302.668 30.4089 302.668C30.1433 302.668 29.9128 302.725 29.7175 302.838C29.5261 302.947 29.3679 303.1 29.2429 303.295C29.1179 303.49 29.0261 303.715 28.9675 303.969C28.9089 304.219 28.8796 304.484 28.8796 304.766ZM35.9578 302.949V308H34.5457V301.66H35.8757L35.9578 302.949ZM35.7292 304.596L35.2488 304.59C35.2488 304.152 35.3035 303.748 35.4128 303.377C35.5222 303.006 35.6824 302.684 35.8933 302.41C36.1042 302.133 36.366 301.92 36.6785 301.771C36.9949 301.619 37.3601 301.543 37.7742 301.543C38.0632 301.543 38.3269 301.586 38.5652 301.672C38.8074 301.754 39.0164 301.885 39.1921 302.064C39.3718 302.244 39.5085 302.475 39.6023 302.756C39.7 303.037 39.7488 303.377 39.7488 303.775V308H38.3367V303.898C38.3367 303.59 38.2898 303.348 38.196 303.172C38.1062 302.996 37.9753 302.871 37.8035 302.797C37.6355 302.719 37.4343 302.68 37.2 302.68C36.9343 302.68 36.7078 302.73 36.5203 302.832C36.3367 302.934 36.1863 303.072 36.0691 303.248C35.9519 303.424 35.866 303.627 35.8113 303.857C35.7566 304.088 35.7292 304.334 35.7292 304.596ZM39.6609 304.221L38.9988 304.367C38.9988 303.984 39.0515 303.623 39.157 303.283C39.2664 302.939 39.4246 302.639 39.6316 302.381C39.8425 302.119 40.1023 301.914 40.4109 301.766C40.7195 301.617 41.073 301.543 41.4714 301.543C41.7957 301.543 42.0847 301.588 42.3386 301.678C42.5964 301.764 42.8152 301.9 42.9949 302.088C43.1746 302.275 43.3113 302.52 43.405 302.82C43.4988 303.117 43.5457 303.477 43.5457 303.898V308H42.1277V303.893C42.1277 303.572 42.0808 303.324 41.9871 303.148C41.8972 302.973 41.7683 302.852 41.6003 302.785C41.4324 302.715 41.2312 302.68 40.9968 302.68C40.7781 302.68 40.5847 302.721 40.4167 302.803C40.2527 302.881 40.114 302.992 40.0007 303.137C39.8875 303.277 39.8015 303.439 39.7429 303.623C39.6882 303.807 39.6609 304.006 39.6609 304.221ZM46.4167 302.879V310.438H45.0046V301.66H46.3054L46.4167 302.879ZM50.5476 304.771V304.895C50.5476 305.355 50.4929 305.783 50.3835 306.178C50.2781 306.568 50.1199 306.91 49.9089 307.203C49.7019 307.492 49.446 307.717 49.1414 307.877C48.8367 308.037 48.4851 308.117 48.0867 308.117C47.6921 308.117 47.3464 308.045 47.0496 307.9C46.7566 307.752 46.5085 307.543 46.3054 307.273C46.1023 307.004 45.9382 306.688 45.8132 306.324C45.6921 305.957 45.6062 305.555 45.5554 305.117V304.643C45.6062 304.178 45.6921 303.756 45.8132 303.377C45.9382 302.998 46.1023 302.672 46.3054 302.398C46.5085 302.125 46.7566 301.914 47.0496 301.766C47.3425 301.617 47.6843 301.543 48.075 301.543C48.4734 301.543 48.8269 301.621 49.1355 301.777C49.4441 301.93 49.7039 302.148 49.9148 302.434C50.1257 302.715 50.2839 303.055 50.3894 303.453C50.4949 303.848 50.5476 304.287 50.5476 304.771ZM49.1355 304.895V304.771C49.1355 304.479 49.1082 304.207 49.0535 303.957C48.9988 303.703 48.9128 303.48 48.7957 303.289C48.6785 303.098 48.5281 302.949 48.3445 302.844C48.1648 302.734 47.948 302.68 47.6941 302.68C47.4441 302.68 47.2292 302.723 47.0496 302.809C46.8699 302.891 46.7195 303.006 46.5984 303.154C46.4773 303.303 46.3835 303.477 46.3171 303.676C46.2507 303.871 46.2039 304.084 46.1765 304.314V305.451C46.2234 305.732 46.3035 305.99 46.4167 306.225C46.53 306.459 46.6902 306.646 46.8972 306.787C47.1082 306.924 47.3777 306.992 47.7058 306.992C47.9597 306.992 48.1765 306.938 48.3562 306.828C48.5359 306.719 48.6824 306.568 48.7957 306.377C48.9128 306.182 48.9988 305.957 49.0535 305.703C49.1082 305.449 49.1355 305.18 49.1355 304.895ZM53.2605 299V308H51.8425V299H53.2605ZM57.6023 308.117C57.1335 308.117 56.7097 308.041 56.3308 307.889C55.9558 307.732 55.6355 307.516 55.3699 307.238C55.1082 306.961 54.907 306.635 54.7664 306.26C54.6257 305.885 54.5554 305.48 54.5554 305.047V304.812C54.5554 304.316 54.6277 303.867 54.7722 303.465C54.9167 303.062 55.1179 302.719 55.3757 302.434C55.6335 302.145 55.9382 301.924 56.2898 301.771C56.6414 301.619 57.0222 301.543 57.4324 301.543C57.8855 301.543 58.282 301.619 58.6218 301.771C58.9617 301.924 59.2429 302.139 59.4656 302.416C59.6921 302.689 59.8601 303.016 59.9695 303.395C60.0828 303.773 60.1394 304.191 60.1394 304.648V305.252H55.241V304.238H58.7449V304.127C58.7371 303.873 58.6863 303.635 58.5925 303.412C58.5027 303.189 58.364 303.01 58.1765 302.873C57.989 302.736 57.739 302.668 57.4265 302.668C57.1921 302.668 56.9832 302.719 56.7996 302.82C56.6199 302.918 56.4695 303.061 56.3484 303.248C56.2273 303.436 56.1335 303.662 56.0671 303.928C56.0046 304.189 55.9734 304.484 55.9734 304.812V305.047C55.9734 305.324 56.0105 305.582 56.0847 305.82C56.1628 306.055 56.2761 306.26 56.4246 306.436C56.573 306.611 56.7527 306.75 56.9636 306.852C57.1746 306.949 57.4148 306.998 57.6843 306.998C58.0242 306.998 58.3269 306.93 58.5925 306.793C58.8582 306.656 59.0886 306.463 59.2839 306.213L60.0281 306.934C59.8914 307.133 59.7136 307.324 59.4949 307.508C59.2761 307.688 59.0085 307.834 58.6921 307.947C58.3796 308.061 58.0164 308.117 57.6023 308.117ZM64.1472 301.66V302.691H60.573V301.66H64.1472ZM61.6042 300.107H63.0164V306.248C63.0164 306.443 63.0437 306.594 63.0984 306.699C63.157 306.801 63.2371 306.869 63.3386 306.904C63.4402 306.939 63.5593 306.957 63.696 306.957C63.7937 306.957 63.8875 306.951 63.9773 306.939C64.0671 306.928 64.1394 306.916 64.1941 306.904L64.2 307.982C64.0828 308.018 63.946 308.049 63.7898 308.076C63.6375 308.104 63.4617 308.117 63.2625 308.117C62.9382 308.117 62.6511 308.061 62.4011 307.947C62.1511 307.83 61.9558 307.641 61.8152 307.379C61.6746 307.117 61.6042 306.77 61.6042 306.336V300.107ZM68.032 308.117C67.5632 308.117 67.1394 308.041 66.7605 307.889C66.3855 307.732 66.0652 307.516 65.7996 307.238C65.5378 306.961 65.3367 306.635 65.196 306.26C65.0554 305.885 64.9851 305.48 64.9851 305.047V304.812C64.9851 304.316 65.0574 303.867 65.2019 303.465C65.3464 303.062 65.5476 302.719 65.8054 302.434C66.0632 302.145 66.3679 301.924 66.7195 301.771C67.071 301.619 67.4519 301.543 67.8621 301.543C68.3152 301.543 68.7117 301.619 69.0515 301.771C69.3914 301.924 69.6726 302.139 69.8953 302.416C70.1218 302.689 70.2898 303.016 70.3992 303.395C70.5125 303.773 70.5691 304.191 70.5691 304.648V305.252H65.6707V304.238H69.1746V304.127C69.1667 303.873 69.116 303.635 69.0222 303.412C68.9324 303.189 68.7937 303.01 68.6062 302.873C68.4187 302.736 68.1687 302.668 67.8562 302.668C67.6218 302.668 67.4128 302.719 67.2292 302.82C67.0496 302.918 66.8992 303.061 66.7781 303.248C66.657 303.436 66.5632 303.662 66.4968 303.928C66.4343 304.189 66.4031 304.484 66.4031 304.812V305.047C66.4031 305.324 66.4402 305.582 66.5144 305.82C66.5925 306.055 66.7058 306.26 66.8542 306.436C67.0027 306.611 67.1824 306.75 67.3933 306.852C67.6042 306.949 67.8445 306.998 68.114 306.998C68.4539 306.998 68.7566 306.93 69.0222 306.793C69.2878 306.656 69.5183 306.463 69.7136 306.213L70.4578 306.934C70.321 307.133 70.1433 307.324 69.9246 307.508C69.7058 307.688 69.4382 307.834 69.1218 307.947C68.8093 308.061 68.446 308.117 68.032 308.117ZM75.5378 306.688V299H76.9558V308H75.6726L75.5378 306.688ZM71.4128 304.9V304.777C71.4128 304.297 71.4695 303.859 71.5828 303.465C71.696 303.066 71.8601 302.725 72.075 302.439C72.2898 302.15 72.5515 301.93 72.8601 301.777C73.1687 301.621 73.5164 301.543 73.9031 301.543C74.2859 301.543 74.6218 301.617 74.9109 301.766C75.2 301.914 75.446 302.127 75.6492 302.404C75.8523 302.678 76.0144 303.006 76.1355 303.389C76.2566 303.768 76.3425 304.189 76.3933 304.654V305.047C76.3425 305.5 76.2566 305.914 76.1355 306.289C76.0144 306.664 75.8523 306.988 75.6492 307.262C75.446 307.535 75.198 307.746 74.905 307.895C74.616 308.043 74.2781 308.117 73.8914 308.117C73.5085 308.117 73.1628 308.037 72.8542 307.877C72.5496 307.717 72.2898 307.492 72.075 307.203C71.8601 306.914 71.696 306.574 71.5828 306.184C71.4695 305.789 71.4128 305.361 71.4128 304.9ZM72.825 304.777V304.9C72.825 305.189 72.8503 305.459 72.9011 305.709C72.9558 305.959 73.0398 306.18 73.1531 306.371C73.2664 306.559 73.4128 306.707 73.5925 306.816C73.7761 306.922 73.9949 306.975 74.2488 306.975C74.5691 306.975 74.8328 306.904 75.0398 306.764C75.2468 306.623 75.4089 306.434 75.5261 306.195C75.6472 305.953 75.7292 305.684 75.7722 305.387V304.326C75.7488 304.096 75.7 303.881 75.6257 303.682C75.5554 303.482 75.4597 303.309 75.3386 303.16C75.2175 303.008 75.0671 302.891 74.8875 302.809C74.7117 302.723 74.5027 302.68 74.2605 302.68C74.0027 302.68 73.7839 302.734 73.6042 302.844C73.4246 302.953 73.2761 303.104 73.1589 303.295C73.0457 303.486 72.9617 303.709 72.907 303.963C72.8523 304.217 72.825 304.488 72.825 304.777ZM78.45 307.297C78.45 307.078 78.5242 306.895 78.6726 306.746C78.821 306.594 79.0222 306.518 79.2761 306.518C79.5339 306.518 79.7351 306.594 79.8796 306.746C80.0281 306.895 80.1023 307.078 80.1023 307.297C80.1023 307.516 80.0281 307.699 79.8796 307.848C79.7351 307.996 79.5339 308.07 79.2761 308.07C79.0222 308.07 78.821 307.996 78.6726 307.848C78.5242 307.699 78.45 307.516 78.45 307.297ZM78.4558 302.305C78.4558 302.086 78.53 301.902 78.6785 301.754C78.8269 301.602 79.0281 301.525 79.282 301.525C79.5398 301.525 79.741 301.602 79.8855 301.754C80.0339 301.902 80.1082 302.086 80.1082 302.305C80.1082 302.523 80.0339 302.707 79.8855 302.855C79.741 303.004 79.5398 303.078 79.282 303.078C79.0281 303.078 78.8269 303.004 78.6785 302.855C78.53 302.707 78.4558 302.523 78.4558 302.305ZM85.9851 304.033L84.8601 303.758L85.323 299.469H89.9226V300.664H86.4949L86.2605 302.756C86.3933 302.678 86.5769 302.602 86.8113 302.527C87.0457 302.449 87.3132 302.41 87.614 302.41C88.0164 302.41 88.3757 302.477 88.6921 302.609C89.0125 302.738 89.2839 302.928 89.5066 303.178C89.7292 303.424 89.8992 303.725 90.0164 304.08C90.1335 304.432 90.1921 304.828 90.1921 305.27C90.1921 305.664 90.1335 306.033 90.0164 306.377C89.9031 306.721 89.7312 307.023 89.5007 307.285C89.2703 307.547 88.9792 307.752 88.6277 307.9C88.28 308.045 87.8679 308.117 87.3914 308.117C87.0359 308.117 86.6941 308.066 86.366 307.965C86.0417 307.859 85.7507 307.705 85.4929 307.502C85.2351 307.295 85.0281 307.041 84.8718 306.74C84.7156 306.436 84.6257 306.086 84.6023 305.691H85.9851C86.0203 305.969 86.0964 306.205 86.2136 306.4C86.3347 306.592 86.4949 306.738 86.6941 306.84C86.8933 306.941 87.1238 306.992 87.3855 306.992C87.6238 306.992 87.8289 306.951 88.0007 306.869C88.1726 306.783 88.3152 306.662 88.4285 306.506C88.5457 306.346 88.6316 306.158 88.6863 305.943C88.7449 305.729 88.7742 305.49 88.7742 305.229C88.7742 304.979 88.741 304.75 88.6746 304.543C88.6121 304.336 88.5164 304.156 88.3875 304.004C88.2625 303.852 88.1042 303.734 87.9128 303.652C87.7214 303.566 87.5007 303.523 87.2507 303.523C86.9148 303.523 86.657 303.572 86.4773 303.67C86.3015 303.768 86.1375 303.889 85.9851 304.033ZM96.8835 303.02V304.414C96.8835 305.082 96.8171 305.652 96.6843 306.125C96.5554 306.594 96.3679 306.975 96.1218 307.268C95.8757 307.561 95.5808 307.775 95.2371 307.912C94.8972 308.049 94.5164 308.117 94.0945 308.117C93.7585 308.117 93.446 308.074 93.157 307.988C92.8718 307.902 92.614 307.768 92.3835 307.584C92.1531 307.4 91.9558 307.164 91.7917 306.875C91.6316 306.582 91.5066 306.232 91.4167 305.826C91.3308 305.42 91.2878 304.949 91.2878 304.414V303.02C91.2878 302.348 91.3542 301.781 91.4871 301.32C91.6199 300.855 91.8093 300.479 92.0554 300.189C92.3015 299.896 92.5945 299.684 92.9343 299.551C93.2781 299.418 93.6609 299.352 94.0828 299.352C94.4226 299.352 94.7351 299.395 95.0203 299.48C95.3093 299.562 95.5671 299.693 95.7937 299.873C96.0242 300.053 96.2195 300.287 96.3796 300.576C96.5437 300.861 96.6687 301.207 96.7546 301.613C96.8406 302.016 96.8835 302.484 96.8835 303.02ZM95.4714 304.613V302.809C95.4714 302.469 95.4519 302.17 95.4128 301.912C95.3738 301.65 95.3152 301.43 95.2371 301.25C95.1628 301.066 95.0691 300.918 94.9558 300.805C94.8425 300.688 94.7136 300.604 94.5691 300.553C94.4246 300.498 94.2625 300.471 94.0828 300.471C93.864 300.471 93.6687 300.514 93.4968 300.6C93.325 300.682 93.1804 300.814 93.0632 300.998C92.946 301.182 92.8562 301.424 92.7937 301.725C92.7351 302.021 92.7058 302.383 92.7058 302.809V304.613C92.7058 304.957 92.7253 305.26 92.7644 305.521C92.8035 305.783 92.8621 306.008 92.9402 306.195C93.0183 306.379 93.1121 306.531 93.2214 306.652C93.3347 306.77 93.4636 306.855 93.6082 306.91C93.7566 306.965 93.9187 306.992 94.0945 306.992C94.3171 306.992 94.5144 306.949 94.6863 306.863C94.8582 306.777 95.0027 306.641 95.1199 306.453C95.2371 306.262 95.325 306.014 95.3835 305.709C95.4421 305.404 95.4714 305.039 95.4714 304.613ZM98.0847 301.561V301.109C98.0847 300.785 98.155 300.49 98.2957 300.225C98.4363 299.959 98.6414 299.746 98.9109 299.586C99.1804 299.426 99.5046 299.346 99.8835 299.346C100.274 299.346 100.602 299.426 100.868 299.586C101.137 299.746 101.343 299.959 101.483 300.225C101.624 300.49 101.694 300.785 101.694 301.109V301.561C101.694 301.877 101.624 302.168 101.483 302.434C101.346 302.699 101.143 302.912 100.874 303.072C100.608 303.232 100.282 303.312 99.8953 303.312C99.5125 303.312 99.1843 303.232 98.9109 303.072C98.6414 302.912 98.4363 302.699 98.2957 302.434C98.155 302.168 98.0847 301.877 98.0847 301.561ZM99.0632 301.109V301.561C99.0632 301.717 99.0925 301.865 99.1511 302.006C99.2136 302.146 99.3074 302.26 99.4324 302.346C99.5574 302.432 99.7117 302.475 99.8953 302.475C100.083 302.475 100.235 302.432 100.352 302.346C100.473 302.26 100.563 302.146 100.622 302.006C100.68 301.865 100.71 301.717 100.71 301.561V301.109C100.71 300.949 100.678 300.799 100.616 300.658C100.557 300.514 100.468 300.398 100.346 300.312C100.225 300.227 100.071 300.184 99.8835 300.184C99.7039 300.184 99.5515 300.227 99.4265 300.312C99.3054 300.398 99.2136 300.514 99.1511 300.658C99.0925 300.799 99.0632 300.949 99.0632 301.109ZM102.198 306.365V305.908C102.198 305.588 102.268 305.295 102.409 305.029C102.553 304.764 102.76 304.551 103.03 304.391C103.3 304.23 103.624 304.15 104.003 304.15C104.393 304.15 104.721 304.23 104.987 304.391C105.257 304.551 105.46 304.764 105.596 305.029C105.737 305.295 105.807 305.588 105.807 305.908V306.365C105.807 306.686 105.737 306.979 105.596 307.244C105.46 307.51 105.259 307.723 104.993 307.883C104.727 308.043 104.403 308.123 104.02 308.123C103.634 308.123 103.303 308.043 103.03 307.883C102.76 307.723 102.553 307.51 102.409 307.244C102.268 306.979 102.198 306.686 102.198 306.365ZM103.182 305.908V306.365C103.182 306.521 103.214 306.67 103.276 306.811C103.343 306.951 103.438 307.066 103.563 307.156C103.688 307.242 103.839 307.285 104.014 307.285C104.214 307.285 104.374 307.242 104.495 307.156C104.616 307.066 104.702 306.953 104.753 306.816C104.807 306.676 104.835 306.525 104.835 306.365V305.908C104.835 305.748 104.803 305.598 104.741 305.457C104.682 305.316 104.591 305.203 104.466 305.117C104.344 305.031 104.19 304.988 104.003 304.988C103.819 304.988 103.667 305.031 103.546 305.117C103.425 305.203 103.333 305.316 103.27 305.457C103.212 305.598 103.182 305.748 103.182 305.908ZM104.354 300.688L100.188 307.355L99.4675 306.939L103.634 300.271L104.354 300.688Z" fill="#9A9FA5"/>
<path d="M184.403 308H182.58L182.592 306.834H184.403C184.93 306.834 185.371 306.719 185.727 306.488C186.086 306.258 186.356 305.928 186.535 305.498C186.719 305.068 186.811 304.557 186.811 303.963V303.5C186.811 303.039 186.758 302.631 186.653 302.275C186.551 301.92 186.399 301.621 186.196 301.379C185.996 301.137 185.75 300.953 185.457 300.828C185.168 300.703 184.834 300.641 184.455 300.641H182.545V299.469H184.455C185.022 299.469 185.539 299.564 186.008 299.756C186.477 299.943 186.881 300.215 187.221 300.57C187.565 300.926 187.828 301.352 188.012 301.848C188.196 302.344 188.287 302.898 188.287 303.512V303.963C188.287 304.576 188.196 305.131 188.012 305.627C187.828 306.123 187.565 306.549 187.221 306.904C186.877 307.256 186.467 307.527 185.991 307.719C185.518 307.906 184.989 308 184.403 308ZM183.395 299.469V308H181.924V299.469H183.395ZM193.198 306.729V303.705C193.198 303.479 193.157 303.283 193.075 303.119C192.992 302.955 192.867 302.828 192.7 302.738C192.535 302.648 192.328 302.604 192.078 302.604C191.848 302.604 191.649 302.643 191.481 302.721C191.313 302.799 191.182 302.904 191.088 303.037C190.994 303.17 190.948 303.32 190.948 303.488H189.541C189.541 303.238 189.602 302.996 189.723 302.762C189.844 302.527 190.02 302.318 190.25 302.135C190.481 301.951 190.756 301.807 191.076 301.701C191.397 301.596 191.756 301.543 192.155 301.543C192.631 301.543 193.053 301.623 193.42 301.783C193.791 301.943 194.082 302.186 194.293 302.51C194.508 302.83 194.616 303.232 194.616 303.717V306.535C194.616 306.824 194.635 307.084 194.674 307.314C194.717 307.541 194.778 307.738 194.856 307.906V308H193.409C193.342 307.848 193.289 307.654 193.25 307.42C193.215 307.182 193.198 306.951 193.198 306.729ZM193.403 304.145L193.414 305.018H192.401C192.139 305.018 191.909 305.043 191.709 305.094C191.51 305.141 191.344 305.211 191.211 305.305C191.078 305.398 190.979 305.512 190.912 305.645C190.846 305.777 190.813 305.928 190.813 306.096C190.813 306.264 190.852 306.418 190.93 306.559C191.008 306.695 191.121 306.803 191.27 306.881C191.422 306.959 191.606 306.998 191.821 306.998C192.11 306.998 192.362 306.939 192.576 306.822C192.795 306.701 192.967 306.555 193.092 306.383C193.217 306.207 193.284 306.041 193.291 305.885L193.748 306.512C193.701 306.672 193.621 306.844 193.508 307.027C193.395 307.211 193.246 307.387 193.063 307.555C192.883 307.719 192.666 307.854 192.412 307.959C192.162 308.064 191.873 308.117 191.545 308.117C191.131 308.117 190.762 308.035 190.438 307.871C190.114 307.703 189.86 307.479 189.676 307.197C189.492 306.912 189.401 306.59 189.401 306.23C189.401 305.895 189.463 305.598 189.588 305.34C189.717 305.078 189.905 304.859 190.151 304.684C190.401 304.508 190.705 304.375 191.065 304.285C191.424 304.191 191.834 304.145 192.295 304.145H193.403ZM197.838 307.309L199.561 301.66H201.073L198.53 308.967C198.471 309.123 198.395 309.293 198.301 309.477C198.207 309.66 198.084 309.834 197.932 309.998C197.784 310.166 197.598 310.301 197.375 310.402C197.153 310.508 196.883 310.561 196.567 310.561C196.442 310.561 196.321 310.549 196.203 310.525C196.09 310.506 195.983 310.484 195.881 310.461L195.875 309.383C195.914 309.387 195.961 309.391 196.016 309.395C196.075 309.398 196.121 309.4 196.157 309.4C196.391 309.4 196.586 309.371 196.742 309.312C196.899 309.258 197.026 309.168 197.123 309.043C197.225 308.918 197.311 308.75 197.381 308.539L197.838 307.309ZM196.866 301.66L198.371 306.406L198.623 307.895L197.645 308.146L195.342 301.66H196.866ZM205.438 306.283C205.438 306.143 205.403 306.016 205.332 305.902C205.262 305.785 205.127 305.68 204.928 305.586C204.733 305.492 204.444 305.406 204.061 305.328C203.725 305.254 203.416 305.166 203.135 305.064C202.858 304.959 202.619 304.832 202.42 304.684C202.221 304.535 202.067 304.359 201.957 304.156C201.848 303.953 201.793 303.719 201.793 303.453C201.793 303.195 201.85 302.951 201.963 302.721C202.076 302.49 202.239 302.287 202.45 302.111C202.66 301.936 202.916 301.797 203.217 301.695C203.522 301.594 203.862 301.543 204.237 301.543C204.768 301.543 205.223 301.633 205.602 301.812C205.985 301.988 206.278 302.229 206.481 302.533C206.684 302.834 206.785 303.174 206.785 303.553H205.373C205.373 303.385 205.33 303.229 205.244 303.084C205.162 302.936 205.037 302.816 204.869 302.727C204.701 302.633 204.491 302.586 204.237 302.586C203.994 302.586 203.793 302.625 203.633 302.703C203.477 302.777 203.36 302.875 203.282 302.996C203.207 303.117 203.17 303.25 203.17 303.395C203.17 303.5 203.19 303.596 203.229 303.682C203.272 303.764 203.342 303.84 203.44 303.91C203.537 303.977 203.67 304.039 203.838 304.098C204.01 304.156 204.225 304.213 204.483 304.268C204.967 304.369 205.383 304.5 205.731 304.66C206.082 304.816 206.352 305.02 206.539 305.27C206.727 305.516 206.821 305.828 206.821 306.207C206.821 306.488 206.76 306.746 206.639 306.98C206.522 307.211 206.35 307.412 206.123 307.584C205.897 307.752 205.625 307.883 205.309 307.977C204.996 308.07 204.645 308.117 204.254 308.117C203.68 308.117 203.194 308.016 202.795 307.812C202.397 307.605 202.094 307.342 201.887 307.021C201.684 306.697 201.582 306.361 201.582 306.014H202.948C202.963 306.275 203.035 306.484 203.164 306.641C203.297 306.793 203.461 306.904 203.657 306.975C203.856 307.041 204.061 307.074 204.272 307.074C204.526 307.074 204.739 307.041 204.91 306.975C205.082 306.904 205.213 306.811 205.303 306.693C205.393 306.572 205.438 306.436 205.438 306.283ZM208.075 307.297C208.075 307.078 208.149 306.895 208.297 306.746C208.446 306.594 208.647 306.518 208.901 306.518C209.159 306.518 209.36 306.594 209.504 306.746C209.653 306.895 209.727 307.078 209.727 307.297C209.727 307.516 209.653 307.699 209.504 307.848C209.36 307.996 209.159 308.07 208.901 308.07C208.647 308.07 208.446 307.996 208.297 307.848C208.149 307.699 208.075 307.516 208.075 307.297ZM208.08 302.305C208.08 302.086 208.155 301.902 208.303 301.754C208.451 301.602 208.653 301.525 208.907 301.525C209.164 301.525 209.366 301.602 209.51 301.754C209.659 301.902 209.733 302.086 209.733 302.305C209.733 302.523 209.659 302.707 209.51 302.855C209.366 303.004 209.164 303.078 208.907 303.078C208.653 303.078 208.451 303.004 208.303 302.855C208.155 302.707 208.08 302.523 208.08 302.305ZM218.393 299.416H218.569V300.57H218.469C217.965 300.57 217.53 300.648 217.162 300.805C216.799 300.961 216.5 301.176 216.266 301.449C216.032 301.723 215.856 302.043 215.739 302.41C215.625 302.773 215.569 303.16 215.569 303.57V304.912C215.569 305.252 215.606 305.553 215.68 305.814C215.754 306.072 215.858 306.289 215.991 306.465C216.127 306.637 216.284 306.768 216.459 306.857C216.635 306.947 216.825 306.992 217.028 306.992C217.239 306.992 217.43 306.949 217.602 306.863C217.774 306.773 217.92 306.65 218.041 306.494C218.162 306.338 218.254 306.152 218.317 305.938C218.379 305.723 218.41 305.488 218.41 305.234C218.41 304.992 218.379 304.766 218.317 304.555C218.258 304.34 218.17 304.152 218.053 303.992C217.936 303.828 217.789 303.701 217.614 303.611C217.442 303.518 217.242 303.471 217.016 303.471C216.735 303.471 216.479 303.537 216.248 303.67C216.022 303.803 215.838 303.977 215.698 304.191C215.561 304.402 215.487 304.627 215.475 304.865L214.936 304.689C214.967 304.326 215.047 304 215.176 303.711C215.309 303.422 215.483 303.176 215.698 302.973C215.912 302.77 216.16 302.615 216.442 302.51C216.727 302.4 217.039 302.346 217.379 302.346C217.793 302.346 218.153 302.424 218.457 302.58C218.762 302.736 219.014 302.949 219.213 303.219C219.416 303.484 219.567 303.789 219.664 304.133C219.766 304.473 219.817 304.828 219.817 305.199C219.817 305.609 219.754 305.992 219.629 306.348C219.504 306.699 219.321 307.008 219.078 307.273C218.84 307.539 218.549 307.746 218.205 307.895C217.866 308.043 217.479 308.117 217.045 308.117C216.588 308.117 216.18 308.029 215.821 307.854C215.465 307.678 215.162 307.436 214.912 307.127C214.666 306.818 214.479 306.463 214.35 306.061C214.221 305.658 214.157 305.232 214.157 304.783V304.197C214.157 303.549 214.239 302.938 214.403 302.363C214.567 301.785 214.819 301.275 215.159 300.834C215.502 300.393 215.942 300.047 216.477 299.797C217.012 299.543 217.651 299.416 218.393 299.416ZM224.739 299.469L221.416 308.732H220.309L223.637 299.469H224.739ZM229.491 299.439V308H228.078V301.115L225.987 301.824V300.658L229.321 299.439H229.491ZM238.174 306.875V308H232.455V307.033L235.233 304.004C235.537 303.66 235.778 303.363 235.953 303.113C236.129 302.863 236.252 302.639 236.323 302.439C236.397 302.236 236.434 302.039 236.434 301.848C236.434 301.578 236.383 301.342 236.282 301.139C236.184 300.932 236.039 300.77 235.848 300.652C235.657 300.531 235.424 300.471 235.151 300.471C234.834 300.471 234.569 300.539 234.354 300.676C234.139 300.812 233.977 301.002 233.867 301.244C233.758 301.482 233.703 301.756 233.703 302.064H232.291C232.291 301.568 232.405 301.115 232.631 300.705C232.858 300.291 233.186 299.963 233.616 299.721C234.045 299.475 234.563 299.352 235.168 299.352C235.739 299.352 236.223 299.447 236.621 299.639C237.02 299.83 237.323 300.102 237.53 300.453C237.741 300.805 237.846 301.221 237.846 301.701C237.846 301.967 237.803 302.23 237.717 302.492C237.631 302.754 237.508 303.016 237.348 303.277C237.192 303.535 237.006 303.795 236.791 304.057C236.576 304.314 236.34 304.576 236.082 304.842L234.237 306.875H238.174Z" fill="#9A9FA5"/>
<rect x="19" y="19" width="91.5935" height="25" rx="12.5" fill="white"/>
<path d="M31.5867 31.1445H29.4128L29.4011 30.0723H31.2996C31.6199 30.0723 31.8914 30.0254 32.114 29.9316C32.3406 29.834 32.5125 29.6953 32.6296 29.5156C32.7468 29.332 32.8054 29.1113 32.8054 28.8535C32.8054 28.5684 32.7507 28.3359 32.6414 28.1562C32.532 27.9766 32.364 27.8457 32.1375 27.7637C31.9148 27.6816 31.6296 27.6406 31.282 27.6406H29.8582V35H28.3875V26.4688H31.282C31.7507 26.4688 32.1687 26.5137 32.5359 26.6035C32.907 26.6934 33.2214 26.834 33.4792 27.0254C33.741 27.2129 33.9382 27.4512 34.071 27.7402C34.2078 28.0293 34.2761 28.373 34.2761 28.7715C34.2761 29.123 34.1921 29.4453 34.0242 29.7383C33.8562 30.0273 33.6082 30.2637 33.28 30.4473C32.9519 30.6309 32.5437 30.7402 32.0554 30.7754L31.5867 31.1445ZM31.5222 35H28.95L29.6121 33.834H31.5222C31.8542 33.834 32.1316 33.7793 32.3542 33.6699C32.5769 33.5566 32.7429 33.4023 32.8523 33.207C32.9656 33.0078 33.0222 32.7754 33.0222 32.5098C33.0222 32.2324 32.9734 31.9922 32.8757 31.7891C32.7781 31.582 32.6238 31.4238 32.4128 31.3145C32.2019 31.2012 31.9265 31.1445 31.5867 31.1445H29.9343L29.946 30.0723H32.0964L32.4304 30.4766C32.8992 30.4922 33.2839 30.5957 33.5847 30.7871C33.8894 30.9785 34.116 31.2266 34.2644 31.5312C34.4128 31.8359 34.4871 32.1641 34.4871 32.5156C34.4871 33.0586 34.3679 33.5137 34.1296 33.8809C33.8953 34.248 33.5574 34.5273 33.116 34.7188C32.6746 34.9062 32.1433 35 31.5222 35ZM38.6238 35.1172C38.155 35.1172 37.7312 35.041 37.3523 34.8887C36.9773 34.7324 36.657 34.5156 36.3914 34.2383C36.1296 33.9609 35.9285 33.6348 35.7878 33.2598C35.6472 32.8848 35.5769 32.4805 35.5769 32.0469V31.8125C35.5769 31.3164 35.6492 30.8672 35.7937 30.4648C35.9382 30.0625 36.1394 29.7188 36.3972 29.4336C36.655 29.1445 36.9597 28.9238 37.3113 28.7715C37.6628 28.6191 38.0437 28.543 38.4539 28.543C38.907 28.543 39.3035 28.6191 39.6433 28.7715C39.9832 28.9238 40.2644 29.1387 40.4871 29.416C40.7136 29.6895 40.8816 30.0156 40.991 30.3945C41.1042 30.7734 41.1609 31.1914 41.1609 31.6484V32.252H36.2625V31.2383H39.7664V31.127C39.7585 30.873 39.7078 30.6348 39.614 30.4121C39.5242 30.1895 39.3855 30.0098 39.198 29.873C39.0105 29.7363 38.7605 29.668 38.448 29.668C38.2136 29.668 38.0046 29.7188 37.821 29.8203C37.6414 29.918 37.491 30.0605 37.3699 30.248C37.2488 30.4355 37.155 30.6621 37.0886 30.9277C37.0261 31.1895 36.9949 31.4844 36.9949 31.8125V32.0469C36.9949 32.3242 37.032 32.582 37.1062 32.8203C37.1843 33.0547 37.2976 33.2598 37.446 33.4355C37.5945 33.6113 37.7742 33.75 37.9851 33.8516C38.196 33.9492 38.4363 33.998 38.7058 33.998C39.0457 33.998 39.3484 33.9297 39.614 33.793C39.8796 33.6562 40.1101 33.4629 40.3054 33.2129L41.0496 33.9336C40.9128 34.1328 40.7351 34.3242 40.5164 34.5078C40.2976 34.6875 40.03 34.834 39.7136 34.9473C39.4011 35.0605 39.0378 35.1172 38.6238 35.1172ZM46.323 28.6602H47.6062V34.8242C47.6062 35.3945 47.4851 35.8789 47.2429 36.2773C47.0007 36.6758 46.6628 36.9785 46.2292 37.1855C45.7957 37.3965 45.2937 37.502 44.7234 37.502C44.4812 37.502 44.2117 37.4668 43.9148 37.3965C43.6218 37.3262 43.3367 37.2129 43.0593 37.0566C42.7859 36.9043 42.5574 36.7031 42.3738 36.4531L43.0359 35.6211C43.2625 35.8906 43.5125 36.0879 43.7859 36.2129C44.0593 36.3379 44.3464 36.4004 44.6472 36.4004C44.9714 36.4004 45.2468 36.3398 45.4734 36.2188C45.7039 36.1016 45.8816 35.9277 46.0066 35.6973C46.1316 35.4668 46.1941 35.1855 46.1941 34.8535V30.0957L46.323 28.6602ZM42.0164 31.9004V31.7773C42.0164 31.2969 42.075 30.8594 42.1921 30.4648C42.3093 30.0664 42.4773 29.7246 42.696 29.4395C42.9148 29.1504 43.1804 28.9297 43.4929 28.7773C43.8054 28.6211 44.1589 28.543 44.5535 28.543C44.9636 28.543 45.3132 28.6172 45.6023 28.7656C45.8953 28.9141 46.1394 29.127 46.3347 29.4043C46.53 29.6777 46.6824 30.0059 46.7917 30.3887C46.905 30.7676 46.989 31.1895 47.0437 31.6543V32.0469C46.9929 32.5 46.907 32.9141 46.7859 33.2891C46.6648 33.6641 46.5046 33.9883 46.3054 34.2617C46.1062 34.5352 45.8601 34.7461 45.5671 34.8945C45.2781 35.043 44.9363 35.1172 44.5417 35.1172C44.155 35.1172 43.8054 35.0371 43.4929 34.877C43.1843 34.7168 42.9187 34.4922 42.696 34.2031C42.4773 33.9141 42.3093 33.5742 42.1921 33.1836C42.075 32.7891 42.0164 32.3613 42.0164 31.9004ZM43.4285 31.7773V31.9004C43.4285 32.1895 43.4558 32.459 43.5105 32.709C43.5691 32.959 43.657 33.1797 43.7742 33.3711C43.8953 33.5586 44.0476 33.707 44.2312 33.8164C44.4187 33.9219 44.6394 33.9746 44.8933 33.9746C45.2253 33.9746 45.4968 33.9043 45.7078 33.7637C45.9226 33.623 46.0867 33.4336 46.2 33.1953C46.3171 32.9531 46.3992 32.6836 46.446 32.3867V31.3262C46.4226 31.0957 46.3738 30.8809 46.2996 30.6816C46.2292 30.4824 46.1335 30.3086 46.0125 30.1602C45.8914 30.0078 45.739 29.8906 45.5554 29.8086C45.3718 29.7227 45.155 29.6797 44.905 29.6797C44.6511 29.6797 44.4304 29.7344 44.2429 29.8438C44.0554 29.9531 43.9011 30.1035 43.78 30.2949C43.6628 30.4863 43.575 30.709 43.5164 30.9629C43.4578 31.2168 43.4285 31.4883 43.4285 31.7773ZM50.5828 28.6602V35H49.1648V28.6602H50.5828ZM49.071 26.9961C49.071 26.7812 49.1414 26.6035 49.282 26.4629C49.4265 26.3184 49.6257 26.2461 49.8796 26.2461C50.1296 26.2461 50.3269 26.3184 50.4714 26.4629C50.616 26.6035 50.6882 26.7812 50.6882 26.9961C50.6882 27.207 50.616 27.3828 50.4714 27.5234C50.3269 27.6641 50.1296 27.7344 49.8796 27.7344C49.6257 27.7344 49.4265 27.6641 49.282 27.5234C49.1414 27.3828 49.071 27.207 49.071 26.9961ZM53.53 30.0137V35H52.1179V28.6602H53.448L53.53 30.0137ZM53.2781 31.5957L52.821 31.5898C52.825 31.1406 52.8875 30.7285 53.0085 30.3535C53.1335 29.9785 53.3054 29.6562 53.5242 29.3867C53.7468 29.1172 54.0125 28.9102 54.321 28.7656C54.6296 28.6172 54.9734 28.543 55.3523 28.543C55.657 28.543 55.9324 28.5859 56.1785 28.6719C56.4285 28.7539 56.6414 28.8887 56.8171 29.0762C56.9968 29.2637 57.1335 29.5078 57.2273 29.8086C57.321 30.1055 57.3679 30.4707 57.3679 30.9043V35H55.95V30.8984C55.95 30.5938 55.905 30.3535 55.8152 30.1777C55.7292 29.998 55.6023 29.8711 55.4343 29.7969C55.2703 29.7188 55.0652 29.6797 54.8191 29.6797C54.5769 29.6797 54.3601 29.7305 54.1687 29.832C53.9773 29.9336 53.8152 30.0723 53.6824 30.248C53.5535 30.4238 53.4539 30.627 53.3835 30.8574C53.3132 31.0879 53.2781 31.334 53.2781 31.5957ZM60.2097 30.0137V35H58.7976V28.6602H60.1277L60.2097 30.0137ZM59.9578 31.5957L59.5007 31.5898C59.5046 31.1406 59.5671 30.7285 59.6882 30.3535C59.8132 29.9785 59.9851 29.6562 60.2039 29.3867C60.4265 29.1172 60.6921 28.9102 61.0007 28.7656C61.3093 28.6172 61.6531 28.543 62.032 28.543C62.3367 28.543 62.6121 28.5859 62.8582 28.6719C63.1082 28.7539 63.321 28.8887 63.4968 29.0762C63.6765 29.2637 63.8132 29.5078 63.907 29.8086C64.0007 30.1055 64.0476 30.4707 64.0476 30.9043V35H62.6296V30.8984C62.6296 30.5938 62.5847 30.3535 62.4949 30.1777C62.4089 29.998 62.282 29.8711 62.114 29.7969C61.95 29.7188 61.7449 29.6797 61.4988 29.6797C61.2566 29.6797 61.0398 29.7305 60.8484 29.832C60.657 29.9336 60.4949 30.0723 60.3621 30.248C60.2332 30.4238 60.1335 30.627 60.0632 30.8574C59.9929 31.0879 59.9578 31.334 59.9578 31.5957ZM68.2839 35.1172C67.8152 35.1172 67.3914 35.041 67.0125 34.8887C66.6375 34.7324 66.3171 34.5156 66.0515 34.2383C65.7898 33.9609 65.5886 33.6348 65.448 33.2598C65.3074 32.8848 65.2371 32.4805 65.2371 32.0469V31.8125C65.2371 31.3164 65.3093 30.8672 65.4539 30.4648C65.5984 30.0625 65.7996 29.7188 66.0574 29.4336C66.3152 29.1445 66.6199 28.9238 66.9714 28.7715C67.323 28.6191 67.7039 28.543 68.114 28.543C68.5671 28.543 68.9636 28.6191 69.3035 28.7715C69.6433 28.9238 69.9246 29.1387 70.1472 29.416C70.3738 29.6895 70.5417 30.0156 70.6511 30.3945C70.7644 30.7734 70.821 31.1914 70.821 31.6484V32.252H65.9226V31.2383H69.4265V31.127C69.4187 30.873 69.3679 30.6348 69.2742 30.4121C69.1843 30.1895 69.0457 30.0098 68.8582 29.873C68.6707 29.7363 68.4207 29.668 68.1082 29.668C67.8738 29.668 67.6648 29.7188 67.4812 29.8203C67.3015 29.918 67.1511 30.0605 67.03 30.248C66.9089 30.4355 66.8152 30.6621 66.7488 30.9277C66.6863 31.1895 66.655 31.4844 66.655 31.8125V32.0469C66.655 32.3242 66.6921 32.582 66.7664 32.8203C66.8445 33.0547 66.9578 33.2598 67.1062 33.4355C67.2546 33.6113 67.4343 33.75 67.6453 33.8516C67.8562 33.9492 68.0964 33.998 68.366 33.998C68.7058 33.998 69.0085 33.9297 69.2742 33.793C69.5398 33.6562 69.7703 33.4629 69.9656 33.2129L70.7097 33.9336C70.573 34.1328 70.3953 34.3242 70.1765 34.5078C69.9578 34.6875 69.6902 34.834 69.3738 34.9473C69.0613 35.0605 68.698 35.1172 68.2839 35.1172ZM73.3406 29.8672V35H71.9285V28.6602H73.2761L73.3406 29.8672ZM75.28 28.6191L75.2683 29.9316C75.1824 29.916 75.0886 29.9043 74.9871 29.8965C74.8894 29.8887 74.7917 29.8848 74.6941 29.8848C74.4519 29.8848 74.239 29.9199 74.0554 29.9902C73.8718 30.0566 73.7175 30.1543 73.5925 30.2832C73.4714 30.4082 73.3777 30.5605 73.3113 30.7402C73.2449 30.9199 73.2058 31.1211 73.1941 31.3438L72.8718 31.3672C72.8718 30.9688 72.9109 30.5996 72.989 30.2598C73.0671 29.9199 73.1843 29.6211 73.3406 29.3633C73.5007 29.1055 73.7 28.9043 73.9382 28.7598C74.1804 28.6152 74.4597 28.543 74.7761 28.543C74.8621 28.543 74.9539 28.5508 75.0515 28.5664C75.1531 28.582 75.2292 28.5996 75.28 28.6191Z" fill="#303030"/>
<rect x="88.2275" y="31" width="2.13008" height="6" fill="#FFA09C"/>
<rect x="92.4878" y="28" width="2.13008" height="9" fill="#C4C4C4"/>
<rect x="96.7479" y="25" width="2.13008" height="12" fill="#C4C4C4"/>
</svg>
