<svg width="262" height="329" viewBox="0 0 262 329" fill="none" xmlns="http://www.w3.org/2000/svg">
<rect width="262" height="329" rx="16" fill="white"/>
<rect x="9" y="8" width="243.144" height="210" rx="15" fill="#F27F3E"/>
<path d="M42.2598 83.3086V87H30.9072V83.3086H42.2598ZM32.5332 65.6719V87H27.7578V65.6719H32.5332ZM40.7949 74.2559V77.8301H30.9072V74.2559H40.7949ZM42.2744 65.6719V69.3779H30.9072V65.6719H42.2744ZM48.8516 74.5342V87H44.2666V71.1504H48.5732L48.8516 74.5342ZM48.251 78.5186L47.1084 78.5479C47.1084 77.3564 47.2549 76.2871 47.5479 75.3398C47.8408 74.3926 48.2559 73.5869 48.793 72.9229C49.3398 72.249 49.9893 71.7363 50.7412 71.3848C51.5029 71.0332 52.3428 70.8574 53.2607 70.8574C54.0029 70.8574 54.6816 70.9648 55.2969 71.1797C55.9121 71.3945 56.4395 71.7412 56.8789 72.2197C57.3281 72.6885 57.6699 73.3135 57.9043 74.0947C58.1387 74.8662 58.2559 75.8184 58.2559 76.9512V87H53.6562V76.9365C53.6562 76.2725 53.5635 75.7598 53.3779 75.3984C53.1924 75.0371 52.9189 74.7832 52.5576 74.6367C52.2061 74.4902 51.7764 74.417 51.2686 74.417C50.7314 74.417 50.2725 74.5244 49.8916 74.7393C49.5107 74.9443 49.1982 75.2324 48.9541 75.6035C48.71 75.9746 48.5293 76.4092 48.4121 76.9072C48.3047 77.4053 48.251 77.9424 48.251 78.5186ZM71.2344 71.1504H75.3945V86.4287C75.3945 87.8838 75.0625 89.1191 74.3984 90.1348C73.7441 91.1504 72.8311 91.9219 71.6592 92.4492C70.4873 92.9766 69.1152 93.2402 67.543 93.2402C66.8594 93.2402 66.1465 93.1475 65.4043 92.9619C64.6621 92.7861 63.9639 92.5176 63.3096 92.1562C62.6553 91.8047 62.1084 91.3555 61.6689 90.8086L63.6172 88.1133C64.0664 88.6211 64.6035 89.0312 65.2285 89.3438C65.8535 89.666 66.5664 89.8271 67.3672 89.8271C68.0996 89.8271 68.7197 89.6953 69.2275 89.4316C69.7354 89.168 70.1211 88.7822 70.3848 88.2744C70.6582 87.7666 70.7949 87.1514 70.7949 86.4287V74.8564L71.2344 71.1504ZM60.6436 79.2656V78.958C60.6436 77.7568 60.79 76.6631 61.083 75.6768C61.376 74.6807 61.8008 73.8262 62.3574 73.1133C62.9238 72.3906 63.6025 71.834 64.3936 71.4434C65.1943 71.0527 66.0928 70.8574 67.0889 70.8574C68.1631 70.8574 69.0518 71.0625 69.7549 71.4727C70.458 71.873 71.0293 72.4395 71.4688 73.1719C71.9082 73.8945 72.2549 74.749 72.5088 75.7354C72.7627 76.7119 72.9678 77.7715 73.124 78.9141V79.4414C72.9678 80.5352 72.7432 81.5557 72.4502 82.5029C72.1572 83.4502 71.7764 84.2852 71.3076 85.0078C70.8389 85.7207 70.2529 86.2822 69.5498 86.6924C68.8564 87.0928 68.0264 87.293 67.0596 87.293C66.0732 87.293 65.1846 87.0928 64.3936 86.6924C63.6025 86.292 62.9238 85.7305 62.3574 85.0078C61.8008 84.2852 61.376 83.4355 61.083 82.459C60.79 81.4824 60.6436 80.418 60.6436 79.2656ZM65.2139 78.958V79.2656C65.2139 79.8906 65.2725 80.4717 65.3896 81.0088C65.5166 81.5459 65.7021 82.0195 65.9463 82.4297C66.2002 82.8398 66.5127 83.1621 66.8838 83.3965C67.2646 83.6211 67.709 83.7334 68.2168 83.7334C68.959 83.7334 69.5596 83.5771 70.0186 83.2646C70.4873 82.9424 70.8291 82.498 71.0439 81.9316C71.2686 81.3652 71.3857 80.7061 71.3955 79.9541V78.416C71.3955 77.791 71.332 77.2295 71.2051 76.7314C71.0781 76.2334 70.8877 75.8135 70.6338 75.4717C70.3896 75.1299 70.0674 74.8711 69.667 74.6953C69.2764 74.5098 68.8027 74.417 68.2461 74.417C67.748 74.417 67.3086 74.5342 66.9277 74.7686C66.5469 74.9932 66.2295 75.3105 65.9756 75.7207C65.7217 76.1309 65.5312 76.6143 65.4043 77.1709C65.2773 77.7178 65.2139 78.3135 65.2139 78.958ZM86.835 83.2207V76.4238C86.835 75.9453 86.7617 75.5352 86.6152 75.1934C86.4688 74.8516 86.2393 74.583 85.9268 74.3877C85.6143 74.1924 85.209 74.0947 84.7109 74.0947C84.291 74.0947 83.9248 74.168 83.6123 74.3145C83.3096 74.4609 83.0752 74.6709 82.9092 74.9443C82.7529 75.2178 82.6748 75.5547 82.6748 75.9551H78.1045C78.1045 75.2422 78.2656 74.5781 78.5879 73.9629C78.9102 73.3477 79.3691 72.8057 79.9648 72.3369C80.5703 71.8682 81.293 71.5068 82.1328 71.2529C82.9727 70.9893 83.915 70.8574 84.96 70.8574C86.2002 70.8574 87.3037 71.0674 88.2705 71.4873C89.2471 71.8975 90.0186 72.5176 90.585 73.3477C91.1514 74.168 91.4346 75.2031 91.4346 76.4531V83.0889C91.4346 84.0459 91.4883 84.7979 91.5957 85.3447C91.7129 85.8818 91.8789 86.3506 92.0938 86.751V87H87.4795C87.2646 86.541 87.1035 85.9746 86.9961 85.3008C86.8887 84.6172 86.835 83.9238 86.835 83.2207ZM87.4062 77.332L87.4355 79.8516H85.165C84.6572 79.8516 84.2178 79.915 83.8467 80.042C83.4854 80.1689 83.1924 80.3447 82.9678 80.5693C82.7432 80.7842 82.5771 81.0381 82.4697 81.3311C82.3721 81.6143 82.3232 81.9268 82.3232 82.2686C82.3232 82.5908 82.4014 82.8838 82.5576 83.1475C82.7139 83.4014 82.9287 83.6016 83.2021 83.748C83.4756 83.8945 83.793 83.9678 84.1543 83.9678C84.75 83.9678 85.2578 83.8506 85.6777 83.6162C86.1074 83.3818 86.4395 83.0986 86.6738 82.7666C86.9082 82.4248 87.0254 82.1074 87.0254 81.8145L88.124 83.7188C87.9482 84.1094 87.7334 84.5146 87.4795 84.9346C87.2256 85.3447 86.9033 85.7305 86.5127 86.0918C86.1221 86.4434 85.6484 86.7314 85.0918 86.9561C84.5449 87.1807 83.8857 87.293 83.1143 87.293C82.1182 87.293 81.2148 87.0928 80.4043 86.6924C79.5938 86.2822 78.9443 85.7207 78.4561 85.0078C77.9775 84.2949 77.7383 83.4746 77.7383 82.5469C77.7383 81.7168 77.8896 80.9795 78.1924 80.335C78.4951 79.6904 78.9492 79.1436 79.5547 78.6943C80.1699 78.2451 80.9414 77.9082 81.8691 77.6836C82.7969 77.4492 83.8809 77.332 85.1211 77.332H87.4062ZM104.428 71.1504H108.588V86.4287C108.588 87.8838 108.256 89.1191 107.592 90.1348C106.938 91.1504 106.024 91.9219 104.853 92.4492C103.681 92.9766 102.309 93.2402 100.736 93.2402C100.053 93.2402 99.3398 93.1475 98.5977 92.9619C97.8555 92.7861 97.1572 92.5176 96.5029 92.1562C95.8486 91.8047 95.3018 91.3555 94.8623 90.8086L96.8105 88.1133C97.2598 88.6211 97.7969 89.0312 98.4219 89.3438C99.0469 89.666 99.7598 89.8271 100.561 89.8271C101.293 89.8271 101.913 89.6953 102.421 89.4316C102.929 89.168 103.314 88.7822 103.578 88.2744C103.852 87.7666 103.988 87.1514 103.988 86.4287V74.8564L104.428 71.1504ZM93.8369 79.2656V78.958C93.8369 77.7568 93.9834 76.6631 94.2764 75.6768C94.5693 74.6807 94.9941 73.8262 95.5508 73.1133C96.1172 72.3906 96.7959 71.834 97.5869 71.4434C98.3877 71.0527 99.2861 70.8574 100.282 70.8574C101.356 70.8574 102.245 71.0625 102.948 71.4727C103.651 71.873 104.223 72.4395 104.662 73.1719C105.102 73.8945 105.448 74.749 105.702 75.7354C105.956 76.7119 106.161 77.7715 106.317 78.9141V79.4414C106.161 80.5352 105.937 81.5557 105.644 82.5029C105.351 83.4502 104.97 84.2852 104.501 85.0078C104.032 85.7207 103.446 86.2822 102.743 86.6924C102.05 87.0928 101.22 87.293 100.253 87.293C99.2666 87.293 98.3779 87.0928 97.5869 86.6924C96.7959 86.292 96.1172 85.7305 95.5508 85.0078C94.9941 84.2852 94.5693 83.4355 94.2764 82.459C93.9834 81.4824 93.8369 80.418 93.8369 79.2656ZM98.4072 78.958V79.2656C98.4072 79.8906 98.4658 80.4717 98.583 81.0088C98.71 81.5459 98.8955 82.0195 99.1396 82.4297C99.3936 82.8398 99.7061 83.1621 100.077 83.3965C100.458 83.6211 100.902 83.7334 101.41 83.7334C102.152 83.7334 102.753 83.5771 103.212 83.2646C103.681 82.9424 104.022 82.498 104.237 81.9316C104.462 81.3652 104.579 80.7061 104.589 79.9541V78.416C104.589 77.791 104.525 77.2295 104.398 76.7314C104.271 76.2334 104.081 75.8135 103.827 75.4717C103.583 75.1299 103.261 74.8711 102.86 74.6953C102.47 74.5098 101.996 74.417 101.439 74.417C100.941 74.417 100.502 74.5342 100.121 74.7686C99.7402 74.9932 99.4229 75.3105 99.1689 75.7207C98.915 76.1309 98.7246 76.6143 98.5977 77.1709C98.4707 77.7178 98.4072 78.3135 98.4072 78.958ZM116.454 71.1504V87H111.869V71.1504H116.454ZM111.591 67.0488C111.591 66.3848 111.825 65.8428 112.294 65.4229C112.763 64.9932 113.378 64.7783 114.14 64.7783C114.901 64.7783 115.517 64.9932 115.985 65.4229C116.464 65.8428 116.703 66.3848 116.703 67.0488C116.703 67.7031 116.464 68.2451 115.985 68.6748C115.517 69.0947 114.901 69.3047 114.14 69.3047C113.378 69.3047 112.763 69.0947 112.294 68.6748C111.825 68.2451 111.591 67.7031 111.591 67.0488ZM124.232 74.5342V87H119.647V71.1504H123.954L124.232 74.5342ZM123.632 78.5186L122.489 78.5479C122.489 77.3564 122.636 76.2871 122.929 75.3398C123.222 74.3926 123.637 73.5869 124.174 72.9229C124.721 72.249 125.37 71.7363 126.122 71.3848C126.884 71.0332 127.724 70.8574 128.642 70.8574C129.384 70.8574 130.062 70.9648 130.678 71.1797C131.293 71.3945 131.82 71.7412 132.26 72.2197C132.709 72.6885 133.051 73.3135 133.285 74.0947C133.52 74.8662 133.637 75.8184 133.637 76.9512V87H129.037V76.9365C129.037 76.2725 128.944 75.7598 128.759 75.3984C128.573 75.0371 128.3 74.7832 127.938 74.6367C127.587 74.4902 127.157 74.417 126.649 74.417C126.112 74.417 125.653 74.5244 125.272 74.7393C124.892 74.9443 124.579 75.2324 124.335 75.6035C124.091 75.9746 123.91 76.4092 123.793 76.9072C123.686 77.4053 123.632 77.9424 123.632 78.5186ZM146.615 71.1504H150.775V86.4287C150.775 87.8838 150.443 89.1191 149.779 90.1348C149.125 91.1504 148.212 91.9219 147.04 92.4492C145.868 92.9766 144.496 93.2402 142.924 93.2402C142.24 93.2402 141.527 93.1475 140.785 92.9619C140.043 92.7861 139.345 92.5176 138.69 92.1562C138.036 91.8047 137.489 91.3555 137.05 90.8086L138.998 88.1133C139.447 88.6211 139.984 89.0312 140.609 89.3438C141.234 89.666 141.947 89.8271 142.748 89.8271C143.48 89.8271 144.101 89.6953 144.608 89.4316C145.116 89.168 145.502 88.7822 145.766 88.2744C146.039 87.7666 146.176 87.1514 146.176 86.4287V74.8564L146.615 71.1504ZM136.024 79.2656V78.958C136.024 77.7568 136.171 76.6631 136.464 75.6768C136.757 74.6807 137.182 73.8262 137.738 73.1133C138.305 72.3906 138.983 71.834 139.774 71.4434C140.575 71.0527 141.474 70.8574 142.47 70.8574C143.544 70.8574 144.433 71.0625 145.136 71.4727C145.839 71.873 146.41 72.4395 146.85 73.1719C147.289 73.8945 147.636 74.749 147.89 75.7354C148.144 76.7119 148.349 77.7715 148.505 78.9141V79.4414C148.349 80.5352 148.124 81.5557 147.831 82.5029C147.538 83.4502 147.157 84.2852 146.688 85.0078C146.22 85.7207 145.634 86.2822 144.931 86.6924C144.237 87.0928 143.407 87.293 142.44 87.293C141.454 87.293 140.565 87.0928 139.774 86.6924C138.983 86.292 138.305 85.7305 137.738 85.0078C137.182 84.2852 136.757 83.4355 136.464 82.459C136.171 81.4824 136.024 80.418 136.024 79.2656ZM140.595 78.958V79.2656C140.595 79.8906 140.653 80.4717 140.771 81.0088C140.897 81.5459 141.083 82.0195 141.327 82.4297C141.581 82.8398 141.894 83.1621 142.265 83.3965C142.646 83.6211 143.09 83.7334 143.598 83.7334C144.34 83.7334 144.94 83.5771 145.399 83.2646C145.868 82.9424 146.21 82.498 146.425 81.9316C146.649 81.3652 146.767 80.7061 146.776 79.9541V78.416C146.776 77.791 146.713 77.2295 146.586 76.7314C146.459 76.2334 146.269 75.8135 146.015 75.4717C145.771 75.1299 145.448 74.8711 145.048 74.6953C144.657 74.5098 144.184 74.417 143.627 74.417C143.129 74.417 142.689 74.5342 142.309 74.7686C141.928 74.9932 141.61 75.3105 141.356 75.7207C141.103 76.1309 140.912 76.6143 140.785 77.1709C140.658 77.7178 140.595 78.3135 140.595 78.958ZM32.1963 117.591L35.3018 106.15H38.1875L37.2061 111.248L34.1006 122H31.7422L32.1963 117.591ZM30.7754 106.15L32.8555 117.547L33.0752 122H30.2627L26.3662 106.15H30.7754ZM41 117.327L43.0654 106.15H47.4746L43.6074 122H40.7949L41 117.327ZM38.5391 106.15L41.6738 117.532L42.1279 122H39.7402L36.6641 111.263L35.7266 106.15H38.5391ZM54.2568 106.15V122H49.6719V106.15H54.2568ZM49.3936 102.049C49.3936 101.385 49.6279 100.843 50.0967 100.423C50.5654 99.9932 51.1807 99.7783 51.9424 99.7783C52.7041 99.7783 53.3193 99.9932 53.7881 100.423C54.2666 100.843 54.5059 101.385 54.5059 102.049C54.5059 102.703 54.2666 103.245 53.7881 103.675C53.3193 104.095 52.7041 104.305 51.9424 104.305C51.1807 104.305 50.5654 104.095 50.0967 103.675C49.6279 103.245 49.3936 102.703 49.3936 102.049ZM65.6094 106.15V109.358H56.2051V106.15H65.6094ZM58.3584 102.225H62.9434V117.034C62.9434 117.474 62.9971 117.811 63.1045 118.045C63.2119 118.279 63.3877 118.445 63.6318 118.543C63.876 118.631 64.1885 118.675 64.5693 118.675C64.8428 118.675 65.0771 118.665 65.2725 118.646C65.4678 118.626 65.6484 118.602 65.8145 118.572V121.883C65.4238 122.01 65.0088 122.107 64.5693 122.176C64.1299 122.254 63.6514 122.293 63.1338 122.293C62.1475 122.293 61.293 122.132 60.5703 121.81C59.8574 121.487 59.3105 120.979 58.9297 120.286C58.5488 119.583 58.3584 118.67 58.3584 117.547V102.225ZM72.2744 99.5V122H67.7041V99.5H72.2744ZM71.6738 113.519L70.5312 113.548C70.5312 112.435 70.668 111.414 70.9414 110.486C71.2246 109.549 71.625 108.733 72.1426 108.04C72.6602 107.347 73.2803 106.81 74.0029 106.429C74.7354 106.048 75.541 105.857 76.4199 105.857C77.2012 105.857 77.9141 105.97 78.5586 106.194C79.2031 106.419 79.7598 106.775 80.2285 107.264C80.6973 107.752 81.0586 108.392 81.3125 109.183C81.5664 109.974 81.6934 110.936 81.6934 112.068V122H77.0938V112.039C77.0938 111.365 76.9961 110.838 76.8008 110.457C76.6152 110.076 76.3418 109.808 75.9805 109.651C75.6289 109.495 75.1992 109.417 74.6914 109.417C74.0957 109.417 73.6025 109.524 73.2119 109.739C72.8213 109.944 72.5137 110.232 72.2891 110.604C72.0645 110.975 71.9033 111.409 71.8057 111.907C71.7178 112.405 71.6738 112.942 71.6738 113.519ZM38.8174 151.375C38.8174 151.014 38.7637 150.691 38.6562 150.408C38.5488 150.115 38.3535 149.847 38.0703 149.603C37.7871 149.358 37.3867 149.114 36.8691 148.87C36.3516 148.616 35.6729 148.357 34.833 148.094C33.876 147.781 32.9629 147.43 32.0938 147.039C31.2344 146.639 30.4678 146.175 29.7939 145.647C29.1201 145.12 28.5879 144.505 28.1973 143.802C27.8164 143.099 27.626 142.278 27.626 141.341C27.626 140.433 27.8262 139.612 28.2266 138.88C28.627 138.147 29.1885 137.522 29.9111 137.005C30.6338 136.478 31.4834 136.077 32.46 135.804C33.4365 135.521 34.5107 135.379 35.6826 135.379C37.2451 135.379 38.6172 135.657 39.7988 136.214C40.9902 136.761 41.918 137.532 42.582 138.528C43.2461 139.515 43.5781 140.662 43.5781 141.971H38.832C38.832 141.395 38.71 140.887 38.4658 140.447C38.2314 139.998 37.8701 139.646 37.3818 139.393C36.9033 139.139 36.3027 139.012 35.5801 139.012C34.877 139.012 34.2861 139.119 33.8076 139.334C33.3389 139.539 32.9824 139.822 32.7383 140.184C32.5039 140.545 32.3867 140.94 32.3867 141.37C32.3867 141.712 32.4746 142.024 32.6504 142.308C32.8359 142.581 33.0996 142.84 33.4414 143.084C33.793 143.318 34.2227 143.543 34.7305 143.758C35.2383 143.973 35.8193 144.178 36.4736 144.373C37.6162 144.734 38.627 145.135 39.5059 145.574C40.3945 146.014 41.1416 146.512 41.7471 147.068C42.3525 147.625 42.8066 148.255 43.1094 148.958C43.4219 149.661 43.5781 150.457 43.5781 151.346C43.5781 152.293 43.3926 153.133 43.0215 153.865C42.6602 154.598 42.1328 155.223 41.4395 155.74C40.7559 156.248 39.9355 156.634 38.9785 156.897C38.0215 157.161 36.9521 157.293 35.7705 157.293C34.6963 157.293 33.6367 157.156 32.5918 156.883C31.5469 156.6 30.5996 156.17 29.75 155.594C28.9102 155.018 28.2363 154.285 27.7285 153.396C27.2305 152.498 26.9814 151.434 26.9814 150.203H31.7568C31.7568 150.848 31.8496 151.395 32.0352 151.844C32.2207 152.283 32.4844 152.64 32.8262 152.913C33.1777 153.187 33.6025 153.382 34.1006 153.499C34.5986 153.616 35.1553 153.675 35.7705 153.675C36.4834 153.675 37.0596 153.577 37.499 153.382C37.9482 153.177 38.2803 152.898 38.4951 152.547C38.71 152.195 38.8174 151.805 38.8174 151.375ZM54.2129 141.15V144.358H44.8086V141.15H54.2129ZM46.9619 137.225H51.5469V152.034C51.5469 152.474 51.6006 152.811 51.708 153.045C51.8154 153.279 51.9912 153.445 52.2354 153.543C52.4795 153.631 52.792 153.675 53.1729 153.675C53.4463 153.675 53.6807 153.665 53.876 153.646C54.0713 153.626 54.252 153.602 54.418 153.572V156.883C54.0273 157.01 53.6123 157.107 53.1729 157.176C52.7334 157.254 52.2549 157.293 51.7373 157.293C50.751 157.293 49.8965 157.132 49.1738 156.81C48.4609 156.487 47.9141 155.979 47.5332 155.286C47.1523 154.583 46.9619 153.67 46.9619 152.547V137.225ZM65.7119 153.177V141.15H70.3115V157H66.0049L65.7119 153.177ZM66.1953 149.939L67.4551 149.91C67.4551 150.975 67.3281 151.956 67.0742 152.854C66.8301 153.753 66.459 154.534 65.9609 155.198C65.4727 155.862 64.8623 156.38 64.1299 156.751C63.4072 157.112 62.5625 157.293 61.5957 157.293C60.8145 157.293 60.0967 157.186 59.4424 156.971C58.7979 156.746 58.2412 156.399 57.7725 155.931C57.3037 155.452 56.9424 154.842 56.6885 154.1C56.4346 153.348 56.3076 152.449 56.3076 151.404V141.15H60.8779V151.434C60.8779 151.844 60.9268 152.195 61.0244 152.488C61.1318 152.771 61.2734 153.006 61.4492 153.191C61.6348 153.377 61.8594 153.514 62.123 153.602C62.3965 153.689 62.6943 153.733 63.0166 153.733C63.8271 153.733 64.4619 153.567 64.9209 153.235C65.3896 152.894 65.7168 152.439 65.9023 151.873C66.0977 151.297 66.1953 150.652 66.1953 149.939ZM82.5137 153.455V134.5H87.1133V157H82.9824L82.5137 153.455ZM72.6406 149.266V148.958C72.6406 147.757 72.7725 146.663 73.0361 145.677C73.3096 144.681 73.7051 143.826 74.2227 143.113C74.75 142.391 75.3994 141.834 76.1709 141.443C76.9424 141.053 77.8262 140.857 78.8223 140.857C79.7402 140.857 80.541 141.062 81.2246 141.473C81.9082 141.873 82.4893 142.439 82.9678 143.172C83.4561 143.895 83.8516 144.749 84.1543 145.735C84.457 146.712 84.6865 147.771 84.8428 148.914V149.441C84.6963 150.535 84.4668 151.556 84.1543 152.503C83.8516 153.45 83.4561 154.285 82.9678 155.008C82.4893 155.721 81.9033 156.282 81.21 156.692C80.5264 157.093 79.7207 157.293 78.793 157.293C77.7969 157.293 76.9131 157.093 76.1416 156.692C75.3799 156.292 74.7402 155.73 74.2227 155.008C73.7051 154.285 73.3096 153.436 73.0361 152.459C72.7725 151.482 72.6406 150.418 72.6406 149.266ZM77.2109 148.958V149.266C77.2109 149.891 77.2549 150.472 77.3428 151.009C77.4404 151.546 77.5967 152.02 77.8115 152.43C78.0264 152.84 78.3096 153.162 78.6611 153.396C79.0127 153.621 79.4424 153.733 79.9502 153.733C80.6338 153.733 81.1953 153.577 81.6348 153.265C82.0742 152.942 82.4062 152.498 82.6309 151.932C82.8555 151.365 82.9727 150.706 82.9824 149.954V148.416C82.9824 147.791 82.9189 147.229 82.792 146.731C82.665 146.233 82.4746 145.813 82.2207 145.472C81.9766 145.13 81.6689 144.871 81.2979 144.695C80.9268 144.51 80.4873 144.417 79.9795 144.417C79.4814 144.417 79.0566 144.534 78.7051 144.769C78.3535 144.993 78.0654 145.311 77.8408 145.721C77.626 146.131 77.4648 146.614 77.3574 147.171C77.2598 147.718 77.2109 148.313 77.2109 148.958ZM97.6309 157.293C96.3711 157.293 95.2432 157.093 94.2471 156.692C93.251 156.292 92.4062 155.74 91.7129 155.037C91.0293 154.324 90.5068 153.504 90.1455 152.576C89.7842 151.648 89.6035 150.657 89.6035 149.603V149.046C89.6035 147.864 89.7695 146.775 90.1016 145.779C90.4336 144.783 90.917 143.919 91.5518 143.187C92.1963 142.444 92.9873 141.873 93.9248 141.473C94.8623 141.062 95.9316 140.857 97.1328 140.857C98.2559 140.857 99.2568 141.043 100.136 141.414C101.015 141.775 101.757 142.298 102.362 142.981C102.968 143.655 103.427 144.471 103.739 145.428C104.062 146.375 104.223 147.439 104.223 148.621V150.496H91.4492V147.552H99.7402V147.2C99.7402 146.644 99.6377 146.155 99.4326 145.735C99.2373 145.315 98.9443 144.993 98.5537 144.769C98.1729 144.534 97.6895 144.417 97.1035 144.417C96.5469 144.417 96.083 144.534 95.7119 144.769C95.3408 145.003 95.043 145.335 94.8184 145.765C94.6035 146.185 94.4473 146.678 94.3496 147.244C94.252 147.801 94.2031 148.401 94.2031 149.046V149.603C94.2031 150.218 94.2861 150.779 94.4521 151.287C94.6182 151.795 94.8623 152.229 95.1846 152.591C95.5068 152.952 95.8975 153.235 96.3564 153.44C96.8154 153.646 97.3379 153.748 97.9238 153.748C98.6465 153.748 99.335 153.611 99.9893 153.338C100.644 153.055 101.21 152.615 101.688 152.02L103.827 154.466C103.505 154.935 103.051 155.389 102.465 155.828C101.889 156.258 101.195 156.609 100.385 156.883C99.5742 157.156 98.6562 157.293 97.6309 157.293ZM110.932 144.534V157H106.347V141.15H110.653L110.932 144.534ZM110.331 148.519L109.188 148.548C109.188 147.356 109.335 146.287 109.628 145.34C109.921 144.393 110.336 143.587 110.873 142.923C111.42 142.249 112.069 141.736 112.821 141.385C113.583 141.033 114.423 140.857 115.341 140.857C116.083 140.857 116.762 140.965 117.377 141.18C117.992 141.395 118.52 141.741 118.959 142.22C119.408 142.688 119.75 143.313 119.984 144.095C120.219 144.866 120.336 145.818 120.336 146.951V157H115.736V146.937C115.736 146.272 115.644 145.76 115.458 145.398C115.272 145.037 114.999 144.783 114.638 144.637C114.286 144.49 113.856 144.417 113.349 144.417C112.812 144.417 112.353 144.524 111.972 144.739C111.591 144.944 111.278 145.232 111.034 145.604C110.79 145.975 110.609 146.409 110.492 146.907C110.385 147.405 110.331 147.942 110.331 148.519ZM131.381 141.15V144.358H121.977V141.15H131.381ZM124.13 137.225H128.715V152.034C128.715 152.474 128.769 152.811 128.876 153.045C128.983 153.279 129.159 153.445 129.403 153.543C129.647 153.631 129.96 153.675 130.341 153.675C130.614 153.675 130.849 153.665 131.044 153.646C131.239 153.626 131.42 153.602 131.586 153.572V156.883C131.195 157.01 130.78 157.107 130.341 157.176C129.901 157.254 129.423 157.293 128.905 157.293C127.919 157.293 127.064 157.132 126.342 156.81C125.629 156.487 125.082 155.979 124.701 155.286C124.32 154.583 124.13 153.67 124.13 152.547V137.225ZM142.016 152.591C142.016 152.298 141.923 152.039 141.737 151.814C141.562 151.59 141.239 151.385 140.771 151.199C140.312 151.014 139.662 150.828 138.822 150.643C138.031 150.477 137.294 150.262 136.61 149.998C135.927 149.725 135.331 149.397 134.823 149.017C134.315 148.626 133.92 148.167 133.637 147.64C133.354 147.103 133.212 146.492 133.212 145.809C133.212 145.145 133.354 144.515 133.637 143.919C133.93 143.323 134.35 142.796 134.896 142.337C135.453 141.878 136.127 141.517 136.918 141.253C137.719 140.989 138.627 140.857 139.643 140.857C141.039 140.857 142.245 141.077 143.261 141.517C144.276 141.946 145.058 142.552 145.604 143.333C146.151 144.104 146.425 144.988 146.425 145.984H141.854C141.854 145.574 141.776 145.218 141.62 144.915C141.464 144.612 141.225 144.378 140.902 144.212C140.58 144.036 140.155 143.948 139.628 143.948C139.218 143.948 138.856 144.021 138.544 144.168C138.241 144.305 138.002 144.495 137.826 144.739C137.66 144.983 137.577 145.267 137.577 145.589C137.577 145.813 137.626 146.019 137.724 146.204C137.831 146.38 137.992 146.546 138.207 146.702C138.432 146.849 138.72 146.98 139.071 147.098C139.433 147.215 139.872 147.327 140.39 147.435C141.493 147.64 142.499 147.928 143.407 148.299C144.325 148.67 145.058 149.183 145.604 149.837C146.161 150.491 146.439 151.355 146.439 152.43C146.439 153.133 146.278 153.777 145.956 154.363C145.644 154.949 145.189 155.462 144.594 155.901C143.998 156.341 143.285 156.683 142.455 156.927C141.625 157.171 140.688 157.293 139.643 157.293C138.148 157.293 136.884 157.024 135.849 156.487C134.813 155.95 134.032 155.276 133.505 154.466C132.987 153.646 132.729 152.806 132.729 151.946H137.021C137.04 152.474 137.172 152.903 137.416 153.235C137.67 153.567 137.997 153.812 138.397 153.968C138.798 154.114 139.247 154.188 139.745 154.188C140.243 154.188 140.658 154.119 140.99 153.982C141.322 153.846 141.576 153.66 141.752 153.426C141.928 153.182 142.016 152.903 142.016 152.591Z" fill="#313134"/>
<rect x="21" y="18" width="103.212" height="25" rx="12.5" fill="white"/>
<path d="M31.377 25.4688V34H29.9062V25.4688H31.377ZM34.4648 29.0137V34H33.0527V27.6602H34.3828L34.4648 29.0137ZM34.2129 30.5957L33.7559 30.5898C33.7598 30.1406 33.8223 29.7285 33.9434 29.3535C34.0684 28.9785 34.2402 28.6562 34.459 28.3867C34.6816 28.1172 34.9473 27.9102 35.2559 27.7656C35.5645 27.6172 35.9082 27.543 36.2871 27.543C36.5918 27.543 36.8672 27.5859 37.1133 27.6719C37.3633 27.7539 37.5762 27.8887 37.752 28.0762C37.9316 28.2637 38.0684 28.5078 38.1621 28.8086C38.2559 29.1055 38.3027 29.4707 38.3027 29.9043V34H36.8848V29.8984C36.8848 29.5938 36.8398 29.3535 36.75 29.1777C36.6641 28.998 36.5371 28.8711 36.3691 28.7969C36.2051 28.7188 36 28.6797 35.7539 28.6797C35.5117 28.6797 35.2949 28.7305 35.1035 28.832C34.9121 28.9336 34.75 29.0723 34.6172 29.248C34.4883 29.4238 34.3887 29.627 34.3184 29.8574C34.248 30.0879 34.2129 30.334 34.2129 30.5957ZM42.6504 27.6602V28.6914H39.0762V27.6602H42.6504ZM40.1074 26.1074H41.5195V32.248C41.5195 32.4434 41.5469 32.5938 41.6016 32.6992C41.6602 32.8008 41.7402 32.8691 41.8418 32.9043C41.9434 32.9395 42.0625 32.957 42.1992 32.957C42.2969 32.957 42.3906 32.9512 42.4805 32.9395C42.5703 32.9277 42.6426 32.916 42.6973 32.9043L42.7031 33.9824C42.5859 34.0176 42.4492 34.0488 42.293 34.0762C42.1406 34.1035 41.9648 34.1172 41.7656 34.1172C41.4414 34.1172 41.1543 34.0605 40.9043 33.9473C40.6543 33.8301 40.459 33.6406 40.3184 33.3789C40.1777 33.1172 40.1074 32.7695 40.1074 32.3359V26.1074ZM46.5352 34.1172C46.0664 34.1172 45.6426 34.041 45.2637 33.8887C44.8887 33.7324 44.5684 33.5156 44.3027 33.2383C44.041 32.9609 43.8398 32.6348 43.6992 32.2598C43.5586 31.8848 43.4883 31.4805 43.4883 31.0469V30.8125C43.4883 30.3164 43.5605 29.8672 43.7051 29.4648C43.8496 29.0625 44.0508 28.7188 44.3086 28.4336C44.5664 28.1445 44.8711 27.9238 45.2227 27.7715C45.5742 27.6191 45.9551 27.543 46.3652 27.543C46.8184 27.543 47.2148 27.6191 47.5547 27.7715C47.8945 27.9238 48.1758 28.1387 48.3984 28.416C48.625 28.6895 48.793 29.0156 48.9023 29.3945C49.0156 29.7734 49.0723 30.1914 49.0723 30.6484V31.252H44.1738V30.2383H47.6777V30.127C47.6699 29.873 47.6191 29.6348 47.5254 29.4121C47.4355 29.1895 47.2969 29.0098 47.1094 28.873C46.9219 28.7363 46.6719 28.668 46.3594 28.668C46.125 28.668 45.916 28.7188 45.7324 28.8203C45.5527 28.918 45.4023 29.0605 45.2812 29.248C45.1602 29.4355 45.0664 29.6621 45 29.9277C44.9375 30.1895 44.9062 30.4844 44.9062 30.8125V31.0469C44.9062 31.3242 44.9434 31.582 45.0176 31.8203C45.0957 32.0547 45.209 32.2598 45.3574 32.4355C45.5059 32.6113 45.6855 32.75 45.8965 32.8516C46.1074 32.9492 46.3477 32.998 46.6172 32.998C46.957 32.998 47.2598 32.9297 47.5254 32.793C47.791 32.6562 48.0215 32.4629 48.2168 32.2129L48.9609 32.9336C48.8242 33.1328 48.6465 33.3242 48.4277 33.5078C48.209 33.6875 47.9414 33.834 47.625 33.9473C47.3125 34.0605 46.9492 34.1172 46.5352 34.1172ZM51.5918 28.8672V34H50.1797V27.6602H51.5273L51.5918 28.8672ZM53.5312 27.6191L53.5195 28.9316C53.4336 28.916 53.3398 28.9043 53.2383 28.8965C53.1406 28.8887 53.043 28.8848 52.9453 28.8848C52.7031 28.8848 52.4902 28.9199 52.3066 28.9902C52.123 29.0566 51.9688 29.1543 51.8438 29.2832C51.7227 29.4082 51.6289 29.5605 51.5625 29.7402C51.4961 29.9199 51.457 30.1211 51.4453 30.3438L51.123 30.3672C51.123 29.9688 51.1621 29.5996 51.2402 29.2598C51.3184 28.9199 51.4355 28.6211 51.5918 28.3633C51.752 28.1055 51.9512 27.9043 52.1895 27.7598C52.4316 27.6152 52.7109 27.543 53.0273 27.543C53.1133 27.543 53.2051 27.5508 53.3027 27.5664C53.4043 27.582 53.4805 27.5996 53.5312 27.6191ZM55.8281 28.9492V34H54.416V27.6602H55.7461L55.8281 28.9492ZM55.5996 30.5957L55.1191 30.5898C55.1191 30.1523 55.1738 29.748 55.2832 29.377C55.3926 29.0059 55.5527 28.6836 55.7637 28.4102C55.9746 28.1328 56.2363 27.9199 56.5488 27.7715C56.8652 27.6191 57.2305 27.543 57.6445 27.543C57.9336 27.543 58.1973 27.5859 58.4355 27.6719C58.6777 27.7539 58.8867 27.8848 59.0625 28.0645C59.2422 28.2441 59.3789 28.4746 59.4727 28.7559C59.5703 29.0371 59.6191 29.377 59.6191 29.7754V34H58.207V29.8984C58.207 29.5898 58.1602 29.3477 58.0664 29.1719C57.9766 28.9961 57.8457 28.8711 57.6738 28.7969C57.5059 28.7188 57.3047 28.6797 57.0703 28.6797C56.8047 28.6797 56.5781 28.7305 56.3906 28.832C56.207 28.9336 56.0566 29.0723 55.9395 29.248C55.8223 29.4238 55.7363 29.627 55.6816 29.8574C55.627 30.0879 55.5996 30.334 55.5996 30.5957ZM59.5312 30.2207L58.8691 30.3672C58.8691 29.9844 58.9219 29.623 59.0273 29.2832C59.1367 28.9395 59.2949 28.6387 59.502 28.3809C59.7129 28.1191 59.9727 27.9141 60.2812 27.7656C60.5898 27.6172 60.9434 27.543 61.3418 27.543C61.666 27.543 61.9551 27.5879 62.209 27.6777C62.4668 27.7637 62.6855 27.9004 62.8652 28.0879C63.0449 28.2754 63.1816 28.5195 63.2754 28.8203C63.3691 29.1172 63.416 29.4766 63.416 29.8984V34H61.998V29.8926C61.998 29.5723 61.9512 29.3242 61.8574 29.1484C61.7676 28.9727 61.6387 28.8516 61.4707 28.7852C61.3027 28.7148 61.1016 28.6797 60.8672 28.6797C60.6484 28.6797 60.4551 28.7207 60.2871 28.8027C60.123 28.8809 59.9844 28.9922 59.8711 29.1367C59.7578 29.2773 59.6719 29.4395 59.6133 29.623C59.5586 29.8066 59.5312 30.0059 59.5312 30.2207ZM67.6641 34.1172C67.1953 34.1172 66.7715 34.041 66.3926 33.8887C66.0176 33.7324 65.6973 33.5156 65.4316 33.2383C65.1699 32.9609 64.9688 32.6348 64.8281 32.2598C64.6875 31.8848 64.6172 31.4805 64.6172 31.0469V30.8125C64.6172 30.3164 64.6895 29.8672 64.834 29.4648C64.9785 29.0625 65.1797 28.7188 65.4375 28.4336C65.6953 28.1445 66 27.9238 66.3516 27.7715C66.7031 27.6191 67.084 27.543 67.4941 27.543C67.9473 27.543 68.3438 27.6191 68.6836 27.7715C69.0234 27.9238 69.3047 28.1387 69.5273 28.416C69.7539 28.6895 69.9219 29.0156 70.0312 29.3945C70.1445 29.7734 70.2012 30.1914 70.2012 30.6484V31.252H65.3027V30.2383H68.8066V30.127C68.7988 29.873 68.748 29.6348 68.6543 29.4121C68.5645 29.1895 68.4258 29.0098 68.2383 28.873C68.0508 28.7363 67.8008 28.668 67.4883 28.668C67.2539 28.668 67.0449 28.7188 66.8613 28.8203C66.6816 28.918 66.5312 29.0605 66.4102 29.248C66.2891 29.4355 66.1953 29.6621 66.1289 29.9277C66.0664 30.1895 66.0352 30.4844 66.0352 30.8125V31.0469C66.0352 31.3242 66.0723 31.582 66.1465 31.8203C66.2246 32.0547 66.3379 32.2598 66.4863 32.4355C66.6348 32.6113 66.8145 32.75 67.0254 32.8516C67.2363 32.9492 67.4766 32.998 67.7461 32.998C68.0859 32.998 68.3887 32.9297 68.6543 32.793C68.9199 32.6562 69.1504 32.4629 69.3457 32.2129L70.0898 32.9336C69.9531 33.1328 69.7754 33.3242 69.5566 33.5078C69.3379 33.6875 69.0703 33.834 68.7539 33.9473C68.4414 34.0605 68.0781 34.1172 67.6641 34.1172ZM75.1699 32.6875V25H76.5879V34H75.3047L75.1699 32.6875ZM71.0449 30.9004V30.7773C71.0449 30.2969 71.1016 29.8594 71.2148 29.4648C71.3281 29.0664 71.4922 28.7246 71.707 28.4395C71.9219 28.1504 72.1836 27.9297 72.4922 27.7773C72.8008 27.6211 73.1484 27.543 73.5352 27.543C73.918 27.543 74.2539 27.6172 74.543 27.7656C74.832 27.9141 75.0781 28.127 75.2812 28.4043C75.4844 28.6777 75.6465 29.0059 75.7676 29.3887C75.8887 29.7676 75.9746 30.1895 76.0254 30.6543V31.0469C75.9746 31.5 75.8887 31.9141 75.7676 32.2891C75.6465 32.6641 75.4844 32.9883 75.2812 33.2617C75.0781 33.5352 74.8301 33.7461 74.5371 33.8945C74.248 34.043 73.9102 34.1172 73.5234 34.1172C73.1406 34.1172 72.7949 34.0371 72.4863 33.877C72.1816 33.7168 71.9219 33.4922 71.707 33.2031C71.4922 32.9141 71.3281 32.5742 71.2148 32.1836C71.1016 31.7891 71.0449 31.3613 71.0449 30.9004ZM72.457 30.7773V30.9004C72.457 31.1895 72.4824 31.459 72.5332 31.709C72.5879 31.959 72.6719 32.1797 72.7852 32.3711C72.8984 32.5586 73.0449 32.707 73.2246 32.8164C73.4082 32.9219 73.627 32.9746 73.8809 32.9746C74.2012 32.9746 74.4648 32.9043 74.6719 32.7637C74.8789 32.623 75.041 32.4336 75.1582 32.1953C75.2793 31.9531 75.3613 31.6836 75.4043 31.3867V30.3262C75.3809 30.0957 75.332 29.8809 75.2578 29.6816C75.1875 29.4824 75.0918 29.3086 74.9707 29.1602C74.8496 29.0078 74.6992 28.8906 74.5195 28.8086C74.3438 28.7227 74.1348 28.6797 73.8926 28.6797C73.6348 28.6797 73.416 28.7344 73.2363 28.8438C73.0566 28.9531 72.9082 29.1035 72.791 29.2949C72.6777 29.4863 72.5938 29.709 72.5391 29.9629C72.4844 30.2168 72.457 30.4883 72.457 30.7773ZM79.5762 27.6602V34H78.1582V27.6602H79.5762ZM78.0645 25.9961C78.0645 25.7812 78.1348 25.6035 78.2754 25.4629C78.4199 25.3184 78.6191 25.2461 78.873 25.2461C79.123 25.2461 79.3203 25.3184 79.4648 25.4629C79.6094 25.6035 79.6816 25.7812 79.6816 25.9961C79.6816 26.207 79.6094 26.3828 79.4648 26.5234C79.3203 26.6641 79.123 26.7344 78.873 26.7344C78.6191 26.7344 78.4199 26.6641 78.2754 26.5234C78.1348 26.3828 78.0645 26.207 78.0645 25.9961ZM84.6973 32.7285V29.7051C84.6973 29.4785 84.6562 29.2832 84.5742 29.1191C84.4922 28.9551 84.3672 28.8281 84.1992 28.7383C84.0352 28.6484 83.8281 28.6035 83.5781 28.6035C83.3477 28.6035 83.1484 28.6426 82.9805 28.7207C82.8125 28.7988 82.6816 28.9043 82.5879 29.0371C82.4941 29.1699 82.4473 29.3203 82.4473 29.4883H81.041C81.041 29.2383 81.1016 28.9961 81.2227 28.7617C81.3438 28.5273 81.5195 28.3184 81.75 28.1348C81.9805 27.9512 82.2559 27.8066 82.5762 27.7012C82.8965 27.5957 83.2559 27.543 83.6543 27.543C84.1309 27.543 84.5527 27.623 84.9199 27.7832C85.291 27.9434 85.582 28.1855 85.793 28.5098C86.0078 28.8301 86.1152 29.2324 86.1152 29.7168V32.5352C86.1152 32.8242 86.1348 33.084 86.1738 33.3145C86.2168 33.541 86.2773 33.7383 86.3555 33.9062V34H84.9082C84.8418 33.8477 84.7891 33.6543 84.75 33.4199C84.7148 33.1816 84.6973 32.9512 84.6973 32.7285ZM84.9023 30.1445L84.9141 31.0176H83.9004C83.6387 31.0176 83.4082 31.043 83.209 31.0938C83.0098 31.1406 82.8438 31.2109 82.7109 31.3047C82.5781 31.3984 82.4785 31.5117 82.4121 31.6445C82.3457 31.7773 82.3125 31.9277 82.3125 32.0957C82.3125 32.2637 82.3516 32.418 82.4297 32.5586C82.5078 32.6953 82.6211 32.8027 82.7695 32.8809C82.9219 32.959 83.1055 32.998 83.3203 32.998C83.6094 32.998 83.8613 32.9395 84.0762 32.8223C84.2949 32.7012 84.4668 32.5547 84.5918 32.3828C84.7168 32.207 84.7832 32.041 84.791 31.8848L85.248 32.5117C85.2012 32.6719 85.1211 32.8438 85.0078 33.0273C84.8945 33.2109 84.7461 33.3867 84.5625 33.5547C84.3828 33.7188 84.166 33.8535 83.9121 33.959C83.6621 34.0645 83.373 34.1172 83.0449 34.1172C82.6309 34.1172 82.2617 34.0352 81.9375 33.8711C81.6133 33.7031 81.3594 33.4785 81.1758 33.1973C80.9922 32.9121 80.9004 32.5898 80.9004 32.2305C80.9004 31.8945 80.9629 31.5977 81.0879 31.3398C81.2168 31.0781 81.4043 30.8594 81.6504 30.6836C81.9004 30.5078 82.2051 30.375 82.5645 30.2852C82.9238 30.1914 83.334 30.1445 83.7949 30.1445H84.9023ZM90.498 27.6602V28.6914H86.9238V27.6602H90.498ZM87.9551 26.1074H89.3672V32.248C89.3672 32.4434 89.3945 32.5938 89.4492 32.6992C89.5078 32.8008 89.5879 32.8691 89.6895 32.9043C89.791 32.9395 89.9102 32.957 90.0469 32.957C90.1445 32.957 90.2383 32.9512 90.3281 32.9395C90.418 32.9277 90.4902 32.916 90.5449 32.9043L90.5508 33.9824C90.4336 34.0176 90.2969 34.0488 90.1406 34.0762C89.9883 34.1035 89.8125 34.1172 89.6133 34.1172C89.2891 34.1172 89.002 34.0605 88.752 33.9473C88.502 33.8301 88.3066 33.6406 88.166 33.3789C88.0254 33.1172 87.9551 32.7695 87.9551 32.3359V26.1074ZM94.3828 34.1172C93.9141 34.1172 93.4902 34.041 93.1113 33.8887C92.7363 33.7324 92.416 33.5156 92.1504 33.2383C91.8887 32.9609 91.6875 32.6348 91.5469 32.2598C91.4062 31.8848 91.3359 31.4805 91.3359 31.0469V30.8125C91.3359 30.3164 91.4082 29.8672 91.5527 29.4648C91.6973 29.0625 91.8984 28.7188 92.1562 28.4336C92.4141 28.1445 92.7188 27.9238 93.0703 27.7715C93.4219 27.6191 93.8027 27.543 94.2129 27.543C94.666 27.543 95.0625 27.6191 95.4023 27.7715C95.7422 27.9238 96.0234 28.1387 96.2461 28.416C96.4727 28.6895 96.6406 29.0156 96.75 29.3945C96.8633 29.7734 96.9199 30.1914 96.9199 30.6484V31.252H92.0215V30.2383H95.5254V30.127C95.5176 29.873 95.4668 29.6348 95.373 29.4121C95.2832 29.1895 95.1445 29.0098 94.957 28.873C94.7695 28.7363 94.5195 28.668 94.207 28.668C93.9727 28.668 93.7637 28.7188 93.5801 28.8203C93.4004 28.918 93.25 29.0605 93.1289 29.248C93.0078 29.4355 92.9141 29.6621 92.8477 29.9277C92.7852 30.1895 92.7539 30.4844 92.7539 30.8125V31.0469C92.7539 31.3242 92.791 31.582 92.8652 31.8203C92.9434 32.0547 93.0566 32.2598 93.2051 32.4355C93.3535 32.6113 93.5332 32.75 93.7441 32.8516C93.9551 32.9492 94.1953 32.998 94.4648 32.998C94.8047 32.998 95.1074 32.9297 95.373 32.793C95.6387 32.6562 95.8691 32.4629 96.0645 32.2129L96.8086 32.9336C96.6719 33.1328 96.4941 33.3242 96.2754 33.5078C96.0566 33.6875 95.7891 33.834 95.4727 33.9473C95.1602 34.0605 94.7969 34.1172 94.3828 34.1172Z" fill="#303030"/>
<rect x="105.356" y="30" width="1.98485" height="6" fill="#FFA09C"/>
<rect x="109.326" y="27" width="1.98485" height="9" fill="#FFA09C"/>
<rect x="113.296" y="24" width="1.98485" height="12" fill="#C4C4C4"/>
<path d="M177.741 202.145H175.567L175.555 201.072H177.453C177.774 201.072 178.045 201.025 178.268 200.932C178.495 200.834 178.666 200.695 178.784 200.516C178.901 200.332 178.959 200.111 178.959 199.854C178.959 199.568 178.905 199.336 178.795 199.156C178.686 198.977 178.518 198.846 178.291 198.764C178.069 198.682 177.784 198.641 177.436 198.641H176.012V206H174.541V197.469H177.436C177.905 197.469 178.323 197.514 178.69 197.604C179.061 197.693 179.375 197.834 179.633 198.025C179.895 198.213 180.092 198.451 180.225 198.74C180.362 199.029 180.43 199.373 180.43 199.771C180.43 200.123 180.346 200.445 180.178 200.738C180.01 201.027 179.762 201.264 179.434 201.447C179.106 201.631 178.698 201.74 178.209 201.775L177.741 202.145ZM177.676 206H175.104L175.766 204.834H177.676C178.008 204.834 178.286 204.779 178.508 204.67C178.731 204.557 178.897 204.402 179.006 204.207C179.12 204.008 179.176 203.775 179.176 203.51C179.176 203.232 179.127 202.992 179.03 202.789C178.932 202.582 178.778 202.424 178.567 202.314C178.356 202.201 178.08 202.145 177.741 202.145H176.088L176.1 201.072H178.25L178.584 201.477C179.053 201.492 179.438 201.596 179.739 201.787C180.043 201.979 180.27 202.227 180.418 202.531C180.567 202.836 180.641 203.164 180.641 203.516C180.641 204.059 180.522 204.514 180.284 204.881C180.049 205.248 179.711 205.527 179.27 205.719C178.828 205.906 178.297 206 177.676 206ZM183.401 200.867V206H181.989V199.66H183.336L183.401 200.867ZM185.34 199.619L185.328 200.932C185.243 200.916 185.149 200.904 185.047 200.896C184.95 200.889 184.852 200.885 184.754 200.885C184.512 200.885 184.299 200.92 184.116 200.99C183.932 201.057 183.778 201.154 183.653 201.283C183.532 201.408 183.438 201.561 183.371 201.74C183.305 201.92 183.266 202.121 183.254 202.344L182.932 202.367C182.932 201.969 182.971 201.6 183.049 201.26C183.127 200.92 183.245 200.621 183.401 200.363C183.561 200.105 183.76 199.904 183.998 199.76C184.241 199.615 184.52 199.543 184.836 199.543C184.922 199.543 185.014 199.551 185.112 199.566C185.213 199.582 185.289 199.6 185.34 199.619ZM189.588 204.729V201.705C189.588 201.479 189.547 201.283 189.465 201.119C189.383 200.955 189.258 200.828 189.09 200.738C188.926 200.648 188.719 200.604 188.469 200.604C188.239 200.604 188.039 200.643 187.871 200.721C187.703 200.799 187.573 200.904 187.479 201.037C187.385 201.17 187.338 201.32 187.338 201.488H185.932C185.932 201.238 185.993 200.996 186.114 200.762C186.235 200.527 186.411 200.318 186.641 200.135C186.871 199.951 187.147 199.807 187.467 199.701C187.787 199.596 188.147 199.543 188.545 199.543C189.022 199.543 189.444 199.623 189.811 199.783C190.182 199.943 190.473 200.186 190.684 200.51C190.899 200.83 191.006 201.232 191.006 201.717V204.535C191.006 204.824 191.026 205.084 191.065 205.314C191.108 205.541 191.168 205.738 191.246 205.906V206H189.799C189.733 205.848 189.68 205.654 189.641 205.42C189.606 205.182 189.588 204.951 189.588 204.729ZM189.793 202.145L189.805 203.018H188.791C188.53 203.018 188.299 203.043 188.1 203.094C187.901 203.141 187.735 203.211 187.602 203.305C187.469 203.398 187.37 203.512 187.303 203.645C187.237 203.777 187.203 203.928 187.203 204.096C187.203 204.264 187.243 204.418 187.321 204.559C187.399 204.695 187.512 204.803 187.661 204.881C187.813 204.959 187.996 204.998 188.211 204.998C188.5 204.998 188.752 204.939 188.967 204.822C189.186 204.701 189.358 204.555 189.483 204.383C189.608 204.207 189.674 204.041 189.682 203.885L190.139 204.512C190.092 204.672 190.012 204.844 189.899 205.027C189.786 205.211 189.637 205.387 189.453 205.555C189.274 205.719 189.057 205.854 188.803 205.959C188.553 206.064 188.264 206.117 187.936 206.117C187.522 206.117 187.153 206.035 186.828 205.871C186.504 205.703 186.25 205.479 186.067 205.197C185.883 204.912 185.791 204.59 185.791 204.23C185.791 203.895 185.854 203.598 185.979 203.34C186.108 203.078 186.295 202.859 186.541 202.684C186.791 202.508 187.096 202.375 187.455 202.285C187.815 202.191 188.225 202.145 188.686 202.145H189.793ZM196.35 204.688V197H197.768V206H196.485L196.35 204.688ZM192.225 202.9V202.777C192.225 202.297 192.282 201.859 192.395 201.465C192.508 201.066 192.672 200.725 192.887 200.439C193.102 200.15 193.364 199.93 193.672 199.777C193.981 199.621 194.328 199.543 194.715 199.543C195.098 199.543 195.434 199.617 195.723 199.766C196.012 199.914 196.258 200.127 196.461 200.404C196.664 200.678 196.827 201.006 196.948 201.389C197.069 201.768 197.155 202.189 197.205 202.654V203.047C197.155 203.5 197.069 203.914 196.948 204.289C196.827 204.664 196.664 204.988 196.461 205.262C196.258 205.535 196.01 205.746 195.717 205.895C195.428 206.043 195.09 206.117 194.703 206.117C194.321 206.117 193.975 206.037 193.666 205.877C193.362 205.717 193.102 205.492 192.887 205.203C192.672 204.914 192.508 204.574 192.395 204.184C192.282 203.789 192.225 203.361 192.225 202.9ZM193.637 202.777V202.9C193.637 203.189 193.662 203.459 193.713 203.709C193.768 203.959 193.852 204.18 193.965 204.371C194.078 204.559 194.225 204.707 194.405 204.816C194.588 204.922 194.807 204.975 195.061 204.975C195.381 204.975 195.645 204.904 195.852 204.764C196.059 204.623 196.221 204.434 196.338 204.195C196.459 203.953 196.541 203.684 196.584 203.387V202.326C196.561 202.096 196.512 201.881 196.438 201.682C196.368 201.482 196.272 201.309 196.151 201.16C196.03 201.008 195.879 200.891 195.7 200.809C195.524 200.723 195.315 200.68 195.073 200.68C194.815 200.68 194.596 200.734 194.416 200.844C194.237 200.953 194.088 201.104 193.971 201.295C193.858 201.486 193.774 201.709 193.719 201.963C193.664 202.217 193.637 202.488 193.637 202.777ZM206.862 203.803C206.862 203.627 206.834 203.471 206.78 203.334C206.729 203.197 206.637 203.072 206.504 202.959C206.371 202.846 206.184 202.736 205.942 202.631C205.703 202.521 205.399 202.41 205.028 202.297C204.621 202.172 204.246 202.033 203.903 201.881C203.563 201.725 203.266 201.545 203.012 201.342C202.758 201.135 202.561 200.898 202.42 200.633C202.28 200.363 202.209 200.053 202.209 199.701C202.209 199.354 202.282 199.037 202.426 198.752C202.575 198.467 202.784 198.221 203.053 198.014C203.327 197.803 203.649 197.641 204.02 197.527C204.391 197.41 204.801 197.352 205.25 197.352C205.883 197.352 206.428 197.469 206.885 197.703C207.346 197.938 207.7 198.252 207.946 198.646C208.196 199.041 208.321 199.477 208.321 199.953H206.862C206.862 199.672 206.801 199.424 206.68 199.209C206.563 198.99 206.383 198.818 206.141 198.693C205.903 198.568 205.6 198.506 205.233 198.506C204.885 198.506 204.596 198.559 204.366 198.664C204.135 198.77 203.963 198.912 203.85 199.092C203.737 199.271 203.68 199.475 203.68 199.701C203.68 199.861 203.717 200.008 203.791 200.141C203.866 200.27 203.979 200.391 204.131 200.504C204.284 200.613 204.475 200.717 204.705 200.814C204.936 200.912 205.207 201.006 205.52 201.096C205.993 201.236 206.405 201.393 206.756 201.564C207.108 201.732 207.401 201.924 207.635 202.139C207.87 202.354 208.045 202.598 208.162 202.871C208.28 203.141 208.338 203.447 208.338 203.791C208.338 204.15 208.266 204.475 208.121 204.764C207.977 205.049 207.77 205.293 207.5 205.496C207.235 205.695 206.914 205.85 206.539 205.959C206.168 206.064 205.754 206.117 205.297 206.117C204.887 206.117 204.483 206.062 204.084 205.953C203.69 205.844 203.33 205.678 203.006 205.455C202.682 205.229 202.424 204.947 202.233 204.611C202.041 204.271 201.946 203.875 201.946 203.422H203.416C203.416 203.699 203.463 203.936 203.557 204.131C203.655 204.326 203.789 204.486 203.961 204.611C204.133 204.732 204.332 204.822 204.559 204.881C204.789 204.939 205.036 204.969 205.297 204.969C205.641 204.969 205.928 204.92 206.159 204.822C206.393 204.725 206.569 204.588 206.686 204.412C206.803 204.236 206.862 204.033 206.862 203.803ZM211.01 199.66V206H209.592V199.66H211.01ZM209.498 197.996C209.498 197.781 209.569 197.604 209.709 197.463C209.854 197.318 210.053 197.246 210.307 197.246C210.557 197.246 210.754 197.318 210.899 197.463C211.043 197.604 211.116 197.781 211.116 197.996C211.116 198.207 211.043 198.383 210.899 198.523C210.754 198.664 210.557 198.734 210.307 198.734C210.053 198.734 209.854 198.664 209.709 198.523C209.569 198.383 209.498 198.207 209.498 197.996ZM213.969 200.949V206H212.557V199.66H213.887L213.969 200.949ZM213.741 202.596L213.26 202.59C213.26 202.152 213.315 201.748 213.424 201.377C213.534 201.006 213.694 200.684 213.905 200.41C214.116 200.133 214.377 199.92 214.69 199.771C215.006 199.619 215.371 199.543 215.786 199.543C216.075 199.543 216.338 199.586 216.577 199.672C216.819 199.754 217.028 199.885 217.203 200.064C217.383 200.244 217.52 200.475 217.614 200.756C217.711 201.037 217.76 201.377 217.76 201.775V206H216.348V201.898C216.348 201.59 216.301 201.348 216.207 201.172C216.118 200.996 215.987 200.871 215.815 200.797C215.647 200.719 215.446 200.68 215.211 200.68C214.946 200.68 214.719 200.73 214.532 200.832C214.348 200.934 214.198 201.072 214.08 201.248C213.963 201.424 213.877 201.627 213.823 201.857C213.768 202.088 213.741 202.334 213.741 202.596ZM217.672 202.221L217.01 202.367C217.01 201.984 217.063 201.623 217.168 201.283C217.278 200.939 217.436 200.639 217.643 200.381C217.854 200.119 218.114 199.914 218.422 199.766C218.731 199.617 219.084 199.543 219.483 199.543C219.807 199.543 220.096 199.588 220.35 199.678C220.608 199.764 220.827 199.9 221.006 200.088C221.186 200.275 221.323 200.52 221.416 200.82C221.51 201.117 221.557 201.477 221.557 201.898V206H220.139V201.893C220.139 201.572 220.092 201.324 219.998 201.148C219.909 200.973 219.78 200.852 219.612 200.785C219.444 200.715 219.243 200.68 219.008 200.68C218.789 200.68 218.596 200.721 218.428 200.803C218.264 200.881 218.125 200.992 218.012 201.137C217.899 201.277 217.813 201.439 217.754 201.623C217.7 201.807 217.672 202.006 217.672 202.221ZM222.741 202.9V202.766C222.741 202.309 222.807 201.885 222.94 201.494C223.073 201.1 223.264 200.758 223.514 200.469C223.768 200.176 224.077 199.949 224.44 199.789C224.807 199.625 225.221 199.543 225.682 199.543C226.147 199.543 226.561 199.625 226.924 199.789C227.291 199.949 227.602 200.176 227.856 200.469C228.11 200.758 228.303 201.1 228.436 201.494C228.569 201.885 228.635 202.309 228.635 202.766V202.9C228.635 203.357 228.569 203.781 228.436 204.172C228.303 204.562 228.11 204.904 227.856 205.197C227.602 205.486 227.293 205.713 226.93 205.877C226.567 206.037 226.155 206.117 225.694 206.117C225.229 206.117 224.813 206.037 224.446 205.877C224.082 205.713 223.774 205.486 223.52 205.197C223.266 204.904 223.073 204.562 222.94 204.172C222.807 203.781 222.741 203.357 222.741 202.9ZM224.153 202.766V202.9C224.153 203.186 224.182 203.455 224.241 203.709C224.299 203.963 224.391 204.186 224.516 204.377C224.641 204.568 224.801 204.719 224.996 204.828C225.192 204.938 225.424 204.992 225.694 204.992C225.955 204.992 226.182 204.938 226.373 204.828C226.569 204.719 226.729 204.568 226.854 204.377C226.979 204.186 227.071 203.963 227.129 203.709C227.192 203.455 227.223 203.186 227.223 202.9V202.766C227.223 202.484 227.192 202.219 227.129 201.969C227.071 201.715 226.977 201.49 226.848 201.295C226.723 201.1 226.563 200.947 226.368 200.838C226.176 200.725 225.948 200.668 225.682 200.668C225.416 200.668 225.186 200.725 224.991 200.838C224.799 200.947 224.641 201.1 224.516 201.295C224.391 201.49 224.299 201.715 224.241 201.969C224.182 202.219 224.153 202.484 224.153 202.766ZM231.219 201.014V206H229.807V199.66H231.137L231.219 201.014ZM230.967 202.596L230.51 202.59C230.514 202.141 230.577 201.729 230.698 201.354C230.823 200.979 230.995 200.656 231.213 200.387C231.436 200.117 231.702 199.91 232.01 199.766C232.319 199.617 232.662 199.543 233.041 199.543C233.346 199.543 233.621 199.586 233.868 199.672C234.118 199.754 234.33 199.889 234.506 200.076C234.686 200.264 234.823 200.508 234.916 200.809C235.01 201.105 235.057 201.471 235.057 201.904V206H233.639V201.898C233.639 201.594 233.594 201.354 233.504 201.178C233.418 200.998 233.291 200.871 233.123 200.797C232.959 200.719 232.754 200.68 232.508 200.68C232.266 200.68 232.049 200.73 231.858 200.832C231.666 200.934 231.504 201.072 231.371 201.248C231.243 201.424 231.143 201.627 231.073 201.857C231.002 202.088 230.967 202.334 230.967 202.596ZM240.055 204.283C240.055 204.143 240.02 204.016 239.95 203.902C239.879 203.785 239.745 203.68 239.545 203.586C239.35 203.492 239.061 203.406 238.678 203.328C238.342 203.254 238.034 203.166 237.752 203.064C237.475 202.959 237.237 202.832 237.037 202.684C236.838 202.535 236.684 202.359 236.575 202.156C236.465 201.953 236.411 201.719 236.411 201.453C236.411 201.195 236.467 200.951 236.58 200.721C236.694 200.49 236.856 200.287 237.067 200.111C237.278 199.936 237.534 199.797 237.834 199.695C238.139 199.594 238.479 199.543 238.854 199.543C239.385 199.543 239.84 199.633 240.219 199.812C240.602 199.988 240.895 200.229 241.098 200.533C241.301 200.834 241.403 201.174 241.403 201.553H239.991C239.991 201.385 239.948 201.229 239.862 201.084C239.78 200.936 239.655 200.816 239.487 200.727C239.319 200.633 239.108 200.586 238.854 200.586C238.612 200.586 238.411 200.625 238.25 200.703C238.094 200.777 237.977 200.875 237.899 200.996C237.825 201.117 237.787 201.25 237.787 201.395C237.787 201.5 237.807 201.596 237.846 201.682C237.889 201.764 237.959 201.84 238.057 201.91C238.155 201.977 238.287 202.039 238.455 202.098C238.627 202.156 238.842 202.213 239.1 202.268C239.584 202.369 240 202.5 240.348 202.66C240.7 202.816 240.969 203.02 241.157 203.27C241.344 203.516 241.438 203.828 241.438 204.207C241.438 204.488 241.377 204.746 241.256 204.98C241.139 205.211 240.967 205.412 240.741 205.584C240.514 205.752 240.243 205.883 239.926 205.977C239.614 206.07 239.262 206.117 238.871 206.117C238.297 206.117 237.811 206.016 237.412 205.812C237.014 205.605 236.711 205.342 236.504 205.021C236.301 204.697 236.2 204.361 236.2 204.014H237.565C237.58 204.275 237.653 204.484 237.782 204.641C237.914 204.793 238.078 204.904 238.274 204.975C238.473 205.041 238.678 205.074 238.889 205.074C239.143 205.074 239.356 205.041 239.528 204.975C239.7 204.904 239.83 204.811 239.92 204.693C240.01 204.572 240.055 204.436 240.055 204.283Z" fill="#7A7A88"/>
<path d="M52.5984 254.858C52.5913 254.794 52.5776 254.73 52.5575 254.669V254.606C52.5247 254.534 52.4809 254.468 52.4279 254.41L48.3341 250.21C48.2777 250.156 48.2132 250.111 48.1431 250.077H48.0817C48.0123 250.036 47.9358 250.01 47.8565 250H43.7286C43.1858 250 42.6651 250.221 42.2813 250.615C41.8974 251.009 41.6818 251.543 41.6818 252.1V261.9C41.6818 262.457 41.8974 262.991 42.2813 263.385C42.6651 263.779 43.1858 264 43.7286 264H50.5516C51.0944 264 51.6151 263.779 51.9989 263.385C52.3828 262.991 52.5984 262.457 52.5984 261.9V254.9C52.5984 254.9 52.5984 254.9 52.5984 254.858ZM48.5047 252.387L50.2718 254.2H49.187C49.006 254.2 48.8325 254.126 48.7045 253.995C48.5766 253.864 48.5047 253.686 48.5047 253.5V252.387ZM51.2338 261.9C51.2338 262.086 51.162 262.264 51.034 262.395C50.9061 262.526 50.7325 262.6 50.5516 262.6H43.7286C43.5477 262.6 43.3741 262.526 43.2462 262.395C43.1182 262.264 43.0463 262.086 43.0463 261.9V252.1C43.0463 251.914 43.1182 251.736 43.2462 251.605C43.3741 251.474 43.5477 251.4 43.7286 251.4H47.1401V253.5C47.1401 254.057 47.3557 254.591 47.7396 254.985C48.1235 255.379 48.6441 255.6 49.187 255.6H51.2338V261.9Z" fill="#6D6D6F"/>
<path d="M63.9238 259.875V261H58.2051V260.033L60.9824 257.004C61.2871 256.66 61.5273 256.363 61.7031 256.113C61.8789 255.863 62.002 255.639 62.0723 255.439C62.1465 255.236 62.1836 255.039 62.1836 254.848C62.1836 254.578 62.1328 254.342 62.0312 254.139C61.9336 253.932 61.7891 253.77 61.5977 253.652C61.4062 253.531 61.1738 253.471 60.9004 253.471C60.584 253.471 60.3184 253.539 60.1035 253.676C59.8887 253.812 59.7266 254.002 59.6172 254.244C59.5078 254.482 59.4531 254.756 59.4531 255.064H58.041C58.041 254.568 58.1543 254.115 58.3809 253.705C58.6074 253.291 58.9355 252.963 59.3652 252.721C59.7949 252.475 60.3125 252.352 60.918 252.352C61.4883 252.352 61.9727 252.447 62.3711 252.639C62.7695 252.83 63.0723 253.102 63.2793 253.453C63.4902 253.805 63.5957 254.221 63.5957 254.701C63.5957 254.967 63.5527 255.23 63.4668 255.492C63.3809 255.754 63.2578 256.016 63.0977 256.277C62.9414 256.535 62.7559 256.795 62.541 257.057C62.3262 257.314 62.0898 257.576 61.832 257.842L59.9863 259.875H63.9238ZM70.9023 257.959V259.084H64.75L64.7031 258.234L68.3828 252.469H69.5137L68.2891 254.566L66.1738 257.959H70.9023ZM69.8359 252.469V261H68.4238V252.469H69.8359Z" fill="#6D6D6F"/>
<path d="M134.766 259.887H134.883C135.422 259.887 135.872 259.816 136.231 259.676C136.594 259.531 136.883 259.332 137.098 259.078C137.313 258.824 137.467 258.525 137.561 258.182C137.655 257.838 137.702 257.465 137.702 257.062V255.592C137.702 255.244 137.665 254.939 137.59 254.678C137.52 254.412 137.418 254.191 137.286 254.016C137.157 253.836 137.006 253.701 136.834 253.611C136.667 253.521 136.485 253.477 136.29 253.477C136.075 253.477 135.881 253.525 135.709 253.623C135.542 253.717 135.399 253.848 135.282 254.016C135.168 254.18 135.081 254.373 135.018 254.596C134.959 254.814 134.93 255.049 134.93 255.299C134.93 255.533 134.958 255.76 135.012 255.979C135.071 256.193 135.157 256.385 135.27 256.553C135.383 256.721 135.526 256.854 135.698 256.951C135.87 257.049 136.071 257.098 136.301 257.098C136.52 257.098 136.721 257.057 136.905 256.975C137.088 256.889 137.249 256.773 137.385 256.629C137.522 256.484 137.629 256.322 137.708 256.143C137.786 255.963 137.829 255.779 137.836 255.592L138.375 255.756C138.375 256.053 138.313 256.346 138.188 256.635C138.067 256.92 137.897 257.182 137.678 257.42C137.463 257.654 137.211 257.842 136.922 257.982C136.637 258.123 136.327 258.193 135.991 258.193C135.584 258.193 135.225 258.117 134.913 257.965C134.604 257.809 134.346 257.598 134.139 257.332C133.936 257.066 133.784 256.762 133.682 256.418C133.581 256.074 133.53 255.713 133.53 255.334C133.53 254.924 133.592 254.539 133.717 254.18C133.842 253.82 134.024 253.504 134.262 253.23C134.5 252.953 134.79 252.738 135.129 252.586C135.473 252.43 135.862 252.352 136.295 252.352C136.756 252.352 137.161 252.441 137.508 252.621C137.856 252.801 138.149 253.049 138.387 253.365C138.625 253.682 138.805 254.049 138.926 254.467C139.047 254.885 139.108 255.334 139.108 255.814V256.312C139.108 256.816 139.063 257.303 138.973 257.771C138.883 258.236 138.737 258.668 138.534 259.066C138.334 259.461 138.071 259.809 137.743 260.109C137.418 260.406 137.02 260.639 136.547 260.807C136.079 260.971 135.528 261.053 134.895 261.053H134.766V259.887Z" fill="#6D6D6F"/>
<path d="M208.727 256.096H209.571C209.899 256.096 210.17 256.039 210.385 255.926C210.604 255.812 210.766 255.656 210.871 255.457C210.977 255.258 211.03 255.029 211.03 254.771C211.03 254.502 210.981 254.271 210.883 254.08C210.789 253.885 210.645 253.734 210.45 253.629C210.258 253.523 210.014 253.471 209.717 253.471C209.467 253.471 209.241 253.521 209.037 253.623C208.838 253.721 208.68 253.861 208.563 254.045C208.446 254.225 208.387 254.439 208.387 254.689H206.969C206.969 254.236 207.088 253.834 207.327 253.482C207.565 253.131 207.889 252.855 208.299 252.656C208.713 252.453 209.178 252.352 209.694 252.352C210.245 252.352 210.725 252.443 211.135 252.627C211.549 252.807 211.871 253.076 212.102 253.436C212.332 253.795 212.448 254.24 212.448 254.771C212.448 255.014 212.391 255.26 212.278 255.51C212.164 255.76 211.996 255.988 211.774 256.195C211.551 256.398 211.274 256.564 210.942 256.693C210.61 256.818 210.225 256.881 209.787 256.881H208.727V256.096ZM208.727 257.197V256.424H209.787C210.287 256.424 210.713 256.482 211.065 256.6C211.42 256.717 211.709 256.879 211.932 257.086C212.155 257.289 212.317 257.521 212.418 257.783C212.524 258.045 212.577 258.322 212.577 258.615C212.577 259.014 212.504 259.369 212.36 259.682C212.219 259.99 212.018 260.252 211.756 260.467C211.495 260.682 211.188 260.844 210.836 260.953C210.489 261.062 210.11 261.117 209.7 261.117C209.332 261.117 208.981 261.066 208.645 260.965C208.309 260.863 208.008 260.713 207.743 260.514C207.477 260.311 207.266 260.059 207.11 259.758C206.957 259.453 206.881 259.102 206.881 258.703H208.293C208.293 258.957 208.352 259.182 208.469 259.377C208.59 259.568 208.758 259.719 208.973 259.828C209.192 259.938 209.442 259.992 209.723 259.992C210.02 259.992 210.276 259.939 210.491 259.834C210.705 259.729 210.87 259.572 210.983 259.365C211.1 259.158 211.159 258.908 211.159 258.615C211.159 258.283 211.094 258.014 210.965 257.807C210.836 257.6 210.653 257.447 210.414 257.35C210.176 257.248 209.895 257.197 209.571 257.197H208.727ZM219.45 256.02V257.414C219.45 258.082 219.383 258.652 219.25 259.125C219.121 259.594 218.934 259.975 218.688 260.268C218.442 260.561 218.147 260.775 217.803 260.912C217.463 261.049 217.082 261.117 216.661 261.117C216.325 261.117 216.012 261.074 215.723 260.988C215.438 260.902 215.18 260.768 214.95 260.584C214.719 260.4 214.522 260.164 214.358 259.875C214.198 259.582 214.073 259.232 213.983 258.826C213.897 258.42 213.854 257.949 213.854 257.414V256.02C213.854 255.348 213.92 254.781 214.053 254.32C214.186 253.855 214.375 253.479 214.621 253.189C214.868 252.896 215.161 252.684 215.5 252.551C215.844 252.418 216.227 252.352 216.649 252.352C216.989 252.352 217.301 252.395 217.586 252.48C217.875 252.562 218.133 252.693 218.36 252.873C218.59 253.053 218.786 253.287 218.946 253.576C219.11 253.861 219.235 254.207 219.321 254.613C219.407 255.016 219.45 255.484 219.45 256.02ZM218.037 257.613V255.809C218.037 255.469 218.018 255.17 217.979 254.912C217.94 254.65 217.881 254.43 217.803 254.25C217.729 254.066 217.635 253.918 217.522 253.805C217.409 253.688 217.28 253.604 217.135 253.553C216.991 253.498 216.828 253.471 216.649 253.471C216.43 253.471 216.235 253.514 216.063 253.6C215.891 253.682 215.746 253.814 215.629 253.998C215.512 254.182 215.422 254.424 215.36 254.725C215.301 255.021 215.272 255.383 215.272 255.809V257.613C215.272 257.957 215.291 258.26 215.33 258.521C215.37 258.783 215.428 259.008 215.506 259.195C215.584 259.379 215.678 259.531 215.787 259.652C215.901 259.77 216.03 259.855 216.174 259.91C216.323 259.965 216.485 259.992 216.661 259.992C216.883 259.992 217.08 259.949 217.252 259.863C217.424 259.777 217.569 259.641 217.686 259.453C217.803 259.262 217.891 259.014 217.95 258.709C218.008 258.404 218.037 258.039 218.037 257.613Z" fill="#6D6D6F"/>
<path d="M188.864 257.181C189.3 256.801 189.65 256.33 189.89 255.802C190.129 255.273 190.254 254.699 190.254 254.118C190.254 253.026 189.823 251.978 189.057 251.206C188.29 250.434 187.251 250 186.167 250C185.083 250 184.044 250.434 183.278 251.206C182.511 251.978 182.081 253.026 182.081 254.118C182.081 254.699 182.205 255.273 182.444 255.802C182.684 256.33 183.034 256.801 183.47 257.181C182.326 257.703 181.355 258.546 180.674 259.609C179.993 260.673 179.63 261.911 179.629 263.176C179.629 263.395 179.715 263.604 179.868 263.759C180.021 263.913 180.229 264 180.446 264C180.663 264 180.871 263.913 181.024 263.759C181.177 263.604 181.263 263.395 181.263 263.176C181.263 261.866 181.78 260.609 182.7 259.683C183.619 258.756 184.867 258.235 186.167 258.235C187.468 258.235 188.715 258.756 189.635 259.683C190.554 260.609 191.071 261.866 191.071 263.176C191.071 263.395 191.157 263.604 191.31 263.759C191.464 263.913 191.671 264 191.888 264C192.105 264 192.313 263.913 192.466 263.759C192.619 263.604 192.705 263.395 192.705 263.176C192.704 261.911 192.341 260.673 191.66 259.609C190.979 258.546 190.008 257.703 188.864 257.181ZM186.167 256.588C185.682 256.588 185.208 256.443 184.805 256.172C184.402 255.9 184.087 255.515 183.902 255.063C183.716 254.612 183.668 254.115 183.762 253.636C183.857 253.156 184.09 252.716 184.433 252.371C184.776 252.025 185.213 251.79 185.689 251.695C186.164 251.599 186.657 251.648 187.105 251.835C187.553 252.022 187.936 252.339 188.206 252.745C188.475 253.151 188.619 253.629 188.619 254.118C188.619 254.773 188.361 255.401 187.901 255.865C187.441 256.328 186.817 256.588 186.167 256.588ZM194.128 256.852C194.651 256.258 194.992 255.525 195.111 254.741C195.231 253.956 195.122 253.153 194.799 252.429C194.476 251.705 193.952 251.091 193.291 250.66C192.63 250.229 191.859 250 191.071 250C190.854 250 190.646 250.087 190.493 250.241C190.34 250.396 190.254 250.605 190.254 250.824C190.254 251.042 190.34 251.251 190.493 251.406C190.646 251.56 190.854 251.647 191.071 251.647C191.721 251.647 192.345 251.907 192.805 252.371C193.264 252.834 193.523 253.462 193.523 254.118C193.522 254.55 193.408 254.975 193.193 255.349C192.977 255.723 192.669 256.034 192.297 256.251C192.176 256.321 192.074 256.422 192.003 256.543C191.931 256.664 191.892 256.801 191.888 256.942C191.885 257.082 191.917 257.221 191.981 257.344C192.045 257.468 192.14 257.574 192.256 257.651L192.575 257.865L192.681 257.922C193.666 258.393 194.497 259.138 195.076 260.069C195.656 261 195.959 262.078 195.95 263.176C195.95 263.395 196.036 263.604 196.189 263.759C196.343 263.913 196.551 264 196.767 264C196.984 264 197.192 263.913 197.345 263.759C197.499 263.604 197.585 263.395 197.585 263.176C197.591 261.913 197.277 260.668 196.672 259.561C196.067 258.454 195.191 257.522 194.128 256.852Z" fill="#6D6D6F"/>
<rect x="91.303" y="250" width="0.992424" height="14" fill="#EFEFEF"/>
<rect x="159.78" y="250" width="0.992424" height="14" fill="#EFEFEF"/>
<path d="M125.983 251.154C125.902 251.088 125.808 251.042 125.707 251.017C125.606 250.993 125.501 250.992 125.399 251.014C124.656 251.171 123.89 251.173 123.147 251.02C122.403 250.867 121.699 250.562 121.077 250.125C120.96 250.044 120.822 250 120.681 250C120.539 250 120.401 250.044 120.284 250.125C119.662 250.562 118.958 250.867 118.215 251.02C117.471 251.173 116.705 251.171 115.962 251.014C115.861 250.992 115.755 250.993 115.654 251.017C115.553 251.042 115.459 251.088 115.378 251.154C115.298 251.22 115.233 251.303 115.188 251.398C115.144 251.492 115.121 251.596 115.121 251.7V256.917C115.121 257.921 115.358 258.911 115.814 259.803C116.269 260.696 116.93 261.466 117.741 262.05L120.277 263.87C120.395 263.955 120.536 264 120.681 264C120.825 264 120.966 263.955 121.084 263.87L123.62 262.05C124.431 261.466 125.092 260.696 125.547 259.803C126.003 258.911 126.24 257.921 126.24 256.917V251.7C126.24 251.596 126.217 251.492 126.173 251.398C126.128 251.303 126.063 251.22 125.983 251.154ZM124.85 256.917C124.851 257.698 124.666 258.467 124.312 259.161C123.958 259.855 123.444 260.454 122.814 260.908L120.681 262.442L118.547 260.908C117.917 260.454 117.403 259.855 117.049 259.161C116.695 258.467 116.511 257.698 116.511 256.917V252.506C117.968 252.631 119.427 252.291 120.681 251.532C121.934 252.291 123.393 252.631 124.85 252.506V256.917ZM121.751 255.314L119.881 257.204L119.263 256.574C119.132 256.442 118.955 256.368 118.77 256.368C118.584 256.368 118.407 256.442 118.276 256.574C118.145 256.706 118.072 256.885 118.072 257.071C118.072 257.258 118.145 257.436 118.276 257.568L119.388 258.689C119.453 258.754 119.529 258.806 119.614 258.842C119.699 258.877 119.79 258.896 119.881 258.896C119.973 258.896 120.064 258.877 120.149 258.842C120.233 258.806 120.31 258.754 120.375 258.689L122.765 256.301C122.896 256.169 122.97 255.99 122.97 255.804C122.97 255.617 122.896 255.438 122.765 255.307C122.634 255.175 122.457 255.101 122.272 255.101C122.087 255.101 121.909 255.175 121.779 255.307L121.751 255.314Z" fill="#6D6D6F"/>
<rect x="26.7954" y="279" width="206.424" height="7" rx="3.5" fill="#F2F2F2"/>
<rect x="26.7954" y="279" width="122.068" height="7" rx="3.5" fill="#3C3D44"/>
<path d="M32.7017 305.223H34.1665C34.1196 305.781 33.9634 306.279 33.6978 306.717C33.4321 307.15 33.0591 307.492 32.5786 307.742C32.0981 307.992 31.5142 308.117 30.8267 308.117C30.2993 308.117 29.8247 308.023 29.4028 307.836C28.981 307.645 28.6196 307.375 28.3188 307.027C28.0181 306.676 27.7876 306.252 27.6274 305.756C27.4712 305.26 27.3931 304.705 27.3931 304.092V303.383C27.3931 302.77 27.4731 302.215 27.6333 301.719C27.7974 301.223 28.0317 300.799 28.3364 300.447C28.6411 300.092 29.0063 299.82 29.4321 299.633C29.8618 299.445 30.3442 299.352 30.8794 299.352C31.5591 299.352 32.1333 299.477 32.6021 299.727C33.0708 299.977 33.4341 300.322 33.6919 300.764C33.9536 301.205 34.1138 301.711 34.1724 302.281H32.7075C32.6685 301.914 32.5825 301.6 32.4497 301.338C32.3208 301.076 32.1294 300.877 31.8755 300.74C31.6216 300.6 31.2896 300.529 30.8794 300.529C30.5435 300.529 30.2505 300.592 30.0005 300.717C29.7505 300.842 29.5415 301.025 29.3735 301.268C29.2056 301.51 29.0786 301.809 28.9927 302.164C28.9106 302.516 28.8696 302.918 28.8696 303.371V304.092C28.8696 304.521 28.9067 304.912 28.981 305.264C29.0591 305.611 29.1763 305.91 29.3325 306.16C29.4927 306.41 29.6958 306.604 29.9419 306.74C30.188 306.877 30.4829 306.945 30.8267 306.945C31.2446 306.945 31.5825 306.879 31.8403 306.746C32.1021 306.613 32.2993 306.42 32.4321 306.166C32.5688 305.908 32.6587 305.594 32.7017 305.223ZM35.0923 304.9V304.766C35.0923 304.309 35.1587 303.885 35.2915 303.494C35.4243 303.1 35.6157 302.758 35.8657 302.469C36.1196 302.176 36.4282 301.949 36.7915 301.789C37.1587 301.625 37.5728 301.543 38.0337 301.543C38.4985 301.543 38.9126 301.625 39.2759 301.789C39.6431 301.949 39.9536 302.176 40.2075 302.469C40.4614 302.758 40.6548 303.1 40.7876 303.494C40.9204 303.885 40.9868 304.309 40.9868 304.766V304.9C40.9868 305.357 40.9204 305.781 40.7876 306.172C40.6548 306.562 40.4614 306.904 40.2075 307.197C39.9536 307.486 39.645 307.713 39.2817 307.877C38.9185 308.037 38.5063 308.117 38.0454 308.117C37.5806 308.117 37.1646 308.037 36.7974 307.877C36.4341 307.713 36.1255 307.486 35.8716 307.197C35.6177 306.904 35.4243 306.562 35.2915 306.172C35.1587 305.781 35.0923 305.357 35.0923 304.9ZM36.5044 304.766V304.9C36.5044 305.186 36.5337 305.455 36.5923 305.709C36.6509 305.963 36.7427 306.186 36.8677 306.377C36.9927 306.568 37.1528 306.719 37.3481 306.828C37.5435 306.938 37.7759 306.992 38.0454 306.992C38.3071 306.992 38.5337 306.938 38.7251 306.828C38.9204 306.719 39.0806 306.568 39.2056 306.377C39.3306 306.186 39.4224 305.963 39.481 305.709C39.5435 305.455 39.5747 305.186 39.5747 304.9V304.766C39.5747 304.484 39.5435 304.219 39.481 303.969C39.4224 303.715 39.3286 303.49 39.1997 303.295C39.0747 303.1 38.9146 302.947 38.7192 302.838C38.5278 302.725 38.2993 302.668 38.0337 302.668C37.7681 302.668 37.5376 302.725 37.3423 302.838C37.1509 302.947 36.9927 303.1 36.8677 303.295C36.7427 303.49 36.6509 303.715 36.5923 303.969C36.5337 304.219 36.5044 304.484 36.5044 304.766ZM43.5825 302.949V308H42.1704V301.66H43.5005L43.5825 302.949ZM43.354 304.596L42.8735 304.59C42.8735 304.152 42.9282 303.748 43.0376 303.377C43.147 303.006 43.3071 302.684 43.5181 302.41C43.729 302.133 43.9907 301.92 44.3032 301.771C44.6196 301.619 44.9849 301.543 45.3989 301.543C45.688 301.543 45.9517 301.586 46.1899 301.672C46.4321 301.754 46.6411 301.885 46.8169 302.064C46.9966 302.244 47.1333 302.475 47.2271 302.756C47.3247 303.037 47.3735 303.377 47.3735 303.775V308H45.9614V303.898C45.9614 303.59 45.9146 303.348 45.8208 303.172C45.731 302.996 45.6001 302.871 45.4282 302.797C45.2603 302.719 45.0591 302.68 44.8247 302.68C44.5591 302.68 44.3325 302.73 44.145 302.832C43.9614 302.934 43.811 303.072 43.6938 303.248C43.5767 303.424 43.4907 303.627 43.436 303.857C43.3813 304.088 43.354 304.334 43.354 304.596ZM47.2856 304.221L46.6235 304.367C46.6235 303.984 46.6763 303.623 46.7817 303.283C46.8911 302.939 47.0493 302.639 47.2563 302.381C47.4673 302.119 47.7271 301.914 48.0356 301.766C48.3442 301.617 48.6978 301.543 49.0962 301.543C49.4204 301.543 49.7095 301.588 49.9634 301.678C50.2212 301.764 50.4399 301.9 50.6196 302.088C50.7993 302.275 50.936 302.52 51.0298 302.82C51.1235 303.117 51.1704 303.477 51.1704 303.898V308H49.7524V303.893C49.7524 303.572 49.7056 303.324 49.6118 303.148C49.522 302.973 49.3931 302.852 49.2251 302.785C49.0571 302.715 48.856 302.68 48.6216 302.68C48.4028 302.68 48.2095 302.721 48.0415 302.803C47.8774 302.881 47.7388 302.992 47.6255 303.137C47.5122 303.277 47.4263 303.439 47.3677 303.623C47.313 303.807 47.2856 304.006 47.2856 304.221ZM54.0415 302.879V310.438H52.6294V301.66H53.9302L54.0415 302.879ZM58.1724 304.771V304.895C58.1724 305.355 58.1177 305.783 58.0083 306.178C57.9028 306.568 57.7446 306.91 57.5337 307.203C57.3267 307.492 57.0708 307.717 56.7661 307.877C56.4614 308.037 56.1099 308.117 55.7114 308.117C55.3169 308.117 54.9712 308.045 54.6743 307.9C54.3813 307.752 54.1333 307.543 53.9302 307.273C53.7271 307.004 53.563 306.688 53.438 306.324C53.3169 305.957 53.231 305.555 53.1802 305.117V304.643C53.231 304.178 53.3169 303.756 53.438 303.377C53.563 302.998 53.7271 302.672 53.9302 302.398C54.1333 302.125 54.3813 301.914 54.6743 301.766C54.9673 301.617 55.3091 301.543 55.6997 301.543C56.0981 301.543 56.4517 301.621 56.7603 301.777C57.0688 301.93 57.3286 302.148 57.5396 302.434C57.7505 302.715 57.9087 303.055 58.0142 303.453C58.1196 303.848 58.1724 304.287 58.1724 304.771ZM56.7603 304.895V304.771C56.7603 304.479 56.7329 304.207 56.6782 303.957C56.6235 303.703 56.5376 303.48 56.4204 303.289C56.3032 303.098 56.1528 302.949 55.9692 302.844C55.7896 302.734 55.5728 302.68 55.3188 302.68C55.0688 302.68 54.854 302.723 54.6743 302.809C54.4946 302.891 54.3442 303.006 54.2231 303.154C54.1021 303.303 54.0083 303.477 53.9419 303.676C53.8755 303.871 53.8286 304.084 53.8013 304.314V305.451C53.8481 305.732 53.9282 305.99 54.0415 306.225C54.1548 306.459 54.3149 306.646 54.522 306.787C54.7329 306.924 55.0024 306.992 55.3306 306.992C55.5845 306.992 55.8013 306.938 55.981 306.828C56.1606 306.719 56.3071 306.568 56.4204 306.377C56.5376 306.182 56.6235 305.957 56.6782 305.703C56.7329 305.449 56.7603 305.18 56.7603 304.895ZM60.8853 299V308H59.4673V299H60.8853ZM65.2271 308.117C64.7583 308.117 64.3345 308.041 63.9556 307.889C63.5806 307.732 63.2603 307.516 62.9946 307.238C62.7329 306.961 62.5317 306.635 62.3911 306.26C62.2505 305.885 62.1802 305.48 62.1802 305.047V304.812C62.1802 304.316 62.2524 303.867 62.397 303.465C62.5415 303.062 62.7427 302.719 63.0005 302.434C63.2583 302.145 63.563 301.924 63.9146 301.771C64.2661 301.619 64.647 301.543 65.0571 301.543C65.5103 301.543 65.9067 301.619 66.2466 301.771C66.5864 301.924 66.8677 302.139 67.0903 302.416C67.3169 302.689 67.4849 303.016 67.5942 303.395C67.7075 303.773 67.7642 304.191 67.7642 304.648V305.252H62.8657V304.238H66.3696V304.127C66.3618 303.873 66.311 303.635 66.2173 303.412C66.1274 303.189 65.9888 303.01 65.8013 302.873C65.6138 302.736 65.3638 302.668 65.0513 302.668C64.8169 302.668 64.6079 302.719 64.4243 302.82C64.2446 302.918 64.0942 303.061 63.9731 303.248C63.8521 303.436 63.7583 303.662 63.6919 303.928C63.6294 304.189 63.5981 304.484 63.5981 304.812V305.047C63.5981 305.324 63.6353 305.582 63.7095 305.82C63.7876 306.055 63.9009 306.26 64.0493 306.436C64.1978 306.611 64.3774 306.75 64.5884 306.852C64.7993 306.949 65.0396 306.998 65.3091 306.998C65.6489 306.998 65.9517 306.93 66.2173 306.793C66.4829 306.656 66.7134 306.463 66.9087 306.213L67.6528 306.934C67.5161 307.133 67.3384 307.324 67.1196 307.508C66.9009 307.688 66.6333 307.834 66.3169 307.947C66.0044 308.061 65.6411 308.117 65.2271 308.117ZM71.772 301.66V302.691H68.1978V301.66H71.772ZM69.229 300.107H70.6411V306.248C70.6411 306.443 70.6685 306.594 70.7231 306.699C70.7817 306.801 70.8618 306.869 70.9634 306.904C71.0649 306.939 71.1841 306.957 71.3208 306.957C71.4185 306.957 71.5122 306.951 71.6021 306.939C71.6919 306.928 71.7642 306.916 71.8188 306.904L71.8247 307.982C71.7075 308.018 71.5708 308.049 71.4146 308.076C71.2622 308.104 71.0864 308.117 70.8872 308.117C70.563 308.117 70.2759 308.061 70.0259 307.947C69.7759 307.83 69.5806 307.641 69.4399 307.379C69.2993 307.117 69.229 306.77 69.229 306.336V300.107ZM75.6567 308.117C75.188 308.117 74.7642 308.041 74.3853 307.889C74.0103 307.732 73.6899 307.516 73.4243 307.238C73.1626 306.961 72.9614 306.635 72.8208 306.26C72.6802 305.885 72.6099 305.48 72.6099 305.047V304.812C72.6099 304.316 72.6821 303.867 72.8267 303.465C72.9712 303.062 73.1724 302.719 73.4302 302.434C73.688 302.145 73.9927 301.924 74.3442 301.771C74.6958 301.619 75.0767 301.543 75.4868 301.543C75.9399 301.543 76.3364 301.619 76.6763 301.771C77.0161 301.924 77.2974 302.139 77.52 302.416C77.7466 302.689 77.9146 303.016 78.0239 303.395C78.1372 303.773 78.1938 304.191 78.1938 304.648V305.252H73.2954V304.238H76.7993V304.127C76.7915 303.873 76.7407 303.635 76.647 303.412C76.5571 303.189 76.4185 303.01 76.231 302.873C76.0435 302.736 75.7935 302.668 75.481 302.668C75.2466 302.668 75.0376 302.719 74.854 302.82C74.6743 302.918 74.5239 303.061 74.4028 303.248C74.2817 303.436 74.188 303.662 74.1216 303.928C74.0591 304.189 74.0278 304.484 74.0278 304.812V305.047C74.0278 305.324 74.0649 305.582 74.1392 305.82C74.2173 306.055 74.3306 306.26 74.479 306.436C74.6274 306.611 74.8071 306.75 75.0181 306.852C75.229 306.949 75.4692 306.998 75.7388 306.998C76.0786 306.998 76.3813 306.93 76.647 306.793C76.9126 306.656 77.1431 306.463 77.3384 306.213L78.0825 306.934C77.9458 307.133 77.7681 307.324 77.5493 307.508C77.3306 307.688 77.063 307.834 76.7466 307.947C76.4341 308.061 76.0708 308.117 75.6567 308.117ZM83.1626 306.688V299H84.5806V308H83.2974L83.1626 306.688ZM79.0376 304.9V304.777C79.0376 304.297 79.0942 303.859 79.2075 303.465C79.3208 303.066 79.4849 302.725 79.6997 302.439C79.9146 302.15 80.1763 301.93 80.4849 301.777C80.7935 301.621 81.1411 301.543 81.5278 301.543C81.9106 301.543 82.2466 301.617 82.5356 301.766C82.8247 301.914 83.0708 302.127 83.2739 302.404C83.4771 302.678 83.6392 303.006 83.7603 303.389C83.8813 303.768 83.9673 304.189 84.0181 304.654V305.047C83.9673 305.5 83.8813 305.914 83.7603 306.289C83.6392 306.664 83.4771 306.988 83.2739 307.262C83.0708 307.535 82.8228 307.746 82.5298 307.895C82.2407 308.043 81.9028 308.117 81.5161 308.117C81.1333 308.117 80.7876 308.037 80.479 307.877C80.1743 307.717 79.9146 307.492 79.6997 307.203C79.4849 306.914 79.3208 306.574 79.2075 306.184C79.0942 305.789 79.0376 305.361 79.0376 304.9ZM80.4497 304.777V304.9C80.4497 305.189 80.4751 305.459 80.5259 305.709C80.5806 305.959 80.6646 306.18 80.7778 306.371C80.8911 306.559 81.0376 306.707 81.2173 306.816C81.4009 306.922 81.6196 306.975 81.8735 306.975C82.1938 306.975 82.4575 306.904 82.6646 306.764C82.8716 306.623 83.0337 306.434 83.1509 306.195C83.272 305.953 83.354 305.684 83.397 305.387V304.326C83.3735 304.096 83.3247 303.881 83.2505 303.682C83.1802 303.482 83.0845 303.309 82.9634 303.16C82.8423 303.008 82.6919 302.891 82.5122 302.809C82.3364 302.723 82.1274 302.68 81.8853 302.68C81.6274 302.68 81.4087 302.734 81.229 302.844C81.0493 302.953 80.9009 303.104 80.7837 303.295C80.6704 303.486 80.5864 303.709 80.5317 303.963C80.4771 304.217 80.4497 304.488 80.4497 304.777ZM86.0747 307.297C86.0747 307.078 86.1489 306.895 86.2974 306.746C86.4458 306.594 86.647 306.518 86.9009 306.518C87.1587 306.518 87.3599 306.594 87.5044 306.746C87.6528 306.895 87.7271 307.078 87.7271 307.297C87.7271 307.516 87.6528 307.699 87.5044 307.848C87.3599 307.996 87.1587 308.07 86.9009 308.07C86.647 308.07 86.4458 307.996 86.2974 307.848C86.1489 307.699 86.0747 307.516 86.0747 307.297ZM86.0806 302.305C86.0806 302.086 86.1548 301.902 86.3032 301.754C86.4517 301.602 86.6528 301.525 86.9067 301.525C87.1646 301.525 87.3657 301.602 87.5103 301.754C87.6587 301.902 87.7329 302.086 87.7329 302.305C87.7329 302.523 87.6587 302.707 87.5103 302.855C87.3657 303.004 87.1646 303.078 86.9067 303.078C86.6528 303.078 86.4517 303.004 86.3032 302.855C86.1548 302.707 86.0806 302.523 86.0806 302.305ZM96.3931 299.416H96.5688V300.57H96.4692C95.9653 300.57 95.5298 300.648 95.1626 300.805C94.7993 300.961 94.5005 301.176 94.2661 301.449C94.0317 301.723 93.856 302.043 93.7388 302.41C93.6255 302.773 93.5688 303.16 93.5688 303.57V304.912C93.5688 305.252 93.606 305.553 93.6802 305.814C93.7544 306.072 93.8579 306.289 93.9907 306.465C94.1274 306.637 94.2837 306.768 94.4595 306.857C94.6353 306.947 94.8247 306.992 95.0278 306.992C95.2388 306.992 95.4302 306.949 95.6021 306.863C95.7739 306.773 95.9204 306.65 96.0415 306.494C96.1626 306.338 96.2544 306.152 96.3169 305.938C96.3794 305.723 96.4106 305.488 96.4106 305.234C96.4106 304.992 96.3794 304.766 96.3169 304.555C96.2583 304.34 96.1704 304.152 96.0532 303.992C95.936 303.828 95.7896 303.701 95.6138 303.611C95.4419 303.518 95.2427 303.471 95.0161 303.471C94.7349 303.471 94.479 303.537 94.2485 303.67C94.022 303.803 93.8384 303.977 93.6978 304.191C93.561 304.402 93.4868 304.627 93.4751 304.865L92.936 304.689C92.9673 304.326 93.0474 304 93.1763 303.711C93.3091 303.422 93.4829 303.176 93.6978 302.973C93.9126 302.77 94.1606 302.615 94.4419 302.51C94.7271 302.4 95.0396 302.346 95.3794 302.346C95.7935 302.346 96.1528 302.424 96.4575 302.58C96.7622 302.736 97.0142 302.949 97.2134 303.219C97.4165 303.484 97.5669 303.789 97.6646 304.133C97.7661 304.473 97.8169 304.828 97.8169 305.199C97.8169 305.609 97.7544 305.992 97.6294 306.348C97.5044 306.699 97.3208 307.008 97.0786 307.273C96.8403 307.539 96.5493 307.746 96.2056 307.895C95.8657 308.043 95.479 308.117 95.0454 308.117C94.5884 308.117 94.1802 308.029 93.8208 307.854C93.4653 307.678 93.1626 307.436 92.9126 307.127C92.6665 306.818 92.479 306.463 92.3501 306.061C92.2212 305.658 92.1567 305.232 92.1567 304.783V304.197C92.1567 303.549 92.2388 302.938 92.4028 302.363C92.5669 301.785 92.8188 301.275 93.1587 300.834C93.5024 300.393 93.9419 300.047 94.4771 299.797C95.0122 299.543 95.6509 299.416 96.3931 299.416ZM100.43 304.033L99.3052 303.758L99.7681 299.469H104.368V300.664H100.94L100.706 302.756C100.838 302.678 101.022 302.602 101.256 302.527C101.491 302.449 101.758 302.41 102.059 302.41C102.461 302.41 102.821 302.477 103.137 302.609C103.458 302.738 103.729 302.928 103.952 303.178C104.174 303.424 104.344 303.725 104.461 304.08C104.579 304.432 104.637 304.828 104.637 305.27C104.637 305.664 104.579 306.033 104.461 306.377C104.348 306.721 104.176 307.023 103.946 307.285C103.715 307.547 103.424 307.752 103.073 307.9C102.725 308.045 102.313 308.117 101.836 308.117C101.481 308.117 101.139 308.066 100.811 307.965C100.487 307.859 100.196 307.705 99.938 307.502C99.6802 307.295 99.4731 307.041 99.3169 306.74C99.1606 306.436 99.0708 306.086 99.0474 305.691H100.43C100.465 305.969 100.542 306.205 100.659 306.4C100.78 306.592 100.94 306.738 101.139 306.84C101.338 306.941 101.569 306.992 101.831 306.992C102.069 306.992 102.274 306.951 102.446 306.869C102.618 306.783 102.76 306.662 102.874 306.506C102.991 306.346 103.077 306.158 103.131 305.943C103.19 305.729 103.219 305.49 103.219 305.229C103.219 304.979 103.186 304.75 103.12 304.543C103.057 304.336 102.961 304.156 102.833 304.004C102.708 303.852 102.549 303.734 102.358 303.652C102.167 303.566 101.946 303.523 101.696 303.523C101.36 303.523 101.102 303.572 100.922 303.67C100.747 303.768 100.583 303.889 100.43 304.033ZM105.709 301.561V301.109C105.709 300.785 105.78 300.49 105.92 300.225C106.061 299.959 106.266 299.746 106.536 299.586C106.805 299.426 107.129 299.346 107.508 299.346C107.899 299.346 108.227 299.426 108.493 299.586C108.762 299.746 108.967 299.959 109.108 300.225C109.249 300.49 109.319 300.785 109.319 301.109V301.561C109.319 301.877 109.249 302.168 109.108 302.434C108.971 302.699 108.768 302.912 108.499 303.072C108.233 303.232 107.907 303.312 107.52 303.312C107.137 303.312 106.809 303.232 106.536 303.072C106.266 302.912 106.061 302.699 105.92 302.434C105.78 302.168 105.709 301.877 105.709 301.561ZM106.688 301.109V301.561C106.688 301.717 106.717 301.865 106.776 302.006C106.838 302.146 106.932 302.26 107.057 302.346C107.182 302.432 107.336 302.475 107.52 302.475C107.708 302.475 107.86 302.432 107.977 302.346C108.098 302.26 108.188 302.146 108.247 302.006C108.305 301.865 108.334 301.717 108.334 301.561V301.109C108.334 300.949 108.303 300.799 108.241 300.658C108.182 300.514 108.092 300.398 107.971 300.312C107.85 300.227 107.696 300.184 107.508 300.184C107.329 300.184 107.176 300.227 107.051 300.312C106.93 300.398 106.838 300.514 106.776 300.658C106.717 300.799 106.688 300.949 106.688 301.109ZM109.823 306.365V305.908C109.823 305.588 109.893 305.295 110.034 305.029C110.178 304.764 110.385 304.551 110.655 304.391C110.924 304.23 111.249 304.15 111.627 304.15C112.018 304.15 112.346 304.23 112.612 304.391C112.881 304.551 113.084 304.764 113.221 305.029C113.362 305.295 113.432 305.588 113.432 305.908V306.365C113.432 306.686 113.362 306.979 113.221 307.244C113.084 307.51 112.883 307.723 112.618 307.883C112.352 308.043 112.028 308.123 111.645 308.123C111.258 308.123 110.928 308.043 110.655 307.883C110.385 307.723 110.178 307.51 110.034 307.244C109.893 306.979 109.823 306.686 109.823 306.365ZM110.807 305.908V306.365C110.807 306.521 110.838 306.67 110.901 306.811C110.967 306.951 111.063 307.066 111.188 307.156C111.313 307.242 111.463 307.285 111.639 307.285C111.838 307.285 111.999 307.242 112.12 307.156C112.241 307.066 112.327 306.953 112.377 306.816C112.432 306.676 112.459 306.525 112.459 306.365V305.908C112.459 305.748 112.428 305.598 112.366 305.457C112.307 305.316 112.215 305.203 112.09 305.117C111.969 305.031 111.815 304.988 111.627 304.988C111.444 304.988 111.292 305.031 111.17 305.117C111.049 305.203 110.958 305.316 110.895 305.457C110.836 305.598 110.807 305.748 110.807 305.908ZM111.979 300.688L107.813 307.355L107.092 306.939L111.258 300.271L111.979 300.688Z" fill="#9A9FA5"/>
<path d="M181.346 308H179.523L179.535 306.834H181.346C181.873 306.834 182.314 306.719 182.67 306.488C183.029 306.258 183.299 305.928 183.479 305.498C183.662 305.068 183.754 304.557 183.754 303.963V303.5C183.754 303.039 183.701 302.631 183.596 302.275C183.494 301.92 183.342 301.621 183.139 301.379C182.939 301.137 182.693 300.953 182.4 300.828C182.111 300.703 181.777 300.641 181.398 300.641H179.488V299.469H181.398C181.965 299.469 182.482 299.564 182.951 299.756C183.42 299.943 183.824 300.215 184.164 300.57C184.508 300.926 184.771 301.352 184.955 301.848C185.139 302.344 185.23 302.898 185.23 303.512V303.963C185.23 304.576 185.139 305.131 184.955 305.627C184.771 306.123 184.508 306.549 184.164 306.904C183.82 307.256 183.41 307.527 182.934 307.719C182.461 307.906 181.932 308 181.346 308ZM180.338 299.469V308H178.867V299.469H180.338ZM190.141 306.729V303.705C190.141 303.479 190.1 303.283 190.018 303.119C189.936 302.955 189.811 302.828 189.643 302.738C189.479 302.648 189.271 302.604 189.021 302.604C188.791 302.604 188.592 302.643 188.424 302.721C188.256 302.799 188.125 302.904 188.031 303.037C187.938 303.17 187.891 303.32 187.891 303.488H186.484C186.484 303.238 186.545 302.996 186.666 302.762C186.787 302.527 186.963 302.318 187.193 302.135C187.424 301.951 187.699 301.807 188.02 301.701C188.34 301.596 188.699 301.543 189.098 301.543C189.574 301.543 189.996 301.623 190.363 301.783C190.734 301.943 191.025 302.186 191.236 302.51C191.451 302.83 191.559 303.232 191.559 303.717V306.535C191.559 306.824 191.578 307.084 191.617 307.314C191.66 307.541 191.721 307.738 191.799 307.906V308H190.352C190.285 307.848 190.232 307.654 190.193 307.42C190.158 307.182 190.141 306.951 190.141 306.729ZM190.346 304.145L190.357 305.018H189.344C189.082 305.018 188.852 305.043 188.652 305.094C188.453 305.141 188.287 305.211 188.154 305.305C188.021 305.398 187.922 305.512 187.855 305.645C187.789 305.777 187.756 305.928 187.756 306.096C187.756 306.264 187.795 306.418 187.873 306.559C187.951 306.695 188.064 306.803 188.213 306.881C188.365 306.959 188.549 306.998 188.764 306.998C189.053 306.998 189.305 306.939 189.52 306.822C189.738 306.701 189.91 306.555 190.035 306.383C190.16 306.207 190.227 306.041 190.234 305.885L190.691 306.512C190.645 306.672 190.564 306.844 190.451 307.027C190.338 307.211 190.189 307.387 190.006 307.555C189.826 307.719 189.609 307.854 189.355 307.959C189.105 308.064 188.816 308.117 188.488 308.117C188.074 308.117 187.705 308.035 187.381 307.871C187.057 307.703 186.803 307.479 186.619 307.197C186.436 306.912 186.344 306.59 186.344 306.23C186.344 305.895 186.406 305.598 186.531 305.34C186.66 305.078 186.848 304.859 187.094 304.684C187.344 304.508 187.648 304.375 188.008 304.285C188.367 304.191 188.777 304.145 189.238 304.145H190.346ZM194.781 307.309L196.504 301.66H198.016L195.473 308.967C195.414 309.123 195.338 309.293 195.244 309.477C195.15 309.66 195.027 309.834 194.875 309.998C194.727 310.166 194.541 310.301 194.318 310.402C194.096 310.508 193.826 310.561 193.51 310.561C193.385 310.561 193.264 310.549 193.146 310.525C193.033 310.506 192.926 310.484 192.824 310.461L192.818 309.383C192.857 309.387 192.904 309.391 192.959 309.395C193.018 309.398 193.064 309.4 193.1 309.4C193.334 309.4 193.529 309.371 193.686 309.312C193.842 309.258 193.969 309.168 194.066 309.043C194.168 308.918 194.254 308.75 194.324 308.539L194.781 307.309ZM193.809 301.66L195.314 306.406L195.566 307.895L194.588 308.146L192.285 301.66H193.809ZM202.381 306.283C202.381 306.143 202.346 306.016 202.275 305.902C202.205 305.785 202.07 305.68 201.871 305.586C201.676 305.492 201.387 305.406 201.004 305.328C200.668 305.254 200.359 305.166 200.078 305.064C199.801 304.959 199.562 304.832 199.363 304.684C199.164 304.535 199.01 304.359 198.9 304.156C198.791 303.953 198.736 303.719 198.736 303.453C198.736 303.195 198.793 302.951 198.906 302.721C199.02 302.49 199.182 302.287 199.393 302.111C199.604 301.936 199.859 301.797 200.16 301.695C200.465 301.594 200.805 301.543 201.18 301.543C201.711 301.543 202.166 301.633 202.545 301.812C202.928 301.988 203.221 302.229 203.424 302.533C203.627 302.834 203.729 303.174 203.729 303.553H202.316C202.316 303.385 202.273 303.229 202.188 303.084C202.105 302.936 201.98 302.816 201.812 302.727C201.645 302.633 201.434 302.586 201.18 302.586C200.938 302.586 200.736 302.625 200.576 302.703C200.42 302.777 200.303 302.875 200.225 302.996C200.15 303.117 200.113 303.25 200.113 303.395C200.113 303.5 200.133 303.596 200.172 303.682C200.215 303.764 200.285 303.84 200.383 303.91C200.48 303.977 200.613 304.039 200.781 304.098C200.953 304.156 201.168 304.213 201.426 304.268C201.91 304.369 202.326 304.5 202.674 304.66C203.025 304.816 203.295 305.02 203.482 305.27C203.67 305.516 203.764 305.828 203.764 306.207C203.764 306.488 203.703 306.746 203.582 306.98C203.465 307.211 203.293 307.412 203.066 307.584C202.84 307.752 202.568 307.883 202.252 307.977C201.939 308.07 201.588 308.117 201.197 308.117C200.623 308.117 200.137 308.016 199.738 307.812C199.34 307.605 199.037 307.342 198.83 307.021C198.627 306.697 198.525 306.361 198.525 306.014H199.891C199.906 306.275 199.979 306.484 200.107 306.641C200.24 306.793 200.404 306.904 200.6 306.975C200.799 307.041 201.004 307.074 201.215 307.074C201.469 307.074 201.682 307.041 201.854 306.975C202.025 306.904 202.156 306.811 202.246 306.693C202.336 306.572 202.381 306.436 202.381 306.283ZM205.018 307.297C205.018 307.078 205.092 306.895 205.24 306.746C205.389 306.594 205.59 306.518 205.844 306.518C206.102 306.518 206.303 306.594 206.447 306.746C206.596 306.895 206.67 307.078 206.67 307.297C206.67 307.516 206.596 307.699 206.447 307.848C206.303 307.996 206.102 308.07 205.844 308.07C205.59 308.07 205.389 307.996 205.24 307.848C205.092 307.699 205.018 307.516 205.018 307.297ZM205.023 302.305C205.023 302.086 205.098 301.902 205.246 301.754C205.395 301.602 205.596 301.525 205.85 301.525C206.107 301.525 206.309 301.602 206.453 301.754C206.602 301.902 206.676 302.086 206.676 302.305C206.676 302.523 206.602 302.707 206.453 302.855C206.309 303.004 206.107 303.078 205.85 303.078C205.596 303.078 205.395 303.004 205.246 302.855C205.098 302.707 205.023 302.523 205.023 302.305ZM216.789 306.875V308H211.07V307.033L213.848 304.004C214.152 303.66 214.393 303.363 214.568 303.113C214.744 302.863 214.867 302.639 214.938 302.439C215.012 302.236 215.049 302.039 215.049 301.848C215.049 301.578 214.998 301.342 214.896 301.139C214.799 300.932 214.654 300.77 214.463 300.652C214.271 300.531 214.039 300.471 213.766 300.471C213.449 300.471 213.184 300.539 212.969 300.676C212.754 300.812 212.592 301.002 212.482 301.244C212.373 301.482 212.318 301.756 212.318 302.064H210.906C210.906 301.568 211.02 301.115 211.246 300.705C211.473 300.291 211.801 299.963 212.23 299.721C212.66 299.475 213.178 299.352 213.783 299.352C214.354 299.352 214.838 299.447 215.236 299.639C215.635 299.83 215.938 300.102 216.145 300.453C216.355 300.805 216.461 301.221 216.461 301.701C216.461 301.967 216.418 302.23 216.332 302.492C216.246 302.754 216.123 303.016 215.963 303.277C215.807 303.535 215.621 303.795 215.406 304.057C215.191 304.314 214.955 304.576 214.697 304.842L212.852 306.875H216.789ZM223.609 306.875V308H217.891V307.033L220.668 304.004C220.973 303.66 221.213 303.363 221.389 303.113C221.564 302.863 221.688 302.639 221.758 302.439C221.832 302.236 221.869 302.039 221.869 301.848C221.869 301.578 221.818 301.342 221.717 301.139C221.619 300.932 221.475 300.77 221.283 300.652C221.092 300.531 220.859 300.471 220.586 300.471C220.27 300.471 220.004 300.539 219.789 300.676C219.574 300.812 219.412 301.002 219.303 301.244C219.193 301.482 219.139 301.756 219.139 302.064H217.727C217.727 301.568 217.84 301.115 218.066 300.705C218.293 300.291 218.621 299.963 219.051 299.721C219.48 299.475 219.998 299.352 220.604 299.352C221.174 299.352 221.658 299.447 222.057 299.639C222.455 299.83 222.758 300.102 222.965 300.453C223.176 300.805 223.281 301.221 223.281 301.701C223.281 301.967 223.238 302.23 223.152 302.492C223.066 302.754 222.943 303.016 222.783 303.277C222.627 303.535 222.441 303.795 222.227 304.057C222.012 304.314 221.775 304.576 221.518 304.842L219.672 306.875H223.609ZM228.502 299.469L225.18 308.732H224.072L227.4 299.469H228.502ZM231.057 303.096H231.9C232.229 303.096 232.5 303.039 232.715 302.926C232.934 302.812 233.096 302.656 233.201 302.457C233.307 302.258 233.359 302.029 233.359 301.771C233.359 301.502 233.311 301.271 233.213 301.08C233.119 300.885 232.975 300.734 232.779 300.629C232.588 300.523 232.344 300.471 232.047 300.471C231.797 300.471 231.57 300.521 231.367 300.623C231.168 300.721 231.01 300.861 230.893 301.045C230.775 301.225 230.717 301.439 230.717 301.689H229.299C229.299 301.236 229.418 300.834 229.656 300.482C229.895 300.131 230.219 299.855 230.629 299.656C231.043 299.453 231.508 299.352 232.023 299.352C232.574 299.352 233.055 299.443 233.465 299.627C233.879 299.807 234.201 300.076 234.432 300.436C234.662 300.795 234.777 301.24 234.777 301.771C234.777 302.014 234.721 302.26 234.607 302.51C234.494 302.76 234.326 302.988 234.104 303.195C233.881 303.398 233.604 303.564 233.271 303.693C232.939 303.818 232.555 303.881 232.117 303.881H231.057V303.096ZM231.057 304.197V303.424H232.117C232.617 303.424 233.043 303.482 233.395 303.6C233.75 303.717 234.039 303.879 234.262 304.086C234.484 304.289 234.646 304.521 234.748 304.783C234.854 305.045 234.906 305.322 234.906 305.615C234.906 306.014 234.834 306.369 234.689 306.682C234.549 306.99 234.348 307.252 234.086 307.467C233.824 307.682 233.518 307.844 233.166 307.953C232.818 308.062 232.439 308.117 232.029 308.117C231.662 308.117 231.311 308.066 230.975 307.965C230.639 307.863 230.338 307.713 230.072 307.514C229.807 307.311 229.596 307.059 229.439 306.758C229.287 306.453 229.211 306.102 229.211 305.703H230.623C230.623 305.957 230.682 306.182 230.799 306.377C230.92 306.568 231.088 306.719 231.303 306.828C231.521 306.938 231.771 306.992 232.053 306.992C232.35 306.992 232.605 306.939 232.82 306.834C233.035 306.729 233.199 306.572 233.312 306.365C233.43 306.158 233.488 305.908 233.488 305.615C233.488 305.283 233.424 305.014 233.295 304.807C233.166 304.6 232.982 304.447 232.744 304.35C232.506 304.248 232.225 304.197 231.9 304.197H231.057ZM237.701 304.033L236.576 303.758L237.039 299.469H241.639V300.664H238.211L237.977 302.756C238.109 302.678 238.293 302.602 238.527 302.527C238.762 302.449 239.029 302.41 239.33 302.41C239.732 302.41 240.092 302.477 240.408 302.609C240.729 302.738 241 302.928 241.223 303.178C241.445 303.424 241.615 303.725 241.732 304.08C241.85 304.432 241.908 304.828 241.908 305.27C241.908 305.664 241.85 306.033 241.732 306.377C241.619 306.721 241.447 307.023 241.217 307.285C240.986 307.547 240.695 307.752 240.344 307.9C239.996 308.045 239.584 308.117 239.107 308.117C238.752 308.117 238.41 308.066 238.082 307.965C237.758 307.859 237.467 307.705 237.209 307.502C236.951 307.295 236.744 307.041 236.588 306.74C236.432 306.436 236.342 306.086 236.318 305.691H237.701C237.736 305.969 237.812 306.205 237.93 306.4C238.051 306.592 238.211 306.738 238.41 306.84C238.609 306.941 238.84 306.992 239.102 306.992C239.34 306.992 239.545 306.951 239.717 306.869C239.889 306.783 240.031 306.662 240.145 306.506C240.262 306.346 240.348 306.158 240.402 305.943C240.461 305.729 240.49 305.49 240.49 305.229C240.49 304.979 240.457 304.75 240.391 304.543C240.328 304.336 240.232 304.156 240.104 304.004C239.979 303.852 239.82 303.734 239.629 303.652C239.438 303.566 239.217 303.523 238.967 303.523C238.631 303.523 238.373 303.572 238.193 303.67C238.018 303.768 237.854 303.889 237.701 304.033Z" fill="#9A9FA5"/>
</svg>
