<svg width="262" height="329" viewBox="0 0 262 329" fill="none" xmlns="http://www.w3.org/2000/svg">
<rect width="262" height="329" rx="15" fill="white"/>
<rect x="9" y="8" width="245" height="210" rx="15" fill="#EDC445"/>
<path d="M37.0186 79.8516H41.7646C41.6865 81.3164 41.2861 82.6104 40.5635 83.7334C39.8506 84.8467 38.8594 85.7207 37.5898 86.3555C36.3203 86.9805 34.8115 87.293 33.0635 87.293C31.667 87.293 30.417 87.0537 29.3135 86.5752C28.21 86.0967 27.2725 85.4131 26.501 84.5244C25.7393 83.626 25.1533 82.5469 24.7432 81.2871C24.3428 80.0176 24.1426 78.5869 24.1426 76.9951V75.6914C24.1426 74.0996 24.3525 72.6689 24.7725 71.3994C25.1924 70.1299 25.793 69.0459 26.5742 68.1475C27.3555 67.249 28.293 66.5605 29.3867 66.082C30.4805 65.6035 31.7012 65.3643 33.0488 65.3643C34.8652 65.3643 36.3984 65.6914 37.6484 66.3457C38.8984 67 39.8652 67.8984 40.5488 69.041C41.2422 70.1836 41.6572 71.4873 41.7939 72.9521H37.0332C36.9941 72.1221 36.8379 71.4238 36.5645 70.8574C36.291 70.2812 35.8711 69.8467 35.3047 69.5537C34.7383 69.2607 33.9863 69.1143 33.0488 69.1143C32.3652 69.1143 31.7646 69.2412 31.2471 69.4951C30.7393 69.749 30.3145 70.1445 29.9727 70.6816C29.6406 71.2188 29.3916 71.9023 29.2256 72.7324C29.0596 73.5527 28.9766 74.5293 28.9766 75.6621V76.9951C28.9766 78.1182 29.0498 79.0898 29.1963 79.9102C29.3428 80.7305 29.5771 81.4092 29.8994 81.9463C30.2314 82.4834 30.6562 82.8838 31.1738 83.1475C31.6914 83.4111 32.3213 83.543 33.0635 83.543C33.9131 83.543 34.6211 83.4111 35.1875 83.1475C35.7539 82.874 36.1885 82.4639 36.4912 81.917C36.7939 81.3701 36.9697 80.6816 37.0186 79.8516ZM49.001 64.5V87H44.416V64.5H49.001ZM60.6904 83.2207V76.4238C60.6904 75.9453 60.6172 75.5352 60.4707 75.1934C60.3242 74.8516 60.0947 74.583 59.7822 74.3877C59.4697 74.1924 59.0645 74.0947 58.5664 74.0947C58.1465 74.0947 57.7803 74.168 57.4678 74.3145C57.165 74.4609 56.9307 74.6709 56.7646 74.9443C56.6084 75.2178 56.5303 75.5547 56.5303 75.9551H51.96C51.96 75.2422 52.1211 74.5781 52.4434 73.9629C52.7656 73.3477 53.2246 72.8057 53.8203 72.3369C54.4258 71.8682 55.1484 71.5068 55.9883 71.2529C56.8281 70.9893 57.7705 70.8574 58.8154 70.8574C60.0557 70.8574 61.1592 71.0674 62.126 71.4873C63.1025 71.8975 63.874 72.5176 64.4404 73.3477C65.0068 74.168 65.29 75.2031 65.29 76.4531V83.0889C65.29 84.0459 65.3438 84.7979 65.4512 85.3447C65.5684 85.8818 65.7344 86.3506 65.9492 86.751V87H61.335C61.1201 86.541 60.959 85.9746 60.8516 85.3008C60.7441 84.6172 60.6904 83.9238 60.6904 83.2207ZM61.2617 77.332L61.291 79.8516H59.0205C58.5127 79.8516 58.0732 79.915 57.7021 80.042C57.3408 80.1689 57.0479 80.3447 56.8232 80.5693C56.5986 80.7842 56.4326 81.0381 56.3252 81.3311C56.2275 81.6143 56.1787 81.9268 56.1787 82.2686C56.1787 82.5908 56.2568 82.8838 56.4131 83.1475C56.5693 83.4014 56.7842 83.6016 57.0576 83.748C57.3311 83.8945 57.6484 83.9678 58.0098 83.9678C58.6055 83.9678 59.1133 83.8506 59.5332 83.6162C59.9629 83.3818 60.2949 83.0986 60.5293 82.7666C60.7637 82.4248 60.8809 82.1074 60.8809 81.8145L61.9795 83.7188C61.8037 84.1094 61.5889 84.5146 61.335 84.9346C61.0811 85.3447 60.7588 85.7305 60.3682 86.0918C59.9775 86.4434 59.5039 86.7314 58.9473 86.9561C58.4004 87.1807 57.7412 87.293 56.9697 87.293C55.9736 87.293 55.0703 87.0928 54.2598 86.6924C53.4492 86.2822 52.7998 85.7207 52.3115 85.0078C51.833 84.2949 51.5938 83.4746 51.5938 82.5469C51.5938 81.7168 51.7451 80.9795 52.0479 80.335C52.3506 79.6904 52.8047 79.1436 53.4102 78.6943C54.0254 78.2451 54.7969 77.9082 55.7246 77.6836C56.6523 77.4492 57.7363 77.332 58.9766 77.332H61.2617ZM76.7305 82.5908C76.7305 82.2979 76.6377 82.0391 76.4521 81.8145C76.2764 81.5898 75.9541 81.3848 75.4854 81.1992C75.0264 81.0137 74.377 80.8281 73.5371 80.6426C72.7461 80.4766 72.0088 80.2617 71.3252 79.998C70.6416 79.7246 70.0459 79.3975 69.5381 79.0166C69.0303 78.626 68.6348 78.167 68.3516 77.6396C68.0684 77.1025 67.9268 76.4922 67.9268 75.8086C67.9268 75.1445 68.0684 74.5146 68.3516 73.9189C68.6445 73.3232 69.0645 72.7959 69.6113 72.3369C70.168 71.8779 70.8418 71.5166 71.6328 71.2529C72.4336 70.9893 73.3418 70.8574 74.3574 70.8574C75.7539 70.8574 76.96 71.0771 77.9756 71.5166C78.9912 71.9463 79.7725 72.5518 80.3193 73.333C80.8662 74.1045 81.1396 74.9883 81.1396 75.9844H76.5693C76.5693 75.5742 76.4912 75.2178 76.335 74.915C76.1787 74.6123 75.9395 74.3779 75.6172 74.2119C75.2949 74.0361 74.8701 73.9482 74.3428 73.9482C73.9326 73.9482 73.5713 74.0215 73.2588 74.168C72.9561 74.3047 72.7168 74.4951 72.541 74.7393C72.375 74.9834 72.292 75.2666 72.292 75.5889C72.292 75.8135 72.3408 76.0186 72.4385 76.2041C72.5459 76.3799 72.707 76.5459 72.9219 76.7021C73.1465 76.8486 73.4346 76.9805 73.7861 77.0977C74.1475 77.2148 74.5869 77.3271 75.1045 77.4346C76.208 77.6396 77.2139 77.9277 78.1221 78.2988C79.04 78.6699 79.7725 79.1826 80.3193 79.8369C80.876 80.4912 81.1543 81.3555 81.1543 82.4297C81.1543 83.1328 80.9932 83.7773 80.6709 84.3633C80.3584 84.9492 79.9043 85.4619 79.3086 85.9014C78.7129 86.3408 78 86.6826 77.1699 86.9268C76.3398 87.1709 75.4023 87.293 74.3574 87.293C72.8633 87.293 71.5986 87.0244 70.5635 86.4873C69.5283 85.9502 68.7471 85.2764 68.2197 84.4658C67.7021 83.6455 67.4434 82.8057 67.4434 81.9463H71.7354C71.7549 82.4736 71.8867 82.9033 72.1309 83.2354C72.3848 83.5674 72.7119 83.8115 73.1123 83.9678C73.5127 84.1143 73.9619 84.1875 74.46 84.1875C74.958 84.1875 75.373 84.1191 75.7051 83.9824C76.0371 83.8457 76.291 83.6602 76.4668 83.4258C76.6426 83.1816 76.7305 82.9033 76.7305 82.5908ZM92.1406 82.5908C92.1406 82.2979 92.0479 82.0391 91.8623 81.8145C91.6865 81.5898 91.3643 81.3848 90.8955 81.1992C90.4365 81.0137 89.7871 80.8281 88.9473 80.6426C88.1562 80.4766 87.4189 80.2617 86.7354 79.998C86.0518 79.7246 85.4561 79.3975 84.9482 79.0166C84.4404 78.626 84.0449 78.167 83.7617 77.6396C83.4785 77.1025 83.3369 76.4922 83.3369 75.8086C83.3369 75.1445 83.4785 74.5146 83.7617 73.9189C84.0547 73.3232 84.4746 72.7959 85.0215 72.3369C85.5781 71.8779 86.252 71.5166 87.043 71.2529C87.8438 70.9893 88.752 70.8574 89.7676 70.8574C91.1641 70.8574 92.3701 71.0771 93.3857 71.5166C94.4014 71.9463 95.1826 72.5518 95.7295 73.333C96.2764 74.1045 96.5498 74.9883 96.5498 75.9844H91.9795C91.9795 75.5742 91.9014 75.2178 91.7451 74.915C91.5889 74.6123 91.3496 74.3779 91.0273 74.2119C90.7051 74.0361 90.2803 73.9482 89.7529 73.9482C89.3428 73.9482 88.9814 74.0215 88.6689 74.168C88.3662 74.3047 88.127 74.4951 87.9512 74.7393C87.7852 74.9834 87.7021 75.2666 87.7021 75.5889C87.7021 75.8135 87.751 76.0186 87.8486 76.2041C87.9561 76.3799 88.1172 76.5459 88.332 76.7021C88.5566 76.8486 88.8447 76.9805 89.1963 77.0977C89.5576 77.2148 89.9971 77.3271 90.5146 77.4346C91.6182 77.6396 92.624 77.9277 93.5322 78.2988C94.4502 78.6699 95.1826 79.1826 95.7295 79.8369C96.2861 80.4912 96.5645 81.3555 96.5645 82.4297C96.5645 83.1328 96.4033 83.7773 96.0811 84.3633C95.7686 84.9492 95.3145 85.4619 94.7188 85.9014C94.123 86.3408 93.4102 86.6826 92.5801 86.9268C91.75 87.1709 90.8125 87.293 89.7676 87.293C88.2734 87.293 87.0088 87.0244 85.9736 86.4873C84.9385 85.9502 84.1572 85.2764 83.6299 84.4658C83.1123 83.6455 82.8535 82.8057 82.8535 81.9463H87.1455C87.165 82.4736 87.2969 82.9033 87.541 83.2354C87.7949 83.5674 88.1221 83.8115 88.5225 83.9678C88.9229 84.1143 89.3721 84.1875 89.8701 84.1875C90.3682 84.1875 90.7832 84.1191 91.1152 83.9824C91.4473 83.8457 91.7012 83.6602 91.877 83.4258C92.0527 83.1816 92.1406 82.9033 92.1406 82.5908ZM103.698 74.8418V87H99.1279V71.1504H103.42L103.698 74.8418ZM108.43 71.0332L108.356 75.2959C108.161 75.2666 107.907 75.2422 107.595 75.2227C107.282 75.1934 107.014 75.1787 106.789 75.1787C106.203 75.1787 105.695 75.252 105.266 75.3984C104.846 75.5352 104.494 75.7402 104.211 76.0137C103.938 76.2871 103.732 76.6289 103.596 77.0391C103.459 77.4395 103.391 77.9033 103.391 78.4307L102.526 78.0059C102.526 76.9609 102.629 76.0039 102.834 75.1348C103.039 74.2656 103.337 73.5137 103.728 72.8789C104.118 72.2344 104.597 71.7363 105.163 71.3848C105.729 71.0332 106.374 70.8574 107.097 70.8574C107.331 70.8574 107.57 70.8721 107.814 70.9014C108.059 70.9307 108.264 70.9746 108.43 71.0332ZM109.147 79.2363V78.9287C109.147 77.7666 109.313 76.6973 109.646 75.7207C109.978 74.7344 110.466 73.8799 111.11 73.1572C111.755 72.4346 112.546 71.873 113.483 71.4727C114.421 71.0625 115.495 70.8574 116.706 70.8574C117.937 70.8574 119.021 71.0625 119.958 71.4727C120.905 71.873 121.701 72.4346 122.346 73.1572C122.99 73.8799 123.479 74.7344 123.811 75.7207C124.143 76.6973 124.309 77.7666 124.309 78.9287V79.2363C124.309 80.3887 124.143 81.458 123.811 82.4443C123.479 83.4209 122.99 84.2754 122.346 85.0078C121.701 85.7305 120.91 86.292 119.973 86.6924C119.035 87.0928 117.956 87.293 116.735 87.293C115.524 87.293 114.445 87.0928 113.498 86.6924C112.551 86.292 111.755 85.7305 111.11 85.0078C110.466 84.2754 109.978 83.4209 109.646 82.4443C109.313 81.458 109.147 80.3887 109.147 79.2363ZM113.732 78.9287V79.2363C113.732 79.8613 113.781 80.4473 113.879 80.9941C113.986 81.541 114.157 82.0195 114.392 82.4297C114.626 82.8398 114.934 83.1621 115.314 83.3965C115.705 83.6211 116.179 83.7334 116.735 83.7334C117.292 83.7334 117.761 83.6211 118.142 83.3965C118.522 83.1621 118.83 82.8398 119.064 82.4297C119.299 82.0195 119.465 81.541 119.562 80.9941C119.67 80.4473 119.724 79.8613 119.724 79.2363V78.9287C119.724 78.3135 119.67 77.7373 119.562 77.2002C119.465 76.6533 119.299 76.1699 119.064 75.75C118.83 75.3301 118.518 75.0029 118.127 74.7686C117.746 74.5342 117.272 74.417 116.706 74.417C116.159 74.417 115.695 74.5342 115.314 74.7686C114.934 75.0029 114.626 75.3301 114.392 75.75C114.157 76.1699 113.986 76.6533 113.879 77.2002C113.781 77.7373 113.732 78.3135 113.732 78.9287ZM126.052 79.2363V78.9287C126.052 77.7666 126.218 76.6973 126.55 75.7207C126.882 74.7344 127.37 73.8799 128.015 73.1572C128.659 72.4346 129.45 71.873 130.388 71.4727C131.325 71.0625 132.399 70.8574 133.61 70.8574C134.841 70.8574 135.925 71.0625 136.862 71.4727C137.81 71.873 138.605 72.4346 139.25 73.1572C139.895 73.8799 140.383 74.7344 140.715 75.7207C141.047 76.6973 141.213 77.7666 141.213 78.9287V79.2363C141.213 80.3887 141.047 81.458 140.715 82.4443C140.383 83.4209 139.895 84.2754 139.25 85.0078C138.605 85.7305 137.814 86.292 136.877 86.6924C135.939 87.0928 134.86 87.293 133.64 87.293C132.429 87.293 131.35 87.0928 130.402 86.6924C129.455 86.292 128.659 85.7305 128.015 85.0078C127.37 84.2754 126.882 83.4209 126.55 82.4443C126.218 81.458 126.052 80.3887 126.052 79.2363ZM130.637 78.9287V79.2363C130.637 79.8613 130.686 80.4473 130.783 80.9941C130.891 81.541 131.062 82.0195 131.296 82.4297C131.53 82.8398 131.838 83.1621 132.219 83.3965C132.609 83.6211 133.083 83.7334 133.64 83.7334C134.196 83.7334 134.665 83.6211 135.046 83.3965C135.427 83.1621 135.734 82.8398 135.969 82.4297C136.203 82.0195 136.369 81.541 136.467 80.9941C136.574 80.4473 136.628 79.8613 136.628 79.2363V78.9287C136.628 78.3135 136.574 77.7373 136.467 77.2002C136.369 76.6533 136.203 76.1699 135.969 75.75C135.734 75.3301 135.422 75.0029 135.031 74.7686C134.65 74.5342 134.177 74.417 133.61 74.417C133.063 74.417 132.6 74.5342 132.219 74.7686C131.838 75.0029 131.53 75.3301 131.296 75.75C131.062 76.1699 130.891 76.6533 130.783 77.2002C130.686 77.7373 130.637 78.3135 130.637 78.9287ZM148.2 74.4756V87H143.63V71.1504H147.922L148.2 74.4756ZM147.614 78.5186L146.457 78.5479C146.457 77.4346 146.589 76.4141 146.853 75.4863C147.126 74.5488 147.521 73.7334 148.039 73.04C148.557 72.3467 149.196 71.8096 149.958 71.4287C150.729 71.0479 151.618 70.8574 152.624 70.8574C153.327 70.8574 153.967 70.9648 154.543 71.1797C155.119 71.3848 155.612 71.7119 156.022 72.1611C156.442 72.6006 156.765 73.1768 156.989 73.8896C157.214 74.5928 157.326 75.4375 157.326 76.4238V87H152.756V76.9805C152.756 76.2773 152.668 75.7451 152.492 75.3838C152.326 75.0127 152.082 74.7588 151.76 74.6221C151.438 74.4854 151.052 74.417 150.603 74.417C150.114 74.417 149.68 74.5244 149.299 74.7393C148.928 74.9443 148.615 75.2324 148.361 75.6035C148.107 75.9746 147.917 76.4092 147.79 76.9072C147.673 77.4053 147.614 77.9424 147.614 78.5186ZM156.857 78.2842L155.407 78.4014C155.407 77.3271 155.534 76.3311 155.788 75.4131C156.042 74.4951 156.423 73.6992 156.931 73.0254C157.438 72.3418 158.068 71.8096 158.82 71.4287C159.582 71.0479 160.466 70.8574 161.472 70.8574C162.214 70.8574 162.888 70.9648 163.493 71.1797C164.108 71.3945 164.636 71.7412 165.075 72.2197C165.524 72.6982 165.871 73.3281 166.115 74.1094C166.359 74.8809 166.481 75.8281 166.481 76.9512V87H161.882V76.9512C161.882 76.2578 161.794 75.7305 161.618 75.3691C161.452 75.0078 161.208 74.7588 160.886 74.6221C160.573 74.4854 160.197 74.417 159.758 74.417C159.27 74.417 158.845 74.5195 158.483 74.7246C158.122 74.9199 157.819 75.1934 157.575 75.5449C157.331 75.8867 157.15 76.292 157.033 76.7607C156.916 77.2295 156.857 77.7373 156.857 78.2842ZM27.043 100.672H30.998L36.125 115.921L41.2373 100.672H45.1924L37.7217 122H34.5137L27.043 100.672ZM24.7578 100.672H28.7861L29.5332 116.478V122H24.7578V100.672ZM43.4492 100.672H47.4922V122H42.7021V116.478L43.4492 100.672ZM59.1963 118.221V111.424C59.1963 110.945 59.123 110.535 58.9766 110.193C58.8301 109.852 58.6006 109.583 58.2881 109.388C57.9756 109.192 57.5703 109.095 57.0723 109.095C56.6523 109.095 56.2861 109.168 55.9736 109.314C55.6709 109.461 55.4365 109.671 55.2705 109.944C55.1143 110.218 55.0361 110.555 55.0361 110.955H50.4658C50.4658 110.242 50.627 109.578 50.9492 108.963C51.2715 108.348 51.7305 107.806 52.3262 107.337C52.9316 106.868 53.6543 106.507 54.4941 106.253C55.334 105.989 56.2764 105.857 57.3213 105.857C58.5615 105.857 59.665 106.067 60.6318 106.487C61.6084 106.897 62.3799 107.518 62.9463 108.348C63.5127 109.168 63.7959 110.203 63.7959 111.453V118.089C63.7959 119.046 63.8496 119.798 63.957 120.345C64.0742 120.882 64.2402 121.351 64.4551 121.751V122H59.8408C59.626 121.541 59.4648 120.975 59.3574 120.301C59.25 119.617 59.1963 118.924 59.1963 118.221ZM59.7676 112.332L59.7969 114.852H57.5264C57.0186 114.852 56.5791 114.915 56.208 115.042C55.8467 115.169 55.5537 115.345 55.3291 115.569C55.1045 115.784 54.9385 116.038 54.8311 116.331C54.7334 116.614 54.6846 116.927 54.6846 117.269C54.6846 117.591 54.7627 117.884 54.9189 118.147C55.0752 118.401 55.29 118.602 55.5635 118.748C55.8369 118.895 56.1543 118.968 56.5156 118.968C57.1113 118.968 57.6191 118.851 58.0391 118.616C58.4688 118.382 58.8008 118.099 59.0352 117.767C59.2695 117.425 59.3867 117.107 59.3867 116.814L60.4854 118.719C60.3096 119.109 60.0947 119.515 59.8408 119.935C59.5869 120.345 59.2646 120.73 58.874 121.092C58.4834 121.443 58.0098 121.731 57.4531 121.956C56.9062 122.181 56.2471 122.293 55.4756 122.293C54.4795 122.293 53.5762 122.093 52.7656 121.692C51.9551 121.282 51.3057 120.721 50.8174 120.008C50.3389 119.295 50.0996 118.475 50.0996 117.547C50.0996 116.717 50.251 115.979 50.5537 115.335C50.8564 114.69 51.3105 114.144 51.916 113.694C52.5312 113.245 53.3027 112.908 54.2305 112.684C55.1582 112.449 56.2422 112.332 57.4824 112.332H59.7676ZM71.2812 109.534V122H66.6963V106.15H71.0029L71.2812 109.534ZM70.6807 113.519L69.5381 113.548C69.5381 112.356 69.6846 111.287 69.9775 110.34C70.2705 109.393 70.6855 108.587 71.2227 107.923C71.7695 107.249 72.4189 106.736 73.1709 106.385C73.9326 106.033 74.7725 105.857 75.6904 105.857C76.4326 105.857 77.1113 105.965 77.7266 106.18C78.3418 106.395 78.8691 106.741 79.3086 107.22C79.7578 107.688 80.0996 108.313 80.334 109.095C80.5684 109.866 80.6855 110.818 80.6855 111.951V122H76.0859V111.937C76.0859 111.272 75.9932 110.76 75.8076 110.398C75.6221 110.037 75.3486 109.783 74.9873 109.637C74.6357 109.49 74.2061 109.417 73.6982 109.417C73.1611 109.417 72.7021 109.524 72.3213 109.739C71.9404 109.944 71.6279 110.232 71.3838 110.604C71.1396 110.975 70.959 111.409 70.8418 111.907C70.7344 112.405 70.6807 112.942 70.6807 113.519ZM92.0674 118.221V111.424C92.0674 110.945 91.9941 110.535 91.8477 110.193C91.7012 109.852 91.4717 109.583 91.1592 109.388C90.8467 109.192 90.4414 109.095 89.9434 109.095C89.5234 109.095 89.1572 109.168 88.8447 109.314C88.542 109.461 88.3076 109.671 88.1416 109.944C87.9854 110.218 87.9072 110.555 87.9072 110.955H83.3369C83.3369 110.242 83.498 109.578 83.8203 108.963C84.1426 108.348 84.6016 107.806 85.1973 107.337C85.8027 106.868 86.5254 106.507 87.3652 106.253C88.2051 105.989 89.1475 105.857 90.1924 105.857C91.4326 105.857 92.5361 106.067 93.5029 106.487C94.4795 106.897 95.251 107.518 95.8174 108.348C96.3838 109.168 96.667 110.203 96.667 111.453V118.089C96.667 119.046 96.7207 119.798 96.8281 120.345C96.9453 120.882 97.1113 121.351 97.3262 121.751V122H92.7119C92.4971 121.541 92.3359 120.975 92.2285 120.301C92.1211 119.617 92.0674 118.924 92.0674 118.221ZM92.6387 112.332L92.668 114.852H90.3975C89.8896 114.852 89.4502 114.915 89.0791 115.042C88.7178 115.169 88.4248 115.345 88.2002 115.569C87.9756 115.784 87.8096 116.038 87.7021 116.331C87.6045 116.614 87.5557 116.927 87.5557 117.269C87.5557 117.591 87.6338 117.884 87.79 118.147C87.9463 118.401 88.1611 118.602 88.4346 118.748C88.708 118.895 89.0254 118.968 89.3867 118.968C89.9824 118.968 90.4902 118.851 90.9102 118.616C91.3398 118.382 91.6719 118.099 91.9062 117.767C92.1406 117.425 92.2578 117.107 92.2578 116.814L93.3564 118.719C93.1807 119.109 92.9658 119.515 92.7119 119.935C92.458 120.345 92.1357 120.73 91.7451 121.092C91.3545 121.443 90.8809 121.731 90.3242 121.956C89.7773 122.181 89.1182 122.293 88.3467 122.293C87.3506 122.293 86.4473 122.093 85.6367 121.692C84.8262 121.282 84.1768 120.721 83.6885 120.008C83.21 119.295 82.9707 118.475 82.9707 117.547C82.9707 116.717 83.1221 115.979 83.4248 115.335C83.7275 114.69 84.1816 114.144 84.7871 113.694C85.4023 113.245 86.1738 112.908 87.1016 112.684C88.0293 112.449 89.1133 112.332 90.3535 112.332H92.6387ZM109.66 106.15H113.82V121.429C113.82 122.884 113.488 124.119 112.824 125.135C112.17 126.15 111.257 126.922 110.085 127.449C108.913 127.977 107.541 128.24 105.969 128.24C105.285 128.24 104.572 128.147 103.83 127.962C103.088 127.786 102.39 127.518 101.735 127.156C101.081 126.805 100.534 126.355 100.095 125.809L102.043 123.113C102.492 123.621 103.029 124.031 103.654 124.344C104.279 124.666 104.992 124.827 105.793 124.827C106.525 124.827 107.146 124.695 107.653 124.432C108.161 124.168 108.547 123.782 108.811 123.274C109.084 122.767 109.221 122.151 109.221 121.429V109.856L109.66 106.15ZM99.0693 114.266V113.958C99.0693 112.757 99.2158 111.663 99.5088 110.677C99.8018 109.681 100.227 108.826 100.783 108.113C101.35 107.391 102.028 106.834 102.819 106.443C103.62 106.053 104.519 105.857 105.515 105.857C106.589 105.857 107.478 106.062 108.181 106.473C108.884 106.873 109.455 107.439 109.895 108.172C110.334 108.895 110.681 109.749 110.935 110.735C111.188 111.712 111.394 112.771 111.55 113.914V114.441C111.394 115.535 111.169 116.556 110.876 117.503C110.583 118.45 110.202 119.285 109.733 120.008C109.265 120.721 108.679 121.282 107.976 121.692C107.282 122.093 106.452 122.293 105.485 122.293C104.499 122.293 103.61 122.093 102.819 121.692C102.028 121.292 101.35 120.73 100.783 120.008C100.227 119.285 99.8018 118.436 99.5088 117.459C99.2158 116.482 99.0693 115.418 99.0693 114.266ZM103.64 113.958V114.266C103.64 114.891 103.698 115.472 103.815 116.009C103.942 116.546 104.128 117.02 104.372 117.43C104.626 117.84 104.938 118.162 105.31 118.396C105.69 118.621 106.135 118.733 106.643 118.733C107.385 118.733 107.985 118.577 108.444 118.265C108.913 117.942 109.255 117.498 109.47 116.932C109.694 116.365 109.812 115.706 109.821 114.954V113.416C109.821 112.791 109.758 112.229 109.631 111.731C109.504 111.233 109.313 110.813 109.06 110.472C108.815 110.13 108.493 109.871 108.093 109.695C107.702 109.51 107.229 109.417 106.672 109.417C106.174 109.417 105.734 109.534 105.354 109.769C104.973 109.993 104.655 110.311 104.401 110.721C104.147 111.131 103.957 111.614 103.83 112.171C103.703 112.718 103.64 113.313 103.64 113.958ZM124.338 122.293C123.078 122.293 121.95 122.093 120.954 121.692C119.958 121.292 119.113 120.74 118.42 120.037C117.736 119.324 117.214 118.504 116.853 117.576C116.491 116.648 116.311 115.657 116.311 114.603V114.046C116.311 112.864 116.477 111.775 116.809 110.779C117.141 109.783 117.624 108.919 118.259 108.187C118.903 107.444 119.694 106.873 120.632 106.473C121.569 106.062 122.639 105.857 123.84 105.857C124.963 105.857 125.964 106.043 126.843 106.414C127.722 106.775 128.464 107.298 129.069 107.981C129.675 108.655 130.134 109.471 130.446 110.428C130.769 111.375 130.93 112.439 130.93 113.621V115.496H118.156V112.552H126.447V112.2C126.447 111.644 126.345 111.155 126.14 110.735C125.944 110.315 125.651 109.993 125.261 109.769C124.88 109.534 124.396 109.417 123.811 109.417C123.254 109.417 122.79 109.534 122.419 109.769C122.048 110.003 121.75 110.335 121.525 110.765C121.311 111.185 121.154 111.678 121.057 112.244C120.959 112.801 120.91 113.401 120.91 114.046V114.603C120.91 115.218 120.993 115.779 121.159 116.287C121.325 116.795 121.569 117.229 121.892 117.591C122.214 117.952 122.604 118.235 123.063 118.44C123.522 118.646 124.045 118.748 124.631 118.748C125.354 118.748 126.042 118.611 126.696 118.338C127.351 118.055 127.917 117.615 128.396 117.02L130.534 119.466C130.212 119.935 129.758 120.389 129.172 120.828C128.596 121.258 127.902 121.609 127.092 121.883C126.281 122.156 125.363 122.293 124.338 122.293ZM137.741 109.476V122H133.171V106.15H137.463L137.741 109.476ZM137.155 113.519L135.998 113.548C135.998 112.435 136.13 111.414 136.394 110.486C136.667 109.549 137.062 108.733 137.58 108.04C138.098 107.347 138.737 106.81 139.499 106.429C140.271 106.048 141.159 105.857 142.165 105.857C142.868 105.857 143.508 105.965 144.084 106.18C144.66 106.385 145.153 106.712 145.563 107.161C145.983 107.601 146.306 108.177 146.53 108.89C146.755 109.593 146.867 110.438 146.867 111.424V122H142.297V111.98C142.297 111.277 142.209 110.745 142.033 110.384C141.867 110.013 141.623 109.759 141.301 109.622C140.979 109.485 140.593 109.417 140.144 109.417C139.655 109.417 139.221 109.524 138.84 109.739C138.469 109.944 138.156 110.232 137.902 110.604C137.648 110.975 137.458 111.409 137.331 111.907C137.214 112.405 137.155 112.942 137.155 113.519ZM146.398 113.284L144.948 113.401C144.948 112.327 145.075 111.331 145.329 110.413C145.583 109.495 145.964 108.699 146.472 108.025C146.979 107.342 147.609 106.81 148.361 106.429C149.123 106.048 150.007 105.857 151.013 105.857C151.755 105.857 152.429 105.965 153.034 106.18C153.649 106.395 154.177 106.741 154.616 107.22C155.065 107.698 155.412 108.328 155.656 109.109C155.9 109.881 156.022 110.828 156.022 111.951V122H151.423V111.951C151.423 111.258 151.335 110.73 151.159 110.369C150.993 110.008 150.749 109.759 150.427 109.622C150.114 109.485 149.738 109.417 149.299 109.417C148.811 109.417 148.386 109.52 148.024 109.725C147.663 109.92 147.36 110.193 147.116 110.545C146.872 110.887 146.691 111.292 146.574 111.761C146.457 112.229 146.398 112.737 146.398 113.284ZM166.555 122.293C165.295 122.293 164.167 122.093 163.171 121.692C162.175 121.292 161.33 120.74 160.637 120.037C159.953 119.324 159.431 118.504 159.069 117.576C158.708 116.648 158.527 115.657 158.527 114.603V114.046C158.527 112.864 158.693 111.775 159.025 110.779C159.357 109.783 159.841 108.919 160.476 108.187C161.12 107.444 161.911 106.873 162.849 106.473C163.786 106.062 164.855 105.857 166.057 105.857C167.18 105.857 168.181 106.043 169.06 106.414C169.938 106.775 170.681 107.298 171.286 107.981C171.892 108.655 172.351 109.471 172.663 110.428C172.985 111.375 173.146 112.439 173.146 113.621V115.496H160.373V112.552H168.664V112.2C168.664 111.644 168.562 111.155 168.356 110.735C168.161 110.315 167.868 109.993 167.478 109.769C167.097 109.534 166.613 109.417 166.027 109.417C165.471 109.417 165.007 109.534 164.636 109.769C164.265 110.003 163.967 110.335 163.742 110.765C163.527 111.185 163.371 111.678 163.273 112.244C163.176 112.801 163.127 113.401 163.127 114.046V114.603C163.127 115.218 163.21 115.779 163.376 116.287C163.542 116.795 163.786 117.229 164.108 117.591C164.431 117.952 164.821 118.235 165.28 118.44C165.739 118.646 166.262 118.748 166.848 118.748C167.57 118.748 168.259 118.611 168.913 118.338C169.567 118.055 170.134 117.615 170.612 117.02L172.751 119.466C172.429 119.935 171.975 120.389 171.389 120.828C170.812 121.258 170.119 121.609 169.309 121.883C168.498 122.156 167.58 122.293 166.555 122.293ZM179.855 109.534V122H175.271V106.15H179.577L179.855 109.534ZM179.255 113.519L178.112 113.548C178.112 112.356 178.259 111.287 178.552 110.34C178.845 109.393 179.26 108.587 179.797 107.923C180.344 107.249 180.993 106.736 181.745 106.385C182.507 106.033 183.347 105.857 184.265 105.857C185.007 105.857 185.686 105.965 186.301 106.18C186.916 106.395 187.443 106.741 187.883 107.22C188.332 107.688 188.674 108.313 188.908 109.095C189.143 109.866 189.26 110.818 189.26 111.951V122H184.66V111.937C184.66 111.272 184.567 110.76 184.382 110.398C184.196 110.037 183.923 109.783 183.562 109.637C183.21 109.49 182.78 109.417 182.272 109.417C181.735 109.417 181.276 109.524 180.896 109.739C180.515 109.944 180.202 110.232 179.958 110.604C179.714 110.975 179.533 111.409 179.416 111.907C179.309 112.405 179.255 112.942 179.255 113.519ZM200.305 106.15V109.358H190.9V106.15H200.305ZM193.054 102.225H197.639V117.034C197.639 117.474 197.692 117.811 197.8 118.045C197.907 118.279 198.083 118.445 198.327 118.543C198.571 118.631 198.884 118.675 199.265 118.675C199.538 118.675 199.772 118.665 199.968 118.646C200.163 118.626 200.344 118.602 200.51 118.572V121.883C200.119 122.01 199.704 122.107 199.265 122.176C198.825 122.254 198.347 122.293 197.829 122.293C196.843 122.293 195.988 122.132 195.266 121.81C194.553 121.487 194.006 120.979 193.625 120.286C193.244 119.583 193.054 118.67 193.054 117.547V102.225Z" fill="#313134"/>
<rect x="23" y="18" width="110.764" height="25" rx="12.5" fill="white"/>
<path d="M33.9578 25.4688V34H32.4871V25.4688H33.9578ZM37.0457 29.0137V34H35.6335V27.6602H36.9636L37.0457 29.0137ZM36.7937 30.5957L36.3367 30.5898C36.3406 30.1406 36.4031 29.7285 36.5242 29.3535C36.6492 28.9785 36.821 28.6562 37.0398 28.3867C37.2625 28.1172 37.5281 27.9102 37.8367 27.7656C38.1453 27.6172 38.489 27.543 38.8679 27.543C39.1726 27.543 39.448 27.5859 39.6941 27.6719C39.9441 27.7539 40.157 27.8887 40.3328 28.0762C40.5125 28.2637 40.6492 28.5078 40.7429 28.8086C40.8367 29.1055 40.8835 29.4707 40.8835 29.9043V34H39.4656V29.8984C39.4656 29.5938 39.4207 29.3535 39.3308 29.1777C39.2449 28.998 39.1179 28.8711 38.95 28.7969C38.7859 28.7188 38.5808 28.6797 38.3347 28.6797C38.0925 28.6797 37.8757 28.7305 37.6843 28.832C37.4929 28.9336 37.3308 29.0723 37.198 29.248C37.0691 29.4238 36.9695 29.627 36.8992 29.8574C36.8289 30.0879 36.7937 30.334 36.7937 30.5957ZM45.2312 27.6602V28.6914H41.657V27.6602H45.2312ZM42.6882 26.1074H44.1003V32.248C44.1003 32.4434 44.1277 32.5938 44.1824 32.6992C44.241 32.8008 44.321 32.8691 44.4226 32.9043C44.5242 32.9395 44.6433 32.957 44.78 32.957C44.8777 32.957 44.9714 32.9512 45.0613 32.9395C45.1511 32.9277 45.2234 32.916 45.2781 32.9043L45.2839 33.9824C45.1667 34.0176 45.03 34.0488 44.8738 34.0762C44.7214 34.1035 44.5457 34.1172 44.3464 34.1172C44.0222 34.1172 43.7351 34.0605 43.4851 33.9473C43.2351 33.8301 43.0398 33.6406 42.8992 33.3789C42.7585 33.1172 42.6882 32.7695 42.6882 32.3359V26.1074ZM49.116 34.1172C48.6472 34.1172 48.2234 34.041 47.8445 33.8887C47.4695 33.7324 47.1492 33.5156 46.8835 33.2383C46.6218 32.9609 46.4207 32.6348 46.28 32.2598C46.1394 31.8848 46.0691 31.4805 46.0691 31.0469V30.8125C46.0691 30.3164 46.1414 29.8672 46.2859 29.4648C46.4304 29.0625 46.6316 28.7188 46.8894 28.4336C47.1472 28.1445 47.4519 27.9238 47.8035 27.7715C48.155 27.6191 48.5359 27.543 48.946 27.543C49.3992 27.543 49.7957 27.6191 50.1355 27.7715C50.4753 27.9238 50.7566 28.1387 50.9792 28.416C51.2058 28.6895 51.3738 29.0156 51.4832 29.3945C51.5964 29.7734 51.6531 30.1914 51.6531 30.6484V31.252H46.7546V30.2383H50.2585V30.127C50.2507 29.873 50.2 29.6348 50.1062 29.4121C50.0164 29.1895 49.8777 29.0098 49.6902 28.873C49.5027 28.7363 49.2527 28.668 48.9402 28.668C48.7058 28.668 48.4968 28.7188 48.3132 28.8203C48.1335 28.918 47.9832 29.0605 47.8621 29.248C47.741 29.4355 47.6472 29.6621 47.5808 29.9277C47.5183 30.1895 47.4871 30.4844 47.4871 30.8125V31.0469C47.4871 31.3242 47.5242 31.582 47.5984 31.8203C47.6765 32.0547 47.7898 32.2598 47.9382 32.4355C48.0867 32.6113 48.2664 32.75 48.4773 32.8516C48.6882 32.9492 48.9285 32.998 49.198 32.998C49.5378 32.998 49.8406 32.9297 50.1062 32.793C50.3718 32.6562 50.6023 32.4629 50.7976 32.2129L51.5417 32.9336C51.405 33.1328 51.2273 33.3242 51.0085 33.5078C50.7898 33.6875 50.5222 33.834 50.2058 33.9473C49.8933 34.0605 49.53 34.1172 49.116 34.1172ZM54.1726 28.8672V34H52.7605V27.6602H54.1082L54.1726 28.8672ZM56.1121 27.6191L56.1003 28.9316C56.0144 28.916 55.9207 28.9043 55.8191 28.8965C55.7214 28.8887 55.6238 28.8848 55.5261 28.8848C55.2839 28.8848 55.071 28.9199 54.8875 28.9902C54.7039 29.0566 54.5496 29.1543 54.4246 29.2832C54.3035 29.4082 54.2097 29.5605 54.1433 29.7402C54.0769 29.9199 54.0378 30.1211 54.0261 30.3438L53.7039 30.3672C53.7039 29.9688 53.7429 29.5996 53.821 29.2598C53.8992 28.9199 54.0164 28.6211 54.1726 28.3633C54.3328 28.1055 54.532 27.9043 54.7703 27.7598C55.0125 27.6152 55.2917 27.543 55.6082 27.543C55.6941 27.543 55.7859 27.5508 55.8835 27.5664C55.9851 27.582 56.0613 27.5996 56.1121 27.6191ZM58.4089 28.9492V34H56.9968V27.6602H58.3269L58.4089 28.9492ZM58.1804 30.5957L57.7 30.5898C57.7 30.1523 57.7546 29.748 57.864 29.377C57.9734 29.0059 58.1335 28.6836 58.3445 28.4102C58.5554 28.1328 58.8171 27.9199 59.1296 27.7715C59.446 27.6191 59.8113 27.543 60.2253 27.543C60.5144 27.543 60.7781 27.5859 61.0164 27.6719C61.2585 27.7539 61.4675 27.8848 61.6433 28.0645C61.823 28.2441 61.9597 28.4746 62.0535 28.7559C62.1511 29.0371 62.2 29.377 62.2 29.7754V34H60.7878V29.8984C60.7878 29.5898 60.741 29.3477 60.6472 29.1719C60.5574 28.9961 60.4265 28.8711 60.2546 28.7969C60.0867 28.7188 59.8855 28.6797 59.6511 28.6797C59.3855 28.6797 59.1589 28.7305 58.9714 28.832C58.7878 28.9336 58.6375 29.0723 58.5203 29.248C58.4031 29.4238 58.3171 29.627 58.2625 29.8574C58.2078 30.0879 58.1804 30.334 58.1804 30.5957ZM62.1121 30.2207L61.45 30.3672C61.45 29.9844 61.5027 29.623 61.6082 29.2832C61.7175 28.9395 61.8757 28.6387 62.0828 28.3809C62.2937 28.1191 62.5535 27.9141 62.8621 27.7656C63.1707 27.6172 63.5242 27.543 63.9226 27.543C64.2468 27.543 64.5359 27.5879 64.7898 27.6777C65.0476 27.7637 65.2664 27.9004 65.446 28.0879C65.6257 28.2754 65.7625 28.5195 65.8562 28.8203C65.95 29.1172 65.9968 29.4766 65.9968 29.8984V34H64.5789V29.8926C64.5789 29.5723 64.532 29.3242 64.4382 29.1484C64.3484 28.9727 64.2195 28.8516 64.0515 28.7852C63.8835 28.7148 63.6824 28.6797 63.448 28.6797C63.2292 28.6797 63.0359 28.7207 62.8679 28.8027C62.7039 28.8809 62.5652 28.9922 62.4519 29.1367C62.3386 29.2773 62.2527 29.4395 62.1941 29.623C62.1394 29.8066 62.1121 30.0059 62.1121 30.2207ZM70.2449 34.1172C69.7761 34.1172 69.3523 34.041 68.9734 33.8887C68.5984 33.7324 68.2781 33.5156 68.0125 33.2383C67.7507 32.9609 67.5496 32.6348 67.4089 32.2598C67.2683 31.8848 67.198 31.4805 67.198 31.0469V30.8125C67.198 30.3164 67.2703 29.8672 67.4148 29.4648C67.5593 29.0625 67.7605 28.7188 68.0183 28.4336C68.2761 28.1445 68.5808 27.9238 68.9324 27.7715C69.2839 27.6191 69.6648 27.543 70.075 27.543C70.5281 27.543 70.9246 27.6191 71.2644 27.7715C71.6042 27.9238 71.8855 28.1387 72.1082 28.416C72.3347 28.6895 72.5027 29.0156 72.6121 29.3945C72.7253 29.7734 72.782 30.1914 72.782 30.6484V31.252H67.8835V30.2383H71.3875V30.127C71.3796 29.873 71.3289 29.6348 71.2351 29.4121C71.1453 29.1895 71.0066 29.0098 70.8191 28.873C70.6316 28.7363 70.3816 28.668 70.0691 28.668C69.8347 28.668 69.6257 28.7188 69.4421 28.8203C69.2625 28.918 69.1121 29.0605 68.991 29.248C68.8699 29.4355 68.7761 29.6621 68.7097 29.9277C68.6472 30.1895 68.616 30.4844 68.616 30.8125V31.0469C68.616 31.3242 68.6531 31.582 68.7273 31.8203C68.8054 32.0547 68.9187 32.2598 69.0671 32.4355C69.2156 32.6113 69.3953 32.75 69.6062 32.8516C69.8171 32.9492 70.0574 32.998 70.3269 32.998C70.6667 32.998 70.9695 32.9297 71.2351 32.793C71.5007 32.6562 71.7312 32.4629 71.9265 32.2129L72.6707 32.9336C72.5339 33.1328 72.3562 33.3242 72.1375 33.5078C71.9187 33.6875 71.6511 33.834 71.3347 33.9473C71.0222 34.0605 70.6589 34.1172 70.2449 34.1172ZM77.7507 32.6875V25H79.1687V34H77.8855L77.7507 32.6875ZM73.6257 30.9004V30.7773C73.6257 30.2969 73.6824 29.8594 73.7957 29.4648C73.9089 29.0664 74.073 28.7246 74.2878 28.4395C74.5027 28.1504 74.7644 27.9297 75.073 27.7773C75.3816 27.6211 75.7292 27.543 76.116 27.543C76.4988 27.543 76.8347 27.6172 77.1238 27.7656C77.4128 27.9141 77.6589 28.127 77.8621 28.4043C78.0652 28.6777 78.2273 29.0059 78.3484 29.3887C78.4695 29.7676 78.5554 30.1895 78.6062 30.6543V31.0469C78.5554 31.5 78.4695 31.9141 78.3484 32.2891C78.2273 32.6641 78.0652 32.9883 77.8621 33.2617C77.6589 33.5352 77.4109 33.7461 77.1179 33.8945C76.8289 34.043 76.491 34.1172 76.1042 34.1172C75.7214 34.1172 75.3757 34.0371 75.0671 33.877C74.7625 33.7168 74.5027 33.4922 74.2878 33.2031C74.073 32.9141 73.9089 32.5742 73.7957 32.1836C73.6824 31.7891 73.6257 31.3613 73.6257 30.9004ZM75.0378 30.7773V30.9004C75.0378 31.1895 75.0632 31.459 75.114 31.709C75.1687 31.959 75.2527 32.1797 75.366 32.3711C75.4792 32.5586 75.6257 32.707 75.8054 32.8164C75.989 32.9219 76.2078 32.9746 76.4617 32.9746C76.782 32.9746 77.0457 32.9043 77.2527 32.7637C77.4597 32.623 77.6218 32.4336 77.739 32.1953C77.8601 31.9531 77.9421 31.6836 77.9851 31.3867V30.3262C77.9617 30.0957 77.9128 29.8809 77.8386 29.6816C77.7683 29.4824 77.6726 29.3086 77.5515 29.1602C77.4304 29.0078 77.28 28.8906 77.1003 28.8086C76.9246 28.7227 76.7156 28.6797 76.4734 28.6797C76.2156 28.6797 75.9968 28.7344 75.8171 28.8438C75.6375 28.9531 75.489 29.1035 75.3718 29.2949C75.2585 29.4863 75.1746 29.709 75.1199 29.9629C75.0652 30.2168 75.0378 30.4883 75.0378 30.7773ZM82.157 27.6602V34H80.739V27.6602H82.157ZM80.6453 25.9961C80.6453 25.7812 80.7156 25.6035 80.8562 25.4629C81.0007 25.3184 81.2 25.2461 81.4539 25.2461C81.7039 25.2461 81.9011 25.3184 82.0457 25.4629C82.1902 25.6035 82.2625 25.7812 82.2625 25.9961C82.2625 26.207 82.1902 26.3828 82.0457 26.5234C81.9011 26.6641 81.7039 26.7344 81.4539 26.7344C81.2 26.7344 81.0007 26.6641 80.8562 26.5234C80.7156 26.3828 80.6453 26.207 80.6453 25.9961ZM87.2781 32.7285V29.7051C87.2781 29.4785 87.2371 29.2832 87.155 29.1191C87.073 28.9551 86.948 28.8281 86.78 28.7383C86.616 28.6484 86.4089 28.6035 86.1589 28.6035C85.9285 28.6035 85.7292 28.6426 85.5613 28.7207C85.3933 28.7988 85.2625 28.9043 85.1687 29.0371C85.075 29.1699 85.0281 29.3203 85.0281 29.4883H83.6218C83.6218 29.2383 83.6824 28.9961 83.8035 28.7617C83.9246 28.5273 84.1003 28.3184 84.3308 28.1348C84.5613 27.9512 84.8367 27.8066 85.157 27.7012C85.4773 27.5957 85.8367 27.543 86.2351 27.543C86.7117 27.543 87.1335 27.623 87.5007 27.7832C87.8718 27.9434 88.1628 28.1855 88.3738 28.5098C88.5886 28.8301 88.696 29.2324 88.696 29.7168V32.5352C88.696 32.8242 88.7156 33.084 88.7546 33.3145C88.7976 33.541 88.8582 33.7383 88.9363 33.9062V34H87.489C87.4226 33.8477 87.3699 33.6543 87.3308 33.4199C87.2957 33.1816 87.2781 32.9512 87.2781 32.7285ZM87.4832 30.1445L87.4949 31.0176H86.4812C86.2195 31.0176 85.989 31.043 85.7898 31.0938C85.5906 31.1406 85.4246 31.2109 85.2917 31.3047C85.1589 31.3984 85.0593 31.5117 84.9929 31.6445C84.9265 31.7773 84.8933 31.9277 84.8933 32.0957C84.8933 32.2637 84.9324 32.418 85.0105 32.5586C85.0886 32.6953 85.2019 32.8027 85.3503 32.8809C85.5027 32.959 85.6863 32.998 85.9011 32.998C86.1902 32.998 86.4421 32.9395 86.657 32.8223C86.8757 32.7012 87.0476 32.5547 87.1726 32.3828C87.2976 32.207 87.364 32.041 87.3718 31.8848L87.8289 32.5117C87.782 32.6719 87.7019 32.8438 87.5886 33.0273C87.4753 33.2109 87.3269 33.3867 87.1433 33.5547C86.9636 33.7188 86.7468 33.8535 86.4929 33.959C86.2429 34.0645 85.9539 34.1172 85.6257 34.1172C85.2117 34.1172 84.8425 34.0352 84.5183 33.8711C84.1941 33.7031 83.9402 33.4785 83.7566 33.1973C83.573 32.9121 83.4812 32.5898 83.4812 32.2305C83.4812 31.8945 83.5437 31.5977 83.6687 31.3398C83.7976 31.0781 83.9851 30.8594 84.2312 30.6836C84.4812 30.5078 84.7859 30.375 85.1453 30.2852C85.5046 30.1914 85.9148 30.1445 86.3757 30.1445H87.4832ZM93.0789 27.6602V28.6914H89.5046V27.6602H93.0789ZM90.5359 26.1074H91.948V32.248C91.948 32.4434 91.9753 32.5938 92.03 32.6992C92.0886 32.8008 92.1687 32.8691 92.2703 32.9043C92.3718 32.9395 92.491 32.957 92.6277 32.957C92.7253 32.957 92.8191 32.9512 92.9089 32.9395C92.9988 32.9277 93.071 32.916 93.1257 32.9043L93.1316 33.9824C93.0144 34.0176 92.8777 34.0488 92.7214 34.0762C92.5691 34.1035 92.3933 34.1172 92.1941 34.1172C91.8699 34.1172 91.5828 34.0605 91.3328 33.9473C91.0828 33.8301 90.8875 33.6406 90.7468 33.3789C90.6062 33.1172 90.5359 32.7695 90.5359 32.3359V26.1074ZM96.9636 34.1172C96.4949 34.1172 96.071 34.041 95.6921 33.8887C95.3171 33.7324 94.9968 33.5156 94.7312 33.2383C94.4695 32.9609 94.2683 32.6348 94.1277 32.2598C93.9871 31.8848 93.9167 31.4805 93.9167 31.0469V30.8125C93.9167 30.3164 93.989 29.8672 94.1335 29.4648C94.2781 29.0625 94.4792 28.7188 94.7371 28.4336C94.9949 28.1445 95.2996 27.9238 95.6511 27.7715C96.0027 27.6191 96.3835 27.543 96.7937 27.543C97.2468 27.543 97.6433 27.6191 97.9832 27.7715C98.323 27.9238 98.6042 28.1387 98.8269 28.416C99.0535 28.6895 99.2214 29.0156 99.3308 29.3945C99.4441 29.7734 99.5007 30.1914 99.5007 30.6484V31.252H94.6023V30.2383H98.1062V30.127C98.0984 29.873 98.0476 29.6348 97.9539 29.4121C97.864 29.1895 97.7253 29.0098 97.5378 28.873C97.3503 28.7363 97.1003 28.668 96.7878 28.668C96.5535 28.668 96.3445 28.7188 96.1609 28.8203C95.9812 28.918 95.8308 29.0605 95.7097 29.248C95.5886 29.4355 95.4949 29.6621 95.4285 29.9277C95.366 30.1895 95.3347 30.4844 95.3347 30.8125V31.0469C95.3347 31.3242 95.3718 31.582 95.446 31.8203C95.5242 32.0547 95.6375 32.2598 95.7859 32.4355C95.9343 32.6113 96.114 32.75 96.325 32.8516C96.5359 32.9492 96.7761 32.998 97.0457 32.998C97.3855 32.998 97.6882 32.9297 97.9539 32.793C98.2195 32.6562 98.45 32.4629 98.6453 32.2129L99.3894 32.9336C99.2527 33.1328 99.075 33.3242 98.8562 33.5078C98.6375 33.6875 98.3699 33.834 98.0535 33.9473C97.741 34.0605 97.3777 34.1172 96.9636 34.1172Z" fill="#303030"/>
<rect x="113.528" y="30" width="2.13008" height="6" fill="#FFA09C"/>
<rect x="117.789" y="27" width="2.13008" height="9" fill="#FFA09C"/>
<rect x="122.049" y="24" width="2.13008" height="12" fill="#C4C4C4"/>
<path d="M159.189 198.605L156.641 206H155.1L158.311 197.469H159.295L159.189 198.605ZM161.322 206L158.768 198.605L158.656 197.469H159.646L162.869 206H161.322ZM161.199 202.836V204.002H156.559V202.836H161.199ZM165.195 197V206H163.777V197H165.195ZM168.805 204.881L170.357 199.66H171.822L169.619 206H168.705L168.805 204.881ZM167.615 199.66L169.197 204.904L169.273 206H168.359L166.145 199.66H167.615ZM176.176 204.729V201.705C176.176 201.479 176.135 201.283 176.053 201.119C175.971 200.955 175.846 200.828 175.678 200.738C175.514 200.648 175.307 200.604 175.057 200.604C174.826 200.604 174.627 200.643 174.459 200.721C174.291 200.799 174.16 200.904 174.066 201.037C173.973 201.17 173.926 201.32 173.926 201.488H172.52C172.52 201.238 172.58 200.996 172.701 200.762C172.822 200.527 172.998 200.318 173.229 200.135C173.459 199.951 173.734 199.807 174.055 199.701C174.375 199.596 174.734 199.543 175.133 199.543C175.609 199.543 176.031 199.623 176.398 199.783C176.77 199.943 177.061 200.186 177.271 200.51C177.486 200.83 177.594 201.232 177.594 201.717V204.535C177.594 204.824 177.613 205.084 177.652 205.314C177.695 205.541 177.756 205.738 177.834 205.906V206H176.387C176.32 205.848 176.268 205.654 176.229 205.42C176.193 205.182 176.176 204.951 176.176 204.729ZM176.381 202.145L176.393 203.018H175.379C175.117 203.018 174.887 203.043 174.688 203.094C174.488 203.141 174.322 203.211 174.189 203.305C174.057 203.398 173.957 203.512 173.891 203.645C173.824 203.777 173.791 203.928 173.791 204.096C173.791 204.264 173.83 204.418 173.908 204.559C173.986 204.695 174.1 204.803 174.248 204.881C174.4 204.959 174.584 204.998 174.799 204.998C175.088 204.998 175.34 204.939 175.555 204.822C175.773 204.701 175.945 204.555 176.07 204.383C176.195 204.207 176.262 204.041 176.27 203.885L176.727 204.512C176.68 204.672 176.6 204.844 176.486 205.027C176.373 205.211 176.225 205.387 176.041 205.555C175.861 205.719 175.645 205.854 175.391 205.959C175.141 206.064 174.852 206.117 174.523 206.117C174.109 206.117 173.74 206.035 173.416 205.871C173.092 205.703 172.838 205.479 172.654 205.197C172.471 204.912 172.379 204.59 172.379 204.23C172.379 203.895 172.441 203.598 172.566 203.34C172.695 203.078 172.883 202.859 173.129 202.684C173.379 202.508 173.684 202.375 174.043 202.285C174.402 202.191 174.812 202.145 175.273 202.145H176.381ZM180.488 200.867V206H179.076V199.66H180.424L180.488 200.867ZM182.428 199.619L182.416 200.932C182.33 200.916 182.236 200.904 182.135 200.896C182.037 200.889 181.939 200.885 181.842 200.885C181.6 200.885 181.387 200.92 181.203 200.99C181.02 201.057 180.865 201.154 180.74 201.283C180.619 201.408 180.525 201.561 180.459 201.74C180.393 201.92 180.354 202.121 180.342 202.344L180.02 202.367C180.02 201.969 180.059 201.6 180.137 201.26C180.215 200.92 180.332 200.621 180.488 200.363C180.648 200.105 180.848 199.904 181.086 199.76C181.328 199.615 181.607 199.543 181.924 199.543C182.01 199.543 182.102 199.551 182.199 199.566C182.301 199.582 182.377 199.6 182.428 199.619ZM182.891 202.9V202.766C182.891 202.309 182.957 201.885 183.09 201.494C183.223 201.1 183.414 200.758 183.664 200.469C183.918 200.176 184.227 199.949 184.59 199.789C184.957 199.625 185.371 199.543 185.832 199.543C186.297 199.543 186.711 199.625 187.074 199.789C187.441 199.949 187.752 200.176 188.006 200.469C188.26 200.758 188.453 201.1 188.586 201.494C188.719 201.885 188.785 202.309 188.785 202.766V202.9C188.785 203.357 188.719 203.781 188.586 204.172C188.453 204.562 188.26 204.904 188.006 205.197C187.752 205.486 187.443 205.713 187.08 205.877C186.717 206.037 186.305 206.117 185.844 206.117C185.379 206.117 184.963 206.037 184.596 205.877C184.232 205.713 183.924 205.486 183.67 205.197C183.416 204.904 183.223 204.562 183.09 204.172C182.957 203.781 182.891 203.357 182.891 202.9ZM184.303 202.766V202.9C184.303 203.186 184.332 203.455 184.391 203.709C184.449 203.963 184.541 204.186 184.666 204.377C184.791 204.568 184.951 204.719 185.146 204.828C185.342 204.938 185.574 204.992 185.844 204.992C186.105 204.992 186.332 204.938 186.523 204.828C186.719 204.719 186.879 204.568 187.004 204.377C187.129 204.186 187.221 203.963 187.279 203.709C187.342 203.455 187.373 203.186 187.373 202.9V202.766C187.373 202.484 187.342 202.219 187.279 201.969C187.221 201.715 187.127 201.49 186.998 201.295C186.873 201.1 186.713 200.947 186.518 200.838C186.326 200.725 186.098 200.668 185.832 200.668C185.566 200.668 185.336 200.725 185.141 200.838C184.949 200.947 184.791 201.1 184.666 201.295C184.541 201.49 184.449 201.715 184.391 201.969C184.332 202.219 184.303 202.484 184.303 202.766ZM199.648 201.641V204.898C199.527 205.059 199.338 205.234 199.08 205.426C198.826 205.613 198.488 205.775 198.066 205.912C197.645 206.049 197.119 206.117 196.49 206.117C195.955 206.117 195.465 206.027 195.02 205.848C194.574 205.664 194.189 205.396 193.865 205.045C193.545 204.693 193.297 204.266 193.121 203.762C192.945 203.254 192.857 202.676 192.857 202.027V201.436C192.857 200.791 192.938 200.217 193.098 199.713C193.262 199.205 193.496 198.775 193.801 198.424C194.105 198.072 194.473 197.807 194.902 197.627C195.336 197.443 195.826 197.352 196.373 197.352C197.072 197.352 197.65 197.469 198.107 197.703C198.568 197.934 198.924 198.254 199.174 198.664C199.424 199.074 199.582 199.543 199.648 200.07H198.207C198.16 199.773 198.068 199.508 197.932 199.273C197.799 199.039 197.607 198.855 197.357 198.723C197.111 198.586 196.791 198.518 196.396 198.518C196.057 198.518 195.758 198.582 195.5 198.711C195.242 198.84 195.027 199.029 194.855 199.279C194.688 199.529 194.561 199.834 194.475 200.193C194.389 200.553 194.346 200.963 194.346 201.424V202.027C194.346 202.496 194.395 202.912 194.492 203.275C194.594 203.639 194.738 203.945 194.926 204.195C195.117 204.445 195.35 204.635 195.623 204.764C195.896 204.889 196.205 204.951 196.549 204.951C196.885 204.951 197.16 204.924 197.375 204.869C197.59 204.811 197.76 204.742 197.885 204.664C198.014 204.582 198.113 204.504 198.184 204.43V202.736H196.408V201.641H199.648ZM200.867 202.9V202.766C200.867 202.309 200.934 201.885 201.066 201.494C201.199 201.1 201.391 200.758 201.641 200.469C201.895 200.176 202.203 199.949 202.566 199.789C202.934 199.625 203.348 199.543 203.809 199.543C204.273 199.543 204.688 199.625 205.051 199.789C205.418 199.949 205.729 200.176 205.982 200.469C206.236 200.758 206.43 201.1 206.562 201.494C206.695 201.885 206.762 202.309 206.762 202.766V202.9C206.762 203.357 206.695 203.781 206.562 204.172C206.43 204.562 206.236 204.904 205.982 205.197C205.729 205.486 205.42 205.713 205.057 205.877C204.693 206.037 204.281 206.117 203.82 206.117C203.355 206.117 202.939 206.037 202.572 205.877C202.209 205.713 201.9 205.486 201.646 205.197C201.393 204.904 201.199 204.562 201.066 204.172C200.934 203.781 200.867 203.357 200.867 202.9ZM202.279 202.766V202.9C202.279 203.186 202.309 203.455 202.367 203.709C202.426 203.963 202.518 204.186 202.643 204.377C202.768 204.568 202.928 204.719 203.123 204.828C203.318 204.938 203.551 204.992 203.82 204.992C204.082 204.992 204.309 204.938 204.5 204.828C204.695 204.719 204.855 204.568 204.98 204.377C205.105 204.186 205.197 203.963 205.256 203.709C205.318 203.455 205.35 203.186 205.35 202.9V202.766C205.35 202.484 205.318 202.219 205.256 201.969C205.197 201.715 205.104 201.49 204.975 201.295C204.85 201.1 204.689 200.947 204.494 200.838C204.303 200.725 204.074 200.668 203.809 200.668C203.543 200.668 203.312 200.725 203.117 200.838C202.926 200.947 202.768 201.1 202.643 201.295C202.518 201.49 202.426 201.715 202.367 201.969C202.309 202.219 202.279 202.484 202.279 202.766ZM209.346 201.014V206H207.934V199.66H209.264L209.346 201.014ZM209.094 202.596L208.637 202.59C208.641 202.141 208.703 201.729 208.824 201.354C208.949 200.979 209.121 200.656 209.34 200.387C209.562 200.117 209.828 199.91 210.137 199.766C210.445 199.617 210.789 199.543 211.168 199.543C211.473 199.543 211.748 199.586 211.994 199.672C212.244 199.754 212.457 199.889 212.633 200.076C212.812 200.264 212.949 200.508 213.043 200.809C213.137 201.105 213.184 201.471 213.184 201.904V206H211.766V201.898C211.766 201.594 211.721 201.354 211.631 201.178C211.545 200.998 211.418 200.871 211.25 200.797C211.086 200.719 210.881 200.68 210.635 200.68C210.393 200.68 210.176 200.73 209.984 200.832C209.793 200.934 209.631 201.072 209.498 201.248C209.369 201.424 209.27 201.627 209.199 201.857C209.129 202.088 209.094 202.334 209.094 202.596ZM219.529 204.875V206H214.807V204.875H219.529ZM219.4 200.539L215.287 206H214.373V205.092L218.463 199.66H219.4V200.539ZM218.855 199.66V200.785H214.443V199.66H218.855ZM224.234 204.729V201.705C224.234 201.479 224.193 201.283 224.111 201.119C224.029 200.955 223.904 200.828 223.736 200.738C223.572 200.648 223.365 200.604 223.115 200.604C222.885 200.604 222.686 200.643 222.518 200.721C222.35 200.799 222.219 200.904 222.125 201.037C222.031 201.17 221.984 201.32 221.984 201.488H220.578C220.578 201.238 220.639 200.996 220.76 200.762C220.881 200.527 221.057 200.318 221.287 200.135C221.518 199.951 221.793 199.807 222.113 199.701C222.434 199.596 222.793 199.543 223.191 199.543C223.668 199.543 224.09 199.623 224.457 199.783C224.828 199.943 225.119 200.186 225.33 200.51C225.545 200.83 225.652 201.232 225.652 201.717V204.535C225.652 204.824 225.672 205.084 225.711 205.314C225.754 205.541 225.814 205.738 225.893 205.906V206H224.445C224.379 205.848 224.326 205.654 224.287 205.42C224.252 205.182 224.234 204.951 224.234 204.729ZM224.439 202.145L224.451 203.018H223.438C223.176 203.018 222.945 203.043 222.746 203.094C222.547 203.141 222.381 203.211 222.248 203.305C222.115 203.398 222.016 203.512 221.949 203.645C221.883 203.777 221.85 203.928 221.85 204.096C221.85 204.264 221.889 204.418 221.967 204.559C222.045 204.695 222.158 204.803 222.307 204.881C222.459 204.959 222.643 204.998 222.857 204.998C223.146 204.998 223.398 204.939 223.613 204.822C223.832 204.701 224.004 204.555 224.129 204.383C224.254 204.207 224.32 204.041 224.328 203.885L224.785 204.512C224.738 204.672 224.658 204.844 224.545 205.027C224.432 205.211 224.283 205.387 224.1 205.555C223.92 205.719 223.703 205.854 223.449 205.959C223.199 206.064 222.91 206.117 222.582 206.117C222.168 206.117 221.799 206.035 221.475 205.871C221.15 205.703 220.896 205.479 220.713 205.197C220.529 204.912 220.438 204.59 220.438 204.23C220.438 203.895 220.5 203.598 220.625 203.34C220.754 203.078 220.941 202.859 221.188 202.684C221.438 202.508 221.742 202.375 222.102 202.285C222.461 202.191 222.871 202.145 223.332 202.145H224.439ZM222.535 198.764L223.678 197H225.271L223.678 198.764H222.535ZM228.641 197V206H227.223V197H228.641ZM232.982 206.117C232.514 206.117 232.09 206.041 231.711 205.889C231.336 205.732 231.016 205.516 230.75 205.238C230.488 204.961 230.287 204.635 230.146 204.26C230.006 203.885 229.936 203.48 229.936 203.047V202.812C229.936 202.316 230.008 201.867 230.152 201.465C230.297 201.062 230.498 200.719 230.756 200.434C231.014 200.145 231.318 199.924 231.67 199.771C232.021 199.619 232.402 199.543 232.812 199.543C233.266 199.543 233.662 199.619 234.002 199.771C234.342 199.924 234.623 200.139 234.846 200.416C235.072 200.689 235.24 201.016 235.35 201.395C235.463 201.773 235.52 202.191 235.52 202.648V203.252H230.621V202.238H234.125V202.127C234.117 201.873 234.066 201.635 233.973 201.412C233.883 201.189 233.744 201.01 233.557 200.873C233.369 200.736 233.119 200.668 232.807 200.668C232.572 200.668 232.363 200.719 232.18 200.82C232 200.918 231.85 201.061 231.729 201.248C231.607 201.436 231.514 201.662 231.447 201.928C231.385 202.189 231.354 202.484 231.354 202.812V203.047C231.354 203.324 231.391 203.582 231.465 203.82C231.543 204.055 231.656 204.26 231.805 204.436C231.953 204.611 232.133 204.75 232.344 204.852C232.555 204.949 232.795 204.998 233.064 204.998C233.404 204.998 233.707 204.93 233.973 204.793C234.238 204.656 234.469 204.463 234.664 204.213L235.408 204.934C235.271 205.133 235.094 205.324 234.875 205.508C234.656 205.688 234.389 205.834 234.072 205.947C233.76 206.061 233.396 206.117 232.982 206.117ZM241.525 204.875V206H236.803V204.875H241.525ZM241.396 200.539L237.283 206H236.369V205.092L240.459 199.66H241.396V200.539ZM240.852 199.66V200.785H236.439V199.66H240.852Z" fill="#7A7A88"/>
<path d="M46.8617 254.858C46.8541 254.794 46.8393 254.73 46.8178 254.669V254.606C46.7825 254.534 46.7356 254.468 46.6786 254.41V254.41L42.2853 250.21C42.2248 250.156 42.1556 250.111 42.0803 250.077H42.0144C41.94 250.036 41.8579 250.01 41.7728 250H37.3429C36.7603 250 36.2016 250.221 35.7896 250.615C35.3777 251.009 35.1462 251.543 35.1462 252.1V261.9C35.1462 262.457 35.3777 262.991 35.7896 263.385C36.2016 263.779 36.7603 264 37.3429 264H44.665C45.2476 264 45.8064 263.779 46.2183 263.385C46.6303 262.991 46.8617 262.457 46.8617 261.9V254.9C46.8617 254.9 46.8617 254.9 46.8617 254.858ZM42.4684 252.387L44.3648 254.2H43.2006C43.0064 254.2 42.8202 254.126 42.6829 253.995C42.5455 253.864 42.4684 253.686 42.4684 253.5V252.387ZM45.3973 261.9C45.3973 262.086 45.3201 262.264 45.1828 262.395C45.0455 262.526 44.8592 262.6 44.665 262.6H37.3429C37.1487 262.6 36.9624 262.526 36.8251 262.395C36.6878 262.264 36.6107 262.086 36.6107 261.9V252.1C36.6107 251.914 36.6878 251.736 36.8251 251.605C36.9624 251.474 37.1487 251.4 37.3429 251.4H41.004V253.5C41.004 254.057 41.2354 254.591 41.6473 254.985C42.0593 255.379 42.618 255.6 43.2006 255.6H45.3973V261.9Z" fill="#6D6D6F"/>
<path d="M58.5503 259.875V261H52.8315V260.033L55.6089 257.004C55.9136 256.66 56.1538 256.363 56.3296 256.113C56.5054 255.863 56.6284 255.639 56.6987 255.439C56.7729 255.236 56.8101 255.039 56.8101 254.848C56.8101 254.578 56.7593 254.342 56.6577 254.139C56.5601 253.932 56.4155 253.77 56.2241 253.652C56.0327 253.531 55.8003 253.471 55.5269 253.471C55.2104 253.471 54.9448 253.539 54.73 253.676C54.5151 253.812 54.353 254.002 54.2437 254.244C54.1343 254.482 54.0796 254.756 54.0796 255.064H52.6675C52.6675 254.568 52.7808 254.115 53.0073 253.705C53.2339 253.291 53.562 252.963 53.9917 252.721C54.4214 252.475 54.939 252.352 55.5444 252.352C56.1147 252.352 56.5991 252.447 56.9976 252.639C57.396 252.83 57.6987 253.102 57.9058 253.453C58.1167 253.805 58.2222 254.221 58.2222 254.701C58.2222 254.967 58.1792 255.23 58.0933 255.492C58.0073 255.754 57.8843 256.016 57.7241 256.277C57.5679 256.535 57.3823 256.795 57.1675 257.057C56.9526 257.314 56.7163 257.576 56.4585 257.842L54.6128 259.875H58.5503ZM65.5288 257.959V259.084H59.3765L59.3296 258.234L63.0093 252.469H64.1401L62.9155 254.566L60.8003 257.959H65.5288ZM64.4624 252.469V261H63.0503V252.469H64.4624Z" fill="#6D6D6F"/>
<path d="M134.911 259.887H135.028C135.568 259.887 136.017 259.816 136.376 259.676C136.739 259.531 137.028 259.332 137.243 259.078C137.458 258.824 137.612 258.525 137.706 258.182C137.8 257.838 137.847 257.465 137.847 257.062V255.592C137.847 255.244 137.81 254.939 137.735 254.678C137.665 254.412 137.564 254.191 137.431 254.016C137.302 253.836 137.151 253.701 136.98 253.611C136.812 253.521 136.63 253.477 136.435 253.477C136.22 253.477 136.026 253.525 135.855 253.623C135.687 253.717 135.544 253.848 135.427 254.016C135.314 254.18 135.226 254.373 135.163 254.596C135.105 254.814 135.075 255.049 135.075 255.299C135.075 255.533 135.103 255.76 135.157 255.979C135.216 256.193 135.302 256.385 135.415 256.553C135.528 256.721 135.671 256.854 135.843 256.951C136.015 257.049 136.216 257.098 136.446 257.098C136.665 257.098 136.866 257.057 137.05 256.975C137.234 256.889 137.394 256.773 137.53 256.629C137.667 256.484 137.775 256.322 137.853 256.143C137.931 255.963 137.974 255.779 137.982 255.592L138.521 255.756C138.521 256.053 138.458 256.346 138.333 256.635C138.212 256.92 138.042 257.182 137.823 257.42C137.609 257.654 137.357 257.842 137.068 257.982C136.782 258.123 136.472 258.193 136.136 258.193C135.73 258.193 135.37 258.117 135.058 257.965C134.749 257.809 134.491 257.598 134.284 257.332C134.081 257.066 133.929 256.762 133.827 256.418C133.726 256.074 133.675 255.713 133.675 255.334C133.675 254.924 133.737 254.539 133.862 254.18C133.987 253.82 134.169 253.504 134.407 253.23C134.646 252.953 134.935 252.738 135.275 252.586C135.618 252.43 136.007 252.352 136.441 252.352C136.901 252.352 137.306 252.441 137.653 252.621C138.001 252.801 138.294 253.049 138.532 253.365C138.771 253.682 138.95 254.049 139.071 254.467C139.193 254.885 139.253 255.334 139.253 255.814V256.312C139.253 256.816 139.208 257.303 139.118 257.771C139.028 258.236 138.882 258.668 138.679 259.066C138.48 259.461 138.216 259.809 137.888 260.109C137.564 260.406 137.165 260.639 136.693 260.807C136.224 260.971 135.673 261.053 135.04 261.053H134.911V259.887Z" fill="#6D6D6F"/>
<path d="M214.246 256.096H215.09C215.418 256.096 215.689 256.039 215.904 255.926C216.123 255.812 216.285 255.656 216.39 255.457C216.496 255.258 216.549 255.029 216.549 254.771C216.549 254.502 216.5 254.271 216.402 254.08C216.308 253.885 216.164 253.734 215.969 253.629C215.777 253.523 215.533 253.471 215.236 253.471C214.986 253.471 214.76 253.521 214.556 253.623C214.357 253.721 214.199 253.861 214.082 254.045C213.965 254.225 213.906 254.439 213.906 254.689H212.488C212.488 254.236 212.607 253.834 212.845 253.482C213.084 253.131 213.408 252.855 213.818 252.656C214.232 252.453 214.697 252.352 215.213 252.352C215.763 252.352 216.244 252.443 216.654 252.627C217.068 252.807 217.39 253.076 217.621 253.436C217.851 253.795 217.967 254.24 217.967 254.771C217.967 255.014 217.91 255.26 217.797 255.51C217.683 255.76 217.515 255.988 217.293 256.195C217.07 256.398 216.793 256.564 216.461 256.693C216.129 256.818 215.744 256.881 215.306 256.881H214.246V256.096ZM214.246 257.197V256.424H215.306C215.806 256.424 216.232 256.482 216.584 256.6C216.939 256.717 217.228 256.879 217.451 257.086C217.674 257.289 217.836 257.521 217.937 257.783C218.043 258.045 218.095 258.322 218.095 258.615C218.095 259.014 218.023 259.369 217.879 259.682C217.738 259.99 217.537 260.252 217.275 260.467C217.013 260.682 216.707 260.844 216.355 260.953C216.008 261.062 215.629 261.117 215.219 261.117C214.851 261.117 214.5 261.066 214.164 260.965C213.828 260.863 213.527 260.713 213.261 260.514C212.996 260.311 212.785 260.059 212.629 259.758C212.476 259.453 212.4 259.102 212.4 258.703H213.812C213.812 258.957 213.871 259.182 213.988 259.377C214.109 259.568 214.277 259.719 214.492 259.828C214.711 259.938 214.961 259.992 215.242 259.992C215.539 259.992 215.795 259.939 216.01 259.834C216.224 259.729 216.388 259.572 216.502 259.365C216.619 259.158 216.677 258.908 216.677 258.615C216.677 258.283 216.613 258.014 216.484 257.807C216.355 257.6 216.172 257.447 215.933 257.35C215.695 257.248 215.414 257.197 215.09 257.197H214.246ZM224.969 256.02V257.414C224.969 258.082 224.902 258.652 224.769 259.125C224.64 259.594 224.453 259.975 224.207 260.268C223.961 260.561 223.666 260.775 223.322 260.912C222.982 261.049 222.601 261.117 222.179 261.117C221.844 261.117 221.531 261.074 221.242 260.988C220.957 260.902 220.699 260.768 220.469 260.584C220.238 260.4 220.041 260.164 219.877 259.875C219.717 259.582 219.592 259.232 219.502 258.826C219.416 258.42 219.373 257.949 219.373 257.414V256.02C219.373 255.348 219.439 254.781 219.572 254.32C219.705 253.855 219.894 253.479 220.14 253.189C220.386 252.896 220.679 252.684 221.019 252.551C221.363 252.418 221.746 252.352 222.168 252.352C222.508 252.352 222.82 252.395 223.105 252.48C223.394 252.562 223.652 252.693 223.879 252.873C224.109 253.053 224.304 253.287 224.465 253.576C224.629 253.861 224.754 254.207 224.84 254.613C224.926 255.016 224.969 255.484 224.969 256.02ZM223.556 257.613V255.809C223.556 255.469 223.537 255.17 223.498 254.912C223.459 254.65 223.4 254.43 223.322 254.25C223.248 254.066 223.154 253.918 223.041 253.805C222.927 253.688 222.799 253.604 222.654 253.553C222.51 253.498 222.347 253.471 222.168 253.471C221.949 253.471 221.754 253.514 221.582 253.6C221.41 253.682 221.265 253.814 221.148 253.998C221.031 254.182 220.941 254.424 220.879 254.725C220.82 255.021 220.791 255.383 220.791 255.809V257.613C220.791 257.957 220.81 258.26 220.849 258.521C220.888 258.783 220.947 259.008 221.025 259.195C221.103 259.379 221.197 259.531 221.306 259.652C221.42 259.77 221.549 259.855 221.693 259.91C221.842 259.965 222.004 259.992 222.179 259.992C222.402 259.992 222.599 259.949 222.771 259.863C222.943 259.777 223.088 259.641 223.205 259.453C223.322 259.262 223.41 259.014 223.469 258.709C223.527 258.404 223.556 258.039 223.556 257.613Z" fill="#6D6D6F"/>
<path d="M193.098 257.181C193.566 256.801 193.942 256.33 194.199 255.802C194.456 255.273 194.589 254.699 194.589 254.118C194.589 253.026 194.127 251.978 193.305 251.206C192.482 250.434 191.367 250 190.204 250C189.041 250 187.925 250.434 187.103 251.206C186.28 251.978 185.818 253.026 185.818 254.118C185.818 254.699 185.951 255.273 186.209 255.802C186.466 256.33 186.841 256.801 187.309 257.181C186.082 257.703 185.04 258.546 184.309 259.609C183.578 260.673 183.188 261.911 183.187 263.176C183.187 263.395 183.279 263.604 183.444 263.759C183.608 263.913 183.831 264 184.064 264C184.297 264 184.52 263.913 184.684 263.759C184.849 263.604 184.941 263.395 184.941 263.176C184.941 261.866 185.496 260.609 186.483 259.683C187.469 258.756 188.808 258.235 190.204 258.235C191.599 258.235 192.938 258.756 193.925 259.683C194.912 260.609 195.466 261.866 195.466 263.176C195.466 263.395 195.559 263.604 195.723 263.759C195.888 263.913 196.111 264 196.343 264C196.576 264 196.799 263.913 196.964 263.759C197.128 263.604 197.22 263.395 197.22 263.176C197.219 261.911 196.83 260.673 196.099 259.609C195.368 258.546 194.326 257.703 193.098 257.181V257.181ZM190.204 256.588C189.683 256.588 189.175 256.443 188.742 256.172C188.309 255.9 187.972 255.515 187.773 255.063C187.574 254.612 187.522 254.115 187.623 253.636C187.725 253.156 187.975 252.716 188.343 252.371C188.711 252.025 189.18 251.79 189.69 251.695C190.201 251.599 190.73 251.648 191.211 251.835C191.691 252.022 192.102 252.339 192.392 252.745C192.681 253.151 192.835 253.629 192.835 254.118C192.835 254.773 192.558 255.401 192.064 255.865C191.571 256.328 190.902 256.588 190.204 256.588ZM198.747 256.852C199.308 256.258 199.675 255.525 199.802 254.741C199.93 253.956 199.814 253.153 199.467 252.429C199.121 251.705 198.559 251.091 197.849 250.66C197.139 250.229 196.312 250 195.466 250C195.234 250 195.011 250.087 194.846 250.241C194.682 250.396 194.589 250.605 194.589 250.824C194.589 251.042 194.682 251.251 194.846 251.406C195.011 251.56 195.234 251.647 195.466 251.647C196.164 251.647 196.833 251.907 197.327 252.371C197.82 252.834 198.098 253.462 198.098 254.118C198.096 254.55 197.974 254.975 197.743 255.349C197.512 255.723 197.181 256.034 196.782 256.251C196.652 256.321 196.543 256.422 196.467 256.543C196.39 256.664 196.347 256.801 196.343 256.942C196.34 257.082 196.374 257.221 196.443 257.344C196.512 257.468 196.614 257.574 196.738 257.651L197.08 257.865L197.194 257.922C198.251 258.393 199.143 259.138 199.765 260.069C200.386 261 200.712 262.078 200.703 263.176C200.703 263.395 200.795 263.604 200.959 263.759C201.124 263.913 201.347 264 201.58 264C201.812 264 202.035 263.913 202.2 263.759C202.364 263.604 202.457 263.395 202.457 263.176C202.464 261.913 202.127 260.668 201.477 259.561C200.828 258.454 199.888 257.522 198.747 256.852V256.852Z" fill="#6D6D6F"/>
<rect x="88.3984" y="250" width="1.06504" height="14" fill="#EFEFEF"/>
<rect x="161.886" y="250" width="1.06504" height="14" fill="#EFEFEF"/>
<path d="M125.616 251.154C125.529 251.088 125.428 251.042 125.319 251.017C125.211 250.993 125.098 250.992 124.989 251.014C124.192 251.171 123.37 251.173 122.572 251.02C121.774 250.867 121.018 250.562 120.351 250.125C120.226 250.044 120.077 250 119.925 250C119.774 250 119.625 250.044 119.5 250.125C118.833 250.562 118.077 250.867 117.279 251.02C116.481 251.173 115.659 251.171 114.862 251.014C114.753 250.992 114.64 250.993 114.532 251.017C114.423 251.042 114.322 251.088 114.235 251.154C114.149 251.22 114.079 251.303 114.031 251.398C113.984 251.492 113.959 251.596 113.959 251.7V256.917C113.959 257.921 114.213 258.911 114.703 259.803C115.192 260.696 115.901 261.466 116.771 262.05L119.493 263.87C119.619 263.955 119.77 264 119.925 264C120.08 264 120.232 263.955 120.358 263.87L123.08 262.05C123.95 261.466 124.659 260.696 125.148 259.803C125.637 258.911 125.892 257.921 125.892 256.917V251.7C125.892 251.596 125.867 251.492 125.82 251.398C125.772 251.303 125.702 251.22 125.616 251.154ZM124.4 256.917C124.401 257.698 124.203 258.467 123.823 259.161C123.442 259.855 122.891 260.454 122.215 260.908L119.925 262.442L117.636 260.908C116.96 260.454 116.408 259.855 116.028 259.161C115.648 258.467 115.45 257.698 115.451 256.917V252.506C117.014 252.631 118.58 252.291 119.925 251.532C121.271 252.291 122.837 252.631 124.4 252.506V256.917ZM121.074 255.314L119.068 257.204L118.404 256.574C118.264 256.442 118.073 256.368 117.875 256.368C117.676 256.368 117.486 256.442 117.345 256.574C117.205 256.706 117.126 256.885 117.126 257.071C117.126 257.258 117.205 257.436 117.345 257.568L118.538 258.689C118.608 258.754 118.69 258.806 118.781 258.842C118.872 258.877 118.969 258.896 119.068 258.896C119.166 258.896 119.264 258.877 119.355 258.842C119.446 258.806 119.528 258.754 119.597 258.689L122.163 256.301C122.303 256.169 122.382 255.99 122.382 255.804C122.382 255.617 122.303 255.438 122.163 255.307C122.022 255.175 121.832 255.101 121.633 255.101C121.435 255.101 121.244 255.175 121.104 255.307L121.074 255.314Z" fill="#6D6D6F"/>
<rect x="19.1708" y="279" width="221.528" height="7" rx="3.5" fill="#F2F2F2"/>
<rect x="19.1708" y="279" width="99.0488" height="7" rx="3.5" fill="#3C3D44"/>
<path d="M25.077 305.223H26.5419C26.495 305.781 26.3387 306.279 26.0731 306.717C25.8075 307.15 25.4344 307.492 24.954 307.742C24.4735 307.992 23.8895 308.117 23.202 308.117C22.6747 308.117 22.2001 308.023 21.7782 307.836C21.3563 307.645 20.995 307.375 20.6942 307.027C20.3934 306.676 20.163 306.252 20.0028 305.756C19.8466 305.26 19.7684 304.705 19.7684 304.092V303.383C19.7684 302.77 19.8485 302.215 20.0087 301.719C20.1727 301.223 20.4071 300.799 20.7118 300.447C21.0165 300.092 21.3817 299.82 21.8075 299.633C22.2372 299.445 22.7196 299.352 23.2548 299.352C23.9344 299.352 24.5087 299.477 24.9774 299.727C25.4462 299.977 25.8094 300.322 26.0673 300.764C26.329 301.205 26.4891 301.711 26.5477 302.281H25.0829C25.0438 301.914 24.9579 301.6 24.8251 301.338C24.6962 301.076 24.5048 300.877 24.2509 300.74C23.9969 300.6 23.6649 300.529 23.2548 300.529C22.9188 300.529 22.6259 300.592 22.3759 300.717C22.1259 300.842 21.9169 301.025 21.7489 301.268C21.5809 301.51 21.454 301.809 21.368 302.164C21.286 302.516 21.245 302.918 21.245 303.371V304.092C21.245 304.521 21.2821 304.912 21.3563 305.264C21.4344 305.611 21.5516 305.91 21.7079 306.16C21.868 306.41 22.0712 306.604 22.3173 306.74C22.5634 306.877 22.8583 306.945 23.202 306.945C23.62 306.945 23.9579 306.879 24.2157 306.746C24.4774 306.613 24.6747 306.42 24.8075 306.166C24.9442 305.908 25.0341 305.594 25.077 305.223ZM27.4677 304.9V304.766C27.4677 304.309 27.5341 303.885 27.6669 303.494C27.7997 303.1 27.9911 302.758 28.2411 302.469C28.495 302.176 28.8036 301.949 29.1669 301.789C29.5341 301.625 29.9481 301.543 30.4091 301.543C30.8739 301.543 31.288 301.625 31.6512 301.789C32.0184 301.949 32.329 302.176 32.5829 302.469C32.8368 302.758 33.0302 303.1 33.163 303.494C33.2958 303.885 33.3622 304.309 33.3622 304.766V304.9C33.3622 305.357 33.2958 305.781 33.163 306.172C33.0302 306.562 32.8368 306.904 32.5829 307.197C32.329 307.486 32.0204 307.713 31.6571 307.877C31.2938 308.037 30.8817 308.117 30.4208 308.117C29.9559 308.117 29.5399 308.037 29.1727 307.877C28.8094 307.713 28.5009 307.486 28.2469 307.197C27.993 306.904 27.7997 306.562 27.6669 306.172C27.5341 305.781 27.4677 305.357 27.4677 304.9ZM28.8798 304.766V304.9C28.8798 305.186 28.9091 305.455 28.9677 305.709C29.0262 305.963 29.118 306.186 29.243 306.377C29.368 306.568 29.5282 306.719 29.7235 306.828C29.9188 306.938 30.1512 306.992 30.4208 306.992C30.6825 306.992 30.9091 306.938 31.1005 306.828C31.2958 306.719 31.4559 306.568 31.5809 306.377C31.7059 306.186 31.7977 305.963 31.8563 305.709C31.9188 305.455 31.9501 305.186 31.9501 304.9V304.766C31.9501 304.484 31.9188 304.219 31.8563 303.969C31.7977 303.715 31.704 303.49 31.5751 303.295C31.4501 303.1 31.2899 302.947 31.0946 302.838C30.9032 302.725 30.6747 302.668 30.4091 302.668C30.1434 302.668 29.913 302.725 29.7177 302.838C29.5262 302.947 29.368 303.1 29.243 303.295C29.118 303.49 29.0262 303.715 28.9677 303.969C28.9091 304.219 28.8798 304.484 28.8798 304.766ZM35.9579 302.949V308H34.5458V301.66H35.8759L35.9579 302.949ZM35.7294 304.596L35.2489 304.59C35.2489 304.152 35.3036 303.748 35.413 303.377C35.5223 303.006 35.6825 302.684 35.8934 302.41C36.1044 302.133 36.3661 301.92 36.6786 301.771C36.995 301.619 37.3602 301.543 37.7743 301.543C38.0634 301.543 38.327 301.586 38.5653 301.672C38.8075 301.754 39.0165 301.885 39.1923 302.064C39.3719 302.244 39.5087 302.475 39.6024 302.756C39.7001 303.037 39.7489 303.377 39.7489 303.775V308H38.3368V303.898C38.3368 303.59 38.2899 303.348 38.1962 303.172C38.1063 302.996 37.9755 302.871 37.8036 302.797C37.6356 302.719 37.4344 302.68 37.2001 302.68C36.9344 302.68 36.7079 302.73 36.5204 302.832C36.3368 302.934 36.1864 303.072 36.0692 303.248C35.952 303.424 35.8661 303.627 35.8114 303.857C35.7567 304.088 35.7294 304.334 35.7294 304.596ZM39.661 304.221L38.9989 304.367C38.9989 303.984 39.0516 303.623 39.1571 303.283C39.2665 302.939 39.4247 302.639 39.6317 302.381C39.8427 302.119 40.1024 301.914 40.411 301.766C40.7196 301.617 41.0731 301.543 41.4716 301.543C41.7958 301.543 42.0848 301.588 42.3387 301.678C42.5966 301.764 42.8153 301.9 42.995 302.088C43.1747 302.275 43.3114 302.52 43.4052 302.82C43.4989 303.117 43.5458 303.477 43.5458 303.898V308H42.1278V303.893C42.1278 303.572 42.0809 303.324 41.9872 303.148C41.8973 302.973 41.7684 302.852 41.6005 302.785C41.4325 302.715 41.2313 302.68 40.9969 302.68C40.7782 302.68 40.5848 302.721 40.4169 302.803C40.2528 302.881 40.1141 302.992 40.0009 303.137C39.8876 303.277 39.8016 303.439 39.743 303.623C39.6884 303.807 39.661 304.006 39.661 304.221ZM46.4169 302.879V310.438H45.0048V301.66H46.3055L46.4169 302.879ZM50.5477 304.771V304.895C50.5477 305.355 50.493 305.783 50.3837 306.178C50.2782 306.568 50.12 306.91 49.9091 307.203C49.702 307.492 49.4462 307.717 49.1415 307.877C48.8368 308.037 48.4852 308.117 48.0868 308.117C47.6923 308.117 47.3466 308.045 47.0497 307.9C46.7567 307.752 46.5087 307.543 46.3055 307.273C46.1024 307.004 45.9384 306.688 45.8134 306.324C45.6923 305.957 45.6063 305.555 45.5555 305.117V304.643C45.6063 304.178 45.6923 303.756 45.8134 303.377C45.9384 302.998 46.1024 302.672 46.3055 302.398C46.5087 302.125 46.7567 301.914 47.0497 301.766C47.3427 301.617 47.6844 301.543 48.0751 301.543C48.4735 301.543 48.827 301.621 49.1356 301.777C49.4442 301.93 49.704 302.148 49.9149 302.434C50.1259 302.715 50.2841 303.055 50.3895 303.453C50.495 303.848 50.5477 304.287 50.5477 304.771ZM49.1356 304.895V304.771C49.1356 304.479 49.1083 304.207 49.0536 303.957C48.9989 303.703 48.913 303.48 48.7958 303.289C48.6786 303.098 48.5282 302.949 48.3446 302.844C48.1649 302.734 47.9481 302.68 47.6942 302.68C47.4442 302.68 47.2294 302.723 47.0497 302.809C46.87 302.891 46.7196 303.006 46.5985 303.154C46.4774 303.303 46.3837 303.477 46.3173 303.676C46.2509 303.871 46.204 304.084 46.1766 304.314V305.451C46.2235 305.732 46.3036 305.99 46.4169 306.225C46.5302 306.459 46.6903 306.646 46.8973 306.787C47.1083 306.924 47.3778 306.992 47.7059 306.992C47.9598 306.992 48.1766 306.938 48.3563 306.828C48.536 306.719 48.6825 306.568 48.7958 306.377C48.913 306.182 48.9989 305.957 49.0536 305.703C49.1083 305.449 49.1356 305.18 49.1356 304.895ZM53.2606 299V308H51.8427V299H53.2606ZM57.6024 308.117C57.1337 308.117 56.7098 308.041 56.3309 307.889C55.9559 307.732 55.6356 307.516 55.37 307.238C55.1083 306.961 54.9071 306.635 54.7665 306.26C54.6259 305.885 54.5555 305.48 54.5555 305.047V304.812C54.5555 304.316 54.6278 303.867 54.7723 303.465C54.9169 303.062 55.118 302.719 55.3759 302.434C55.6337 302.145 55.9384 301.924 56.2899 301.771C56.6415 301.619 57.0223 301.543 57.4325 301.543C57.8856 301.543 58.2821 301.619 58.6219 301.771C58.9618 301.924 59.243 302.139 59.4657 302.416C59.6923 302.689 59.8602 303.016 59.9696 303.395C60.0829 303.773 60.1395 304.191 60.1395 304.648V305.252H55.2411V304.238H58.745V304.127C58.7372 303.873 58.6864 303.635 58.5927 303.412C58.5028 303.189 58.3641 303.01 58.1766 302.873C57.9891 302.736 57.7391 302.668 57.4266 302.668C57.1923 302.668 56.9833 302.719 56.7997 302.82C56.62 302.918 56.4696 303.061 56.3485 303.248C56.2274 303.436 56.1337 303.662 56.0673 303.928C56.0048 304.189 55.9735 304.484 55.9735 304.812V305.047C55.9735 305.324 56.0106 305.582 56.0848 305.82C56.163 306.055 56.2762 306.26 56.4247 306.436C56.5731 306.611 56.7528 306.75 56.9637 306.852C57.1747 306.949 57.4149 306.998 57.6844 306.998C58.0243 306.998 58.327 306.93 58.5927 306.793C58.8583 306.656 59.0887 306.463 59.2841 306.213L60.0282 306.934C59.8915 307.133 59.7137 307.324 59.495 307.508C59.2762 307.688 59.0087 307.834 58.6923 307.947C58.3798 308.061 58.0165 308.117 57.6024 308.117ZM64.1473 301.66V302.691H60.5731V301.66H64.1473ZM61.6044 300.107H63.0165V306.248C63.0165 306.443 63.0438 306.594 63.0985 306.699C63.1571 306.801 63.2372 306.869 63.3387 306.904C63.4403 306.939 63.5594 306.957 63.6962 306.957C63.7938 306.957 63.8876 306.951 63.9774 306.939C64.0673 306.928 64.1395 306.916 64.1942 306.904L64.2001 307.982C64.0829 308.018 63.9462 308.049 63.7899 308.076C63.6376 308.104 63.4618 308.117 63.2626 308.117C62.9384 308.117 62.6512 308.061 62.4012 307.947C62.1512 307.83 61.9559 307.641 61.8153 307.379C61.6747 307.117 61.6044 306.77 61.6044 306.336V300.107ZM68.0321 308.117C67.5634 308.117 67.1395 308.041 66.7606 307.889C66.3856 307.732 66.0653 307.516 65.7997 307.238C65.538 306.961 65.3368 306.635 65.1962 306.26C65.0555 305.885 64.9852 305.48 64.9852 305.047V304.812C64.9852 304.316 65.0575 303.867 65.202 303.465C65.3466 303.062 65.5477 302.719 65.8055 302.434C66.0634 302.145 66.368 301.924 66.7196 301.771C67.0712 301.619 67.452 301.543 67.8622 301.543C68.3153 301.543 68.7118 301.619 69.0516 301.771C69.3915 301.924 69.6727 302.139 69.8954 302.416C70.1219 302.689 70.2899 303.016 70.3993 303.395C70.5126 303.773 70.5692 304.191 70.5692 304.648V305.252H65.6708V304.238H69.1747V304.127C69.1669 303.873 69.1161 303.635 69.0223 303.412C68.9325 303.189 68.7938 303.01 68.6063 302.873C68.4188 302.736 68.1688 302.668 67.8563 302.668C67.6219 302.668 67.413 302.719 67.2294 302.82C67.0497 302.918 66.8993 303.061 66.7782 303.248C66.6571 303.436 66.5634 303.662 66.4969 303.928C66.4344 304.189 66.4032 304.484 66.4032 304.812V305.047C66.4032 305.324 66.4403 305.582 66.5145 305.82C66.5927 306.055 66.7059 306.26 66.8544 306.436C67.0028 306.611 67.1825 306.75 67.3934 306.852C67.6044 306.949 67.8446 306.998 68.1141 306.998C68.454 306.998 68.7567 306.93 69.0223 306.793C69.288 306.656 69.5184 306.463 69.7137 306.213L70.4579 306.934C70.3212 307.133 70.1434 307.324 69.9247 307.508C69.7059 307.688 69.4384 307.834 69.1219 307.947C68.8094 308.061 68.4462 308.117 68.0321 308.117ZM75.538 306.688V299H76.9559V308H75.6727L75.538 306.688ZM71.413 304.9V304.777C71.413 304.297 71.4696 303.859 71.5829 303.465C71.6962 303.066 71.8602 302.725 72.0751 302.439C72.2899 302.15 72.5516 301.93 72.8602 301.777C73.1688 301.621 73.5165 301.543 73.9032 301.543C74.286 301.543 74.6219 301.617 74.911 301.766C75.2001 301.914 75.4462 302.127 75.6493 302.404C75.8524 302.678 76.0145 303.006 76.1356 303.389C76.2567 303.768 76.3427 304.189 76.3934 304.654V305.047C76.3427 305.5 76.2567 305.914 76.1356 306.289C76.0145 306.664 75.8524 306.988 75.6493 307.262C75.4462 307.535 75.1981 307.746 74.9052 307.895C74.6161 308.043 74.2782 308.117 73.8915 308.117C73.5087 308.117 73.163 308.037 72.8544 307.877C72.5497 307.717 72.2899 307.492 72.0751 307.203C71.8602 306.914 71.6962 306.574 71.5829 306.184C71.4696 305.789 71.413 305.361 71.413 304.9ZM72.8251 304.777V304.9C72.8251 305.189 72.8505 305.459 72.9012 305.709C72.9559 305.959 73.0399 306.18 73.1532 306.371C73.2665 306.559 73.413 306.707 73.5927 306.816C73.7762 306.922 73.995 306.975 74.2489 306.975C74.5692 306.975 74.8329 306.904 75.0399 306.764C75.2469 306.623 75.4091 306.434 75.5262 306.195C75.6473 305.953 75.7294 305.684 75.7723 305.387V304.326C75.7489 304.096 75.7001 303.881 75.6259 303.682C75.5555 303.482 75.4598 303.309 75.3387 303.16C75.2177 303.008 75.0673 302.891 74.8876 302.809C74.7118 302.723 74.5028 302.68 74.2606 302.68C74.0028 302.68 73.7841 302.734 73.6044 302.844C73.4247 302.953 73.2762 303.104 73.1591 303.295C73.0458 303.486 72.9618 303.709 72.9071 303.963C72.8524 304.217 72.8251 304.488 72.8251 304.777ZM78.4501 307.297C78.4501 307.078 78.5243 306.895 78.6727 306.746C78.8212 306.594 79.0223 306.518 79.2762 306.518C79.5341 306.518 79.7352 306.594 79.8798 306.746C80.0282 306.895 80.1024 307.078 80.1024 307.297C80.1024 307.516 80.0282 307.699 79.8798 307.848C79.7352 307.996 79.5341 308.07 79.2762 308.07C79.0223 308.07 78.8212 307.996 78.6727 307.848C78.5243 307.699 78.4501 307.516 78.4501 307.297ZM78.4559 302.305C78.4559 302.086 78.5302 301.902 78.6786 301.754C78.827 301.602 79.0282 301.525 79.2821 301.525C79.5399 301.525 79.7411 301.602 79.8856 301.754C80.0341 301.902 80.1083 302.086 80.1083 302.305C80.1083 302.523 80.0341 302.707 79.8856 302.855C79.7411 303.004 79.5399 303.078 79.2821 303.078C79.0282 303.078 78.827 303.004 78.6786 302.855C78.5302 302.707 78.4559 302.523 78.4559 302.305ZM90.3798 304.959V306.084H84.2274L84.1805 305.234L87.8602 299.469H88.9911L87.7665 301.566L85.6512 304.959H90.3798ZM89.3134 299.469V308H87.9012V299.469H89.3134ZM92.8055 304.033L91.6805 303.758L92.1434 299.469H96.743V300.664H93.3153L93.0809 302.756C93.2137 302.678 93.3973 302.602 93.6317 302.527C93.8661 302.449 94.1337 302.41 94.4344 302.41C94.8368 302.41 95.1962 302.477 95.5126 302.609C95.8329 302.738 96.1044 302.928 96.327 303.178C96.5497 303.424 96.7196 303.725 96.8368 304.08C96.954 304.432 97.0126 304.828 97.0126 305.27C97.0126 305.664 96.954 306.033 96.8368 306.377C96.7235 306.721 96.5516 307.023 96.3212 307.285C96.0907 307.547 95.7997 307.752 95.4481 307.9C95.1005 308.045 94.6884 308.117 94.2118 308.117C93.8563 308.117 93.5145 308.066 93.1864 307.965C92.8622 307.859 92.5712 307.705 92.3134 307.502C92.0555 307.295 91.8485 307.041 91.6923 306.74C91.536 306.436 91.4462 306.086 91.4227 305.691H92.8055C92.8407 305.969 92.9169 306.205 93.0341 306.4C93.1552 306.592 93.3153 306.738 93.5145 306.84C93.7137 306.941 93.9442 306.992 94.2059 306.992C94.4442 306.992 94.6493 306.951 94.8212 306.869C94.993 306.783 95.1356 306.662 95.2489 306.506C95.3661 306.346 95.452 306.158 95.5067 305.943C95.5653 305.729 95.5946 305.49 95.5946 305.229C95.5946 304.979 95.5614 304.75 95.495 304.543C95.4325 304.336 95.3368 304.156 95.2079 304.004C95.0829 303.852 94.9247 303.734 94.7333 303.652C94.5419 303.566 94.3212 303.523 94.0712 303.523C93.7352 303.523 93.4774 303.572 93.2977 303.67C93.1219 303.768 92.9579 303.889 92.8055 304.033ZM98.0848 301.561V301.109C98.0848 300.785 98.1552 300.49 98.2958 300.225C98.4364 299.959 98.6415 299.746 98.911 299.586C99.1805 299.426 99.5048 299.346 99.8837 299.346C100.274 299.346 100.602 299.426 100.868 299.586C101.138 299.746 101.343 299.959 101.483 300.225C101.624 300.49 101.694 300.785 101.694 301.109V301.561C101.694 301.877 101.624 302.168 101.483 302.434C101.347 302.699 101.143 302.912 100.874 303.072C100.608 303.232 100.282 303.312 99.8954 303.312C99.5126 303.312 99.1844 303.232 98.911 303.072C98.6415 302.912 98.4364 302.699 98.2958 302.434C98.1552 302.168 98.0848 301.877 98.0848 301.561ZM99.0634 301.109V301.561C99.0634 301.717 99.0927 301.865 99.1512 302.006C99.2137 302.146 99.3075 302.26 99.4325 302.346C99.5575 302.432 99.7118 302.475 99.8954 302.475C100.083 302.475 100.235 302.432 100.352 302.346C100.474 302.26 100.563 302.146 100.622 302.006C100.681 301.865 100.71 301.717 100.71 301.561V301.109C100.71 300.949 100.679 300.799 100.616 300.658C100.557 300.514 100.468 300.398 100.347 300.312C100.225 300.227 100.071 300.184 99.8837 300.184C99.704 300.184 99.5516 300.227 99.4266 300.312C99.3055 300.398 99.2137 300.514 99.1512 300.658C99.0927 300.799 99.0634 300.949 99.0634 301.109ZM102.198 306.365V305.908C102.198 305.588 102.268 305.295 102.409 305.029C102.554 304.764 102.761 304.551 103.03 304.391C103.3 304.23 103.624 304.15 104.003 304.15C104.393 304.15 104.722 304.23 104.987 304.391C105.257 304.551 105.46 304.764 105.597 305.029C105.737 305.295 105.807 305.588 105.807 305.908V306.365C105.807 306.686 105.737 306.979 105.597 307.244C105.46 307.51 105.259 307.723 104.993 307.883C104.727 308.043 104.403 308.123 104.02 308.123C103.634 308.123 103.304 308.043 103.03 307.883C102.761 307.723 102.554 307.51 102.409 307.244C102.268 306.979 102.198 306.686 102.198 306.365ZM103.182 305.908V306.365C103.182 306.521 103.214 306.67 103.276 306.811C103.343 306.951 103.438 307.066 103.563 307.156C103.688 307.242 103.839 307.285 104.015 307.285C104.214 307.285 104.374 307.242 104.495 307.156C104.616 307.066 104.702 306.953 104.753 306.816C104.807 306.676 104.835 306.525 104.835 306.365V305.908C104.835 305.748 104.804 305.598 104.741 305.457C104.682 305.316 104.591 305.203 104.466 305.117C104.345 305.031 104.19 304.988 104.003 304.988C103.819 304.988 103.667 305.031 103.546 305.117C103.425 305.203 103.333 305.316 103.27 305.457C103.212 305.598 103.182 305.748 103.182 305.908ZM104.354 300.688L100.188 307.355L99.4677 306.939L103.634 300.271L104.354 300.688Z" fill="#9A9FA5"/>
<path d="M184.403 308H182.58L182.592 306.834H184.403C184.93 306.834 185.371 306.719 185.727 306.488C186.086 306.258 186.356 305.928 186.535 305.498C186.719 305.068 186.811 304.557 186.811 303.963V303.5C186.811 303.039 186.758 302.631 186.653 302.275C186.551 301.92 186.399 301.621 186.196 301.379C185.996 301.137 185.75 300.953 185.457 300.828C185.168 300.703 184.834 300.641 184.455 300.641H182.545V299.469H184.455C185.022 299.469 185.539 299.564 186.008 299.756C186.477 299.943 186.881 300.215 187.221 300.57C187.565 300.926 187.828 301.352 188.012 301.848C188.196 302.344 188.287 302.898 188.287 303.512V303.963C188.287 304.576 188.196 305.131 188.012 305.627C187.828 306.123 187.565 306.549 187.221 306.904C186.877 307.256 186.467 307.527 185.99 307.719C185.518 307.906 184.989 308 184.403 308ZM183.395 299.469V308H181.924V299.469H183.395ZM193.198 306.729V303.705C193.198 303.479 193.156 303.283 193.074 303.119C192.992 302.955 192.867 302.828 192.699 302.738C192.535 302.648 192.328 302.604 192.078 302.604C191.848 302.604 191.649 302.643 191.481 302.721C191.313 302.799 191.182 302.904 191.088 303.037C190.994 303.17 190.948 303.32 190.948 303.488H189.541C189.541 303.238 189.602 302.996 189.723 302.762C189.844 302.527 190.02 302.318 190.25 302.135C190.481 301.951 190.756 301.807 191.076 301.701C191.397 301.596 191.756 301.543 192.155 301.543C192.631 301.543 193.053 301.623 193.42 301.783C193.791 301.943 194.082 302.186 194.293 302.51C194.508 302.83 194.615 303.232 194.615 303.717V306.535C194.615 306.824 194.635 307.084 194.674 307.314C194.717 307.541 194.778 307.738 194.856 307.906V308H193.408C193.342 307.848 193.289 307.654 193.25 307.42C193.215 307.182 193.198 306.951 193.198 306.729ZM193.403 304.145L193.414 305.018H192.401C192.139 305.018 191.908 305.043 191.709 305.094C191.51 305.141 191.344 305.211 191.211 305.305C191.078 305.398 190.979 305.512 190.912 305.645C190.846 305.777 190.813 305.928 190.813 306.096C190.813 306.264 190.852 306.418 190.93 306.559C191.008 306.695 191.121 306.803 191.27 306.881C191.422 306.959 191.606 306.998 191.821 306.998C192.11 306.998 192.362 306.939 192.576 306.822C192.795 306.701 192.967 306.555 193.092 306.383C193.217 306.207 193.283 306.041 193.291 305.885L193.748 306.512C193.701 306.672 193.621 306.844 193.508 307.027C193.395 307.211 193.246 307.387 193.063 307.555C192.883 307.719 192.666 307.854 192.412 307.959C192.162 308.064 191.873 308.117 191.545 308.117C191.131 308.117 190.762 308.035 190.438 307.871C190.114 307.703 189.86 307.479 189.676 307.197C189.492 306.912 189.401 306.59 189.401 306.23C189.401 305.895 189.463 305.598 189.588 305.34C189.717 305.078 189.905 304.859 190.151 304.684C190.401 304.508 190.705 304.375 191.065 304.285C191.424 304.191 191.834 304.145 192.295 304.145H193.403ZM197.838 307.309L199.561 301.66H201.073L198.53 308.967C198.471 309.123 198.395 309.293 198.301 309.477C198.207 309.66 198.084 309.834 197.932 309.998C197.783 310.166 197.598 310.301 197.375 310.402C197.153 310.508 196.883 310.561 196.567 310.561C196.442 310.561 196.321 310.549 196.203 310.525C196.09 310.506 195.983 310.484 195.881 310.461L195.875 309.383C195.914 309.387 195.961 309.391 196.016 309.395C196.074 309.398 196.121 309.4 196.156 309.4C196.391 309.4 196.586 309.371 196.742 309.312C196.899 309.258 197.026 309.168 197.123 309.043C197.225 308.918 197.311 308.75 197.381 308.539L197.838 307.309ZM196.865 301.66L198.371 306.406L198.623 307.895L197.645 308.146L195.342 301.66H196.865ZM205.438 306.283C205.438 306.143 205.403 306.016 205.332 305.902C205.262 305.785 205.127 305.68 204.928 305.586C204.733 305.492 204.444 305.406 204.061 305.328C203.725 305.254 203.416 305.166 203.135 305.064C202.858 304.959 202.619 304.832 202.42 304.684C202.221 304.535 202.067 304.359 201.957 304.156C201.848 303.953 201.793 303.719 201.793 303.453C201.793 303.195 201.85 302.951 201.963 302.721C202.076 302.49 202.239 302.287 202.449 302.111C202.66 301.936 202.916 301.797 203.217 301.695C203.522 301.594 203.862 301.543 204.237 301.543C204.768 301.543 205.223 301.633 205.602 301.812C205.985 301.988 206.278 302.229 206.481 302.533C206.684 302.834 206.785 303.174 206.785 303.553H205.373C205.373 303.385 205.33 303.229 205.244 303.084C205.162 302.936 205.037 302.816 204.869 302.727C204.701 302.633 204.49 302.586 204.237 302.586C203.994 302.586 203.793 302.625 203.633 302.703C203.477 302.777 203.36 302.875 203.281 302.996C203.207 303.117 203.17 303.25 203.17 303.395C203.17 303.5 203.19 303.596 203.229 303.682C203.272 303.764 203.342 303.84 203.44 303.91C203.537 303.977 203.67 304.039 203.838 304.098C204.01 304.156 204.225 304.213 204.483 304.268C204.967 304.369 205.383 304.5 205.731 304.66C206.082 304.816 206.352 305.02 206.539 305.27C206.727 305.516 206.821 305.828 206.821 306.207C206.821 306.488 206.76 306.746 206.639 306.98C206.522 307.211 206.35 307.412 206.123 307.584C205.897 307.752 205.625 307.883 205.309 307.977C204.996 308.07 204.645 308.117 204.254 308.117C203.68 308.117 203.194 308.016 202.795 307.812C202.397 307.605 202.094 307.342 201.887 307.021C201.684 306.697 201.582 306.361 201.582 306.014H202.948C202.963 306.275 203.035 306.484 203.164 306.641C203.297 306.793 203.461 306.904 203.656 306.975C203.856 307.041 204.061 307.074 204.272 307.074C204.526 307.074 204.739 307.041 204.91 306.975C205.082 306.904 205.213 306.811 205.303 306.693C205.393 306.572 205.438 306.436 205.438 306.283ZM208.074 307.297C208.074 307.078 208.149 306.895 208.297 306.746C208.446 306.594 208.647 306.518 208.901 306.518C209.158 306.518 209.36 306.594 209.504 306.746C209.653 306.895 209.727 307.078 209.727 307.297C209.727 307.516 209.653 307.699 209.504 307.848C209.36 307.996 209.158 308.07 208.901 308.07C208.647 308.07 208.446 307.996 208.297 307.848C208.149 307.699 208.074 307.516 208.074 307.297ZM208.08 302.305C208.08 302.086 208.155 301.902 208.303 301.754C208.451 301.602 208.653 301.525 208.906 301.525C209.164 301.525 209.365 301.602 209.51 301.754C209.658 301.902 209.733 302.086 209.733 302.305C209.733 302.523 209.658 302.707 209.51 302.855C209.365 303.004 209.164 303.078 208.906 303.078C208.653 303.078 208.451 303.004 208.303 302.855C208.155 302.707 208.08 302.523 208.08 302.305ZM215.61 304.033L214.485 303.758L214.948 299.469H219.547V300.664H216.119L215.885 302.756C216.018 302.678 216.201 302.602 216.436 302.527C216.67 302.449 216.938 302.41 217.239 302.41C217.641 302.41 218 302.477 218.317 302.609C218.637 302.738 218.908 302.928 219.131 303.178C219.354 303.424 219.524 303.725 219.641 304.08C219.758 304.432 219.817 304.828 219.817 305.27C219.817 305.664 219.758 306.033 219.641 306.377C219.528 306.721 219.356 307.023 219.125 307.285C218.895 307.547 218.604 307.752 218.252 307.9C217.905 308.045 217.492 308.117 217.016 308.117C216.66 308.117 216.319 308.066 215.99 307.965C215.666 307.859 215.375 307.705 215.117 307.502C214.86 307.295 214.653 307.041 214.496 306.74C214.34 306.436 214.25 306.086 214.227 305.691H215.61C215.645 305.969 215.721 306.205 215.838 306.4C215.959 306.592 216.119 306.738 216.319 306.84C216.518 306.941 216.748 306.992 217.01 306.992C217.248 306.992 217.453 306.951 217.625 306.869C217.797 306.783 217.94 306.662 218.053 306.506C218.17 306.346 218.256 306.158 218.311 305.943C218.369 305.729 218.399 305.49 218.399 305.229C218.399 304.979 218.365 304.75 218.299 304.543C218.237 304.336 218.141 304.156 218.012 304.004C217.887 303.852 217.729 303.734 217.537 303.652C217.346 303.566 217.125 303.523 216.875 303.523C216.539 303.523 216.281 303.572 216.102 303.67C215.926 303.768 215.762 303.889 215.61 304.033ZM224.739 299.469L221.416 308.732H220.309L223.637 299.469H224.739ZM229.49 299.439V308H228.078V301.115L225.987 301.824V300.658L229.321 299.439H229.49ZM238.174 306.875V308H232.455V307.033L235.233 304.004C235.537 303.66 235.778 303.363 235.953 303.113C236.129 302.863 236.252 302.639 236.323 302.439C236.397 302.236 236.434 302.039 236.434 301.848C236.434 301.578 236.383 301.342 236.281 301.139C236.184 300.932 236.039 300.77 235.848 300.652C235.656 300.531 235.424 300.471 235.151 300.471C234.834 300.471 234.569 300.539 234.354 300.676C234.139 300.812 233.977 301.002 233.867 301.244C233.758 301.482 233.703 301.756 233.703 302.064H232.291C232.291 301.568 232.405 301.115 232.631 300.705C232.858 300.291 233.186 299.963 233.615 299.721C234.045 299.475 234.563 299.352 235.168 299.352C235.739 299.352 236.223 299.447 236.621 299.639C237.02 299.83 237.323 300.102 237.53 300.453C237.74 300.805 237.846 301.221 237.846 301.701C237.846 301.967 237.803 302.23 237.717 302.492C237.631 302.754 237.508 303.016 237.348 303.277C237.192 303.535 237.006 303.795 236.791 304.057C236.576 304.314 236.34 304.576 236.082 304.842L234.237 306.875H238.174Z" fill="#9A9FA5"/>
</svg>
