<svg width="262" height="329" viewBox="0 0 262 329" fill="none" xmlns="http://www.w3.org/2000/svg">
<rect width="262" height="329" rx="16" fill="white"/>
<rect x="9" y="11" width="245" height="210" rx="15" fill="#2EBBC4"/>
<path d="M166.465 197.469H167.777L170.244 204.049L172.705 197.469H174.018L170.76 206H169.717L166.465 197.469ZM165.867 197.469H167.115L167.332 203.164V206H165.867V197.469ZM173.367 197.469H174.621V206H173.15V203.164L173.367 197.469ZM179.801 204.729V201.705C179.801 201.479 179.76 201.283 179.678 201.119C179.596 200.955 179.471 200.828 179.303 200.738C179.139 200.648 178.932 200.604 178.682 200.604C178.451 200.604 178.252 200.643 178.084 200.721C177.916 200.799 177.785 200.904 177.691 201.037C177.598 201.17 177.551 201.32 177.551 201.488H176.145C176.145 201.238 176.205 200.996 176.326 200.762C176.447 200.527 176.623 200.318 176.854 200.135C177.084 199.951 177.359 199.807 177.68 199.701C178 199.596 178.359 199.543 178.758 199.543C179.234 199.543 179.656 199.623 180.023 199.783C180.395 199.943 180.686 200.186 180.896 200.51C181.111 200.83 181.219 201.232 181.219 201.717V204.535C181.219 204.824 181.238 205.084 181.277 205.314C181.32 205.541 181.381 205.738 181.459 205.906V206H180.012C179.945 205.848 179.893 205.654 179.854 205.42C179.818 205.182 179.801 204.951 179.801 204.729ZM180.006 202.145L180.018 203.018H179.004C178.742 203.018 178.512 203.043 178.312 203.094C178.113 203.141 177.947 203.211 177.814 203.305C177.682 203.398 177.582 203.512 177.516 203.645C177.449 203.777 177.416 203.928 177.416 204.096C177.416 204.264 177.455 204.418 177.533 204.559C177.611 204.695 177.725 204.803 177.873 204.881C178.025 204.959 178.209 204.998 178.424 204.998C178.713 204.998 178.965 204.939 179.18 204.822C179.398 204.701 179.57 204.555 179.695 204.383C179.82 204.207 179.887 204.041 179.895 203.885L180.352 204.512C180.305 204.672 180.225 204.844 180.111 205.027C179.998 205.211 179.85 205.387 179.666 205.555C179.486 205.719 179.27 205.854 179.016 205.959C178.766 206.064 178.477 206.117 178.148 206.117C177.734 206.117 177.365 206.035 177.041 205.871C176.717 205.703 176.463 205.479 176.279 205.197C176.096 204.912 176.004 204.59 176.004 204.23C176.004 203.895 176.066 203.598 176.191 203.34C176.32 203.078 176.508 202.859 176.754 202.684C177.004 202.508 177.309 202.375 177.668 202.285C178.027 202.191 178.438 202.145 178.898 202.145H180.006ZM184.113 200.867V206H182.701V199.66H184.049L184.113 200.867ZM186.053 199.619L186.041 200.932C185.955 200.916 185.861 200.904 185.76 200.896C185.662 200.889 185.564 200.885 185.467 200.885C185.225 200.885 185.012 200.92 184.828 200.99C184.645 201.057 184.49 201.154 184.365 201.283C184.244 201.408 184.15 201.561 184.084 201.74C184.018 201.92 183.979 202.121 183.967 202.344L183.645 202.367C183.645 201.969 183.684 201.6 183.762 201.26C183.84 200.92 183.957 200.621 184.113 200.363C184.273 200.105 184.473 199.904 184.711 199.76C184.953 199.615 185.232 199.543 185.549 199.543C185.635 199.543 185.727 199.551 185.824 199.566C185.926 199.582 186.002 199.6 186.053 199.619ZM188.449 199.66V206H187.031V199.66H188.449ZM186.938 197.996C186.938 197.781 187.008 197.604 187.148 197.463C187.293 197.318 187.492 197.246 187.746 197.246C187.996 197.246 188.193 197.318 188.338 197.463C188.482 197.604 188.555 197.781 188.555 197.996C188.555 198.207 188.482 198.383 188.338 198.523C188.193 198.664 187.996 198.734 187.746 198.734C187.492 198.734 187.293 198.664 187.148 198.523C187.008 198.383 186.938 198.207 186.938 197.996ZM189.727 202.9V202.766C189.727 202.309 189.793 201.885 189.926 201.494C190.059 201.1 190.25 200.758 190.5 200.469C190.754 200.176 191.062 199.949 191.426 199.789C191.793 199.625 192.207 199.543 192.668 199.543C193.133 199.543 193.547 199.625 193.91 199.789C194.277 199.949 194.588 200.176 194.842 200.469C195.096 200.758 195.289 201.1 195.422 201.494C195.555 201.885 195.621 202.309 195.621 202.766V202.9C195.621 203.357 195.555 203.781 195.422 204.172C195.289 204.562 195.096 204.904 194.842 205.197C194.588 205.486 194.279 205.713 193.916 205.877C193.553 206.037 193.141 206.117 192.68 206.117C192.215 206.117 191.799 206.037 191.432 205.877C191.068 205.713 190.76 205.486 190.506 205.197C190.252 204.904 190.059 204.562 189.926 204.172C189.793 203.781 189.727 203.357 189.727 202.9ZM191.139 202.766V202.9C191.139 203.186 191.168 203.455 191.227 203.709C191.285 203.963 191.377 204.186 191.502 204.377C191.627 204.568 191.787 204.719 191.982 204.828C192.178 204.938 192.41 204.992 192.68 204.992C192.941 204.992 193.168 204.938 193.359 204.828C193.555 204.719 193.715 204.568 193.84 204.377C193.965 204.186 194.057 203.963 194.115 203.709C194.178 203.455 194.209 203.186 194.209 202.9V202.766C194.209 202.484 194.178 202.219 194.115 201.969C194.057 201.715 193.963 201.49 193.834 201.295C193.709 201.1 193.549 200.947 193.354 200.838C193.162 200.725 192.934 200.668 192.668 200.668C192.402 200.668 192.172 200.725 191.977 200.838C191.785 200.947 191.627 201.1 191.502 201.295C191.377 201.49 191.285 201.715 191.227 201.969C191.168 202.219 191.139 202.484 191.139 202.766ZM202.412 206H200.59L200.602 204.834H202.412C202.939 204.834 203.381 204.719 203.736 204.488C204.096 204.258 204.365 203.928 204.545 203.498C204.729 203.068 204.82 202.557 204.82 201.963V201.5C204.82 201.039 204.768 200.631 204.662 200.275C204.561 199.92 204.408 199.621 204.205 199.379C204.006 199.137 203.76 198.953 203.467 198.828C203.178 198.703 202.844 198.641 202.465 198.641H200.555V197.469H202.465C203.031 197.469 203.549 197.564 204.018 197.756C204.486 197.943 204.891 198.215 205.23 198.57C205.574 198.926 205.838 199.352 206.021 199.848C206.205 200.344 206.297 200.898 206.297 201.512V201.963C206.297 202.576 206.205 203.131 206.021 203.627C205.838 204.123 205.574 204.549 205.23 204.904C204.887 205.256 204.477 205.527 204 205.719C203.527 205.906 202.998 206 202.412 206ZM201.404 197.469V206H199.934V197.469H201.404ZM210.428 206.117C209.959 206.117 209.535 206.041 209.156 205.889C208.781 205.732 208.461 205.516 208.195 205.238C207.934 204.961 207.732 204.635 207.592 204.26C207.451 203.885 207.381 203.48 207.381 203.047V202.812C207.381 202.316 207.453 201.867 207.598 201.465C207.742 201.062 207.943 200.719 208.201 200.434C208.459 200.145 208.764 199.924 209.115 199.771C209.467 199.619 209.848 199.543 210.258 199.543C210.711 199.543 211.107 199.619 211.447 199.771C211.787 199.924 212.068 200.139 212.291 200.416C212.518 200.689 212.686 201.016 212.795 201.395C212.908 201.773 212.965 202.191 212.965 202.648V203.252H208.066V202.238H211.57V202.127C211.562 201.873 211.512 201.635 211.418 201.412C211.328 201.189 211.189 201.01 211.002 200.873C210.814 200.736 210.564 200.668 210.252 200.668C210.018 200.668 209.809 200.719 209.625 200.82C209.445 200.918 209.295 201.061 209.174 201.248C209.053 201.436 208.959 201.662 208.893 201.928C208.83 202.189 208.799 202.484 208.799 202.812V203.047C208.799 203.324 208.836 203.582 208.91 203.82C208.988 204.055 209.102 204.26 209.25 204.436C209.398 204.611 209.578 204.75 209.789 204.852C210 204.949 210.24 204.998 210.51 204.998C210.85 204.998 211.152 204.93 211.418 204.793C211.684 204.656 211.914 204.463 212.109 204.213L212.854 204.934C212.717 205.133 212.539 205.324 212.32 205.508C212.102 205.688 211.834 205.834 211.518 205.947C211.205 206.061 210.842 206.117 210.428 206.117ZM222.539 204.834V206H218.256V204.834H222.539ZM218.666 197.469V206H217.195V197.469H218.666ZM226.33 206.117C225.861 206.117 225.438 206.041 225.059 205.889C224.684 205.732 224.363 205.516 224.098 205.238C223.836 204.961 223.635 204.635 223.494 204.26C223.354 203.885 223.283 203.48 223.283 203.047V202.812C223.283 202.316 223.355 201.867 223.5 201.465C223.645 201.062 223.846 200.719 224.104 200.434C224.361 200.145 224.666 199.924 225.018 199.771C225.369 199.619 225.75 199.543 226.16 199.543C226.613 199.543 227.01 199.619 227.35 199.771C227.689 199.924 227.971 200.139 228.193 200.416C228.42 200.689 228.588 201.016 228.697 201.395C228.811 201.773 228.867 202.191 228.867 202.648V203.252H223.969V202.238H227.473V202.127C227.465 201.873 227.414 201.635 227.32 201.412C227.23 201.189 227.092 201.01 226.904 200.873C226.717 200.736 226.467 200.668 226.154 200.668C225.92 200.668 225.711 200.719 225.527 200.82C225.348 200.918 225.197 201.061 225.076 201.248C224.955 201.436 224.861 201.662 224.795 201.928C224.732 202.189 224.701 202.484 224.701 202.812V203.047C224.701 203.324 224.738 203.582 224.812 203.82C224.891 204.055 225.004 204.26 225.152 204.436C225.301 204.611 225.48 204.75 225.691 204.852C225.902 204.949 226.143 204.998 226.412 204.998C226.752 204.998 227.055 204.93 227.32 204.793C227.586 204.656 227.816 204.463 228.012 204.213L228.756 204.934C228.619 205.133 228.441 205.324 228.223 205.508C228.004 205.688 227.736 205.834 227.42 205.947C227.107 206.061 226.744 206.117 226.33 206.117ZM229.699 202.9V202.766C229.699 202.309 229.766 201.885 229.898 201.494C230.031 201.1 230.223 200.758 230.473 200.469C230.727 200.176 231.035 199.949 231.398 199.789C231.766 199.625 232.18 199.543 232.641 199.543C233.105 199.543 233.52 199.625 233.883 199.789C234.25 199.949 234.561 200.176 234.814 200.469C235.068 200.758 235.262 201.1 235.395 201.494C235.527 201.885 235.594 202.309 235.594 202.766V202.9C235.594 203.357 235.527 203.781 235.395 204.172C235.262 204.562 235.068 204.904 234.814 205.197C234.561 205.486 234.252 205.713 233.889 205.877C233.525 206.037 233.113 206.117 232.652 206.117C232.188 206.117 231.771 206.037 231.404 205.877C231.041 205.713 230.732 205.486 230.479 205.197C230.225 204.904 230.031 204.562 229.898 204.172C229.766 203.781 229.699 203.357 229.699 202.9ZM231.111 202.766V202.9C231.111 203.186 231.141 203.455 231.199 203.709C231.258 203.963 231.35 204.186 231.475 204.377C231.6 204.568 231.76 204.719 231.955 204.828C232.15 204.938 232.383 204.992 232.652 204.992C232.914 204.992 233.141 204.938 233.332 204.828C233.527 204.719 233.688 204.568 233.812 204.377C233.938 204.186 234.029 203.963 234.088 203.709C234.15 203.455 234.182 203.186 234.182 202.9V202.766C234.182 202.484 234.15 202.219 234.088 201.969C234.029 201.715 233.936 201.49 233.807 201.295C233.682 201.1 233.521 200.947 233.326 200.838C233.135 200.725 232.906 200.668 232.641 200.668C232.375 200.668 232.145 200.725 231.949 200.838C231.758 200.947 231.6 201.1 231.475 201.295C231.35 201.49 231.258 201.715 231.199 201.969C231.141 202.219 231.111 202.484 231.111 202.766ZM231.902 198.764L233.045 197H234.639L233.045 198.764H231.902ZM238.178 201.014V206H236.766V199.66H238.096L238.178 201.014ZM237.926 202.596L237.469 202.59C237.473 202.141 237.535 201.729 237.656 201.354C237.781 200.979 237.953 200.656 238.172 200.387C238.395 200.117 238.66 199.91 238.969 199.766C239.277 199.617 239.621 199.543 240 199.543C240.305 199.543 240.58 199.586 240.826 199.672C241.076 199.754 241.289 199.889 241.465 200.076C241.645 200.264 241.781 200.508 241.875 200.809C241.969 201.105 242.016 201.471 242.016 201.904V206H240.598V201.898C240.598 201.594 240.553 201.354 240.463 201.178C240.377 200.998 240.25 200.871 240.082 200.797C239.918 200.719 239.713 200.68 239.467 200.68C239.225 200.68 239.008 200.73 238.816 200.832C238.625 200.934 238.463 201.072 238.33 201.248C238.201 201.424 238.102 201.627 238.031 201.857C237.961 202.088 237.926 202.334 237.926 202.596Z" fill="#7A7A88"/>
<path d="M35.2598 83.3086V87H23.9072V83.3086H35.2598ZM25.5332 65.6719V87H20.7578V65.6719H25.5332ZM33.7949 74.2559V77.8301H23.9072V74.2559H33.7949ZM35.2744 65.6719V69.3779H23.9072V65.6719H35.2744ZM42.8037 87H38.2041V69.8027C38.2041 68.582 38.4434 67.5566 38.9219 66.7266C39.4102 65.8965 40.0986 65.2666 40.9873 64.8369C41.876 64.4072 42.9258 64.1924 44.1367 64.1924C44.5566 64.1924 44.9473 64.2217 45.3086 64.2803C45.6797 64.3291 46.041 64.3975 46.3926 64.4854V67.8984C46.207 67.8496 46.0166 67.8154 45.8213 67.7959C45.626 67.7764 45.3916 67.7666 45.1182 67.7666C44.6299 67.7666 44.21 67.8447 43.8584 68.001C43.5166 68.1475 43.2529 68.377 43.0674 68.6895C42.8916 68.9922 42.8037 69.3633 42.8037 69.8027V87ZM45.9385 71.1504V74.3584H35.8896V71.1504H45.9385ZM53.6143 87H49.0146V69.8027C49.0146 68.582 49.2539 67.5566 49.7324 66.7266C50.2207 65.8965 50.9092 65.2666 51.7979 64.8369C52.6865 64.4072 53.7363 64.1924 54.9473 64.1924C55.3672 64.1924 55.7578 64.2217 56.1191 64.2803C56.4902 64.3291 56.8516 64.3975 57.2031 64.4854V67.8984C57.0176 67.8496 56.8271 67.8154 56.6318 67.7959C56.4365 67.7764 56.2021 67.7666 55.9287 67.7666C55.4404 67.7666 55.0205 67.8447 54.6689 68.001C54.3271 68.1475 54.0635 68.377 53.8779 68.6895C53.7021 68.9922 53.6143 69.3633 53.6143 69.8027V87ZM56.749 71.1504V74.3584H46.7002V71.1504H56.749ZM65.8457 87.293C64.5859 87.293 63.458 87.0928 62.4619 86.6924C61.4658 86.292 60.6211 85.7402 59.9277 85.0371C59.2441 84.3242 58.7217 83.5039 58.3604 82.5762C57.999 81.6484 57.8184 80.6572 57.8184 79.6025V79.0459C57.8184 77.8643 57.9844 76.7754 58.3164 75.7793C58.6484 74.7832 59.1318 73.9189 59.7666 73.1865C60.4111 72.4443 61.2021 71.873 62.1396 71.4727C63.0771 71.0625 64.1465 70.8574 65.3477 70.8574C66.4707 70.8574 67.4717 71.043 68.3506 71.4141C69.2295 71.7754 69.9717 72.2979 70.5771 72.9814C71.1826 73.6553 71.6416 74.4707 71.9541 75.4277C72.2764 76.375 72.4375 77.4395 72.4375 78.6211V80.4961H59.6641V77.5518H67.9551V77.2002C67.9551 76.6436 67.8525 76.1553 67.6475 75.7354C67.4521 75.3154 67.1592 74.9932 66.7686 74.7686C66.3877 74.5342 65.9043 74.417 65.3184 74.417C64.7617 74.417 64.2979 74.5342 63.9268 74.7686C63.5557 75.0029 63.2578 75.335 63.0332 75.7646C62.8184 76.1846 62.6621 76.6777 62.5645 77.2441C62.4668 77.8008 62.418 78.4014 62.418 79.0459V79.6025C62.418 80.2178 62.501 80.7793 62.667 81.2871C62.833 81.7949 63.0771 82.2295 63.3994 82.5908C63.7217 82.9521 64.1123 83.2354 64.5713 83.4404C65.0303 83.6455 65.5527 83.748 66.1387 83.748C66.8613 83.748 67.5498 83.6113 68.2041 83.3379C68.8584 83.0547 69.4248 82.6152 69.9033 82.0195L72.042 84.4658C71.7197 84.9346 71.2656 85.3887 70.6797 85.8281C70.1035 86.2578 69.4102 86.6094 68.5996 86.8828C67.7891 87.1562 66.8711 87.293 65.8457 87.293ZM81.2852 83.7334C81.7734 83.7334 82.1982 83.6406 82.5596 83.4551C82.9209 83.2695 83.1992 83.0107 83.3945 82.6787C83.5996 82.3369 83.7021 81.9268 83.7021 81.4482H88.0088C88.0088 82.6006 87.7109 83.6162 87.1152 84.4951C86.5293 85.374 85.7383 86.0625 84.7422 86.5605C83.7461 87.0488 82.623 87.293 81.373 87.293C80.1426 87.293 79.0684 87.0928 78.1504 86.6924C77.2324 86.2822 76.4658 85.7109 75.8506 84.9785C75.2354 84.2461 74.7715 83.3965 74.459 82.4297C74.1562 81.4531 74.0049 80.3984 74.0049 79.2656V78.8848C74.0049 77.7617 74.1562 76.7119 74.459 75.7354C74.7715 74.7588 75.2354 73.9043 75.8506 73.1719C76.4658 72.4395 77.2275 71.873 78.1357 71.4727C79.0537 71.0625 80.1279 70.8574 81.3584 70.8574C82.6572 70.8574 83.8047 71.1064 84.8008 71.6045C85.8066 72.1025 86.5928 72.8203 87.1592 73.7578C87.7256 74.6855 88.0088 75.8037 88.0088 77.1123H83.7021C83.7021 76.6045 83.6094 76.1504 83.4238 75.75C83.248 75.3398 82.9746 75.0176 82.6035 74.7832C82.2422 74.5391 81.793 74.417 81.2559 74.417C80.6992 74.417 80.2402 74.5391 79.8789 74.7832C79.5273 75.0176 79.2588 75.3447 79.0732 75.7646C78.8877 76.1846 78.7607 76.6631 78.6924 77.2002C78.624 77.7275 78.5898 78.2891 78.5898 78.8848V79.2656C78.5898 79.8711 78.624 80.4473 78.6924 80.9941C78.7607 81.5312 78.8877 82.0049 79.0732 82.415C79.2686 82.8252 79.542 83.1475 79.8936 83.3818C80.2451 83.6162 80.709 83.7334 81.2852 83.7334ZM98.3359 71.1504V74.3584H88.9316V71.1504H98.3359ZM91.085 67.2246H95.6699V82.0342C95.6699 82.4736 95.7236 82.8105 95.8311 83.0449C95.9385 83.2793 96.1143 83.4453 96.3584 83.543C96.6025 83.6309 96.915 83.6748 97.2959 83.6748C97.5693 83.6748 97.8037 83.665 97.999 83.6455C98.1943 83.626 98.375 83.6016 98.541 83.5723V86.8828C98.1504 87.0098 97.7354 87.1074 97.2959 87.1758C96.8564 87.2539 96.3779 87.293 95.8604 87.293C94.874 87.293 94.0195 87.1318 93.2969 86.8096C92.584 86.4873 92.0371 85.9795 91.6562 85.2861C91.2754 84.583 91.085 83.6699 91.085 82.5469V67.2246ZM105.353 71.1504V87H100.768V71.1504H105.353ZM100.489 67.0488C100.489 66.3848 100.724 65.8428 101.192 65.4229C101.661 64.9932 102.276 64.7783 103.038 64.7783C103.8 64.7783 104.415 64.9932 104.884 65.4229C105.362 65.8428 105.602 66.3848 105.602 67.0488C105.602 67.7031 105.362 68.2451 104.884 68.6748C104.415 69.0947 103.8 69.3047 103.038 69.3047C102.276 69.3047 101.661 69.0947 101.192 68.6748C100.724 68.2451 100.489 67.7031 100.489 67.0488ZM114.2 83.7627L117.511 71.1504H122.315L117.057 87H114.171L114.2 83.7627ZM112.062 71.1504L115.357 83.7773L115.387 87H112.501L107.242 71.1504H112.062ZM131.266 87.293C130.006 87.293 128.878 87.0928 127.882 86.6924C126.886 86.292 126.041 85.7402 125.348 85.0371C124.664 84.3242 124.142 83.5039 123.78 82.5762C123.419 81.6484 123.238 80.6572 123.238 79.6025V79.0459C123.238 77.8643 123.404 76.7754 123.736 75.7793C124.068 74.7832 124.552 73.9189 125.187 73.1865C125.831 72.4443 126.622 71.873 127.56 71.4727C128.497 71.0625 129.566 70.8574 130.768 70.8574C131.891 70.8574 132.892 71.043 133.771 71.4141C134.649 71.7754 135.392 72.2979 135.997 72.9814C136.603 73.6553 137.062 74.4707 137.374 75.4277C137.696 76.375 137.857 77.4395 137.857 78.6211V80.4961H125.084V77.5518H133.375V77.2002C133.375 76.6436 133.272 76.1553 133.067 75.7354C132.872 75.3154 132.579 74.9932 132.188 74.7686C131.808 74.5342 131.324 74.417 130.738 74.417C130.182 74.417 129.718 74.5342 129.347 74.7686C128.976 75.0029 128.678 75.335 128.453 75.7646C128.238 76.1846 128.082 76.6777 127.984 77.2441C127.887 77.8008 127.838 78.4014 127.838 79.0459V79.6025C127.838 80.2178 127.921 80.7793 128.087 81.2871C128.253 81.7949 128.497 82.2295 128.819 82.5908C129.142 82.9521 129.532 83.2354 129.991 83.4404C130.45 83.6455 130.973 83.748 131.559 83.748C132.281 83.748 132.97 83.6113 133.624 83.3379C134.278 83.0547 134.845 82.6152 135.323 82.0195L137.462 84.4658C137.14 84.9346 136.686 85.3887 136.1 85.8281C135.523 86.2578 134.83 86.6094 134.02 86.8828C133.209 87.1562 132.291 87.293 131.266 87.293ZM33.0186 114.852H37.7646C37.6865 116.316 37.2861 117.61 36.5635 118.733C35.8506 119.847 34.8594 120.721 33.5898 121.355C32.3203 121.98 30.8115 122.293 29.0635 122.293C27.667 122.293 26.417 122.054 25.3135 121.575C24.21 121.097 23.2725 120.413 22.501 119.524C21.7393 118.626 21.1533 117.547 20.7432 116.287C20.3428 115.018 20.1426 113.587 20.1426 111.995V110.691C20.1426 109.1 20.3525 107.669 20.7725 106.399C21.1924 105.13 21.793 104.046 22.5742 103.147C23.3555 102.249 24.293 101.561 25.3867 101.082C26.4805 100.604 27.7012 100.364 29.0488 100.364C30.8652 100.364 32.3984 100.691 33.6484 101.346C34.8984 102 35.8652 102.898 36.5488 104.041C37.2422 105.184 37.6572 106.487 37.7939 107.952H33.0332C32.9941 107.122 32.8379 106.424 32.5645 105.857C32.291 105.281 31.8711 104.847 31.3047 104.554C30.7383 104.261 29.9863 104.114 29.0488 104.114C28.3652 104.114 27.7646 104.241 27.2471 104.495C26.7393 104.749 26.3145 105.145 25.9727 105.682C25.6406 106.219 25.3916 106.902 25.2256 107.732C25.0596 108.553 24.9766 109.529 24.9766 110.662V111.995C24.9766 113.118 25.0498 114.09 25.1963 114.91C25.3428 115.73 25.5771 116.409 25.8994 116.946C26.2314 117.483 26.6562 117.884 27.1738 118.147C27.6914 118.411 28.3213 118.543 29.0635 118.543C29.9131 118.543 30.6211 118.411 31.1875 118.147C31.7539 117.874 32.1885 117.464 32.4912 116.917C32.7939 116.37 32.9697 115.682 33.0186 114.852ZM39.5225 114.236V113.929C39.5225 112.767 39.6885 111.697 40.0205 110.721C40.3525 109.734 40.8408 108.88 41.4854 108.157C42.1299 107.435 42.9209 106.873 43.8584 106.473C44.7959 106.062 45.8701 105.857 47.0811 105.857C48.3115 105.857 49.3955 106.062 50.333 106.473C51.2803 106.873 52.0762 107.435 52.7207 108.157C53.3652 108.88 53.8535 109.734 54.1855 110.721C54.5176 111.697 54.6836 112.767 54.6836 113.929V114.236C54.6836 115.389 54.5176 116.458 54.1855 117.444C53.8535 118.421 53.3652 119.275 52.7207 120.008C52.0762 120.73 51.2852 121.292 50.3477 121.692C49.4102 122.093 48.3311 122.293 47.1104 122.293C45.8994 122.293 44.8203 122.093 43.873 121.692C42.9258 121.292 42.1299 120.73 41.4854 120.008C40.8408 119.275 40.3525 118.421 40.0205 117.444C39.6885 116.458 39.5225 115.389 39.5225 114.236ZM44.1074 113.929V114.236C44.1074 114.861 44.1562 115.447 44.2539 115.994C44.3613 116.541 44.5322 117.02 44.7666 117.43C45.001 117.84 45.3086 118.162 45.6895 118.396C46.0801 118.621 46.5537 118.733 47.1104 118.733C47.667 118.733 48.1357 118.621 48.5166 118.396C48.8975 118.162 49.2051 117.84 49.4395 117.43C49.6738 117.02 49.8398 116.541 49.9375 115.994C50.0449 115.447 50.0986 114.861 50.0986 114.236V113.929C50.0986 113.313 50.0449 112.737 49.9375 112.2C49.8398 111.653 49.6738 111.17 49.4395 110.75C49.2051 110.33 48.8926 110.003 48.502 109.769C48.1211 109.534 47.6475 109.417 47.0811 109.417C46.5342 109.417 46.0703 109.534 45.6895 109.769C45.3086 110.003 45.001 110.33 44.7666 110.75C44.5322 111.17 44.3613 111.653 44.2539 112.2C44.1562 112.737 44.1074 113.313 44.1074 113.929ZM61.6709 109.476V122H57.1006V106.15H61.3926L61.6709 109.476ZM61.085 113.519L59.9277 113.548C59.9277 112.435 60.0596 111.414 60.3232 110.486C60.5967 109.549 60.9922 108.733 61.5098 108.04C62.0273 107.347 62.667 106.81 63.4287 106.429C64.2002 106.048 65.0889 105.857 66.0947 105.857C66.7979 105.857 67.4375 105.965 68.0137 106.18C68.5898 106.385 69.083 106.712 69.4932 107.161C69.9131 107.601 70.2354 108.177 70.46 108.89C70.6846 109.593 70.7969 110.438 70.7969 111.424V122H66.2266V111.98C66.2266 111.277 66.1387 110.745 65.9629 110.384C65.7969 110.013 65.5527 109.759 65.2305 109.622C64.9082 109.485 64.5225 109.417 64.0732 109.417C63.585 109.417 63.1504 109.524 62.7695 109.739C62.3984 109.944 62.0859 110.232 61.832 110.604C61.5781 110.975 61.3877 111.409 61.2607 111.907C61.1436 112.405 61.085 112.942 61.085 113.519ZM70.3281 113.284L68.8779 113.401C68.8779 112.327 69.0049 111.331 69.2588 110.413C69.5127 109.495 69.8936 108.699 70.4014 108.025C70.9092 107.342 71.5391 106.81 72.291 106.429C73.0527 106.048 73.9365 105.857 74.9424 105.857C75.6846 105.857 76.3584 105.965 76.9639 106.18C77.5791 106.395 78.1064 106.741 78.5459 107.22C78.9951 107.698 79.3418 108.328 79.5859 109.109C79.8301 109.881 79.9521 110.828 79.9521 111.951V122H75.3525V111.951C75.3525 111.258 75.2646 110.73 75.0889 110.369C74.9229 110.008 74.6787 109.759 74.3564 109.622C74.0439 109.485 73.668 109.417 73.2285 109.417C72.7402 109.417 72.3154 109.52 71.9541 109.725C71.5928 109.92 71.29 110.193 71.0459 110.545C70.8018 110.887 70.6211 111.292 70.5039 111.761C70.3867 112.229 70.3281 112.737 70.3281 113.284ZM87.5986 109.476V122H83.0283V106.15H87.3203L87.5986 109.476ZM87.0127 113.519L85.8555 113.548C85.8555 112.435 85.9873 111.414 86.251 110.486C86.5244 109.549 86.9199 108.733 87.4375 108.04C87.9551 107.347 88.5947 106.81 89.3564 106.429C90.1279 106.048 91.0166 105.857 92.0225 105.857C92.7256 105.857 93.3652 105.965 93.9414 106.18C94.5176 106.385 95.0107 106.712 95.4209 107.161C95.8408 107.601 96.1631 108.177 96.3877 108.89C96.6123 109.593 96.7246 110.438 96.7246 111.424V122H92.1543V111.98C92.1543 111.277 92.0664 110.745 91.8906 110.384C91.7246 110.013 91.4805 109.759 91.1582 109.622C90.8359 109.485 90.4502 109.417 90.001 109.417C89.5127 109.417 89.0781 109.524 88.6973 109.739C88.3262 109.944 88.0137 110.232 87.7598 110.604C87.5059 110.975 87.3154 111.409 87.1885 111.907C87.0713 112.405 87.0127 112.942 87.0127 113.519ZM96.2559 113.284L94.8057 113.401C94.8057 112.327 94.9326 111.331 95.1865 110.413C95.4404 109.495 95.8213 108.699 96.3291 108.025C96.8369 107.342 97.4668 106.81 98.2188 106.429C98.9805 106.048 99.8643 105.857 100.87 105.857C101.612 105.857 102.286 105.965 102.892 106.18C103.507 106.395 104.034 106.741 104.474 107.22C104.923 107.698 105.27 108.328 105.514 109.109C105.758 109.881 105.88 110.828 105.88 111.951V122H101.28V111.951C101.28 111.258 101.192 110.73 101.017 110.369C100.851 110.008 100.606 109.759 100.284 109.622C99.9717 109.485 99.5957 109.417 99.1562 109.417C98.668 109.417 98.2432 109.52 97.8818 109.725C97.5205 109.92 97.2178 110.193 96.9736 110.545C96.7295 110.887 96.5488 111.292 96.4316 111.761C96.3145 112.229 96.2559 112.737 96.2559 113.284ZM118.243 118.177V106.15H122.843V122H118.536L118.243 118.177ZM118.727 114.939L119.986 114.91C119.986 115.975 119.859 116.956 119.605 117.854C119.361 118.753 118.99 119.534 118.492 120.198C118.004 120.862 117.394 121.38 116.661 121.751C115.938 122.112 115.094 122.293 114.127 122.293C113.346 122.293 112.628 122.186 111.974 121.971C111.329 121.746 110.772 121.399 110.304 120.931C109.835 120.452 109.474 119.842 109.22 119.1C108.966 118.348 108.839 117.449 108.839 116.404V106.15H113.409V116.434C113.409 116.844 113.458 117.195 113.556 117.488C113.663 117.771 113.805 118.006 113.98 118.191C114.166 118.377 114.391 118.514 114.654 118.602C114.928 118.689 115.226 118.733 115.548 118.733C116.358 118.733 116.993 118.567 117.452 118.235C117.921 117.894 118.248 117.439 118.434 116.873C118.629 116.297 118.727 115.652 118.727 114.939ZM130.299 109.534V122H125.714V106.15H130.021L130.299 109.534ZM129.698 113.519L128.556 113.548C128.556 112.356 128.702 111.287 128.995 110.34C129.288 109.393 129.703 108.587 130.24 107.923C130.787 107.249 131.437 106.736 132.188 106.385C132.95 106.033 133.79 105.857 134.708 105.857C135.45 105.857 136.129 105.965 136.744 106.18C137.359 106.395 137.887 106.741 138.326 107.22C138.775 107.688 139.117 108.313 139.352 109.095C139.586 109.866 139.703 110.818 139.703 111.951V122H135.104V111.937C135.104 111.272 135.011 110.76 134.825 110.398C134.64 110.037 134.366 109.783 134.005 109.637C133.653 109.49 133.224 109.417 132.716 109.417C132.179 109.417 131.72 109.524 131.339 109.739C130.958 109.944 130.646 110.232 130.401 110.604C130.157 110.975 129.977 111.409 129.859 111.907C129.752 112.405 129.698 112.942 129.698 113.519ZM147.511 106.15V122H142.926V106.15H147.511ZM142.647 102.049C142.647 101.385 142.882 100.843 143.351 100.423C143.819 99.9932 144.435 99.7783 145.196 99.7783C145.958 99.7783 146.573 99.9932 147.042 100.423C147.521 100.843 147.76 101.385 147.76 102.049C147.76 102.703 147.521 103.245 147.042 103.675C146.573 104.095 145.958 104.305 145.196 104.305C144.435 104.305 143.819 104.095 143.351 103.675C142.882 103.245 142.647 102.703 142.647 102.049ZM157.428 118.733C157.916 118.733 158.341 118.641 158.702 118.455C159.063 118.27 159.342 118.011 159.537 117.679C159.742 117.337 159.845 116.927 159.845 116.448H164.151C164.151 117.601 163.854 118.616 163.258 119.495C162.672 120.374 161.881 121.062 160.885 121.561C159.889 122.049 158.766 122.293 157.516 122.293C156.285 122.293 155.211 122.093 154.293 121.692C153.375 121.282 152.608 120.711 151.993 119.979C151.378 119.246 150.914 118.396 150.602 117.43C150.299 116.453 150.147 115.398 150.147 114.266V113.885C150.147 112.762 150.299 111.712 150.602 110.735C150.914 109.759 151.378 108.904 151.993 108.172C152.608 107.439 153.37 106.873 154.278 106.473C155.196 106.062 156.271 105.857 157.501 105.857C158.8 105.857 159.947 106.106 160.943 106.604C161.949 107.103 162.735 107.82 163.302 108.758C163.868 109.686 164.151 110.804 164.151 112.112H159.845C159.845 111.604 159.752 111.15 159.566 110.75C159.391 110.34 159.117 110.018 158.746 109.783C158.385 109.539 157.936 109.417 157.398 109.417C156.842 109.417 156.383 109.539 156.021 109.783C155.67 110.018 155.401 110.345 155.216 110.765C155.03 111.185 154.903 111.663 154.835 112.2C154.767 112.728 154.732 113.289 154.732 113.885V114.266C154.732 114.871 154.767 115.447 154.835 115.994C154.903 116.531 155.03 117.005 155.216 117.415C155.411 117.825 155.685 118.147 156.036 118.382C156.388 118.616 156.852 118.733 157.428 118.733ZM174.815 118.221V111.424C174.815 110.945 174.742 110.535 174.596 110.193C174.449 109.852 174.22 109.583 173.907 109.388C173.595 109.192 173.189 109.095 172.691 109.095C172.271 109.095 171.905 109.168 171.593 109.314C171.29 109.461 171.056 109.671 170.89 109.944C170.733 110.218 170.655 110.555 170.655 110.955H166.085C166.085 110.242 166.246 109.578 166.568 108.963C166.891 108.348 167.35 107.806 167.945 107.337C168.551 106.868 169.273 106.507 170.113 106.253C170.953 105.989 171.896 105.857 172.94 105.857C174.181 105.857 175.284 106.067 176.251 106.487C177.228 106.897 177.999 107.518 178.565 108.348C179.132 109.168 179.415 110.203 179.415 111.453V118.089C179.415 119.046 179.469 119.798 179.576 120.345C179.693 120.882 179.859 121.351 180.074 121.751V122H175.46C175.245 121.541 175.084 120.975 174.977 120.301C174.869 119.617 174.815 118.924 174.815 118.221ZM175.387 112.332L175.416 114.852H173.146C172.638 114.852 172.198 114.915 171.827 115.042C171.466 115.169 171.173 115.345 170.948 115.569C170.724 115.784 170.558 116.038 170.45 116.331C170.353 116.614 170.304 116.927 170.304 117.269C170.304 117.591 170.382 117.884 170.538 118.147C170.694 118.401 170.909 118.602 171.183 118.748C171.456 118.895 171.773 118.968 172.135 118.968C172.73 118.968 173.238 118.851 173.658 118.616C174.088 118.382 174.42 118.099 174.654 117.767C174.889 117.425 175.006 117.107 175.006 116.814L176.104 118.719C175.929 119.109 175.714 119.515 175.46 119.935C175.206 120.345 174.884 120.73 174.493 121.092C174.103 121.443 173.629 121.731 173.072 121.956C172.525 122.181 171.866 122.293 171.095 122.293C170.099 122.293 169.195 122.093 168.385 121.692C167.574 121.282 166.925 120.721 166.437 120.008C165.958 119.295 165.719 118.475 165.719 117.547C165.719 116.717 165.87 115.979 166.173 115.335C166.476 114.69 166.93 114.144 167.535 113.694C168.15 113.245 168.922 112.908 169.85 112.684C170.777 112.449 171.861 112.332 173.102 112.332H175.387ZM190.475 106.15V109.358H181.07V106.15H190.475ZM183.224 102.225H187.809V117.034C187.809 117.474 187.862 117.811 187.97 118.045C188.077 118.279 188.253 118.445 188.497 118.543C188.741 118.631 189.054 118.675 189.435 118.675C189.708 118.675 189.942 118.665 190.138 118.646C190.333 118.626 190.514 118.602 190.68 118.572V121.883C190.289 122.01 189.874 122.107 189.435 122.176C188.995 122.254 188.517 122.293 187.999 122.293C187.013 122.293 186.158 122.132 185.436 121.81C184.723 121.487 184.176 120.979 183.795 120.286C183.414 119.583 183.224 118.67 183.224 117.547V102.225ZM197.491 106.15V122H192.906V106.15H197.491ZM192.628 102.049C192.628 101.385 192.862 100.843 193.331 100.423C193.8 99.9932 194.415 99.7783 195.177 99.7783C195.938 99.7783 196.554 99.9932 197.022 100.423C197.501 100.843 197.74 101.385 197.74 102.049C197.74 102.703 197.501 103.245 197.022 103.675C196.554 104.095 195.938 104.305 195.177 104.305C194.415 104.305 193.8 104.095 193.331 103.675C192.862 103.245 192.628 102.703 192.628 102.049ZM200.128 114.236V113.929C200.128 112.767 200.294 111.697 200.626 110.721C200.958 109.734 201.446 108.88 202.091 108.157C202.735 107.435 203.526 106.873 204.464 106.473C205.401 106.062 206.476 105.857 207.687 105.857C208.917 105.857 210.001 106.062 210.938 106.473C211.886 106.873 212.682 107.435 213.326 108.157C213.971 108.88 214.459 109.734 214.791 110.721C215.123 111.697 215.289 112.767 215.289 113.929V114.236C215.289 115.389 215.123 116.458 214.791 117.444C214.459 118.421 213.971 119.275 213.326 120.008C212.682 120.73 211.891 121.292 210.953 121.692C210.016 122.093 208.937 122.293 207.716 122.293C206.505 122.293 205.426 122.093 204.479 121.692C203.531 121.292 202.735 120.73 202.091 120.008C201.446 119.275 200.958 118.421 200.626 117.444C200.294 116.458 200.128 115.389 200.128 114.236ZM204.713 113.929V114.236C204.713 114.861 204.762 115.447 204.859 115.994C204.967 116.541 205.138 117.02 205.372 117.43C205.606 117.84 205.914 118.162 206.295 118.396C206.686 118.621 207.159 118.733 207.716 118.733C208.272 118.733 208.741 118.621 209.122 118.396C209.503 118.162 209.811 117.84 210.045 117.43C210.279 117.02 210.445 116.541 210.543 115.994C210.65 115.447 210.704 114.861 210.704 114.236V113.929C210.704 113.313 210.65 112.737 210.543 112.2C210.445 111.653 210.279 111.17 210.045 110.75C209.811 110.33 209.498 110.003 209.107 109.769C208.727 109.534 208.253 109.417 207.687 109.417C207.14 109.417 206.676 109.534 206.295 109.769C205.914 110.003 205.606 110.33 205.372 110.75C205.138 111.17 204.967 111.653 204.859 112.2C204.762 112.737 204.713 113.313 204.713 113.929ZM222.174 109.534V122H217.589V106.15H221.896L222.174 109.534ZM221.573 113.519L220.431 113.548C220.431 112.356 220.577 111.287 220.87 110.34C221.163 109.393 221.578 108.587 222.115 107.923C222.662 107.249 223.312 106.736 224.063 106.385C224.825 106.033 225.665 105.857 226.583 105.857C227.325 105.857 228.004 105.965 228.619 106.18C229.234 106.395 229.762 106.741 230.201 107.22C230.65 107.688 230.992 108.313 231.227 109.095C231.461 109.866 231.578 110.818 231.578 111.951V122H226.979V111.937C226.979 111.272 226.886 110.76 226.7 110.398C226.515 110.037 226.241 109.783 225.88 109.637C225.528 109.49 225.099 109.417 224.591 109.417C224.054 109.417 223.595 109.524 223.214 109.739C222.833 109.944 222.521 110.232 222.276 110.604C222.032 110.975 221.852 111.409 221.734 111.907C221.627 112.405 221.573 112.942 221.573 113.519ZM25.8408 135.672V157H21.0801V135.672H25.8408ZM34.7764 135.672V157H30.0156V135.672H34.7764Z" fill="#313134"/>
<path d="M46.8618 254.858C46.8542 254.794 46.8395 254.73 46.8179 254.669V254.606C46.7827 254.534 46.7357 254.468 46.6788 254.41V254.41L42.2855 250.21C42.2249 250.156 42.1557 250.111 42.0804 250.077H42.0145C41.9402 250.036 41.858 250.01 41.7729 250H37.343C36.7604 250 36.2017 250.221 35.7897 250.615C35.3778 251.009 35.1464 251.543 35.1464 252.1V261.9C35.1464 262.457 35.3778 262.991 35.7897 263.385C36.2017 263.779 36.7604 264 37.343 264H44.6652C45.2478 264 45.8065 263.779 46.2184 263.385C46.6304 262.991 46.8618 262.457 46.8618 261.9V254.9C46.8618 254.9 46.8618 254.9 46.8618 254.858ZM42.4685 252.387L44.365 254.2H43.2007C43.0065 254.2 42.8203 254.126 42.683 253.995C42.5457 253.864 42.4685 253.686 42.4685 253.5V252.387ZM45.3974 261.9C45.3974 262.086 45.3202 262.264 45.1829 262.395C45.0456 262.526 44.8594 262.6 44.6652 262.6H37.343C37.1488 262.6 36.9626 262.526 36.8253 262.395C36.6879 262.264 36.6108 262.086 36.6108 261.9V252.1C36.6108 251.914 36.6879 251.736 36.8253 251.605C36.9626 251.474 37.1488 251.4 37.343 251.4H41.0041V253.5C41.0041 254.057 41.2355 254.591 41.6475 254.985C42.0594 255.379 42.6181 255.6 43.2007 255.6H45.3974V261.9Z" fill="#6D6D6F"/>
<path d="M58.5503 259.875V261H52.8315V260.033L55.6089 257.004C55.9136 256.66 56.1538 256.363 56.3296 256.113C56.5054 255.863 56.6284 255.639 56.6987 255.439C56.7729 255.236 56.8101 255.039 56.8101 254.848C56.8101 254.578 56.7593 254.342 56.6577 254.139C56.5601 253.932 56.4155 253.77 56.2241 253.652C56.0327 253.531 55.8003 253.471 55.5269 253.471C55.2104 253.471 54.9448 253.539 54.73 253.676C54.5151 253.812 54.353 254.002 54.2437 254.244C54.1343 254.482 54.0796 254.756 54.0796 255.064H52.6675C52.6675 254.568 52.7808 254.115 53.0073 253.705C53.2339 253.291 53.562 252.963 53.9917 252.721C54.4214 252.475 54.939 252.352 55.5444 252.352C56.1147 252.352 56.5991 252.447 56.9976 252.639C57.396 252.83 57.6987 253.102 57.9058 253.453C58.1167 253.805 58.2222 254.221 58.2222 254.701C58.2222 254.967 58.1792 255.23 58.0933 255.492C58.0073 255.754 57.8843 256.016 57.7241 256.277C57.5679 256.535 57.3823 256.795 57.1675 257.057C56.9526 257.314 56.7163 257.576 56.4585 257.842L54.6128 259.875H58.5503ZM65.3179 252.469V253.242L61.9077 261H60.4194L63.8237 253.594H59.4058V252.469H65.3179Z" fill="#6D6D6F"/>
<path d="M134.911 259.887H135.029C135.568 259.887 136.017 259.816 136.376 259.676C136.74 259.531 137.029 259.332 137.243 259.078C137.458 258.824 137.613 258.525 137.706 258.182C137.8 257.838 137.847 257.465 137.847 257.062V255.592C137.847 255.244 137.81 254.939 137.736 254.678C137.665 254.412 137.564 254.191 137.431 254.016C137.302 253.836 137.152 253.701 136.98 253.611C136.812 253.521 136.63 253.477 136.435 253.477C136.22 253.477 136.027 253.525 135.855 253.623C135.687 253.717 135.544 253.848 135.427 254.016C135.314 254.18 135.226 254.373 135.163 254.596C135.105 254.814 135.075 255.049 135.075 255.299C135.075 255.533 135.103 255.76 135.157 255.979C135.216 256.193 135.302 256.385 135.415 256.553C135.529 256.721 135.671 256.854 135.843 256.951C136.015 257.049 136.216 257.098 136.447 257.098C136.665 257.098 136.866 257.057 137.05 256.975C137.234 256.889 137.394 256.773 137.531 256.629C137.667 256.484 137.775 256.322 137.853 256.143C137.931 255.963 137.974 255.779 137.982 255.592L138.521 255.756C138.521 256.053 138.458 256.346 138.333 256.635C138.212 256.92 138.042 257.182 137.823 257.42C137.609 257.654 137.357 257.842 137.068 257.982C136.782 258.123 136.472 258.193 136.136 258.193C135.73 258.193 135.37 258.117 135.058 257.965C134.749 257.809 134.491 257.598 134.284 257.332C134.081 257.066 133.929 256.762 133.827 256.418C133.726 256.074 133.675 255.713 133.675 255.334C133.675 254.924 133.738 254.539 133.863 254.18C133.988 253.82 134.169 253.504 134.407 253.23C134.646 252.953 134.935 252.738 135.275 252.586C135.618 252.43 136.007 252.352 136.441 252.352C136.902 252.352 137.306 252.441 137.654 252.621C138.001 252.801 138.294 253.049 138.532 253.365C138.771 253.682 138.95 254.049 139.072 254.467C139.193 254.885 139.253 255.334 139.253 255.814V256.312C139.253 256.816 139.208 257.303 139.118 257.771C139.029 258.236 138.882 258.668 138.679 259.066C138.48 259.461 138.216 259.809 137.888 260.109C137.564 260.406 137.165 260.639 136.693 260.807C136.224 260.971 135.673 261.053 135.04 261.053H134.911V259.887Z" fill="#6D6D6F"/>
<path d="M214.246 256.096H215.09C215.418 256.096 215.689 256.039 215.904 255.926C216.123 255.812 216.285 255.656 216.39 255.457C216.496 255.258 216.549 255.029 216.549 254.771C216.549 254.502 216.5 254.271 216.402 254.08C216.308 253.885 216.164 253.734 215.969 253.629C215.777 253.523 215.533 253.471 215.236 253.471C214.986 253.471 214.76 253.521 214.556 253.623C214.357 253.721 214.199 253.861 214.082 254.045C213.965 254.225 213.906 254.439 213.906 254.689H212.488C212.488 254.236 212.607 253.834 212.845 253.482C213.084 253.131 213.408 252.855 213.818 252.656C214.232 252.453 214.697 252.352 215.213 252.352C215.763 252.352 216.244 252.443 216.654 252.627C217.068 252.807 217.39 253.076 217.621 253.436C217.851 253.795 217.967 254.24 217.967 254.771C217.967 255.014 217.91 255.26 217.797 255.51C217.683 255.76 217.515 255.988 217.293 256.195C217.07 256.398 216.793 256.564 216.461 256.693C216.129 256.818 215.744 256.881 215.306 256.881H214.246V256.096ZM214.246 257.197V256.424H215.306C215.806 256.424 216.232 256.482 216.584 256.6C216.939 256.717 217.228 256.879 217.451 257.086C217.674 257.289 217.836 257.521 217.937 257.783C218.043 258.045 218.095 258.322 218.095 258.615C218.095 259.014 218.023 259.369 217.879 259.682C217.738 259.99 217.537 260.252 217.275 260.467C217.013 260.682 216.707 260.844 216.355 260.953C216.008 261.062 215.629 261.117 215.219 261.117C214.851 261.117 214.5 261.066 214.164 260.965C213.828 260.863 213.527 260.713 213.261 260.514C212.996 260.311 212.785 260.059 212.629 259.758C212.476 259.453 212.4 259.102 212.4 258.703H213.812C213.812 258.957 213.871 259.182 213.988 259.377C214.109 259.568 214.277 259.719 214.492 259.828C214.711 259.938 214.961 259.992 215.242 259.992C215.539 259.992 215.795 259.939 216.01 259.834C216.224 259.729 216.388 259.572 216.502 259.365C216.619 259.158 216.677 258.908 216.677 258.615C216.677 258.283 216.613 258.014 216.484 257.807C216.355 257.6 216.172 257.447 215.933 257.35C215.695 257.248 215.414 257.197 215.09 257.197H214.246ZM224.969 256.02V257.414C224.969 258.082 224.902 258.652 224.769 259.125C224.64 259.594 224.453 259.975 224.207 260.268C223.961 260.561 223.666 260.775 223.322 260.912C222.982 261.049 222.601 261.117 222.179 261.117C221.844 261.117 221.531 261.074 221.242 260.988C220.957 260.902 220.699 260.768 220.469 260.584C220.238 260.4 220.041 260.164 219.877 259.875C219.717 259.582 219.592 259.232 219.502 258.826C219.416 258.42 219.373 257.949 219.373 257.414V256.02C219.373 255.348 219.439 254.781 219.572 254.32C219.705 253.855 219.894 253.479 220.14 253.189C220.386 252.896 220.679 252.684 221.019 252.551C221.363 252.418 221.746 252.352 222.168 252.352C222.508 252.352 222.82 252.395 223.105 252.48C223.394 252.562 223.652 252.693 223.879 252.873C224.109 253.053 224.304 253.287 224.465 253.576C224.629 253.861 224.754 254.207 224.84 254.613C224.926 255.016 224.969 255.484 224.969 256.02ZM223.556 257.613V255.809C223.556 255.469 223.537 255.17 223.498 254.912C223.459 254.65 223.4 254.43 223.322 254.25C223.248 254.066 223.154 253.918 223.041 253.805C222.927 253.688 222.799 253.604 222.654 253.553C222.51 253.498 222.347 253.471 222.168 253.471C221.949 253.471 221.754 253.514 221.582 253.6C221.41 253.682 221.265 253.814 221.148 253.998C221.031 254.182 220.941 254.424 220.879 254.725C220.82 255.021 220.791 255.383 220.791 255.809V257.613C220.791 257.957 220.81 258.26 220.849 258.521C220.888 258.783 220.947 259.008 221.025 259.195C221.103 259.379 221.197 259.531 221.306 259.652C221.42 259.77 221.549 259.855 221.693 259.91C221.842 259.965 222.004 259.992 222.179 259.992C222.402 259.992 222.599 259.949 222.771 259.863C222.943 259.777 223.088 259.641 223.205 259.453C223.322 259.262 223.41 259.014 223.469 258.709C223.527 258.404 223.556 258.039 223.556 257.613Z" fill="#6D6D6F"/>
<path d="M193.098 257.181C193.566 256.801 193.942 256.33 194.199 255.802C194.456 255.273 194.589 254.699 194.589 254.118C194.589 253.026 194.127 251.978 193.305 251.206C192.482 250.434 191.367 250 190.204 250C189.041 250 187.925 250.434 187.103 251.206C186.28 251.978 185.818 253.026 185.818 254.118C185.818 254.699 185.951 255.273 186.209 255.802C186.466 256.33 186.841 256.801 187.309 257.181C186.082 257.703 185.04 258.546 184.309 259.609C183.578 260.673 183.188 261.911 183.187 263.176C183.187 263.395 183.279 263.604 183.444 263.759C183.608 263.913 183.831 264 184.064 264C184.297 264 184.52 263.913 184.684 263.759C184.849 263.604 184.941 263.395 184.941 263.176C184.941 261.866 185.496 260.609 186.483 259.683C187.469 258.756 188.808 258.235 190.204 258.235C191.599 258.235 192.938 258.756 193.925 259.683C194.912 260.609 195.466 261.866 195.466 263.176C195.466 263.395 195.559 263.604 195.723 263.759C195.888 263.913 196.111 264 196.343 264C196.576 264 196.799 263.913 196.964 263.759C197.128 263.604 197.22 263.395 197.22 263.176C197.219 261.911 196.83 260.673 196.099 259.609C195.368 258.546 194.326 257.703 193.098 257.181V257.181ZM190.204 256.588C189.683 256.588 189.175 256.443 188.742 256.172C188.309 255.9 187.972 255.515 187.773 255.063C187.574 254.612 187.522 254.115 187.623 253.636C187.725 253.156 187.975 252.716 188.343 252.371C188.711 252.025 189.18 251.79 189.69 251.695C190.201 251.599 190.73 251.648 191.211 251.835C191.691 252.022 192.102 252.339 192.392 252.745C192.681 253.151 192.835 253.629 192.835 254.118C192.835 254.773 192.558 255.401 192.064 255.865C191.571 256.328 190.902 256.588 190.204 256.588ZM198.747 256.852C199.308 256.258 199.675 255.525 199.802 254.741C199.93 253.956 199.814 253.153 199.467 252.429C199.121 251.705 198.559 251.091 197.849 250.66C197.139 250.229 196.312 250 195.466 250C195.234 250 195.011 250.087 194.846 250.241C194.682 250.396 194.589 250.605 194.589 250.824C194.589 251.042 194.682 251.251 194.846 251.406C195.011 251.56 195.234 251.647 195.466 251.647C196.164 251.647 196.833 251.907 197.327 252.371C197.82 252.834 198.098 253.462 198.098 254.118C198.096 254.55 197.974 254.975 197.743 255.349C197.512 255.723 197.181 256.034 196.782 256.251C196.652 256.321 196.543 256.422 196.467 256.543C196.39 256.664 196.347 256.801 196.343 256.942C196.34 257.082 196.374 257.221 196.443 257.344C196.512 257.468 196.614 257.574 196.738 257.651L197.08 257.865L197.194 257.922C198.251 258.393 199.143 259.138 199.765 260.069C200.386 261 200.712 262.078 200.703 263.176C200.703 263.395 200.795 263.604 200.959 263.759C201.124 263.913 201.347 264 201.58 264C201.812 264 202.035 263.913 202.2 263.759C202.364 263.604 202.457 263.395 202.457 263.176C202.464 261.913 202.127 260.668 201.477 259.561C200.828 258.454 199.888 257.522 198.747 256.852V256.852Z" fill="#6D6D6F"/>
<rect x="88.3983" y="250" width="1.06504" height="14" fill="#EFEFEF"/>
<rect x="161.886" y="250" width="1.06504" height="14" fill="#EFEFEF"/>
<path d="M125.616 251.154C125.529 251.088 125.428 251.042 125.319 251.017C125.211 250.993 125.098 250.992 124.989 251.014C124.192 251.171 123.37 251.173 122.572 251.02C121.774 250.867 121.018 250.562 120.351 250.125C120.226 250.044 120.077 250 119.925 250C119.774 250 119.625 250.044 119.5 250.125C118.833 250.562 118.077 250.867 117.279 251.02C116.481 251.173 115.659 251.171 114.862 251.014C114.753 250.992 114.64 250.993 114.532 251.017C114.423 251.042 114.322 251.088 114.235 251.154C114.149 251.22 114.079 251.303 114.031 251.398C113.984 251.492 113.959 251.596 113.959 251.7V256.917C113.959 257.921 114.213 258.911 114.703 259.803C115.192 260.696 115.901 261.466 116.771 262.05L119.493 263.87C119.619 263.955 119.77 264 119.925 264C120.08 264 120.232 263.955 120.358 263.87L123.08 262.05C123.95 261.466 124.659 260.696 125.148 259.803C125.637 258.911 125.892 257.921 125.892 256.917V251.7C125.892 251.596 125.867 251.492 125.82 251.398C125.772 251.303 125.702 251.22 125.616 251.154ZM124.4 256.917C124.401 257.698 124.203 258.467 123.823 259.161C123.442 259.855 122.891 260.454 122.215 260.908L119.925 262.442L117.636 260.908C116.96 260.454 116.408 259.855 116.028 259.161C115.648 258.467 115.45 257.698 115.451 256.917V252.506C117.014 252.631 118.58 252.291 119.925 251.532C121.271 252.291 122.837 252.631 124.4 252.506V256.917ZM121.074 255.314L119.068 257.204L118.404 256.574C118.264 256.442 118.073 256.368 117.875 256.368C117.676 256.368 117.486 256.442 117.345 256.574C117.205 256.706 117.126 256.885 117.126 257.071C117.126 257.258 117.205 257.436 117.345 257.568L118.538 258.689C118.608 258.754 118.69 258.806 118.781 258.842C118.872 258.877 118.969 258.896 119.068 258.896C119.166 258.896 119.264 258.877 119.355 258.842C119.446 258.806 119.528 258.754 119.597 258.689L122.163 256.301C122.303 256.169 122.382 255.99 122.382 255.804C122.382 255.617 122.303 255.438 122.163 255.307C122.022 255.175 121.832 255.101 121.633 255.101C121.435 255.101 121.244 255.175 121.104 255.307L121.074 255.314Z" fill="#6D6D6F"/>
<rect x="19" y="18" width="91.5935" height="25" rx="12.5" fill="white"/>
<path d="M31.5867 30.1445H29.4128L29.4011 29.0723H31.2996C31.6199 29.0723 31.8914 29.0254 32.114 28.9316C32.3406 28.834 32.5125 28.6953 32.6296 28.5156C32.7468 28.332 32.8054 28.1113 32.8054 27.8535C32.8054 27.5684 32.7507 27.3359 32.6414 27.1562C32.532 26.9766 32.364 26.8457 32.1375 26.7637C31.9148 26.6816 31.6296 26.6406 31.282 26.6406H29.8582V34H28.3875V25.4688H31.282C31.7507 25.4688 32.1687 25.5137 32.5359 25.6035C32.907 25.6934 33.2214 25.834 33.4792 26.0254C33.741 26.2129 33.9382 26.4512 34.071 26.7402C34.2078 27.0293 34.2761 27.373 34.2761 27.7715C34.2761 28.123 34.1921 28.4453 34.0242 28.7383C33.8562 29.0273 33.6082 29.2637 33.28 29.4473C32.9519 29.6309 32.5437 29.7402 32.0554 29.7754L31.5867 30.1445ZM31.5222 34H28.95L29.6121 32.834H31.5222C31.8542 32.834 32.1316 32.7793 32.3542 32.6699C32.5769 32.5566 32.7429 32.4023 32.8523 32.207C32.9656 32.0078 33.0222 31.7754 33.0222 31.5098C33.0222 31.2324 32.9734 30.9922 32.8757 30.7891C32.7781 30.582 32.6238 30.4238 32.4128 30.3145C32.2019 30.2012 31.9265 30.1445 31.5867 30.1445H29.9343L29.946 29.0723H32.0964L32.4304 29.4766C32.8992 29.4922 33.2839 29.5957 33.5847 29.7871C33.8894 29.9785 34.116 30.2266 34.2644 30.5312C34.4128 30.8359 34.4871 31.1641 34.4871 31.5156C34.4871 32.0586 34.3679 32.5137 34.1296 32.8809C33.8953 33.248 33.5574 33.5273 33.116 33.7188C32.6746 33.9062 32.1433 34 31.5222 34ZM38.6238 34.1172C38.155 34.1172 37.7312 34.041 37.3523 33.8887C36.9773 33.7324 36.657 33.5156 36.3914 33.2383C36.1296 32.9609 35.9285 32.6348 35.7878 32.2598C35.6472 31.8848 35.5769 31.4805 35.5769 31.0469V30.8125C35.5769 30.3164 35.6492 29.8672 35.7937 29.4648C35.9382 29.0625 36.1394 28.7188 36.3972 28.4336C36.655 28.1445 36.9597 27.9238 37.3113 27.7715C37.6628 27.6191 38.0437 27.543 38.4539 27.543C38.907 27.543 39.3035 27.6191 39.6433 27.7715C39.9832 27.9238 40.2644 28.1387 40.4871 28.416C40.7136 28.6895 40.8816 29.0156 40.991 29.3945C41.1042 29.7734 41.1609 30.1914 41.1609 30.6484V31.252H36.2625V30.2383H39.7664V30.127C39.7585 29.873 39.7078 29.6348 39.614 29.4121C39.5242 29.1895 39.3855 29.0098 39.198 28.873C39.0105 28.7363 38.7605 28.668 38.448 28.668C38.2136 28.668 38.0046 28.7188 37.821 28.8203C37.6414 28.918 37.491 29.0605 37.3699 29.248C37.2488 29.4355 37.155 29.6621 37.0886 29.9277C37.0261 30.1895 36.9949 30.4844 36.9949 30.8125V31.0469C36.9949 31.3242 37.032 31.582 37.1062 31.8203C37.1843 32.0547 37.2976 32.2598 37.446 32.4355C37.5945 32.6113 37.7742 32.75 37.9851 32.8516C38.196 32.9492 38.4363 32.998 38.7058 32.998C39.0457 32.998 39.3484 32.9297 39.614 32.793C39.8796 32.6562 40.1101 32.4629 40.3054 32.2129L41.0496 32.9336C40.9128 33.1328 40.7351 33.3242 40.5164 33.5078C40.2976 33.6875 40.03 33.834 39.7136 33.9473C39.4011 34.0605 39.0378 34.1172 38.6238 34.1172ZM46.323 27.6602H47.6062V33.8242C47.6062 34.3945 47.4851 34.8789 47.2429 35.2773C47.0007 35.6758 46.6628 35.9785 46.2292 36.1855C45.7957 36.3965 45.2937 36.502 44.7234 36.502C44.4812 36.502 44.2117 36.4668 43.9148 36.3965C43.6218 36.3262 43.3367 36.2129 43.0593 36.0566C42.7859 35.9043 42.5574 35.7031 42.3738 35.4531L43.0359 34.6211C43.2625 34.8906 43.5125 35.0879 43.7859 35.2129C44.0593 35.3379 44.3464 35.4004 44.6472 35.4004C44.9714 35.4004 45.2468 35.3398 45.4734 35.2188C45.7039 35.1016 45.8816 34.9277 46.0066 34.6973C46.1316 34.4668 46.1941 34.1855 46.1941 33.8535V29.0957L46.323 27.6602ZM42.0164 30.9004V30.7773C42.0164 30.2969 42.075 29.8594 42.1921 29.4648C42.3093 29.0664 42.4773 28.7246 42.696 28.4395C42.9148 28.1504 43.1804 27.9297 43.4929 27.7773C43.8054 27.6211 44.1589 27.543 44.5535 27.543C44.9636 27.543 45.3132 27.6172 45.6023 27.7656C45.8953 27.9141 46.1394 28.127 46.3347 28.4043C46.53 28.6777 46.6824 29.0059 46.7917 29.3887C46.905 29.7676 46.989 30.1895 47.0437 30.6543V31.0469C46.9929 31.5 46.907 31.9141 46.7859 32.2891C46.6648 32.6641 46.5046 32.9883 46.3054 33.2617C46.1062 33.5352 45.8601 33.7461 45.5671 33.8945C45.2781 34.043 44.9363 34.1172 44.5417 34.1172C44.155 34.1172 43.8054 34.0371 43.4929 33.877C43.1843 33.7168 42.9187 33.4922 42.696 33.2031C42.4773 32.9141 42.3093 32.5742 42.1921 32.1836C42.075 31.7891 42.0164 31.3613 42.0164 30.9004ZM43.4285 30.7773V30.9004C43.4285 31.1895 43.4558 31.459 43.5105 31.709C43.5691 31.959 43.657 32.1797 43.7742 32.3711C43.8953 32.5586 44.0476 32.707 44.2312 32.8164C44.4187 32.9219 44.6394 32.9746 44.8933 32.9746C45.2253 32.9746 45.4968 32.9043 45.7078 32.7637C45.9226 32.623 46.0867 32.4336 46.2 32.1953C46.3171 31.9531 46.3992 31.6836 46.446 31.3867V30.3262C46.4226 30.0957 46.3738 29.8809 46.2996 29.6816C46.2292 29.4824 46.1335 29.3086 46.0125 29.1602C45.8914 29.0078 45.739 28.8906 45.5554 28.8086C45.3718 28.7227 45.155 28.6797 44.905 28.6797C44.6511 28.6797 44.4304 28.7344 44.2429 28.8438C44.0554 28.9531 43.9011 29.1035 43.78 29.2949C43.6628 29.4863 43.575 29.709 43.5164 29.9629C43.4578 30.2168 43.4285 30.4883 43.4285 30.7773ZM50.5828 27.6602V34H49.1648V27.6602H50.5828ZM49.071 25.9961C49.071 25.7812 49.1414 25.6035 49.282 25.4629C49.4265 25.3184 49.6257 25.2461 49.8796 25.2461C50.1296 25.2461 50.3269 25.3184 50.4714 25.4629C50.616 25.6035 50.6882 25.7812 50.6882 25.9961C50.6882 26.207 50.616 26.3828 50.4714 26.5234C50.3269 26.6641 50.1296 26.7344 49.8796 26.7344C49.6257 26.7344 49.4265 26.6641 49.282 26.5234C49.1414 26.3828 49.071 26.207 49.071 25.9961ZM53.53 29.0137V34H52.1179V27.6602H53.448L53.53 29.0137ZM53.2781 30.5957L52.821 30.5898C52.825 30.1406 52.8875 29.7285 53.0085 29.3535C53.1335 28.9785 53.3054 28.6562 53.5242 28.3867C53.7468 28.1172 54.0125 27.9102 54.321 27.7656C54.6296 27.6172 54.9734 27.543 55.3523 27.543C55.657 27.543 55.9324 27.5859 56.1785 27.6719C56.4285 27.7539 56.6414 27.8887 56.8171 28.0762C56.9968 28.2637 57.1335 28.5078 57.2273 28.8086C57.321 29.1055 57.3679 29.4707 57.3679 29.9043V34H55.95V29.8984C55.95 29.5938 55.905 29.3535 55.8152 29.1777C55.7292 28.998 55.6023 28.8711 55.4343 28.7969C55.2703 28.7188 55.0652 28.6797 54.8191 28.6797C54.5769 28.6797 54.3601 28.7305 54.1687 28.832C53.9773 28.9336 53.8152 29.0723 53.6824 29.248C53.5535 29.4238 53.4539 29.627 53.3835 29.8574C53.3132 30.0879 53.2781 30.334 53.2781 30.5957ZM60.2097 29.0137V34H58.7976V27.6602H60.1277L60.2097 29.0137ZM59.9578 30.5957L59.5007 30.5898C59.5046 30.1406 59.5671 29.7285 59.6882 29.3535C59.8132 28.9785 59.9851 28.6562 60.2039 28.3867C60.4265 28.1172 60.6921 27.9102 61.0007 27.7656C61.3093 27.6172 61.6531 27.543 62.032 27.543C62.3367 27.543 62.6121 27.5859 62.8582 27.6719C63.1082 27.7539 63.321 27.8887 63.4968 28.0762C63.6765 28.2637 63.8132 28.5078 63.907 28.8086C64.0007 29.1055 64.0476 29.4707 64.0476 29.9043V34H62.6296V29.8984C62.6296 29.5938 62.5847 29.3535 62.4949 29.1777C62.4089 28.998 62.282 28.8711 62.114 28.7969C61.95 28.7188 61.7449 28.6797 61.4988 28.6797C61.2566 28.6797 61.0398 28.7305 60.8484 28.832C60.657 28.9336 60.4949 29.0723 60.3621 29.248C60.2332 29.4238 60.1335 29.627 60.0632 29.8574C59.9929 30.0879 59.9578 30.334 59.9578 30.5957ZM68.2839 34.1172C67.8152 34.1172 67.3914 34.041 67.0125 33.8887C66.6375 33.7324 66.3171 33.5156 66.0515 33.2383C65.7898 32.9609 65.5886 32.6348 65.448 32.2598C65.3074 31.8848 65.2371 31.4805 65.2371 31.0469V30.8125C65.2371 30.3164 65.3093 29.8672 65.4539 29.4648C65.5984 29.0625 65.7996 28.7188 66.0574 28.4336C66.3152 28.1445 66.6199 27.9238 66.9714 27.7715C67.323 27.6191 67.7039 27.543 68.114 27.543C68.5671 27.543 68.9636 27.6191 69.3035 27.7715C69.6433 27.9238 69.9246 28.1387 70.1472 28.416C70.3738 28.6895 70.5417 29.0156 70.6511 29.3945C70.7644 29.7734 70.821 30.1914 70.821 30.6484V31.252H65.9226V30.2383H69.4265V30.127C69.4187 29.873 69.3679 29.6348 69.2742 29.4121C69.1843 29.1895 69.0457 29.0098 68.8582 28.873C68.6707 28.7363 68.4207 28.668 68.1082 28.668C67.8738 28.668 67.6648 28.7188 67.4812 28.8203C67.3015 28.918 67.1511 29.0605 67.03 29.248C66.9089 29.4355 66.8152 29.6621 66.7488 29.9277C66.6863 30.1895 66.655 30.4844 66.655 30.8125V31.0469C66.655 31.3242 66.6921 31.582 66.7664 31.8203C66.8445 32.0547 66.9578 32.2598 67.1062 32.4355C67.2546 32.6113 67.4343 32.75 67.6453 32.8516C67.8562 32.9492 68.0964 32.998 68.366 32.998C68.7058 32.998 69.0085 32.9297 69.2742 32.793C69.5398 32.6562 69.7703 32.4629 69.9656 32.2129L70.7097 32.9336C70.573 33.1328 70.3953 33.3242 70.1765 33.5078C69.9578 33.6875 69.6902 33.834 69.3738 33.9473C69.0613 34.0605 68.698 34.1172 68.2839 34.1172ZM73.3406 28.8672V34H71.9285V27.6602H73.2761L73.3406 28.8672ZM75.28 27.6191L75.2683 28.9316C75.1824 28.916 75.0886 28.9043 74.9871 28.8965C74.8894 28.8887 74.7917 28.8848 74.6941 28.8848C74.4519 28.8848 74.239 28.9199 74.0554 28.9902C73.8718 29.0566 73.7175 29.1543 73.5925 29.2832C73.4714 29.4082 73.3777 29.5605 73.3113 29.7402C73.2449 29.9199 73.2058 30.1211 73.1941 30.3438L72.8718 30.3672C72.8718 29.9688 72.9109 29.5996 72.989 29.2598C73.0671 28.9199 73.1843 28.6211 73.3406 28.3633C73.5007 28.1055 73.7 27.9043 73.9382 27.7598C74.1804 27.6152 74.4597 27.543 74.7761 27.543C74.8621 27.543 74.9539 27.5508 75.0515 27.5664C75.1531 27.582 75.2292 27.5996 75.28 27.6191Z" fill="#303030"/>
<rect x="88.2275" y="30" width="2.13008" height="6" fill="#FFA09C"/>
<rect x="92.4878" y="27" width="2.13008" height="9" fill="#C4C4C4"/>
<rect x="96.7479" y="24" width="2.13008" height="12" fill="#C4C4C4"/>
<rect x="19.1708" y="279" width="221.528" height="7" rx="3.5" fill="#F2F2F2"/>
<path d="M19.1708 282.5C19.1708 280.567 20.7378 279 22.6708 279H186.077C188.01 279 189.577 280.567 189.577 282.5V282.5C189.577 284.433 188.01 286 186.077 286H22.6708C20.7378 286 19.1708 284.433 19.1708 282.5V282.5Z" fill="#3C3D44"/>
<path d="M25.077 305.223H26.5419C26.495 305.781 26.3387 306.279 26.0731 306.717C25.8075 307.15 25.4344 307.492 24.954 307.742C24.4735 307.992 23.8895 308.117 23.202 308.117C22.6747 308.117 22.2001 308.023 21.7782 307.836C21.3563 307.645 20.995 307.375 20.6942 307.027C20.3934 306.676 20.163 306.252 20.0028 305.756C19.8466 305.26 19.7684 304.705 19.7684 304.092V303.383C19.7684 302.77 19.8485 302.215 20.0087 301.719C20.1727 301.223 20.4071 300.799 20.7118 300.447C21.0165 300.092 21.3817 299.82 21.8075 299.633C22.2372 299.445 22.7196 299.352 23.2548 299.352C23.9344 299.352 24.5087 299.477 24.9774 299.727C25.4462 299.977 25.8094 300.322 26.0673 300.764C26.329 301.205 26.4891 301.711 26.5477 302.281H25.0829C25.0438 301.914 24.9579 301.6 24.8251 301.338C24.6962 301.076 24.5048 300.877 24.2509 300.74C23.9969 300.6 23.6649 300.529 23.2548 300.529C22.9188 300.529 22.6259 300.592 22.3759 300.717C22.1259 300.842 21.9169 301.025 21.7489 301.268C21.5809 301.51 21.454 301.809 21.368 302.164C21.286 302.516 21.245 302.918 21.245 303.371V304.092C21.245 304.521 21.2821 304.912 21.3563 305.264C21.4344 305.611 21.5516 305.91 21.7079 306.16C21.868 306.41 22.0712 306.604 22.3173 306.74C22.5634 306.877 22.8583 306.945 23.202 306.945C23.62 306.945 23.9579 306.879 24.2157 306.746C24.4774 306.613 24.6747 306.42 24.8075 306.166C24.9442 305.908 25.0341 305.594 25.077 305.223ZM27.4677 304.9V304.766C27.4677 304.309 27.5341 303.885 27.6669 303.494C27.7997 303.1 27.9911 302.758 28.2411 302.469C28.495 302.176 28.8036 301.949 29.1669 301.789C29.5341 301.625 29.9481 301.543 30.4091 301.543C30.8739 301.543 31.288 301.625 31.6512 301.789C32.0184 301.949 32.329 302.176 32.5829 302.469C32.8368 302.758 33.0302 303.1 33.163 303.494C33.2958 303.885 33.3622 304.309 33.3622 304.766V304.9C33.3622 305.357 33.2958 305.781 33.163 306.172C33.0302 306.562 32.8368 306.904 32.5829 307.197C32.329 307.486 32.0204 307.713 31.6571 307.877C31.2938 308.037 30.8817 308.117 30.4208 308.117C29.9559 308.117 29.5399 308.037 29.1727 307.877C28.8094 307.713 28.5009 307.486 28.2469 307.197C27.993 306.904 27.7997 306.562 27.6669 306.172C27.5341 305.781 27.4677 305.357 27.4677 304.9ZM28.8798 304.766V304.9C28.8798 305.186 28.9091 305.455 28.9677 305.709C29.0262 305.963 29.118 306.186 29.243 306.377C29.368 306.568 29.5282 306.719 29.7235 306.828C29.9188 306.938 30.1512 306.992 30.4208 306.992C30.6825 306.992 30.9091 306.938 31.1005 306.828C31.2958 306.719 31.4559 306.568 31.5809 306.377C31.7059 306.186 31.7977 305.963 31.8563 305.709C31.9188 305.455 31.9501 305.186 31.9501 304.9V304.766C31.9501 304.484 31.9188 304.219 31.8563 303.969C31.7977 303.715 31.704 303.49 31.5751 303.295C31.4501 303.1 31.2899 302.947 31.0946 302.838C30.9032 302.725 30.6747 302.668 30.4091 302.668C30.1434 302.668 29.913 302.725 29.7177 302.838C29.5262 302.947 29.368 303.1 29.243 303.295C29.118 303.49 29.0262 303.715 28.9677 303.969C28.9091 304.219 28.8798 304.484 28.8798 304.766ZM35.9579 302.949V308H34.5458V301.66H35.8759L35.9579 302.949ZM35.7294 304.596L35.2489 304.59C35.2489 304.152 35.3036 303.748 35.413 303.377C35.5223 303.006 35.6825 302.684 35.8934 302.41C36.1044 302.133 36.3661 301.92 36.6786 301.771C36.995 301.619 37.3602 301.543 37.7743 301.543C38.0634 301.543 38.327 301.586 38.5653 301.672C38.8075 301.754 39.0165 301.885 39.1923 302.064C39.3719 302.244 39.5087 302.475 39.6024 302.756C39.7001 303.037 39.7489 303.377 39.7489 303.775V308H38.3368V303.898C38.3368 303.59 38.2899 303.348 38.1962 303.172C38.1063 302.996 37.9755 302.871 37.8036 302.797C37.6356 302.719 37.4344 302.68 37.2001 302.68C36.9344 302.68 36.7079 302.73 36.5204 302.832C36.3368 302.934 36.1864 303.072 36.0692 303.248C35.952 303.424 35.8661 303.627 35.8114 303.857C35.7567 304.088 35.7294 304.334 35.7294 304.596ZM39.661 304.221L38.9989 304.367C38.9989 303.984 39.0516 303.623 39.1571 303.283C39.2665 302.939 39.4247 302.639 39.6317 302.381C39.8427 302.119 40.1024 301.914 40.411 301.766C40.7196 301.617 41.0731 301.543 41.4716 301.543C41.7958 301.543 42.0848 301.588 42.3387 301.678C42.5966 301.764 42.8153 301.9 42.995 302.088C43.1747 302.275 43.3114 302.52 43.4052 302.82C43.4989 303.117 43.5458 303.477 43.5458 303.898V308H42.1278V303.893C42.1278 303.572 42.0809 303.324 41.9872 303.148C41.8973 302.973 41.7684 302.852 41.6005 302.785C41.4325 302.715 41.2313 302.68 40.9969 302.68C40.7782 302.68 40.5848 302.721 40.4169 302.803C40.2528 302.881 40.1141 302.992 40.0009 303.137C39.8876 303.277 39.8016 303.439 39.743 303.623C39.6884 303.807 39.661 304.006 39.661 304.221ZM46.4169 302.879V310.438H45.0048V301.66H46.3055L46.4169 302.879ZM50.5477 304.771V304.895C50.5477 305.355 50.493 305.783 50.3837 306.178C50.2782 306.568 50.12 306.91 49.9091 307.203C49.702 307.492 49.4462 307.717 49.1415 307.877C48.8368 308.037 48.4852 308.117 48.0868 308.117C47.6923 308.117 47.3466 308.045 47.0497 307.9C46.7567 307.752 46.5087 307.543 46.3055 307.273C46.1024 307.004 45.9384 306.688 45.8134 306.324C45.6923 305.957 45.6063 305.555 45.5555 305.117V304.643C45.6063 304.178 45.6923 303.756 45.8134 303.377C45.9384 302.998 46.1024 302.672 46.3055 302.398C46.5087 302.125 46.7567 301.914 47.0497 301.766C47.3427 301.617 47.6844 301.543 48.0751 301.543C48.4735 301.543 48.827 301.621 49.1356 301.777C49.4442 301.93 49.704 302.148 49.9149 302.434C50.1259 302.715 50.2841 303.055 50.3895 303.453C50.495 303.848 50.5477 304.287 50.5477 304.771ZM49.1356 304.895V304.771C49.1356 304.479 49.1083 304.207 49.0536 303.957C48.9989 303.703 48.913 303.48 48.7958 303.289C48.6786 303.098 48.5282 302.949 48.3446 302.844C48.1649 302.734 47.9481 302.68 47.6942 302.68C47.4442 302.68 47.2294 302.723 47.0497 302.809C46.87 302.891 46.7196 303.006 46.5985 303.154C46.4774 303.303 46.3837 303.477 46.3173 303.676C46.2509 303.871 46.204 304.084 46.1766 304.314V305.451C46.2235 305.732 46.3036 305.99 46.4169 306.225C46.5302 306.459 46.6903 306.646 46.8973 306.787C47.1083 306.924 47.3778 306.992 47.7059 306.992C47.9598 306.992 48.1766 306.938 48.3563 306.828C48.536 306.719 48.6825 306.568 48.7958 306.377C48.913 306.182 48.9989 305.957 49.0536 305.703C49.1083 305.449 49.1356 305.18 49.1356 304.895ZM53.2606 299V308H51.8427V299H53.2606ZM57.6024 308.117C57.1337 308.117 56.7098 308.041 56.3309 307.889C55.9559 307.732 55.6356 307.516 55.37 307.238C55.1083 306.961 54.9071 306.635 54.7665 306.26C54.6259 305.885 54.5555 305.48 54.5555 305.047V304.812C54.5555 304.316 54.6278 303.867 54.7723 303.465C54.9169 303.062 55.118 302.719 55.3759 302.434C55.6337 302.145 55.9384 301.924 56.2899 301.771C56.6415 301.619 57.0223 301.543 57.4325 301.543C57.8856 301.543 58.2821 301.619 58.6219 301.771C58.9618 301.924 59.243 302.139 59.4657 302.416C59.6923 302.689 59.8602 303.016 59.9696 303.395C60.0829 303.773 60.1395 304.191 60.1395 304.648V305.252H55.2411V304.238H58.745V304.127C58.7372 303.873 58.6864 303.635 58.5927 303.412C58.5028 303.189 58.3641 303.01 58.1766 302.873C57.9891 302.736 57.7391 302.668 57.4266 302.668C57.1923 302.668 56.9833 302.719 56.7997 302.82C56.62 302.918 56.4696 303.061 56.3485 303.248C56.2274 303.436 56.1337 303.662 56.0673 303.928C56.0048 304.189 55.9735 304.484 55.9735 304.812V305.047C55.9735 305.324 56.0106 305.582 56.0848 305.82C56.163 306.055 56.2762 306.26 56.4247 306.436C56.5731 306.611 56.7528 306.75 56.9637 306.852C57.1747 306.949 57.4149 306.998 57.6844 306.998C58.0243 306.998 58.327 306.93 58.5927 306.793C58.8583 306.656 59.0887 306.463 59.2841 306.213L60.0282 306.934C59.8915 307.133 59.7137 307.324 59.495 307.508C59.2762 307.688 59.0087 307.834 58.6923 307.947C58.3798 308.061 58.0165 308.117 57.6024 308.117ZM64.1473 301.66V302.691H60.5731V301.66H64.1473ZM61.6044 300.107H63.0165V306.248C63.0165 306.443 63.0438 306.594 63.0985 306.699C63.1571 306.801 63.2372 306.869 63.3387 306.904C63.4403 306.939 63.5594 306.957 63.6962 306.957C63.7938 306.957 63.8876 306.951 63.9774 306.939C64.0673 306.928 64.1395 306.916 64.1942 306.904L64.2001 307.982C64.0829 308.018 63.9462 308.049 63.7899 308.076C63.6376 308.104 63.4618 308.117 63.2626 308.117C62.9384 308.117 62.6512 308.061 62.4012 307.947C62.1512 307.83 61.9559 307.641 61.8153 307.379C61.6747 307.117 61.6044 306.77 61.6044 306.336V300.107ZM68.0321 308.117C67.5634 308.117 67.1395 308.041 66.7606 307.889C66.3856 307.732 66.0653 307.516 65.7997 307.238C65.538 306.961 65.3368 306.635 65.1962 306.26C65.0555 305.885 64.9852 305.48 64.9852 305.047V304.812C64.9852 304.316 65.0575 303.867 65.202 303.465C65.3466 303.062 65.5477 302.719 65.8055 302.434C66.0634 302.145 66.368 301.924 66.7196 301.771C67.0712 301.619 67.452 301.543 67.8622 301.543C68.3153 301.543 68.7118 301.619 69.0516 301.771C69.3915 301.924 69.6727 302.139 69.8954 302.416C70.1219 302.689 70.2899 303.016 70.3993 303.395C70.5126 303.773 70.5692 304.191 70.5692 304.648V305.252H65.6708V304.238H69.1747V304.127C69.1669 303.873 69.1161 303.635 69.0223 303.412C68.9325 303.189 68.7938 303.01 68.6063 302.873C68.4188 302.736 68.1688 302.668 67.8563 302.668C67.6219 302.668 67.413 302.719 67.2294 302.82C67.0497 302.918 66.8993 303.061 66.7782 303.248C66.6571 303.436 66.5634 303.662 66.4969 303.928C66.4344 304.189 66.4032 304.484 66.4032 304.812V305.047C66.4032 305.324 66.4403 305.582 66.5145 305.82C66.5927 306.055 66.7059 306.26 66.8544 306.436C67.0028 306.611 67.1825 306.75 67.3934 306.852C67.6044 306.949 67.8446 306.998 68.1141 306.998C68.454 306.998 68.7567 306.93 69.0223 306.793C69.288 306.656 69.5184 306.463 69.7137 306.213L70.4579 306.934C70.3212 307.133 70.1434 307.324 69.9247 307.508C69.7059 307.688 69.4384 307.834 69.1219 307.947C68.8094 308.061 68.4462 308.117 68.0321 308.117ZM75.538 306.688V299H76.9559V308H75.6727L75.538 306.688ZM71.413 304.9V304.777C71.413 304.297 71.4696 303.859 71.5829 303.465C71.6962 303.066 71.8602 302.725 72.0751 302.439C72.2899 302.15 72.5516 301.93 72.8602 301.777C73.1688 301.621 73.5165 301.543 73.9032 301.543C74.286 301.543 74.6219 301.617 74.911 301.766C75.2001 301.914 75.4462 302.127 75.6493 302.404C75.8524 302.678 76.0145 303.006 76.1356 303.389C76.2567 303.768 76.3427 304.189 76.3934 304.654V305.047C76.3427 305.5 76.2567 305.914 76.1356 306.289C76.0145 306.664 75.8524 306.988 75.6493 307.262C75.4462 307.535 75.1981 307.746 74.9052 307.895C74.6161 308.043 74.2782 308.117 73.8915 308.117C73.5087 308.117 73.163 308.037 72.8544 307.877C72.5497 307.717 72.2899 307.492 72.0751 307.203C71.8602 306.914 71.6962 306.574 71.5829 306.184C71.4696 305.789 71.413 305.361 71.413 304.9ZM72.8251 304.777V304.9C72.8251 305.189 72.8505 305.459 72.9012 305.709C72.9559 305.959 73.0399 306.18 73.1532 306.371C73.2665 306.559 73.413 306.707 73.5927 306.816C73.7762 306.922 73.995 306.975 74.2489 306.975C74.5692 306.975 74.8329 306.904 75.0399 306.764C75.2469 306.623 75.4091 306.434 75.5262 306.195C75.6473 305.953 75.7294 305.684 75.7723 305.387V304.326C75.7489 304.096 75.7001 303.881 75.6259 303.682C75.5555 303.482 75.4598 303.309 75.3387 303.16C75.2177 303.008 75.0673 302.891 74.8876 302.809C74.7118 302.723 74.5028 302.68 74.2606 302.68C74.0028 302.68 73.7841 302.734 73.6044 302.844C73.4247 302.953 73.2762 303.104 73.1591 303.295C73.0458 303.486 72.9618 303.709 72.9071 303.963C72.8524 304.217 72.8251 304.488 72.8251 304.777ZM78.4501 307.297C78.4501 307.078 78.5243 306.895 78.6727 306.746C78.8212 306.594 79.0223 306.518 79.2762 306.518C79.5341 306.518 79.7352 306.594 79.8798 306.746C80.0282 306.895 80.1024 307.078 80.1024 307.297C80.1024 307.516 80.0282 307.699 79.8798 307.848C79.7352 307.996 79.5341 308.07 79.2762 308.07C79.0223 308.07 78.8212 307.996 78.6727 307.848C78.5243 307.699 78.4501 307.516 78.4501 307.297ZM78.4559 302.305C78.4559 302.086 78.5302 301.902 78.6786 301.754C78.827 301.602 79.0282 301.525 79.2821 301.525C79.5399 301.525 79.7411 301.602 79.8856 301.754C80.0341 301.902 80.1083 302.086 80.1083 302.305C80.1083 302.523 80.0341 302.707 79.8856 302.855C79.7411 303.004 79.5399 303.078 79.2821 303.078C79.0282 303.078 78.827 303.004 78.6786 302.855C78.5302 302.707 78.4559 302.523 78.4559 302.305ZM90.1688 299.469V300.242L86.7587 308H85.2704L88.6747 300.594H84.2567V299.469H90.1688ZM92.8055 304.033L91.6805 303.758L92.1434 299.469H96.743V300.664H93.3153L93.0809 302.756C93.2137 302.678 93.3973 302.602 93.6317 302.527C93.8661 302.449 94.1337 302.41 94.4344 302.41C94.8368 302.41 95.1962 302.477 95.5126 302.609C95.8329 302.738 96.1044 302.928 96.327 303.178C96.5497 303.424 96.7196 303.725 96.8368 304.08C96.954 304.432 97.0126 304.828 97.0126 305.27C97.0126 305.664 96.954 306.033 96.8368 306.377C96.7235 306.721 96.5516 307.023 96.3212 307.285C96.0907 307.547 95.7997 307.752 95.4481 307.9C95.1005 308.045 94.6884 308.117 94.2118 308.117C93.8563 308.117 93.5145 308.066 93.1864 307.965C92.8622 307.859 92.5712 307.705 92.3134 307.502C92.0555 307.295 91.8485 307.041 91.6923 306.74C91.536 306.436 91.4462 306.086 91.4227 305.691H92.8055C92.8407 305.969 92.9169 306.205 93.0341 306.4C93.1552 306.592 93.3153 306.738 93.5145 306.84C93.7137 306.941 93.9442 306.992 94.2059 306.992C94.4442 306.992 94.6493 306.951 94.8212 306.869C94.993 306.783 95.1356 306.662 95.2489 306.506C95.3661 306.346 95.452 306.158 95.5067 305.943C95.5653 305.729 95.5946 305.49 95.5946 305.229C95.5946 304.979 95.5614 304.75 95.495 304.543C95.4325 304.336 95.3368 304.156 95.2079 304.004C95.0829 303.852 94.9247 303.734 94.7333 303.652C94.5419 303.566 94.3212 303.523 94.0712 303.523C93.7352 303.523 93.4774 303.572 93.2977 303.67C93.1219 303.768 92.9579 303.889 92.8055 304.033ZM98.0848 301.561V301.109C98.0848 300.785 98.1552 300.49 98.2958 300.225C98.4364 299.959 98.6415 299.746 98.911 299.586C99.1805 299.426 99.5048 299.346 99.8837 299.346C100.274 299.346 100.602 299.426 100.868 299.586C101.138 299.746 101.343 299.959 101.483 300.225C101.624 300.49 101.694 300.785 101.694 301.109V301.561C101.694 301.877 101.624 302.168 101.483 302.434C101.347 302.699 101.143 302.912 100.874 303.072C100.608 303.232 100.282 303.312 99.8954 303.312C99.5126 303.312 99.1844 303.232 98.911 303.072C98.6415 302.912 98.4364 302.699 98.2958 302.434C98.1552 302.168 98.0848 301.877 98.0848 301.561ZM99.0634 301.109V301.561C99.0634 301.717 99.0927 301.865 99.1512 302.006C99.2137 302.146 99.3075 302.26 99.4325 302.346C99.5575 302.432 99.7118 302.475 99.8954 302.475C100.083 302.475 100.235 302.432 100.352 302.346C100.474 302.26 100.563 302.146 100.622 302.006C100.681 301.865 100.71 301.717 100.71 301.561V301.109C100.71 300.949 100.679 300.799 100.616 300.658C100.557 300.514 100.468 300.398 100.347 300.312C100.225 300.227 100.071 300.184 99.8837 300.184C99.704 300.184 99.5516 300.227 99.4266 300.312C99.3055 300.398 99.2137 300.514 99.1512 300.658C99.0927 300.799 99.0634 300.949 99.0634 301.109ZM102.198 306.365V305.908C102.198 305.588 102.268 305.295 102.409 305.029C102.554 304.764 102.761 304.551 103.03 304.391C103.3 304.23 103.624 304.15 104.003 304.15C104.393 304.15 104.722 304.23 104.987 304.391C105.257 304.551 105.46 304.764 105.597 305.029C105.737 305.295 105.807 305.588 105.807 305.908V306.365C105.807 306.686 105.737 306.979 105.597 307.244C105.46 307.51 105.259 307.723 104.993 307.883C104.727 308.043 104.403 308.123 104.02 308.123C103.634 308.123 103.304 308.043 103.03 307.883C102.761 307.723 102.554 307.51 102.409 307.244C102.268 306.979 102.198 306.686 102.198 306.365ZM103.182 305.908V306.365C103.182 306.521 103.214 306.67 103.276 306.811C103.343 306.951 103.438 307.066 103.563 307.156C103.688 307.242 103.839 307.285 104.015 307.285C104.214 307.285 104.374 307.242 104.495 307.156C104.616 307.066 104.702 306.953 104.753 306.816C104.807 306.676 104.835 306.525 104.835 306.365V305.908C104.835 305.748 104.804 305.598 104.741 305.457C104.682 305.316 104.591 305.203 104.466 305.117C104.345 305.031 104.19 304.988 104.003 304.988C103.819 304.988 103.667 305.031 103.546 305.117C103.425 305.203 103.333 305.316 103.27 305.457C103.212 305.598 103.182 305.748 103.182 305.908ZM104.354 300.688L100.188 307.355L99.4677 306.939L103.634 300.271L104.354 300.688Z" fill="#9A9FA5"/>
<path d="M184.403 308H182.58L182.592 306.834H184.403C184.93 306.834 185.371 306.719 185.727 306.488C186.086 306.258 186.356 305.928 186.535 305.498C186.719 305.068 186.811 304.557 186.811 303.963V303.5C186.811 303.039 186.758 302.631 186.653 302.275C186.551 301.92 186.399 301.621 186.196 301.379C185.996 301.137 185.75 300.953 185.457 300.828C185.168 300.703 184.834 300.641 184.455 300.641H182.545V299.469H184.455C185.022 299.469 185.539 299.564 186.008 299.756C186.477 299.943 186.881 300.215 187.221 300.57C187.565 300.926 187.828 301.352 188.012 301.848C188.196 302.344 188.287 302.898 188.287 303.512V303.963C188.287 304.576 188.196 305.131 188.012 305.627C187.828 306.123 187.565 306.549 187.221 306.904C186.877 307.256 186.467 307.527 185.99 307.719C185.518 307.906 184.989 308 184.403 308ZM183.395 299.469V308H181.924V299.469H183.395ZM193.198 306.729V303.705C193.198 303.479 193.156 303.283 193.074 303.119C192.992 302.955 192.867 302.828 192.699 302.738C192.535 302.648 192.328 302.604 192.078 302.604C191.848 302.604 191.649 302.643 191.481 302.721C191.313 302.799 191.182 302.904 191.088 303.037C190.994 303.17 190.948 303.32 190.948 303.488H189.541C189.541 303.238 189.602 302.996 189.723 302.762C189.844 302.527 190.02 302.318 190.25 302.135C190.481 301.951 190.756 301.807 191.076 301.701C191.397 301.596 191.756 301.543 192.155 301.543C192.631 301.543 193.053 301.623 193.42 301.783C193.791 301.943 194.082 302.186 194.293 302.51C194.508 302.83 194.615 303.232 194.615 303.717V306.535C194.615 306.824 194.635 307.084 194.674 307.314C194.717 307.541 194.778 307.738 194.856 307.906V308H193.408C193.342 307.848 193.289 307.654 193.25 307.42C193.215 307.182 193.198 306.951 193.198 306.729ZM193.403 304.145L193.414 305.018H192.401C192.139 305.018 191.908 305.043 191.709 305.094C191.51 305.141 191.344 305.211 191.211 305.305C191.078 305.398 190.979 305.512 190.912 305.645C190.846 305.777 190.813 305.928 190.813 306.096C190.813 306.264 190.852 306.418 190.93 306.559C191.008 306.695 191.121 306.803 191.27 306.881C191.422 306.959 191.606 306.998 191.821 306.998C192.11 306.998 192.362 306.939 192.576 306.822C192.795 306.701 192.967 306.555 193.092 306.383C193.217 306.207 193.283 306.041 193.291 305.885L193.748 306.512C193.701 306.672 193.621 306.844 193.508 307.027C193.395 307.211 193.246 307.387 193.063 307.555C192.883 307.719 192.666 307.854 192.412 307.959C192.162 308.064 191.873 308.117 191.545 308.117C191.131 308.117 190.762 308.035 190.438 307.871C190.114 307.703 189.86 307.479 189.676 307.197C189.492 306.912 189.401 306.59 189.401 306.23C189.401 305.895 189.463 305.598 189.588 305.34C189.717 305.078 189.905 304.859 190.151 304.684C190.401 304.508 190.705 304.375 191.065 304.285C191.424 304.191 191.834 304.145 192.295 304.145H193.403ZM197.838 307.309L199.561 301.66H201.073L198.53 308.967C198.471 309.123 198.395 309.293 198.301 309.477C198.207 309.66 198.084 309.834 197.932 309.998C197.783 310.166 197.598 310.301 197.375 310.402C197.153 310.508 196.883 310.561 196.567 310.561C196.442 310.561 196.321 310.549 196.203 310.525C196.09 310.506 195.983 310.484 195.881 310.461L195.875 309.383C195.914 309.387 195.961 309.391 196.016 309.395C196.074 309.398 196.121 309.4 196.156 309.4C196.391 309.4 196.586 309.371 196.742 309.312C196.899 309.258 197.026 309.168 197.123 309.043C197.225 308.918 197.311 308.75 197.381 308.539L197.838 307.309ZM196.865 301.66L198.371 306.406L198.623 307.895L197.645 308.146L195.342 301.66H196.865ZM205.438 306.283C205.438 306.143 205.403 306.016 205.332 305.902C205.262 305.785 205.127 305.68 204.928 305.586C204.733 305.492 204.444 305.406 204.061 305.328C203.725 305.254 203.416 305.166 203.135 305.064C202.858 304.959 202.619 304.832 202.42 304.684C202.221 304.535 202.067 304.359 201.957 304.156C201.848 303.953 201.793 303.719 201.793 303.453C201.793 303.195 201.85 302.951 201.963 302.721C202.076 302.49 202.239 302.287 202.449 302.111C202.66 301.936 202.916 301.797 203.217 301.695C203.522 301.594 203.862 301.543 204.237 301.543C204.768 301.543 205.223 301.633 205.602 301.812C205.985 301.988 206.278 302.229 206.481 302.533C206.684 302.834 206.785 303.174 206.785 303.553H205.373C205.373 303.385 205.33 303.229 205.244 303.084C205.162 302.936 205.037 302.816 204.869 302.727C204.701 302.633 204.49 302.586 204.237 302.586C203.994 302.586 203.793 302.625 203.633 302.703C203.477 302.777 203.36 302.875 203.281 302.996C203.207 303.117 203.17 303.25 203.17 303.395C203.17 303.5 203.19 303.596 203.229 303.682C203.272 303.764 203.342 303.84 203.44 303.91C203.537 303.977 203.67 304.039 203.838 304.098C204.01 304.156 204.225 304.213 204.483 304.268C204.967 304.369 205.383 304.5 205.731 304.66C206.082 304.816 206.352 305.02 206.539 305.27C206.727 305.516 206.821 305.828 206.821 306.207C206.821 306.488 206.76 306.746 206.639 306.98C206.522 307.211 206.35 307.412 206.123 307.584C205.897 307.752 205.625 307.883 205.309 307.977C204.996 308.07 204.645 308.117 204.254 308.117C203.68 308.117 203.194 308.016 202.795 307.812C202.397 307.605 202.094 307.342 201.887 307.021C201.684 306.697 201.582 306.361 201.582 306.014H202.948C202.963 306.275 203.035 306.484 203.164 306.641C203.297 306.793 203.461 306.904 203.656 306.975C203.856 307.041 204.061 307.074 204.272 307.074C204.526 307.074 204.739 307.041 204.91 306.975C205.082 306.904 205.213 306.811 205.303 306.693C205.393 306.572 205.438 306.436 205.438 306.283ZM208.074 307.297C208.074 307.078 208.149 306.895 208.297 306.746C208.446 306.594 208.647 306.518 208.901 306.518C209.158 306.518 209.36 306.594 209.504 306.746C209.653 306.895 209.727 307.078 209.727 307.297C209.727 307.516 209.653 307.699 209.504 307.848C209.36 307.996 209.158 308.07 208.901 308.07C208.647 308.07 208.446 307.996 208.297 307.848C208.149 307.699 208.074 307.516 208.074 307.297ZM208.08 302.305C208.08 302.086 208.155 301.902 208.303 301.754C208.451 301.602 208.653 301.525 208.906 301.525C209.164 301.525 209.365 301.602 209.51 301.754C209.658 301.902 209.733 302.086 209.733 302.305C209.733 302.523 209.658 302.707 209.51 302.855C209.365 303.004 209.164 303.078 208.906 303.078C208.653 303.078 208.451 303.004 208.303 302.855C208.155 302.707 208.08 302.523 208.08 302.305ZM215.264 306.887H215.381C215.92 306.887 216.369 306.816 216.729 306.676C217.092 306.531 217.381 306.332 217.596 306.078C217.811 305.824 217.965 305.525 218.059 305.182C218.153 304.838 218.199 304.465 218.199 304.062V302.592C218.199 302.244 218.162 301.939 218.088 301.678C218.018 301.412 217.916 301.191 217.783 301.016C217.655 300.836 217.504 300.701 217.332 300.611C217.164 300.521 216.983 300.477 216.787 300.477C216.573 300.477 216.379 300.525 216.207 300.623C216.039 300.717 215.897 300.848 215.78 301.016C215.666 301.18 215.578 301.373 215.516 301.596C215.457 301.814 215.428 302.049 215.428 302.299C215.428 302.533 215.455 302.76 215.51 302.979C215.569 303.193 215.655 303.385 215.768 303.553C215.881 303.721 216.024 303.854 216.196 303.951C216.367 304.049 216.569 304.098 216.799 304.098C217.018 304.098 217.219 304.057 217.403 303.975C217.586 303.889 217.746 303.773 217.883 303.629C218.02 303.484 218.127 303.322 218.205 303.143C218.283 302.963 218.326 302.779 218.334 302.592L218.873 302.756C218.873 303.053 218.811 303.346 218.686 303.635C218.565 303.92 218.395 304.182 218.176 304.42C217.961 304.654 217.709 304.842 217.42 304.982C217.135 305.123 216.824 305.193 216.489 305.193C216.082 305.193 215.723 305.117 215.41 304.965C215.102 304.809 214.844 304.598 214.637 304.332C214.434 304.066 214.281 303.762 214.18 303.418C214.078 303.074 214.028 302.713 214.028 302.334C214.028 301.924 214.09 301.539 214.215 301.18C214.34 300.82 214.522 300.504 214.76 300.23C214.998 299.953 215.287 299.738 215.627 299.586C215.971 299.43 216.36 299.352 216.793 299.352C217.254 299.352 217.658 299.441 218.006 299.621C218.354 299.801 218.647 300.049 218.885 300.365C219.123 300.682 219.303 301.049 219.424 301.467C219.545 301.885 219.606 302.334 219.606 302.814V303.312C219.606 303.816 219.561 304.303 219.471 304.771C219.381 305.236 219.235 305.668 219.031 306.066C218.832 306.461 218.569 306.809 218.24 307.109C217.916 307.406 217.518 307.639 217.045 307.807C216.576 307.971 216.026 308.053 215.393 308.053H215.264V306.887ZM224.739 299.469L221.416 308.732H220.309L223.637 299.469H224.739ZM229.49 299.439V308H228.078V301.115L225.987 301.824V300.658L229.321 299.439H229.49ZM238.174 306.875V308H232.455V307.033L235.233 304.004C235.537 303.66 235.778 303.363 235.953 303.113C236.129 302.863 236.252 302.639 236.323 302.439C236.397 302.236 236.434 302.039 236.434 301.848C236.434 301.578 236.383 301.342 236.281 301.139C236.184 300.932 236.039 300.77 235.848 300.652C235.656 300.531 235.424 300.471 235.151 300.471C234.834 300.471 234.569 300.539 234.354 300.676C234.139 300.812 233.977 301.002 233.867 301.244C233.758 301.482 233.703 301.756 233.703 302.064H232.291C232.291 301.568 232.405 301.115 232.631 300.705C232.858 300.291 233.186 299.963 233.615 299.721C234.045 299.475 234.563 299.352 235.168 299.352C235.739 299.352 236.223 299.447 236.621 299.639C237.02 299.83 237.323 300.102 237.53 300.453C237.74 300.805 237.846 301.221 237.846 301.701C237.846 301.967 237.803 302.23 237.717 302.492C237.631 302.754 237.508 303.016 237.348 303.277C237.192 303.535 237.006 303.795 236.791 304.057C236.576 304.314 236.34 304.576 236.082 304.842L234.237 306.875H238.174Z" fill="#9A9FA5"/>
</svg>
