<svg width="262" height="329" viewBox="0 0 262 329" fill="none" xmlns="http://www.w3.org/2000/svg">
<rect width="262" height="329" rx="16" fill="white"/>
<rect x="9" y="8" width="243.144" height="210" rx="15" fill="#C2D551"/>
<path d="M36.6201 69.7295L31.1123 87H26.0146L33.9102 65.6719H37.1328L36.6201 69.7295ZM41.1904 87L35.668 69.7295L35.0967 65.6719H38.3633L46.2881 87H41.1904ZM40.9561 79.0605V82.752H29.8379V79.0605H40.9561ZM57.0547 83.4551V64.5H61.6543V87H57.5234L57.0547 83.4551ZM47.1816 79.2656V78.958C47.1816 77.7568 47.3135 76.6631 47.5771 75.6768C47.8506 74.6807 48.2461 73.8262 48.7637 73.1133C49.291 72.3906 49.9404 71.834 50.7119 71.4434C51.4834 71.0527 52.3672 70.8574 53.3633 70.8574C54.2812 70.8574 55.082 71.0625 55.7656 71.4727C56.4492 71.873 57.0303 72.4395 57.5088 73.1719C57.9971 73.8945 58.3926 74.749 58.6953 75.7354C58.998 76.7119 59.2275 77.7715 59.3838 78.9141V79.4414C59.2373 80.5352 59.0078 81.5557 58.6953 82.5029C58.3926 83.4502 57.9971 84.2852 57.5088 85.0078C57.0303 85.7207 56.4443 86.2822 55.751 86.6924C55.0674 87.0928 54.2617 87.293 53.334 87.293C52.3379 87.293 51.4541 87.0928 50.6826 86.6924C49.9209 86.292 49.2812 85.7305 48.7637 85.0078C48.2461 84.2852 47.8506 83.4355 47.5771 82.459C47.3135 81.4824 47.1816 80.418 47.1816 79.2656ZM51.752 78.958V79.2656C51.752 79.8906 51.7959 80.4717 51.8838 81.0088C51.9814 81.5459 52.1377 82.0195 52.3525 82.4297C52.5674 82.8398 52.8506 83.1621 53.2021 83.3965C53.5537 83.6211 53.9834 83.7334 54.4912 83.7334C55.1748 83.7334 55.7363 83.5771 56.1758 83.2646C56.6152 82.9424 56.9473 82.498 57.1719 81.9316C57.3965 81.3652 57.5137 80.7061 57.5234 79.9541V78.416C57.5234 77.791 57.46 77.2295 57.333 76.7314C57.2061 76.2334 57.0156 75.8135 56.7617 75.4717C56.5176 75.1299 56.21 74.8711 55.8389 74.6953C55.4678 74.5098 55.0283 74.417 54.5205 74.417C54.0225 74.417 53.5977 74.5342 53.2461 74.7686C52.8945 74.9932 52.6064 75.3105 52.3818 75.7207C52.167 76.1309 52.0059 76.6143 51.8984 77.1709C51.8008 77.7178 51.752 78.3135 51.752 78.958ZM70.2529 83.7627L73.5635 71.1504H78.3682L73.1094 87H70.2236L70.2529 83.7627ZM68.1143 71.1504L71.4102 83.7773L71.4395 87H68.5537L63.2949 71.1504H68.1143ZM88.2119 83.2207V76.4238C88.2119 75.9453 88.1387 75.5352 87.9922 75.1934C87.8457 74.8516 87.6162 74.583 87.3037 74.3877C86.9912 74.1924 86.5859 74.0947 86.0879 74.0947C85.668 74.0947 85.3018 74.168 84.9893 74.3145C84.6865 74.4609 84.4521 74.6709 84.2861 74.9443C84.1299 75.2178 84.0518 75.5547 84.0518 75.9551H79.4814C79.4814 75.2422 79.6426 74.5781 79.9648 73.9629C80.2871 73.3477 80.7461 72.8057 81.3418 72.3369C81.9473 71.8682 82.6699 71.5068 83.5098 71.2529C84.3496 70.9893 85.292 70.8574 86.3369 70.8574C87.5771 70.8574 88.6807 71.0674 89.6475 71.4873C90.624 71.8975 91.3955 72.5176 91.9619 73.3477C92.5283 74.168 92.8115 75.2031 92.8115 76.4531V83.0889C92.8115 84.0459 92.8652 84.7979 92.9727 85.3447C93.0898 85.8818 93.2559 86.3506 93.4707 86.751V87H88.8564C88.6416 86.541 88.4805 85.9746 88.373 85.3008C88.2656 84.6172 88.2119 83.9238 88.2119 83.2207ZM88.7832 77.332L88.8125 79.8516H86.542C86.0342 79.8516 85.5947 79.915 85.2236 80.042C84.8623 80.1689 84.5693 80.3447 84.3447 80.5693C84.1201 80.7842 83.9541 81.0381 83.8467 81.3311C83.749 81.6143 83.7002 81.9268 83.7002 82.2686C83.7002 82.5908 83.7783 82.8838 83.9346 83.1475C84.0908 83.4014 84.3057 83.6016 84.5791 83.748C84.8525 83.8945 85.1699 83.9678 85.5312 83.9678C86.127 83.9678 86.6348 83.8506 87.0547 83.6162C87.4844 83.3818 87.8164 83.0986 88.0508 82.7666C88.2852 82.4248 88.4023 82.1074 88.4023 81.8145L89.501 83.7188C89.3252 84.1094 89.1104 84.5146 88.8564 84.9346C88.6025 85.3447 88.2803 85.7305 87.8896 86.0918C87.499 86.4434 87.0254 86.7314 86.4688 86.9561C85.9219 87.1807 85.2627 87.293 84.4912 87.293C83.4951 87.293 82.5918 87.0928 81.7812 86.6924C80.9707 86.2822 80.3213 85.7207 79.833 85.0078C79.3545 84.2949 79.1152 83.4746 79.1152 82.5469C79.1152 81.7168 79.2666 80.9795 79.5693 80.335C79.8721 79.6904 80.3262 79.1436 80.9316 78.6943C81.5469 78.2451 82.3184 77.9082 83.2461 77.6836C84.1738 77.4492 85.2578 77.332 86.498 77.332H88.7832ZM100.297 74.5342V87H95.7119V71.1504H100.019L100.297 74.5342ZM99.6963 78.5186L98.5537 78.5479C98.5537 77.3564 98.7002 76.2871 98.9932 75.3398C99.2861 74.3926 99.7012 73.5869 100.238 72.9229C100.785 72.249 101.435 71.7363 102.187 71.3848C102.948 71.0332 103.788 70.8574 104.706 70.8574C105.448 70.8574 106.127 70.9648 106.742 71.1797C107.357 71.3945 107.885 71.7412 108.324 72.2197C108.773 72.6885 109.115 73.3135 109.35 74.0947C109.584 74.8662 109.701 75.8184 109.701 76.9512V87H105.102V76.9365C105.102 76.2725 105.009 75.7598 104.823 75.3984C104.638 75.0371 104.364 74.7832 104.003 74.6367C103.651 74.4902 103.222 74.417 102.714 74.417C102.177 74.417 101.718 74.5244 101.337 74.7393C100.956 74.9443 100.644 75.2324 100.399 75.6035C100.155 75.9746 99.9746 76.4092 99.8574 76.9072C99.75 77.4053 99.6963 77.9424 99.6963 78.5186ZM119.311 83.7334C119.799 83.7334 120.224 83.6406 120.585 83.4551C120.946 83.2695 121.225 83.0107 121.42 82.6787C121.625 82.3369 121.728 81.9268 121.728 81.4482H126.034C126.034 82.6006 125.736 83.6162 125.141 84.4951C124.555 85.374 123.764 86.0625 122.768 86.5605C121.771 87.0488 120.648 87.293 119.398 87.293C118.168 87.293 117.094 87.0928 116.176 86.6924C115.258 86.2822 114.491 85.7109 113.876 84.9785C113.261 84.2461 112.797 83.3965 112.484 82.4297C112.182 81.4531 112.03 80.3984 112.03 79.2656V78.8848C112.03 77.7617 112.182 76.7119 112.484 75.7354C112.797 74.7588 113.261 73.9043 113.876 73.1719C114.491 72.4395 115.253 71.873 116.161 71.4727C117.079 71.0625 118.153 70.8574 119.384 70.8574C120.683 70.8574 121.83 71.1064 122.826 71.6045C123.832 72.1025 124.618 72.8203 125.185 73.7578C125.751 74.6855 126.034 75.8037 126.034 77.1123H121.728C121.728 76.6045 121.635 76.1504 121.449 75.75C121.273 75.3398 121 75.0176 120.629 74.7832C120.268 74.5391 119.818 74.417 119.281 74.417C118.725 74.417 118.266 74.5391 117.904 74.7832C117.553 75.0176 117.284 75.3447 117.099 75.7646C116.913 76.1846 116.786 76.6631 116.718 77.2002C116.649 77.7275 116.615 78.2891 116.615 78.8848V79.2656C116.615 79.8711 116.649 80.4473 116.718 80.9941C116.786 81.5312 116.913 82.0049 117.099 82.415C117.294 82.8252 117.567 83.1475 117.919 83.3818C118.271 83.6162 118.734 83.7334 119.311 83.7334ZM135.775 87.293C134.516 87.293 133.388 87.0928 132.392 86.6924C131.396 86.292 130.551 85.7402 129.857 85.0371C129.174 84.3242 128.651 83.5039 128.29 82.5762C127.929 81.6484 127.748 80.6572 127.748 79.6025V79.0459C127.748 77.8643 127.914 76.7754 128.246 75.7793C128.578 74.7832 129.062 73.9189 129.696 73.1865C130.341 72.4443 131.132 71.873 132.069 71.4727C133.007 71.0625 134.076 70.8574 135.277 70.8574C136.4 70.8574 137.401 71.043 138.28 71.4141C139.159 71.7754 139.901 72.2979 140.507 72.9814C141.112 73.6553 141.571 74.4707 141.884 75.4277C142.206 76.375 142.367 77.4395 142.367 78.6211V80.4961H129.594V77.5518H137.885V77.2002C137.885 76.6436 137.782 76.1553 137.577 75.7354C137.382 75.3154 137.089 74.9932 136.698 74.7686C136.317 74.5342 135.834 74.417 135.248 74.417C134.691 74.417 134.228 74.5342 133.856 74.7686C133.485 75.0029 133.188 75.335 132.963 75.7646C132.748 76.1846 132.592 76.6777 132.494 77.2441C132.396 77.8008 132.348 78.4014 132.348 79.0459V79.6025C132.348 80.2178 132.431 80.7793 132.597 81.2871C132.763 81.7949 133.007 82.2295 133.329 82.5908C133.651 82.9521 134.042 83.2354 134.501 83.4404C134.96 83.6455 135.482 83.748 136.068 83.748C136.791 83.748 137.479 83.6113 138.134 83.3379C138.788 83.0547 139.354 82.6152 139.833 82.0195L141.972 84.4658C141.649 84.9346 141.195 85.3887 140.609 85.8281C140.033 86.2578 139.34 86.6094 138.529 86.8828C137.719 87.1562 136.801 87.293 135.775 87.293ZM153.822 83.4551V64.5H158.422V87H154.291L153.822 83.4551ZM143.949 79.2656V78.958C143.949 77.7568 144.081 76.6631 144.345 75.6768C144.618 74.6807 145.014 73.8262 145.531 73.1133C146.059 72.3906 146.708 71.834 147.479 71.4434C148.251 71.0527 149.135 70.8574 150.131 70.8574C151.049 70.8574 151.85 71.0625 152.533 71.4727C153.217 71.873 153.798 72.4395 154.276 73.1719C154.765 73.8945 155.16 74.749 155.463 75.7354C155.766 76.7119 155.995 77.7715 156.151 78.9141V79.4414C156.005 80.5352 155.775 81.5557 155.463 82.5029C155.16 83.4502 154.765 84.2852 154.276 85.0078C153.798 85.7207 153.212 86.2822 152.519 86.6924C151.835 87.0928 151.029 87.293 150.102 87.293C149.105 87.293 148.222 87.0928 147.45 86.6924C146.688 86.292 146.049 85.7305 145.531 85.0078C145.014 84.2852 144.618 83.4355 144.345 82.459C144.081 81.4824 143.949 80.418 143.949 79.2656ZM148.52 78.958V79.2656C148.52 79.8906 148.563 80.4717 148.651 81.0088C148.749 81.5459 148.905 82.0195 149.12 82.4297C149.335 82.8398 149.618 83.1621 149.97 83.3965C150.321 83.6211 150.751 83.7334 151.259 83.7334C151.942 83.7334 152.504 83.5771 152.943 83.2646C153.383 82.9424 153.715 82.498 153.939 81.9316C154.164 81.3652 154.281 80.7061 154.291 79.9541V78.416C154.291 77.791 154.228 77.2295 154.101 76.7314C153.974 76.2334 153.783 75.8135 153.529 75.4717C153.285 75.1299 152.978 74.8711 152.606 74.6953C152.235 74.5098 151.796 74.417 151.288 74.417C150.79 74.417 150.365 74.5342 150.014 74.7686C149.662 74.9932 149.374 75.3105 149.149 75.7207C148.935 76.1309 148.773 76.6143 148.666 77.1709C148.568 77.7178 148.52 78.3135 148.52 78.958ZM38.8174 116.375C38.8174 116.014 38.7637 115.691 38.6562 115.408C38.5488 115.115 38.3535 114.847 38.0703 114.603C37.7871 114.358 37.3867 114.114 36.8691 113.87C36.3516 113.616 35.6729 113.357 34.833 113.094C33.876 112.781 32.9629 112.43 32.0938 112.039C31.2344 111.639 30.4678 111.175 29.7939 110.647C29.1201 110.12 28.5879 109.505 28.1973 108.802C27.8164 108.099 27.626 107.278 27.626 106.341C27.626 105.433 27.8262 104.612 28.2266 103.88C28.627 103.147 29.1885 102.522 29.9111 102.005C30.6338 101.478 31.4834 101.077 32.46 100.804C33.4365 100.521 34.5107 100.379 35.6826 100.379C37.2451 100.379 38.6172 100.657 39.7988 101.214C40.9902 101.761 41.918 102.532 42.582 103.528C43.2461 104.515 43.5781 105.662 43.5781 106.971H38.832C38.832 106.395 38.71 105.887 38.4658 105.447C38.2314 104.998 37.8701 104.646 37.3818 104.393C36.9033 104.139 36.3027 104.012 35.5801 104.012C34.877 104.012 34.2861 104.119 33.8076 104.334C33.3389 104.539 32.9824 104.822 32.7383 105.184C32.5039 105.545 32.3867 105.94 32.3867 106.37C32.3867 106.712 32.4746 107.024 32.6504 107.308C32.8359 107.581 33.0996 107.84 33.4414 108.084C33.793 108.318 34.2227 108.543 34.7305 108.758C35.2383 108.973 35.8193 109.178 36.4736 109.373C37.6162 109.734 38.627 110.135 39.5059 110.574C40.3945 111.014 41.1416 111.512 41.7471 112.068C42.3525 112.625 42.8066 113.255 43.1094 113.958C43.4219 114.661 43.5781 115.457 43.5781 116.346C43.5781 117.293 43.3926 118.133 43.0215 118.865C42.6602 119.598 42.1328 120.223 41.4395 120.74C40.7559 121.248 39.9355 121.634 38.9785 121.897C38.0215 122.161 36.9521 122.293 35.7705 122.293C34.6963 122.293 33.6367 122.156 32.5918 121.883C31.5469 121.6 30.5996 121.17 29.75 120.594C28.9102 120.018 28.2363 119.285 27.7285 118.396C27.2305 117.498 26.9814 116.434 26.9814 115.203H31.7568C31.7568 115.848 31.8496 116.395 32.0352 116.844C32.2207 117.283 32.4844 117.64 32.8262 117.913C33.1777 118.187 33.6025 118.382 34.1006 118.499C34.5986 118.616 35.1553 118.675 35.7705 118.675C36.4834 118.675 37.0596 118.577 37.499 118.382C37.9482 118.177 38.2803 117.898 38.4951 117.547C38.71 117.195 38.8174 116.805 38.8174 116.375ZM50.7412 109.197V128.094H46.1709V106.15H50.4336L50.7412 109.197ZM60.6289 113.899V114.207C60.6289 115.359 60.4971 116.429 60.2334 117.415C59.9697 118.392 59.5742 119.246 59.0469 119.979C58.5293 120.711 57.8896 121.282 57.1279 121.692C56.3662 122.093 55.4824 122.293 54.4766 122.293C53.5195 122.293 52.6895 122.093 51.9863 121.692C51.293 121.282 50.707 120.716 50.2285 119.993C49.7598 119.261 49.3789 118.426 49.0859 117.488C48.8027 116.541 48.583 115.53 48.4268 114.456V113.855C48.583 112.713 48.8076 111.653 49.1006 110.677C49.3936 109.7 49.7744 108.855 50.2432 108.143C50.7119 107.42 51.293 106.858 51.9863 106.458C52.6797 106.058 53.5049 105.857 54.4619 105.857C55.458 105.857 56.3418 106.048 57.1133 106.429C57.8848 106.81 58.5293 107.356 59.0469 108.069C59.5742 108.772 59.9697 109.617 60.2334 110.604C60.4971 111.59 60.6289 112.688 60.6289 113.899ZM56.0439 114.207V113.899C56.0439 113.255 55.9951 112.664 55.8975 112.127C55.7998 111.58 55.6436 111.106 55.4287 110.706C55.2139 110.296 54.9307 109.979 54.5791 109.754C54.2275 109.529 53.7979 109.417 53.29 109.417C52.7432 109.417 52.2793 109.505 51.8984 109.681C51.5176 109.856 51.21 110.115 50.9756 110.457C50.7412 110.789 50.5703 111.199 50.4629 111.688C50.3652 112.176 50.3115 112.732 50.3018 113.357V114.969C50.3115 115.701 50.4141 116.355 50.6094 116.932C50.8145 117.498 51.1318 117.942 51.5615 118.265C52.001 118.577 52.5869 118.733 53.3193 118.733C53.8369 118.733 54.2666 118.621 54.6084 118.396C54.96 118.162 55.2383 117.835 55.4434 117.415C55.6582 116.995 55.8096 116.512 55.8975 115.965C55.9951 115.418 56.0439 114.832 56.0439 114.207ZM71.4541 118.221V111.424C71.4541 110.945 71.3809 110.535 71.2344 110.193C71.0879 109.852 70.8584 109.583 70.5459 109.388C70.2334 109.192 69.8281 109.095 69.3301 109.095C68.9102 109.095 68.5439 109.168 68.2314 109.314C67.9287 109.461 67.6943 109.671 67.5283 109.944C67.3721 110.218 67.2939 110.555 67.2939 110.955H62.7236C62.7236 110.242 62.8848 109.578 63.207 108.963C63.5293 108.348 63.9883 107.806 64.584 107.337C65.1895 106.868 65.9121 106.507 66.752 106.253C67.5918 105.989 68.5342 105.857 69.5791 105.857C70.8193 105.857 71.9229 106.067 72.8896 106.487C73.8662 106.897 74.6377 107.518 75.2041 108.348C75.7705 109.168 76.0537 110.203 76.0537 111.453V118.089C76.0537 119.046 76.1074 119.798 76.2148 120.345C76.332 120.882 76.498 121.351 76.7129 121.751V122H72.0986C71.8838 121.541 71.7227 120.975 71.6152 120.301C71.5078 119.617 71.4541 118.924 71.4541 118.221ZM72.0254 112.332L72.0547 114.852H69.7842C69.2764 114.852 68.8369 114.915 68.4658 115.042C68.1045 115.169 67.8115 115.345 67.5869 115.569C67.3623 115.784 67.1963 116.038 67.0889 116.331C66.9912 116.614 66.9424 116.927 66.9424 117.269C66.9424 117.591 67.0205 117.884 67.1768 118.147C67.333 118.401 67.5479 118.602 67.8213 118.748C68.0947 118.895 68.4121 118.968 68.7734 118.968C69.3691 118.968 69.877 118.851 70.2969 118.616C70.7266 118.382 71.0586 118.099 71.293 117.767C71.5273 117.425 71.6445 117.107 71.6445 116.814L72.7432 118.719C72.5674 119.109 72.3525 119.515 72.0986 119.935C71.8447 120.345 71.5225 120.73 71.1318 121.092C70.7412 121.443 70.2676 121.731 69.7109 121.956C69.1641 122.181 68.5049 122.293 67.7334 122.293C66.7373 122.293 65.834 122.093 65.0234 121.692C64.2129 121.282 63.5635 120.721 63.0752 120.008C62.5967 119.295 62.3574 118.475 62.3574 117.547C62.3574 116.717 62.5088 115.979 62.8115 115.335C63.1143 114.69 63.5684 114.144 64.1738 113.694C64.7891 113.245 65.5605 112.908 66.4883 112.684C67.416 112.449 68.5 112.332 69.7402 112.332H72.0254ZM83.5391 109.534V122H78.9541V106.15H83.2607L83.5391 109.534ZM82.9385 113.519L81.7959 113.548C81.7959 112.356 81.9424 111.287 82.2354 110.34C82.5283 109.393 82.9434 108.587 83.4805 107.923C84.0273 107.249 84.6768 106.736 85.4287 106.385C86.1904 106.033 87.0303 105.857 87.9482 105.857C88.6904 105.857 89.3691 105.965 89.9844 106.18C90.5996 106.395 91.127 106.741 91.5664 107.22C92.0156 107.688 92.3574 108.313 92.5918 109.095C92.8262 109.866 92.9434 110.818 92.9434 111.951V122H88.3438V111.937C88.3438 111.272 88.251 110.76 88.0654 110.398C87.8799 110.037 87.6064 109.783 87.2451 109.637C86.8936 109.49 86.4639 109.417 85.9561 109.417C85.4189 109.417 84.96 109.524 84.5791 109.739C84.1982 109.944 83.8857 110.232 83.6416 110.604C83.3975 110.975 83.2168 111.409 83.0996 111.907C82.9922 112.405 82.9385 112.942 82.9385 113.519ZM100.751 106.15V122H96.166V106.15H100.751ZM95.8877 102.049C95.8877 101.385 96.1221 100.843 96.5908 100.423C97.0596 99.9932 97.6748 99.7783 98.4365 99.7783C99.1982 99.7783 99.8135 99.9932 100.282 100.423C100.761 100.843 101 101.385 101 102.049C101 102.703 100.761 103.245 100.282 103.675C99.8135 104.095 99.1982 104.305 98.4365 104.305C97.6748 104.305 97.0596 104.095 96.5908 103.675C96.1221 103.245 95.8877 102.703 95.8877 102.049ZM112.484 117.591C112.484 117.298 112.392 117.039 112.206 116.814C112.03 116.59 111.708 116.385 111.239 116.199C110.78 116.014 110.131 115.828 109.291 115.643C108.5 115.477 107.763 115.262 107.079 114.998C106.396 114.725 105.8 114.397 105.292 114.017C104.784 113.626 104.389 113.167 104.105 112.64C103.822 112.103 103.681 111.492 103.681 110.809C103.681 110.145 103.822 109.515 104.105 108.919C104.398 108.323 104.818 107.796 105.365 107.337C105.922 106.878 106.596 106.517 107.387 106.253C108.188 105.989 109.096 105.857 110.111 105.857C111.508 105.857 112.714 106.077 113.729 106.517C114.745 106.946 115.526 107.552 116.073 108.333C116.62 109.104 116.894 109.988 116.894 110.984H112.323C112.323 110.574 112.245 110.218 112.089 109.915C111.933 109.612 111.693 109.378 111.371 109.212C111.049 109.036 110.624 108.948 110.097 108.948C109.687 108.948 109.325 109.021 109.013 109.168C108.71 109.305 108.471 109.495 108.295 109.739C108.129 109.983 108.046 110.267 108.046 110.589C108.046 110.813 108.095 111.019 108.192 111.204C108.3 111.38 108.461 111.546 108.676 111.702C108.9 111.849 109.188 111.98 109.54 112.098C109.901 112.215 110.341 112.327 110.858 112.435C111.962 112.64 112.968 112.928 113.876 113.299C114.794 113.67 115.526 114.183 116.073 114.837C116.63 115.491 116.908 116.355 116.908 117.43C116.908 118.133 116.747 118.777 116.425 119.363C116.112 119.949 115.658 120.462 115.062 120.901C114.467 121.341 113.754 121.683 112.924 121.927C112.094 122.171 111.156 122.293 110.111 122.293C108.617 122.293 107.353 122.024 106.317 121.487C105.282 120.95 104.501 120.276 103.974 119.466C103.456 118.646 103.197 117.806 103.197 116.946H107.489C107.509 117.474 107.641 117.903 107.885 118.235C108.139 118.567 108.466 118.812 108.866 118.968C109.267 119.114 109.716 119.188 110.214 119.188C110.712 119.188 111.127 119.119 111.459 118.982C111.791 118.846 112.045 118.66 112.221 118.426C112.396 118.182 112.484 117.903 112.484 117.591ZM123.925 99.5V122H119.354V99.5H123.925ZM123.324 113.519L122.182 113.548C122.182 112.435 122.318 111.414 122.592 110.486C122.875 109.549 123.275 108.733 123.793 108.04C124.311 107.347 124.931 106.81 125.653 106.429C126.386 106.048 127.191 105.857 128.07 105.857C128.852 105.857 129.564 105.97 130.209 106.194C130.854 106.419 131.41 106.775 131.879 107.264C132.348 107.752 132.709 108.392 132.963 109.183C133.217 109.974 133.344 110.936 133.344 112.068V122H128.744V112.039C128.744 111.365 128.646 110.838 128.451 110.457C128.266 110.076 127.992 109.808 127.631 109.651C127.279 109.495 126.85 109.417 126.342 109.417C125.746 109.417 125.253 109.524 124.862 109.739C124.472 109.944 124.164 110.232 123.939 110.604C123.715 110.975 123.554 111.409 123.456 111.907C123.368 112.405 123.324 112.942 123.324 113.519ZM44.9404 145.735V154.334C44.5889 154.734 44.0518 155.164 43.3291 155.623C42.6162 156.082 41.7031 156.478 40.5898 156.81C39.4766 157.132 38.1484 157.293 36.6055 157.293C35.209 157.293 33.9395 157.068 32.7969 156.619C31.6543 156.16 30.6729 155.491 29.8525 154.612C29.0322 153.724 28.3975 152.64 27.9482 151.36C27.5088 150.081 27.2891 148.616 27.2891 146.966V145.706C27.2891 144.056 27.5088 142.591 27.9482 141.312C28.3877 140.032 29.0078 138.953 29.8086 138.074C30.6094 137.186 31.5615 136.512 32.665 136.053C33.7686 135.594 34.9893 135.364 36.3271 135.364C38.2314 135.364 39.7891 135.672 41 136.287C42.2109 136.893 43.1289 137.732 43.7539 138.807C44.3887 139.881 44.7793 141.116 44.9258 142.513H40.3262C40.2285 141.8 40.0332 141.185 39.7402 140.667C39.457 140.149 39.0518 139.754 38.5244 139.48C37.9971 139.197 37.3135 139.056 36.4736 139.056C35.7998 139.056 35.1895 139.197 34.6426 139.48C34.1055 139.754 33.6514 140.169 33.2803 140.726C32.9092 141.282 32.626 141.976 32.4307 142.806C32.2354 143.626 32.1377 144.583 32.1377 145.677V146.966C32.1377 148.06 32.2354 149.021 32.4307 149.852C32.6357 150.682 32.9336 151.375 33.3242 151.932C33.7148 152.479 34.208 152.894 34.8037 153.177C35.4092 153.46 36.1123 153.602 36.9131 153.602C37.5381 153.602 38.0654 153.553 38.4951 153.455C38.9248 153.348 39.2764 153.216 39.5498 153.06C39.8232 152.894 40.0283 152.742 40.165 152.605V149.061H36.3711V145.735H44.9404ZM52.5576 144.842V157H47.9873V141.15H52.2793L52.5576 144.842ZM57.2891 141.033L57.2158 145.296C57.0205 145.267 56.7666 145.242 56.4541 145.223C56.1416 145.193 55.873 145.179 55.6484 145.179C55.0625 145.179 54.5547 145.252 54.125 145.398C53.7051 145.535 53.3535 145.74 53.0703 146.014C52.7969 146.287 52.5918 146.629 52.4551 147.039C52.3184 147.439 52.25 147.903 52.25 148.431L51.3857 148.006C51.3857 146.961 51.4883 146.004 51.6934 145.135C51.8984 144.266 52.1963 143.514 52.5869 142.879C52.9775 142.234 53.4561 141.736 54.0225 141.385C54.5889 141.033 55.2334 140.857 55.9561 140.857C56.1904 140.857 56.4297 140.872 56.6738 140.901C56.918 140.931 57.123 140.975 57.2891 141.033ZM67.0889 153.221V146.424C67.0889 145.945 67.0156 145.535 66.8691 145.193C66.7227 144.852 66.4932 144.583 66.1807 144.388C65.8682 144.192 65.4629 144.095 64.9648 144.095C64.5449 144.095 64.1787 144.168 63.8662 144.314C63.5635 144.461 63.3291 144.671 63.1631 144.944C63.0068 145.218 62.9287 145.555 62.9287 145.955H58.3584C58.3584 145.242 58.5195 144.578 58.8418 143.963C59.1641 143.348 59.623 142.806 60.2188 142.337C60.8242 141.868 61.5469 141.507 62.3867 141.253C63.2266 140.989 64.1689 140.857 65.2139 140.857C66.4541 140.857 67.5576 141.067 68.5244 141.487C69.501 141.897 70.2725 142.518 70.8389 143.348C71.4053 144.168 71.6885 145.203 71.6885 146.453V153.089C71.6885 154.046 71.7422 154.798 71.8496 155.345C71.9668 155.882 72.1328 156.351 72.3477 156.751V157H67.7334C67.5186 156.541 67.3574 155.975 67.25 155.301C67.1426 154.617 67.0889 153.924 67.0889 153.221ZM67.6602 147.332L67.6895 149.852H65.4189C64.9111 149.852 64.4717 149.915 64.1006 150.042C63.7393 150.169 63.4463 150.345 63.2217 150.569C62.9971 150.784 62.8311 151.038 62.7236 151.331C62.626 151.614 62.5771 151.927 62.5771 152.269C62.5771 152.591 62.6553 152.884 62.8115 153.147C62.9678 153.401 63.1826 153.602 63.4561 153.748C63.7295 153.895 64.0469 153.968 64.4082 153.968C65.0039 153.968 65.5117 153.851 65.9316 153.616C66.3613 153.382 66.6934 153.099 66.9277 152.767C67.1621 152.425 67.2793 152.107 67.2793 151.814L68.3779 153.719C68.2021 154.109 67.9873 154.515 67.7334 154.935C67.4795 155.345 67.1572 155.73 66.7666 156.092C66.376 156.443 65.9023 156.731 65.3457 156.956C64.7988 157.181 64.1396 157.293 63.3682 157.293C62.3721 157.293 61.4688 157.093 60.6582 156.692C59.8477 156.282 59.1982 155.721 58.71 155.008C58.2314 154.295 57.9922 153.475 57.9922 152.547C57.9922 151.717 58.1436 150.979 58.4463 150.335C58.749 149.69 59.2031 149.144 59.8086 148.694C60.4238 148.245 61.1953 147.908 62.123 147.684C63.0508 147.449 64.1348 147.332 65.375 147.332H67.6602ZM79.2764 144.476V157H74.7061V141.15H78.998L79.2764 144.476ZM78.6904 148.519L77.5332 148.548C77.5332 147.435 77.665 146.414 77.9287 145.486C78.2021 144.549 78.5977 143.733 79.1152 143.04C79.6328 142.347 80.2725 141.81 81.0342 141.429C81.8057 141.048 82.6943 140.857 83.7002 140.857C84.4033 140.857 85.043 140.965 85.6191 141.18C86.1953 141.385 86.6885 141.712 87.0986 142.161C87.5186 142.601 87.8408 143.177 88.0654 143.89C88.29 144.593 88.4023 145.438 88.4023 146.424V157H83.832V146.98C83.832 146.277 83.7441 145.745 83.5684 145.384C83.4023 145.013 83.1582 144.759 82.8359 144.622C82.5137 144.485 82.1279 144.417 81.6787 144.417C81.1904 144.417 80.7559 144.524 80.375 144.739C80.0039 144.944 79.6914 145.232 79.4375 145.604C79.1836 145.975 78.9932 146.409 78.8662 146.907C78.749 147.405 78.6904 147.942 78.6904 148.519ZM87.9336 148.284L86.4834 148.401C86.4834 147.327 86.6104 146.331 86.8643 145.413C87.1182 144.495 87.499 143.699 88.0068 143.025C88.5146 142.342 89.1445 141.81 89.8965 141.429C90.6582 141.048 91.542 140.857 92.5479 140.857C93.29 140.857 93.9639 140.965 94.5693 141.18C95.1846 141.395 95.7119 141.741 96.1514 142.22C96.6006 142.698 96.9473 143.328 97.1914 144.109C97.4355 144.881 97.5576 145.828 97.5576 146.951V157H92.958V146.951C92.958 146.258 92.8701 145.73 92.6943 145.369C92.5283 145.008 92.2842 144.759 91.9619 144.622C91.6494 144.485 91.2734 144.417 90.834 144.417C90.3457 144.417 89.9209 144.52 89.5596 144.725C89.1982 144.92 88.8955 145.193 88.6514 145.545C88.4072 145.887 88.2266 146.292 88.1094 146.761C87.9922 147.229 87.9336 147.737 87.9336 148.284ZM105.204 144.476V157H100.634V141.15H104.926L105.204 144.476ZM104.618 148.519L103.461 148.548C103.461 147.435 103.593 146.414 103.856 145.486C104.13 144.549 104.525 143.733 105.043 143.04C105.561 142.347 106.2 141.81 106.962 141.429C107.733 141.048 108.622 140.857 109.628 140.857C110.331 140.857 110.971 140.965 111.547 141.18C112.123 141.385 112.616 141.712 113.026 142.161C113.446 142.601 113.769 143.177 113.993 143.89C114.218 144.593 114.33 145.438 114.33 146.424V157H109.76V146.98C109.76 146.277 109.672 145.745 109.496 145.384C109.33 145.013 109.086 144.759 108.764 144.622C108.441 144.485 108.056 144.417 107.606 144.417C107.118 144.417 106.684 144.524 106.303 144.739C105.932 144.944 105.619 145.232 105.365 145.604C105.111 145.975 104.921 146.409 104.794 146.907C104.677 147.405 104.618 147.942 104.618 148.519ZM113.861 148.284L112.411 148.401C112.411 147.327 112.538 146.331 112.792 145.413C113.046 144.495 113.427 143.699 113.935 143.025C114.442 142.342 115.072 141.81 115.824 141.429C116.586 141.048 117.47 140.857 118.476 140.857C119.218 140.857 119.892 140.965 120.497 141.18C121.112 141.395 121.64 141.741 122.079 142.22C122.528 142.698 122.875 143.328 123.119 144.109C123.363 144.881 123.485 145.828 123.485 146.951V157H118.886V146.951C118.886 146.258 118.798 145.73 118.622 145.369C118.456 145.008 118.212 144.759 117.89 144.622C117.577 144.485 117.201 144.417 116.762 144.417C116.273 144.417 115.849 144.52 115.487 144.725C115.126 144.92 114.823 145.193 114.579 145.545C114.335 145.887 114.154 146.292 114.037 146.761C113.92 147.229 113.861 147.737 113.861 148.284ZM134.94 153.221V146.424C134.94 145.945 134.867 145.535 134.721 145.193C134.574 144.852 134.345 144.583 134.032 144.388C133.72 144.192 133.314 144.095 132.816 144.095C132.396 144.095 132.03 144.168 131.718 144.314C131.415 144.461 131.181 144.671 131.015 144.944C130.858 145.218 130.78 145.555 130.78 145.955H126.21C126.21 145.242 126.371 144.578 126.693 143.963C127.016 143.348 127.475 142.806 128.07 142.337C128.676 141.868 129.398 141.507 130.238 141.253C131.078 140.989 132.021 140.857 133.065 140.857C134.306 140.857 135.409 141.067 136.376 141.487C137.353 141.897 138.124 142.518 138.69 143.348C139.257 144.168 139.54 145.203 139.54 146.453V153.089C139.54 154.046 139.594 154.798 139.701 155.345C139.818 155.882 139.984 156.351 140.199 156.751V157H135.585C135.37 156.541 135.209 155.975 135.102 155.301C134.994 154.617 134.94 153.924 134.94 153.221ZM135.512 147.332L135.541 149.852H133.271C132.763 149.852 132.323 149.915 131.952 150.042C131.591 150.169 131.298 150.345 131.073 150.569C130.849 150.784 130.683 151.038 130.575 151.331C130.478 151.614 130.429 151.927 130.429 152.269C130.429 152.591 130.507 152.884 130.663 153.147C130.819 153.401 131.034 153.602 131.308 153.748C131.581 153.895 131.898 153.968 132.26 153.968C132.855 153.968 133.363 153.851 133.783 153.616C134.213 153.382 134.545 153.099 134.779 152.767C135.014 152.425 135.131 152.107 135.131 151.814L136.229 153.719C136.054 154.109 135.839 154.515 135.585 154.935C135.331 155.345 135.009 155.73 134.618 156.092C134.228 156.443 133.754 156.731 133.197 156.956C132.65 157.181 131.991 157.293 131.22 157.293C130.224 157.293 129.32 157.093 128.51 156.692C127.699 156.282 127.05 155.721 126.562 155.008C126.083 154.295 125.844 153.475 125.844 152.547C125.844 151.717 125.995 150.979 126.298 150.335C126.601 149.69 127.055 149.144 127.66 148.694C128.275 148.245 129.047 147.908 129.975 147.684C130.902 147.449 131.986 147.332 133.227 147.332H135.512ZM147.128 144.842V157H142.558V141.15H146.85L147.128 144.842ZM151.859 141.033L151.786 145.296C151.591 145.267 151.337 145.242 151.024 145.223C150.712 145.193 150.443 145.179 150.219 145.179C149.633 145.179 149.125 145.252 148.695 145.398C148.275 145.535 147.924 145.74 147.641 146.014C147.367 146.287 147.162 146.629 147.025 147.039C146.889 147.439 146.82 147.903 146.82 148.431L145.956 148.006C145.956 146.961 146.059 146.004 146.264 145.135C146.469 144.266 146.767 143.514 147.157 142.879C147.548 142.234 148.026 141.736 148.593 141.385C149.159 141.033 149.804 140.857 150.526 140.857C150.761 140.857 151 140.872 151.244 140.901C151.488 140.931 151.693 140.975 151.859 141.033Z" fill="#313134"/>
<rect x="19" y="19" width="83.0732" height="25" rx="12.5" fill="white"/>
<path d="M28.9851 26.4688H30.2976L32.7644 33.0488L35.2253 26.4688H36.5378L33.28 35H32.2371L28.9851 26.4688ZM28.3875 26.4688H29.6355L29.8523 32.1641V35H28.3875V26.4688ZM35.8875 26.4688H37.1414V35H35.6707V32.1641L35.8875 26.4688ZM42.321 33.7285V30.7051C42.321 30.4785 42.28 30.2832 42.198 30.1191C42.116 29.9551 41.991 29.8281 41.823 29.7383C41.6589 29.6484 41.4519 29.6035 41.2019 29.6035C40.9714 29.6035 40.7722 29.6426 40.6042 29.7207C40.4363 29.7988 40.3054 29.9043 40.2117 30.0371C40.1179 30.1699 40.071 30.3203 40.071 30.4883H38.6648C38.6648 30.2383 38.7253 29.9961 38.8464 29.7617C38.9675 29.5273 39.1433 29.3184 39.3738 29.1348C39.6042 28.9512 39.8796 28.8066 40.2 28.7012C40.5203 28.5957 40.8796 28.543 41.2781 28.543C41.7546 28.543 42.1765 28.623 42.5437 28.7832C42.9148 28.9434 43.2058 29.1855 43.4167 29.5098C43.6316 29.8301 43.739 30.2324 43.739 30.7168V33.5352C43.739 33.8242 43.7585 34.084 43.7976 34.3145C43.8406 34.541 43.9011 34.7383 43.9792 34.9062V35H42.532C42.4656 34.8477 42.4128 34.6543 42.3738 34.4199C42.3386 34.1816 42.321 33.9512 42.321 33.7285ZM42.5261 31.1445L42.5378 32.0176H41.5242C41.2625 32.0176 41.032 32.043 40.8328 32.0938C40.6335 32.1406 40.4675 32.2109 40.3347 32.3047C40.2019 32.3984 40.1023 32.5117 40.0359 32.6445C39.9695 32.7773 39.9363 32.9277 39.9363 33.0957C39.9363 33.2637 39.9753 33.418 40.0535 33.5586C40.1316 33.6953 40.2449 33.8027 40.3933 33.8809C40.5457 33.959 40.7292 33.998 40.9441 33.998C41.2332 33.998 41.4851 33.9395 41.7 33.8223C41.9187 33.7012 42.0906 33.5547 42.2156 33.3828C42.3406 33.207 42.407 33.041 42.4148 32.8848L42.8718 33.5117C42.825 33.6719 42.7449 33.8438 42.6316 34.0273C42.5183 34.2109 42.3699 34.3867 42.1863 34.5547C42.0066 34.7188 41.7898 34.8535 41.5359 34.959C41.2859 35.0645 40.9968 35.1172 40.6687 35.1172C40.2546 35.1172 39.8855 35.0352 39.5613 34.8711C39.2371 34.7031 38.9832 34.4785 38.7996 34.1973C38.616 33.9121 38.5242 33.5898 38.5242 33.2305C38.5242 32.8945 38.5867 32.5977 38.7117 32.3398C38.8406 32.0781 39.0281 31.8594 39.2742 31.6836C39.5242 31.5078 39.8289 31.375 40.1882 31.2852C40.5476 31.1914 40.9578 31.1445 41.4187 31.1445H42.5261ZM48.7722 33.2832C48.7722 33.1426 48.7371 33.0156 48.6667 32.9023C48.5964 32.7852 48.4617 32.6797 48.2625 32.5859C48.0671 32.4922 47.7781 32.4062 47.3953 32.3281C47.0593 32.2539 46.7507 32.166 46.4695 32.0645C46.1921 31.959 45.9539 31.832 45.7546 31.6836C45.5554 31.5352 45.4011 31.3594 45.2917 31.1562C45.1824 30.9531 45.1277 30.7188 45.1277 30.4531C45.1277 30.1953 45.1843 29.9512 45.2976 29.7207C45.4109 29.4902 45.573 29.2871 45.7839 29.1113C45.9949 28.9355 46.2507 28.7969 46.5515 28.6953C46.8562 28.5938 47.196 28.543 47.571 28.543C48.1023 28.543 48.5574 28.6328 48.9363 28.8125C49.3191 28.9883 49.6121 29.2285 49.8152 29.5332C50.0183 29.834 50.1199 30.1738 50.1199 30.5527H48.7078C48.7078 30.3848 48.6648 30.2285 48.5789 30.084C48.4968 29.9355 48.3718 29.8164 48.2039 29.7266C48.0359 29.6328 47.825 29.5859 47.571 29.5859C47.3289 29.5859 47.1277 29.625 46.9675 29.7031C46.8113 29.7773 46.6941 29.875 46.616 29.9961C46.5417 30.1172 46.5046 30.25 46.5046 30.3945C46.5046 30.5 46.5242 30.5957 46.5632 30.6816C46.6062 30.7637 46.6765 30.8398 46.7742 30.9102C46.8718 30.9766 47.0046 31.0391 47.1726 31.0977C47.3445 31.1562 47.5593 31.2129 47.8171 31.2676C48.3015 31.3691 48.7175 31.5 49.0652 31.6602C49.4167 31.8164 49.6863 32.0195 49.8738 32.2695C50.0613 32.5156 50.155 32.8281 50.155 33.207C50.155 33.4883 50.0945 33.7461 49.9734 33.9805C49.8562 34.2109 49.6843 34.4121 49.4578 34.584C49.2312 34.752 48.9597 34.8828 48.6433 34.9766C48.3308 35.0703 47.9792 35.1172 47.5886 35.1172C47.0144 35.1172 46.5281 35.0156 46.1296 34.8125C45.7312 34.6055 45.4285 34.3418 45.2214 34.0215C45.0183 33.6973 44.9167 33.3613 44.9167 33.0137H46.282C46.2976 33.2754 46.3699 33.4844 46.4988 33.6406C46.6316 33.793 46.7957 33.9043 46.991 33.9746C47.1902 34.041 47.3953 34.0742 47.6062 34.0742C47.8601 34.0742 48.073 34.041 48.2449 33.9746C48.4167 33.9043 48.5476 33.8105 48.6375 33.6934C48.7273 33.5723 48.7722 33.4355 48.7722 33.2832ZM54.2976 28.6602V29.6914H50.7234V28.6602H54.2976ZM51.7546 27.1074H53.1667V33.248C53.1667 33.4434 53.1941 33.5938 53.2488 33.6992C53.3074 33.8008 53.3875 33.8691 53.489 33.9043C53.5906 33.9395 53.7097 33.957 53.8464 33.957C53.9441 33.957 54.0378 33.9512 54.1277 33.9395C54.2175 33.9277 54.2898 33.916 54.3445 33.9043L54.3503 34.9824C54.2332 35.0176 54.0964 35.0488 53.9402 35.0762C53.7878 35.1035 53.6121 35.1172 53.4128 35.1172C53.0886 35.1172 52.8015 35.0605 52.5515 34.9473C52.3015 34.8301 52.1062 34.6406 51.9656 34.3789C51.825 34.1172 51.7546 33.7695 51.7546 33.3359V27.1074ZM58.1824 35.1172C57.7136 35.1172 57.2898 35.041 56.9109 34.8887C56.5359 34.7324 56.2156 34.5156 55.95 34.2383C55.6882 33.9609 55.4871 33.6348 55.3464 33.2598C55.2058 32.8848 55.1355 32.4805 55.1355 32.0469V31.8125C55.1355 31.3164 55.2078 30.8672 55.3523 30.4648C55.4968 30.0625 55.698 29.7188 55.9558 29.4336C56.2136 29.1445 56.5183 28.9238 56.8699 28.7715C57.2214 28.6191 57.6023 28.543 58.0125 28.543C58.4656 28.543 58.8621 28.6191 59.2019 28.7715C59.5417 28.9238 59.823 29.1387 60.0457 29.416C60.2722 29.6895 60.4402 30.0156 60.5496 30.3945C60.6628 30.7734 60.7195 31.1914 60.7195 31.6484V32.252H55.821V31.2383H59.325V31.127C59.3171 30.873 59.2664 30.6348 59.1726 30.4121C59.0828 30.1895 58.9441 30.0098 58.7566 29.873C58.5691 29.7363 58.3191 29.668 58.0066 29.668C57.7722 29.668 57.5632 29.7188 57.3796 29.8203C57.2 29.918 57.0496 30.0605 56.9285 30.248C56.8074 30.4355 56.7136 30.6621 56.6472 30.9277C56.5847 31.1895 56.5535 31.4844 56.5535 31.8125V32.0469C56.5535 32.3242 56.5906 32.582 56.6648 32.8203C56.7429 33.0547 56.8562 33.2598 57.0046 33.4355C57.1531 33.6113 57.3328 33.75 57.5437 33.8516C57.7546 33.9492 57.9949 33.998 58.2644 33.998C58.6042 33.998 58.907 33.9297 59.1726 33.793C59.4382 33.6562 59.6687 33.4629 59.864 33.2129L60.6082 33.9336C60.4714 34.1328 60.2937 34.3242 60.075 34.5078C59.8562 34.6875 59.5886 34.834 59.2722 34.9473C58.9597 35.0605 58.5964 35.1172 58.1824 35.1172ZM63.239 29.8672V35H61.8269V28.6602H63.1746L63.239 29.8672ZM65.1785 28.6191L65.1667 29.9316C65.0808 29.916 64.9871 29.9043 64.8855 29.8965C64.7878 29.8887 64.6902 29.8848 64.5925 29.8848C64.3503 29.8848 64.1375 29.9199 63.9539 29.9902C63.7703 30.0566 63.616 30.1543 63.491 30.2832C63.3699 30.4082 63.2761 30.5605 63.2097 30.7402C63.1433 30.9199 63.1042 31.1211 63.0925 31.3438L62.7703 31.3672C62.7703 30.9688 62.8093 30.5996 62.8875 30.2598C62.9656 29.9199 63.0828 29.6211 63.239 29.3633C63.3992 29.1055 63.5984 28.9043 63.8367 28.7598C64.0789 28.6152 64.3582 28.543 64.6746 28.543C64.7605 28.543 64.8523 28.5508 64.95 28.5664C65.0515 28.582 65.1277 28.5996 65.1785 28.6191Z" fill="#303030"/>
<rect x="80.7723" y="31" width="2.13008" height="6" fill="#FFA09C"/>
<rect x="85.0325" y="28" width="2.13008" height="9" fill="#FFA09C"/>
<rect x="89.2926" y="25" width="2.13008" height="12" fill="#FFA09C"/>
<path d="M179.906 200.223H181.371C181.324 200.781 181.168 201.279 180.902 201.717C180.637 202.15 180.264 202.492 179.783 202.742C179.303 202.992 178.719 203.117 178.031 203.117C177.504 203.117 177.029 203.023 176.607 202.836C176.186 202.645 175.824 202.375 175.523 202.027C175.223 201.676 174.992 201.252 174.832 200.756C174.676 200.26 174.598 199.705 174.598 199.092V198.383C174.598 197.77 174.678 197.215 174.838 196.719C175.002 196.223 175.236 195.799 175.541 195.447C175.846 195.092 176.211 194.82 176.637 194.633C177.066 194.445 177.549 194.352 178.084 194.352C178.764 194.352 179.338 194.477 179.807 194.727C180.275 194.977 180.639 195.322 180.896 195.764C181.158 196.205 181.318 196.711 181.377 197.281H179.912C179.873 196.914 179.787 196.6 179.654 196.338C179.525 196.076 179.334 195.877 179.08 195.74C178.826 195.6 178.494 195.529 178.084 195.529C177.748 195.529 177.455 195.592 177.205 195.717C176.955 195.842 176.746 196.025 176.578 196.268C176.41 196.51 176.283 196.809 176.197 197.164C176.115 197.516 176.074 197.918 176.074 198.371V199.092C176.074 199.521 176.111 199.912 176.186 200.264C176.264 200.611 176.381 200.91 176.537 201.16C176.697 201.41 176.9 201.604 177.146 201.74C177.393 201.877 177.688 201.945 178.031 201.945C178.449 201.945 178.787 201.879 179.045 201.746C179.307 201.613 179.504 201.42 179.637 201.166C179.773 200.908 179.863 200.594 179.906 200.223ZM186.141 201.729V198.705C186.141 198.479 186.1 198.283 186.018 198.119C185.936 197.955 185.811 197.828 185.643 197.738C185.479 197.648 185.271 197.604 185.021 197.604C184.791 197.604 184.592 197.643 184.424 197.721C184.256 197.799 184.125 197.904 184.031 198.037C183.938 198.17 183.891 198.32 183.891 198.488H182.484C182.484 198.238 182.545 197.996 182.666 197.762C182.787 197.527 182.963 197.318 183.193 197.135C183.424 196.951 183.699 196.807 184.02 196.701C184.34 196.596 184.699 196.543 185.098 196.543C185.574 196.543 185.996 196.623 186.363 196.783C186.734 196.943 187.025 197.186 187.236 197.51C187.451 197.83 187.559 198.232 187.559 198.717V201.535C187.559 201.824 187.578 202.084 187.617 202.314C187.66 202.541 187.721 202.738 187.799 202.906V203H186.352C186.285 202.848 186.232 202.654 186.193 202.42C186.158 202.182 186.141 201.951 186.141 201.729ZM186.346 199.145L186.357 200.018H185.344C185.082 200.018 184.852 200.043 184.652 200.094C184.453 200.141 184.287 200.211 184.154 200.305C184.021 200.398 183.922 200.512 183.855 200.645C183.789 200.777 183.756 200.928 183.756 201.096C183.756 201.264 183.795 201.418 183.873 201.559C183.951 201.695 184.064 201.803 184.213 201.881C184.365 201.959 184.549 201.998 184.764 201.998C185.053 201.998 185.305 201.939 185.52 201.822C185.738 201.701 185.91 201.555 186.035 201.383C186.16 201.207 186.227 201.041 186.234 200.885L186.691 201.512C186.645 201.672 186.564 201.844 186.451 202.027C186.338 202.211 186.189 202.387 186.006 202.555C185.826 202.719 185.609 202.854 185.355 202.959C185.105 203.064 184.816 203.117 184.488 203.117C184.074 203.117 183.705 203.035 183.381 202.871C183.057 202.703 182.803 202.479 182.619 202.197C182.436 201.912 182.344 201.59 182.344 201.23C182.344 200.895 182.406 200.598 182.531 200.34C182.66 200.078 182.848 199.859 183.094 199.684C183.344 199.508 183.648 199.375 184.008 199.285C184.367 199.191 184.777 199.145 185.238 199.145H186.346ZM190.453 197.867V203H189.041V196.66H190.389L190.453 197.867ZM192.393 196.619L192.381 197.932C192.295 197.916 192.201 197.904 192.1 197.896C192.002 197.889 191.904 197.885 191.807 197.885C191.564 197.885 191.352 197.92 191.168 197.99C190.984 198.057 190.83 198.154 190.705 198.283C190.584 198.408 190.49 198.561 190.424 198.74C190.357 198.92 190.318 199.121 190.307 199.344L189.984 199.367C189.984 198.969 190.023 198.6 190.102 198.26C190.18 197.92 190.297 197.621 190.453 197.363C190.613 197.105 190.812 196.904 191.051 196.76C191.293 196.615 191.572 196.543 191.889 196.543C191.975 196.543 192.066 196.551 192.164 196.566C192.266 196.582 192.342 196.6 192.393 196.619ZM194.789 194V203H193.371V194H194.789ZM196.066 199.9V199.766C196.066 199.309 196.133 198.885 196.266 198.494C196.398 198.1 196.59 197.758 196.84 197.469C197.094 197.176 197.402 196.949 197.766 196.789C198.133 196.625 198.547 196.543 199.008 196.543C199.473 196.543 199.887 196.625 200.25 196.789C200.617 196.949 200.928 197.176 201.182 197.469C201.436 197.758 201.629 198.1 201.762 198.494C201.895 198.885 201.961 199.309 201.961 199.766V199.9C201.961 200.357 201.895 200.781 201.762 201.172C201.629 201.562 201.436 201.904 201.182 202.197C200.928 202.486 200.619 202.713 200.256 202.877C199.893 203.037 199.48 203.117 199.02 203.117C198.555 203.117 198.139 203.037 197.771 202.877C197.408 202.713 197.1 202.486 196.846 202.197C196.592 201.904 196.398 201.562 196.266 201.172C196.133 200.781 196.066 200.357 196.066 199.9ZM197.479 199.766V199.9C197.479 200.186 197.508 200.455 197.566 200.709C197.625 200.963 197.717 201.186 197.842 201.377C197.967 201.568 198.127 201.719 198.322 201.828C198.518 201.938 198.75 201.992 199.02 201.992C199.281 201.992 199.508 201.938 199.699 201.828C199.895 201.719 200.055 201.568 200.18 201.377C200.305 201.186 200.396 200.963 200.455 200.709C200.518 200.455 200.549 200.186 200.549 199.9V199.766C200.549 199.484 200.518 199.219 200.455 198.969C200.396 198.715 200.303 198.49 200.174 198.295C200.049 198.1 199.889 197.947 199.693 197.838C199.502 197.725 199.273 197.668 199.008 197.668C198.742 197.668 198.512 197.725 198.316 197.838C198.125 197.947 197.967 198.1 197.842 198.295C197.717 198.49 197.625 198.715 197.566 198.969C197.508 199.219 197.479 199.484 197.479 199.766ZM206.701 201.283C206.701 201.143 206.666 201.016 206.596 200.902C206.525 200.785 206.391 200.68 206.191 200.586C205.996 200.492 205.707 200.406 205.324 200.328C204.988 200.254 204.68 200.166 204.398 200.064C204.121 199.959 203.883 199.832 203.684 199.684C203.484 199.535 203.33 199.359 203.221 199.156C203.111 198.953 203.057 198.719 203.057 198.453C203.057 198.195 203.113 197.951 203.227 197.721C203.34 197.49 203.502 197.287 203.713 197.111C203.924 196.936 204.18 196.797 204.48 196.695C204.785 196.594 205.125 196.543 205.5 196.543C206.031 196.543 206.486 196.633 206.865 196.812C207.248 196.988 207.541 197.229 207.744 197.533C207.947 197.834 208.049 198.174 208.049 198.553H206.637C206.637 198.385 206.594 198.229 206.508 198.084C206.426 197.936 206.301 197.816 206.133 197.727C205.965 197.633 205.754 197.586 205.5 197.586C205.258 197.586 205.057 197.625 204.896 197.703C204.74 197.777 204.623 197.875 204.545 197.996C204.471 198.117 204.434 198.25 204.434 198.395C204.434 198.5 204.453 198.596 204.492 198.682C204.535 198.764 204.605 198.84 204.703 198.91C204.801 198.977 204.934 199.039 205.102 199.098C205.273 199.156 205.488 199.213 205.746 199.268C206.23 199.369 206.646 199.5 206.994 199.66C207.346 199.816 207.615 200.02 207.803 200.27C207.99 200.516 208.084 200.828 208.084 201.207C208.084 201.488 208.023 201.746 207.902 201.98C207.785 202.211 207.613 202.412 207.387 202.584C207.16 202.752 206.889 202.883 206.572 202.977C206.26 203.07 205.908 203.117 205.518 203.117C204.943 203.117 204.457 203.016 204.059 202.812C203.66 202.605 203.357 202.342 203.15 202.021C202.947 201.697 202.846 201.361 202.846 201.014H204.211C204.227 201.275 204.299 201.484 204.428 201.641C204.561 201.793 204.725 201.904 204.92 201.975C205.119 202.041 205.324 202.074 205.535 202.074C205.789 202.074 206.002 202.041 206.174 201.975C206.346 201.904 206.477 201.811 206.566 201.693C206.656 201.572 206.701 201.436 206.701 201.283ZM215.959 200.439V194.469H217.424V200.439C217.424 201.006 217.303 201.488 217.061 201.887C216.818 202.285 216.488 202.59 216.07 202.801C215.652 203.012 215.178 203.117 214.646 203.117C214.104 203.117 213.621 203.025 213.199 202.842C212.781 202.658 212.453 202.377 212.215 201.998C211.977 201.619 211.857 201.139 211.857 200.557H213.334C213.334 200.893 213.387 201.164 213.492 201.371C213.602 201.574 213.754 201.723 213.949 201.816C214.148 201.906 214.381 201.951 214.646 201.951C214.9 201.951 215.125 201.895 215.32 201.781C215.52 201.664 215.676 201.494 215.789 201.271C215.902 201.045 215.959 200.768 215.959 200.439ZM222.791 201.506V196.66H224.209V203H222.873L222.791 201.506ZM222.99 200.188L223.465 200.176C223.465 200.602 223.418 200.994 223.324 201.354C223.23 201.709 223.086 202.02 222.891 202.285C222.695 202.547 222.445 202.752 222.141 202.9C221.836 203.045 221.471 203.117 221.045 203.117C220.736 203.117 220.453 203.072 220.195 202.982C219.938 202.893 219.715 202.754 219.527 202.566C219.344 202.379 219.201 202.135 219.1 201.834C218.998 201.533 218.947 201.174 218.947 200.756V196.66H220.359V200.768C220.359 200.998 220.387 201.191 220.441 201.348C220.496 201.5 220.57 201.623 220.664 201.717C220.758 201.811 220.867 201.877 220.992 201.916C221.117 201.955 221.25 201.975 221.391 201.975C221.793 201.975 222.109 201.896 222.34 201.74C222.574 201.58 222.74 201.365 222.838 201.096C222.939 200.826 222.99 200.523 222.99 200.188ZM227.057 198.014V203H225.645V196.66H226.975L227.057 198.014ZM226.805 199.596L226.348 199.59C226.352 199.141 226.414 198.729 226.535 198.354C226.66 197.979 226.832 197.656 227.051 197.387C227.273 197.117 227.539 196.91 227.848 196.766C228.156 196.617 228.5 196.543 228.879 196.543C229.184 196.543 229.459 196.586 229.705 196.672C229.955 196.754 230.168 196.889 230.344 197.076C230.523 197.264 230.66 197.508 230.754 197.809C230.848 198.105 230.895 198.471 230.895 198.904V203H229.477V198.898C229.477 198.594 229.432 198.354 229.342 198.178C229.256 197.998 229.129 197.871 228.961 197.797C228.797 197.719 228.592 197.68 228.346 197.68C228.104 197.68 227.887 197.73 227.695 197.832C227.504 197.934 227.342 198.072 227.209 198.248C227.08 198.424 226.98 198.627 226.91 198.857C226.84 199.088 226.805 199.334 226.805 199.596ZM232.066 199.9V199.766C232.066 199.309 232.133 198.885 232.266 198.494C232.398 198.1 232.59 197.758 232.84 197.469C233.094 197.176 233.402 196.949 233.766 196.789C234.133 196.625 234.547 196.543 235.008 196.543C235.473 196.543 235.887 196.625 236.25 196.789C236.617 196.949 236.928 197.176 237.182 197.469C237.436 197.758 237.629 198.1 237.762 198.494C237.895 198.885 237.961 199.309 237.961 199.766V199.9C237.961 200.357 237.895 200.781 237.762 201.172C237.629 201.562 237.436 201.904 237.182 202.197C236.928 202.486 236.619 202.713 236.256 202.877C235.893 203.037 235.48 203.117 235.02 203.117C234.555 203.117 234.139 203.037 233.771 202.877C233.408 202.713 233.1 202.486 232.846 202.197C232.592 201.904 232.398 201.562 232.266 201.172C232.133 200.781 232.066 200.357 232.066 199.9ZM233.479 199.766V199.9C233.479 200.186 233.508 200.455 233.566 200.709C233.625 200.963 233.717 201.186 233.842 201.377C233.967 201.568 234.127 201.719 234.322 201.828C234.518 201.938 234.75 201.992 235.02 201.992C235.281 201.992 235.508 201.938 235.699 201.828C235.895 201.719 236.055 201.568 236.18 201.377C236.305 201.186 236.396 200.963 236.455 200.709C236.518 200.455 236.549 200.186 236.549 199.9V199.766C236.549 199.484 236.518 199.219 236.455 198.969C236.396 198.715 236.303 198.49 236.174 198.295C236.049 198.1 235.889 197.947 235.693 197.838C235.502 197.725 235.273 197.668 235.008 197.668C234.742 197.668 234.512 197.725 234.316 197.838C234.125 197.947 233.967 198.1 233.842 198.295C233.717 198.49 233.625 198.715 233.566 198.969C233.508 199.219 233.479 199.484 233.479 199.766Z" fill="#7A7A88"/>
<path d="M46.8618 254.858C46.8542 254.794 46.8395 254.73 46.8179 254.669V254.606C46.7827 254.534 46.7357 254.468 46.6788 254.41L42.2855 250.21C42.2249 250.156 42.1557 250.111 42.0804 250.077H42.0145C41.9402 250.036 41.858 250.01 41.7729 250H37.343C36.7604 250 36.2017 250.221 35.7897 250.615C35.3778 251.009 35.1464 251.543 35.1464 252.1V261.9C35.1464 262.457 35.3778 262.991 35.7897 263.385C36.2017 263.779 36.7604 264 37.343 264H44.6652C45.2478 264 45.8065 263.779 46.2184 263.385C46.6304 262.991 46.8618 262.457 46.8618 261.9V254.9C46.8618 254.9 46.8618 254.9 46.8618 254.858ZM42.4685 252.387L44.365 254.2H43.2007C43.0065 254.2 42.8203 254.126 42.683 253.995C42.5457 253.864 42.4685 253.686 42.4685 253.5V252.387ZM45.3974 261.9C45.3974 262.086 45.3202 262.264 45.1829 262.395C45.0456 262.526 44.8594 262.6 44.6652 262.6H37.343C37.1488 262.6 36.9626 262.526 36.8253 262.395C36.6879 262.264 36.6108 262.086 36.6108 261.9V252.1C36.6108 251.914 36.6879 251.736 36.8253 251.605C36.9626 251.474 37.1488 251.4 37.343 251.4H41.0041V253.5C41.0041 254.057 41.2355 254.591 41.6475 254.985C42.0594 255.379 42.6181 255.6 43.2007 255.6H45.3974V261.9Z" fill="#6D6D6F"/>
<path d="M58.5503 259.875V261H52.8315V260.033L55.6089 257.004C55.9136 256.66 56.1538 256.363 56.3296 256.113C56.5054 255.863 56.6284 255.639 56.6987 255.439C56.7729 255.236 56.8101 255.039 56.8101 254.848C56.8101 254.578 56.7593 254.342 56.6577 254.139C56.5601 253.932 56.4155 253.77 56.2241 253.652C56.0327 253.531 55.8003 253.471 55.5269 253.471C55.2104 253.471 54.9448 253.539 54.73 253.676C54.5151 253.812 54.353 254.002 54.2437 254.244C54.1343 254.482 54.0796 254.756 54.0796 255.064H52.6675C52.6675 254.568 52.7808 254.115 53.0073 253.705C53.2339 253.291 53.562 252.963 53.9917 252.721C54.4214 252.475 54.939 252.352 55.5444 252.352C56.1147 252.352 56.5991 252.447 56.9976 252.639C57.396 252.83 57.6987 253.102 57.9058 253.453C58.1167 253.805 58.2222 254.221 58.2222 254.701C58.2222 254.967 58.1792 255.23 58.0933 255.492C58.0073 255.754 57.8843 256.016 57.7241 256.277C57.5679 256.535 57.3823 256.795 57.1675 257.057C56.9526 257.314 56.7163 257.576 56.4585 257.842L54.6128 259.875H58.5503ZM61.1343 257.033L60.0093 256.758L60.4722 252.469H65.0718V253.664H61.644L61.4097 255.756C61.5425 255.678 61.7261 255.602 61.9604 255.527C62.1948 255.449 62.4624 255.41 62.7632 255.41C63.1655 255.41 63.5249 255.477 63.8413 255.609C64.1616 255.738 64.4331 255.928 64.6558 256.178C64.8784 256.424 65.0483 256.725 65.1655 257.08C65.2827 257.432 65.3413 257.828 65.3413 258.27C65.3413 258.664 65.2827 259.033 65.1655 259.377C65.0522 259.721 64.8804 260.023 64.6499 260.285C64.4194 260.547 64.1284 260.752 63.7769 260.9C63.4292 261.045 63.0171 261.117 62.5405 261.117C62.1851 261.117 61.8433 261.066 61.5151 260.965C61.1909 260.859 60.8999 260.705 60.6421 260.502C60.3843 260.295 60.1772 260.041 60.021 259.74C59.8647 259.436 59.7749 259.086 59.7515 258.691H61.1343C61.1694 258.969 61.2456 259.205 61.3628 259.4C61.4839 259.592 61.644 259.738 61.8433 259.84C62.0425 259.941 62.2729 259.992 62.5347 259.992C62.7729 259.992 62.978 259.951 63.1499 259.869C63.3218 259.783 63.4644 259.662 63.5776 259.506C63.6948 259.346 63.7808 259.158 63.8354 258.943C63.894 258.729 63.9233 258.49 63.9233 258.229C63.9233 257.979 63.8901 257.75 63.8237 257.543C63.7612 257.336 63.6655 257.156 63.5366 257.004C63.4116 256.852 63.2534 256.734 63.062 256.652C62.8706 256.566 62.6499 256.523 62.3999 256.523C62.064 256.523 61.8062 256.572 61.6265 256.67C61.4507 256.768 61.2866 256.889 61.1343 257.033Z" fill="#6D6D6F"/>
<path d="M134.911 259.887H135.029C135.568 259.887 136.017 259.816 136.376 259.676C136.74 259.531 137.029 259.332 137.243 259.078C137.458 258.824 137.613 258.525 137.706 258.182C137.8 257.838 137.847 257.465 137.847 257.062V255.592C137.847 255.244 137.81 254.939 137.736 254.678C137.665 254.412 137.564 254.191 137.431 254.016C137.302 253.836 137.152 253.701 136.98 253.611C136.812 253.521 136.63 253.477 136.435 253.477C136.22 253.477 136.027 253.525 135.855 253.623C135.687 253.717 135.544 253.848 135.427 254.016C135.314 254.18 135.226 254.373 135.163 254.596C135.105 254.814 135.075 255.049 135.075 255.299C135.075 255.533 135.103 255.76 135.157 255.979C135.216 256.193 135.302 256.385 135.415 256.553C135.529 256.721 135.671 256.854 135.843 256.951C136.015 257.049 136.216 257.098 136.447 257.098C136.665 257.098 136.866 257.057 137.05 256.975C137.234 256.889 137.394 256.773 137.531 256.629C137.667 256.484 137.775 256.322 137.853 256.143C137.931 255.963 137.974 255.779 137.982 255.592L138.521 255.756C138.521 256.053 138.458 256.346 138.333 256.635C138.212 256.92 138.042 257.182 137.823 257.42C137.609 257.654 137.357 257.842 137.068 257.982C136.782 258.123 136.472 258.193 136.136 258.193C135.73 258.193 135.37 258.117 135.058 257.965C134.749 257.809 134.491 257.598 134.284 257.332C134.081 257.066 133.929 256.762 133.827 256.418C133.726 256.074 133.675 255.713 133.675 255.334C133.675 254.924 133.738 254.539 133.863 254.18C133.988 253.82 134.169 253.504 134.407 253.23C134.646 252.953 134.935 252.738 135.275 252.586C135.618 252.43 136.007 252.352 136.441 252.352C136.902 252.352 137.306 252.441 137.654 252.621C138.001 252.801 138.294 253.049 138.532 253.365C138.771 253.682 138.95 254.049 139.072 254.467C139.193 254.885 139.253 255.334 139.253 255.814V256.312C139.253 256.816 139.208 257.303 139.118 257.771C139.029 258.236 138.882 258.668 138.679 259.066C138.48 259.461 138.216 259.809 137.888 260.109C137.564 260.406 137.165 260.639 136.693 260.807C136.224 260.971 135.673 261.053 135.04 261.053H134.911V259.887Z" fill="#6D6D6F"/>
<path d="M214.246 256.096H215.09C215.418 256.096 215.689 256.039 215.904 255.926C216.123 255.812 216.285 255.656 216.39 255.457C216.496 255.258 216.549 255.029 216.549 254.771C216.549 254.502 216.5 254.271 216.402 254.08C216.308 253.885 216.164 253.734 215.968 253.629C215.777 253.523 215.533 253.471 215.236 253.471C214.986 253.471 214.759 253.521 214.556 253.623C214.357 253.721 214.199 253.861 214.082 254.045C213.965 254.225 213.906 254.439 213.906 254.689H212.488C212.488 254.236 212.607 253.834 212.845 253.482C213.084 253.131 213.408 252.855 213.818 252.656C214.232 252.453 214.697 252.352 215.213 252.352C215.763 252.352 216.244 252.443 216.654 252.627C217.068 252.807 217.39 253.076 217.621 253.436C217.851 253.795 217.966 254.24 217.966 254.771C217.966 255.014 217.91 255.26 217.797 255.51C217.683 255.76 217.515 255.988 217.293 256.195C217.07 256.398 216.793 256.564 216.461 256.693C216.129 256.818 215.744 256.881 215.306 256.881H214.246V256.096ZM214.246 257.197V256.424H215.306C215.806 256.424 216.232 256.482 216.584 256.6C216.939 256.717 217.228 256.879 217.451 257.086C217.674 257.289 217.836 257.521 217.937 257.783C218.043 258.045 218.095 258.322 218.095 258.615C218.095 259.014 218.023 259.369 217.879 259.682C217.738 259.99 217.537 260.252 217.275 260.467C217.013 260.682 216.707 260.844 216.355 260.953C216.008 261.062 215.629 261.117 215.218 261.117C214.851 261.117 214.5 261.066 214.164 260.965C213.828 260.863 213.527 260.713 213.261 260.514C212.996 260.311 212.785 260.059 212.629 259.758C212.476 259.453 212.4 259.102 212.4 258.703H213.812C213.812 258.957 213.871 259.182 213.988 259.377C214.109 259.568 214.277 259.719 214.492 259.828C214.711 259.938 214.961 259.992 215.242 259.992C215.539 259.992 215.795 259.939 216.009 259.834C216.224 259.729 216.388 259.572 216.502 259.365C216.619 259.158 216.677 258.908 216.677 258.615C216.677 258.283 216.613 258.014 216.484 257.807C216.355 257.6 216.172 257.447 215.933 257.35C215.695 257.248 215.414 257.197 215.09 257.197H214.246ZM224.968 256.02V257.414C224.968 258.082 224.902 258.652 224.769 259.125C224.64 259.594 224.453 259.975 224.207 260.268C223.961 260.561 223.666 260.775 223.322 260.912C222.982 261.049 222.601 261.117 222.179 261.117C221.843 261.117 221.531 261.074 221.242 260.988C220.957 260.902 220.699 260.768 220.468 260.584C220.238 260.4 220.041 260.164 219.877 259.875C219.716 259.582 219.591 259.232 219.502 258.826C219.416 258.42 219.373 257.949 219.373 257.414V256.02C219.373 255.348 219.439 254.781 219.572 254.32C219.705 253.855 219.894 253.479 220.14 253.189C220.386 252.896 220.679 252.684 221.019 252.551C221.363 252.418 221.746 252.352 222.168 252.352C222.508 252.352 222.82 252.395 223.105 252.48C223.394 252.562 223.652 252.693 223.879 252.873C224.109 253.053 224.304 253.287 224.465 253.576C224.629 253.861 224.754 254.207 224.84 254.613C224.925 255.016 224.968 255.484 224.968 256.02ZM223.556 257.613V255.809C223.556 255.469 223.537 255.17 223.498 254.912C223.459 254.65 223.4 254.43 223.322 254.25C223.248 254.066 223.154 253.918 223.041 253.805C222.927 253.688 222.799 253.604 222.654 253.553C222.509 253.498 222.347 253.471 222.168 253.471C221.949 253.471 221.754 253.514 221.582 253.6C221.41 253.682 221.265 253.814 221.148 253.998C221.031 254.182 220.941 254.424 220.879 254.725C220.82 255.021 220.791 255.383 220.791 255.809V257.613C220.791 257.957 220.81 258.26 220.849 258.521C220.888 258.783 220.947 259.008 221.025 259.195C221.103 259.379 221.197 259.531 221.306 259.652C221.42 259.77 221.549 259.855 221.693 259.91C221.841 259.965 222.004 259.992 222.179 259.992C222.402 259.992 222.599 259.949 222.771 259.863C222.943 259.777 223.088 259.641 223.205 259.453C223.322 259.262 223.41 259.014 223.468 258.709C223.527 258.404 223.556 258.039 223.556 257.613Z" fill="#6D6D6F"/>
<path d="M193.098 257.181C193.566 256.801 193.942 256.33 194.199 255.802C194.456 255.273 194.589 254.699 194.589 254.118C194.589 253.026 194.127 251.978 193.305 251.206C192.482 250.434 191.367 250 190.204 250C189.041 250 187.925 250.434 187.103 251.206C186.28 251.978 185.818 253.026 185.818 254.118C185.818 254.699 185.951 255.273 186.209 255.802C186.466 256.33 186.841 256.801 187.309 257.181C186.082 257.703 185.04 258.546 184.309 259.609C183.578 260.673 183.188 261.911 183.187 263.176C183.187 263.395 183.279 263.604 183.444 263.759C183.608 263.913 183.831 264 184.064 264C184.297 264 184.52 263.913 184.684 263.759C184.849 263.604 184.941 263.395 184.941 263.176C184.941 261.866 185.496 260.609 186.483 259.683C187.469 258.756 188.808 258.235 190.204 258.235C191.599 258.235 192.938 258.756 193.925 259.683C194.912 260.609 195.466 261.866 195.466 263.176C195.466 263.395 195.559 263.604 195.723 263.759C195.888 263.913 196.111 264 196.343 264C196.576 264 196.799 263.913 196.964 263.759C197.128 263.604 197.22 263.395 197.22 263.176C197.219 261.911 196.83 260.673 196.099 259.609C195.368 258.546 194.326 257.703 193.098 257.181ZM190.204 256.588C189.683 256.588 189.175 256.443 188.742 256.172C188.309 255.9 187.972 255.515 187.773 255.063C187.574 254.612 187.522 254.115 187.623 253.636C187.725 253.156 187.975 252.716 188.343 252.371C188.711 252.025 189.18 251.79 189.69 251.695C190.201 251.599 190.73 251.648 191.211 251.835C191.691 252.022 192.102 252.339 192.392 252.745C192.681 253.151 192.835 253.629 192.835 254.118C192.835 254.773 192.558 255.401 192.064 255.865C191.571 256.328 190.902 256.588 190.204 256.588ZM198.747 256.852C199.308 256.258 199.675 255.525 199.802 254.741C199.93 253.956 199.814 253.153 199.467 252.429C199.121 251.705 198.559 251.091 197.849 250.66C197.139 250.229 196.312 250 195.466 250C195.234 250 195.011 250.087 194.846 250.241C194.682 250.396 194.589 250.605 194.589 250.824C194.589 251.042 194.682 251.251 194.846 251.406C195.011 251.56 195.234 251.647 195.466 251.647C196.164 251.647 196.833 251.907 197.327 252.371C197.82 252.834 198.098 253.462 198.098 254.118C198.096 254.55 197.974 254.975 197.743 255.349C197.512 255.723 197.181 256.034 196.782 256.251C196.652 256.321 196.543 256.422 196.467 256.543C196.39 256.664 196.347 256.801 196.343 256.942C196.34 257.082 196.374 257.221 196.443 257.344C196.512 257.468 196.614 257.574 196.738 257.651L197.08 257.865L197.194 257.922C198.251 258.393 199.143 259.138 199.765 260.069C200.386 261 200.712 262.078 200.703 263.176C200.703 263.395 200.795 263.604 200.959 263.759C201.124 263.913 201.347 264 201.58 264C201.812 264 202.035 263.913 202.2 263.759C202.364 263.604 202.457 263.395 202.457 263.176C202.464 261.913 202.127 260.668 201.477 259.561C200.828 258.454 199.888 257.522 198.747 256.852Z" fill="#6D6D6F"/>
<rect x="88.3984" y="250" width="1.06504" height="14" fill="#EFEFEF"/>
<rect x="161.886" y="250" width="1.06504" height="14" fill="#EFEFEF"/>
<path d="M125.616 251.154C125.529 251.088 125.428 251.042 125.319 251.017C125.211 250.993 125.098 250.992 124.989 251.014C124.192 251.171 123.37 251.173 122.572 251.02C121.774 250.867 121.018 250.562 120.351 250.125C120.226 250.044 120.077 250 119.925 250C119.774 250 119.625 250.044 119.5 250.125C118.833 250.562 118.077 250.867 117.279 251.02C116.481 251.173 115.659 251.171 114.862 251.014C114.753 250.992 114.64 250.993 114.532 251.017C114.423 251.042 114.322 251.088 114.235 251.154C114.149 251.22 114.079 251.303 114.031 251.398C113.984 251.492 113.959 251.596 113.959 251.7V256.917C113.959 257.921 114.213 258.911 114.703 259.803C115.192 260.696 115.901 261.466 116.771 262.05L119.493 263.87C119.619 263.955 119.77 264 119.925 264C120.08 264 120.232 263.955 120.358 263.87L123.08 262.05C123.95 261.466 124.659 260.696 125.148 259.803C125.637 258.911 125.892 257.921 125.892 256.917V251.7C125.892 251.596 125.867 251.492 125.82 251.398C125.772 251.303 125.702 251.22 125.616 251.154ZM124.4 256.917C124.401 257.698 124.203 258.467 123.823 259.161C123.442 259.855 122.891 260.454 122.215 260.908L119.925 262.442L117.636 260.908C116.96 260.454 116.408 259.855 116.028 259.161C115.648 258.467 115.45 257.698 115.451 256.917V252.506C117.014 252.631 118.58 252.291 119.925 251.532C121.271 252.291 122.837 252.631 124.4 252.506V256.917ZM121.074 255.314L119.068 257.204L118.404 256.574C118.264 256.442 118.073 256.368 117.875 256.368C117.676 256.368 117.486 256.442 117.345 256.574C117.205 256.706 117.126 256.885 117.126 257.071C117.126 257.258 117.205 257.436 117.345 257.568L118.538 258.689C118.608 258.754 118.69 258.806 118.781 258.842C118.872 258.877 118.969 258.896 119.068 258.896C119.166 258.896 119.264 258.877 119.355 258.842C119.446 258.806 119.528 258.754 119.597 258.689L122.163 256.301C122.303 256.169 122.382 255.99 122.382 255.804C122.382 255.617 122.303 255.438 122.163 255.307C122.022 255.175 121.832 255.101 121.633 255.101C121.435 255.101 121.244 255.175 121.104 255.307L121.074 255.314Z" fill="#6D6D6F"/>
<rect x="19.1707" y="279" width="221.528" height="7" rx="3.5" fill="#F2F2F2"/>
<rect x="19.1707" y="279" width="52.187" height="7" rx="3.5" fill="#3C3D44"/>
<path d="M25.0769 305.223H26.5417C26.4949 305.781 26.3386 306.279 26.073 306.717C25.8074 307.15 25.4343 307.492 24.9539 307.742C24.4734 307.992 23.8894 308.117 23.2019 308.117C22.6746 308.117 22.2 308.023 21.7781 307.836C21.3562 307.645 20.9949 307.375 20.6941 307.027C20.3933 306.676 20.1628 306.252 20.0027 305.756C19.8464 305.26 19.7683 304.705 19.7683 304.092V303.383C19.7683 302.77 19.8484 302.215 20.0085 301.719C20.1726 301.223 20.407 300.799 20.7117 300.447C21.0164 300.092 21.3816 299.82 21.8074 299.633C22.2371 299.445 22.7195 299.352 23.2546 299.352C23.9343 299.352 24.5085 299.477 24.9773 299.727C25.446 299.977 25.8093 300.322 26.0671 300.764C26.3289 301.205 26.489 301.711 26.5476 302.281H25.0828C25.0437 301.914 24.9578 301.6 24.825 301.338C24.696 301.076 24.5046 300.877 24.2507 300.74C23.9968 300.6 23.6648 300.529 23.2546 300.529C22.9187 300.529 22.6257 300.592 22.3757 300.717C22.1257 300.842 21.9167 301.025 21.7488 301.268C21.5808 301.51 21.4539 301.809 21.3679 302.164C21.2859 302.516 21.2449 302.918 21.2449 303.371V304.092C21.2449 304.521 21.282 304.912 21.3562 305.264C21.4343 305.611 21.5515 305.91 21.7078 306.16C21.8679 306.41 22.071 306.604 22.3171 306.74C22.5632 306.877 22.8582 306.945 23.2019 306.945C23.6199 306.945 23.9578 306.879 24.2156 306.746C24.4773 306.613 24.6746 306.42 24.8074 306.166C24.9441 305.908 25.0339 305.594 25.0769 305.223ZM27.4675 304.9V304.766C27.4675 304.309 27.5339 303.885 27.6667 303.494C27.7996 303.1 27.991 302.758 28.241 302.469C28.4949 302.176 28.8035 301.949 29.1667 301.789C29.5339 301.625 29.948 301.543 30.4089 301.543C30.8738 301.543 31.2878 301.625 31.6511 301.789C32.0183 301.949 32.3289 302.176 32.5828 302.469C32.8367 302.758 33.03 303.1 33.1628 303.494C33.2957 303.885 33.3621 304.309 33.3621 304.766V304.9C33.3621 305.357 33.2957 305.781 33.1628 306.172C33.03 306.562 32.8367 306.904 32.5828 307.197C32.3289 307.486 32.0203 307.713 31.657 307.877C31.2937 308.037 30.8816 308.117 30.4207 308.117C29.9558 308.117 29.5398 308.037 29.1726 307.877C28.8093 307.713 28.5007 307.486 28.2468 307.197C27.9929 306.904 27.7996 306.562 27.6667 306.172C27.5339 305.781 27.4675 305.357 27.4675 304.9ZM28.8796 304.766V304.9C28.8796 305.186 28.9089 305.455 28.9675 305.709C29.0261 305.963 29.1179 306.186 29.2429 306.377C29.3679 306.568 29.5281 306.719 29.7234 306.828C29.9187 306.938 30.1511 306.992 30.4207 306.992C30.6824 306.992 30.9089 306.938 31.1003 306.828C31.2957 306.719 31.4558 306.568 31.5808 306.377C31.7058 306.186 31.7976 305.963 31.8562 305.709C31.9187 305.455 31.95 305.186 31.95 304.9V304.766C31.95 304.484 31.9187 304.219 31.8562 303.969C31.7976 303.715 31.7039 303.49 31.575 303.295C31.45 303.1 31.2898 302.947 31.0945 302.838C30.9031 302.725 30.6746 302.668 30.4089 302.668C30.1433 302.668 29.9128 302.725 29.7175 302.838C29.5261 302.947 29.3679 303.1 29.2429 303.295C29.1179 303.49 29.0261 303.715 28.9675 303.969C28.9089 304.219 28.8796 304.484 28.8796 304.766ZM35.9578 302.949V308H34.5457V301.66H35.8757L35.9578 302.949ZM35.7292 304.596L35.2488 304.59C35.2488 304.152 35.3035 303.748 35.4128 303.377C35.5222 303.006 35.6824 302.684 35.8933 302.41C36.1042 302.133 36.366 301.92 36.6785 301.771C36.9949 301.619 37.3601 301.543 37.7742 301.543C38.0632 301.543 38.3269 301.586 38.5652 301.672C38.8074 301.754 39.0164 301.885 39.1921 302.064C39.3718 302.244 39.5085 302.475 39.6023 302.756C39.7 303.037 39.7488 303.377 39.7488 303.775V308H38.3367V303.898C38.3367 303.59 38.2898 303.348 38.196 303.172C38.1062 302.996 37.9753 302.871 37.8035 302.797C37.6355 302.719 37.4343 302.68 37.2 302.68C36.9343 302.68 36.7078 302.73 36.5203 302.832C36.3367 302.934 36.1863 303.072 36.0691 303.248C35.9519 303.424 35.866 303.627 35.8113 303.857C35.7566 304.088 35.7292 304.334 35.7292 304.596ZM39.6609 304.221L38.9988 304.367C38.9988 303.984 39.0515 303.623 39.157 303.283C39.2664 302.939 39.4246 302.639 39.6316 302.381C39.8425 302.119 40.1023 301.914 40.4109 301.766C40.7195 301.617 41.073 301.543 41.4714 301.543C41.7957 301.543 42.0847 301.588 42.3386 301.678C42.5964 301.764 42.8152 301.9 42.9949 302.088C43.1746 302.275 43.3113 302.52 43.405 302.82C43.4988 303.117 43.5457 303.477 43.5457 303.898V308H42.1277V303.893C42.1277 303.572 42.0808 303.324 41.9871 303.148C41.8972 302.973 41.7683 302.852 41.6003 302.785C41.4324 302.715 41.2312 302.68 40.9968 302.68C40.7781 302.68 40.5847 302.721 40.4167 302.803C40.2527 302.881 40.114 302.992 40.0007 303.137C39.8875 303.277 39.8015 303.439 39.7429 303.623C39.6882 303.807 39.6609 304.006 39.6609 304.221ZM46.4167 302.879V310.438H45.0046V301.66H46.3054L46.4167 302.879ZM50.5476 304.771V304.895C50.5476 305.355 50.4929 305.783 50.3835 306.178C50.2781 306.568 50.1199 306.91 49.9089 307.203C49.7019 307.492 49.446 307.717 49.1414 307.877C48.8367 308.037 48.4851 308.117 48.0867 308.117C47.6921 308.117 47.3464 308.045 47.0496 307.9C46.7566 307.752 46.5085 307.543 46.3054 307.273C46.1023 307.004 45.9382 306.688 45.8132 306.324C45.6921 305.957 45.6062 305.555 45.5554 305.117V304.643C45.6062 304.178 45.6921 303.756 45.8132 303.377C45.9382 302.998 46.1023 302.672 46.3054 302.398C46.5085 302.125 46.7566 301.914 47.0496 301.766C47.3425 301.617 47.6843 301.543 48.075 301.543C48.4734 301.543 48.8269 301.621 49.1355 301.777C49.4441 301.93 49.7039 302.148 49.9148 302.434C50.1257 302.715 50.2839 303.055 50.3894 303.453C50.4949 303.848 50.5476 304.287 50.5476 304.771ZM49.1355 304.895V304.771C49.1355 304.479 49.1082 304.207 49.0535 303.957C48.9988 303.703 48.9128 303.48 48.7957 303.289C48.6785 303.098 48.5281 302.949 48.3445 302.844C48.1648 302.734 47.948 302.68 47.6941 302.68C47.4441 302.68 47.2292 302.723 47.0496 302.809C46.8699 302.891 46.7195 303.006 46.5984 303.154C46.4773 303.303 46.3835 303.477 46.3171 303.676C46.2507 303.871 46.2039 304.084 46.1765 304.314V305.451C46.2234 305.732 46.3035 305.99 46.4167 306.225C46.53 306.459 46.6902 306.646 46.8972 306.787C47.1082 306.924 47.3777 306.992 47.7058 306.992C47.9597 306.992 48.1765 306.938 48.3562 306.828C48.5359 306.719 48.6824 306.568 48.7957 306.377C48.9128 306.182 48.9988 305.957 49.0535 305.703C49.1082 305.449 49.1355 305.18 49.1355 304.895ZM53.2605 299V308H51.8425V299H53.2605ZM57.6023 308.117C57.1335 308.117 56.7097 308.041 56.3308 307.889C55.9558 307.732 55.6355 307.516 55.3699 307.238C55.1082 306.961 54.907 306.635 54.7664 306.26C54.6257 305.885 54.5554 305.48 54.5554 305.047V304.812C54.5554 304.316 54.6277 303.867 54.7722 303.465C54.9167 303.062 55.1179 302.719 55.3757 302.434C55.6335 302.145 55.9382 301.924 56.2898 301.771C56.6414 301.619 57.0222 301.543 57.4324 301.543C57.8855 301.543 58.282 301.619 58.6218 301.771C58.9617 301.924 59.2429 302.139 59.4656 302.416C59.6921 302.689 59.8601 303.016 59.9695 303.395C60.0828 303.773 60.1394 304.191 60.1394 304.648V305.252H55.241V304.238H58.7449V304.127C58.7371 303.873 58.6863 303.635 58.5925 303.412C58.5027 303.189 58.364 303.01 58.1765 302.873C57.989 302.736 57.739 302.668 57.4265 302.668C57.1921 302.668 56.9832 302.719 56.7996 302.82C56.6199 302.918 56.4695 303.061 56.3484 303.248C56.2273 303.436 56.1335 303.662 56.0671 303.928C56.0046 304.189 55.9734 304.484 55.9734 304.812V305.047C55.9734 305.324 56.0105 305.582 56.0847 305.82C56.1628 306.055 56.2761 306.26 56.4246 306.436C56.573 306.611 56.7527 306.75 56.9636 306.852C57.1746 306.949 57.4148 306.998 57.6843 306.998C58.0242 306.998 58.3269 306.93 58.5925 306.793C58.8582 306.656 59.0886 306.463 59.2839 306.213L60.0281 306.934C59.8914 307.133 59.7136 307.324 59.4949 307.508C59.2761 307.688 59.0085 307.834 58.6921 307.947C58.3796 308.061 58.0164 308.117 57.6023 308.117ZM64.1472 301.66V302.691H60.573V301.66H64.1472ZM61.6042 300.107H63.0164V306.248C63.0164 306.443 63.0437 306.594 63.0984 306.699C63.157 306.801 63.2371 306.869 63.3386 306.904C63.4402 306.939 63.5593 306.957 63.696 306.957C63.7937 306.957 63.8875 306.951 63.9773 306.939C64.0671 306.928 64.1394 306.916 64.1941 306.904L64.2 307.982C64.0828 308.018 63.946 308.049 63.7898 308.076C63.6375 308.104 63.4617 308.117 63.2625 308.117C62.9382 308.117 62.6511 308.061 62.4011 307.947C62.1511 307.83 61.9558 307.641 61.8152 307.379C61.6746 307.117 61.6042 306.77 61.6042 306.336V300.107ZM68.032 308.117C67.5632 308.117 67.1394 308.041 66.7605 307.889C66.3855 307.732 66.0652 307.516 65.7996 307.238C65.5378 306.961 65.3367 306.635 65.196 306.26C65.0554 305.885 64.9851 305.48 64.9851 305.047V304.812C64.9851 304.316 65.0574 303.867 65.2019 303.465C65.3464 303.062 65.5476 302.719 65.8054 302.434C66.0632 302.145 66.3679 301.924 66.7195 301.771C67.071 301.619 67.4519 301.543 67.8621 301.543C68.3152 301.543 68.7117 301.619 69.0515 301.771C69.3914 301.924 69.6726 302.139 69.8953 302.416C70.1218 302.689 70.2898 303.016 70.3992 303.395C70.5125 303.773 70.5691 304.191 70.5691 304.648V305.252H65.6707V304.238H69.1746V304.127C69.1667 303.873 69.116 303.635 69.0222 303.412C68.9324 303.189 68.7937 303.01 68.6062 302.873C68.4187 302.736 68.1687 302.668 67.8562 302.668C67.6218 302.668 67.4128 302.719 67.2292 302.82C67.0496 302.918 66.8992 303.061 66.7781 303.248C66.657 303.436 66.5632 303.662 66.4968 303.928C66.4343 304.189 66.4031 304.484 66.4031 304.812V305.047C66.4031 305.324 66.4402 305.582 66.5144 305.82C66.5925 306.055 66.7058 306.26 66.8542 306.436C67.0027 306.611 67.1824 306.75 67.3933 306.852C67.6042 306.949 67.8445 306.998 68.114 306.998C68.4539 306.998 68.7566 306.93 69.0222 306.793C69.2878 306.656 69.5183 306.463 69.7136 306.213L70.4578 306.934C70.321 307.133 70.1433 307.324 69.9246 307.508C69.7058 307.688 69.4382 307.834 69.1218 307.947C68.8093 308.061 68.446 308.117 68.032 308.117ZM75.5378 306.688V299H76.9558V308H75.6726L75.5378 306.688ZM71.4128 304.9V304.777C71.4128 304.297 71.4695 303.859 71.5828 303.465C71.696 303.066 71.8601 302.725 72.075 302.439C72.2898 302.15 72.5515 301.93 72.8601 301.777C73.1687 301.621 73.5164 301.543 73.9031 301.543C74.2859 301.543 74.6218 301.617 74.9109 301.766C75.2 301.914 75.446 302.127 75.6492 302.404C75.8523 302.678 76.0144 303.006 76.1355 303.389C76.2566 303.768 76.3425 304.189 76.3933 304.654V305.047C76.3425 305.5 76.2566 305.914 76.1355 306.289C76.0144 306.664 75.8523 306.988 75.6492 307.262C75.446 307.535 75.198 307.746 74.905 307.895C74.616 308.043 74.2781 308.117 73.8914 308.117C73.5085 308.117 73.1628 308.037 72.8542 307.877C72.5496 307.717 72.2898 307.492 72.075 307.203C71.8601 306.914 71.696 306.574 71.5828 306.184C71.4695 305.789 71.4128 305.361 71.4128 304.9ZM72.825 304.777V304.9C72.825 305.189 72.8503 305.459 72.9011 305.709C72.9558 305.959 73.0398 306.18 73.1531 306.371C73.2664 306.559 73.4128 306.707 73.5925 306.816C73.7761 306.922 73.9949 306.975 74.2488 306.975C74.5691 306.975 74.8328 306.904 75.0398 306.764C75.2468 306.623 75.4089 306.434 75.5261 306.195C75.6472 305.953 75.7292 305.684 75.7722 305.387V304.326C75.7488 304.096 75.7 303.881 75.6257 303.682C75.5554 303.482 75.4597 303.309 75.3386 303.16C75.2175 303.008 75.0671 302.891 74.8875 302.809C74.7117 302.723 74.5027 302.68 74.2605 302.68C74.0027 302.68 73.7839 302.734 73.6042 302.844C73.4246 302.953 73.2761 303.104 73.1589 303.295C73.0457 303.486 72.9617 303.709 72.907 303.963C72.8523 304.217 72.825 304.488 72.825 304.777ZM78.45 307.297C78.45 307.078 78.5242 306.895 78.6726 306.746C78.821 306.594 79.0222 306.518 79.2761 306.518C79.5339 306.518 79.7351 306.594 79.8796 306.746C80.0281 306.895 80.1023 307.078 80.1023 307.297C80.1023 307.516 80.0281 307.699 79.8796 307.848C79.7351 307.996 79.5339 308.07 79.2761 308.07C79.0222 308.07 78.821 307.996 78.6726 307.848C78.5242 307.699 78.45 307.516 78.45 307.297ZM78.4558 302.305C78.4558 302.086 78.53 301.902 78.6785 301.754C78.8269 301.602 79.0281 301.525 79.282 301.525C79.5398 301.525 79.741 301.602 79.8855 301.754C80.0339 301.902 80.1082 302.086 80.1082 302.305C80.1082 302.523 80.0339 302.707 79.8855 302.855C79.741 303.004 79.5398 303.078 79.282 303.078C79.0281 303.078 78.8269 303.004 78.6785 302.855C78.53 302.707 78.4558 302.523 78.4558 302.305ZM90.2214 306.875V308H84.5027V307.033L87.28 304.004C87.5847 303.66 87.825 303.363 88.0007 303.113C88.1765 302.863 88.2996 302.639 88.3699 302.439C88.4441 302.236 88.4812 302.039 88.4812 301.848C88.4812 301.578 88.4304 301.342 88.3289 301.139C88.2312 300.932 88.0867 300.77 87.8953 300.652C87.7039 300.531 87.4714 300.471 87.198 300.471C86.8816 300.471 86.616 300.539 86.4011 300.676C86.1863 300.812 86.0242 301.002 85.9148 301.244C85.8054 301.482 85.7507 301.756 85.7507 302.064H84.3386C84.3386 301.568 84.4519 301.115 84.6785 300.705C84.905 300.291 85.2332 299.963 85.6628 299.721C86.0925 299.475 86.6101 299.352 87.2156 299.352C87.7859 299.352 88.2703 299.447 88.6687 299.639C89.0671 299.83 89.3699 300.102 89.5769 300.453C89.7878 300.805 89.8933 301.221 89.8933 301.701C89.8933 301.967 89.8503 302.23 89.7644 302.492C89.6785 302.754 89.5554 303.016 89.3953 303.277C89.239 303.535 89.0535 303.795 88.8386 304.057C88.6238 304.314 88.3875 304.576 88.1296 304.842L86.2839 306.875H90.2214ZM92.8054 304.033L91.6804 303.758L92.1433 299.469H96.7429V300.664H93.3152L93.0808 302.756C93.2136 302.678 93.3972 302.602 93.6316 302.527C93.866 302.449 94.1335 302.41 94.4343 302.41C94.8367 302.41 95.196 302.477 95.5125 302.609C95.8328 302.738 96.1042 302.928 96.3269 303.178C96.5496 303.424 96.7195 303.725 96.8367 304.08C96.9539 304.432 97.0125 304.828 97.0125 305.27C97.0125 305.664 96.9539 306.033 96.8367 306.377C96.7234 306.721 96.5515 307.023 96.321 307.285C96.0906 307.547 95.7996 307.752 95.448 307.9C95.1003 308.045 94.6882 308.117 94.2117 308.117C93.8562 308.117 93.5144 308.066 93.1863 307.965C92.8621 307.859 92.571 307.705 92.3132 307.502C92.0554 307.295 91.8484 307.041 91.6921 306.74C91.5359 306.436 91.446 306.086 91.4226 305.691H92.8054C92.8406 305.969 92.9167 306.205 93.0339 306.4C93.155 306.592 93.3152 306.738 93.5144 306.84C93.7136 306.941 93.9441 306.992 94.2058 306.992C94.4441 306.992 94.6492 306.951 94.821 306.869C94.9929 306.783 95.1355 306.662 95.2488 306.506C95.366 306.346 95.4519 306.158 95.5066 305.943C95.5652 305.729 95.5945 305.49 95.5945 305.229C95.5945 304.979 95.5613 304.75 95.4949 304.543C95.4324 304.336 95.3367 304.156 95.2078 304.004C95.0828 303.852 94.9246 303.734 94.7332 303.652C94.5417 303.566 94.321 303.523 94.071 303.523C93.7351 303.523 93.4773 303.572 93.2976 303.67C93.1218 303.768 92.9578 303.889 92.8054 304.033ZM98.0847 301.561V301.109C98.0847 300.785 98.155 300.49 98.2957 300.225C98.4363 299.959 98.6414 299.746 98.9109 299.586C99.1804 299.426 99.5046 299.346 99.8835 299.346C100.274 299.346 100.602 299.426 100.868 299.586C101.137 299.746 101.343 299.959 101.483 300.225C101.624 300.49 101.694 300.785 101.694 301.109V301.561C101.694 301.877 101.624 302.168 101.483 302.434C101.346 302.699 101.143 302.912 100.874 303.072C100.608 303.232 100.282 303.312 99.8953 303.312C99.5125 303.312 99.1843 303.232 98.9109 303.072C98.6414 302.912 98.4363 302.699 98.2957 302.434C98.155 302.168 98.0847 301.877 98.0847 301.561ZM99.0632 301.109V301.561C99.0632 301.717 99.0925 301.865 99.1511 302.006C99.2136 302.146 99.3074 302.26 99.4324 302.346C99.5574 302.432 99.7117 302.475 99.8953 302.475C100.083 302.475 100.235 302.432 100.352 302.346C100.473 302.26 100.563 302.146 100.622 302.006C100.68 301.865 100.71 301.717 100.71 301.561V301.109C100.71 300.949 100.678 300.799 100.616 300.658C100.557 300.514 100.468 300.398 100.346 300.312C100.225 300.227 100.071 300.184 99.8835 300.184C99.7039 300.184 99.5515 300.227 99.4265 300.312C99.3054 300.398 99.2136 300.514 99.1511 300.658C99.0925 300.799 99.0632 300.949 99.0632 301.109ZM102.198 306.365V305.908C102.198 305.588 102.268 305.295 102.409 305.029C102.553 304.764 102.76 304.551 103.03 304.391C103.3 304.23 103.624 304.15 104.003 304.15C104.393 304.15 104.721 304.23 104.987 304.391C105.257 304.551 105.46 304.764 105.596 305.029C105.737 305.295 105.807 305.588 105.807 305.908V306.365C105.807 306.686 105.737 306.979 105.596 307.244C105.46 307.51 105.259 307.723 104.993 307.883C104.727 308.043 104.403 308.123 104.02 308.123C103.634 308.123 103.303 308.043 103.03 307.883C102.76 307.723 102.553 307.51 102.409 307.244C102.268 306.979 102.198 306.686 102.198 306.365ZM103.182 305.908V306.365C103.182 306.521 103.214 306.67 103.276 306.811C103.343 306.951 103.438 307.066 103.563 307.156C103.688 307.242 103.839 307.285 104.014 307.285C104.214 307.285 104.374 307.242 104.495 307.156C104.616 307.066 104.702 306.953 104.753 306.816C104.807 306.676 104.835 306.525 104.835 306.365V305.908C104.835 305.748 104.803 305.598 104.741 305.457C104.682 305.316 104.591 305.203 104.466 305.117C104.344 305.031 104.19 304.988 104.003 304.988C103.819 304.988 103.667 305.031 103.546 305.117C103.425 305.203 103.333 305.316 103.27 305.457C103.212 305.598 103.182 305.748 103.182 305.908ZM104.354 300.688L100.188 307.355L99.4675 306.939L103.634 300.271L104.354 300.688Z" fill="#9A9FA5"/>
<path d="M184.403 308H182.58L182.592 306.834H184.403C184.93 306.834 185.371 306.719 185.727 306.488C186.086 306.258 186.356 305.928 186.535 305.498C186.719 305.068 186.811 304.557 186.811 303.963V303.5C186.811 303.039 186.758 302.631 186.653 302.275C186.551 301.92 186.399 301.621 186.196 301.379C185.996 301.137 185.75 300.953 185.457 300.828C185.168 300.703 184.834 300.641 184.455 300.641H182.545V299.469H184.455C185.022 299.469 185.539 299.564 186.008 299.756C186.477 299.943 186.881 300.215 187.221 300.57C187.565 300.926 187.828 301.352 188.012 301.848C188.196 302.344 188.287 302.898 188.287 303.512V303.963C188.287 304.576 188.196 305.131 188.012 305.627C187.828 306.123 187.565 306.549 187.221 306.904C186.877 307.256 186.467 307.527 185.991 307.719C185.518 307.906 184.989 308 184.403 308ZM183.395 299.469V308H181.924V299.469H183.395ZM193.198 306.729V303.705C193.198 303.479 193.157 303.283 193.075 303.119C192.992 302.955 192.867 302.828 192.7 302.738C192.535 302.648 192.328 302.604 192.078 302.604C191.848 302.604 191.649 302.643 191.481 302.721C191.313 302.799 191.182 302.904 191.088 303.037C190.994 303.17 190.948 303.32 190.948 303.488H189.541C189.541 303.238 189.602 302.996 189.723 302.762C189.844 302.527 190.02 302.318 190.25 302.135C190.481 301.951 190.756 301.807 191.076 301.701C191.397 301.596 191.756 301.543 192.155 301.543C192.631 301.543 193.053 301.623 193.42 301.783C193.791 301.943 194.082 302.186 194.293 302.51C194.508 302.83 194.616 303.232 194.616 303.717V306.535C194.616 306.824 194.635 307.084 194.674 307.314C194.717 307.541 194.778 307.738 194.856 307.906V308H193.409C193.342 307.848 193.289 307.654 193.25 307.42C193.215 307.182 193.198 306.951 193.198 306.729ZM193.403 304.145L193.414 305.018H192.401C192.139 305.018 191.909 305.043 191.709 305.094C191.51 305.141 191.344 305.211 191.211 305.305C191.078 305.398 190.979 305.512 190.912 305.645C190.846 305.777 190.813 305.928 190.813 306.096C190.813 306.264 190.852 306.418 190.93 306.559C191.008 306.695 191.121 306.803 191.27 306.881C191.422 306.959 191.606 306.998 191.821 306.998C192.11 306.998 192.362 306.939 192.576 306.822C192.795 306.701 192.967 306.555 193.092 306.383C193.217 306.207 193.284 306.041 193.291 305.885L193.748 306.512C193.701 306.672 193.621 306.844 193.508 307.027C193.395 307.211 193.246 307.387 193.063 307.555C192.883 307.719 192.666 307.854 192.412 307.959C192.162 308.064 191.873 308.117 191.545 308.117C191.131 308.117 190.762 308.035 190.438 307.871C190.114 307.703 189.86 307.479 189.676 307.197C189.492 306.912 189.401 306.59 189.401 306.23C189.401 305.895 189.463 305.598 189.588 305.34C189.717 305.078 189.905 304.859 190.151 304.684C190.401 304.508 190.705 304.375 191.065 304.285C191.424 304.191 191.834 304.145 192.295 304.145H193.403ZM197.838 307.309L199.561 301.66H201.073L198.53 308.967C198.471 309.123 198.395 309.293 198.301 309.477C198.207 309.66 198.084 309.834 197.932 309.998C197.784 310.166 197.598 310.301 197.375 310.402C197.153 310.508 196.883 310.561 196.567 310.561C196.442 310.561 196.321 310.549 196.203 310.525C196.09 310.506 195.983 310.484 195.881 310.461L195.875 309.383C195.914 309.387 195.961 309.391 196.016 309.395C196.075 309.398 196.121 309.4 196.157 309.4C196.391 309.4 196.586 309.371 196.742 309.312C196.899 309.258 197.026 309.168 197.123 309.043C197.225 308.918 197.311 308.75 197.381 308.539L197.838 307.309ZM196.866 301.66L198.371 306.406L198.623 307.895L197.645 308.146L195.342 301.66H196.866ZM205.438 306.283C205.438 306.143 205.403 306.016 205.332 305.902C205.262 305.785 205.127 305.68 204.928 305.586C204.733 305.492 204.444 305.406 204.061 305.328C203.725 305.254 203.416 305.166 203.135 305.064C202.858 304.959 202.619 304.832 202.42 304.684C202.221 304.535 202.067 304.359 201.957 304.156C201.848 303.953 201.793 303.719 201.793 303.453C201.793 303.195 201.85 302.951 201.963 302.721C202.076 302.49 202.239 302.287 202.45 302.111C202.66 301.936 202.916 301.797 203.217 301.695C203.522 301.594 203.862 301.543 204.237 301.543C204.768 301.543 205.223 301.633 205.602 301.812C205.985 301.988 206.278 302.229 206.481 302.533C206.684 302.834 206.785 303.174 206.785 303.553H205.373C205.373 303.385 205.33 303.229 205.244 303.084C205.162 302.936 205.037 302.816 204.869 302.727C204.701 302.633 204.491 302.586 204.237 302.586C203.994 302.586 203.793 302.625 203.633 302.703C203.477 302.777 203.36 302.875 203.282 302.996C203.207 303.117 203.17 303.25 203.17 303.395C203.17 303.5 203.19 303.596 203.229 303.682C203.272 303.764 203.342 303.84 203.44 303.91C203.537 303.977 203.67 304.039 203.838 304.098C204.01 304.156 204.225 304.213 204.483 304.268C204.967 304.369 205.383 304.5 205.731 304.66C206.082 304.816 206.352 305.02 206.539 305.27C206.727 305.516 206.821 305.828 206.821 306.207C206.821 306.488 206.76 306.746 206.639 306.98C206.522 307.211 206.35 307.412 206.123 307.584C205.897 307.752 205.625 307.883 205.309 307.977C204.996 308.07 204.645 308.117 204.254 308.117C203.68 308.117 203.194 308.016 202.795 307.812C202.397 307.605 202.094 307.342 201.887 307.021C201.684 306.697 201.582 306.361 201.582 306.014H202.948C202.963 306.275 203.035 306.484 203.164 306.641C203.297 306.793 203.461 306.904 203.657 306.975C203.856 307.041 204.061 307.074 204.272 307.074C204.526 307.074 204.739 307.041 204.91 306.975C205.082 306.904 205.213 306.811 205.303 306.693C205.393 306.572 205.438 306.436 205.438 306.283ZM208.075 307.297C208.075 307.078 208.149 306.895 208.297 306.746C208.446 306.594 208.647 306.518 208.901 306.518C209.159 306.518 209.36 306.594 209.504 306.746C209.653 306.895 209.727 307.078 209.727 307.297C209.727 307.516 209.653 307.699 209.504 307.848C209.36 307.996 209.159 308.07 208.901 308.07C208.647 308.07 208.446 307.996 208.297 307.848C208.149 307.699 208.075 307.516 208.075 307.297ZM208.08 302.305C208.08 302.086 208.155 301.902 208.303 301.754C208.451 301.602 208.653 301.525 208.907 301.525C209.164 301.525 209.366 301.602 209.51 301.754C209.659 301.902 209.733 302.086 209.733 302.305C209.733 302.523 209.659 302.707 209.51 302.855C209.366 303.004 209.164 303.078 208.907 303.078C208.653 303.078 208.451 303.004 208.303 302.855C208.155 302.707 208.08 302.523 208.08 302.305ZM215.785 303.096H216.629C216.957 303.096 217.229 303.039 217.444 302.926C217.662 302.812 217.825 302.656 217.93 302.457C218.035 302.258 218.088 302.029 218.088 301.771C218.088 301.502 218.039 301.271 217.942 301.08C217.848 300.885 217.703 300.734 217.508 300.629C217.317 300.523 217.073 300.471 216.776 300.471C216.526 300.471 216.299 300.521 216.096 300.623C215.897 300.721 215.739 300.861 215.621 301.045C215.504 301.225 215.446 301.439 215.446 301.689H214.028C214.028 301.236 214.147 300.834 214.385 300.482C214.623 300.131 214.948 299.855 215.358 299.656C215.772 299.453 216.237 299.352 216.752 299.352C217.303 299.352 217.784 299.443 218.194 299.627C218.608 299.807 218.93 300.076 219.16 300.436C219.391 300.795 219.506 301.24 219.506 301.771C219.506 302.014 219.45 302.26 219.336 302.51C219.223 302.76 219.055 302.988 218.832 303.195C218.61 303.398 218.332 303.564 218 303.693C217.668 303.818 217.284 303.881 216.846 303.881H215.785V303.096ZM215.785 304.197V303.424H216.846C217.346 303.424 217.772 303.482 218.123 303.6C218.479 303.717 218.768 303.879 218.991 304.086C219.213 304.289 219.375 304.521 219.477 304.783C219.582 305.045 219.635 305.322 219.635 305.615C219.635 306.014 219.563 306.369 219.418 306.682C219.278 306.99 219.076 307.252 218.815 307.467C218.553 307.682 218.246 307.844 217.895 307.953C217.547 308.062 217.168 308.117 216.758 308.117C216.391 308.117 216.039 308.066 215.703 307.965C215.367 307.863 215.067 307.713 214.801 307.514C214.535 307.311 214.325 307.059 214.168 306.758C214.016 306.453 213.94 306.102 213.94 305.703H215.352C215.352 305.957 215.41 306.182 215.528 306.377C215.649 306.568 215.817 306.719 216.032 306.828C216.25 306.938 216.5 306.992 216.782 306.992C217.078 306.992 217.334 306.939 217.549 306.834C217.764 306.729 217.928 306.572 218.041 306.365C218.159 306.158 218.217 305.908 218.217 305.615C218.217 305.283 218.153 305.014 218.024 304.807C217.895 304.6 217.711 304.447 217.473 304.35C217.235 304.248 216.953 304.197 216.629 304.197H215.785ZM224.739 299.469L221.416 308.732H220.309L223.637 299.469H224.739ZM229.491 299.439V308H228.078V301.115L225.987 301.824V300.658L229.321 299.439H229.491ZM238.174 306.875V308H232.455V307.033L235.233 304.004C235.537 303.66 235.778 303.363 235.953 303.113C236.129 302.863 236.252 302.639 236.323 302.439C236.397 302.236 236.434 302.039 236.434 301.848C236.434 301.578 236.383 301.342 236.282 301.139C236.184 300.932 236.039 300.77 235.848 300.652C235.657 300.531 235.424 300.471 235.151 300.471C234.834 300.471 234.569 300.539 234.354 300.676C234.139 300.812 233.977 301.002 233.867 301.244C233.758 301.482 233.703 301.756 233.703 302.064H232.291C232.291 301.568 232.405 301.115 232.631 300.705C232.858 300.291 233.186 299.963 233.616 299.721C234.045 299.475 234.563 299.352 235.168 299.352C235.739 299.352 236.223 299.447 236.621 299.639C237.02 299.83 237.323 300.102 237.53 300.453C237.741 300.805 237.846 301.221 237.846 301.701C237.846 301.967 237.803 302.23 237.717 302.492C237.631 302.754 237.508 303.016 237.348 303.277C237.192 303.535 237.006 303.795 236.791 304.057C236.576 304.314 236.34 304.576 236.082 304.842L234.237 306.875H238.174Z" fill="#9A9FA5"/>
</svg>
