<svg width="271" height="140" viewBox="0 0 271 140" fill="none" xmlns="http://www.w3.org/2000/svg">
<rect x="0.5" y="0.5" width="270" height="139" rx="9.5" fill="white" stroke="#E3EBEE"/>
<path fill-rule="evenodd" clip-rule="evenodd" d="M36.749 23.75H28.124C26.5284 23.75 25.249 25.0294 25.249 26.625V43.875C25.249 45.4628 26.5362 46.75 28.124 46.75H51.124C52.7118 46.75 53.999 45.4628 53.999 43.875V29.5C53.999 27.9044 52.7053 26.625 51.124 26.625H39.624L36.749 23.75Z" fill="#5051F9"/>
<path d="M27.859 116V108.122L26.39 108.447V107.693L28.223 106.9H28.964V116H27.859ZM34.4339 116.156C33.6279 116.156 32.9302 115.961 32.3409 115.571C31.7602 115.172 31.3139 114.622 31.0019 113.92C30.6899 113.209 30.5339 112.386 30.5339 111.45C30.5339 110.514 30.6899 109.695 31.0019 108.993C31.3139 108.282 31.7602 107.732 32.3409 107.342C32.9302 106.943 33.6279 106.744 34.4339 106.744C35.2399 106.744 35.9332 106.943 36.5139 107.342C37.0945 107.732 37.5409 108.282 37.8529 108.993C38.1649 109.695 38.3209 110.514 38.3209 111.45C38.3209 112.386 38.1649 113.209 37.8529 113.92C37.5409 114.622 37.0945 115.172 36.5139 115.571C35.9332 115.961 35.2399 116.156 34.4339 116.156ZM34.4339 115.194C34.9625 115.194 35.4349 115.047 35.8509 114.752C36.2755 114.449 36.6049 114.02 36.8389 113.465C37.0815 112.902 37.2029 112.23 37.2029 111.45C37.2029 110.67 37.0815 110.003 36.8389 109.448C36.6049 108.893 36.2755 108.469 35.8509 108.174C35.4349 107.871 34.9625 107.719 34.4339 107.719C33.8965 107.719 33.4199 107.871 33.0039 108.174C32.5879 108.469 32.2585 108.893 32.0159 109.448C31.7732 110.003 31.6519 110.67 31.6519 111.45C31.6519 112.23 31.7732 112.902 32.0159 113.465C32.2585 114.02 32.5879 114.449 33.0039 114.752C33.4199 115.047 33.8965 115.194 34.4339 115.194ZM39.6286 116V115.233C40.2439 114.748 40.8246 114.258 41.3706 113.764C41.9252 113.261 42.4149 112.767 42.8396 112.282C43.2729 111.797 43.6109 111.32 43.8536 110.852C44.1049 110.384 44.2306 109.933 44.2306 109.5C44.2306 109.179 44.1742 108.88 44.0616 108.603C43.9576 108.326 43.7842 108.105 43.5416 107.94C43.2989 107.767 42.9696 107.68 42.5536 107.68C42.1549 107.68 41.8212 107.771 41.5526 107.953C41.2839 108.126 41.0802 108.36 40.9416 108.655C40.8116 108.95 40.7466 109.266 40.7466 109.604H39.6936C39.6936 109.006 39.8192 108.495 40.0706 108.07C40.3219 107.637 40.6642 107.307 41.0976 107.082C41.5309 106.857 42.0206 106.744 42.5666 106.744C43.3726 106.744 44.0312 106.974 44.5426 107.433C45.0626 107.884 45.3226 108.56 45.3226 109.461C45.3226 109.998 45.1882 110.531 44.9196 111.06C44.6509 111.58 44.3086 112.087 43.8926 112.581C43.4766 113.066 43.0302 113.521 42.5536 113.946C42.0856 114.371 41.6479 114.752 41.2406 115.09H45.6346V116H39.6286ZM50.9375 116V110.475H49.9625V109.552H50.9375V108.434C50.9375 107.81 51.0935 107.355 51.4055 107.069C51.7175 106.783 52.1725 106.64 52.7705 106.64H53.4205V107.576H52.9395C52.6101 107.576 52.3761 107.645 52.2375 107.784C52.0988 107.914 52.0295 108.139 52.0295 108.46V109.552H56.0335V116H54.9415V110.475H52.0295V116H50.9375ZM55.5005 108.317C55.2925 108.317 55.1148 108.248 54.9675 108.109C54.8201 107.962 54.7465 107.78 54.7465 107.563C54.7465 107.355 54.8201 107.182 54.9675 107.043C55.1148 106.904 55.2925 106.835 55.5005 106.835C55.7171 106.835 55.8948 106.904 56.0335 107.043C56.1808 107.182 56.2545 107.355 56.2545 107.563C56.2545 107.78 56.1808 107.962 56.0335 108.109C55.8948 108.248 55.7171 108.317 55.5005 108.317ZM57.9624 116V106.64H59.0544V116H57.9624ZM63.7433 116.156C63.1279 116.156 62.5819 116.017 62.1053 115.74C61.6286 115.454 61.2516 115.06 60.9743 114.557C60.7056 114.054 60.5713 113.461 60.5713 112.776C60.5713 112.1 60.7056 111.511 60.9743 111.008C61.2429 110.497 61.6156 110.102 62.0923 109.825C62.5776 109.539 63.1366 109.396 63.7693 109.396C64.3933 109.396 64.9306 109.539 65.3813 109.825C65.8406 110.102 66.1916 110.471 66.4343 110.93C66.6769 111.389 66.7983 111.883 66.7983 112.412C66.7983 112.507 66.7939 112.603 66.7853 112.698C66.7853 112.793 66.7853 112.902 66.7853 113.023H61.6503C61.6763 113.517 61.7889 113.929 61.9883 114.258C62.1963 114.579 62.4519 114.821 62.7553 114.986C63.0673 115.151 63.3966 115.233 63.7433 115.233C64.1939 115.233 64.5709 115.129 64.8743 114.921C65.1776 114.713 65.3986 114.431 65.5373 114.076H66.6163C66.4429 114.674 66.1093 115.172 65.6153 115.571C65.1299 115.961 64.5059 116.156 63.7433 116.156ZM63.7433 110.319C63.2233 110.319 62.7596 110.479 62.3523 110.8C61.9536 111.112 61.7239 111.571 61.6633 112.178H65.7193C65.6933 111.597 65.4939 111.142 65.1213 110.813C64.7486 110.484 64.2893 110.319 63.7433 110.319ZM70.7156 116.156C69.9443 116.156 69.303 115.961 68.7916 115.571C68.2803 115.181 67.9813 114.652 67.8946 113.985H69.0126C69.082 114.323 69.2596 114.618 69.5456 114.869C69.8403 115.112 70.2346 115.233 70.7286 115.233C71.188 115.233 71.526 115.138 71.7426 114.947C71.9593 114.748 72.0676 114.514 72.0676 114.245C72.0676 113.855 71.9246 113.595 71.6386 113.465C71.3613 113.335 70.967 113.218 70.4556 113.114C70.109 113.045 69.7623 112.945 69.4156 112.815C69.069 112.685 68.7786 112.503 68.5446 112.269C68.3106 112.026 68.1936 111.71 68.1936 111.32C68.1936 110.757 68.4016 110.297 68.8176 109.942C69.2423 109.578 69.8143 109.396 70.5336 109.396C71.2183 109.396 71.7773 109.569 72.2106 109.916C72.6526 110.254 72.9083 110.739 72.9776 111.372H71.8986C71.8553 111.043 71.7123 110.787 71.4696 110.605C71.2356 110.414 70.9193 110.319 70.5206 110.319C70.1306 110.319 69.8273 110.401 69.6106 110.566C69.4026 110.731 69.2986 110.947 69.2986 111.216C69.2986 111.476 69.433 111.68 69.7016 111.827C69.979 111.974 70.3516 112.1 70.8196 112.204C71.2183 112.291 71.5953 112.399 71.9506 112.529C72.3146 112.65 72.6093 112.837 72.8346 113.088C73.0686 113.331 73.1856 113.686 73.1856 114.154C73.1943 114.735 72.9733 115.216 72.5226 115.597C72.0806 115.97 71.4783 116.156 70.7156 116.156Z" fill="#768396"/>
<path d="M26.952 92V82.2H29.08L32.202 88.416L35.282 82.2H37.41V92H35.618V85.238L32.888 90.6H31.474L28.744 85.238V92H26.952ZM41.8734 92.168C41.0054 92.168 40.3334 91.8973 39.8574 91.356C39.3907 90.8147 39.1574 90.0213 39.1574 88.976V85.056H40.9354V88.808C40.9354 89.4053 41.0567 89.8627 41.2994 90.18C41.542 90.4973 41.9247 90.656 42.4474 90.656C42.942 90.656 43.348 90.4787 43.6654 90.124C43.992 89.7693 44.1554 89.2747 44.1554 88.64V85.056H45.9474V92H44.3654L44.2254 90.824C44.0107 91.2347 43.698 91.5613 43.2874 91.804C42.886 92.0467 42.4147 92.168 41.8734 92.168ZM50.657 92.168C50.041 92.168 49.4996 92.07 49.033 91.874C48.5663 91.6687 48.193 91.3887 47.913 91.034C47.633 90.6793 47.465 90.2687 47.409 89.802H49.215C49.271 90.0727 49.4203 90.306 49.663 90.502C49.915 90.6887 50.237 90.782 50.629 90.782C51.021 90.782 51.3056 90.7027 51.483 90.544C51.6696 90.3853 51.763 90.2033 51.763 89.998C51.763 89.6993 51.6323 89.4987 51.371 89.396C51.1096 89.284 50.7456 89.1767 50.279 89.074C49.9803 89.0087 49.677 88.9293 49.369 88.836C49.061 88.7427 48.7763 88.626 48.515 88.486C48.263 88.3367 48.0576 88.15 47.899 87.926C47.7403 87.6927 47.661 87.408 47.661 87.072C47.661 86.456 47.9036 85.938 48.389 85.518C48.8836 85.098 49.5743 84.888 50.461 84.888C51.2823 84.888 51.9356 85.0793 52.421 85.462C52.9156 85.8447 53.2096 86.372 53.303 87.044H51.609C51.5063 86.5307 51.119 86.274 50.447 86.274C50.111 86.274 49.8496 86.3393 49.663 86.47C49.4856 86.6007 49.397 86.764 49.397 86.96C49.397 87.1653 49.5323 87.3287 49.803 87.45C50.0736 87.5713 50.433 87.6833 50.881 87.786C51.3663 87.898 51.8096 88.024 52.211 88.164C52.6216 88.2947 52.9483 88.4953 53.191 88.766C53.4336 89.0273 53.555 89.4053 53.555 89.9C53.5643 90.3293 53.4523 90.7167 53.219 91.062C52.9856 91.4073 52.6496 91.678 52.211 91.874C51.7723 92.07 51.2543 92.168 50.657 92.168ZM56.1084 83.978C55.7818 83.978 55.5111 83.88 55.2964 83.684C55.0911 83.488 54.9884 83.2407 54.9884 82.942C54.9884 82.6433 55.0911 82.4007 55.2964 82.214C55.5111 82.018 55.7818 81.92 56.1084 81.92C56.4351 81.92 56.7011 82.018 56.9064 82.214C57.1211 82.4007 57.2284 82.6433 57.2284 82.942C57.2284 83.2407 57.1211 83.488 56.9064 83.684C56.7011 83.88 56.4351 83.978 56.1084 83.978ZM55.2124 92V85.056H57.0044V92H55.2124ZM62.2768 92.168C61.5675 92.168 60.9422 92.014 60.4008 91.706C59.8595 91.398 59.4302 90.9687 59.1128 90.418C58.8048 89.8673 58.6508 89.2373 58.6508 88.528C58.6508 87.8187 58.8048 87.1887 59.1128 86.638C59.4302 86.0873 59.8595 85.658 60.4008 85.35C60.9422 85.042 61.5675 84.888 62.2768 84.888C63.1635 84.888 63.9102 85.1213 64.5168 85.588C65.1235 86.0453 65.5108 86.68 65.6788 87.492H63.7888C63.6955 87.156 63.5088 86.8947 63.2288 86.708C62.9582 86.512 62.6362 86.414 62.2628 86.414C61.7682 86.414 61.3482 86.6007 61.0028 86.974C60.6575 87.3473 60.4848 87.8653 60.4848 88.528C60.4848 89.1907 60.6575 89.7087 61.0028 90.082C61.3482 90.4553 61.7682 90.642 62.2628 90.642C62.6362 90.642 62.9582 90.5487 63.2288 90.362C63.5088 90.1753 63.6955 89.9093 63.7888 89.564H65.6788C65.5108 90.348 65.1235 90.978 64.5168 91.454C63.9102 91.93 63.1635 92.168 62.2768 92.168Z" fill="#232360"/>
</svg>
