<svg width="271" height="140" viewBox="0 0 271 140" fill="none" xmlns="http://www.w3.org/2000/svg">
<rect width="271" height="140" fill="#E5E5E5"/>
<g clip-path="url(#clip0_55_329)">
<rect width="1440" height="1024" transform="translate(-445 -422)" fill="white"/>
<rect x="-440" y="-456" width="1440" height="1024" fill="#F3F4F8"/>
<rect x="-321" y="-240" width="913" height="410" rx="14" fill="white"/>
<rect x="0.5" y="0.5" width="270" height="139" rx="9.5" fill="white" stroke="#E3EBEE"/>
<path fill-rule="evenodd" clip-rule="evenodd" d="M35.749 23.75H27.124C25.5284 23.75 24.249 25.0294 24.249 26.625V43.875C24.249 45.4628 25.5362 46.75 27.124 46.75H50.124C51.7118 46.75 52.999 45.4628 52.999 43.875V29.5C52.999 27.9044 51.7053 26.625 50.124 26.625H38.624L35.749 23.75Z" fill="#34D870"/>
<path d="M25.819 116V115.233C26.4343 114.748 27.015 114.258 27.561 113.764C28.1157 113.261 28.6053 112.767 29.03 112.282C29.4633 111.797 29.8013 111.32 30.044 110.852C30.2953 110.384 30.421 109.933 30.421 109.5C30.421 109.179 30.3647 108.88 30.252 108.603C30.148 108.326 29.9747 108.105 29.732 107.94C29.4893 107.767 29.16 107.68 28.744 107.68C28.3453 107.68 28.0117 107.771 27.743 107.953C27.4743 108.126 27.2707 108.36 27.132 108.655C27.002 108.95 26.937 109.266 26.937 109.604H25.884C25.884 109.006 26.0097 108.495 26.261 108.07C26.5123 107.637 26.8547 107.307 27.288 107.082C27.7213 106.857 28.211 106.744 28.757 106.744C29.563 106.744 30.2217 106.974 30.733 107.433C31.253 107.884 31.513 108.56 31.513 109.461C31.513 109.998 31.3787 110.531 31.11 111.06C30.8413 111.58 30.499 112.087 30.083 112.581C29.667 113.066 29.2207 113.521 28.744 113.946C28.276 114.371 27.8383 114.752 27.431 115.09H31.825V116H25.819ZM33.2585 116V115.233C33.8738 114.748 34.4545 114.258 35.0005 113.764C35.5551 113.261 36.0448 112.767 36.4695 112.282C36.9028 111.797 37.2408 111.32 37.4835 110.852C37.7348 110.384 37.8605 109.933 37.8605 109.5C37.8605 109.179 37.8041 108.88 37.6915 108.603C37.5875 108.326 37.4141 108.105 37.1715 107.94C36.9288 107.767 36.5995 107.68 36.1835 107.68C35.7848 107.68 35.4511 107.771 35.1825 107.953C34.9138 108.126 34.7101 108.36 34.5715 108.655C34.4415 108.95 34.3765 109.266 34.3765 109.604H33.3235C33.3235 109.006 33.4491 108.495 33.7005 108.07C33.9518 107.637 34.2941 107.307 34.7275 107.082C35.1608 106.857 35.6505 106.744 36.1965 106.744C37.0025 106.744 37.6611 106.974 38.1725 107.433C38.6925 107.884 38.9525 108.56 38.9525 109.461C38.9525 109.998 38.8181 110.531 38.5495 111.06C38.2808 111.58 37.9385 112.087 37.5225 112.581C37.1065 113.066 36.6601 113.521 36.1835 113.946C35.7155 114.371 35.2778 114.752 34.8705 115.09H39.2645V116H33.2585ZM44.5673 116V110.475H43.5923V109.552H44.5673V108.434C44.5673 107.81 44.7233 107.355 45.0353 107.069C45.3473 106.783 45.8023 106.64 46.4003 106.64H47.0503V107.576H46.5693C46.24 107.576 46.006 107.645 45.8673 107.784C45.7287 107.914 45.6593 108.139 45.6593 108.46V109.552H49.6633V116H48.5713V110.475H45.6593V116H44.5673ZM49.1303 108.317C48.9223 108.317 48.7447 108.248 48.5973 108.109C48.45 107.962 48.3763 107.78 48.3763 107.563C48.3763 107.355 48.45 107.182 48.5973 107.043C48.7447 106.904 48.9223 106.835 49.1303 106.835C49.347 106.835 49.5247 106.904 49.6633 107.043C49.8107 107.182 49.8843 107.355 49.8843 107.563C49.8843 107.78 49.8107 107.962 49.6633 108.109C49.5247 108.248 49.347 108.317 49.1303 108.317ZM51.5923 116V106.64H52.6843V116H51.5923ZM57.3731 116.156C56.7578 116.156 56.2118 116.017 55.7351 115.74C55.2585 115.454 54.8815 115.06 54.6041 114.557C54.3355 114.054 54.2011 113.461 54.2011 112.776C54.2011 112.1 54.3355 111.511 54.6041 111.008C54.8728 110.497 55.2455 110.102 55.7221 109.825C56.2075 109.539 56.7665 109.396 57.3991 109.396C58.0231 109.396 58.5605 109.539 59.0111 109.825C59.4705 110.102 59.8215 110.471 60.0641 110.93C60.3068 111.389 60.4281 111.883 60.4281 112.412C60.4281 112.507 60.4238 112.603 60.4151 112.698C60.4151 112.793 60.4151 112.902 60.4151 113.023H55.2801C55.3061 113.517 55.4188 113.929 55.6181 114.258C55.8261 114.579 56.0818 114.821 56.3851 114.986C56.6971 115.151 57.0265 115.233 57.3731 115.233C57.8238 115.233 58.2008 115.129 58.5041 114.921C58.8075 114.713 59.0285 114.431 59.1671 114.076H60.2461C60.0728 114.674 59.7391 115.172 59.2451 115.571C58.7598 115.961 58.1358 116.156 57.3731 116.156ZM57.3731 110.319C56.8531 110.319 56.3895 110.479 55.9821 110.8C55.5835 111.112 55.3538 111.571 55.2931 112.178H59.3491C59.3231 111.597 59.1238 111.142 58.7511 110.813C58.3785 110.484 57.9191 110.319 57.3731 110.319ZM64.3455 116.156C63.5742 116.156 62.9328 115.961 62.4215 115.571C61.9102 115.181 61.6112 114.652 61.5245 113.985H62.6425C62.7118 114.323 62.8895 114.618 63.1755 114.869C63.4702 115.112 63.8645 115.233 64.3585 115.233C64.8178 115.233 65.1558 115.138 65.3725 114.947C65.5892 114.748 65.6975 114.514 65.6975 114.245C65.6975 113.855 65.5545 113.595 65.2685 113.465C64.9912 113.335 64.5968 113.218 64.0855 113.114C63.7388 113.045 63.3922 112.945 63.0455 112.815C62.6988 112.685 62.4085 112.503 62.1745 112.269C61.9405 112.026 61.8235 111.71 61.8235 111.32C61.8235 110.757 62.0315 110.297 62.4475 109.942C62.8722 109.578 63.4442 109.396 64.1635 109.396C64.8482 109.396 65.4072 109.569 65.8405 109.916C66.2825 110.254 66.5382 110.739 66.6075 111.372H65.5285C65.4852 111.043 65.3422 110.787 65.0995 110.605C64.8655 110.414 64.5492 110.319 64.1505 110.319C63.7605 110.319 63.4572 110.401 63.2405 110.566C63.0325 110.731 62.9285 110.947 62.9285 111.216C62.9285 111.476 63.0628 111.68 63.3315 111.827C63.6088 111.974 63.9815 112.1 64.4495 112.204C64.8482 112.291 65.2252 112.399 65.5805 112.529C65.9445 112.65 66.2392 112.837 66.4645 113.088C66.6985 113.331 66.8155 113.686 66.8155 114.154C66.8242 114.735 66.6032 115.216 66.1525 115.597C65.7105 115.97 65.1082 116.156 64.3455 116.156Z" fill="#768396"/>
<path d="M25.952 92V82.2H29.55C30.334 82.2 30.978 82.3353 31.482 82.606C31.9953 82.8673 32.378 83.2267 32.63 83.684C32.882 84.132 33.008 84.6313 33.008 85.182C33.008 85.7793 32.8493 86.3253 32.532 86.82C32.224 87.3147 31.7387 87.674 31.076 87.898L33.106 92H31.048L29.228 88.136H27.744V92H25.952ZM27.744 86.82H29.438C30.0353 86.82 30.474 86.6753 30.754 86.386C31.034 86.0967 31.174 85.714 31.174 85.238C31.174 84.7713 31.034 84.398 30.754 84.118C30.4833 83.838 30.04 83.698 29.424 83.698H27.744V86.82ZM37.5828 92.168C36.8828 92.168 36.2622 92.0187 35.7208 91.72C35.1795 91.4213 34.7548 91.0013 34.4468 90.46C34.1388 89.9187 33.9848 89.2933 33.9848 88.584C33.9848 87.8653 34.1342 87.226 34.4328 86.666C34.7408 86.106 35.1608 85.672 35.6928 85.364C36.2342 85.0467 36.8688 84.888 37.5968 84.888C38.2782 84.888 38.8802 85.0373 39.4028 85.336C39.9255 85.6347 40.3315 86.0453 40.6208 86.568C40.9195 87.0813 41.0688 87.6553 41.0688 88.29C41.0688 88.3927 41.0642 88.5 41.0548 88.612C41.0548 88.724 41.0502 88.8407 41.0408 88.962H35.7628C35.8002 89.5033 35.9868 89.928 36.3228 90.236C36.6682 90.544 37.0835 90.698 37.5688 90.698C37.9328 90.698 38.2362 90.6187 38.4788 90.46C38.7308 90.292 38.9175 90.0773 39.0388 89.816H40.8588C40.7282 90.2547 40.5088 90.656 40.2008 91.02C39.9022 91.3747 39.5288 91.6547 39.0808 91.86C38.6422 92.0653 38.1428 92.168 37.5828 92.168ZM37.5968 86.344C37.1582 86.344 36.7708 86.47 36.4348 86.722C36.0988 86.9647 35.8842 87.338 35.7908 87.842H39.2488C39.2208 87.3847 39.0528 87.0207 38.7448 86.75C38.4368 86.4793 38.0542 86.344 37.5968 86.344ZM45.768 92.168C45.1147 92.168 44.5313 92.0093 44.018 91.692C43.5047 91.3747 43.0987 90.9407 42.8 90.39C42.5013 89.8393 42.352 89.214 42.352 88.514C42.352 87.814 42.5013 87.1933 42.8 86.652C43.0987 86.1013 43.5047 85.672 44.018 85.364C44.5313 85.0467 45.1147 84.888 45.768 84.888C46.2907 84.888 46.748 84.986 47.14 85.182C47.532 85.378 47.8493 85.6533 48.092 86.008V81.92H49.884V92H48.288L48.092 91.006C47.868 91.314 47.5693 91.5847 47.196 91.818C46.832 92.0513 46.356 92.168 45.768 92.168ZM46.146 90.6C46.7247 90.6 47.196 90.4087 47.56 90.026C47.9333 89.634 48.12 89.1347 48.12 88.528C48.12 87.9213 47.9333 87.4267 47.56 87.044C47.196 86.652 46.7247 86.456 46.146 86.456C45.5767 86.456 45.1053 86.6473 44.732 87.03C44.3587 87.4127 44.172 87.9073 44.172 88.514C44.172 89.1207 44.3587 89.62 44.732 90.012C45.1053 90.404 45.5767 90.6 46.146 90.6ZM54.9008 92.168C54.2475 92.168 53.6642 92.0093 53.1508 91.692C52.6375 91.3747 52.2315 90.9407 51.9328 90.39C51.6342 89.8393 51.4848 89.214 51.4848 88.514C51.4848 87.814 51.6342 87.1933 51.9328 86.652C52.2315 86.1013 52.6375 85.672 53.1508 85.364C53.6642 85.0467 54.2475 84.888 54.9008 84.888C55.4235 84.888 55.8808 84.986 56.2728 85.182C56.6648 85.378 56.9822 85.6533 57.2248 86.008V81.92H59.0168V92H57.4208L57.2248 91.006C57.0008 91.314 56.7022 91.5847 56.3288 91.818C55.9648 92.0513 55.4888 92.168 54.9008 92.168ZM55.2788 90.6C55.8575 90.6 56.3288 90.4087 56.6928 90.026C57.0662 89.634 57.2528 89.1347 57.2528 88.528C57.2528 87.9213 57.0662 87.4267 56.6928 87.044C56.3288 86.652 55.8575 86.456 55.2788 86.456C54.7095 86.456 54.2382 86.6473 53.8648 87.03C53.4915 87.4127 53.3048 87.9073 53.3048 88.514C53.3048 89.1207 53.4915 89.62 53.8648 90.012C54.2382 90.404 54.7095 90.6 55.2788 90.6ZM61.8076 83.978C61.481 83.978 61.2103 83.88 60.9956 83.684C60.7903 83.488 60.6876 83.2407 60.6876 82.942C60.6876 82.6433 60.7903 82.4007 60.9956 82.214C61.2103 82.018 61.481 81.92 61.8076 81.92C62.1343 81.92 62.4003 82.018 62.6056 82.214C62.8203 82.4007 62.9276 82.6433 62.9276 82.942C62.9276 83.2407 62.8203 83.488 62.6056 83.684C62.4003 83.88 62.1343 83.978 61.8076 83.978ZM60.9116 92V85.056H62.7036V92H60.9116ZM64.5741 92V85.056H66.1561L66.2961 86.232C66.5107 85.8213 66.8187 85.4947 67.2201 85.252C67.6307 85.0093 68.1114 84.888 68.6621 84.888C69.5207 84.888 70.1881 85.1587 70.6641 85.7C71.1401 86.2413 71.3781 87.0347 71.3781 88.08V92H69.5861V88.248C69.5861 87.6507 69.4647 87.1933 69.2221 86.876C68.9794 86.5587 68.6014 86.4 68.0881 86.4C67.5841 86.4 67.1687 86.5773 66.8421 86.932C66.5247 87.2867 66.3661 87.7813 66.3661 88.416V92H64.5741ZM76.0316 89.928C75.6956 89.928 75.383 89.8907 75.0936 89.816L74.5756 90.334C74.7343 90.418 74.949 90.488 75.2196 90.544C75.4903 90.6 75.929 90.656 76.5356 90.712C77.4596 90.796 78.1316 91.0153 78.5516 91.37C78.9716 91.7247 79.1816 92.2147 79.1816 92.84C79.1816 93.2507 79.0696 93.638 78.8456 94.002C78.6216 94.3753 78.2763 94.674 77.8096 94.898C77.343 95.1313 76.7456 95.248 76.0176 95.248C75.0283 95.248 74.2303 95.0613 73.6236 94.688C73.017 94.324 72.7136 93.7733 72.7136 93.036C72.7136 92.4107 73.017 91.8693 73.6236 91.412C73.437 91.328 73.2736 91.2393 73.1336 91.146C73.003 91.0527 72.8863 90.9547 72.7836 90.852V90.53L74.0016 89.242C73.4603 88.766 73.1896 88.1547 73.1896 87.408C73.1896 86.9413 73.3016 86.5167 73.5256 86.134C73.759 85.7513 74.0856 85.448 74.5056 85.224C74.9256 85 75.4343 84.888 76.0316 84.888C76.4236 84.888 76.7876 84.944 77.1236 85.056H79.7556V86.148L78.5656 86.232C78.7523 86.5867 78.8456 86.9787 78.8456 87.408C78.8456 87.8747 78.7336 88.2993 78.5096 88.682C78.2856 89.0647 77.959 89.368 77.5296 89.592C77.1096 89.816 76.6103 89.928 76.0316 89.928ZM76.0316 88.556C76.3956 88.556 76.6943 88.458 76.9276 88.262C77.1703 88.066 77.2916 87.786 77.2916 87.422C77.2916 87.058 77.1703 86.778 76.9276 86.582C76.6943 86.386 76.3956 86.288 76.0316 86.288C75.649 86.288 75.341 86.386 75.1076 86.582C74.8743 86.778 74.7576 87.058 74.7576 87.422C74.7576 87.786 74.8743 88.066 75.1076 88.262C75.341 88.458 75.649 88.556 76.0316 88.556ZM74.3516 92.854C74.3516 93.1993 74.5103 93.456 74.8276 93.624C75.1543 93.8013 75.551 93.89 76.0176 93.89C76.4656 93.89 76.8296 93.7967 77.1096 93.61C77.3896 93.4327 77.5296 93.19 77.5296 92.882C77.5296 92.63 77.4363 92.42 77.2496 92.252C77.0723 92.084 76.713 91.9813 76.1716 91.944C75.789 91.916 75.4343 91.874 75.1076 91.818C74.837 91.9673 74.641 92.1307 74.5196 92.308C74.4076 92.4853 74.3516 92.6673 74.3516 92.854ZM84.1209 92.168C83.4489 92.168 82.8422 92.014 82.3009 91.706C81.7689 91.398 81.3442 90.9733 81.0269 90.432C80.7189 89.8813 80.5649 89.2467 80.5649 88.528C80.5649 87.8093 80.7236 87.1793 81.0409 86.638C81.3582 86.0873 81.7829 85.658 82.3149 85.35C82.8562 85.042 83.4629 84.888 84.1349 84.888C84.7976 84.888 85.3949 85.042 85.9269 85.35C86.4682 85.658 86.8929 86.0873 87.2009 86.638C87.5182 87.1793 87.6769 87.8093 87.6769 88.528C87.6769 89.2467 87.5182 89.8813 87.2009 90.432C86.8929 90.9733 86.4682 91.398 85.9269 91.706C85.3856 92.014 84.7836 92.168 84.1209 92.168ZM84.1209 90.614C84.5876 90.614 84.9936 90.4413 85.3389 90.096C85.6842 89.7413 85.8569 89.2187 85.8569 88.528C85.8569 87.8373 85.6842 87.3193 85.3389 86.974C84.9936 86.6193 84.5922 86.442 84.1349 86.442C83.6589 86.442 83.2482 86.6193 82.9029 86.974C82.5669 87.3193 82.3989 87.8373 82.3989 88.528C82.3989 89.2187 82.5669 89.7413 82.9029 90.096C83.2482 90.4413 83.6542 90.614 84.1209 90.614ZM92.6571 92V82.2H96.5911C97.6084 82.2 98.3831 82.438 98.9151 82.914C99.4564 83.3807 99.7271 83.9827 99.7271 84.72C99.7271 85.336 99.5591 85.8307 99.2231 86.204C98.8964 86.568 98.4951 86.8153 98.0191 86.946C98.5791 87.058 99.0411 87.338 99.4051 87.786C99.7691 88.2247 99.9511 88.738 99.9511 89.326C99.9511 90.1007 99.6711 90.74 99.1111 91.244C98.5511 91.748 97.7577 92 96.7311 92H92.6571ZM94.4491 86.316H96.3251C96.8291 86.316 97.2164 86.1993 97.4871 85.966C97.7577 85.7327 97.8931 85.4013 97.8931 84.972C97.8931 84.5613 97.7577 84.2393 97.4871 84.006C97.2257 83.7633 96.8291 83.642 96.2971 83.642H94.4491V86.316ZM94.4491 90.544H96.4511C96.9831 90.544 97.3937 90.4227 97.6831 90.18C97.9817 89.928 98.1311 89.578 98.1311 89.13C98.1311 88.6727 97.9771 88.3133 97.6691 88.052C97.3611 87.7907 96.9457 87.66 96.4231 87.66H94.4491V90.544ZM103.841 92.168C103.244 92.168 102.754 92.0747 102.371 91.888C101.988 91.692 101.704 91.4353 101.517 91.118C101.33 90.8007 101.237 90.4507 101.237 90.068C101.237 89.424 101.489 88.9013 101.993 88.5C102.497 88.0987 103.253 87.898 104.261 87.898H106.025V87.73C106.025 87.254 105.89 86.904 105.619 86.68C105.348 86.456 105.012 86.344 104.611 86.344C104.247 86.344 103.93 86.4327 103.659 86.61C103.388 86.778 103.22 87.03 103.155 87.366H101.405C101.452 86.862 101.62 86.4233 101.909 86.05C102.208 85.6767 102.59 85.392 103.057 85.196C103.524 84.9907 104.046 84.888 104.625 84.888C105.614 84.888 106.394 85.1353 106.963 85.63C107.532 86.1247 107.817 86.8247 107.817 87.73V92H106.291L106.123 90.88C105.918 91.2533 105.628 91.5613 105.255 91.804C104.891 92.0467 104.42 92.168 103.841 92.168ZM104.247 90.768C104.76 90.768 105.157 90.6 105.437 90.264C105.726 89.928 105.908 89.5127 105.983 89.018H104.457C103.981 89.018 103.64 89.1067 103.435 89.284C103.23 89.452 103.127 89.662 103.127 89.914C103.127 90.1847 103.23 90.3947 103.435 90.544C103.64 90.6933 103.911 90.768 104.247 90.768ZM112.929 92.168C112.22 92.168 111.595 92.014 111.053 91.706C110.512 91.398 110.083 90.9687 109.765 90.418C109.457 89.8673 109.303 89.2373 109.303 88.528C109.303 87.8187 109.457 87.1887 109.765 86.638C110.083 86.0873 110.512 85.658 111.053 85.35C111.595 85.042 112.22 84.888 112.929 84.888C113.816 84.888 114.563 85.1213 115.169 85.588C115.776 86.0453 116.163 86.68 116.331 87.492H114.441C114.348 87.156 114.161 86.8947 113.881 86.708C113.611 86.512 113.289 86.414 112.915 86.414C112.421 86.414 112.001 86.6007 111.655 86.974C111.31 87.3473 111.137 87.8653 111.137 88.528C111.137 89.1907 111.31 89.7087 111.655 90.082C112.001 90.4553 112.421 90.642 112.915 90.642C113.289 90.642 113.611 90.5487 113.881 90.362C114.161 90.1753 114.348 89.9093 114.441 89.564H116.331C116.163 90.348 115.776 90.978 115.169 91.454C114.563 91.93 113.816 92.168 112.929 92.168ZM117.922 92V81.92H119.714V87.87L122.178 85.056H124.306L121.464 88.22L124.768 92H122.528L119.714 88.514V92H117.922ZM128.483 92.168C127.615 92.168 126.943 91.8973 126.467 91.356C126 90.8147 125.767 90.0213 125.767 88.976V85.056H127.545V88.808C127.545 89.4053 127.666 89.8627 127.909 90.18C128.151 90.4973 128.534 90.656 129.057 90.656C129.551 90.656 129.957 90.4787 130.275 90.124C130.601 89.7693 130.765 89.2747 130.765 88.64V85.056H132.557V92H130.975L130.835 90.824C130.62 91.2347 130.307 91.5613 129.897 91.804C129.495 92.0467 129.024 92.168 128.483 92.168ZM134.396 95.08V85.056H135.992L136.188 86.05C136.412 85.742 136.706 85.4713 137.07 85.238C137.444 85.0047 137.924 84.888 138.512 84.888C139.166 84.888 139.749 85.0467 140.262 85.364C140.776 85.6813 141.182 86.1153 141.48 86.666C141.779 87.2167 141.928 87.842 141.928 88.542C141.928 89.242 141.779 89.8673 141.48 90.418C141.182 90.9593 140.776 91.3887 140.262 91.706C139.749 92.014 139.166 92.168 138.512 92.168C137.99 92.168 137.532 92.07 137.14 91.874C136.748 91.678 136.431 91.4027 136.188 91.048V95.08H134.396ZM138.134 90.6C138.704 90.6 139.175 90.4087 139.548 90.026C139.922 89.6433 140.108 89.1487 140.108 88.542C140.108 87.9353 139.922 87.436 139.548 87.044C139.175 86.652 138.704 86.456 138.134 86.456C137.556 86.456 137.08 86.652 136.706 87.044C136.342 87.4267 136.16 87.9213 136.16 88.528C136.16 89.1347 136.342 89.634 136.706 90.026C137.08 90.4087 137.556 90.6 138.134 90.6Z" fill="#232360"/>
<rect x="221" y="18" width="30" height="30" rx="9" fill="white"/>
<rect x="223" y="20" width="26" height="26" rx="9" fill="#CDADE6"/>
<path d="M231.952 38V28.2H235.298C236.446 28.2 237.389 28.4053 238.126 28.816C238.873 29.2173 239.423 29.7867 239.778 30.524C240.142 31.252 240.324 32.1107 240.324 33.1C240.324 34.0893 240.142 34.9527 239.778 35.69C239.423 36.418 238.873 36.9873 238.126 37.398C237.389 37.7993 236.446 38 235.298 38H231.952ZM233.744 36.46H235.214C236.035 36.46 236.684 36.3293 237.16 36.068C237.636 35.7973 237.977 35.4147 238.182 34.92C238.387 34.416 238.49 33.8093 238.49 33.1C238.49 32.4 238.387 31.798 238.182 31.294C237.977 30.79 237.636 30.4027 237.16 30.132C236.684 29.8613 236.035 29.726 235.214 29.726H233.744V36.46Z" fill="white"/>
</g>
<defs>
<clipPath id="clip0_55_329">
<rect width="1440" height="1024" fill="white" transform="translate(-445 -422)"/>
</clipPath>
</defs>
</svg>
