<svg width="271" height="140" viewBox="0 0 271 140" fill="none" xmlns="http://www.w3.org/2000/svg">
<rect x="0.5" y="0.5" width="270" height="139" rx="9.5" fill="white" stroke="#E3EBEE"/>
<path d="M26.952 92V82.2H30.298C31.446 82.2 32.3887 82.4053 33.126 82.816C33.8727 83.2173 34.4233 83.7867 34.778 84.524C35.142 85.252 35.324 86.1107 35.324 87.1C35.324 88.0893 35.142 88.9527 34.778 89.69C34.4233 90.418 33.8727 90.9873 33.126 91.398C32.3887 91.7993 31.446 92 30.298 92H26.952ZM28.744 90.46H30.214C31.0353 90.46 31.684 90.3293 32.16 90.068C32.636 89.7973 32.9767 89.4147 33.182 88.92C33.3873 88.416 33.49 87.8093 33.49 87.1C33.49 86.4 33.3873 85.798 33.182 85.294C32.9767 84.79 32.636 84.4027 32.16 84.132C31.684 83.8613 31.0353 83.726 30.214 83.726H28.744V90.46ZM40.1951 92.168C39.5231 92.168 38.9165 92.014 38.3751 91.706C37.8431 91.398 37.4185 90.9733 37.1011 90.432C36.7931 89.8813 36.6391 89.2467 36.6391 88.528C36.6391 87.8093 36.7978 87.1793 37.1151 86.638C37.4325 86.0873 37.8571 85.658 38.3891 85.35C38.9305 85.042 39.5371 84.888 40.2091 84.888C40.8718 84.888 41.4691 85.042 42.0011 85.35C42.5425 85.658 42.9671 86.0873 43.2751 86.638C43.5925 87.1793 43.7511 87.8093 43.7511 88.528C43.7511 89.2467 43.5925 89.8813 43.2751 90.432C42.9671 90.9733 42.5425 91.398 42.0011 91.706C41.4598 92.014 40.8578 92.168 40.1951 92.168ZM40.1951 90.614C40.6618 90.614 41.0678 90.4413 41.4131 90.096C41.7585 89.7413 41.9311 89.2187 41.9311 88.528C41.9311 87.8373 41.7585 87.3193 41.4131 86.974C41.0678 86.6193 40.6665 86.442 40.2091 86.442C39.7331 86.442 39.3225 86.6193 38.9771 86.974C38.6411 87.3193 38.4731 87.8373 38.4731 88.528C38.4731 89.2187 38.6411 89.7413 38.9771 90.096C39.3225 90.4413 39.7285 90.614 40.1951 90.614ZM48.7554 92.168C48.046 92.168 47.4207 92.014 46.8794 91.706C46.338 91.398 45.9087 90.9687 45.5914 90.418C45.2834 89.8673 45.1294 89.2373 45.1294 88.528C45.1294 87.8187 45.2834 87.1887 45.5914 86.638C45.9087 86.0873 46.338 85.658 46.8794 85.35C47.4207 85.042 48.046 84.888 48.7554 84.888C49.642 84.888 50.3887 85.1213 50.9954 85.588C51.602 86.0453 51.9894 86.68 52.1574 87.492H50.2674C50.174 87.156 49.9874 86.8947 49.7074 86.708C49.4367 86.512 49.1147 86.414 48.7414 86.414C48.2467 86.414 47.8267 86.6007 47.4814 86.974C47.136 87.3473 46.9634 87.8653 46.9634 88.528C46.9634 89.1907 47.136 89.7087 47.4814 90.082C47.8267 90.4553 48.2467 90.642 48.7414 90.642C49.1147 90.642 49.4367 90.5487 49.7074 90.362C49.9874 90.1753 50.174 89.9093 50.2674 89.564H52.1574C51.9894 90.348 51.602 90.978 50.9954 91.454C50.3887 91.93 49.642 92.168 48.7554 92.168ZM56.3519 92.168C55.4839 92.168 54.8119 91.8973 54.3359 91.356C53.8692 90.8147 53.6359 90.0213 53.6359 88.976V85.056H55.4139V88.808C55.4139 89.4053 55.5352 89.8627 55.7779 90.18C56.0206 90.4973 56.4032 90.656 56.9259 90.656C57.4206 90.656 57.8266 90.4787 58.1439 90.124C58.4706 89.7693 58.6339 89.2747 58.6339 88.64V85.056H60.4259V92H58.8439L58.7039 90.824C58.4892 91.2347 58.1766 91.5613 57.7659 91.804C57.3646 92.0467 56.8932 92.168 56.3519 92.168ZM62.2655 92V85.056H63.8475L64.0015 85.994C64.2255 85.658 64.5195 85.392 64.8835 85.196C65.2568 84.9907 65.6861 84.888 66.1715 84.888C67.2448 84.888 68.0055 85.3033 68.4535 86.134C68.7055 85.7513 69.0415 85.448 69.4615 85.224C69.8908 85 70.3575 84.888 70.8615 84.888C71.7668 84.888 72.4621 85.1587 72.9475 85.7C73.4328 86.2413 73.6755 87.0347 73.6755 88.08V92H71.8835V88.248C71.8835 87.6507 71.7668 87.1933 71.5335 86.876C71.3095 86.5587 70.9595 86.4 70.4835 86.4C69.9981 86.4 69.6061 86.5773 69.3075 86.932C69.0181 87.2867 68.8735 87.7813 68.8735 88.416V92H67.0815V88.248C67.0815 87.6507 66.9648 87.1933 66.7315 86.876C66.4981 86.5587 66.1388 86.4 65.6535 86.4C65.1775 86.4 64.7901 86.5773 64.4915 86.932C64.2021 87.2867 64.0575 87.7813 64.0575 88.416V92H62.2655ZM78.7508 92.168C78.0508 92.168 77.4301 92.0187 76.8888 91.72C76.3475 91.4213 75.9228 91.0013 75.6148 90.46C75.3068 89.9187 75.1528 89.2933 75.1528 88.584C75.1528 87.8653 75.3021 87.226 75.6008 86.666C75.9088 86.106 76.3288 85.672 76.8608 85.364C77.4021 85.0467 78.0368 84.888 78.7648 84.888C79.4461 84.888 80.0481 85.0373 80.5708 85.336C81.0935 85.6347 81.4995 86.0453 81.7888 86.568C82.0875 87.0813 82.2368 87.6553 82.2368 88.29C82.2368 88.3927 82.2321 88.5 82.2228 88.612C82.2228 88.724 82.2181 88.8407 82.2088 88.962H76.9308C76.9681 89.5033 77.1548 89.928 77.4908 90.236C77.8361 90.544 78.2515 90.698 78.7368 90.698C79.1008 90.698 79.4041 90.6187 79.6468 90.46C79.8988 90.292 80.0855 90.0773 80.2068 89.816H82.0268C81.8961 90.2547 81.6768 90.656 81.3688 91.02C81.0701 91.3747 80.6968 91.6547 80.2488 91.86C79.8101 92.0653 79.3108 92.168 78.7508 92.168ZM78.7648 86.344C78.3261 86.344 77.9388 86.47 77.6028 86.722C77.2668 86.9647 77.0521 87.338 76.9588 87.842H80.4168C80.3888 87.3847 80.2208 87.0207 79.9128 86.75C79.6048 86.4793 79.2221 86.344 78.7648 86.344ZM83.744 92V85.056H85.326L85.466 86.232C85.6807 85.8213 85.9887 85.4947 86.39 85.252C86.8007 85.0093 87.2813 84.888 87.832 84.888C88.6907 84.888 89.358 85.1587 89.834 85.7C90.31 86.2413 90.548 87.0347 90.548 88.08V92H88.756V88.248C88.756 87.6507 88.6347 87.1933 88.392 86.876C88.1493 86.5587 87.7713 86.4 87.258 86.4C86.754 86.4 86.3387 86.5773 86.012 86.932C85.6947 87.2867 85.536 87.7813 85.536 88.416V92H83.744ZM95.3556 92C94.6276 92 94.0442 91.8227 93.6056 91.468C93.1669 91.1133 92.9476 90.4833 92.9476 89.578V86.554H91.7576V85.056H92.9476L93.1576 83.194H94.7396V85.056H96.6156V86.554H94.7396V89.592C94.7396 89.928 94.8096 90.1613 94.9496 90.292C95.0989 90.4133 95.3509 90.474 95.7056 90.474H96.5736V92H95.3556ZM101.024 92.168C100.408 92.168 99.8668 92.07 99.4001 91.874C98.9335 91.6687 98.5601 91.3887 98.2801 91.034C98.0001 90.6793 97.8321 90.2687 97.7761 89.802H99.5821C99.6381 90.0727 99.7875 90.306 100.03 90.502C100.282 90.6887 100.604 90.782 100.996 90.782C101.388 90.782 101.673 90.7027 101.85 90.544C102.037 90.3853 102.13 90.2033 102.13 89.998C102.13 89.6993 101.999 89.4987 101.738 89.396C101.477 89.284 101.113 89.1767 100.646 89.074C100.347 89.0087 100.044 88.9293 99.7361 88.836C99.4281 88.7427 99.1435 88.626 98.8821 88.486C98.6301 88.3367 98.4248 88.15 98.2661 87.926C98.1075 87.6927 98.0281 87.408 98.0281 87.072C98.0281 86.456 98.2708 85.938 98.7561 85.518C99.2508 85.098 99.9415 84.888 100.828 84.888C101.649 84.888 102.303 85.0793 102.788 85.462C103.283 85.8447 103.577 86.372 103.67 87.044H101.976C101.873 86.5307 101.486 86.274 100.814 86.274C100.478 86.274 100.217 86.3393 100.03 86.47C99.8528 86.6007 99.7641 86.764 99.7641 86.96C99.7641 87.1653 99.8995 87.3287 100.17 87.45C100.441 87.5713 100.8 87.6833 101.248 87.786C101.733 87.898 102.177 88.024 102.578 88.164C102.989 88.2947 103.315 88.4953 103.558 88.766C103.801 89.0273 103.922 89.4053 103.922 89.9C103.931 90.3293 103.819 90.7167 103.586 91.062C103.353 91.4073 103.017 91.678 102.578 91.874C102.139 92.07 101.621 92.168 101.024 92.168Z" fill="#232360"/>
<path d="M29.796 116.156C29.2153 116.156 28.691 116.052 28.223 115.844C27.755 115.627 27.378 115.307 27.092 114.882C26.8147 114.457 26.6673 113.929 26.65 113.296H27.755C27.7637 113.816 27.9457 114.267 28.301 114.648C28.6563 115.021 29.1547 115.207 29.796 115.207C30.4373 115.207 30.9183 115.029 31.239 114.674C31.5683 114.319 31.733 113.89 31.733 113.387C31.733 112.962 31.629 112.616 31.421 112.347C31.2217 112.078 30.9487 111.879 30.602 111.749C30.264 111.619 29.8913 111.554 29.484 111.554H28.808V110.631H29.484C30.0733 110.631 30.5327 110.497 30.862 110.228C31.2 109.959 31.369 109.582 31.369 109.097C31.369 108.69 31.2347 108.356 30.966 108.096C30.706 107.827 30.316 107.693 29.796 107.693C29.2933 107.693 28.8903 107.845 28.587 108.148C28.2837 108.443 28.1147 108.815 28.08 109.266H26.975C27.001 108.772 27.131 108.334 27.365 107.953C27.6077 107.572 27.937 107.277 28.353 107.069C28.769 106.852 29.25 106.744 29.796 106.744C30.3853 106.744 30.875 106.848 31.265 107.056C31.6637 107.264 31.9627 107.541 32.162 107.888C32.37 108.235 32.474 108.616 32.474 109.032C32.474 109.491 32.3483 109.912 32.097 110.293C31.8457 110.666 31.4687 110.917 30.966 111.047C31.5033 111.16 31.9497 111.415 32.305 111.814C32.6603 112.213 32.838 112.737 32.838 113.387C32.838 113.89 32.721 114.353 32.487 114.778C32.2617 115.194 31.9237 115.528 31.473 115.779C31.0223 116.03 30.4633 116.156 29.796 116.156ZM38.7256 116V114.05H34.1106V113.205L38.5306 106.9H39.8046V113.088H41.1566V114.05H39.8046V116H38.7256ZM35.3196 113.088H38.7776V108.109L35.3196 113.088ZM42.3327 116V115.233C42.948 114.748 43.5287 114.258 44.0747 113.764C44.6293 113.261 45.119 112.767 45.5437 112.282C45.977 111.797 46.315 111.32 46.5577 110.852C46.809 110.384 46.9347 109.933 46.9347 109.5C46.9347 109.179 46.8783 108.88 46.7657 108.603C46.6617 108.326 46.4883 108.105 46.2457 107.94C46.003 107.767 45.6737 107.68 45.2577 107.68C44.859 107.68 44.5253 107.771 44.2567 107.953C43.988 108.126 43.7843 108.36 43.6457 108.655C43.5157 108.95 43.4507 109.266 43.4507 109.604H42.3977C42.3977 109.006 42.5233 108.495 42.7747 108.07C43.026 107.637 43.3683 107.307 43.8017 107.082C44.235 106.857 44.7247 106.744 45.2707 106.744C46.0767 106.744 46.7353 106.974 47.2467 107.433C47.7667 107.884 48.0267 108.56 48.0267 109.461C48.0267 109.998 47.8923 110.531 47.6237 111.06C47.355 111.58 47.0127 112.087 46.5967 112.581C46.1807 113.066 45.7343 113.521 45.2577 113.946C44.7897 114.371 44.352 114.752 43.9447 115.09H48.3387V116H42.3327ZM53.8203 116V114.05H49.2053V113.205L53.6253 106.9H54.8993V113.088H56.2513V114.05H54.8993V116H53.8203ZM50.4143 113.088H53.8723V108.109L50.4143 113.088ZM61.2968 116V110.475H60.3218V109.552H61.2968V108.434C61.2968 107.81 61.4528 107.355 61.7648 107.069C62.0768 106.783 62.5318 106.64 63.1298 106.64H63.7798V107.576H63.2988C62.9695 107.576 62.7355 107.645 62.5968 107.784C62.4582 107.914 62.3888 108.139 62.3888 108.46V109.552H66.3928V116H65.3008V110.475H62.3888V116H61.2968ZM65.8598 108.317C65.6518 108.317 65.4742 108.248 65.3268 108.109C65.1795 107.962 65.1058 107.78 65.1058 107.563C65.1058 107.355 65.1795 107.182 65.3268 107.043C65.4742 106.904 65.6518 106.835 65.8598 106.835C66.0765 106.835 66.2542 106.904 66.3928 107.043C66.5402 107.182 66.6138 107.355 66.6138 107.563C66.6138 107.78 66.5402 107.962 66.3928 108.109C66.2542 108.248 66.0765 108.317 65.8598 108.317ZM68.3218 116V106.64H69.4138V116H68.3218ZM74.1026 116.156C73.4873 116.156 72.9413 116.017 72.4646 115.74C71.988 115.454 71.611 115.06 71.3336 114.557C71.065 114.054 70.9306 113.461 70.9306 112.776C70.9306 112.1 71.065 111.511 71.3336 111.008C71.6023 110.497 71.975 110.102 72.4516 109.825C72.937 109.539 73.496 109.396 74.1286 109.396C74.7526 109.396 75.29 109.539 75.7406 109.825C76.2 110.102 76.551 110.471 76.7936 110.93C77.0363 111.389 77.1576 111.883 77.1576 112.412C77.1576 112.507 77.1533 112.603 77.1446 112.698C77.1446 112.793 77.1446 112.902 77.1446 113.023H72.0096C72.0356 113.517 72.1483 113.929 72.3476 114.258C72.5556 114.579 72.8113 114.821 73.1146 114.986C73.4266 115.151 73.756 115.233 74.1026 115.233C74.5533 115.233 74.9303 115.129 75.2336 114.921C75.537 114.713 75.758 114.431 75.8966 114.076H76.9756C76.8023 114.674 76.4686 115.172 75.9746 115.571C75.4893 115.961 74.8653 116.156 74.1026 116.156ZM74.1026 110.319C73.5826 110.319 73.119 110.479 72.7116 110.8C72.313 111.112 72.0833 111.571 72.0226 112.178H76.0786C76.0526 111.597 75.8533 111.142 75.4806 110.813C75.108 110.484 74.6486 110.319 74.1026 110.319ZM81.075 116.156C80.3037 116.156 79.6623 115.961 79.151 115.571C78.6397 115.181 78.3407 114.652 78.254 113.985H79.372C79.4413 114.323 79.619 114.618 79.905 114.869C80.1997 115.112 80.594 115.233 81.088 115.233C81.5473 115.233 81.8853 115.138 82.102 114.947C82.3187 114.748 82.427 114.514 82.427 114.245C82.427 113.855 82.284 113.595 81.998 113.465C81.7207 113.335 81.3263 113.218 80.815 113.114C80.4683 113.045 80.1217 112.945 79.775 112.815C79.4283 112.685 79.138 112.503 78.904 112.269C78.67 112.026 78.553 111.71 78.553 111.32C78.553 110.757 78.761 110.297 79.177 109.942C79.6017 109.578 80.1737 109.396 80.893 109.396C81.5777 109.396 82.1367 109.569 82.57 109.916C83.012 110.254 83.2677 110.739 83.337 111.372H82.258C82.2147 111.043 82.0717 110.787 81.829 110.605C81.595 110.414 81.2787 110.319 80.88 110.319C80.49 110.319 80.1867 110.401 79.97 110.566C79.762 110.731 79.658 110.947 79.658 111.216C79.658 111.476 79.7923 111.68 80.061 111.827C80.3383 111.974 80.711 112.1 81.179 112.204C81.5777 112.291 81.9547 112.399 82.31 112.529C82.674 112.65 82.9687 112.837 83.194 113.088C83.428 113.331 83.545 113.686 83.545 114.154C83.5537 114.735 83.3327 115.216 82.882 115.597C82.44 115.97 81.8377 116.156 81.075 116.156Z" fill="#768396"/>
<path fill-rule="evenodd" clip-rule="evenodd" d="M36.749 23.75H28.124C26.5284 23.75 25.249 25.0294 25.249 26.625V43.875C25.249 45.4628 26.5362 46.75 28.124 46.75H51.124C52.7118 46.75 53.999 45.4628 53.999 43.875V29.5C53.999 27.9044 52.7053 26.625 51.124 26.625H39.624L36.749 23.75Z" fill="#1EA7FF"/>
<rect x="171" y="18" width="30" height="30" rx="9" fill="white"/>
<rect x="173" y="20" width="26" height="26" rx="9" fill="#F24E1E"/>
<path d="M181.322 38L184.906 28.2H186.922L190.506 38H188.602L187.818 35.732H183.996L183.198 38H181.322ZM184.486 34.332H187.328L185.9 30.258L184.486 34.332Z" fill="white"/>
<rect x="195" y="18" width="30" height="30" rx="9" fill="white"/>
<rect x="197" y="20" width="26" height="26" rx="9" fill="#EDA0A8"/>
<path d="M210.39 38.168C209.401 38.168 208.551 37.958 207.842 37.538C207.133 37.1087 206.587 36.516 206.204 35.76C205.821 34.9947 205.63 34.1127 205.63 33.114C205.63 32.1153 205.821 31.2333 206.204 30.468C206.587 29.7027 207.133 29.1053 207.842 28.676C208.551 28.2467 209.401 28.032 210.39 28.032C211.566 28.032 212.527 28.326 213.274 28.914C214.03 29.4927 214.501 30.3093 214.688 31.364H212.714C212.593 30.832 212.331 30.4167 211.93 30.118C211.538 29.81 211.015 29.656 210.362 29.656C209.457 29.656 208.747 29.964 208.234 30.58C207.721 31.196 207.464 32.0407 207.464 33.114C207.464 34.1873 207.721 35.032 208.234 35.648C208.747 36.2547 209.457 36.558 210.362 36.558C211.015 36.558 211.538 36.418 211.93 36.138C212.331 35.8487 212.593 35.452 212.714 34.948H214.688C214.501 35.956 214.03 36.7447 213.274 37.314C212.527 37.8833 211.566 38.168 210.39 38.168Z" fill="white"/>
<rect x="219" y="18" width="30" height="30" rx="9" fill="white"/>
<rect x="221" y="20" width="26" height="26" rx="9" fill="#EBF2FF"/>
<path d="M222.672 34.168V32.884H224.928V30.808H226.236V32.884H228.48V34.168H226.236V36.244H224.928V34.168H222.672ZM232.988 37.144C232.372 37.144 231.84 37.036 231.392 36.82C230.952 36.604 230.604 36.308 230.348 35.932C230.1 35.548 229.956 35.116 229.916 34.636H231.416C231.488 34.98 231.664 35.268 231.944 35.5C232.224 35.724 232.572 35.836 232.988 35.836C233.436 35.836 233.8 35.672 234.08 35.344C234.368 35.016 234.512 34.608 234.512 34.12C234.512 33.616 234.368 33.216 234.08 32.92C233.8 32.624 233.444 32.476 233.012 32.476C232.652 32.476 232.34 32.564 232.076 32.74C231.812 32.916 231.624 33.136 231.512 33.4H230.036L230.756 28.6H235.412V29.944H231.908L231.524 31.888C231.7 31.696 231.94 31.54 232.244 31.42C232.548 31.292 232.888 31.228 233.264 31.228C233.864 31.228 234.364 31.364 234.764 31.636C235.164 31.9 235.468 32.252 235.676 32.692C235.884 33.124 235.988 33.596 235.988 34.108C235.988 34.692 235.86 35.212 235.604 35.668C235.356 36.124 235.004 36.484 234.548 36.748C234.1 37.012 233.58 37.144 232.988 37.144ZM240.574 37.144C239.942 37.144 239.41 37.028 238.978 36.796C238.546 36.564 238.198 36.252 237.934 35.86C237.67 35.468 237.478 35.032 237.358 34.552C237.246 34.072 237.19 33.58 237.19 33.076C237.19 32.14 237.322 31.328 237.586 30.64C237.85 29.944 238.23 29.408 238.726 29.032C239.222 28.648 239.822 28.456 240.526 28.456C241.102 28.456 241.59 28.572 241.99 28.804C242.398 29.028 242.714 29.324 242.938 29.692C243.162 30.06 243.294 30.456 243.334 30.88H241.906C241.834 30.512 241.678 30.228 241.438 30.028C241.198 29.828 240.89 29.728 240.514 29.728C239.978 29.728 239.546 29.976 239.218 30.472C238.89 30.96 238.714 31.708 238.69 32.716C238.882 32.388 239.17 32.116 239.554 31.9C239.938 31.684 240.366 31.576 240.838 31.576C241.302 31.576 241.738 31.688 242.146 31.912C242.554 32.136 242.882 32.452 243.13 32.86C243.386 33.268 243.514 33.748 243.514 34.3C243.514 34.804 243.39 35.272 243.142 35.704C242.902 36.136 242.558 36.484 242.11 36.748C241.67 37.012 241.158 37.144 240.574 37.144ZM240.49 35.824C240.938 35.824 241.306 35.688 241.594 35.416C241.89 35.136 242.038 34.784 242.038 34.36C242.038 33.912 241.89 33.552 241.594 33.28C241.298 33.008 240.922 32.872 240.466 32.872C240.17 32.872 239.902 32.94 239.662 33.076C239.43 33.204 239.246 33.38 239.11 33.604C238.974 33.82 238.906 34.064 238.906 34.336C238.906 34.768 239.054 35.124 239.35 35.404C239.654 35.684 240.034 35.824 240.49 35.824Z" fill="#242526"/>
</svg>
