<svg width="271" height="140" viewBox="0 0 271 140" fill="none" xmlns="http://www.w3.org/2000/svg">
<rect width="271" height="140" fill="#E5E5E5"/>
<g clip-path="url(#clip0_55_329)">
<rect width="1440" height="1024" transform="translate(-736 -422)" fill="white"/>
<rect x="-731" y="-456" width="1440" height="1024" fill="#F3F4F8"/>
<rect x="-612" y="-240" width="913" height="410" rx="14" fill="white"/>
<rect x="0.5" y="0.5" width="270" height="139" rx="9.5" fill="white" stroke="#E3EBEE"/>
<path fill-rule="evenodd" clip-rule="evenodd" d="M35.749 23.75H27.124C25.5284 23.75 24.249 25.0294 24.249 26.625V43.875C24.249 45.4628 25.5362 46.75 27.124 46.75H50.124C51.7118 46.75 52.999 45.4628 52.999 43.875V29.5C52.999 27.9044 51.7053 26.625 50.124 26.625H38.624L35.749 23.75Z" fill="#FF694A"/>
<path d="M26.859 116V108.122L25.39 108.447V107.693L27.223 106.9H27.964V116H26.859ZM33.4339 116.156C32.6279 116.156 31.9302 115.961 31.3409 115.571C30.7602 115.172 30.3139 114.622 30.0019 113.92C29.6899 113.209 29.5339 112.386 29.5339 111.45C29.5339 110.514 29.6899 109.695 30.0019 108.993C30.3139 108.282 30.7602 107.732 31.3409 107.342C31.9302 106.943 32.6279 106.744 33.4339 106.744C34.2399 106.744 34.9332 106.943 35.5139 107.342C36.0945 107.732 36.5409 108.282 36.8529 108.993C37.1649 109.695 37.3209 110.514 37.3209 111.45C37.3209 112.386 37.1649 113.209 36.8529 113.92C36.5409 114.622 36.0945 115.172 35.5139 115.571C34.9332 115.961 34.2399 116.156 33.4339 116.156ZM33.4339 115.194C33.9625 115.194 34.4349 115.047 34.8509 114.752C35.2755 114.449 35.6049 114.02 35.8389 113.465C36.0815 112.902 36.2029 112.23 36.2029 111.45C36.2029 110.67 36.0815 110.003 35.8389 109.448C35.6049 108.893 35.2755 108.469 34.8509 108.174C34.4349 107.871 33.9625 107.719 33.4339 107.719C32.8965 107.719 32.4199 107.871 32.0039 108.174C31.5879 108.469 31.2585 108.893 31.0159 109.448C30.7732 110.003 30.6519 110.67 30.6519 111.45C30.6519 112.23 30.7732 112.902 31.0159 113.465C31.2585 114.02 31.5879 114.449 32.0039 114.752C32.4199 115.047 32.8965 115.194 33.4339 115.194ZM41.9925 116.156C41.3685 116.156 40.8269 116.043 40.3675 115.818C39.9082 115.593 39.5399 115.285 39.2625 114.895C38.9939 114.496 38.8292 114.046 38.7685 113.543H39.8345C39.9385 114.046 40.1812 114.453 40.5625 114.765C40.9439 115.068 41.4249 115.22 42.0055 115.22C42.4389 115.22 42.8115 115.12 43.1235 114.921C43.4355 114.713 43.6739 114.436 43.8385 114.089C44.0119 113.742 44.0985 113.357 44.0985 112.932C44.0985 112.256 43.9079 111.71 43.5265 111.294C43.1452 110.878 42.6512 110.67 42.0445 110.67C41.5419 110.67 41.1129 110.783 40.7575 111.008C40.4022 111.233 40.1422 111.528 39.9775 111.892H38.9375L39.7175 106.9H44.4885V107.849H40.5625L40.0295 110.618C40.2375 110.367 40.5235 110.159 40.8875 109.994C41.2602 109.829 41.6849 109.747 42.1615 109.747C42.7595 109.747 43.2795 109.886 43.7215 110.163C44.1722 110.44 44.5232 110.817 44.7745 111.294C45.0259 111.771 45.1515 112.312 45.1515 112.919C45.1515 113.5 45.0259 114.037 44.7745 114.531C44.5319 115.025 44.1722 115.419 43.6955 115.714C43.2275 116.009 42.6599 116.156 41.9925 116.156ZM50.5849 116V110.475H49.6099V109.552H50.5849V108.434C50.5849 107.81 50.7409 107.355 51.0529 107.069C51.3649 106.783 51.8199 106.64 52.4179 106.64H53.0679V107.576H52.5869C52.2576 107.576 52.0236 107.645 51.8849 107.784C51.7462 107.914 51.6769 108.139 51.6769 108.46V109.552H55.6809V116H54.5889V110.475H51.6769V116H50.5849ZM55.1479 108.317C54.9399 108.317 54.7622 108.248 54.6149 108.109C54.4676 107.962 54.3939 107.78 54.3939 107.563C54.3939 107.355 54.4676 107.182 54.6149 107.043C54.7622 106.904 54.9399 106.835 55.1479 106.835C55.3646 106.835 55.5422 106.904 55.6809 107.043C55.8282 107.182 55.9019 107.355 55.9019 107.563C55.9019 107.78 55.8282 107.962 55.6809 108.109C55.5422 108.248 55.3646 108.317 55.1479 108.317ZM57.6099 116V106.64H58.7019V116H57.6099ZM63.3907 116.156C62.7754 116.156 62.2294 116.017 61.7527 115.74C61.2761 115.454 60.8991 115.06 60.6217 114.557C60.3531 114.054 60.2187 113.461 60.2187 112.776C60.2187 112.1 60.3531 111.511 60.6217 111.008C60.8904 110.497 61.2631 110.102 61.7397 109.825C62.2251 109.539 62.7841 109.396 63.4167 109.396C64.0407 109.396 64.5781 109.539 65.0287 109.825C65.4881 110.102 65.8391 110.471 66.0817 110.93C66.3244 111.389 66.4457 111.883 66.4457 112.412C66.4457 112.507 66.4414 112.603 66.4327 112.698C66.4327 112.793 66.4327 112.902 66.4327 113.023H61.2977C61.3237 113.517 61.4364 113.929 61.6357 114.258C61.8437 114.579 62.0994 114.821 62.4027 114.986C62.7147 115.151 63.0441 115.233 63.3907 115.233C63.8414 115.233 64.2184 115.129 64.5217 114.921C64.8251 114.713 65.0461 114.431 65.1847 114.076H66.2637C66.0904 114.674 65.7567 115.172 65.2627 115.571C64.7774 115.961 64.1534 116.156 63.3907 116.156ZM63.3907 110.319C62.8707 110.319 62.4071 110.479 61.9997 110.8C61.6011 111.112 61.3714 111.571 61.3107 112.178H65.3667C65.3407 111.597 65.1414 111.142 64.7687 110.813C64.3961 110.484 63.9367 110.319 63.3907 110.319ZM70.3631 116.156C69.5918 116.156 68.9504 115.961 68.4391 115.571C67.9278 115.181 67.6288 114.652 67.5421 113.985H68.6601C68.7294 114.323 68.9071 114.618 69.1931 114.869C69.4878 115.112 69.8821 115.233 70.3761 115.233C70.8354 115.233 71.1734 115.138 71.3901 114.947C71.6068 114.748 71.7151 114.514 71.7151 114.245C71.7151 113.855 71.5721 113.595 71.2861 113.465C71.0088 113.335 70.6144 113.218 70.1031 113.114C69.7564 113.045 69.4098 112.945 69.0631 112.815C68.7164 112.685 68.4261 112.503 68.1921 112.269C67.9581 112.026 67.8411 111.71 67.8411 111.32C67.8411 110.757 68.0491 110.297 68.4651 109.942C68.8898 109.578 69.4618 109.396 70.1811 109.396C70.8658 109.396 71.4248 109.569 71.8581 109.916C72.3001 110.254 72.5558 110.739 72.6251 111.372H71.5461C71.5028 111.043 71.3598 110.787 71.1171 110.605C70.8831 110.414 70.5668 110.319 70.1681 110.319C69.7781 110.319 69.4748 110.401 69.2581 110.566C69.0501 110.731 68.9461 110.947 68.9461 111.216C68.9461 111.476 69.0804 111.68 69.3491 111.827C69.6264 111.974 69.9991 112.1 70.4671 112.204C70.8658 112.291 71.2428 112.399 71.5981 112.529C71.9621 112.65 72.2568 112.837 72.4821 113.088C72.7161 113.331 72.8331 113.686 72.8331 114.154C72.8418 114.735 72.6208 115.216 72.1701 115.597C71.7281 115.97 71.1258 116.156 70.3631 116.156Z" fill="#768396"/>
<path d="M25.952 92V82.2H29.55C30.334 82.2 30.978 82.3353 31.482 82.606C31.9953 82.8673 32.378 83.2267 32.63 83.684C32.882 84.132 33.008 84.6313 33.008 85.182C33.008 85.7793 32.8493 86.3253 32.532 86.82C32.224 87.3147 31.7387 87.674 31.076 87.898L33.106 92H31.048L29.228 88.136H27.744V92H25.952ZM27.744 86.82H29.438C30.0353 86.82 30.474 86.6753 30.754 86.386C31.034 86.0967 31.174 85.714 31.174 85.238C31.174 84.7713 31.034 84.398 30.754 84.118C30.4833 83.838 30.04 83.698 29.424 83.698H27.744V86.82ZM37.5408 92.168C36.8688 92.168 36.2622 92.014 35.7208 91.706C35.1888 91.398 34.7642 90.9733 34.4468 90.432C34.1388 89.8813 33.9848 89.2467 33.9848 88.528C33.9848 87.8093 34.1435 87.1793 34.4608 86.638C34.7782 86.0873 35.2028 85.658 35.7348 85.35C36.2762 85.042 36.8828 84.888 37.5548 84.888C38.2175 84.888 38.8148 85.042 39.3468 85.35C39.8882 85.658 40.3128 86.0873 40.6208 86.638C40.9382 87.1793 41.0968 87.8093 41.0968 88.528C41.0968 89.2467 40.9382 89.8813 40.6208 90.432C40.3128 90.9733 39.8882 91.398 39.3468 91.706C38.8055 92.014 38.2035 92.168 37.5408 92.168ZM37.5408 90.614C38.0075 90.614 38.4135 90.4413 38.7588 90.096C39.1042 89.7413 39.2768 89.2187 39.2768 88.528C39.2768 87.8373 39.1042 87.3193 38.7588 86.974C38.4135 86.6193 38.0122 86.442 37.5548 86.442C37.0788 86.442 36.6682 86.6193 36.3228 86.974C35.9868 87.3193 35.8188 87.8373 35.8188 88.528C35.8188 89.2187 35.9868 89.7413 36.3228 90.096C36.6682 90.4413 37.0742 90.614 37.5408 90.614ZM46.0311 92.168C45.3591 92.168 44.7524 92.014 44.2111 91.706C43.6791 91.398 43.2544 90.9733 42.9371 90.432C42.6291 89.8813 42.4751 89.2467 42.4751 88.528C42.4751 87.8093 42.6337 87.1793 42.9511 86.638C43.2684 86.0873 43.6931 85.658 44.2251 85.35C44.7664 85.042 45.3731 84.888 46.0451 84.888C46.7077 84.888 47.3051 85.042 47.8371 85.35C48.3784 85.658 48.8031 86.0873 49.1111 86.638C49.4284 87.1793 49.5871 87.8093 49.5871 88.528C49.5871 89.2467 49.4284 89.8813 49.1111 90.432C48.8031 90.9733 48.3784 91.398 47.8371 91.706C47.2957 92.014 46.6937 92.168 46.0311 92.168ZM46.0311 90.614C46.4977 90.614 46.9037 90.4413 47.2491 90.096C47.5944 89.7413 47.7671 89.2187 47.7671 88.528C47.7671 87.8373 47.5944 87.3193 47.2491 86.974C46.9037 86.6193 46.5024 86.442 46.0451 86.442C45.5691 86.442 45.1584 86.6193 44.8131 86.974C44.4771 87.3193 44.3091 87.8373 44.3091 88.528C44.3091 89.2187 44.4771 89.7413 44.8131 90.096C45.1584 90.4413 45.5644 90.614 46.0311 90.614ZM54.0099 92C53.2819 92 52.6985 91.8227 52.2599 91.468C51.8212 91.1133 51.6019 90.4833 51.6019 89.578V86.554H50.4119V85.056H51.6019L51.8119 83.194H53.3939V85.056H55.2699V86.554H53.3939V89.592C53.3939 89.928 53.4639 90.1613 53.6039 90.292C53.7532 90.4133 54.0052 90.474 54.3599 90.474H55.2279V92H54.0099Z" fill="#232360"/>
<rect x="223" y="22" width="26" height="26" rx="9" fill="#84F093"/>
<path d="M232.952 40V30.2H236.578C237.362 30.2 238.011 30.3307 238.524 30.592C239.037 30.8533 239.42 31.2127 239.672 31.67C239.924 32.1273 240.05 32.6407 240.05 33.21C240.05 33.7513 239.929 34.2507 239.686 34.708C239.443 35.156 239.065 35.52 238.552 35.8C238.039 36.0707 237.381 36.206 236.578 36.206H234.744V40H232.952ZM234.744 34.75H236.466C237.091 34.75 237.539 34.6147 237.81 34.344C238.09 34.064 238.23 33.686 238.23 33.21C238.23 32.7247 238.09 32.3467 237.81 32.076C237.539 31.796 237.091 31.656 236.466 31.656H234.744V34.75Z" fill="white"/>
</g>
<defs>
<clipPath id="clip0_55_329">
<rect width="1440" height="1024" fill="white" transform="translate(-736 -422)"/>
</clipPath>
</defs>
</svg>
