<svg width="271" height="140" viewBox="0 0 271 140" fill="none" xmlns="http://www.w3.org/2000/svg">
<rect width="271" height="140" fill="#E5E5E5"/>
<g clip-path="url(#clip0_55_329)">
<rect width="1440" height="1024" transform="translate(-445 -422)" fill="white"/>
<rect x="-440" y="-456" width="1440" height="1024" fill="#F3F4F8"/>
<rect x="-321" y="-240" width="913" height="410" rx="14" fill="white"/>
<rect x="0.5" y="0.5" width="270" height="139" rx="9.5" fill="white" stroke="#E3EBEE"/>
<path fill-rule="evenodd" clip-rule="evenodd" d="M35.749 23.75H27.124C25.5284 23.75 24.249 25.0294 24.249 26.625V43.875C24.249 45.4628 25.5362 46.75 27.124 46.75H50.124C51.7118 46.75 52.999 45.4628 52.999 43.875V29.5C52.999 27.9044 51.7053 26.625 50.124 26.625H38.624L35.749 23.75Z" fill="#BB6BD9"/>
<path d="M30.083 116V114.05H25.468V113.205L29.888 106.9H31.162V113.088H32.514V114.05H31.162V116H30.083ZM26.677 113.088H30.135V108.109L26.677 113.088ZM33.6901 116V115.233C34.3054 114.748 34.8861 114.258 35.4321 113.764C35.9868 113.261 36.4764 112.767 36.9011 112.282C37.3344 111.797 37.6724 111.32 37.9151 110.852C38.1664 110.384 38.2921 109.933 38.2921 109.5C38.2921 109.179 38.2358 108.88 38.1231 108.603C38.0191 108.326 37.8458 108.105 37.6031 107.94C37.3604 107.767 37.0311 107.68 36.6151 107.68C36.2164 107.68 35.8828 107.771 35.6141 107.953C35.3454 108.126 35.1418 108.36 35.0031 108.655C34.8731 108.95 34.8081 109.266 34.8081 109.604H33.7551C33.7551 109.006 33.8808 108.495 34.1321 108.07C34.3834 107.637 34.7258 107.307 35.1591 107.082C35.5924 106.857 36.0821 106.744 36.6281 106.744C37.4341 106.744 38.0928 106.974 38.6041 107.433C39.1241 107.884 39.3841 108.56 39.3841 109.461C39.3841 109.998 39.2498 110.531 38.9811 111.06C38.7124 111.58 38.3701 112.087 37.9541 112.581C37.5381 113.066 37.0918 113.521 36.6151 113.946C36.1471 114.371 35.7094 114.752 35.3021 115.09H39.6961V116H33.6901ZM44.999 116V110.475H44.024V109.552H44.999V108.434C44.999 107.81 45.155 107.355 45.467 107.069C45.779 106.783 46.234 106.64 46.832 106.64H47.482V107.576H47.001C46.6716 107.576 46.4376 107.645 46.299 107.784C46.1603 107.914 46.091 108.139 46.091 108.46V109.552H50.095V116H49.003V110.475H46.091V116H44.999ZM49.562 108.317C49.354 108.317 49.1763 108.248 49.029 108.109C48.8816 107.962 48.808 107.78 48.808 107.563C48.808 107.355 48.8816 107.182 49.029 107.043C49.1763 106.904 49.354 106.835 49.562 106.835C49.7786 106.835 49.9563 106.904 50.095 107.043C50.2423 107.182 50.316 107.355 50.316 107.563C50.316 107.78 50.2423 107.962 50.095 108.109C49.9563 108.248 49.7786 108.317 49.562 108.317ZM52.024 116V106.64H53.116V116H52.024ZM57.8048 116.156C57.1895 116.156 56.6435 116.017 56.1668 115.74C55.6901 115.454 55.3131 115.06 55.0358 114.557C54.7671 114.054 54.6328 113.461 54.6328 112.776C54.6328 112.1 54.7671 111.511 55.0358 111.008C55.3045 110.497 55.6771 110.102 56.1538 109.825C56.6391 109.539 57.1981 109.396 57.8308 109.396C58.4548 109.396 58.9921 109.539 59.4428 109.825C59.9021 110.102 60.2531 110.471 60.4958 110.93C60.7385 111.389 60.8598 111.883 60.8598 112.412C60.8598 112.507 60.8555 112.603 60.8468 112.698C60.8468 112.793 60.8468 112.902 60.8468 113.023H55.7118C55.7378 113.517 55.8505 113.929 56.0498 114.258C56.2578 114.579 56.5135 114.821 56.8168 114.986C57.1288 115.151 57.4581 115.233 57.8048 115.233C58.2555 115.233 58.6325 115.129 58.9358 114.921C59.2391 114.713 59.4601 114.431 59.5988 114.076H60.6778C60.5045 114.674 60.1708 115.172 59.6768 115.571C59.1915 115.961 58.5675 116.156 57.8048 116.156ZM57.8048 110.319C57.2848 110.319 56.8211 110.479 56.4138 110.8C56.0151 111.112 55.7855 111.571 55.7248 112.178H59.7808C59.7548 111.597 59.5555 111.142 59.1828 110.813C58.8101 110.484 58.3508 110.319 57.8048 110.319ZM64.7772 116.156C64.0058 116.156 63.3645 115.961 62.8532 115.571C62.3418 115.181 62.0428 114.652 61.9562 113.985H63.0742C63.1435 114.323 63.3212 114.618 63.6072 114.869C63.9018 115.112 64.2962 115.233 64.7902 115.233C65.2495 115.233 65.5875 115.138 65.8042 114.947C66.0208 114.748 66.1292 114.514 66.1292 114.245C66.1292 113.855 65.9862 113.595 65.7002 113.465C65.4228 113.335 65.0285 113.218 64.5172 113.114C64.1705 113.045 63.8238 112.945 63.4772 112.815C63.1305 112.685 62.8402 112.503 62.6062 112.269C62.3722 112.026 62.2552 111.71 62.2552 111.32C62.2552 110.757 62.4632 110.297 62.8792 109.942C63.3038 109.578 63.8758 109.396 64.5952 109.396C65.2798 109.396 65.8388 109.569 66.2722 109.916C66.7142 110.254 66.9698 110.739 67.0392 111.372H65.9602C65.9168 111.043 65.7738 110.787 65.5312 110.605C65.2972 110.414 64.9808 110.319 64.5822 110.319C64.1922 110.319 63.8888 110.401 63.6722 110.566C63.4642 110.731 63.3602 110.947 63.3602 111.216C63.3602 111.476 63.4945 111.68 63.7632 111.827C64.0405 111.974 64.4132 112.1 64.8812 112.204C65.2798 112.291 65.6568 112.399 66.0122 112.529C66.3762 112.65 66.6708 112.837 66.8962 113.088C67.1302 113.331 67.2472 113.686 67.2472 114.154C67.2558 114.735 67.0348 115.216 66.5842 115.597C66.1422 115.97 65.5398 116.156 64.7772 116.156Z" fill="#768396"/>
<path d="M28.794 92L25.21 82.2H27.128L29.9 90.166L32.686 82.2H34.576L30.992 92H28.794ZM36.6651 83.978C36.3384 83.978 36.0677 83.88 35.8531 83.684C35.6477 83.488 35.5451 83.2407 35.5451 82.942C35.5451 82.6433 35.6477 82.4007 35.8531 82.214C36.0677 82.018 36.3384 81.92 36.6651 81.92C36.9917 81.92 37.2577 82.018 37.4631 82.214C37.6777 82.4007 37.7851 82.6433 37.7851 82.942C37.7851 83.2407 37.6777 83.488 37.4631 83.684C37.2577 83.88 36.9917 83.978 36.6651 83.978ZM35.7691 92V85.056H37.5611V92H35.7691ZM42.6235 92.168C41.9702 92.168 41.3868 92.0093 40.8735 91.692C40.3602 91.3747 39.9542 90.9407 39.6555 90.39C39.3568 89.8393 39.2075 89.214 39.2075 88.514C39.2075 87.814 39.3568 87.1933 39.6555 86.652C39.9542 86.1013 40.3602 85.672 40.8735 85.364C41.3868 85.0467 41.9702 84.888 42.6235 84.888C43.1462 84.888 43.6035 84.986 43.9955 85.182C44.3875 85.378 44.7048 85.6533 44.9475 86.008V81.92H46.7395V92H45.1435L44.9475 91.006C44.7235 91.314 44.4248 91.5847 44.0515 91.818C43.6875 92.0513 43.2115 92.168 42.6235 92.168ZM43.0015 90.6C43.5802 90.6 44.0515 90.4087 44.4155 90.026C44.7888 89.634 44.9755 89.1347 44.9755 88.528C44.9755 87.9213 44.7888 87.4267 44.4155 87.044C44.0515 86.652 43.5802 86.456 43.0015 86.456C42.4322 86.456 41.9608 86.6473 41.5875 87.03C41.2142 87.4127 41.0275 87.9073 41.0275 88.514C41.0275 89.1207 41.2142 89.62 41.5875 90.012C41.9608 90.404 42.4322 90.6 43.0015 90.6ZM51.9383 92.168C51.2383 92.168 50.6176 92.0187 50.0763 91.72C49.535 91.4213 49.1103 91.0013 48.8023 90.46C48.4943 89.9187 48.3403 89.2933 48.3403 88.584C48.3403 87.8653 48.4896 87.226 48.7883 86.666C49.0963 86.106 49.5163 85.672 50.0483 85.364C50.5896 85.0467 51.2243 84.888 51.9523 84.888C52.6336 84.888 53.2356 85.0373 53.7583 85.336C54.281 85.6347 54.687 86.0453 54.9763 86.568C55.275 87.0813 55.4243 87.6553 55.4243 88.29C55.4243 88.3927 55.4196 88.5 55.4103 88.612C55.4103 88.724 55.4056 88.8407 55.3963 88.962H50.1183C50.1556 89.5033 50.3423 89.928 50.6783 90.236C51.0236 90.544 51.439 90.698 51.9243 90.698C52.2883 90.698 52.5916 90.6187 52.8343 90.46C53.0863 90.292 53.273 90.0773 53.3943 89.816H55.2143C55.0836 90.2547 54.8643 90.656 54.5563 91.02C54.2576 91.3747 53.8843 91.6547 53.4363 91.86C52.9976 92.0653 52.4983 92.168 51.9383 92.168ZM51.9523 86.344C51.5136 86.344 51.1263 86.47 50.7903 86.722C50.4543 86.9647 50.2396 87.338 50.1463 87.842H53.6043C53.5763 87.3847 53.4083 87.0207 53.1003 86.75C52.7923 86.4793 52.4096 86.344 51.9523 86.344ZM60.2635 92.168C59.5915 92.168 58.9848 92.014 58.4435 91.706C57.9115 91.398 57.4868 90.9733 57.1695 90.432C56.8615 89.8813 56.7075 89.2467 56.7075 88.528C56.7075 87.8093 56.8662 87.1793 57.1835 86.638C57.5008 86.0873 57.9255 85.658 58.4575 85.35C58.9988 85.042 59.6055 84.888 60.2775 84.888C60.9402 84.888 61.5375 85.042 62.0695 85.35C62.6108 85.658 63.0355 86.0873 63.3435 86.638C63.6608 87.1793 63.8195 87.8093 63.8195 88.528C63.8195 89.2467 63.6608 89.8813 63.3435 90.432C63.0355 90.9733 62.6108 91.398 62.0695 91.706C61.5282 92.014 60.9262 92.168 60.2635 92.168ZM60.2635 90.614C60.7302 90.614 61.1362 90.4413 61.4815 90.096C61.8268 89.7413 61.9995 89.2187 61.9995 88.528C61.9995 87.8373 61.8268 87.3193 61.4815 86.974C61.1362 86.6193 60.7348 86.442 60.2775 86.442C59.8015 86.442 59.3908 86.6193 59.0455 86.974C58.7095 87.3193 58.5415 87.8373 58.5415 88.528C58.5415 89.2187 58.7095 89.7413 59.0455 90.096C59.3908 90.4413 59.7968 90.614 60.2635 90.614ZM68.2917 92.168C67.6757 92.168 67.1344 92.07 66.6677 91.874C66.2011 91.6687 65.8277 91.3887 65.5477 91.034C65.2677 90.6793 65.0997 90.2687 65.0437 89.802H66.8497C66.9057 90.0727 67.0551 90.306 67.2977 90.502C67.5497 90.6887 67.8717 90.782 68.2637 90.782C68.6557 90.782 68.9404 90.7027 69.1177 90.544C69.3044 90.3853 69.3977 90.2033 69.3977 89.998C69.3977 89.6993 69.2671 89.4987 69.0057 89.396C68.7444 89.284 68.3804 89.1767 67.9137 89.074C67.6151 89.0087 67.3117 88.9293 67.0037 88.836C66.6957 88.7427 66.4111 88.626 66.1497 88.486C65.8977 88.3367 65.6924 88.15 65.5337 87.926C65.3751 87.6927 65.2957 87.408 65.2957 87.072C65.2957 86.456 65.5384 85.938 66.0237 85.518C66.5184 85.098 67.2091 84.888 68.0957 84.888C68.9171 84.888 69.5704 85.0793 70.0557 85.462C70.5504 85.8447 70.8444 86.372 70.9377 87.044H69.2437C69.1411 86.5307 68.7537 86.274 68.0817 86.274C67.7457 86.274 67.4844 86.3393 67.2977 86.47C67.1204 86.6007 67.0317 86.764 67.0317 86.96C67.0317 87.1653 67.1671 87.3287 67.4377 87.45C67.7084 87.5713 68.0677 87.6833 68.5157 87.786C69.0011 87.898 69.4444 88.024 69.8457 88.164C70.2564 88.2947 70.5831 88.4953 70.8257 88.766C71.0684 89.0273 71.1897 89.4053 71.1897 89.9C71.1991 90.3293 71.0871 90.7167 70.8537 91.062C70.6204 91.4073 70.2844 91.678 69.8457 91.874C69.4071 92.07 68.8891 92.168 68.2917 92.168Z" fill="#232360"/>
<rect x="167" y="20" width="30" height="30" rx="9" fill="white"/>
<rect x="169" y="22" width="26" height="26" rx="9" fill="#F24E1E"/>
<path d="M177.322 40L180.906 30.2H182.922L186.506 40H184.602L183.818 37.732H179.996L179.198 40H177.322ZM180.486 36.332H183.328L181.9 32.258L180.486 36.332Z" fill="white"/>
<rect x="191" y="20" width="30" height="30" rx="9" fill="white"/>
<rect x="193" y="22" width="26" height="26" rx="9" fill="#1EA7FF"/>
<path d="M201.952 40V30.2H205.886C206.903 30.2 207.678 30.438 208.21 30.914C208.751 31.3807 209.022 31.9827 209.022 32.72C209.022 33.336 208.854 33.8307 208.518 34.204C208.191 34.568 207.79 34.8153 207.314 34.946C207.874 35.058 208.336 35.338 208.7 35.786C209.064 36.2247 209.246 36.738 209.246 37.326C209.246 38.1007 208.966 38.74 208.406 39.244C207.846 39.748 207.053 40 206.026 40H201.952ZM203.744 34.316H205.62C206.124 34.316 206.511 34.1993 206.782 33.966C207.053 33.7327 207.188 33.4013 207.188 32.972C207.188 32.5613 207.053 32.2393 206.782 32.006C206.521 31.7633 206.124 31.642 205.592 31.642H203.744V34.316ZM203.744 38.544H205.746C206.278 38.544 206.689 38.4227 206.978 38.18C207.277 37.928 207.426 37.578 207.426 37.13C207.426 36.6727 207.272 36.3133 206.964 36.052C206.656 35.7907 206.241 35.66 205.718 35.66H203.744V38.544Z" fill="white"/>
<rect x="215" y="20" width="30" height="30" rx="9" fill="white"/>
<rect x="217" y="22" width="26" height="26" rx="9" fill="#EBF2FF"/>
<path d="M223.672 37.168V35.884H225.928V33.808H227.236V35.884H229.48V37.168H227.236V39.244H225.928V37.168H223.672ZM231.14 40L234.308 32.908H230.168V31.6H235.892V32.692L232.736 40H231.14Z" fill="#242526"/>
</g>
<defs>
<clipPath id="clip0_55_329">
<rect width="1440" height="1024" fill="white" transform="translate(-445 -422)"/>
</clipPath>
</defs>
</svg>
