<svg width="271" height="140" viewBox="0 0 271 140" fill="none" xmlns="http://www.w3.org/2000/svg">
<rect width="271" height="140" fill="#E5E5E5"/>
<g clip-path="url(#clip0_55_329)">
<rect width="1440" height="1024" transform="translate(-154 -422)" fill="white"/>
<rect x="-149" y="-456" width="1440" height="1024" fill="#F3F4F8"/>
<rect x="-30" y="-240" width="913" height="410" rx="14" fill="white"/>
<rect x="0.5" y="0.5" width="270" height="139" rx="9.5" fill="white" stroke="#E3EBEE"/>
<path fill-rule="evenodd" clip-rule="evenodd" d="M36.749 23.75H28.124C26.5284 23.75 25.249 25.0294 25.249 26.625V43.875C25.249 45.4628 26.5362 46.75 28.124 46.75H51.124C52.7118 46.75 53.999 45.4628 53.999 43.875V29.5C53.999 27.9044 52.7053 26.625 51.124 26.625H39.624L36.749 23.75Z" fill="#F7B000"/>
<path d="M31.083 116V114.05H26.468V113.205L30.888 106.9H32.162V113.088H33.514V114.05H32.162V116H31.083ZM27.677 113.088H31.135V108.109L27.677 113.088ZM38.9541 116V114.05H34.3391V113.205L38.7591 106.9H40.0331V113.088H41.3851V114.05H40.0331V116H38.9541ZM35.5481 113.088H39.0061V108.109L35.5481 113.088ZM45.7982 116.156C45.1742 116.156 44.6325 116.043 44.1732 115.818C43.7139 115.593 43.3455 115.285 43.0682 114.895C42.7995 114.496 42.6349 114.046 42.5742 113.543H43.6402C43.7442 114.046 43.9869 114.453 44.3682 114.765C44.7495 115.068 45.2305 115.22 45.8112 115.22C46.2445 115.22 46.6172 115.12 46.9292 114.921C47.2412 114.713 47.4795 114.436 47.6442 114.089C47.8175 113.742 47.9042 113.357 47.9042 112.932C47.9042 112.256 47.7135 111.71 47.3322 111.294C46.9509 110.878 46.4569 110.67 45.8502 110.67C45.3475 110.67 44.9185 110.783 44.5632 111.008C44.2079 111.233 43.9479 111.528 43.7832 111.892H42.7432L43.5232 106.9H48.2942V107.849H44.3682L43.8352 110.618C44.0432 110.367 44.3292 110.159 44.6932 109.994C45.0659 109.829 45.4905 109.747 45.9672 109.747C46.5652 109.747 47.0852 109.886 47.5272 110.163C47.9779 110.44 48.3289 110.817 48.5802 111.294C48.8315 111.771 48.9572 112.312 48.9572 112.919C48.9572 113.5 48.8315 114.037 48.5802 114.531C48.3375 115.025 47.9779 115.419 47.5012 115.714C47.0332 116.009 46.4655 116.156 45.7982 116.156ZM54.2131 116.156C53.4071 116.156 52.7095 115.961 52.1201 115.571C51.5395 115.172 51.0931 114.622 50.7811 113.92C50.4691 113.209 50.3131 112.386 50.3131 111.45C50.3131 110.514 50.4691 109.695 50.7811 108.993C51.0931 108.282 51.5395 107.732 52.1201 107.342C52.7095 106.943 53.4071 106.744 54.2131 106.744C55.0191 106.744 55.7125 106.943 56.2931 107.342C56.8738 107.732 57.3201 108.282 57.6321 108.993C57.9441 109.695 58.1001 110.514 58.1001 111.45C58.1001 112.386 57.9441 113.209 57.6321 113.92C57.3201 114.622 56.8738 115.172 56.2931 115.571C55.7125 115.961 55.0191 116.156 54.2131 116.156ZM54.2131 115.194C54.7418 115.194 55.2141 115.047 55.6301 114.752C56.0548 114.449 56.3841 114.02 56.6181 113.465C56.8608 112.902 56.9821 112.23 56.9821 111.45C56.9821 110.67 56.8608 110.003 56.6181 109.448C56.3841 108.893 56.0548 108.469 55.6301 108.174C55.2141 107.871 54.7418 107.719 54.2131 107.719C53.6758 107.719 53.1991 107.871 52.7831 108.174C52.3671 108.469 52.0378 108.893 51.7951 109.448C51.5525 110.003 51.4311 110.67 51.4311 111.45C51.4311 112.23 51.5525 112.902 51.7951 113.465C52.0378 114.02 52.3671 114.449 52.7831 114.752C53.1991 115.047 53.6758 115.194 54.2131 115.194ZM63.4043 116V110.475H62.4293V109.552H63.4043V108.434C63.4043 107.81 63.5603 107.355 63.8722 107.069C64.1843 106.783 64.6393 106.64 65.2373 106.64H65.8873V107.576H65.4062C65.0769 107.576 64.8429 107.645 64.7043 107.784C64.5656 107.914 64.4963 108.139 64.4963 108.46V109.552H68.5003V116H67.4083V110.475H64.4963V116H63.4043ZM67.9673 108.317C67.7593 108.317 67.5816 108.248 67.4343 108.109C67.2869 107.962 67.2133 107.78 67.2133 107.563C67.2133 107.355 67.2869 107.182 67.4343 107.043C67.5816 106.904 67.7593 106.835 67.9673 106.835C68.1839 106.835 68.3616 106.904 68.5003 107.043C68.6476 107.182 68.7212 107.355 68.7212 107.563C68.7212 107.78 68.6476 107.962 68.5003 108.109C68.3616 108.248 68.1839 108.317 67.9673 108.317ZM70.4292 116V106.64H71.5212V116H70.4292ZM76.2101 116.156C75.5947 116.156 75.0487 116.017 74.5721 115.74C74.0954 115.454 73.7184 115.06 73.4411 114.557C73.1724 114.054 73.0381 113.461 73.0381 112.776C73.0381 112.1 73.1724 111.511 73.4411 111.008C73.7097 110.497 74.0824 110.102 74.5591 109.825C75.0444 109.539 75.6034 109.396 76.2361 109.396C76.8601 109.396 77.3974 109.539 77.8481 109.825C78.3074 110.102 78.6584 110.471 78.9011 110.93C79.1437 111.389 79.2651 111.883 79.2651 112.412C79.2651 112.507 79.2607 112.603 79.2521 112.698C79.2521 112.793 79.2521 112.902 79.2521 113.023H74.1171C74.1431 113.517 74.2557 113.929 74.4551 114.258C74.6631 114.579 74.9187 114.821 75.2221 114.986C75.5341 115.151 75.8634 115.233 76.2101 115.233C76.6607 115.233 77.0377 115.129 77.3411 114.921C77.6444 114.713 77.8654 114.431 78.0041 114.076H79.0831C78.9097 114.674 78.5761 115.172 78.0821 115.571C77.5967 115.961 76.9727 116.156 76.2101 116.156ZM76.2101 110.319C75.6901 110.319 75.2264 110.479 74.8191 110.8C74.4204 111.112 74.1907 111.571 74.1301 112.178H78.1861C78.1601 111.597 77.9607 111.142 77.5881 110.813C77.2154 110.484 76.7561 110.319 76.2101 110.319ZM83.1824 116.156C82.4111 116.156 81.7698 115.961 81.2584 115.571C80.7471 115.181 80.4481 114.652 80.3614 113.985H81.4794C81.5488 114.323 81.7264 114.618 82.0124 114.869C82.3071 115.112 82.7014 115.233 83.1954 115.233C83.6548 115.233 83.9928 115.138 84.2094 114.947C84.4261 114.748 84.5344 114.514 84.5344 114.245C84.5344 113.855 84.3914 113.595 84.1054 113.465C83.8281 113.335 83.4338 113.218 82.9224 113.114C82.5758 113.045 82.2291 112.945 81.8824 112.815C81.5358 112.685 81.2454 112.503 81.0114 112.269C80.7774 112.026 80.6604 111.71 80.6604 111.32C80.6604 110.757 80.8684 110.297 81.2844 109.942C81.7091 109.578 82.2811 109.396 83.0004 109.396C83.6851 109.396 84.2441 109.569 84.6774 109.916C85.1194 110.254 85.3751 110.739 85.4444 111.372H84.3654C84.3221 111.043 84.1791 110.787 83.9364 110.605C83.7024 110.414 83.3861 110.319 82.9874 110.319C82.5974 110.319 82.2941 110.401 82.0774 110.566C81.8694 110.731 81.7654 110.947 81.7654 111.216C81.7654 111.476 81.8998 111.68 82.1684 111.827C82.4458 111.974 82.8184 112.1 83.2864 112.204C83.6851 112.291 84.0621 112.399 84.4174 112.529C84.7814 112.65 85.0761 112.837 85.3014 113.088C85.5354 113.331 85.6524 113.686 85.6524 114.154C85.6611 114.735 85.4401 115.216 84.9894 115.597C84.5474 115.97 83.9451 116.156 83.1824 116.156Z" fill="#768396"/>
<path d="M26.952 92V82.2H30.578C31.362 82.2 32.0107 82.3307 32.524 82.592C33.0373 82.8533 33.42 83.2127 33.672 83.67C33.924 84.1273 34.05 84.6407 34.05 85.21C34.05 85.7513 33.9287 86.2507 33.686 86.708C33.4433 87.156 33.0653 87.52 32.552 87.8C32.0387 88.0707 31.3807 88.206 30.578 88.206H28.744V92H26.952ZM28.744 86.75H30.466C31.0913 86.75 31.5393 86.6147 31.81 86.344C32.09 86.064 32.23 85.686 32.23 85.21C32.23 84.7247 32.09 84.3467 31.81 84.076C31.5393 83.796 31.0913 83.656 30.466 83.656H28.744V86.75ZM38.4324 92.168C37.7324 92.168 37.1118 92.0187 36.5704 91.72C36.0291 91.4213 35.6044 91.0013 35.2964 90.46C34.9884 89.9187 34.8344 89.2933 34.8344 88.584C34.8344 87.8653 34.9838 87.226 35.2824 86.666C35.5904 86.106 36.0104 85.672 36.5424 85.364C37.0838 85.0467 37.7184 84.888 38.4464 84.888C39.1278 84.888 39.7298 85.0373 40.2524 85.336C40.7751 85.6347 41.1811 86.0453 41.4704 86.568C41.7691 87.0813 41.9184 87.6553 41.9184 88.29C41.9184 88.3927 41.9138 88.5 41.9044 88.612C41.9044 88.724 41.8998 88.8407 41.8904 88.962H36.6124C36.6498 89.5033 36.8364 89.928 37.1724 90.236C37.5178 90.544 37.9331 90.698 38.4184 90.698C38.7824 90.698 39.0858 90.6187 39.3284 90.46C39.5804 90.292 39.7671 90.0773 39.8884 89.816H41.7084C41.5778 90.2547 41.3584 90.656 41.0504 91.02C40.7518 91.3747 40.3784 91.6547 39.9304 91.86C39.4918 92.0653 38.9924 92.168 38.4324 92.168ZM38.4464 86.344C38.0078 86.344 37.6204 86.47 37.2844 86.722C36.9484 86.9647 36.7338 87.338 36.6404 87.842H40.0984C40.0704 87.3847 39.9024 87.0207 39.5944 86.75C39.2864 86.4793 38.9038 86.344 38.4464 86.344ZM43.4256 92V85.056H45.0216L45.1896 86.358C45.4416 85.91 45.7823 85.5553 46.2116 85.294C46.6503 85.0233 47.1636 84.888 47.7516 84.888V86.778H47.2476C46.8556 86.778 46.5056 86.8387 46.1976 86.96C45.8896 87.0813 45.647 87.2913 45.4696 87.59C45.3016 87.8887 45.2176 88.304 45.2176 88.836V92H43.4256ZM51.8464 92.168C51.2304 92.168 50.6891 92.07 50.2224 91.874C49.7557 91.6687 49.3824 91.3887 49.1024 91.034C48.8224 90.6793 48.6544 90.2687 48.5984 89.802H50.4044C50.4604 90.0727 50.6097 90.306 50.8524 90.502C51.1044 90.6887 51.4264 90.782 51.8184 90.782C52.2104 90.782 52.4951 90.7027 52.6724 90.544C52.8591 90.3853 52.9524 90.2033 52.9524 89.998C52.9524 89.6993 52.8217 89.4987 52.5604 89.396C52.2991 89.284 51.9351 89.1767 51.4684 89.074C51.1697 89.0087 50.8664 88.9293 50.5584 88.836C50.2504 88.7427 49.9657 88.626 49.7044 88.486C49.4524 88.3367 49.2471 88.15 49.0884 87.926C48.9297 87.6927 48.8504 87.408 48.8504 87.072C48.8504 86.456 49.0931 85.938 49.5784 85.518C50.0731 85.098 50.7637 84.888 51.6504 84.888C52.4717 84.888 53.1251 85.0793 53.6104 85.462C54.1051 85.8447 54.3991 86.372 54.4924 87.044H52.7984C52.6957 86.5307 52.3084 86.274 51.6364 86.274C51.3004 86.274 51.0391 86.3393 50.8524 86.47C50.6751 86.6007 50.5864 86.764 50.5864 86.96C50.5864 87.1653 50.7217 87.3287 50.9924 87.45C51.2631 87.5713 51.6224 87.6833 52.0704 87.786C52.5557 87.898 52.9991 88.024 53.4004 88.164C53.8111 88.2947 54.1377 88.4953 54.3804 88.766C54.6231 89.0273 54.7444 89.4053 54.7444 89.9C54.7537 90.3293 54.6417 90.7167 54.4084 91.062C54.1751 91.4073 53.8391 91.678 53.4004 91.874C52.9617 92.07 52.4437 92.168 51.8464 92.168ZM59.6639 92.168C58.9919 92.168 58.3852 92.014 57.8439 91.706C57.3119 91.398 56.8872 90.9733 56.5699 90.432C56.2619 89.8813 56.1079 89.2467 56.1079 88.528C56.1079 87.8093 56.2665 87.1793 56.5839 86.638C56.9012 86.0873 57.3259 85.658 57.8579 85.35C58.3992 85.042 59.0059 84.888 59.6779 84.888C60.3405 84.888 60.9379 85.042 61.4699 85.35C62.0112 85.658 62.4359 86.0873 62.7439 86.638C63.0612 87.1793 63.2199 87.8093 63.2199 88.528C63.2199 89.2467 63.0612 89.8813 62.7439 90.432C62.4359 90.9733 62.0112 91.398 61.4699 91.706C60.9285 92.014 60.3265 92.168 59.6639 92.168ZM59.6639 90.614C60.1305 90.614 60.5365 90.4413 60.8819 90.096C61.2272 89.7413 61.3999 89.2187 61.3999 88.528C61.3999 87.8373 61.2272 87.3193 60.8819 86.974C60.5365 86.6193 60.1352 86.442 59.6779 86.442C59.2019 86.442 58.7912 86.6193 58.4459 86.974C58.1099 87.3193 57.9419 87.8373 57.9419 88.528C57.9419 89.2187 58.1099 89.7413 58.4459 90.096C58.7912 90.4413 59.1972 90.614 59.6639 90.614ZM64.8221 92V85.056H66.4041L66.5441 86.232C66.7588 85.8213 67.0668 85.4947 67.4681 85.252C67.8788 85.0093 68.3594 84.888 68.9101 84.888C69.7688 84.888 70.4361 85.1587 70.9121 85.7C71.3881 86.2413 71.6261 87.0347 71.6261 88.08V92H69.8341V88.248C69.8341 87.6507 69.7128 87.1933 69.4701 86.876C69.2274 86.5587 68.8494 86.4 68.3361 86.4C67.8321 86.4 67.4168 86.5773 67.0901 86.932C66.7728 87.2867 66.6141 87.7813 66.6141 88.416V92H64.8221ZM75.7337 92.168C75.1364 92.168 74.6464 92.0747 74.2637 91.888C73.881 91.692 73.5964 91.4353 73.4097 91.118C73.223 90.8007 73.1297 90.4507 73.1297 90.068C73.1297 89.424 73.3817 88.9013 73.8857 88.5C74.3897 88.0987 75.1457 87.898 76.1537 87.898H77.9177V87.73C77.9177 87.254 77.7824 86.904 77.5117 86.68C77.241 86.456 76.905 86.344 76.5037 86.344C76.1397 86.344 75.8224 86.4327 75.5517 86.61C75.281 86.778 75.113 87.03 75.0477 87.366H73.2977C73.3444 86.862 73.5124 86.4233 73.8017 86.05C74.1004 85.6767 74.483 85.392 74.9497 85.196C75.4164 84.9907 75.939 84.888 76.5177 84.888C77.507 84.888 78.2864 85.1353 78.8557 85.63C79.425 86.1247 79.7097 86.8247 79.7097 87.73V92H78.1837L78.0157 90.88C77.8104 91.2533 77.521 91.5613 77.1477 91.804C76.7837 92.0467 76.3124 92.168 75.7337 92.168ZM76.1397 90.768C76.653 90.768 77.0497 90.6 77.3297 90.264C77.619 89.928 77.801 89.5127 77.8757 89.018H76.3497C75.8737 89.018 75.533 89.1067 75.3277 89.284C75.1224 89.452 75.0197 89.662 75.0197 89.914C75.0197 90.1847 75.1224 90.3947 75.3277 90.544C75.533 90.6933 75.8037 90.768 76.1397 90.768ZM81.4198 92V81.92H83.2118V92H81.4198ZM88.4208 92V82.2H90.5488L93.6708 88.416L96.7508 82.2H98.8788V92H97.0868V85.238L94.3568 90.6H92.9428L90.2128 85.238V92H88.4208ZM104.112 92.168C103.412 92.168 102.791 92.0187 102.25 91.72C101.709 91.4213 101.284 91.0013 100.976 90.46C100.668 89.9187 100.514 89.2933 100.514 88.584C100.514 87.8653 100.663 87.226 100.962 86.666C101.27 86.106 101.69 85.672 102.222 85.364C102.763 85.0467 103.398 84.888 104.126 84.888C104.807 84.888 105.409 85.0373 105.932 85.336C106.455 85.6347 106.861 86.0453 107.15 86.568C107.449 87.0813 107.598 87.6553 107.598 88.29C107.598 88.3927 107.593 88.5 107.584 88.612C107.584 88.724 107.579 88.8407 107.57 88.962H102.292C102.329 89.5033 102.516 89.928 102.852 90.236C103.197 90.544 103.613 90.698 104.098 90.698C104.462 90.698 104.765 90.6187 105.008 90.46C105.26 90.292 105.447 90.0773 105.568 89.816H107.388C107.257 90.2547 107.038 90.656 106.73 91.02C106.431 91.3747 106.058 91.6547 105.61 91.86C105.171 92.0653 104.672 92.168 104.112 92.168ZM104.126 86.344C103.687 86.344 103.3 86.47 102.964 86.722C102.628 86.9647 102.413 87.338 102.32 87.842H105.778C105.75 87.3847 105.582 87.0207 105.274 86.75C104.966 86.4793 104.583 86.344 104.126 86.344ZM112.297 92.168C111.644 92.168 111.061 92.0093 110.547 91.692C110.034 91.3747 109.628 90.9407 109.329 90.39C109.031 89.8393 108.881 89.214 108.881 88.514C108.881 87.814 109.031 87.1933 109.329 86.652C109.628 86.1013 110.034 85.672 110.547 85.364C111.061 85.0467 111.644 84.888 112.297 84.888C112.82 84.888 113.277 84.986 113.669 85.182C114.061 85.378 114.379 85.6533 114.621 86.008V81.92H116.413V92H114.817L114.621 91.006C114.397 91.314 114.099 91.5847 113.725 91.818C113.361 92.0513 112.885 92.168 112.297 92.168ZM112.675 90.6C113.254 90.6 113.725 90.4087 114.089 90.026C114.463 89.634 114.649 89.1347 114.649 88.528C114.649 87.9213 114.463 87.4267 114.089 87.044C113.725 86.652 113.254 86.456 112.675 86.456C112.106 86.456 111.635 86.6473 111.261 87.03C110.888 87.4127 110.701 87.9073 110.701 88.514C110.701 89.1207 110.888 89.62 111.261 90.012C111.635 90.404 112.106 90.6 112.675 90.6ZM119.204 83.978C118.877 83.978 118.607 83.88 118.392 83.684C118.187 83.488 118.084 83.2407 118.084 82.942C118.084 82.6433 118.187 82.4007 118.392 82.214C118.607 82.018 118.877 81.92 119.204 81.92C119.531 81.92 119.797 82.018 120.002 82.214C120.217 82.4007 120.324 82.6433 120.324 82.942C120.324 83.2407 120.217 83.488 120.002 83.684C119.797 83.88 119.531 83.978 119.204 83.978ZM118.308 92V85.056H120.1V92H118.308ZM124.365 92.168C123.767 92.168 123.277 92.0747 122.895 91.888C122.512 91.692 122.227 91.4353 122.041 91.118C121.854 90.8007 121.761 90.4507 121.761 90.068C121.761 89.424 122.013 88.9013 122.517 88.5C123.021 88.0987 123.777 87.898 124.785 87.898H126.549V87.73C126.549 87.254 126.413 86.904 126.143 86.68C125.872 86.456 125.536 86.344 125.135 86.344C124.771 86.344 124.453 86.4327 124.183 86.61C123.912 86.778 123.744 87.03 123.679 87.366H121.929C121.975 86.862 122.143 86.4233 122.433 86.05C122.731 85.6767 123.114 85.392 123.581 85.196C124.047 84.9907 124.57 84.888 125.149 84.888C126.138 84.888 126.917 85.1353 127.487 85.63C128.056 86.1247 128.341 86.8247 128.341 87.73V92H126.815L126.647 90.88C126.441 91.2533 126.152 91.5613 125.779 91.804C125.415 92.0467 124.943 92.168 124.365 92.168ZM124.771 90.768C125.284 90.768 125.681 90.6 125.961 90.264C126.25 89.928 126.432 89.5127 126.507 89.018H124.981C124.505 89.018 124.164 89.1067 123.959 89.284C123.753 89.452 123.651 89.662 123.651 89.914C123.651 90.1847 123.753 90.3947 123.959 90.544C124.164 90.6933 124.435 90.768 124.771 90.768Z" fill="#232360"/>
</g>
<defs>
<clipPath id="clip0_55_329">
<rect width="1440" height="1024" fill="white" transform="translate(-154 -422)"/>
</clipPath>
</defs>
</svg>
