<svg width="271" height="140" viewBox="0 0 271 140" fill="none" xmlns="http://www.w3.org/2000/svg">
<rect width="271" height="140" fill="#E5E5E5"/>
<g clip-path="url(#clip0_55_329)">
<rect width="1440" height="1024" transform="translate(-736 -262)" fill="white"/>
<rect x="-731" y="-296" width="1440" height="1024" fill="#F3F4F8"/>
<rect x="-612" y="-80" width="913" height="410" rx="14" fill="white"/>
<rect x="171" y="21" width="30" height="30" rx="9" fill="white"/>
<rect x="173" y="23" width="26" height="26" rx="9" fill="#5051F9"/>
<path d="M181.952 41V31.2H183.744V35.162L187.37 31.2H189.582L185.97 35.092L189.68 41H187.482L184.682 36.464L183.744 37.486V41H181.952Z" fill="white"/>
<rect x="195" y="21" width="30" height="30" rx="9" fill="white"/>
<rect x="197" y="23" width="26" height="26" rx="9" fill="#1EA7FF"/>
<path d="M205.952 41V31.2H209.886C210.903 31.2 211.678 31.438 212.21 31.914C212.751 32.3807 213.022 32.9827 213.022 33.72C213.022 34.336 212.854 34.8307 212.518 35.204C212.191 35.568 211.79 35.8153 211.314 35.946C211.874 36.058 212.336 36.338 212.7 36.786C213.064 37.2247 213.246 37.738 213.246 38.326C213.246 39.1007 212.966 39.74 212.406 40.244C211.846 40.748 211.053 41 210.026 41H205.952ZM207.744 35.316H209.62C210.124 35.316 210.511 35.1993 210.782 34.966C211.053 34.7327 211.188 34.4013 211.188 33.972C211.188 33.5613 211.053 33.2393 210.782 33.006C210.521 32.7633 210.124 32.642 209.592 32.642H207.744V35.316ZM207.744 39.544H209.746C210.278 39.544 210.689 39.4227 210.978 39.18C211.277 38.928 211.426 38.578 211.426 38.13C211.426 37.6727 211.272 37.3133 210.964 37.052C210.656 36.7907 210.241 36.66 209.718 36.66H207.744V39.544Z" fill="white"/>
<rect x="219" y="21" width="30" height="30" rx="9" fill="white"/>
<rect x="221" y="23" width="26" height="26" rx="9" fill="#EBF2FF"/>
<path d="M222.672 37.168V35.884H224.928V33.808H226.236V35.884H228.48V37.168H226.236V39.244H224.928V37.168H222.672ZM232.988 40.144C232.372 40.144 231.84 40.036 231.392 39.82C230.952 39.604 230.604 39.308 230.348 38.932C230.1 38.548 229.956 38.116 229.916 37.636H231.416C231.488 37.98 231.664 38.268 231.944 38.5C232.224 38.724 232.572 38.836 232.988 38.836C233.436 38.836 233.8 38.672 234.08 38.344C234.368 38.016 234.512 37.608 234.512 37.12C234.512 36.616 234.368 36.216 234.08 35.92C233.8 35.624 233.444 35.476 233.012 35.476C232.652 35.476 232.34 35.564 232.076 35.74C231.812 35.916 231.624 36.136 231.512 36.4H230.036L230.756 31.6H235.412V32.944H231.908L231.524 34.888C231.7 34.696 231.94 34.54 232.244 34.42C232.548 34.292 232.888 34.228 233.264 34.228C233.864 34.228 234.364 34.364 234.764 34.636C235.164 34.9 235.468 35.252 235.676 35.692C235.884 36.124 235.988 36.596 235.988 37.108C235.988 37.692 235.86 38.212 235.604 38.668C235.356 39.124 235.004 39.484 234.548 39.748C234.1 40.012 233.58 40.144 232.988 40.144ZM240.574 40.144C239.942 40.144 239.41 40.028 238.978 39.796C238.546 39.564 238.198 39.252 237.934 38.86C237.67 38.468 237.478 38.032 237.358 37.552C237.246 37.072 237.19 36.58 237.19 36.076C237.19 35.14 237.322 34.328 237.586 33.64C237.85 32.944 238.23 32.408 238.726 32.032C239.222 31.648 239.822 31.456 240.526 31.456C241.102 31.456 241.59 31.572 241.99 31.804C242.398 32.028 242.714 32.324 242.938 32.692C243.162 33.06 243.294 33.456 243.334 33.88H241.906C241.834 33.512 241.678 33.228 241.438 33.028C241.198 32.828 240.89 32.728 240.514 32.728C239.978 32.728 239.546 32.976 239.218 33.472C238.89 33.96 238.714 34.708 238.69 35.716C238.882 35.388 239.17 35.116 239.554 34.9C239.938 34.684 240.366 34.576 240.838 34.576C241.302 34.576 241.738 34.688 242.146 34.912C242.554 35.136 242.882 35.452 243.13 35.86C243.386 36.268 243.514 36.748 243.514 37.3C243.514 37.804 243.39 38.272 243.142 38.704C242.902 39.136 242.558 39.484 242.11 39.748C241.67 40.012 241.158 40.144 240.574 40.144ZM240.49 38.824C240.938 38.824 241.306 38.688 241.594 38.416C241.89 38.136 242.038 37.784 242.038 37.36C242.038 36.912 241.89 36.552 241.594 36.28C241.298 36.008 240.922 35.872 240.466 35.872C240.17 35.872 239.902 35.94 239.662 36.076C239.43 36.204 239.246 36.38 239.11 36.604C238.974 36.82 238.906 37.064 238.906 37.336C238.906 37.768 239.054 38.124 239.35 38.404C239.654 38.684 240.034 38.824 240.49 38.824Z" fill="#242526"/>
<rect x="0.5" y="0.5" width="270" height="139" rx="9.5" fill="white" stroke="#E3EBEE"/>
<path fill-rule="evenodd" clip-rule="evenodd" d="M36.749 23.75H28.124C26.5284 23.75 25.249 25.0294 25.249 26.625V43.875C25.249 45.4628 26.5362 46.75 28.124 46.75H51.124C52.7118 46.75 53.999 45.4628 53.999 43.875V29.5C53.999 27.9044 52.7053 26.625 51.124 26.625H39.624L36.749 23.75Z" fill="#1EA7FF"/>
<path d="M29.965 116.156C29.367 116.156 28.8297 116.048 28.353 115.831C27.8763 115.606 27.4993 115.298 27.222 114.908C26.9533 114.509 26.819 114.05 26.819 113.53C26.819 112.975 26.9793 112.477 27.3 112.035C27.6293 111.593 28.0627 111.298 28.6 111.151C28.106 110.986 27.7247 110.722 27.456 110.358C27.1873 109.994 27.053 109.595 27.053 109.162C27.053 108.72 27.17 108.317 27.404 107.953C27.638 107.58 27.9717 107.286 28.405 107.069C28.8383 106.852 29.3583 106.744 29.965 106.744C30.5717 106.744 31.0917 106.852 31.525 107.069C31.9583 107.286 32.292 107.58 32.526 107.953C32.76 108.317 32.877 108.72 32.877 109.162C32.877 109.587 32.7427 109.985 32.474 110.358C32.2053 110.722 31.824 110.986 31.33 111.151C31.8673 111.298 32.2963 111.593 32.617 112.035C32.9463 112.477 33.111 112.975 33.111 113.53C33.111 114.05 32.9723 114.509 32.695 114.908C32.4263 115.298 32.0537 115.606 31.577 115.831C31.1003 116.048 30.563 116.156 29.965 116.156ZM29.965 110.761C30.5197 110.761 30.9573 110.622 31.278 110.345C31.6073 110.059 31.772 109.686 31.772 109.227C31.772 108.716 31.6117 108.33 31.291 108.07C30.9703 107.81 30.5283 107.68 29.965 107.68C29.4017 107.68 28.9597 107.81 28.639 108.07C28.327 108.33 28.171 108.716 28.171 109.227C28.171 109.686 28.3313 110.059 28.652 110.345C28.9727 110.622 29.4103 110.761 29.965 110.761ZM29.965 115.194C30.6497 115.194 31.161 115.038 31.499 114.726C31.8457 114.405 32.019 113.985 32.019 113.465C32.019 112.876 31.8327 112.429 31.46 112.126C31.0873 111.823 30.589 111.671 29.965 111.671C29.341 111.671 28.8427 111.823 28.47 112.126C28.0973 112.429 27.911 112.876 27.911 113.465C27.911 113.985 28.08 114.405 28.418 114.726C28.7647 115.038 29.2803 115.194 29.965 115.194ZM39.0176 116V114.05H34.4026V113.205L38.8226 106.9H40.0966V113.088H41.4486V114.05H40.0966V116H39.0176ZM35.6116 113.088H39.0696V108.109L35.6116 113.088ZM46.4941 116V110.475H45.5191V109.552H46.4941V108.434C46.4941 107.81 46.6501 107.355 46.9621 107.069C47.2741 106.783 47.7291 106.64 48.3271 106.64H48.9771V107.576H48.4961C48.1668 107.576 47.9328 107.645 47.7941 107.784C47.6554 107.914 47.5861 108.139 47.5861 108.46V109.552H51.5901V116H50.4981V110.475H47.5861V116H46.4941ZM51.0571 108.317C50.8491 108.317 50.6714 108.248 50.5241 108.109C50.3768 107.962 50.3031 107.78 50.3031 107.563C50.3031 107.355 50.3768 107.182 50.5241 107.043C50.6714 106.904 50.8491 106.835 51.0571 106.835C51.2738 106.835 51.4514 106.904 51.5901 107.043C51.7374 107.182 51.8111 107.355 51.8111 107.563C51.8111 107.78 51.7374 107.962 51.5901 108.109C51.4514 108.248 51.2738 108.317 51.0571 108.317ZM53.5191 116V106.64H54.6111V116H53.5191ZM59.2999 116.156C58.6846 116.156 58.1386 116.017 57.6619 115.74C57.1852 115.454 56.8082 115.06 56.5309 114.557C56.2622 114.054 56.1279 113.461 56.1279 112.776C56.1279 112.1 56.2622 111.511 56.5309 111.008C56.7996 110.497 57.1722 110.102 57.6489 109.825C58.1342 109.539 58.6932 109.396 59.3259 109.396C59.9499 109.396 60.4872 109.539 60.9379 109.825C61.3972 110.102 61.7482 110.471 61.9909 110.93C62.2336 111.389 62.3549 111.883 62.3549 112.412C62.3549 112.507 62.3506 112.603 62.3419 112.698C62.3419 112.793 62.3419 112.902 62.3419 113.023H57.2069C57.2329 113.517 57.3456 113.929 57.5449 114.258C57.7529 114.579 58.0086 114.821 58.3119 114.986C58.6239 115.151 58.9532 115.233 59.2999 115.233C59.7506 115.233 60.1276 115.129 60.4309 114.921C60.7342 114.713 60.9552 114.431 61.0939 114.076H62.1729C61.9996 114.674 61.6659 115.172 61.1719 115.571C60.6866 115.961 60.0626 116.156 59.2999 116.156ZM59.2999 110.319C58.7799 110.319 58.3162 110.479 57.9089 110.8C57.5102 111.112 57.2806 111.571 57.2199 112.178H61.2759C61.2499 111.597 61.0506 111.142 60.6779 110.813C60.3052 110.484 59.8459 110.319 59.2999 110.319ZM66.2723 116.156C65.5009 116.156 64.8596 115.961 64.3483 115.571C63.8369 115.181 63.5379 114.652 63.4513 113.985H64.5693C64.6386 114.323 64.8163 114.618 65.1023 114.869C65.3969 115.112 65.7913 115.233 66.2853 115.233C66.7446 115.233 67.0826 115.138 67.2993 114.947C67.5159 114.748 67.6243 114.514 67.6243 114.245C67.6243 113.855 67.4813 113.595 67.1953 113.465C66.9179 113.335 66.5236 113.218 66.0123 113.114C65.6656 113.045 65.3189 112.945 64.9723 112.815C64.6256 112.685 64.3353 112.503 64.1013 112.269C63.8673 112.026 63.7503 111.71 63.7503 111.32C63.7503 110.757 63.9583 110.297 64.3743 109.942C64.7989 109.578 65.3709 109.396 66.0903 109.396C66.7749 109.396 67.3339 109.569 67.7673 109.916C68.2093 110.254 68.4649 110.739 68.5343 111.372H67.4553C67.4119 111.043 67.2689 110.787 67.0263 110.605C66.7923 110.414 66.4759 110.319 66.0773 110.319C65.6873 110.319 65.3839 110.401 65.1673 110.566C64.9593 110.731 64.8553 110.947 64.8553 111.216C64.8553 111.476 64.9896 111.68 65.2583 111.827C65.5356 111.974 65.9083 112.1 66.3763 112.204C66.7749 112.291 67.1519 112.399 67.5073 112.529C67.8713 112.65 68.1659 112.837 68.3913 113.088C68.6253 113.331 68.7423 113.686 68.7423 114.154C68.7509 114.735 68.5299 115.216 68.0793 115.597C67.6373 115.97 67.0349 116.156 66.2723 116.156Z" fill="#768396"/>
<path d="M28.94 92L26.35 82.2H28.268L30.032 89.998L32.104 82.2H34.078L36.094 89.998L37.858 82.2H39.79L37.13 92H35.002L33.056 84.734L31.054 92H28.94ZM43.6404 92.168C42.9684 92.168 42.3618 92.014 41.8204 91.706C41.2884 91.398 40.8638 90.9733 40.5464 90.432C40.2384 89.8813 40.0844 89.2467 40.0844 88.528C40.0844 87.8093 40.2431 87.1793 40.5604 86.638C40.8778 86.0873 41.3024 85.658 41.8344 85.35C42.3758 85.042 42.9824 84.888 43.6544 84.888C44.3171 84.888 44.9144 85.042 45.4464 85.35C45.9878 85.658 46.4124 86.0873 46.7204 86.638C47.0378 87.1793 47.1964 87.8093 47.1964 88.528C47.1964 89.2467 47.0378 89.8813 46.7204 90.432C46.4124 90.9733 45.9878 91.398 45.4464 91.706C44.9051 92.014 44.3031 92.168 43.6404 92.168ZM43.6404 90.614C44.1071 90.614 44.5131 90.4413 44.8584 90.096C45.2038 89.7413 45.3764 89.2187 45.3764 88.528C45.3764 87.8373 45.2038 87.3193 44.8584 86.974C44.5131 86.6193 44.1118 86.442 43.6544 86.442C43.1784 86.442 42.7678 86.6193 42.4224 86.974C42.0864 87.3193 41.9184 87.8373 41.9184 88.528C41.9184 89.2187 42.0864 89.7413 42.4224 90.096C42.7678 90.4413 43.1738 90.614 43.6404 90.614ZM48.7987 92V85.056H50.3947L50.5627 86.358C50.8147 85.91 51.1553 85.5553 51.5847 85.294C52.0233 85.0233 52.5367 84.888 53.1247 84.888V86.778H52.6207C52.2287 86.778 51.8787 86.8387 51.5707 86.96C51.2627 87.0813 51.02 87.2913 50.8427 87.59C50.6747 87.8887 50.5907 88.304 50.5907 88.836V92H48.7987ZM54.3495 92V81.92H56.1415V87.87L58.6055 85.056H60.7335L57.8915 88.22L61.1955 92H58.9555L56.1415 88.514V92H54.3495ZM65.6844 92V82.2H69.3104C70.0944 82.2 70.7431 82.3307 71.2564 82.592C71.7698 82.8533 72.1524 83.2127 72.4044 83.67C72.6564 84.1273 72.7824 84.6407 72.7824 85.21C72.7824 85.7513 72.6611 86.2507 72.4184 86.708C72.1758 87.156 71.7978 87.52 71.2844 87.8C70.7711 88.0707 70.1131 88.206 69.3104 88.206H67.4764V92H65.6844ZM67.4764 86.75H69.1984C69.8238 86.75 70.2718 86.6147 70.5424 86.344C70.8224 86.064 70.9624 85.686 70.9624 85.21C70.9624 84.7247 70.8224 84.3467 70.5424 84.076C70.2718 83.796 69.8238 83.656 69.1984 83.656H67.4764V86.75ZM74.1463 92V85.056H75.7423L75.9103 86.358C76.1623 85.91 76.503 85.5553 76.9323 85.294C77.371 85.0233 77.8843 84.888 78.4723 84.888V86.778H77.9683C77.5763 86.778 77.2263 86.8387 76.9183 86.96C76.6103 87.0813 76.3677 87.2913 76.1903 87.59C76.0223 87.8887 75.9383 88.304 75.9383 88.836V92H74.1463ZM82.9061 92.168C82.2341 92.168 81.6274 92.014 81.0861 91.706C80.5541 91.398 80.1294 90.9733 79.8121 90.432C79.5041 89.8813 79.3501 89.2467 79.3501 88.528C79.3501 87.8093 79.5087 87.1793 79.8261 86.638C80.1434 86.0873 80.5681 85.658 81.1001 85.35C81.6414 85.042 82.2481 84.888 82.9201 84.888C83.5827 84.888 84.1801 85.042 84.7121 85.35C85.2534 85.658 85.6781 86.0873 85.9861 86.638C86.3034 87.1793 86.4621 87.8093 86.4621 88.528C86.4621 89.2467 86.3034 89.8813 85.9861 90.432C85.6781 90.9733 85.2534 91.398 84.7121 91.706C84.1707 92.014 83.5687 92.168 82.9061 92.168ZM82.9061 90.614C83.3727 90.614 83.7787 90.4413 84.1241 90.096C84.4694 89.7413 84.6421 89.2187 84.6421 88.528C84.6421 87.8373 84.4694 87.3193 84.1241 86.974C83.7787 86.6193 83.3774 86.442 82.9201 86.442C82.4441 86.442 82.0334 86.6193 81.6881 86.974C81.3521 87.3193 81.1841 87.8373 81.1841 88.528C81.1841 89.2187 81.3521 89.7413 81.6881 90.096C82.0334 90.4413 82.4394 90.614 82.9061 90.614ZM89.0583 83.978C88.7316 83.978 88.461 83.88 88.2463 83.684C88.041 83.488 87.9383 83.2407 87.9383 82.942C87.9383 82.6433 88.041 82.4007 88.2463 82.214C88.461 82.018 88.7316 81.92 89.0583 81.92C89.385 81.92 89.651 82.018 89.8563 82.214C90.071 82.4007 90.1783 82.6433 90.1783 82.942C90.1783 83.2407 90.071 83.488 89.8563 83.684C89.651 83.88 89.385 83.978 89.0583 83.978ZM86.7483 95.08V93.554H87.2943C87.6023 93.554 87.8216 93.4933 87.9523 93.372C88.083 93.2507 88.1483 93.0453 88.1483 92.756V85.056H89.9403V92.756C89.9403 93.596 89.7256 94.1933 89.2963 94.548C88.8763 94.9027 88.3023 95.08 87.5743 95.08H86.7483ZM95.1844 92.168C94.4844 92.168 93.8637 92.0187 93.3224 91.72C92.7811 91.4213 92.3564 91.0013 92.0484 90.46C91.7404 89.9187 91.5864 89.2933 91.5864 88.584C91.5864 87.8653 91.7357 87.226 92.0344 86.666C92.3424 86.106 92.7624 85.672 93.2944 85.364C93.8357 85.0467 94.4704 84.888 95.1984 84.888C95.8797 84.888 96.4817 85.0373 97.0044 85.336C97.5271 85.6347 97.9331 86.0453 98.2224 86.568C98.5211 87.0813 98.6704 87.6553 98.6704 88.29C98.6704 88.3927 98.6657 88.5 98.6564 88.612C98.6564 88.724 98.6517 88.8407 98.6424 88.962H93.3644C93.4017 89.5033 93.5884 89.928 93.9244 90.236C94.2697 90.544 94.6851 90.698 95.1704 90.698C95.5344 90.698 95.8377 90.6187 96.0804 90.46C96.3324 90.292 96.5191 90.0773 96.6404 89.816H98.4604C98.3297 90.2547 98.1104 90.656 97.8024 91.02C97.5037 91.3747 97.1304 91.6547 96.6824 91.86C96.2437 92.0653 95.7444 92.168 95.1844 92.168ZM95.1984 86.344C94.7597 86.344 94.3724 86.47 94.0364 86.722C93.7004 86.9647 93.4857 87.338 93.3924 87.842H96.8504C96.8224 87.3847 96.6544 87.0207 96.3464 86.75C96.0384 86.4793 95.6557 86.344 95.1984 86.344ZM103.58 92.168C102.87 92.168 102.245 92.014 101.704 91.706C101.162 91.398 100.733 90.9687 100.416 90.418C100.108 89.8673 99.9536 89.2373 99.9536 88.528C99.9536 87.8187 100.108 87.1887 100.416 86.638C100.733 86.0873 101.162 85.658 101.704 85.35C102.245 85.042 102.87 84.888 103.58 84.888C104.466 84.888 105.213 85.1213 105.82 85.588C106.426 86.0453 106.814 86.68 106.982 87.492H105.092C104.998 87.156 104.812 86.8947 104.532 86.708C104.261 86.512 103.939 86.414 103.566 86.414C103.071 86.414 102.651 86.6007 102.306 86.974C101.96 87.3473 101.788 87.8653 101.788 88.528C101.788 89.1907 101.96 89.7087 102.306 90.082C102.651 90.4553 103.071 90.642 103.566 90.642C103.939 90.642 104.261 90.5487 104.532 90.362C104.812 90.1753 104.998 89.9093 105.092 89.564H106.982C106.814 90.348 106.426 90.978 105.82 91.454C105.213 91.93 104.466 92.168 103.58 92.168ZM111.57 92C110.842 92 110.259 91.8227 109.82 91.468C109.382 91.1133 109.162 90.4833 109.162 89.578V86.554H107.972V85.056H109.162L109.372 83.194H110.954V85.056H112.83V86.554H110.954V89.592C110.954 89.928 111.024 90.1613 111.164 90.292C111.314 90.4133 111.566 90.474 111.92 90.474H112.788V92H111.57Z" fill="#232360"/>
<rect x="199" y="22" width="26" height="26" rx="9" fill="#5051F9"/>
<path d="M207.322 40L210.906 30.2H212.922L216.506 40H214.602L213.818 37.732H209.996L209.198 40H207.322ZM210.486 36.332H213.328L211.9 32.258L210.486 36.332Z" fill="white"/>
<rect x="221" y="20" width="30" height="30" rx="9" fill="white"/>
<rect x="223" y="22" width="26" height="26" rx="9" fill="#1EA7FF"/>
<path d="M232.952 40V30.2H236.886C237.903 30.2 238.678 30.438 239.21 30.914C239.751 31.3807 240.022 31.9827 240.022 32.72C240.022 33.336 239.854 33.8307 239.518 34.204C239.191 34.568 238.79 34.8153 238.314 34.946C238.874 35.058 239.336 35.338 239.7 35.786C240.064 36.2247 240.246 36.738 240.246 37.326C240.246 38.1007 239.966 38.74 239.406 39.244C238.846 39.748 238.053 40 237.026 40H232.952ZM234.744 34.316H236.62C237.124 34.316 237.511 34.1993 237.782 33.966C238.053 33.7327 238.188 33.4013 238.188 32.972C238.188 32.5613 238.053 32.2393 237.782 32.006C237.521 31.7633 237.124 31.642 236.592 31.642H234.744V34.316ZM234.744 38.544H236.746C237.278 38.544 237.689 38.4227 237.978 38.18C238.277 37.928 238.426 37.578 238.426 37.13C238.426 36.6727 238.272 36.3133 237.964 36.052C237.656 35.7907 237.241 35.66 236.718 35.66H234.744V38.544Z" fill="white"/>
</g>
<defs>
<clipPath id="clip0_55_329">
<rect width="1440" height="1024" fill="white" transform="translate(-736 -262)"/>
</clipPath>
</defs>
</svg>
