<svg width="271" height="140" viewBox="0 0 271 140" fill="none" xmlns="http://www.w3.org/2000/svg">
<rect width="271" height="140" fill="#E5E5E5"/>
<g clip-path="url(#clip0_55_329)">
<rect width="1440" height="1024" transform="translate(-736 -422)" fill="white"/>
<rect x="-731" y="-456" width="1440" height="1024" fill="#F3F4F8"/>
<rect x="-612" y="-240" width="913" height="410" rx="14" fill="white"/>
<rect x="0.5" y="0.5" width="270" height="139" rx="9.5" fill="white" stroke="#E3EBEE"/>
<path fill-rule="evenodd" clip-rule="evenodd" d="M35.749 23.75H27.124C25.5284 23.75 24.249 25.0294 24.249 26.625V43.875C24.249 45.4628 25.5362 46.75 27.124 46.75H50.124C51.7118 46.75 52.999 45.4628 52.999 43.875V29.5C52.999 27.9044 51.7053 26.625 50.124 26.625H38.624L35.749 23.75Z" fill="#FF4A4A"/>
<path d="M26.716 116L30.33 107.836H25.338V106.9H31.448V107.719L27.873 116H26.716ZM35.6808 116.156C35.0828 116.156 34.5455 116.048 34.0688 115.831C33.5922 115.606 33.2152 115.298 32.9378 114.908C32.6692 114.509 32.5348 114.05 32.5348 113.53C32.5348 112.975 32.6952 112.477 33.0158 112.035C33.3452 111.593 33.7785 111.298 34.3158 111.151C33.8218 110.986 33.4405 110.722 33.1718 110.358C32.9032 109.994 32.7688 109.595 32.7688 109.162C32.7688 108.72 32.8858 108.317 33.1198 107.953C33.3538 107.58 33.6875 107.286 34.1208 107.069C34.5542 106.852 35.0742 106.744 35.6808 106.744C36.2875 106.744 36.8075 106.852 37.2408 107.069C37.6742 107.286 38.0078 107.58 38.2418 107.953C38.4758 108.317 38.5928 108.72 38.5928 109.162C38.5928 109.587 38.4585 109.985 38.1898 110.358C37.9212 110.722 37.5398 110.986 37.0458 111.151C37.5832 111.298 38.0122 111.593 38.3328 112.035C38.6622 112.477 38.8268 112.975 38.8268 113.53C38.8268 114.05 38.6882 114.509 38.4108 114.908C38.1422 115.298 37.7695 115.606 37.2928 115.831C36.8162 116.048 36.2788 116.156 35.6808 116.156ZM35.6808 110.761C36.2355 110.761 36.6732 110.622 36.9938 110.345C37.3232 110.059 37.4878 109.686 37.4878 109.227C37.4878 108.716 37.3275 108.33 37.0068 108.07C36.6862 107.81 36.2442 107.68 35.6808 107.68C35.1175 107.68 34.6755 107.81 34.3548 108.07C34.0428 108.33 33.8868 108.716 33.8868 109.227C33.8868 109.686 34.0472 110.059 34.3678 110.345C34.6885 110.622 35.1262 110.761 35.6808 110.761ZM35.6808 115.194C36.3655 115.194 36.8768 115.038 37.2148 114.726C37.5615 114.405 37.7348 113.985 37.7348 113.465C37.7348 112.876 37.5485 112.429 37.1758 112.126C36.8032 111.823 36.3048 111.671 35.6808 111.671C35.0568 111.671 34.5585 111.823 34.1858 112.126C33.8132 112.429 33.6268 112.876 33.6268 113.465C33.6268 113.985 33.7958 114.405 34.1338 114.726C34.4805 115.038 34.9962 115.194 35.6808 115.194ZM44.3388 116V110.475H43.3638V109.552H44.3388V108.434C44.3388 107.81 44.4948 107.355 44.8068 107.069C45.1188 106.783 45.5738 106.64 46.1718 106.64H46.8218V107.576H46.3408C46.0115 107.576 45.7775 107.645 45.6388 107.784C45.5002 107.914 45.4308 108.139 45.4308 108.46V109.552H49.4348V116H48.3428V110.475H45.4308V116H44.3388ZM48.9018 108.317C48.6938 108.317 48.5162 108.248 48.3688 108.109C48.2215 107.962 48.1478 107.78 48.1478 107.563C48.1478 107.355 48.2215 107.182 48.3688 107.043C48.5162 106.904 48.6938 106.835 48.9018 106.835C49.1185 106.835 49.2962 106.904 49.4348 107.043C49.5822 107.182 49.6558 107.355 49.6558 107.563C49.6558 107.78 49.5822 107.962 49.4348 108.109C49.2962 108.248 49.1185 108.317 48.9018 108.317ZM51.3638 116V106.64H52.4558V116H51.3638ZM57.1446 116.156C56.5293 116.156 55.9833 116.017 55.5066 115.74C55.03 115.454 54.653 115.06 54.3756 114.557C54.107 114.054 53.9726 113.461 53.9726 112.776C53.9726 112.1 54.107 111.511 54.3756 111.008C54.6443 110.497 55.017 110.102 55.4936 109.825C55.979 109.539 56.538 109.396 57.1706 109.396C57.7946 109.396 58.332 109.539 58.7826 109.825C59.242 110.102 59.593 110.471 59.8356 110.93C60.0783 111.389 60.1996 111.883 60.1996 112.412C60.1996 112.507 60.1953 112.603 60.1866 112.698C60.1866 112.793 60.1866 112.902 60.1866 113.023H55.0516C55.0776 113.517 55.1903 113.929 55.3896 114.258C55.5976 114.579 55.8533 114.821 56.1566 114.986C56.4686 115.151 56.798 115.233 57.1446 115.233C57.5953 115.233 57.9723 115.129 58.2756 114.921C58.579 114.713 58.8 114.431 58.9386 114.076H60.0176C59.8443 114.674 59.5106 115.172 59.0166 115.571C58.5313 115.961 57.9073 116.156 57.1446 116.156ZM57.1446 110.319C56.6246 110.319 56.161 110.479 55.7536 110.8C55.355 111.112 55.1253 111.571 55.0646 112.178H59.1206C59.0946 111.597 58.8953 111.142 58.5226 110.813C58.15 110.484 57.6906 110.319 57.1446 110.319ZM64.117 116.156C63.3457 116.156 62.7043 115.961 62.193 115.571C61.6817 115.181 61.3827 114.652 61.296 113.985H62.414C62.4833 114.323 62.661 114.618 62.947 114.869C63.2417 115.112 63.636 115.233 64.13 115.233C64.5893 115.233 64.9273 115.138 65.144 114.947C65.3607 114.748 65.469 114.514 65.469 114.245C65.469 113.855 65.326 113.595 65.04 113.465C64.7627 113.335 64.3683 113.218 63.857 113.114C63.5103 113.045 63.1637 112.945 62.817 112.815C62.4703 112.685 62.18 112.503 61.946 112.269C61.712 112.026 61.595 111.71 61.595 111.32C61.595 110.757 61.803 110.297 62.219 109.942C62.6437 109.578 63.2157 109.396 63.935 109.396C64.6197 109.396 65.1787 109.569 65.612 109.916C66.054 110.254 66.3097 110.739 66.379 111.372H65.3C65.2567 111.043 65.1137 110.787 64.871 110.605C64.637 110.414 64.3207 110.319 63.922 110.319C63.532 110.319 63.2287 110.401 63.012 110.566C62.804 110.731 62.7 110.947 62.7 111.216C62.7 111.476 62.8343 111.68 63.103 111.827C63.3803 111.974 63.753 112.1 64.221 112.204C64.6197 112.291 64.9967 112.399 65.352 112.529C65.716 112.65 66.0107 112.837 66.236 113.088C66.47 113.331 66.587 113.686 66.587 114.154C66.5957 114.735 66.3747 115.216 65.924 115.597C65.482 115.97 64.8797 116.156 64.117 116.156Z" fill="#768396"/>
<path d="M25.952 92V82.2H29.886C30.9033 82.2 31.678 82.438 32.21 82.914C32.7513 83.3807 33.022 83.9827 33.022 84.72C33.022 85.336 32.854 85.8307 32.518 86.204C32.1913 86.568 31.79 86.8153 31.314 86.946C31.874 87.058 32.336 87.338 32.7 87.786C33.064 88.2247 33.246 88.738 33.246 89.326C33.246 90.1007 32.966 90.74 32.406 91.244C31.846 91.748 31.0527 92 30.026 92H25.952ZM27.744 86.316H29.62C30.124 86.316 30.5113 86.1993 30.782 85.966C31.0527 85.7327 31.188 85.4013 31.188 84.972C31.188 84.5613 31.0527 84.2393 30.782 84.006C30.5207 83.7633 30.124 83.642 29.592 83.642H27.744V86.316ZM27.744 90.544H29.746C30.278 90.544 30.6887 90.4227 30.978 90.18C31.2767 89.928 31.426 89.578 31.426 89.13C31.426 88.6727 31.272 88.3133 30.964 88.052C30.656 87.7907 30.2407 87.66 29.718 87.66H27.744V90.544ZM35.708 83.978C35.3814 83.978 35.1107 83.88 34.896 83.684C34.6907 83.488 34.588 83.2407 34.588 82.942C34.588 82.6433 34.6907 82.4007 34.896 82.214C35.1107 82.018 35.3814 81.92 35.708 81.92C36.0347 81.92 36.3007 82.018 36.506 82.214C36.7207 82.4007 36.828 82.6433 36.828 82.942C36.828 83.2407 36.7207 83.488 36.506 83.684C36.3007 83.88 36.0347 83.978 35.708 83.978ZM34.812 92V85.056H36.604V92H34.812ZM38.4745 92V85.056H40.0705L40.2385 86.358C40.4905 85.91 40.8311 85.5553 41.2605 85.294C41.6991 85.0233 42.2125 84.888 42.8005 84.888V86.778H42.2965C41.9045 86.778 41.5545 86.8387 41.2465 86.96C40.9385 87.0813 40.6958 87.2913 40.5185 87.59C40.3505 87.8887 40.2665 88.304 40.2665 88.836V92H38.4745ZM47.1192 92C46.3912 92 45.8079 91.8227 45.3692 91.468C44.9306 91.1133 44.7112 90.4833 44.7112 89.578V86.554H43.5212V85.056H44.7112L44.9212 83.194H46.5032V85.056H48.3792V86.554H46.5032V89.592C46.5032 89.928 46.5732 90.1613 46.7132 90.292C46.8626 90.4133 47.1146 90.474 47.4692 90.474H48.3372V92H47.1192ZM49.9178 92V81.92H51.7098V86.12C51.9431 85.7373 52.2558 85.4387 52.6478 85.224C53.0491 85 53.5065 84.888 54.0198 84.888C54.8785 84.888 55.5411 85.1587 56.0078 85.7C56.4838 86.2413 56.7218 87.0347 56.7218 88.08V92H54.9438V88.248C54.9438 87.6507 54.8225 87.1933 54.5798 86.876C54.3465 86.5587 53.9731 86.4 53.4598 86.4C52.9558 86.4 52.5358 86.5773 52.1998 86.932C51.8731 87.2867 51.7098 87.7813 51.7098 88.416V92H49.9178ZM61.6274 92.168C60.9741 92.168 60.3907 92.0093 59.8774 91.692C59.3641 91.3747 58.9581 90.9407 58.6594 90.39C58.3607 89.8393 58.2114 89.214 58.2114 88.514C58.2114 87.814 58.3607 87.1933 58.6594 86.652C58.9581 86.1013 59.3641 85.672 59.8774 85.364C60.3907 85.0467 60.9741 84.888 61.6274 84.888C62.1501 84.888 62.6074 84.986 62.9994 85.182C63.3914 85.378 63.7087 85.6533 63.9514 86.008V81.92H65.7434V92H64.1474L63.9514 91.006C63.7274 91.314 63.4287 91.5847 63.0554 91.818C62.6914 92.0513 62.2154 92.168 61.6274 92.168ZM62.0054 90.6C62.5841 90.6 63.0554 90.4087 63.4194 90.026C63.7927 89.634 63.9794 89.1347 63.9794 88.528C63.9794 87.9213 63.7927 87.4267 63.4194 87.044C63.0554 86.652 62.5841 86.456 62.0054 86.456C61.4361 86.456 60.9647 86.6473 60.5914 87.03C60.2181 87.4127 60.0314 87.9073 60.0314 88.514C60.0314 89.1207 60.2181 89.62 60.5914 90.012C60.9647 90.404 61.4361 90.6 62.0054 90.6ZM69.9622 92.168C69.3649 92.168 68.8749 92.0747 68.4922 91.888C68.1095 91.692 67.8249 91.4353 67.6382 91.118C67.4515 90.8007 67.3582 90.4507 67.3582 90.068C67.3582 89.424 67.6102 88.9013 68.1142 88.5C68.6182 88.0987 69.3742 87.898 70.3822 87.898H72.1462V87.73C72.1462 87.254 72.0109 86.904 71.7402 86.68C71.4695 86.456 71.1335 86.344 70.7322 86.344C70.3682 86.344 70.0509 86.4327 69.7802 86.61C69.5095 86.778 69.3415 87.03 69.2762 87.366H67.5262C67.5729 86.862 67.7409 86.4233 68.0302 86.05C68.3289 85.6767 68.7115 85.392 69.1782 85.196C69.6449 84.9907 70.1675 84.888 70.7462 84.888C71.7355 84.888 72.5149 85.1353 73.0842 85.63C73.6535 86.1247 73.9382 86.8247 73.9382 87.73V92H72.4122L72.2442 90.88C72.0389 91.2533 71.7495 91.5613 71.3762 91.804C71.0122 92.0467 70.5409 92.168 69.9622 92.168ZM70.3682 90.768C70.8815 90.768 71.2782 90.6 71.5582 90.264C71.8475 89.928 72.0295 89.5127 72.1042 89.018H70.5782C70.1022 89.018 69.7615 89.1067 69.5562 89.284C69.3509 89.452 69.2482 89.662 69.2482 89.914C69.2482 90.1847 69.3509 90.3947 69.5562 90.544C69.7615 90.6933 70.0322 90.768 70.3682 90.768ZM76.2839 95.08L77.8939 91.538H77.4739L74.7719 85.056H76.7179L78.6639 89.942L80.6939 85.056H82.5979L78.1879 95.08H76.2839ZM86.2976 92.168C85.6816 92.168 85.1402 92.07 84.6736 91.874C84.2069 91.6687 83.8336 91.3887 83.5536 91.034C83.2736 90.6793 83.1056 90.2687 83.0496 89.802H84.8556C84.9116 90.0727 85.0609 90.306 85.3036 90.502C85.5556 90.6887 85.8776 90.782 86.2696 90.782C86.6616 90.782 86.9462 90.7027 87.1236 90.544C87.3102 90.3853 87.4036 90.2033 87.4036 89.998C87.4036 89.6993 87.2729 89.4987 87.0116 89.396C86.7502 89.284 86.3862 89.1767 85.9196 89.074C85.6209 89.0087 85.3176 88.9293 85.0096 88.836C84.7016 88.7427 84.4169 88.626 84.1556 88.486C83.9036 88.3367 83.6982 88.15 83.5396 87.926C83.3809 87.6927 83.3016 87.408 83.3016 87.072C83.3016 86.456 83.5442 85.938 84.0296 85.518C84.5242 85.098 85.2149 84.888 86.1016 84.888C86.9229 84.888 87.5762 85.0793 88.0616 85.462C88.5562 85.8447 88.8502 86.372 88.9436 87.044H87.2496C87.1469 86.5307 86.7596 86.274 86.0876 86.274C85.7516 86.274 85.4902 86.3393 85.3036 86.47C85.1262 86.6007 85.0376 86.764 85.0376 86.96C85.0376 87.1653 85.1729 87.3287 85.4436 87.45C85.7142 87.5713 86.0736 87.6833 86.5216 87.786C87.0069 87.898 87.4502 88.024 87.8516 88.164C88.2622 88.2947 88.5889 88.4953 88.8316 88.766C89.0742 89.0273 89.1956 89.4053 89.1956 89.9C89.2049 90.3293 89.0929 90.7167 88.8596 91.062C88.6262 91.4073 88.2902 91.678 87.8516 91.874C87.4129 92.07 86.8949 92.168 86.2976 92.168Z" fill="#232360"/>
</g>
<defs>
<clipPath id="clip0_55_329">
<rect width="1440" height="1024" fill="white" transform="translate(-736 -422)"/>
</clipPath>
</defs>
</svg>
