<svg width="279" height="182" viewBox="0 0 279 182" fill="none" xmlns="http://www.w3.org/2000/svg">
<rect y="6.10352e-05" width="279" height="182" rx="15" fill="#FFF9DF"/>
<path opacity="0.2" d="M36.64 75.1401C36.08 73.8521 35.2213 72.8441 34.064 72.1161C32.9253 71.3694 31.5813 70.9961 30.032 70.9961C28.576 70.9961 27.2693 71.3321 26.112 72.0041C24.9547 72.6761 24.04 73.6374 23.368 74.8881C22.696 76.1201 22.36 77.5574 22.36 79.2001C22.36 80.8427 22.696 82.2894 23.368 83.5401C24.04 84.7907 24.9547 85.7521 26.112 86.4241C27.2693 87.0961 28.576 87.4321 30.032 87.4321C31.3947 87.4321 32.6173 87.1427 33.7 86.5641C34.8013 85.9667 35.6787 85.1267 36.332 84.0441C37.004 82.9427 37.3867 81.6641 37.48 80.2081H29.248V78.6121H39.552V80.0401C39.4587 81.7574 38.992 83.3161 38.152 84.7161C37.312 86.0974 36.1827 87.1894 34.764 87.9921C33.364 88.7947 31.7867 89.1961 30.032 89.1961C28.2213 89.1961 26.5787 88.7761 25.104 87.9361C23.6293 87.0774 22.4627 85.8921 21.604 84.3801C20.764 82.8494 20.344 81.1227 20.344 79.2001C20.344 77.2774 20.764 75.5601 21.604 74.0481C22.4627 72.5174 23.6293 71.3321 25.104 70.4921C26.5787 69.6334 28.2213 69.2041 30.032 69.2041C32.1227 69.2041 33.952 69.7267 35.52 70.7721C37.088 71.8174 38.2267 73.2734 38.936 75.1401H36.64ZM49.8343 89.2241C48.397 89.2241 47.0997 88.9067 45.9423 88.2721C44.8037 87.6187 43.8983 86.7041 43.2263 85.5281C42.573 84.3334 42.2463 82.9427 42.2463 81.3561C42.2463 79.7694 42.5823 78.3881 43.2543 77.2121C43.9263 76.0174 44.841 75.1027 45.9983 74.4681C47.1557 73.8147 48.453 73.4881 49.8903 73.4881C51.3277 73.4881 52.625 73.8147 53.7823 74.4681C54.9583 75.1027 55.873 76.0174 56.5263 77.2121C57.1983 78.3881 57.5343 79.7694 57.5343 81.3561C57.5343 82.9241 57.1983 84.3054 56.5263 85.5001C55.8543 86.6947 54.9303 87.6187 53.7543 88.2721C52.5783 88.9067 51.2717 89.2241 49.8343 89.2241ZM49.8343 87.5161C50.8423 87.5161 51.7757 87.2921 52.6343 86.8441C53.493 86.3774 54.1837 85.6867 54.7063 84.7721C55.2477 83.8387 55.5183 82.7001 55.5183 81.3561C55.5183 80.0121 55.257 78.8827 54.7343 77.9681C54.2117 77.0347 53.521 76.3441 52.6623 75.8961C51.8037 75.4294 50.8703 75.1961 49.8623 75.1961C48.8543 75.1961 47.921 75.4294 47.0623 75.8961C46.2037 76.3441 45.513 77.0347 44.9903 77.9681C44.4863 78.8827 44.2343 80.0121 44.2343 81.3561C44.2343 82.7001 44.4863 83.8387 44.9903 84.7721C45.513 85.6867 46.1943 86.3774 47.0343 86.8441C47.893 87.2921 48.8263 87.5161 49.8343 87.5161ZM60.2112 81.3281C60.2112 79.7601 60.5192 78.3881 61.1352 77.2121C61.7699 76.0174 62.6379 75.1027 63.7392 74.4681C64.8592 73.8147 66.1192 73.4881 67.5192 73.4881C68.9752 73.4881 70.2259 73.8241 71.2712 74.4961C72.3352 75.1681 73.1005 76.0267 73.5672 77.0721V73.7121H75.5272V89.0001H73.5672V85.6121C73.0819 86.6574 72.3072 87.5254 71.2432 88.2161C70.1979 88.8881 68.9472 89.2241 67.4912 89.2241C66.1099 89.2241 64.8592 88.8974 63.7392 88.2441C62.6379 87.5907 61.7699 86.6667 61.1352 85.4721C60.5192 84.2774 60.2112 82.8961 60.2112 81.3281ZM73.5672 81.3561C73.5672 80.1241 73.3152 79.0414 72.8112 78.1081C72.3072 77.1747 71.6165 76.4561 70.7392 75.9521C69.8805 75.4481 68.9285 75.1961 67.8832 75.1961C66.8005 75.1961 65.8299 75.4387 64.9712 75.9241C64.1125 76.4094 63.4312 77.1187 62.9272 78.0521C62.4419 78.9667 62.1992 80.0587 62.1992 81.3281C62.1992 82.5787 62.4419 83.6801 62.9272 84.6321C63.4312 85.5654 64.1125 86.2841 64.9712 86.7881C65.8299 87.2734 66.8005 87.5161 67.8832 87.5161C68.9285 87.5161 69.8805 87.2641 70.7392 86.7601C71.6165 86.2561 72.3072 85.5374 72.8112 84.6041C73.3152 83.6707 73.5672 82.5881 73.5672 81.3561ZM81.9617 68.2801V89.0001H80.0017V68.2801H81.9617ZM91.6642 89.2241C89.9095 89.2241 88.4722 88.8227 87.3522 88.0201C86.2508 87.1987 85.6348 86.0881 85.5042 84.6881H87.5202C87.6135 85.5467 88.0148 86.2467 88.7242 86.7881C89.4522 87.3107 90.4228 87.5721 91.6362 87.5721C92.7002 87.5721 93.5308 87.3201 94.1282 86.8161C94.7442 86.3121 95.0522 85.6867 95.0522 84.9401C95.0522 84.4174 94.8842 83.9881 94.5482 83.6521C94.2122 83.3161 93.7828 83.0547 93.2602 82.8681C92.7562 82.6627 92.0655 82.4481 91.1882 82.2241C90.0495 81.9254 89.1255 81.6267 88.4162 81.3281C87.7068 81.0294 87.1002 80.5907 86.5962 80.0121C86.1108 79.4147 85.8682 78.6214 85.8682 77.6321C85.8682 76.8854 86.0922 76.1947 86.5402 75.5601C86.9882 74.9254 87.6228 74.4214 88.4442 74.0481C89.2655 73.6747 90.1988 73.4881 91.2442 73.4881C92.8868 73.4881 94.2122 73.9081 95.2202 74.7481C96.2282 75.5694 96.7695 76.7081 96.8442 78.1641H94.8842C94.8282 77.2681 94.4735 76.5494 93.8202 76.0081C93.1855 75.4481 92.3082 75.1681 91.1882 75.1681C90.1988 75.1681 89.3962 75.4014 88.7802 75.8681C88.1642 76.3347 87.8562 76.9134 87.8562 77.6041C87.8562 78.2014 88.0335 78.6961 88.3882 79.0881C88.7615 79.4614 89.2188 79.7601 89.7602 79.9841C90.3015 80.1894 91.0295 80.4227 91.9442 80.6841C93.0455 80.9827 93.9228 81.2721 94.5762 81.5521C95.2295 81.8321 95.7895 82.2427 96.2562 82.7841C96.7228 83.3254 96.9655 84.0441 96.9842 84.9401C96.9842 85.7614 96.7602 86.4987 96.3122 87.1521C95.8642 87.7867 95.2388 88.2907 94.4362 88.6641C93.6335 89.0374 92.7095 89.2241 91.6642 89.2241ZM114.293 89.1961C113.005 89.1961 111.867 88.9721 110.877 88.5241C109.907 88.0761 109.141 87.4507 108.581 86.6481C108.021 85.8454 107.723 84.9494 107.685 83.9601H109.757C109.851 84.9121 110.271 85.7521 111.017 86.4801C111.764 87.1894 112.856 87.5441 114.293 87.5441C115.619 87.5441 116.664 87.2081 117.429 86.5361C118.213 85.8454 118.605 84.9774 118.605 83.9321C118.605 83.0921 118.391 82.4201 117.961 81.9161C117.532 81.3934 117 81.0107 116.365 80.7681C115.731 80.5067 114.853 80.2267 113.733 79.9281C112.427 79.5734 111.391 79.2281 110.625 78.8921C109.86 78.5561 109.207 78.0334 108.665 77.3241C108.124 76.6147 107.853 75.6534 107.853 74.4401C107.853 73.4321 108.115 72.5361 108.637 71.7521C109.16 70.9494 109.897 70.3241 110.849 69.8761C111.801 69.4281 112.893 69.2041 114.125 69.2041C115.936 69.2041 117.392 69.6521 118.493 70.5481C119.613 71.4254 120.257 72.5641 120.425 73.9641H118.297C118.167 73.1614 117.728 72.4521 116.981 71.8361C116.235 71.2014 115.227 70.8841 113.957 70.8841C112.781 70.8841 111.801 71.2014 111.017 71.8361C110.233 72.4521 109.841 73.3014 109.841 74.3841C109.841 75.2054 110.056 75.8681 110.485 76.3721C110.915 76.8761 111.447 77.2587 112.081 77.5201C112.735 77.7814 113.612 78.0614 114.713 78.3601C115.983 78.7147 117.009 79.0694 117.793 79.4241C118.577 79.7601 119.24 80.2827 119.781 80.9921C120.323 81.7014 120.593 82.6534 120.593 83.8481C120.593 84.7627 120.351 85.6307 119.865 86.4521C119.38 87.2734 118.661 87.9361 117.709 88.4401C116.757 88.9441 115.619 89.1961 114.293 89.1961ZM126.929 75.3641V84.8561C126.929 85.7894 127.106 86.4334 127.461 86.7881C127.815 87.1427 128.441 87.3201 129.337 87.3201H131.129V89.0001H129.029C127.647 89.0001 126.621 88.6827 125.949 88.0481C125.277 87.3947 124.941 86.3307 124.941 84.8561V75.3641H122.813V73.7121H124.941V69.8761H126.929V73.7121H131.129V75.3641H126.929ZM133.465 81.3281C133.465 79.7601 133.773 78.3881 134.389 77.2121C135.024 76.0174 135.892 75.1027 136.993 74.4681C138.113 73.8147 139.373 73.4881 140.773 73.4881C142.229 73.4881 143.48 73.8241 144.525 74.4961C145.589 75.1681 146.354 76.0267 146.821 77.0721V73.7121H148.781V89.0001H146.821V85.6121C146.336 86.6574 145.561 87.5254 144.497 88.2161C143.452 88.8881 142.201 89.2241 140.745 89.2241C139.364 89.2241 138.113 88.8974 136.993 88.2441C135.892 87.5907 135.024 86.6667 134.389 85.4721C133.773 84.2774 133.465 82.8961 133.465 81.3281ZM146.821 81.3561C146.821 80.1241 146.569 79.0414 146.065 78.1081C145.561 77.1747 144.87 76.4561 143.993 75.9521C143.134 75.4481 142.182 75.1961 141.137 75.1961C140.054 75.1961 139.084 75.4387 138.225 75.9241C137.366 76.4094 136.685 77.1187 136.181 78.0521C135.696 78.9667 135.453 80.0587 135.453 81.3281C135.453 82.5787 135.696 83.6801 136.181 84.6321C136.685 85.5654 137.366 86.2841 138.225 86.7881C139.084 87.2734 140.054 87.5161 141.137 87.5161C142.182 87.5161 143.134 87.2641 143.993 86.7601C144.87 86.2561 145.561 85.5374 146.065 84.6041C146.569 83.6707 146.821 82.5881 146.821 81.3561ZM155.804 75.3641V84.8561C155.804 85.7894 155.981 86.4334 156.336 86.7881C156.69 87.1427 157.316 87.3201 158.212 87.3201H160.004V89.0001H157.904C156.522 89.0001 155.496 88.6827 154.824 88.0481C154.152 87.3947 153.816 86.3307 153.816 84.8561V75.3641H151.688V73.7121H153.816V69.8761H155.804V73.7121H160.004V75.3641H155.804ZM176.48 73.7121V89.0001H174.52V86.3121C174.072 87.2641 173.381 87.9921 172.448 88.4961C171.515 89.0001 170.469 89.2521 169.312 89.2521C167.483 89.2521 165.989 88.6921 164.832 87.5721C163.675 86.4334 163.096 84.7907 163.096 82.6441V73.7121H165.028V82.4201C165.028 84.0814 165.439 85.3507 166.26 86.2281C167.1 87.1054 168.239 87.5441 169.676 87.5441C171.151 87.5441 172.327 87.0774 173.204 86.1441C174.081 85.2107 174.52 83.8387 174.52 82.0281V73.7121H176.48ZM186.219 89.2241C184.464 89.2241 183.027 88.8227 181.907 88.0201C180.806 87.1987 180.19 86.0881 180.059 84.6881H182.075C182.168 85.5467 182.57 86.2467 183.279 86.7881C184.007 87.3107 184.978 87.5721 186.191 87.5721C187.255 87.5721 188.086 87.3201 188.683 86.8161C189.299 86.3121 189.607 85.6867 189.607 84.9401C189.607 84.4174 189.439 83.9881 189.103 83.6521C188.767 83.3161 188.338 83.0547 187.815 82.8681C187.311 82.6627 186.62 82.4481 185.743 82.2241C184.604 81.9254 183.68 81.6267 182.971 81.3281C182.262 81.0294 181.655 80.5907 181.151 80.0121C180.666 79.4147 180.423 78.6214 180.423 77.6321C180.423 76.8854 180.647 76.1947 181.095 75.5601C181.543 74.9254 182.178 74.4214 182.999 74.0481C183.82 73.6747 184.754 73.4881 185.799 73.4881C187.442 73.4881 188.767 73.9081 189.775 74.7481C190.783 75.5694 191.324 76.7081 191.399 78.1641H189.439C189.383 77.2681 189.028 76.5494 188.375 76.0081C187.74 75.4481 186.863 75.1681 185.743 75.1681C184.754 75.1681 183.951 75.4014 183.335 75.8681C182.719 76.3347 182.411 76.9134 182.411 77.6041C182.411 78.2014 182.588 78.6961 182.943 79.0881C183.316 79.4614 183.774 79.7601 184.315 79.9841C184.856 80.1894 185.584 80.4227 186.499 80.6841C187.6 80.9827 188.478 81.2721 189.131 81.5521C189.784 81.8321 190.344 82.2427 190.811 82.7841C191.278 83.3254 191.52 84.0441 191.539 84.9401C191.539 85.7614 191.315 86.4987 190.867 87.1521C190.419 87.7867 189.794 88.2907 188.991 88.6641C188.188 89.0374 187.264 89.2241 186.219 89.2241Z" fill="#10192D"/>
<path d="M181.694 27.6241V36.0001H180.014V30.5521L177.77 36.0001H176.498L174.242 30.5521V36.0001H172.562V27.6241H174.47L177.134 33.8521L179.798 27.6241H181.694ZM182.923 32.6521C182.923 31.9801 183.055 31.3841 183.319 30.8641C183.591 30.3441 183.955 29.9441 184.411 29.6641C184.875 29.3841 185.391 29.2441 185.959 29.2441C186.455 29.2441 186.887 29.3441 187.255 29.5441C187.631 29.7441 187.931 29.9961 188.155 30.3001V29.3521H189.847V36.0001H188.155V35.0281C187.939 35.3401 187.639 35.6001 187.255 35.8081C186.879 36.0081 186.443 36.1081 185.947 36.1081C185.387 36.1081 184.875 35.9641 184.411 35.6761C183.955 35.3881 183.591 34.9841 183.319 34.4641C183.055 33.9361 182.923 33.3321 182.923 32.6521ZM188.155 32.6761C188.155 32.2681 188.075 31.9201 187.915 31.6321C187.755 31.3361 187.539 31.1121 187.267 30.9601C186.995 30.8001 186.703 30.7201 186.391 30.7201C186.079 30.7201 185.791 30.7961 185.527 30.9481C185.263 31.1001 185.047 31.3241 184.879 31.6201C184.719 31.9081 184.639 32.2521 184.639 32.6521C184.639 33.0521 184.719 33.4041 184.879 33.7081C185.047 34.0041 185.263 34.2321 185.527 34.3921C185.799 34.5521 186.087 34.6321 186.391 34.6321C186.703 34.6321 186.995 34.5561 187.267 34.4041C187.539 34.2441 187.755 34.0201 187.915 33.7321C188.075 33.4361 188.155 33.0841 188.155 32.6761ZM195.172 29.2561C195.964 29.2561 196.604 29.5081 197.092 30.0121C197.58 30.5081 197.824 31.2041 197.824 32.1001V36.0001H196.144V32.3281C196.144 31.8001 196.012 31.3961 195.748 31.1161C195.484 30.8281 195.124 30.6841 194.668 30.6841C194.204 30.6841 193.836 30.8281 193.564 31.1161C193.3 31.3961 193.168 31.8001 193.168 32.3281V36.0001H191.488V29.3521H193.168V30.1801C193.392 29.8921 193.676 29.6681 194.02 29.5081C194.372 29.3401 194.756 29.2561 195.172 29.2561ZM198.99 32.6521C198.99 31.9801 199.122 31.3841 199.386 30.8641C199.658 30.3441 200.022 29.9441 200.478 29.6641C200.942 29.3841 201.458 29.2441 202.026 29.2441C202.522 29.2441 202.954 29.3441 203.322 29.5441C203.698 29.7441 203.998 29.9961 204.222 30.3001V29.3521H205.914V36.0001H204.222V35.0281C204.006 35.3401 203.706 35.6001 203.322 35.8081C202.946 36.0081 202.51 36.1081 202.014 36.1081C201.454 36.1081 200.942 35.9641 200.478 35.6761C200.022 35.3881 199.658 34.9841 199.386 34.4641C199.122 33.9361 198.99 33.3321 198.99 32.6521ZM204.222 32.6761C204.222 32.2681 204.142 31.9201 203.982 31.6321C203.822 31.3361 203.606 31.1121 203.334 30.9601C203.062 30.8001 202.77 30.7201 202.458 30.7201C202.146 30.7201 201.858 30.7961 201.594 30.9481C201.33 31.1001 201.114 31.3241 200.946 31.6201C200.786 31.9081 200.706 32.2521 200.706 32.6521C200.706 33.0521 200.786 33.4041 200.946 33.7081C201.114 34.0041 201.33 34.2321 201.594 34.3921C201.866 34.5521 202.154 34.6321 202.458 34.6321C202.77 34.6321 203.062 34.5561 203.334 34.4041C203.606 34.2441 203.822 34.0201 203.982 33.7321C204.142 33.4361 204.222 33.0841 204.222 32.6761ZM210.159 29.2441C210.655 29.2441 211.091 29.3441 211.467 29.5441C211.843 29.7361 212.139 29.9881 212.355 30.3001V29.3521H214.047V36.0481C214.047 36.6641 213.923 37.2121 213.675 37.6921C213.427 38.1801 213.055 38.5641 212.559 38.8441C212.063 39.1321 211.463 39.2761 210.759 39.2761C209.815 39.2761 209.039 39.0561 208.431 38.6161C207.831 38.1761 207.491 37.5761 207.411 36.8161H209.079C209.167 37.1201 209.355 37.3601 209.643 37.5361C209.939 37.7201 210.295 37.8121 210.711 37.8121C211.199 37.8121 211.595 37.6641 211.899 37.3681C212.203 37.0801 212.355 36.6401 212.355 36.0481V35.0161C212.139 35.3281 211.839 35.5881 211.455 35.7961C211.079 36.0041 210.647 36.1081 210.159 36.1081C209.599 36.1081 209.087 35.9641 208.623 35.6761C208.159 35.3881 207.791 34.9841 207.519 34.4641C207.255 33.9361 207.123 33.3321 207.123 32.6521C207.123 31.9801 207.255 31.3841 207.519 30.8641C207.791 30.3441 208.155 29.9441 208.611 29.6641C209.075 29.3841 209.591 29.2441 210.159 29.2441ZM212.355 32.6761C212.355 32.2681 212.275 31.9201 212.115 31.6321C211.955 31.3361 211.739 31.1121 211.467 30.9601C211.195 30.8001 210.903 30.7201 210.591 30.7201C210.279 30.7201 209.991 30.7961 209.727 30.9481C209.463 31.1001 209.247 31.3241 209.079 31.6201C208.919 31.9081 208.839 32.2521 208.839 32.6521C208.839 33.0521 208.919 33.4041 209.079 33.7081C209.247 34.0041 209.463 34.2321 209.727 34.3921C209.999 34.5521 210.287 34.6321 210.591 34.6321C210.903 34.6321 211.195 34.5561 211.467 34.4041C211.739 34.2441 211.955 34.0201 212.115 33.7321C212.275 33.4361 212.355 33.0841 212.355 32.6761ZM221.867 32.5321C221.867 32.7721 221.851 32.9881 221.819 33.1801H216.959C216.999 33.6601 217.167 34.0361 217.463 34.3081C217.759 34.5801 218.123 34.7161 218.555 34.7161C219.179 34.7161 219.623 34.4481 219.887 33.9121H221.699C221.507 34.5521 221.139 35.0801 220.595 35.4961C220.051 35.9041 219.383 36.1081 218.591 36.1081C217.951 36.1081 217.375 35.9681 216.863 35.6881C216.359 35.4001 215.963 34.9961 215.675 34.4761C215.395 33.9561 215.255 33.3561 215.255 32.6761C215.255 31.9881 215.395 31.3841 215.675 30.8641C215.955 30.3441 216.347 29.9441 216.851 29.6641C217.355 29.3841 217.935 29.2441 218.591 29.2441C219.223 29.2441 219.787 29.3801 220.283 29.6521C220.787 29.9241 221.175 30.3121 221.447 30.8161C221.727 31.3121 221.867 31.8841 221.867 32.5321ZM220.127 32.0521C220.119 31.6201 219.963 31.2761 219.659 31.0201C219.355 30.7561 218.983 30.6241 218.543 30.6241C218.127 30.6241 217.775 30.7521 217.487 31.0081C217.207 31.2561 217.035 31.6041 216.971 32.0521H220.127ZM231.785 30.1441C231.593 29.7921 231.329 29.5241 230.993 29.3401C230.657 29.1561 230.265 29.0641 229.817 29.0641C229.321 29.0641 228.881 29.1761 228.497 29.4001C228.113 29.6241 227.813 29.9441 227.597 30.3601C227.381 30.7761 227.273 31.2561 227.273 31.8001C227.273 32.3601 227.381 32.8481 227.597 33.2641C227.821 33.6801 228.129 34.0001 228.521 34.2241C228.913 34.4481 229.369 34.5601 229.889 34.5601C230.529 34.5601 231.053 34.3921 231.461 34.0561C231.869 33.7121 232.137 33.2361 232.265 32.6281H229.385V31.3441H233.921V32.8081C233.809 33.3921 233.569 33.9321 233.201 34.4281C232.833 34.9241 232.357 35.3241 231.773 35.6281C231.197 35.9241 230.549 36.0721 229.829 36.0721C229.021 36.0721 228.289 35.8921 227.633 35.5321C226.985 35.1641 226.473 34.6561 226.097 34.0081C225.729 33.3601 225.545 32.6241 225.545 31.8001C225.545 30.9761 225.729 30.2401 226.097 29.5921C226.473 28.9361 226.985 28.4281 227.633 28.0681C228.289 27.7001 229.017 27.5161 229.817 27.5161C230.761 27.5161 231.581 27.7481 232.277 28.2121C232.973 28.6681 233.453 29.3121 233.717 30.1441H231.785ZM238.116 36.1081C237.476 36.1081 236.9 35.9681 236.388 35.6881C235.876 35.4001 235.472 34.9961 235.176 34.4761C234.888 33.9561 234.744 33.3561 234.744 32.6761C234.744 31.9961 234.892 31.3961 235.188 30.8761C235.492 30.3561 235.904 29.9561 236.424 29.6761C236.944 29.3881 237.524 29.2441 238.164 29.2441C238.804 29.2441 239.384 29.3881 239.904 29.6761C240.424 29.9561 240.832 30.3561 241.128 30.8761C241.432 31.3961 241.584 31.9961 241.584 32.6761C241.584 33.3561 241.428 33.9561 241.116 34.4761C240.812 34.9961 240.396 35.4001 239.868 35.6881C239.348 35.9681 238.764 36.1081 238.116 36.1081ZM238.116 34.6441C238.42 34.6441 238.704 34.5721 238.968 34.4281C239.24 34.2761 239.456 34.0521 239.616 33.7561C239.776 33.4601 239.856 33.1001 239.856 32.6761C239.856 32.0441 239.688 31.5601 239.352 31.2241C239.024 30.8801 238.62 30.7081 238.14 30.7081C237.66 30.7081 237.256 30.8801 236.928 31.2241C236.608 31.5601 236.448 32.0441 236.448 32.6761C236.448 33.3081 236.604 33.7961 236.916 34.1401C237.236 34.4761 237.636 34.6441 238.116 34.6441ZM242.384 32.6521C242.384 31.9801 242.516 31.3841 242.78 30.8641C243.052 30.3441 243.416 29.9441 243.872 29.6641C244.336 29.3841 244.852 29.2441 245.42 29.2441C245.916 29.2441 246.348 29.3441 246.716 29.5441C247.092 29.7441 247.392 29.9961 247.616 30.3001V29.3521H249.308V36.0001H247.616V35.0281C247.4 35.3401 247.1 35.6001 246.716 35.8081C246.34 36.0081 245.904 36.1081 245.408 36.1081C244.848 36.1081 244.336 35.9641 243.872 35.6761C243.416 35.3881 243.052 34.9841 242.78 34.4641C242.516 33.9361 242.384 33.3321 242.384 32.6521ZM247.616 32.6761C247.616 32.2681 247.536 31.9201 247.376 31.6321C247.216 31.3361 247 31.1121 246.728 30.9601C246.456 30.8001 246.164 30.7201 245.852 30.7201C245.54 30.7201 245.252 30.7961 244.988 30.9481C244.724 31.1001 244.508 31.3241 244.34 31.6201C244.18 31.9081 244.1 32.2521 244.1 32.6521C244.1 33.0521 244.18 33.4041 244.34 33.7081C244.508 34.0041 244.724 34.2321 244.988 34.3921C245.26 34.5521 245.548 34.6321 245.852 34.6321C246.164 34.6321 246.456 34.5561 246.728 34.4041C247 34.2441 247.216 34.0201 247.376 33.7321C247.536 33.4361 247.616 33.0841 247.616 32.6761ZM252.629 27.1201V36.0001H250.949V27.1201H252.629ZM256.833 36.1081C256.289 36.1081 255.801 36.0121 255.369 35.8201C254.937 35.6201 254.593 35.3521 254.337 35.0161C254.089 34.6801 253.953 34.3081 253.929 33.9001H255.621C255.653 34.1561 255.777 34.3681 255.993 34.5361C256.217 34.7041 256.493 34.7881 256.821 34.7881C257.141 34.7881 257.389 34.7241 257.565 34.5961C257.749 34.4681 257.841 34.3041 257.841 34.1041C257.841 33.8881 257.729 33.7281 257.505 33.6241C257.289 33.5121 256.941 33.3921 256.461 33.2641C255.965 33.1441 255.557 33.0201 255.237 32.8921C254.925 32.7641 254.653 32.5681 254.421 32.3041C254.197 32.0401 254.085 31.6841 254.085 31.2361C254.085 30.8681 254.189 30.5321 254.397 30.2281C254.613 29.9241 254.917 29.6841 255.309 29.5081C255.709 29.3321 256.177 29.2441 256.713 29.2441C257.505 29.2441 258.137 29.4441 258.609 29.8441C259.081 30.2361 259.341 30.7681 259.389 31.4401H257.781C257.757 31.1761 257.645 30.9681 257.445 30.8161C257.253 30.6561 256.993 30.5761 256.665 30.5761C256.361 30.5761 256.125 30.6321 255.957 30.7441C255.797 30.8561 255.717 31.0121 255.717 31.2121C255.717 31.4361 255.829 31.6081 256.053 31.7281C256.277 31.8401 256.625 31.9561 257.097 32.0761C257.577 32.1961 257.973 32.3201 258.285 32.4481C258.597 32.5761 258.865 32.7761 259.089 33.0481C259.321 33.3121 259.441 33.6641 259.449 34.1041C259.449 34.4881 259.341 34.8321 259.125 35.1361C258.917 35.4401 258.613 35.6801 258.213 35.8561C257.821 36.0241 257.361 36.1081 256.833 36.1081Z" fill="#D84545"/>
<path fill-rule="evenodd" clip-rule="evenodd" d="M32.2003 35.9501H32.2753C34.7312 34.866 36.6899 32.8984 37.7628 30.4376V35.8876C37.7728 39.3808 35.7041 42.5453 32.5003 43.9376H32.4128C31.3535 44.3861 30.2131 44.6116 29.0628 44.6001C27.9509 44.6031 26.8498 44.382 25.8253 43.9501L25.5003 43.8126C22.3035 42.4751 20.2301 39.3403 20.2503 35.8751V35.6501C20.2743 33.8755 20.9975 32.182 22.2628 30.9376L22.4878 30.7251C24.4769 28.777 26.1173 26.5024 27.3378 24.0001L29.0503 20.5001C29.0503 20.5001 30.8253 23.0001 32.4753 25.5001C34.4876 28.4858 33.8183 32.5233 30.9503 34.7001H30.8878H30.8003C30.5026 35.0748 30.5349 35.6136 30.8753 35.9501C31.0177 36.0703 31.2021 36.1288 31.3878 36.1126C31.6654 36.1009 31.9395 36.0461 32.2003 35.9501ZM31.6503 42.2001H31.7378V42.1876C34.2371 41.0921 35.8581 38.6289 35.8753 35.9001C35.0323 36.642 34.0683 37.2339 33.0253 37.6501L32.8628 37.7126C32.3923 37.8958 31.8927 37.9931 31.3878 38.0001C30.7036 38.0242 30.0394 37.7667 29.5503 37.2876C28.5291 36.2783 28.4321 34.6617 29.3253 33.5376C29.4344 33.4013 29.5604 33.2794 29.7003 33.1751H29.7878C31.8956 31.6028 32.3915 28.6495 30.9128 26.4751C30.3753 25.6751 29.8378 24.8751 29.3378 24.1626L29.0253 24.8126C27.7023 27.479 25.9355 29.9011 23.8003 31.9751L23.5753 32.1876C22.6674 33.0835 22.1469 34.2997 22.1253 35.5751V35.8126C22.0914 38.5365 23.7132 41.0088 26.2253 42.0626L26.5503 42.2001C28.1799 42.8919 30.0207 42.8919 31.6503 42.2001Z" fill="#242526"/>
<rect x="20" y="144" width="239" height="10" rx="5" fill="white"/>
<rect x="20" y="144" width="196.533" height="10" rx="5" fill="#FFB200"/>
<path d="M26.936 117.06C26.72 116.644 26.42 116.332 26.036 116.124C25.652 115.908 25.208 115.8 24.704 115.8C24.152 115.8 23.66 115.924 23.228 116.172C22.796 116.42 22.456 116.772 22.208 117.228C21.968 117.684 21.848 118.212 21.848 118.812C21.848 119.412 21.968 119.944 22.208 120.408C22.456 120.864 22.796 121.216 23.228 121.464C23.66 121.712 24.152 121.836 24.704 121.836C25.448 121.836 26.052 121.628 26.516 121.212C26.98 120.796 27.264 120.232 27.368 119.52H24.236V118.428H28.832V119.496C28.744 120.144 28.512 120.74 28.136 121.284C27.768 121.828 27.284 122.264 26.684 122.592C26.092 122.912 25.432 123.072 24.704 123.072C23.92 123.072 23.204 122.892 22.556 122.532C21.908 122.164 21.392 121.656 21.008 121.008C20.632 120.36 20.444 119.628 20.444 118.812C20.444 117.996 20.632 117.264 21.008 116.616C21.392 115.968 21.908 115.464 22.556 115.104C23.212 114.736 23.928 114.552 24.704 114.552C25.592 114.552 26.38 114.772 27.068 115.212C27.764 115.644 28.268 116.26 28.58 117.06H26.936ZM33.0493 123.108C32.4253 123.108 31.8613 122.968 31.3573 122.688C30.8533 122.4 30.4573 122 30.1693 121.488C29.8813 120.968 29.7373 120.368 29.7373 119.688C29.7373 119.016 29.8853 118.42 30.1813 117.9C30.4773 117.38 30.8813 116.98 31.3933 116.7C31.9053 116.42 32.4773 116.28 33.1093 116.28C33.7413 116.28 34.3133 116.42 34.8253 116.7C35.3373 116.98 35.7413 117.38 36.0373 117.9C36.3333 118.42 36.4813 119.016 36.4813 119.688C36.4813 120.36 36.3293 120.956 36.0253 121.476C35.7213 121.996 35.3053 122.4 34.7773 122.688C34.2573 122.968 33.6813 123.108 33.0493 123.108ZM33.0493 121.92C33.4013 121.92 33.7293 121.836 34.0333 121.668C34.3453 121.5 34.5973 121.248 34.7893 120.912C34.9813 120.576 35.0773 120.168 35.0773 119.688C35.0773 119.208 34.9853 118.804 34.8013 118.476C34.6173 118.14 34.3733 117.888 34.0693 117.72C33.7653 117.552 33.4373 117.468 33.0853 117.468C32.7333 117.468 32.4053 117.552 32.1013 117.72C31.8053 117.888 31.5693 118.14 31.3933 118.476C31.2173 118.804 31.1293 119.208 31.1293 119.688C31.1293 120.4 31.3093 120.952 31.6693 121.344C32.0373 121.728 32.4973 121.92 33.0493 121.92ZM37.3776 119.664C37.3776 119 37.5136 118.412 37.7856 117.9C38.0656 117.388 38.4416 116.992 38.9136 116.712C39.3936 116.424 39.9216 116.28 40.4976 116.28C41.0176 116.28 41.4696 116.384 41.8536 116.592C42.2456 116.792 42.5576 117.044 42.7896 117.348V116.388H44.1696V123H42.7896V122.016C42.5576 122.328 42.2416 122.588 41.8416 122.796C41.4416 123.004 40.9856 123.108 40.4736 123.108C39.9056 123.108 39.3856 122.964 38.9136 122.676C38.4416 122.38 38.0656 121.972 37.7856 121.452C37.5136 120.924 37.3776 120.328 37.3776 119.664ZM42.7896 119.688C42.7896 119.232 42.6936 118.836 42.5016 118.5C42.3176 118.164 42.0736 117.908 41.7696 117.732C41.4656 117.556 41.1376 117.468 40.7856 117.468C40.4336 117.468 40.1056 117.556 39.8016 117.732C39.4976 117.9 39.2496 118.152 39.0576 118.488C38.8736 118.816 38.7816 119.208 38.7816 119.664C38.7816 120.12 38.8736 120.52 39.0576 120.864C39.2496 121.208 39.4976 121.472 39.8016 121.656C40.1136 121.832 40.4416 121.92 40.7856 121.92C41.1376 121.92 41.4656 121.832 41.7696 121.656C42.0736 121.48 42.3176 121.224 42.5016 120.888C42.6936 120.544 42.7896 120.144 42.7896 119.688ZM47.3344 114.12V123H45.9664V114.12H47.3344ZM51.5305 123.108C51.0105 123.108 50.5425 123.016 50.1265 122.832C49.7185 122.64 49.3945 122.384 49.1545 122.064C48.9145 121.736 48.7865 121.372 48.7705 120.972H50.1865C50.2105 121.252 50.3425 121.488 50.5825 121.68C50.8305 121.864 51.1385 121.956 51.5065 121.956C51.8905 121.956 52.1865 121.884 52.3945 121.74C52.6105 121.588 52.7185 121.396 52.7185 121.164C52.7185 120.916 52.5985 120.732 52.3585 120.612C52.1265 120.492 51.7545 120.36 51.2425 120.216C50.7465 120.08 50.3425 119.948 50.0305 119.82C49.7185 119.692 49.4465 119.496 49.2145 119.232C48.9905 118.968 48.8785 118.62 48.8785 118.188C48.8785 117.836 48.9825 117.516 49.1905 117.228C49.3985 116.932 49.6945 116.7 50.0785 116.532C50.4705 116.364 50.9185 116.28 51.4225 116.28C52.1745 116.28 52.7785 116.472 53.2345 116.856C53.6985 117.232 53.9465 117.748 53.9785 118.404H52.6105C52.5865 118.108 52.4665 117.872 52.2505 117.696C52.0345 117.52 51.7425 117.432 51.3745 117.432C51.0145 117.432 50.7385 117.5 50.5465 117.636C50.3545 117.772 50.2585 117.952 50.2585 118.176C50.2585 118.352 50.3225 118.5 50.4505 118.62C50.5785 118.74 50.7345 118.836 50.9185 118.908C51.1025 118.972 51.3745 119.056 51.7345 119.16C52.2145 119.288 52.6065 119.42 52.9105 119.556C53.2225 119.684 53.4905 119.876 53.7145 120.132C53.9385 120.388 54.0545 120.728 54.0625 121.152C54.0625 121.528 53.9585 121.864 53.7505 122.16C53.5425 122.456 53.2465 122.688 52.8625 122.856C52.4865 123.024 52.0425 123.108 51.5305 123.108Z" fill="black"/>
<path d="M236.328 118.488C235.88 118.312 235.536 118.056 235.296 117.72C235.056 117.384 234.936 116.976 234.936 116.496C234.936 116.064 235.044 115.676 235.26 115.332C235.476 114.98 235.796 114.704 236.22 114.504C236.652 114.296 237.172 114.192 237.78 114.192C238.388 114.192 238.904 114.296 239.328 114.504C239.76 114.704 240.084 114.98 240.3 115.332C240.524 115.676 240.636 116.064 240.636 116.496C240.636 116.96 240.512 117.368 240.264 117.72C240.016 118.064 239.676 118.32 239.244 118.488C239.74 118.64 240.132 118.908 240.42 119.292C240.716 119.668 240.864 120.124 240.864 120.66C240.864 121.18 240.736 121.636 240.48 122.028C240.224 122.412 239.86 122.712 239.388 122.928C238.924 123.136 238.388 123.24 237.78 123.24C237.172 123.24 236.636 123.136 236.172 122.928C235.716 122.712 235.36 122.412 235.104 122.028C234.848 121.636 234.72 121.18 234.72 120.66C234.72 120.124 234.864 119.664 235.152 119.28C235.44 118.896 235.832 118.632 236.328 118.488ZM239.58 116.628C239.58 116.14 239.42 115.764 239.1 115.5C238.78 115.236 238.34 115.104 237.78 115.104C237.228 115.104 236.792 115.236 236.472 115.5C236.152 115.764 235.992 116.144 235.992 116.64C235.992 117.088 236.156 117.448 236.484 117.72C236.82 117.992 237.252 118.128 237.78 118.128C238.316 118.128 238.748 117.992 239.076 117.72C239.412 117.44 239.58 117.076 239.58 116.628ZM237.78 118.968C237.188 118.968 236.704 119.108 236.328 119.388C235.952 119.66 235.764 120.072 235.764 120.624C235.764 121.136 235.944 121.548 236.304 121.86C236.672 122.172 237.164 122.328 237.78 122.328C238.396 122.328 238.884 122.172 239.244 121.86C239.604 121.548 239.784 121.136 239.784 120.624C239.784 120.088 239.6 119.68 239.232 119.4C238.864 119.112 238.38 118.968 237.78 118.968ZM242.314 118.572C242.314 117.196 242.538 116.124 242.986 115.356C243.434 114.58 244.218 114.192 245.338 114.192C246.45 114.192 247.23 114.58 247.678 115.356C248.126 116.124 248.35 117.196 248.35 118.572C248.35 119.972 248.126 121.06 247.678 121.836C247.23 122.612 246.45 123 245.338 123C244.218 123 243.434 122.612 242.986 121.836C242.538 121.06 242.314 119.972 242.314 118.572ZM247.27 118.572C247.27 117.876 247.222 117.288 247.126 116.808C247.038 116.32 246.85 115.928 246.562 115.632C246.282 115.336 245.874 115.188 245.338 115.188C244.794 115.188 244.378 115.336 244.09 115.632C243.81 115.928 243.622 116.32 243.526 116.808C243.438 117.288 243.394 117.876 243.394 118.572C243.394 119.292 243.438 119.896 243.526 120.384C243.622 120.872 243.81 121.264 244.09 121.56C244.378 121.856 244.794 122.004 245.338 122.004C245.874 122.004 246.282 121.856 246.562 121.56C246.85 121.264 247.038 120.872 247.126 120.384C247.222 119.896 247.27 119.292 247.27 118.572ZM249.609 116.28C249.609 115.736 249.773 115.304 250.101 114.984C250.429 114.656 250.849 114.492 251.361 114.492C251.873 114.492 252.293 114.656 252.621 114.984C252.949 115.304 253.113 115.736 253.113 116.28C253.113 116.832 252.949 117.272 252.621 117.6C252.293 117.92 251.873 118.08 251.361 118.08C250.849 118.08 250.429 117.92 250.101 117.6C249.773 117.272 249.609 116.832 249.609 116.28ZM256.617 114.624L251.757 123H250.677L255.537 114.624H256.617ZM251.361 115.164C251.089 115.164 250.873 115.26 250.713 115.452C250.561 115.636 250.485 115.912 250.485 116.28C250.485 116.648 250.561 116.928 250.713 117.12C250.873 117.312 251.089 117.408 251.361 117.408C251.633 117.408 251.849 117.312 252.009 117.12C252.169 116.92 252.249 116.64 252.249 116.28C252.249 115.912 252.169 115.636 252.009 115.452C251.849 115.26 251.633 115.164 251.361 115.164ZM254.205 121.344C254.205 120.792 254.369 120.356 254.697 120.036C255.025 119.708 255.445 119.544 255.957 119.544C256.469 119.544 256.885 119.708 257.205 120.036C257.533 120.356 257.697 120.792 257.697 121.344C257.697 121.888 257.533 122.324 257.205 122.652C256.885 122.98 256.469 123.144 255.957 123.144C255.445 123.144 255.025 122.984 254.697 122.664C254.369 122.336 254.205 121.896 254.205 121.344ZM255.945 120.228C255.673 120.228 255.457 120.324 255.297 120.516C255.137 120.7 255.057 120.976 255.057 121.344C255.057 121.704 255.137 121.98 255.297 122.172C255.457 122.356 255.673 122.448 255.945 122.448C256.217 122.448 256.433 122.356 256.593 122.172C256.753 121.98 256.833 121.704 256.833 121.344C256.833 120.976 256.753 120.7 256.593 120.516C256.433 120.324 256.217 120.228 255.945 120.228Z" fill="black"/>
</svg>
