<svg width="1440" height="1408" viewBox="0 0 1440 1408" fill="none" xmlns="http://www.w3.org/2000/svg">
<rect x="623.141" y="105.924" width="187.038" height="1301.63" fill="url(#paint0_linear_103_39)" fill-opacity="0.1"/>
<path d="M23.1927 203.206V200.026H28.7327V214.626H25.1727V203.206H23.1927ZM31.0722 207.126C31.0722 204.833 31.5122 203.026 32.3922 201.706C33.2855 200.386 34.7189 199.726 36.6922 199.726C38.6655 199.726 40.0922 200.386 40.9722 201.706C41.8655 203.026 42.3122 204.833 42.3122 207.126C42.3122 209.446 41.8655 211.266 40.9722 212.586C40.0922 213.906 38.6655 214.566 36.6922 214.566C34.7189 214.566 33.2855 213.906 32.3922 212.586C31.5122 211.266 31.0722 209.446 31.0722 207.126ZM38.9522 207.126C38.9522 205.78 38.8055 204.746 38.5122 204.026C38.2189 203.293 37.6122 202.926 36.6922 202.926C35.7722 202.926 35.1655 203.293 34.8722 204.026C34.5789 204.746 34.4322 205.78 34.4322 207.126C34.4322 208.033 34.4855 208.786 34.5922 209.386C34.6989 209.973 34.9122 210.453 35.2322 210.826C35.5655 211.186 36.0522 211.366 36.6922 211.366C37.3322 211.366 37.8122 211.186 38.1322 210.826C38.4655 210.453 38.6855 209.973 38.7922 209.386C38.8989 208.786 38.9522 208.033 38.9522 207.126Z" fill="#1E232A"/>
<path d="M28.8208 111.72C29.0208 112.773 29.6341 113.3 30.6608 113.3C31.3675 113.3 31.8675 112.987 32.1608 112.36C32.4541 111.733 32.6008 110.713 32.6008 109.3C32.3075 109.713 31.9075 110.033 31.4008 110.26C30.8941 110.487 30.3275 110.6 29.7008 110.6C28.8475 110.6 28.0875 110.427 27.4208 110.08C26.7541 109.72 26.2275 109.193 25.8408 108.5C25.4675 107.793 25.2808 106.94 25.2808 105.94C25.2808 104.953 25.4808 104.093 25.8808 103.36C26.2941 102.627 26.8741 102.06 27.6208 101.66C28.3808 101.26 29.2741 101.06 30.3008 101.06C32.2741 101.06 33.6541 101.673 34.4408 102.9C35.2275 104.127 35.6208 105.933 35.6208 108.32C35.6208 110.053 35.4608 111.487 35.1408 112.62C34.8341 113.74 34.3075 114.593 33.5608 115.18C32.8275 115.767 31.8208 116.06 30.5408 116.06C29.5275 116.06 28.6608 115.86 27.9408 115.46C27.2341 115.06 26.6875 114.533 26.3008 113.88C25.9275 113.227 25.7141 112.507 25.6608 111.72H28.8208ZM30.4808 107.9C31.0408 107.9 31.4875 107.733 31.8208 107.4C32.1541 107.053 32.3208 106.587 32.3208 106C32.3208 105.36 32.1475 104.867 31.8008 104.52C31.4541 104.173 30.9875 104 30.4008 104C29.8141 104 29.3475 104.18 29.0008 104.54C28.6675 104.887 28.5008 105.367 28.5008 105.98C28.5008 106.553 28.6675 107.02 29.0008 107.38C29.3475 107.727 29.8408 107.9 30.4808 107.9Z" fill="#1E232A"/>
<path d="M24.0032 390.244V387.064H29.5432V401.664H25.9832V390.244H24.0032ZM31.7628 398.924C32.2161 398.564 32.4228 398.397 32.3828 398.424C33.6894 397.344 34.7161 396.457 35.4628 395.764C36.2228 395.071 36.8628 394.344 37.3828 393.584C37.9028 392.824 38.1628 392.084 38.1628 391.364C38.1628 390.817 38.0361 390.391 37.7828 390.084C37.5294 389.777 37.1494 389.624 36.6428 389.624C36.1361 389.624 35.7361 389.817 35.4428 390.204C35.1628 390.577 35.0228 391.111 35.0228 391.804H31.7228C31.7494 390.671 31.9894 389.724 32.4428 388.964C32.9094 388.204 33.5161 387.644 34.2628 387.284C35.0228 386.924 35.8628 386.744 36.7828 386.744C38.3694 386.744 39.5628 387.151 40.3628 387.964C41.1761 388.777 41.5828 389.837 41.5828 391.144C41.5828 392.571 41.0961 393.897 40.1228 395.124C39.1494 396.337 37.9094 397.524 36.4028 398.684H41.8028V401.464H31.7628V398.924Z" fill="#1E232A"/>
<path d="M23.6614 480.9V477.72H29.2014V492.32H25.6414V480.9H23.6614ZM31.661 481.84C31.7143 480.413 32.181 479.313 33.061 478.54C33.941 477.767 35.1343 477.38 36.641 477.38C37.641 477.38 38.4943 477.553 39.201 477.9C39.921 478.247 40.461 478.72 40.821 479.32C41.1943 479.92 41.381 480.593 41.381 481.34C41.381 482.22 41.161 482.94 40.721 483.5C40.281 484.047 39.7676 484.42 39.181 484.62V484.7C39.941 484.953 40.541 485.373 40.981 485.96C41.421 486.547 41.641 487.3 41.641 488.22C41.641 489.047 41.4476 489.78 41.061 490.42C40.6876 491.047 40.1343 491.54 39.401 491.9C38.681 492.26 37.821 492.44 36.821 492.44C35.221 492.44 33.941 492.047 32.981 491.26C32.0343 490.473 31.5343 489.287 31.481 487.7H34.801C34.8143 488.287 34.981 488.753 35.301 489.1C35.621 489.433 36.0876 489.6 36.701 489.6C37.221 489.6 37.621 489.453 37.901 489.16C38.1943 488.853 38.341 488.453 38.341 487.96C38.341 487.32 38.1343 486.86 37.721 486.58C37.321 486.287 36.6743 486.14 35.781 486.14H35.141V483.36H35.781C36.461 483.36 37.0076 483.247 37.421 483.02C37.8476 482.78 38.061 482.36 38.061 481.76C38.061 481.28 37.9276 480.907 37.661 480.64C37.3943 480.373 37.0276 480.24 36.561 480.24C36.0543 480.24 35.6743 480.393 35.421 480.7C35.181 481.007 35.041 481.387 35.001 481.84H31.661Z" fill="#1E232A"/>
<path d="M22.9485 582.053V578.873H28.4885V593.473H24.9285V582.053H22.9485ZM30.9081 590.873V588.113L37.2281 579.073H41.0481V587.913H42.6881V590.873H41.0481V593.473H37.6281V590.873H30.9081ZM37.8681 582.833L34.5081 587.913H37.8681V582.833Z" fill="#1E232A"/>
<path d="M23.2122 672.709V669.529H28.7522V684.129H25.1922V672.709H23.2122ZM41.3717 672.509H35.1317V675.269C35.3984 674.976 35.7717 674.736 36.2517 674.549C36.7317 674.363 37.2517 674.269 37.8117 674.269C38.8117 674.269 39.6384 674.496 40.2917 674.949C40.9584 675.403 41.4451 675.989 41.7517 676.709C42.0584 677.429 42.2117 678.209 42.2117 679.049C42.2117 680.609 41.7717 681.849 40.8917 682.769C40.0117 683.676 38.7717 684.129 37.1717 684.129C36.1051 684.129 35.1784 683.949 34.3917 683.589C33.6051 683.216 32.9984 682.703 32.5717 682.049C32.1451 681.396 31.9117 680.643 31.8717 679.789H35.2117C35.2917 680.203 35.4851 680.549 35.7917 680.829C36.0984 681.096 36.5184 681.229 37.0517 681.229C37.6784 681.229 38.1451 681.029 38.4517 680.629C38.7584 680.229 38.9117 679.696 38.9117 679.029C38.9117 678.376 38.7517 677.876 38.4317 677.529C38.1117 677.183 37.6451 677.009 37.0317 677.009C36.5784 677.009 36.2051 677.123 35.9117 677.349C35.6184 677.563 35.4251 677.849 35.3317 678.209H32.0317V669.509H41.3717V672.509Z" fill="#1E232A"/>
<path d="M23.3489 763.365V760.185H28.8889V774.785H25.3289V763.365H23.3489ZM38.4485 764.125C38.3418 763.632 38.1551 763.265 37.8885 763.025C37.6218 762.772 37.2418 762.645 36.7485 762.645C35.9885 762.645 35.4418 762.979 35.1085 763.645C34.7751 764.299 34.6018 765.339 34.5885 766.765C34.8818 766.299 35.3018 765.932 35.8485 765.665C36.4085 765.399 37.0218 765.265 37.6885 765.265C38.9951 765.265 40.0418 765.679 40.8285 766.505C41.6285 767.332 42.0285 768.485 42.0285 769.965C42.0285 770.939 41.8285 771.792 41.4285 772.525C41.0418 773.259 40.4685 773.832 39.7085 774.245C38.9618 774.659 38.0751 774.865 37.0485 774.865C34.9951 774.865 33.5685 774.225 32.7685 772.945C31.9685 771.652 31.5685 769.799 31.5685 767.385C31.5685 764.852 31.9885 762.972 32.8285 761.745C33.6818 760.505 35.0418 759.885 36.9085 759.885C37.9085 759.885 38.7485 760.085 39.4285 760.485C40.1218 760.872 40.6418 761.385 40.9885 762.025C41.3485 762.665 41.5618 763.365 41.6285 764.125H38.4485ZM36.8685 767.965C36.2951 767.965 35.8151 768.139 35.4285 768.485C35.0551 768.819 34.8685 769.299 34.8685 769.925C34.8685 770.565 35.0418 771.065 35.3885 771.425C35.7485 771.785 36.2551 771.965 36.9085 771.965C37.4951 771.965 37.9551 771.792 38.2885 771.445C38.6351 771.085 38.8085 770.599 38.8085 769.985C38.8085 769.359 38.6418 768.865 38.3085 768.505C37.9751 768.145 37.4951 767.965 36.8685 767.965Z" fill="#1E232A"/>
<path d="M24.3645 854.021V850.841H29.9045V865.441H26.3445V854.021H24.3645ZM41.5641 853.401L36.5441 865.441H33.0441L38.1241 853.781H31.9041V850.861H41.5641V853.401Z" fill="#1E232A"/>
<path d="M23.2317 946.586V943.406H28.7717V958.006H25.2117V946.586H23.2317ZM33.5113 950.166C32.2579 949.499 31.6313 948.453 31.6313 947.026C31.6313 946.306 31.8179 945.653 32.1913 945.066C32.5646 944.466 33.1313 943.993 33.8913 943.646C34.6513 943.286 35.5846 943.106 36.6913 943.106C37.7979 943.106 38.7246 943.286 39.4713 943.646C40.2313 943.993 40.7979 944.466 41.1713 945.066C41.5446 945.653 41.7313 946.306 41.7313 947.026C41.7313 947.746 41.5579 948.373 41.2113 948.906C40.8779 949.439 40.4246 949.859 39.8513 950.166C40.5713 950.513 41.1246 950.993 41.5113 951.606C41.8979 952.206 42.0913 952.913 42.0913 953.726C42.0913 954.673 41.8513 955.493 41.3713 956.186C40.8913 956.866 40.2379 957.386 39.4113 957.746C38.5979 958.106 37.6913 958.286 36.6913 958.286C35.6913 958.286 34.7779 958.106 33.9513 957.746C33.1379 957.386 32.4913 956.866 32.0113 956.186C31.5313 955.493 31.2913 954.673 31.2913 953.726C31.2913 952.899 31.4846 952.186 31.8713 951.586C32.2579 950.973 32.8046 950.499 33.5113 950.166ZM38.4113 947.546C38.4113 946.999 38.2513 946.579 37.9313 946.286C37.6246 945.979 37.2113 945.826 36.6913 945.826C36.1713 945.826 35.7513 945.979 35.4313 946.286C35.1246 946.593 34.9713 947.019 34.9713 947.566C34.9713 948.086 35.1313 948.499 35.4513 948.806C35.7713 949.099 36.1846 949.246 36.6913 949.246C37.1979 949.246 37.6113 949.093 37.9313 948.786C38.2513 948.479 38.4113 948.066 38.4113 947.546ZM36.6913 951.646C36.0646 951.646 35.5579 951.819 35.1713 952.166C34.7846 952.499 34.5913 952.966 34.5913 953.566C34.5913 954.126 34.7779 954.586 35.1513 954.946C35.5379 955.306 36.0513 955.486 36.6913 955.486C37.3313 955.486 37.8313 955.306 38.1913 954.946C38.5646 954.586 38.7513 954.126 38.7513 953.566C38.7513 952.979 38.5579 952.513 38.1713 952.166C37.7979 951.819 37.3046 951.646 36.6913 951.646Z" fill="#1E232A"/>
<path d="M23.5638 1038.2V1035.02H29.1038V1049.62H25.5438V1038.2H23.5638ZM35.1233 1045.34C35.3233 1046.39 35.9366 1046.92 36.9633 1046.92C37.67 1046.92 38.17 1046.6 38.4633 1045.98C38.7566 1045.35 38.9033 1044.33 38.9033 1042.92C38.61 1043.33 38.21 1043.65 37.7033 1043.88C37.1966 1044.1 36.63 1044.22 36.0033 1044.22C35.15 1044.22 34.39 1044.04 33.7233 1043.7C33.0566 1043.34 32.53 1042.81 32.1433 1042.12C31.77 1041.41 31.5833 1040.56 31.5833 1039.56C31.5833 1038.57 31.7833 1037.71 32.1833 1036.98C32.5966 1036.24 33.1766 1035.68 33.9233 1035.28C34.6833 1034.88 35.5766 1034.68 36.6033 1034.68C38.5766 1034.68 39.9566 1035.29 40.7433 1036.52C41.53 1037.74 41.9233 1039.55 41.9233 1041.94C41.9233 1043.67 41.7633 1045.1 41.4433 1046.24C41.1366 1047.36 40.61 1048.21 39.8633 1048.8C39.13 1049.38 38.1233 1049.68 36.8433 1049.68C35.83 1049.68 34.9633 1049.48 34.2433 1049.08C33.5366 1048.68 32.99 1048.15 32.6033 1047.5C32.23 1046.84 32.0166 1046.12 31.9633 1045.34H35.1233ZM36.7833 1041.52C37.3433 1041.52 37.79 1041.35 38.1233 1041.02C38.4566 1040.67 38.6233 1040.2 38.6233 1039.62C38.6233 1038.98 38.45 1038.48 38.1033 1038.14C37.7566 1037.79 37.29 1037.62 36.7033 1037.62C36.1166 1037.62 35.65 1037.8 35.3033 1038.16C34.97 1038.5 34.8033 1038.98 34.8033 1039.6C34.8033 1040.17 34.97 1040.64 35.3033 1041C35.65 1041.34 36.1433 1041.52 36.7833 1041.52Z" fill="#1E232A"/>
<path d="M26.1072 1338.88C26.5606 1338.52 26.7672 1338.36 26.7272 1338.38C28.0339 1337.3 29.0606 1336.42 29.8072 1335.72C30.5672 1335.03 31.2072 1334.3 31.7272 1333.54C32.2472 1332.78 32.5072 1332.04 32.5072 1331.32C32.5072 1330.78 32.3806 1330.35 32.1272 1330.04C31.8739 1329.74 31.4939 1329.58 30.9872 1329.58C30.4806 1329.58 30.0806 1329.78 29.7872 1330.16C29.5072 1330.54 29.3672 1331.07 29.3672 1331.76H26.0672C26.0939 1330.63 26.3339 1329.68 26.7872 1328.92C27.2539 1328.16 27.8606 1327.6 28.6072 1327.24C29.3672 1326.88 30.2072 1326.7 31.1272 1326.7C32.7139 1326.7 33.9072 1327.11 34.7072 1327.92C35.5206 1328.74 35.9272 1329.8 35.9272 1331.1C35.9272 1332.53 35.4406 1333.86 34.4672 1335.08C33.4939 1336.3 32.2539 1337.48 30.7472 1338.64H36.1472V1341.42H26.1072V1338.88ZM37.533 1338.88C37.9863 1338.52 38.193 1338.36 38.153 1338.38C39.4597 1337.3 40.4863 1336.42 41.233 1335.72C41.993 1335.03 42.633 1334.3 43.153 1333.54C43.673 1332.78 43.933 1332.04 43.933 1331.32C43.933 1330.78 43.8063 1330.35 43.553 1330.04C43.2997 1329.74 42.9197 1329.58 42.413 1329.58C41.9063 1329.58 41.5063 1329.78 41.213 1330.16C40.933 1330.54 40.793 1331.07 40.793 1331.76H37.493C37.5197 1330.63 37.7597 1329.68 38.213 1328.92C38.6797 1328.16 39.2863 1327.6 40.033 1327.24C40.793 1326.88 41.633 1326.7 42.553 1326.7C44.1397 1326.7 45.333 1327.11 46.133 1327.92C46.9463 1328.74 47.353 1329.8 47.353 1331.1C47.353 1332.53 46.8663 1333.86 45.893 1335.08C44.9197 1336.3 43.6797 1337.48 42.173 1338.64H47.573V1341.42H37.533V1338.88Z" fill="#1E232A"/>
<path d="M28.0604 1238.69C28.5137 1238.33 28.7204 1238.16 28.6804 1238.19C29.987 1237.11 31.0137 1236.22 31.7604 1235.53C32.5204 1234.83 33.1604 1234.11 33.6804 1233.35C34.2004 1232.59 34.4604 1231.85 34.4604 1231.13C34.4604 1230.58 34.3337 1230.15 34.0804 1229.85C33.827 1229.54 33.447 1229.39 32.9404 1229.39C32.4337 1229.39 32.0337 1229.58 31.7404 1229.97C31.4604 1230.34 31.3204 1230.87 31.3204 1231.57H28.0204C28.047 1230.43 28.287 1229.49 28.7404 1228.73C29.207 1227.97 29.8137 1227.41 30.5604 1227.05C31.3204 1226.69 32.1604 1226.51 33.0804 1226.51C34.667 1226.51 35.8604 1226.91 36.6604 1227.73C37.4737 1228.54 37.8804 1229.6 37.8804 1230.91C37.8804 1232.33 37.3937 1233.66 36.4204 1234.89C35.447 1236.1 34.207 1237.29 32.7004 1238.45H38.1004V1241.23H28.0604V1238.69ZM39.2461 1230.01V1226.83H44.7861V1241.43H41.2261V1230.01H39.2461Z" fill="#1E232A"/>
<path d="M25.2967 1147.08C25.75 1146.72 25.9567 1146.55 25.9167 1146.58C27.2234 1145.5 28.25 1144.61 28.9967 1143.92C29.7567 1143.22 30.3967 1142.5 30.9167 1141.74C31.4367 1140.98 31.6967 1140.24 31.6967 1139.52C31.6967 1138.97 31.57 1138.54 31.3167 1138.24C31.0634 1137.93 30.6834 1137.78 30.1767 1137.78C29.67 1137.78 29.27 1137.97 28.9767 1138.36C28.6967 1138.73 28.5567 1139.26 28.5567 1139.96H25.2567C25.2834 1138.82 25.5234 1137.88 25.9767 1137.12C26.4434 1136.36 27.05 1135.8 27.7967 1135.44C28.5567 1135.08 29.3967 1134.9 30.3167 1134.9C31.9034 1134.9 33.0967 1135.3 33.8967 1136.12C34.71 1136.93 35.1167 1137.99 35.1167 1139.3C35.1167 1140.72 34.63 1142.05 33.6567 1143.28C32.6834 1144.49 31.4434 1145.68 29.9367 1146.84H35.3367V1149.62H25.2967V1147.08ZM36.8425 1142.32C36.8425 1140.02 37.2825 1138.22 38.1625 1136.9C39.0558 1135.58 40.4891 1134.92 42.4625 1134.92C44.4358 1134.92 45.8625 1135.58 46.7425 1136.9C47.6358 1138.22 48.0825 1140.02 48.0825 1142.32C48.0825 1144.64 47.6358 1146.46 46.7425 1147.78C45.8625 1149.1 44.4358 1149.76 42.4625 1149.76C40.4891 1149.76 39.0558 1149.1 38.1625 1147.78C37.2825 1146.46 36.8425 1144.64 36.8425 1142.32ZM44.7225 1142.32C44.7225 1140.97 44.5758 1139.94 44.2825 1139.22C43.9891 1138.48 43.3825 1138.12 42.4625 1138.12C41.5425 1138.12 40.9358 1138.48 40.6425 1139.22C40.3491 1139.94 40.2025 1140.97 40.2025 1142.32C40.2025 1143.22 40.2558 1143.98 40.3625 1144.58C40.4691 1145.16 40.6825 1145.64 41.0025 1146.02C41.3358 1146.38 41.8225 1146.56 42.4625 1146.56C43.1025 1146.56 43.5825 1146.38 43.9025 1146.02C44.2358 1145.64 44.4558 1145.16 44.5625 1144.58C44.6691 1143.98 44.7225 1143.22 44.7225 1142.32Z" fill="#1E232A"/>
<path d="M25.9563 293.862V290.682H31.4963V305.282H27.9363V293.862H25.9563ZM33.4759 293.862V290.682H39.0159V305.282H35.4559V293.862H33.4759Z" fill="#1E232A"/>
<g opacity="0.5">
<path d="M1440 157.455L1.71661e-05 157.455" stroke="#C6CBD3"/>
<path d="M1440 250.974L1.71661e-05 250.974" stroke="#C6CBD3"/>
<path d="M1440 345.447L0 345.447" stroke="#C6CBD3"/>
<path d="M1440 438.966L1.71661e-05 438.966" stroke="#C6CBD3"/>
<path d="M1440 532.485L1.71661e-05 532.485" stroke="#C6CBD3"/>
<path d="M1440 626.004L1.71661e-05 626.004" stroke="#C6CBD3"/>
<path d="M1440 719.523L1.71661e-05 719.523" stroke="#C6CBD3"/>
<path d="M1440 813.996L1.71661e-05 813.996" stroke="#C6CBD3"/>
<path d="M1440 907.515L1.71661e-05 907.515" stroke="#C6CBD3"/>
<path d="M1440 1001.03L1.71661e-05 1001.03" stroke="#C6CBD3"/>
<path d="M1440 1094.55L1.71661e-05 1094.55" stroke="#C6CBD3"/>
<path d="M1440 1189.03L1.71661e-05 1189.03" stroke="#C6CBD3"/>
<path d="M1440 1282.54L1.71661e-05 1282.54" stroke="#C6CBD3"/>
<path d="M1440 1376.06L1.71661e-05 1376.06" stroke="#C6CBD3"/>
<path d="M436.103 63.9364V1407.55" stroke="#C6CBD3"/>
<path d="M249.066 63.9364V1407.55" stroke="#C6CBD3"/>
<path d="M61.0735 63.9364V1407.55" stroke="#C6CBD3"/>
<path d="M623.141 63.9364V1407.55" stroke="#C6CBD3"/>
<path d="M811.133 63.9364V1407.55" stroke="#C6CBD3"/>
<path d="M998.171 63.9364V1407.55" stroke="#C6CBD3"/>
<path d="M1186.16 63.9364V1407.55" stroke="#C6CBD3"/>
<path d="M1373.2 63.9364V1407.55" stroke="#C6CBD3"/>
</g>
<path d="M331.974 5.1V19H329.694V9.48L325.454 19H323.874L319.614 9.48V19H317.334V5.1H319.794L324.674 16L329.534 5.1H331.974ZM339.75 19.18C338.71 19.18 337.77 18.9467 336.93 18.48C336.09 18 335.43 17.3333 334.95 16.48C334.47 15.6133 334.23 14.6133 334.23 13.48C334.23 12.36 334.477 11.3667 334.97 10.5C335.464 9.63333 336.137 8.96667 336.99 8.5C337.844 8.03333 338.797 7.8 339.85 7.8C340.904 7.8 341.857 8.03333 342.71 8.5C343.564 8.96667 344.237 9.63333 344.73 10.5C345.224 11.3667 345.47 12.36 345.47 13.48C345.47 14.6 345.217 15.5933 344.71 16.46C344.204 17.3267 343.51 18 342.63 18.48C341.764 18.9467 340.804 19.18 339.75 19.18ZM339.75 17.2C340.337 17.2 340.884 17.06 341.39 16.78C341.91 16.5 342.33 16.08 342.65 15.52C342.97 14.96 343.13 14.28 343.13 13.48C343.13 12.68 342.977 12.0067 342.67 11.46C342.364 10.9 341.957 10.48 341.45 10.2C340.944 9.92 340.397 9.78 339.81 9.78C339.224 9.78 338.677 9.92 338.17 10.2C337.677 10.48 337.284 10.9 336.99 11.46C336.697 12.0067 336.55 12.68 336.55 13.48C336.55 14.6667 336.85 15.5867 337.45 16.24C338.064 16.88 338.83 17.2 339.75 17.2ZM353.284 7.8C354.151 7.8 354.924 7.98 355.604 8.34C356.298 8.7 356.838 9.23333 357.224 9.94C357.611 10.6467 357.804 11.5 357.804 12.5V19H355.544V12.84C355.544 11.8533 355.298 11.1 354.804 10.58C354.311 10.0467 353.638 9.78 352.784 9.78C351.931 9.78 351.251 10.0467 350.744 10.58C350.251 11.1 350.004 11.8533 350.004 12.84V19H347.724V7.98H350.004V9.24C350.378 8.78667 350.851 8.43333 351.424 8.18C352.011 7.92667 352.631 7.8 353.284 7.8Z" fill="#9AA8BD"/>
<path d="M328.952 31.58V28.4H334.492V43H330.932V31.58H328.952ZM346.151 30.96L341.131 43H337.631L342.711 31.34H336.491V28.42H346.151V30.96Z" fill="#1E232A"/>
<path d="M135.46 19.14C134.526 19.14 133.686 18.98 132.94 18.66C132.193 18.3267 131.606 17.86 131.18 17.26C130.753 16.66 130.54 15.96 130.54 15.16H132.98C133.033 15.76 133.266 16.2533 133.68 16.64C134.106 17.0267 134.7 17.22 135.46 17.22C136.246 17.22 136.86 17.0333 137.3 16.66C137.74 16.2733 137.96 15.78 137.96 15.18C137.96 14.7133 137.82 14.3333 137.54 14.04C137.273 13.7467 136.933 13.52 136.52 13.36C136.12 13.2 135.56 13.0267 134.84 12.84C133.933 12.6 133.193 12.36 132.62 12.12C132.06 11.8667 131.58 11.48 131.18 10.96C130.78 10.44 130.58 9.74667 130.58 8.88C130.58 8.08 130.78 7.38 131.18 6.78C131.58 6.18 132.14 5.72 132.86 5.4C133.58 5.08 134.413 4.92 135.36 4.92C136.706 4.92 137.806 5.26 138.66 5.94C139.526 6.60667 140.006 7.52667 140.1 8.7H137.58C137.54 8.19333 137.3 7.76 136.86 7.4C136.42 7.04 135.84 6.86 135.12 6.86C134.466 6.86 133.933 7.02667 133.52 7.36C133.106 7.69333 132.9 8.17333 132.9 8.8C132.9 9.22667 133.026 9.58 133.28 9.86C133.546 10.1267 133.88 10.34 134.28 10.5C134.68 10.66 135.226 10.8333 135.92 11.02C136.84 11.2733 137.586 11.5267 138.16 11.78C138.746 12.0333 139.24 12.4267 139.64 12.96C140.053 13.48 140.26 14.18 140.26 15.06C140.26 15.7667 140.066 16.4333 139.68 17.06C139.306 17.6867 138.753 18.1933 138.02 18.58C137.3 18.9533 136.446 19.14 135.46 19.14ZM152.93 7.98V19H150.65V17.7C150.29 18.1533 149.817 18.5133 149.23 18.78C148.657 19.0333 148.043 19.16 147.39 19.16C146.523 19.16 145.743 18.98 145.05 18.62C144.37 18.26 143.83 17.7267 143.43 17.02C143.043 16.3133 142.85 15.46 142.85 14.46V7.98H145.11V14.12C145.11 15.1067 145.357 15.8667 145.85 16.4C146.343 16.92 147.017 17.18 147.87 17.18C148.723 17.18 149.397 16.92 149.89 16.4C150.397 15.8667 150.65 15.1067 150.65 14.12V7.98H152.93ZM161.498 7.8C162.365 7.8 163.138 7.98 163.818 8.34C164.512 8.7 165.052 9.23333 165.438 9.94C165.825 10.6467 166.018 11.5 166.018 12.5V19H163.758V12.84C163.758 11.8533 163.512 11.1 163.018 10.58C162.525 10.0467 161.852 9.78 160.998 9.78C160.145 9.78 159.465 10.0467 158.958 10.58C158.465 11.1 158.218 11.8533 158.218 12.84V19H155.938V7.98H158.218V9.24C158.592 8.78667 159.065 8.43333 159.638 8.18C160.225 7.92667 160.845 7.8 161.498 7.8Z" fill="#9AA8BD"/>
<path d="M138.816 31.58V28.4H144.356V43H140.796V31.58H138.816ZM153.916 32.34C153.809 31.8467 153.622 31.48 153.356 31.24C153.089 30.9867 152.709 30.86 152.216 30.86C151.456 30.86 150.909 31.1933 150.576 31.86C150.242 32.5133 150.069 33.5533 150.056 34.98C150.349 34.5133 150.769 34.1467 151.316 33.88C151.876 33.6133 152.489 33.48 153.156 33.48C154.462 33.48 155.509 33.8933 156.296 34.72C157.096 35.5467 157.496 36.7 157.496 38.18C157.496 39.1533 157.296 40.0067 156.896 40.74C156.509 41.4733 155.936 42.0467 155.176 42.46C154.429 42.8733 153.542 43.08 152.516 43.08C150.462 43.08 149.036 42.44 148.236 41.16C147.436 39.8667 147.036 38.0133 147.036 35.6C147.036 33.0667 147.456 31.1867 148.296 29.96C149.149 28.72 150.509 28.1 152.376 28.1C153.376 28.1 154.216 28.3 154.896 28.7C155.589 29.0867 156.109 29.6 156.456 30.24C156.816 30.88 157.029 31.58 157.096 32.34H153.916ZM152.336 36.18C151.762 36.18 151.282 36.3533 150.896 36.7C150.522 37.0333 150.336 37.5133 150.336 38.14C150.336 38.78 150.509 39.28 150.856 39.64C151.216 40 151.722 40.18 152.376 40.18C152.962 40.18 153.422 40.0067 153.756 39.66C154.102 39.3 154.276 38.8133 154.276 38.2C154.276 37.5733 154.109 37.08 153.776 36.72C153.442 36.36 152.962 36.18 152.336 36.18Z" fill="#1E232A"/>
<path d="M517.784 5.1V6.96H514.084V19H511.804V6.96H508.084V5.1H517.784ZM530.073 7.98V19H527.793V17.7C527.433 18.1533 526.96 18.5133 526.373 18.78C525.8 19.0333 525.186 19.16 524.533 19.16C523.666 19.16 522.886 18.98 522.193 18.62C521.513 18.26 520.973 17.7267 520.573 17.02C520.186 16.3133 519.993 15.46 519.993 14.46V7.98H522.253V14.12C522.253 15.1067 522.5 15.8667 522.993 16.4C523.486 16.92 524.16 17.18 525.013 17.18C525.866 17.18 526.54 16.92 527.033 16.4C527.54 15.8667 527.793 15.1067 527.793 14.12V7.98H530.073ZM543.181 13.22C543.181 13.6333 543.155 14.0067 543.101 14.34H534.681C534.748 15.22 535.075 15.9267 535.661 16.46C536.248 16.9933 536.968 17.26 537.821 17.26C539.048 17.26 539.915 16.7467 540.421 15.72H542.881C542.548 16.7333 541.941 17.5667 541.061 18.22C540.195 18.86 539.115 19.18 537.821 19.18C536.768 19.18 535.821 18.9467 534.981 18.48C534.155 18 533.501 17.3333 533.021 16.48C532.555 15.6133 532.321 14.6133 532.321 13.48C532.321 12.3467 532.548 11.3533 533.001 10.5C533.468 9.63333 534.115 8.96667 534.941 8.5C535.781 8.03333 536.741 7.8 537.821 7.8C538.861 7.8 539.788 8.02667 540.601 8.48C541.415 8.93333 542.048 9.57333 542.501 10.4C542.955 11.2133 543.181 12.1533 543.181 13.22ZM540.801 12.5C540.788 11.66 540.488 10.9867 539.901 10.48C539.315 9.97333 538.588 9.72 537.721 9.72C536.935 9.72 536.261 9.97333 535.701 10.48C535.141 10.9733 534.808 11.6467 534.701 12.5H540.801Z" fill="#9AA8BD"/>
<path d="M515.91 31.58V28.4H521.45V43H517.89V31.58H515.91ZM526.19 35.16C524.937 34.4933 524.31 33.4467 524.31 32.02C524.31 31.3 524.497 30.6467 524.87 30.06C525.243 29.46 525.81 28.9867 526.57 28.64C527.33 28.28 528.263 28.1 529.37 28.1C530.477 28.1 531.403 28.28 532.15 28.64C532.91 28.9867 533.477 29.46 533.85 30.06C534.223 30.6467 534.41 31.3 534.41 32.02C534.41 32.74 534.237 33.3667 533.89 33.9C533.557 34.4333 533.103 34.8533 532.53 35.16C533.25 35.5067 533.803 35.9867 534.19 36.6C534.577 37.2 534.77 37.9067 534.77 38.72C534.77 39.6667 534.53 40.4867 534.05 41.18C533.57 41.86 532.917 42.38 532.09 42.74C531.277 43.1 530.37 43.28 529.37 43.28C528.37 43.28 527.457 43.1 526.63 42.74C525.817 42.38 525.17 41.86 524.69 41.18C524.21 40.4867 523.97 39.6667 523.97 38.72C523.97 37.8933 524.163 37.18 524.55 36.58C524.937 35.9667 525.483 35.4933 526.19 35.16ZM531.09 32.54C531.09 31.9933 530.93 31.5733 530.61 31.28C530.303 30.9733 529.89 30.82 529.37 30.82C528.85 30.82 528.43 30.9733 528.11 31.28C527.803 31.5867 527.65 32.0133 527.65 32.56C527.65 33.08 527.81 33.4933 528.13 33.8C528.45 34.0933 528.863 34.24 529.37 34.24C529.877 34.24 530.29 34.0867 530.61 33.78C530.93 33.4733 531.09 33.06 531.09 32.54ZM529.37 36.64C528.743 36.64 528.237 36.8133 527.85 37.16C527.463 37.4933 527.27 37.96 527.27 38.56C527.27 39.12 527.457 39.58 527.83 39.94C528.217 40.3 528.73 40.48 529.37 40.48C530.01 40.48 530.51 40.3 530.87 39.94C531.243 39.58 531.43 39.12 531.43 38.56C531.43 37.9733 531.237 37.5067 530.85 37.16C530.477 36.8133 529.983 36.64 529.37 36.64Z" fill="#1E232A"/>
<path d="M708.967 5.1L704.847 19H702.267L699.347 8.48L696.247 19L693.687 19.02L689.747 5.1H692.167L695.047 16.42L698.167 5.1H700.727L703.627 16.36L706.527 5.1H708.967ZM720.948 13.22C720.948 13.6333 720.921 14.0067 720.868 14.34H712.448C712.515 15.22 712.841 15.9267 713.428 16.46C714.015 16.9933 714.735 17.26 715.588 17.26C716.815 17.26 717.681 16.7467 718.188 15.72H720.648C720.315 16.7333 719.708 17.5667 718.828 18.22C717.961 18.86 716.881 19.18 715.588 19.18C714.535 19.18 713.588 18.9467 712.748 18.48C711.921 18 711.268 17.3333 710.788 16.48C710.321 15.6133 710.088 14.6133 710.088 13.48C710.088 12.3467 710.315 11.3533 710.768 10.5C711.235 9.63333 711.881 8.96667 712.708 8.5C713.548 8.03333 714.508 7.8 715.588 7.8C716.628 7.8 717.555 8.02667 718.368 8.48C719.181 8.93333 719.815 9.57333 720.268 10.4C720.721 11.2133 720.948 12.1533 720.948 13.22ZM718.568 12.5C718.555 11.66 718.255 10.9867 717.668 10.48C717.081 9.97333 716.355 9.72 715.488 9.72C714.701 9.72 714.028 9.97333 713.468 10.48C712.908 10.9733 712.575 11.6467 712.468 12.5H718.568ZM722.432 13.44C722.432 12.3333 722.658 11.3533 723.112 10.5C723.578 9.64667 724.205 8.98667 724.992 8.52C725.792 8.04 726.678 7.8 727.652 7.8C728.372 7.8 729.078 7.96 729.772 8.28C730.478 8.58667 731.038 9 731.452 9.52V4.2H733.752V19H731.452V17.34C731.078 17.8733 730.558 18.3133 729.892 18.66C729.238 19.0067 728.485 19.18 727.632 19.18C726.672 19.18 725.792 18.94 724.992 18.46C724.205 17.9667 723.578 17.2867 723.112 16.42C722.658 15.54 722.432 14.5467 722.432 13.44ZM731.452 13.48C731.452 12.72 731.292 12.06 730.972 11.5C730.665 10.94 730.258 10.5133 729.752 10.22C729.245 9.92667 728.698 9.78 728.112 9.78C727.525 9.78 726.978 9.92667 726.472 10.22C725.965 10.5 725.552 10.92 725.232 11.48C724.925 12.0267 724.772 12.68 724.772 13.44C724.772 14.2 724.925 14.8667 725.232 15.44C725.552 16.0133 725.965 16.4533 726.472 16.76C726.992 17.0533 727.538 17.2 728.112 17.2C728.698 17.2 729.245 17.0533 729.752 16.76C730.258 16.4667 730.665 16.04 730.972 15.48C731.292 14.9067 731.452 14.24 731.452 13.48ZM702.935 31.58V28.4H708.475V43H704.915V31.58H702.935ZM714.494 38.72C714.694 39.7733 715.308 40.3 716.334 40.3C717.041 40.3 717.541 39.9867 717.834 39.36C718.128 38.7333 718.274 37.7133 718.274 36.3C717.981 36.7133 717.581 37.0333 717.074 37.26C716.568 37.4867 716.001 37.6 715.374 37.6C714.521 37.6 713.761 37.4267 713.094 37.08C712.428 36.72 711.901 36.1933 711.514 35.5C711.141 34.7933 710.954 33.94 710.954 32.94C710.954 31.9533 711.154 31.0933 711.554 30.36C711.968 29.6267 712.548 29.06 713.294 28.66C714.054 28.26 714.948 28.06 715.974 28.06C717.948 28.06 719.328 28.6733 720.114 29.9C720.901 31.1267 721.294 32.9333 721.294 35.32C721.294 37.0533 721.134 38.4867 720.814 39.62C720.508 40.74 719.981 41.5933 719.234 42.18C718.501 42.7667 717.494 43.06 716.214 43.06C715.201 43.06 714.334 42.86 713.614 42.46C712.908 42.06 712.361 41.5333 711.974 40.88C711.601 40.2267 711.388 39.5067 711.334 38.72H714.494ZM716.154 34.9C716.714 34.9 717.161 34.7333 717.494 34.4C717.828 34.0533 717.994 33.5867 717.994 33C717.994 32.36 717.821 31.8667 717.474 31.52C717.128 31.1733 716.661 31 716.074 31C715.488 31 715.021 31.18 714.674 31.54C714.341 31.8867 714.174 32.3667 714.174 32.98C714.174 33.5533 714.341 34.02 714.674 34.38C715.021 34.7267 715.514 34.9 716.154 34.9Z" fill="#FFCB12"/>
<path d="M887.411 5.1V6.96H883.711V19H881.431V6.96H877.711V5.1H887.411ZM895.42 7.8C896.26 7.8 897.007 7.98 897.66 8.34C898.327 8.7 898.847 9.23333 899.22 9.94C899.607 10.6467 899.8 11.5 899.8 12.5V19H897.54V12.84C897.54 11.8533 897.294 11.1 896.8 10.58C896.307 10.0467 895.634 9.78 894.78 9.78C893.927 9.78 893.247 10.0467 892.74 10.58C892.247 11.1 892 11.8533 892 12.84V19H889.72V4.2H892V9.26C892.387 8.79333 892.874 8.43333 893.46 8.18C894.06 7.92667 894.714 7.8 895.42 7.8ZM912.689 7.98V19H910.409V17.7C910.049 18.1533 909.575 18.5133 908.989 18.78C908.415 19.0333 907.802 19.16 907.149 19.16C906.282 19.16 905.502 18.98 904.809 18.62C904.129 18.26 903.589 17.7267 903.189 17.02C902.802 16.3133 902.609 15.46 902.609 14.46V7.98H904.869V14.12C904.869 15.1067 905.115 15.8667 905.609 16.4C906.102 16.92 906.775 17.18 907.629 17.18C908.482 17.18 909.155 16.92 909.649 16.4C910.155 15.8667 910.409 15.1067 910.409 14.12V7.98H912.689Z" fill="#9AA8BD"/>
<path d="M884.108 40.26C884.561 39.9 884.768 39.7333 884.728 39.76C886.035 38.68 887.061 37.7933 887.808 37.1C888.568 36.4067 889.208 35.68 889.728 34.92C890.248 34.16 890.508 33.42 890.508 32.7C890.508 32.1533 890.381 31.7267 890.128 31.42C889.875 31.1133 889.495 30.96 888.988 30.96C888.481 30.96 888.081 31.1533 887.788 31.54C887.508 31.9133 887.368 32.4467 887.368 33.14H884.068C884.095 32.0067 884.335 31.06 884.788 30.3C885.255 29.54 885.861 28.98 886.608 28.62C887.368 28.26 888.208 28.08 889.128 28.08C890.715 28.08 891.908 28.4867 892.708 29.3C893.521 30.1133 893.928 31.1733 893.928 32.48C893.928 33.9067 893.441 35.2333 892.468 36.46C891.495 37.6733 890.255 38.86 888.748 40.02H894.148V42.8H884.108V40.26ZM895.654 35.5C895.654 33.2067 896.094 31.4 896.974 30.08C897.867 28.76 899.3 28.1 901.274 28.1C903.247 28.1 904.674 28.76 905.554 30.08C906.447 31.4 906.894 33.2067 906.894 35.5C906.894 37.82 906.447 39.64 905.554 40.96C904.674 42.28 903.247 42.94 901.274 42.94C899.3 42.94 897.867 42.28 896.974 40.96C896.094 39.64 895.654 37.82 895.654 35.5ZM903.534 35.5C903.534 34.1533 903.387 33.12 903.094 32.4C902.8 31.6667 902.194 31.3 901.274 31.3C900.354 31.3 899.747 31.6667 899.454 32.4C899.16 33.12 899.014 34.1533 899.014 35.5C899.014 36.4067 899.067 37.16 899.174 37.76C899.28 38.3467 899.494 38.8267 899.814 39.2C900.147 39.56 900.634 39.74 901.274 39.74C901.914 39.74 902.394 39.56 902.714 39.2C903.047 38.8267 903.267 38.3467 903.374 37.76C903.48 37.16 903.534 36.4067 903.534 35.5Z" fill="#1E232A"/>
<path d="M1084.13 5.1V6.96H1078.23V11.06H1082.83V12.92H1078.23V19H1075.95V5.1H1084.13ZM1088.53 9.58C1088.86 9.02 1089.3 8.58667 1089.85 8.28C1090.41 7.96 1091.07 7.8 1091.83 7.8V10.16H1091.25C1090.35 10.16 1089.67 10.3867 1089.21 10.84C1088.75 11.2933 1088.53 12.08 1088.53 13.2V19H1086.25V7.98H1088.53V9.58ZM1095.08 6.52C1094.67 6.52 1094.32 6.38 1094.04 6.1C1093.76 5.82 1093.62 5.47333 1093.62 5.06C1093.62 4.64667 1093.76 4.3 1094.04 4.02C1094.32 3.74 1094.67 3.6 1095.08 3.6C1095.48 3.6 1095.82 3.74 1096.1 4.02C1096.38 4.3 1096.52 4.64667 1096.52 5.06C1096.52 5.47333 1096.38 5.82 1096.1 6.1C1095.82 6.38 1095.48 6.52 1095.08 6.52ZM1096.2 7.98V19H1093.92V7.98H1096.2Z" fill="#9AA8BD"/>
<path d="M1077.38 40.26C1077.83 39.9 1078.04 39.7333 1078 39.76C1079.31 38.68 1080.33 37.7933 1081.08 37.1C1081.84 36.4067 1082.48 35.68 1083 34.92C1083.52 34.16 1083.78 33.42 1083.78 32.7C1083.78 32.1533 1083.65 31.7267 1083.4 31.42C1083.15 31.1133 1082.77 30.96 1082.26 30.96C1081.75 30.96 1081.35 31.1533 1081.06 31.54C1080.78 31.9133 1080.64 32.4467 1080.64 33.14H1077.34C1077.37 32.0067 1077.61 31.06 1078.06 30.3C1078.53 29.54 1079.13 28.98 1079.88 28.62C1080.64 28.26 1081.48 28.08 1082.4 28.08C1083.99 28.08 1085.18 28.4867 1085.98 29.3C1086.79 30.1133 1087.2 31.1733 1087.2 32.48C1087.2 33.9067 1086.71 35.2333 1085.74 36.46C1084.77 37.6733 1083.53 38.86 1082.02 40.02H1087.42V42.8H1077.38V40.26ZM1088.57 31.58V28.4H1094.11V43H1090.55V31.58H1088.57Z" fill="#1E232A"/>
<path d="M1256.4 19.14C1255.46 19.14 1254.62 18.98 1253.88 18.66C1253.13 18.3267 1252.54 17.86 1252.12 17.26C1251.69 16.66 1251.48 15.96 1251.48 15.16H1253.92C1253.97 15.76 1254.2 16.2533 1254.62 16.64C1255.04 17.0267 1255.64 17.22 1256.4 17.22C1257.18 17.22 1257.8 17.0333 1258.24 16.66C1258.68 16.2733 1258.9 15.78 1258.9 15.18C1258.9 14.7133 1258.76 14.3333 1258.48 14.04C1258.21 13.7467 1257.87 13.52 1257.46 13.36C1257.06 13.2 1256.5 13.0267 1255.78 12.84C1254.87 12.6 1254.13 12.36 1253.56 12.12C1253 11.8667 1252.52 11.48 1252.12 10.96C1251.72 10.44 1251.52 9.74667 1251.52 8.88C1251.52 8.08 1251.72 7.38 1252.12 6.78C1252.52 6.18 1253.08 5.72 1253.8 5.4C1254.52 5.08 1255.35 4.92 1256.3 4.92C1257.64 4.92 1258.74 5.26 1259.6 5.94C1260.46 6.60667 1260.94 7.52667 1261.04 8.7H1258.52C1258.48 8.19333 1258.24 7.76 1257.8 7.4C1257.36 7.04 1256.78 6.86 1256.06 6.86C1255.4 6.86 1254.87 7.02667 1254.46 7.36C1254.04 7.69333 1253.84 8.17333 1253.84 8.8C1253.84 9.22667 1253.96 9.58 1254.22 9.86C1254.48 10.1267 1254.82 10.34 1255.22 10.5C1255.62 10.66 1256.16 10.8333 1256.86 11.02C1257.78 11.2733 1258.52 11.5267 1259.1 11.78C1259.68 12.0333 1260.18 12.4267 1260.58 12.96C1260.99 13.48 1261.2 14.18 1261.2 15.06C1261.2 15.7667 1261 16.4333 1260.62 17.06C1260.24 17.6867 1259.69 18.1933 1258.96 18.58C1258.24 18.9533 1257.38 19.14 1256.4 19.14ZM1263.13 13.44C1263.13 12.3333 1263.35 11.3533 1263.81 10.5C1264.27 9.64667 1264.9 8.98667 1265.69 8.52C1266.49 8.04 1267.37 7.8 1268.33 7.8C1269.19 7.8 1269.95 7.97333 1270.59 8.32C1271.24 8.65333 1271.76 9.07333 1272.15 9.58V7.98H1274.45V19H1272.15V17.36C1271.76 17.88 1271.23 18.3133 1270.57 18.66C1269.9 19.0067 1269.14 19.18 1268.29 19.18C1267.34 19.18 1266.47 18.94 1265.69 18.46C1264.9 17.9667 1264.27 17.2867 1263.81 16.42C1263.35 15.54 1263.13 14.5467 1263.13 13.44ZM1272.15 13.48C1272.15 12.72 1271.99 12.06 1271.67 11.5C1271.36 10.94 1270.95 10.5133 1270.45 10.22C1269.94 9.92667 1269.39 9.78 1268.81 9.78C1268.22 9.78 1267.67 9.92667 1267.17 10.22C1266.66 10.5 1266.25 10.92 1265.93 11.48C1265.62 12.0267 1265.47 12.68 1265.47 13.44C1265.47 14.2 1265.62 14.8667 1265.93 15.44C1266.25 16.0133 1266.66 16.4533 1267.17 16.76C1267.69 17.0533 1268.23 17.2 1268.81 17.2C1269.39 17.2 1269.94 17.0533 1270.45 16.76C1270.95 16.4667 1271.36 16.04 1271.67 15.48C1271.99 14.9067 1272.15 14.24 1272.15 13.48ZM1280.1 9.84V15.94C1280.1 16.3533 1280.2 16.6533 1280.38 16.84C1280.58 17.0133 1280.92 17.1 1281.38 17.1H1282.78V19H1280.98C1279.96 19 1279.17 18.76 1278.62 18.28C1278.08 17.8 1277.8 17.02 1277.8 15.94V9.84H1276.5V7.98H1277.8V5.24H1280.1V7.98H1282.78V9.84H1280.1Z" fill="#9AA8BD"/>
<path d="M1256.2 40.26C1256.66 39.9 1256.86 39.7333 1256.82 39.76C1258.13 38.68 1259.16 37.7933 1259.9 37.1C1260.66 36.4067 1261.3 35.68 1261.82 34.92C1262.34 34.16 1262.6 33.42 1262.6 32.7C1262.6 32.1533 1262.48 31.7267 1262.22 31.42C1261.97 31.1133 1261.59 30.96 1261.08 30.96C1260.58 30.96 1260.18 31.1533 1259.88 31.54C1259.6 31.9133 1259.46 32.4467 1259.46 33.14H1256.16C1256.19 32.0067 1256.43 31.06 1256.88 30.3C1257.35 29.54 1257.96 28.98 1258.7 28.62C1259.46 28.26 1260.3 28.08 1261.22 28.08C1262.81 28.08 1264 28.4867 1264.8 29.3C1265.62 30.1133 1266.02 31.1733 1266.02 32.48C1266.02 33.9067 1265.54 35.2333 1264.56 36.46C1263.59 37.6733 1262.35 38.86 1260.84 40.02H1266.24V42.8H1256.2V40.26ZM1267.63 40.26C1268.08 39.9 1268.29 39.7333 1268.25 39.76C1269.56 38.68 1270.58 37.7933 1271.33 37.1C1272.09 36.4067 1272.73 35.68 1273.25 34.92C1273.77 34.16 1274.03 33.42 1274.03 32.7C1274.03 32.1533 1273.9 31.7267 1273.65 31.42C1273.4 31.1133 1273.02 30.96 1272.51 30.96C1272 30.96 1271.6 31.1533 1271.31 31.54C1271.03 31.9133 1270.89 32.4467 1270.89 33.14H1267.59C1267.62 32.0067 1267.86 31.06 1268.31 30.3C1268.78 29.54 1269.38 28.98 1270.13 28.62C1270.89 28.26 1271.73 28.08 1272.65 28.08C1274.24 28.08 1275.43 28.4867 1276.23 29.3C1277.04 30.1133 1277.45 31.1733 1277.45 32.48C1277.45 33.9067 1276.96 35.2333 1275.99 36.46C1275.02 37.6733 1273.78 38.86 1272.27 40.02H1277.67V42.8H1267.63V40.26Z" fill="#1E232A"/>
<defs>
<linearGradient id="paint0_linear_103_39" x1="716.66" y1="1407.55" x2="716.66" y2="105.924" gradientUnits="userSpaceOnUse">
<stop stop-color="#7DB1FF"/>
<stop offset="1" stop-color="#7DB1FF" stop-opacity="0"/>
</linearGradient>
</defs>
</svg>
