<svg width="1509" height="1475" viewBox="0 0 1509 1475" fill="none" xmlns="http://www.w3.org/2000/svg">
<rect x="653" y="111" width="196" height="1364" fill="url(#paint0_linear_103_39)" fill-opacity="0.1"/>
<path d="M24.7709 212.58V209.4H30.3109V224H26.7509V212.58H24.7709ZM32.6504 216.5C32.6504 214.207 33.0904 212.4 33.9704 211.08C34.8637 209.76 36.2971 209.1 38.2704 209.1C40.2437 209.1 41.6704 209.76 42.5504 211.08C43.4437 212.4 43.8904 214.207 43.8904 216.5C43.8904 218.82 43.4437 220.64 42.5504 221.96C41.6704 223.28 40.2437 223.94 38.2704 223.94C36.2971 223.94 34.8637 223.28 33.9704 221.96C33.0904 220.64 32.6504 218.82 32.6504 216.5ZM40.5304 216.5C40.5304 215.153 40.3837 214.12 40.0904 213.4C39.7971 212.667 39.1904 212.3 38.2704 212.3C37.3504 212.3 36.7437 212.667 36.4504 213.4C36.1571 214.12 36.0104 215.153 36.0104 216.5C36.0104 217.407 36.0637 218.16 36.1704 218.76C36.2771 219.347 36.4904 219.827 36.8104 220.2C37.1437 220.56 37.6304 220.74 38.2704 220.74C38.9104 220.74 39.3904 220.56 39.7104 220.2C40.0437 219.827 40.2637 219.347 40.3704 218.76C40.4771 218.16 40.5304 217.407 40.5304 216.5Z" fill="#1E232A"/>
<path d="M25.5814 408.58V405.4H31.1214V420H27.5614V408.58H25.5814ZM33.3409 417.26C33.7943 416.9 34.0009 416.733 33.9609 416.76C35.2676 415.68 36.2943 414.793 37.0409 414.1C37.8009 413.407 38.4409 412.68 38.9609 411.92C39.4809 411.16 39.7409 410.42 39.7409 409.7C39.7409 409.153 39.6143 408.727 39.3609 408.42C39.1076 408.113 38.7276 407.96 38.2209 407.96C37.7143 407.96 37.3143 408.153 37.0209 408.54C36.7409 408.913 36.6009 409.447 36.6009 410.14H33.3009C33.3276 409.007 33.5676 408.06 34.0209 407.3C34.4876 406.54 35.0943 405.98 35.8409 405.62C36.6009 405.26 37.4409 405.08 38.3609 405.08C39.9476 405.08 41.1409 405.487 41.9409 406.3C42.7543 407.113 43.1609 408.173 43.1609 409.48C43.1609 410.907 42.6743 412.233 41.7009 413.46C40.7276 414.673 39.4876 415.86 37.9809 417.02H43.3809V419.8H33.3409V417.26Z" fill="#1E232A"/>
<path d="M25.2396 503.58V500.4H30.7796V515H27.2196V503.58H25.2396ZM33.2392 504.52C33.2925 503.093 33.7592 501.993 34.6392 501.22C35.5192 500.447 36.7125 500.06 38.2192 500.06C39.2192 500.06 40.0725 500.233 40.7792 500.58C41.4992 500.927 42.0392 501.4 42.3992 502C42.7725 502.6 42.9592 503.273 42.9592 504.02C42.9592 504.9 42.7392 505.62 42.2992 506.18C41.8592 506.727 41.3458 507.1 40.7592 507.3V507.38C41.5192 507.633 42.1192 508.053 42.5592 508.64C42.9992 509.227 43.2192 509.98 43.2192 510.9C43.2192 511.727 43.0258 512.46 42.6392 513.1C42.2658 513.727 41.7125 514.22 40.9792 514.58C40.2592 514.94 39.3992 515.12 38.3992 515.12C36.7992 515.12 35.5192 514.727 34.5592 513.94C33.6125 513.153 33.1125 511.967 33.0592 510.38H36.3792C36.3925 510.967 36.5592 511.433 36.8792 511.78C37.1992 512.113 37.6658 512.28 38.2792 512.28C38.7992 512.28 39.1992 512.133 39.4792 511.84C39.7725 511.533 39.9192 511.133 39.9192 510.64C39.9192 510 39.7125 509.54 39.2992 509.26C38.8992 508.967 38.2525 508.82 37.3592 508.82H36.7192V506.04H37.3592C38.0392 506.04 38.5858 505.927 38.9992 505.7C39.4258 505.46 39.6392 505.04 39.6392 504.44C39.6392 503.96 39.5058 503.587 39.2392 503.32C38.9725 503.053 38.6058 502.92 38.1392 502.92C37.6325 502.92 37.2525 503.073 36.9992 503.38C36.7592 503.687 36.6192 504.067 36.5792 504.52H33.2392Z" fill="#1E232A"/>
<path d="M24.5267 609.58V606.4H30.0667V621H26.5067V609.58H24.5267ZM32.4863 618.4V615.64L38.8063 606.6H42.6263V615.44H44.2663V618.4H42.6263V621H39.2063V618.4H32.4863ZM39.4463 610.36L36.0863 615.44H39.4463V610.36Z" fill="#1E232A"/>
<path d="M24.7904 704.58V701.4H30.3304V716H26.7704V704.58H24.7904ZM42.9499 704.38H36.7099V707.14C36.9766 706.847 37.3499 706.607 37.8299 706.42C38.3099 706.233 38.8299 706.14 39.3899 706.14C40.3899 706.14 41.2166 706.367 41.8699 706.82C42.5366 707.273 43.0233 707.86 43.3299 708.58C43.6366 709.3 43.7899 710.08 43.7899 710.92C43.7899 712.48 43.3499 713.72 42.4699 714.64C41.5899 715.547 40.3499 716 38.7499 716C37.6833 716 36.7566 715.82 35.9699 715.46C35.1833 715.087 34.5766 714.573 34.1499 713.92C33.7233 713.267 33.4899 712.513 33.4499 711.66H36.7899C36.8699 712.073 37.0633 712.42 37.3699 712.7C37.6766 712.967 38.0966 713.1 38.6299 713.1C39.2566 713.1 39.7233 712.9 40.0299 712.5C40.3366 712.1 40.4899 711.567 40.4899 710.9C40.4899 710.247 40.3299 709.747 40.0099 709.4C39.6899 709.053 39.2233 708.88 38.6099 708.88C38.1566 708.88 37.7833 708.993 37.4899 709.22C37.1966 709.433 37.0033 709.72 36.9099 710.08H33.6099V701.38H42.9499V704.38Z" fill="#1E232A"/>
<path d="M24.9271 799.58V796.4H30.4671V811H26.9071V799.58H24.9271ZM40.0267 800.34C39.92 799.847 39.7333 799.48 39.4667 799.24C39.2 798.987 38.82 798.86 38.3267 798.86C37.5667 798.86 37.02 799.193 36.6867 799.86C36.3533 800.513 36.18 801.553 36.1667 802.98C36.46 802.513 36.88 802.147 37.4267 801.88C37.9867 801.613 38.6 801.48 39.2667 801.48C40.5733 801.48 41.62 801.893 42.4067 802.72C43.2067 803.547 43.6067 804.7 43.6067 806.18C43.6067 807.153 43.4067 808.007 43.0067 808.74C42.62 809.473 42.0467 810.047 41.2867 810.46C40.54 810.873 39.6533 811.08 38.6267 811.08C36.5733 811.08 35.1467 810.44 34.3467 809.16C33.5467 807.867 33.1467 806.013 33.1467 803.6C33.1467 801.067 33.5667 799.187 34.4067 797.96C35.26 796.72 36.62 796.1 38.4867 796.1C39.4867 796.1 40.3267 796.3 41.0067 796.7C41.7 797.087 42.22 797.6 42.5667 798.24C42.9267 798.88 43.14 799.58 43.2067 800.34H40.0267ZM38.4467 804.18C37.8733 804.18 37.3933 804.353 37.0067 804.7C36.6333 805.033 36.4467 805.513 36.4467 806.14C36.4467 806.78 36.62 807.28 36.9667 807.64C37.3267 808 37.8333 808.18 38.4867 808.18C39.0733 808.18 39.5333 808.007 39.8667 807.66C40.2133 807.3 40.3867 806.813 40.3867 806.2C40.3867 805.573 40.22 805.08 39.8867 804.72C39.5533 804.36 39.0733 804.18 38.4467 804.18Z" fill="#1E232A"/>
<path d="M25.9427 894.58V891.4H31.4827V906H27.9227V894.58H25.9427ZM43.1423 893.96L38.1223 906H34.6223L39.7023 894.34H33.4823V891.42H43.1423V893.96Z" fill="#1E232A"/>
<path d="M24.8099 991.58V988.4H30.3499V1003H26.7899V991.58H24.8099ZM35.0895 995.16C33.8361 994.493 33.2095 993.447 33.2095 992.02C33.2095 991.3 33.3961 990.647 33.7695 990.06C34.1428 989.46 34.7095 988.987 35.4695 988.64C36.2295 988.28 37.1628 988.1 38.2695 988.1C39.3761 988.1 40.3028 988.28 41.0495 988.64C41.8095 988.987 42.3761 989.46 42.7495 990.06C43.1228 990.647 43.3095 991.3 43.3095 992.02C43.3095 992.74 43.1361 993.367 42.7895 993.9C42.4561 994.433 42.0028 994.853 41.4295 995.16C42.1495 995.507 42.7028 995.987 43.0895 996.6C43.4761 997.2 43.6695 997.907 43.6695 998.72C43.6695 999.667 43.4295 1000.49 42.9495 1001.18C42.4695 1001.86 41.8161 1002.38 40.9895 1002.74C40.1761 1003.1 39.2695 1003.28 38.2695 1003.28C37.2695 1003.28 36.3561 1003.1 35.5295 1002.74C34.7161 1002.38 34.0695 1001.86 33.5895 1001.18C33.1095 1000.49 32.8695 999.667 32.8695 998.72C32.8695 997.893 33.0628 997.18 33.4495 996.58C33.8361 995.967 34.3828 995.493 35.0895 995.16ZM39.9895 992.54C39.9895 991.993 39.8295 991.573 39.5095 991.28C39.2028 990.973 38.7895 990.82 38.2695 990.82C37.7495 990.82 37.3295 990.973 37.0095 991.28C36.7028 991.587 36.5495 992.013 36.5495 992.56C36.5495 993.08 36.7095 993.493 37.0295 993.8C37.3495 994.093 37.7628 994.24 38.2695 994.24C38.7761 994.24 39.1895 994.087 39.5095 993.78C39.8295 993.473 39.9895 993.06 39.9895 992.54ZM38.2695 996.64C37.6428 996.64 37.1361 996.813 36.7495 997.16C36.3628 997.493 36.1695 997.96 36.1695 998.56C36.1695 999.12 36.3561 999.58 36.7295 999.94C37.1161 1000.3 37.6295 1000.48 38.2695 1000.48C38.9095 1000.48 39.4095 1000.3 39.7695 999.94C40.1428 999.58 40.3295 999.12 40.3295 998.56C40.3295 997.973 40.1361 997.507 39.7495 997.16C39.3761 996.813 38.8828 996.64 38.2695 996.64Z" fill="#1E232A"/>
<path d="M25.142 1087.58V1084.4H30.682V1099H27.122V1087.58H25.142ZM36.7015 1094.72C36.9015 1095.77 37.5148 1096.3 38.5415 1096.3C39.2482 1096.3 39.7482 1095.99 40.0415 1095.36C40.3348 1094.73 40.4815 1093.71 40.4815 1092.3C40.1882 1092.71 39.7882 1093.03 39.2815 1093.26C38.7748 1093.49 38.2082 1093.6 37.5815 1093.6C36.7282 1093.6 35.9682 1093.43 35.3015 1093.08C34.6348 1092.72 34.1082 1092.19 33.7215 1091.5C33.3482 1090.79 33.1615 1089.94 33.1615 1088.94C33.1615 1087.95 33.3615 1087.09 33.7615 1086.36C34.1748 1085.63 34.7548 1085.06 35.5015 1084.66C36.2615 1084.26 37.1548 1084.06 38.1815 1084.06C40.1548 1084.06 41.5348 1084.67 42.3215 1085.9C43.1082 1087.13 43.5015 1088.93 43.5015 1091.32C43.5015 1093.05 43.3415 1094.49 43.0215 1095.62C42.7148 1096.74 42.1882 1097.59 41.4415 1098.18C40.7082 1098.77 39.7015 1099.06 38.4215 1099.06C37.4082 1099.06 36.5415 1098.86 35.8215 1098.46C35.1148 1098.06 34.5682 1097.53 34.1815 1096.88C33.8082 1096.23 33.5948 1095.51 33.5415 1094.72H36.7015ZM38.3615 1090.9C38.9215 1090.9 39.3682 1090.73 39.7015 1090.4C40.0348 1090.05 40.2015 1089.59 40.2015 1089C40.2015 1088.36 40.0282 1087.87 39.6815 1087.52C39.3348 1087.17 38.8682 1087 38.2815 1087C37.6948 1087 37.2282 1087.18 36.8815 1087.54C36.5482 1087.89 36.3815 1088.37 36.3815 1088.98C36.3815 1089.55 36.5482 1090.02 36.8815 1090.38C37.2282 1090.73 37.7215 1090.9 38.3615 1090.9Z" fill="#1E232A"/>
<path d="M27.8683 1402.26C28.3216 1401.9 28.5283 1401.73 28.4883 1401.76C29.795 1400.68 30.8216 1399.79 31.5683 1399.1C32.3283 1398.41 32.9683 1397.68 33.4883 1396.92C34.0083 1396.16 34.2683 1395.42 34.2683 1394.7C34.2683 1394.15 34.1416 1393.73 33.8883 1393.42C33.635 1393.11 33.255 1392.96 32.7483 1392.96C32.2416 1392.96 31.8416 1393.15 31.5483 1393.54C31.2683 1393.91 31.1283 1394.45 31.1283 1395.14H27.8283C27.855 1394.01 28.095 1393.06 28.5483 1392.3C29.015 1391.54 29.6216 1390.98 30.3683 1390.62C31.1283 1390.26 31.9683 1390.08 32.8883 1390.08C34.475 1390.08 35.6683 1390.49 36.4683 1391.3C37.2816 1392.11 37.6883 1393.17 37.6883 1394.48C37.6883 1395.91 37.2016 1397.23 36.2283 1398.46C35.255 1399.67 34.015 1400.86 32.5083 1402.02H37.9083V1404.8H27.8683V1402.26ZM39.2941 1402.26C39.7474 1401.9 39.9541 1401.73 39.9141 1401.76C41.2207 1400.68 42.2474 1399.79 42.9941 1399.1C43.7541 1398.41 44.3941 1397.68 44.9141 1396.92C45.4341 1396.16 45.6941 1395.42 45.6941 1394.7C45.6941 1394.15 45.5674 1393.73 45.3141 1393.42C45.0607 1393.11 44.6807 1392.96 44.1741 1392.96C43.6674 1392.96 43.2674 1393.15 42.9741 1393.54C42.6941 1393.91 42.5541 1394.45 42.5541 1395.14H39.2541C39.2807 1394.01 39.5207 1393.06 39.9741 1392.3C40.4407 1391.54 41.0474 1390.98 41.7941 1390.62C42.5541 1390.26 43.3941 1390.08 44.3141 1390.08C45.9007 1390.08 47.0941 1390.49 47.8941 1391.3C48.7074 1392.11 49.1141 1393.17 49.1141 1394.48C49.1141 1395.91 48.6274 1397.23 47.6541 1398.46C46.6807 1399.67 45.4407 1400.86 43.9341 1402.02H49.3341V1404.8H39.2941V1402.26Z" fill="#1E232A"/>
<path d="M29.8214 1297.26C30.2748 1296.9 30.4814 1296.73 30.4414 1296.76C31.7481 1295.68 32.7748 1294.79 33.5214 1294.1C34.2814 1293.41 34.9214 1292.68 35.4414 1291.92C35.9614 1291.16 36.2214 1290.42 36.2214 1289.7C36.2214 1289.15 36.0948 1288.73 35.8414 1288.42C35.5881 1288.11 35.2081 1287.96 34.7014 1287.96C34.1948 1287.96 33.7948 1288.15 33.5014 1288.54C33.2214 1288.91 33.0814 1289.45 33.0814 1290.14H29.7814C29.8081 1289.01 30.0481 1288.06 30.5014 1287.3C30.9681 1286.54 31.5748 1285.98 32.3214 1285.62C33.0814 1285.26 33.9214 1285.08 34.8414 1285.08C36.4281 1285.08 37.6214 1285.49 38.4214 1286.3C39.2348 1287.11 39.6414 1288.17 39.6414 1289.48C39.6414 1290.91 39.1548 1292.23 38.1814 1293.46C37.2081 1294.67 35.9681 1295.86 34.4614 1297.02H39.8614V1299.8H29.8214V1297.26ZM41.0072 1288.58V1285.4H46.5472V1300H42.9872V1288.58H41.0072Z" fill="#1E232A"/>
<path d="M27.0577 1201.26C27.5111 1200.9 27.7177 1200.73 27.6777 1200.76C28.9844 1199.68 30.0111 1198.79 30.7577 1198.1C31.5177 1197.41 32.1577 1196.68 32.6777 1195.92C33.1977 1195.16 33.4577 1194.42 33.4577 1193.7C33.4577 1193.15 33.3311 1192.73 33.0777 1192.42C32.8244 1192.11 32.4444 1191.96 31.9377 1191.96C31.4311 1191.96 31.0311 1192.15 30.7377 1192.54C30.4577 1192.91 30.3177 1193.45 30.3177 1194.14H27.0177C27.0444 1193.01 27.2844 1192.06 27.7377 1191.3C28.2044 1190.54 28.8111 1189.98 29.5577 1189.62C30.3177 1189.26 31.1577 1189.08 32.0777 1189.08C33.6644 1189.08 34.8577 1189.49 35.6577 1190.3C36.4711 1191.11 36.8777 1192.17 36.8777 1193.48C36.8777 1194.91 36.3911 1196.23 35.4177 1197.46C34.4444 1198.67 33.2044 1199.86 31.6977 1201.02H37.0977V1203.8H27.0577V1201.26ZM38.6035 1196.5C38.6035 1194.21 39.0435 1192.4 39.9235 1191.08C40.8169 1189.76 42.2502 1189.1 44.2235 1189.1C46.1969 1189.1 47.6235 1189.76 48.5035 1191.08C49.3969 1192.4 49.8435 1194.21 49.8435 1196.5C49.8435 1198.82 49.3969 1200.64 48.5035 1201.96C47.6235 1203.28 46.1969 1203.94 44.2235 1203.94C42.2502 1203.94 40.8169 1203.28 39.9235 1201.96C39.0435 1200.64 38.6035 1198.82 38.6035 1196.5ZM46.4835 1196.5C46.4835 1195.15 46.3369 1194.12 46.0435 1193.4C45.7502 1192.67 45.1435 1192.3 44.2235 1192.3C43.3035 1192.3 42.6969 1192.67 42.4035 1193.4C42.1102 1194.12 41.9635 1195.15 41.9635 1196.5C41.9635 1197.41 42.0169 1198.16 42.1235 1198.76C42.2302 1199.35 42.4435 1199.83 42.7635 1200.2C43.0969 1200.56 43.5835 1200.74 44.2235 1200.74C44.8635 1200.74 45.3435 1200.56 45.6635 1200.2C45.9969 1199.83 46.2169 1199.35 46.3235 1198.76C46.4302 1198.16 46.4835 1197.41 46.4835 1196.5Z" fill="#1E232A"/>
<path d="M27.5345 307.58V304.4H33.0745V319H29.5145V307.58H27.5345ZM35.0541 307.58V304.4H40.5941V319H37.0341V307.58H35.0541Z" fill="#1E232A"/>
<g opacity="0.5">
<path d="M1509 165L8.4877e-05 165" stroke="#C6CBD3"/>
<path d="M1509 263L8.4877e-05 263" stroke="#C6CBD3"/>
<path d="M1509 362L8.4877e-05 362" stroke="#C6CBD3"/>
<path d="M1509 460L8.4877e-05 460" stroke="#C6CBD3"/>
<path d="M1509 558L8.4877e-05 558" stroke="#C6CBD3"/>
<path d="M1509 656L8.4877e-05 656" stroke="#C6CBD3"/>
<path d="M1509 754L8.4877e-05 754" stroke="#C6CBD3"/>
<path d="M1509 853L8.4877e-05 853" stroke="#C6CBD3"/>
<path d="M1509 951L8.4877e-05 951" stroke="#C6CBD3"/>
<path d="M1509 1049L8.4877e-05 1049" stroke="#C6CBD3"/>
<path d="M1509 1147L8.4877e-05 1147" stroke="#C6CBD3"/>
<path d="M1509 1246L8.4877e-05 1246" stroke="#C6CBD3"/>
<path d="M1509 1344L8.4877e-05 1344" stroke="#C6CBD3"/>
<path d="M1509 1442L8.4877e-05 1442" stroke="#C6CBD3"/>
<path d="M457 67V1475" stroke="#C6CBD3"/>
<path d="M261 67V1475" stroke="#C6CBD3"/>
<path d="M64 67V1475" stroke="#C6CBD3"/>
<path d="M653 67V1475" stroke="#C6CBD3"/>
<path d="M850 67V1475" stroke="#C6CBD3"/>
<path d="M1046 67V1475" stroke="#C6CBD3"/>
<path d="M1243 67V1475" stroke="#C6CBD3"/>
<path d="M1439 67V1475" stroke="#C6CBD3"/>
</g>
<path d="M348.147 5.1V19H345.867V9.48L341.627 19H340.047L335.787 9.48V19H333.507V5.1H335.967L340.847 16L345.707 5.1H348.147ZM355.923 19.18C354.883 19.18 353.943 18.9467 353.103 18.48C352.263 18 351.603 17.3333 351.123 16.48C350.643 15.6133 350.403 14.6133 350.403 13.48C350.403 12.36 350.65 11.3667 351.143 10.5C351.637 9.63333 352.31 8.96667 353.163 8.5C354.017 8.03333 354.97 7.8 356.023 7.8C357.077 7.8 358.03 8.03333 358.883 8.5C359.737 8.96667 360.41 9.63333 360.903 10.5C361.397 11.3667 361.643 12.36 361.643 13.48C361.643 14.6 361.39 15.5933 360.883 16.46C360.377 17.3267 359.683 18 358.803 18.48C357.937 18.9467 356.977 19.18 355.923 19.18ZM355.923 17.2C356.51 17.2 357.057 17.06 357.563 16.78C358.083 16.5 358.503 16.08 358.823 15.52C359.143 14.96 359.303 14.28 359.303 13.48C359.303 12.68 359.15 12.0067 358.843 11.46C358.537 10.9 358.13 10.48 357.623 10.2C357.117 9.92 356.57 9.78 355.983 9.78C355.397 9.78 354.85 9.92 354.343 10.2C353.85 10.48 353.457 10.9 353.163 11.46C352.87 12.0067 352.723 12.68 352.723 13.48C352.723 14.6667 353.023 15.5867 353.623 16.24C354.237 16.88 355.003 17.2 355.923 17.2ZM369.457 7.8C370.324 7.8 371.097 7.98 371.777 8.34C372.47 8.7 373.01 9.23333 373.397 9.94C373.784 10.6467 373.977 11.5 373.977 12.5V19H371.717V12.84C371.717 11.8533 371.47 11.1 370.977 10.58C370.484 10.0467 369.81 9.78 368.957 9.78C368.104 9.78 367.424 10.0467 366.917 10.58C366.424 11.1 366.177 11.8533 366.177 12.84V19H363.897V7.98H366.177V9.24C366.55 8.78667 367.024 8.43333 367.597 8.18C368.184 7.92667 368.804 7.8 369.457 7.8Z" fill="#9AA8BD"/>
<path d="M345.125 31.58V28.4H350.665V43H347.105V31.58H345.125ZM362.324 30.96L357.304 43H353.804L358.884 31.34H352.664V28.42H362.324V30.96Z" fill="#1E232A"/>
<path d="M142.571 19.14C141.637 19.14 140.797 18.98 140.051 18.66C139.304 18.3267 138.717 17.86 138.291 17.26C137.864 16.66 137.651 15.96 137.651 15.16H140.091C140.144 15.76 140.377 16.2533 140.791 16.64C141.217 17.0267 141.811 17.22 142.571 17.22C143.357 17.22 143.971 17.0333 144.411 16.66C144.851 16.2733 145.071 15.78 145.071 15.18C145.071 14.7133 144.931 14.3333 144.651 14.04C144.384 13.7467 144.044 13.52 143.631 13.36C143.231 13.2 142.671 13.0267 141.951 12.84C141.044 12.6 140.304 12.36 139.731 12.12C139.171 11.8667 138.691 11.48 138.291 10.96C137.891 10.44 137.691 9.74667 137.691 8.88C137.691 8.08 137.891 7.38 138.291 6.78C138.691 6.18 139.251 5.72 139.971 5.4C140.691 5.08 141.524 4.92 142.471 4.92C143.817 4.92 144.917 5.26 145.771 5.94C146.637 6.60667 147.117 7.52667 147.211 8.7H144.691C144.651 8.19333 144.411 7.76 143.971 7.4C143.531 7.04 142.951 6.86 142.231 6.86C141.577 6.86 141.044 7.02667 140.631 7.36C140.217 7.69333 140.011 8.17333 140.011 8.8C140.011 9.22667 140.137 9.58 140.391 9.86C140.657 10.1267 140.991 10.34 141.391 10.5C141.791 10.66 142.337 10.8333 143.031 11.02C143.951 11.2733 144.697 11.5267 145.271 11.78C145.857 12.0333 146.351 12.4267 146.751 12.96C147.164 13.48 147.371 14.18 147.371 15.06C147.371 15.7667 147.177 16.4333 146.791 17.06C146.417 17.6867 145.864 18.1933 145.131 18.58C144.411 18.9533 143.557 19.14 142.571 19.14ZM160.041 7.98V19H157.761V17.7C157.401 18.1533 156.928 18.5133 156.341 18.78C155.768 19.0333 155.154 19.16 154.501 19.16C153.634 19.16 152.854 18.98 152.161 18.62C151.481 18.26 150.941 17.7267 150.541 17.02C150.154 16.3133 149.961 15.46 149.961 14.46V7.98H152.221V14.12C152.221 15.1067 152.468 15.8667 152.961 16.4C153.454 16.92 154.128 17.18 154.981 17.18C155.834 17.18 156.508 16.92 157.001 16.4C157.508 15.8667 157.761 15.1067 157.761 14.12V7.98H160.041ZM168.609 7.8C169.476 7.8 170.249 7.98 170.929 8.34C171.623 8.7 172.163 9.23333 172.549 9.94C172.936 10.6467 173.129 11.5 173.129 12.5V19H170.869V12.84C170.869 11.8533 170.623 11.1 170.129 10.58C169.636 10.0467 168.963 9.78 168.109 9.78C167.256 9.78 166.576 10.0467 166.069 10.58C165.576 11.1 165.329 11.8533 165.329 12.84V19H163.049V7.98H165.329V9.24C165.703 8.78667 166.176 8.43333 166.749 8.18C167.336 7.92667 167.956 7.8 168.609 7.8Z" fill="#9AA8BD"/>
<path d="M145.927 31.58V28.4H151.467V43H147.907V31.58H145.927ZM161.027 32.34C160.92 31.8467 160.733 31.48 160.467 31.24C160.2 30.9867 159.82 30.86 159.327 30.86C158.567 30.86 158.02 31.1933 157.687 31.86C157.353 32.5133 157.18 33.5533 157.167 34.98C157.46 34.5133 157.88 34.1467 158.427 33.88C158.987 33.6133 159.6 33.48 160.267 33.48C161.573 33.48 162.62 33.8933 163.407 34.72C164.207 35.5467 164.607 36.7 164.607 38.18C164.607 39.1533 164.407 40.0067 164.007 40.74C163.62 41.4733 163.047 42.0467 162.287 42.46C161.54 42.8733 160.653 43.08 159.627 43.08C157.573 43.08 156.147 42.44 155.347 41.16C154.547 39.8667 154.147 38.0133 154.147 35.6C154.147 33.0667 154.567 31.1867 155.407 29.96C156.26 28.72 157.62 28.1 159.487 28.1C160.487 28.1 161.327 28.3 162.007 28.7C162.7 29.0867 163.22 29.6 163.567 30.24C163.927 30.88 164.14 31.58 164.207 32.34H161.027ZM159.447 36.18C158.873 36.18 158.393 36.3533 158.007 36.7C157.633 37.0333 157.447 37.5133 157.447 38.14C157.447 38.78 157.62 39.28 157.967 39.64C158.327 40 158.833 40.18 159.487 40.18C160.073 40.18 160.533 40.0067 160.867 39.66C161.213 39.3 161.387 38.8133 161.387 38.2C161.387 37.5733 161.22 37.08 160.887 36.72C160.553 36.36 160.073 36.18 159.447 36.18Z" fill="#1E232A"/>
<path d="M542.97 5.1V6.96H539.27V19H536.99V6.96H533.27V5.1H542.97ZM555.259 7.98V19H552.979V17.7C552.619 18.1533 552.145 18.5133 551.559 18.78C550.985 19.0333 550.372 19.16 549.719 19.16C548.852 19.16 548.072 18.98 547.379 18.62C546.699 18.26 546.159 17.7267 545.759 17.02C545.372 16.3133 545.179 15.46 545.179 14.46V7.98H547.439V14.12C547.439 15.1067 547.685 15.8667 548.179 16.4C548.672 16.92 549.345 17.18 550.199 17.18C551.052 17.18 551.725 16.92 552.219 16.4C552.725 15.8667 552.979 15.1067 552.979 14.12V7.98H555.259ZM568.367 13.22C568.367 13.6333 568.34 14.0067 568.287 14.34H559.867C559.934 15.22 560.26 15.9267 560.847 16.46C561.434 16.9933 562.154 17.26 563.007 17.26C564.234 17.26 565.1 16.7467 565.607 15.72H568.067C567.734 16.7333 567.127 17.5667 566.247 18.22C565.38 18.86 564.3 19.18 563.007 19.18C561.954 19.18 561.007 18.9467 560.167 18.48C559.34 18 558.687 17.3333 558.207 16.48C557.74 15.6133 557.507 14.6133 557.507 13.48C557.507 12.3467 557.734 11.3533 558.187 10.5C558.654 9.63333 559.3 8.96667 560.127 8.5C560.967 8.03333 561.927 7.8 563.007 7.8C564.047 7.8 564.974 8.02667 565.787 8.48C566.6 8.93333 567.234 9.57333 567.687 10.4C568.14 11.2133 568.367 12.1533 568.367 13.22ZM565.987 12.5C565.974 11.66 565.674 10.9867 565.087 10.48C564.5 9.97333 563.774 9.72 562.907 9.72C562.12 9.72 561.447 9.97333 560.887 10.48C560.327 10.9733 559.994 11.6467 559.887 12.5H565.987Z" fill="#9AA8BD"/>
<path d="M541.096 31.58V28.4H546.636V43H543.076V31.58H541.096ZM551.376 35.16C550.122 34.4933 549.496 33.4467 549.496 32.02C549.496 31.3 549.682 30.6467 550.056 30.06C550.429 29.46 550.996 28.9867 551.756 28.64C552.516 28.28 553.449 28.1 554.556 28.1C555.662 28.1 556.589 28.28 557.336 28.64C558.096 28.9867 558.662 29.46 559.036 30.06C559.409 30.6467 559.596 31.3 559.596 32.02C559.596 32.74 559.422 33.3667 559.076 33.9C558.742 34.4333 558.289 34.8533 557.716 35.16C558.436 35.5067 558.989 35.9867 559.376 36.6C559.762 37.2 559.956 37.9067 559.956 38.72C559.956 39.6667 559.716 40.4867 559.236 41.18C558.756 41.86 558.102 42.38 557.276 42.74C556.462 43.1 555.556 43.28 554.556 43.28C553.556 43.28 552.642 43.1 551.816 42.74C551.002 42.38 550.356 41.86 549.876 41.18C549.396 40.4867 549.156 39.6667 549.156 38.72C549.156 37.8933 549.349 37.18 549.736 36.58C550.122 35.9667 550.669 35.4933 551.376 35.16ZM556.276 32.54C556.276 31.9933 556.116 31.5733 555.796 31.28C555.489 30.9733 555.076 30.82 554.556 30.82C554.036 30.82 553.616 30.9733 553.296 31.28C552.989 31.5867 552.836 32.0133 552.836 32.56C552.836 33.08 552.996 33.4933 553.316 33.8C553.636 34.0933 554.049 34.24 554.556 34.24C555.062 34.24 555.476 34.0867 555.796 33.78C556.116 33.4733 556.276 33.06 556.276 32.54ZM554.556 36.64C553.929 36.64 553.422 36.8133 553.036 37.16C552.649 37.4933 552.456 37.96 552.456 38.56C552.456 39.12 552.642 39.58 553.016 39.94C553.402 40.3 553.916 40.48 554.556 40.48C555.196 40.48 555.696 40.3 556.056 39.94C556.429 39.58 556.616 39.12 556.616 38.56C556.616 37.9733 556.422 37.5067 556.036 37.16C555.662 36.8133 555.169 36.64 554.556 36.64Z" fill="#1E232A"/>
<path d="M743.099 5.1L738.979 19H736.399L733.479 8.48L730.379 19L727.819 19.02L723.879 5.1H726.299L729.179 16.42L732.299 5.1H734.859L737.759 16.36L740.659 5.1H743.099ZM755.079 13.22C755.079 13.6333 755.052 14.0067 754.999 14.34H746.579C746.646 15.22 746.972 15.9267 747.559 16.46C748.146 16.9933 748.866 17.26 749.719 17.26C750.946 17.26 751.812 16.7467 752.319 15.72H754.779C754.446 16.7333 753.839 17.5667 752.959 18.22C752.092 18.86 751.012 19.18 749.719 19.18C748.666 19.18 747.719 18.9467 746.879 18.48C746.052 18 745.399 17.3333 744.919 16.48C744.452 15.6133 744.219 14.6133 744.219 13.48C744.219 12.3467 744.446 11.3533 744.899 10.5C745.366 9.63333 746.012 8.96667 746.839 8.5C747.679 8.03333 748.639 7.8 749.719 7.8C750.759 7.8 751.686 8.02667 752.499 8.48C753.312 8.93333 753.946 9.57333 754.399 10.4C754.852 11.2133 755.079 12.1533 755.079 13.22ZM752.699 12.5C752.686 11.66 752.386 10.9867 751.799 10.48C751.212 9.97333 750.486 9.72 749.619 9.72C748.832 9.72 748.159 9.97333 747.599 10.48C747.039 10.9733 746.706 11.6467 746.599 12.5H752.699ZM756.563 13.44C756.563 12.3333 756.79 11.3533 757.243 10.5C757.71 9.64667 758.336 8.98667 759.123 8.52C759.923 8.04 760.81 7.8 761.783 7.8C762.503 7.8 763.21 7.96 763.903 8.28C764.61 8.58667 765.17 9 765.583 9.52V4.2H767.883V19H765.583V17.34C765.21 17.8733 764.69 18.3133 764.023 18.66C763.37 19.0067 762.616 19.18 761.763 19.18C760.803 19.18 759.923 18.94 759.123 18.46C758.336 17.9667 757.71 17.2867 757.243 16.42C756.79 15.54 756.563 14.5467 756.563 13.44ZM765.583 13.48C765.583 12.72 765.423 12.06 765.103 11.5C764.796 10.94 764.39 10.5133 763.883 10.22C763.376 9.92667 762.83 9.78 762.243 9.78C761.656 9.78 761.11 9.92667 760.603 10.22C760.096 10.5 759.683 10.92 759.363 11.48C759.056 12.0267 758.903 12.68 758.903 13.44C758.903 14.2 759.056 14.8667 759.363 15.44C759.683 16.0133 760.096 16.4533 760.603 16.76C761.123 17.0533 761.67 17.2 762.243 17.2C762.83 17.2 763.376 17.0533 763.883 16.76C764.39 16.4667 764.796 16.04 765.103 15.48C765.423 14.9067 765.583 14.24 765.583 13.48ZM737.066 31.58V28.4H742.606V43H739.046V31.58H737.066ZM748.626 38.72C748.826 39.7733 749.439 40.3 750.466 40.3C751.172 40.3 751.672 39.9867 751.966 39.36C752.259 38.7333 752.406 37.7133 752.406 36.3C752.112 36.7133 751.712 37.0333 751.206 37.26C750.699 37.4867 750.132 37.6 749.506 37.6C748.652 37.6 747.892 37.4267 747.226 37.08C746.559 36.72 746.032 36.1933 745.646 35.5C745.272 34.7933 745.086 33.94 745.086 32.94C745.086 31.9533 745.286 31.0933 745.686 30.36C746.099 29.6267 746.679 29.06 747.426 28.66C748.186 28.26 749.079 28.06 750.106 28.06C752.079 28.06 753.459 28.6733 754.246 29.9C755.032 31.1267 755.426 32.9333 755.426 35.32C755.426 37.0533 755.266 38.4867 754.946 39.62C754.639 40.74 754.112 41.5933 753.366 42.18C752.632 42.7667 751.626 43.06 750.346 43.06C749.332 43.06 748.466 42.86 747.746 42.46C747.039 42.06 746.492 41.5333 746.106 40.88C745.732 40.2267 745.519 39.5067 745.466 38.72H748.626ZM750.286 34.9C750.846 34.9 751.292 34.7333 751.626 34.4C751.959 34.0533 752.126 33.5867 752.126 33C752.126 32.36 751.952 31.8667 751.606 31.52C751.259 31.1733 750.792 31 750.206 31C749.619 31 749.152 31.18 748.806 31.54C748.472 31.8867 748.306 32.3667 748.306 32.98C748.306 33.5533 748.472 34.02 748.806 34.38C749.152 34.7267 749.646 34.9 750.286 34.9Z" fill="#FFCB12"/>
<path d="M930.324 5.1V6.96H926.624V19H924.344V6.96H920.624V5.1H930.324ZM938.333 7.8C939.173 7.8 939.919 7.98 940.573 8.34C941.239 8.7 941.759 9.23333 942.133 9.94C942.519 10.6467 942.713 11.5 942.713 12.5V19H940.453V12.84C940.453 11.8533 940.206 11.1 939.713 10.58C939.219 10.0467 938.546 9.78 937.693 9.78C936.839 9.78 936.159 10.0467 935.653 10.58C935.159 11.1 934.913 11.8533 934.913 12.84V19H932.633V4.2H934.913V9.26C935.299 8.79333 935.786 8.43333 936.373 8.18C936.973 7.92667 937.626 7.8 938.333 7.8ZM955.601 7.98V19H953.321V17.7C952.961 18.1533 952.488 18.5133 951.901 18.78C951.328 19.0333 950.714 19.16 950.061 19.16C949.194 19.16 948.414 18.98 947.721 18.62C947.041 18.26 946.501 17.7267 946.101 17.02C945.714 16.3133 945.521 15.46 945.521 14.46V7.98H947.781V14.12C947.781 15.1067 948.028 15.8667 948.521 16.4C949.014 16.92 949.688 17.18 950.541 17.18C951.394 17.18 952.068 16.92 952.561 16.4C953.068 15.8667 953.321 15.1067 953.321 14.12V7.98H955.601Z" fill="#9AA8BD"/>
<path d="M927.02 40.26C927.474 39.9 927.68 39.7333 927.64 39.76C928.947 38.68 929.974 37.7933 930.72 37.1C931.48 36.4067 932.12 35.68 932.64 34.92C933.16 34.16 933.42 33.42 933.42 32.7C933.42 32.1533 933.294 31.7267 933.04 31.42C932.787 31.1133 932.407 30.96 931.9 30.96C931.394 30.96 930.994 31.1533 930.7 31.54C930.42 31.9133 930.28 32.4467 930.28 33.14H926.98C927.007 32.0067 927.247 31.06 927.7 30.3C928.167 29.54 928.774 28.98 929.52 28.62C930.28 28.26 931.12 28.08 932.04 28.08C933.627 28.08 934.82 28.4867 935.62 29.3C936.434 30.1133 936.84 31.1733 936.84 32.48C936.84 33.9067 936.354 35.2333 935.38 36.46C934.407 37.6733 933.167 38.86 931.66 40.02H937.06V42.8H927.02V40.26ZM938.566 35.5C938.566 33.2067 939.006 31.4 939.886 30.08C940.779 28.76 942.213 28.1 944.186 28.1C946.159 28.1 947.586 28.76 948.466 30.08C949.359 31.4 949.806 33.2067 949.806 35.5C949.806 37.82 949.359 39.64 948.466 40.96C947.586 42.28 946.159 42.94 944.186 42.94C942.213 42.94 940.779 42.28 939.886 40.96C939.006 39.64 938.566 37.82 938.566 35.5ZM946.446 35.5C946.446 34.1533 946.299 33.12 946.006 32.4C945.713 31.6667 945.106 31.3 944.186 31.3C943.266 31.3 942.659 31.6667 942.366 32.4C942.073 33.12 941.926 34.1533 941.926 35.5C941.926 36.4067 941.979 37.16 942.086 37.76C942.193 38.3467 942.406 38.8267 942.726 39.2C943.059 39.56 943.546 39.74 944.186 39.74C944.826 39.74 945.306 39.56 945.626 39.2C945.959 38.8267 946.179 38.3467 946.286 37.76C946.393 37.16 946.446 36.4067 946.446 35.5Z" fill="#1E232A"/>
<path d="M1136.17 5.1V6.96H1130.27V11.06H1134.87V12.92H1130.27V19H1127.99V5.1H1136.17ZM1140.57 9.58C1140.9 9.02 1141.34 8.58667 1141.89 8.28C1142.45 7.96 1143.11 7.8 1143.87 7.8V10.16H1143.29C1142.39 10.16 1141.71 10.3867 1141.25 10.84C1140.79 11.2933 1140.57 12.08 1140.57 13.2V19H1138.29V7.98H1140.57V9.58ZM1147.12 6.52C1146.71 6.52 1146.36 6.38 1146.08 6.1C1145.8 5.82 1145.66 5.47333 1145.66 5.06C1145.66 4.64667 1145.8 4.3 1146.08 4.02C1146.36 3.74 1146.71 3.6 1147.12 3.6C1147.52 3.6 1147.86 3.74 1148.14 4.02C1148.42 4.3 1148.56 4.64667 1148.56 5.06C1148.56 5.47333 1148.42 5.82 1148.14 6.1C1147.86 6.38 1147.52 6.52 1147.12 6.52ZM1148.24 7.98V19H1145.96V7.98H1148.24Z" fill="#9AA8BD"/>
<path d="M1129.42 40.26C1129.88 39.9 1130.08 39.7333 1130.04 39.76C1131.35 38.68 1132.38 37.7933 1133.12 37.1C1133.88 36.4067 1134.52 35.68 1135.04 34.92C1135.56 34.16 1135.82 33.42 1135.82 32.7C1135.82 32.1533 1135.7 31.7267 1135.44 31.42C1135.19 31.1133 1134.81 30.96 1134.3 30.96C1133.8 30.96 1133.4 31.1533 1133.1 31.54C1132.82 31.9133 1132.68 32.4467 1132.68 33.14H1129.38C1129.41 32.0067 1129.65 31.06 1130.1 30.3C1130.57 29.54 1131.18 28.98 1131.92 28.62C1132.68 28.26 1133.52 28.08 1134.44 28.08C1136.03 28.08 1137.22 28.4867 1138.02 29.3C1138.84 30.1133 1139.24 31.1733 1139.24 32.48C1139.24 33.9067 1138.76 35.2333 1137.78 36.46C1136.81 37.6733 1135.57 38.86 1134.06 40.02H1139.46V42.8H1129.42V40.26ZM1140.61 31.58V28.4H1146.15V43H1142.59V31.58H1140.61Z" fill="#1E232A"/>
<path d="M1317.1 19.14C1316.17 19.14 1315.33 18.98 1314.58 18.66C1313.83 18.3267 1313.25 17.86 1312.82 17.26C1312.39 16.66 1312.18 15.96 1312.18 15.16H1314.62C1314.67 15.76 1314.91 16.2533 1315.32 16.64C1315.75 17.0267 1316.34 17.22 1317.1 17.22C1317.89 17.22 1318.5 17.0333 1318.94 16.66C1319.38 16.2733 1319.6 15.78 1319.6 15.18C1319.6 14.7133 1319.46 14.3333 1319.18 14.04C1318.91 13.7467 1318.57 13.52 1318.16 13.36C1317.76 13.2 1317.2 13.0267 1316.48 12.84C1315.57 12.6 1314.83 12.36 1314.26 12.12C1313.7 11.8667 1313.22 11.48 1312.82 10.96C1312.42 10.44 1312.22 9.74667 1312.22 8.88C1312.22 8.08 1312.42 7.38 1312.82 6.78C1313.22 6.18 1313.78 5.72 1314.5 5.4C1315.22 5.08 1316.05 4.92 1317 4.92C1318.35 4.92 1319.45 5.26 1320.3 5.94C1321.17 6.60667 1321.65 7.52667 1321.74 8.7H1319.22C1319.18 8.19333 1318.94 7.76 1318.5 7.4C1318.06 7.04 1317.48 6.86 1316.76 6.86C1316.11 6.86 1315.57 7.02667 1315.16 7.36C1314.75 7.69333 1314.54 8.17333 1314.54 8.8C1314.54 9.22667 1314.67 9.58 1314.92 9.86C1315.19 10.1267 1315.52 10.34 1315.92 10.5C1316.32 10.66 1316.87 10.8333 1317.56 11.02C1318.48 11.2733 1319.23 11.5267 1319.8 11.78C1320.39 12.0333 1320.88 12.4267 1321.28 12.96C1321.69 13.48 1321.9 14.18 1321.9 15.06C1321.9 15.7667 1321.71 16.4333 1321.32 17.06C1320.95 17.6867 1320.39 18.1933 1319.66 18.58C1318.94 18.9533 1318.09 19.14 1317.1 19.14ZM1323.83 13.44C1323.83 12.3333 1324.06 11.3533 1324.51 10.5C1324.98 9.64667 1325.6 8.98667 1326.39 8.52C1327.19 8.04 1328.07 7.8 1329.03 7.8C1329.9 7.8 1330.65 7.97333 1331.29 8.32C1331.94 8.65333 1332.46 9.07333 1332.85 9.58V7.98H1335.15V19H1332.85V17.36C1332.46 17.88 1331.94 18.3133 1331.27 18.66C1330.6 19.0067 1329.84 19.18 1328.99 19.18C1328.04 19.18 1327.18 18.94 1326.39 18.46C1325.6 17.9667 1324.98 17.2867 1324.51 16.42C1324.06 15.54 1323.83 14.5467 1323.83 13.44ZM1332.85 13.48C1332.85 12.72 1332.69 12.06 1332.37 11.5C1332.06 10.94 1331.66 10.5133 1331.15 10.22C1330.64 9.92667 1330.1 9.78 1329.51 9.78C1328.92 9.78 1328.38 9.92667 1327.87 10.22C1327.36 10.5 1326.95 10.92 1326.63 11.48C1326.32 12.0267 1326.17 12.68 1326.17 13.44C1326.17 14.2 1326.32 14.8667 1326.63 15.44C1326.95 16.0133 1327.36 16.4533 1327.87 16.76C1328.39 17.0533 1328.94 17.2 1329.51 17.2C1330.1 17.2 1330.64 17.0533 1331.15 16.76C1331.66 16.4667 1332.06 16.04 1332.37 15.48C1332.69 14.9067 1332.85 14.24 1332.85 13.48ZM1340.81 9.84V15.94C1340.81 16.3533 1340.9 16.6533 1341.09 16.84C1341.29 17.0133 1341.62 17.1 1342.09 17.1H1343.49V19H1341.69C1340.66 19 1339.87 18.76 1339.33 18.28C1338.78 17.8 1338.51 17.02 1338.51 15.94V9.84H1337.21V7.98H1338.51V5.24H1340.81V7.98H1343.49V9.84H1340.81Z" fill="#9AA8BD"/>
<path d="M1316.91 40.26C1317.36 39.9 1317.57 39.7333 1317.53 39.76C1318.83 38.68 1319.86 37.7933 1320.61 37.1C1321.37 36.4067 1322.01 35.68 1322.53 34.92C1323.05 34.16 1323.31 33.42 1323.31 32.7C1323.31 32.1533 1323.18 31.7267 1322.93 31.42C1322.67 31.1133 1322.29 30.96 1321.79 30.96C1321.28 30.96 1320.88 31.1533 1320.59 31.54C1320.31 31.9133 1320.17 32.4467 1320.17 33.14H1316.87C1316.89 32.0067 1317.13 31.06 1317.59 30.3C1318.05 29.54 1318.66 28.98 1319.41 28.62C1320.17 28.26 1321.01 28.08 1321.93 28.08C1323.51 28.08 1324.71 28.4867 1325.51 29.3C1326.32 30.1133 1326.73 31.1733 1326.73 32.48C1326.73 33.9067 1326.24 35.2333 1325.27 36.46C1324.29 37.6733 1323.05 38.86 1321.55 40.02H1326.95V42.8H1316.91V40.26ZM1328.33 40.26C1328.79 39.9 1328.99 39.7333 1328.95 39.76C1330.26 38.68 1331.29 37.7933 1332.03 37.1C1332.79 36.4067 1333.43 35.68 1333.95 34.92C1334.47 34.16 1334.73 33.42 1334.73 32.7C1334.73 32.1533 1334.61 31.7267 1334.35 31.42C1334.1 31.1133 1333.72 30.96 1333.21 30.96C1332.71 30.96 1332.31 31.1533 1332.01 31.54C1331.73 31.9133 1331.59 32.4467 1331.59 33.14H1328.29C1328.32 32.0067 1328.56 31.06 1329.01 30.3C1329.48 29.54 1330.09 28.98 1330.83 28.62C1331.59 28.26 1332.43 28.08 1333.35 28.08C1334.94 28.08 1336.13 28.4867 1336.93 29.3C1337.75 30.1133 1338.15 31.1733 1338.15 32.48C1338.15 33.9067 1337.67 35.2333 1336.69 36.46C1335.72 37.6733 1334.48 38.86 1332.97 40.02H1338.37V42.8H1328.33V40.26Z" fill="#1E232A"/>
<defs>
<linearGradient id="paint0_linear_103_39" x1="751" y1="1475" x2="751" y2="111" gradientUnits="userSpaceOnUse">
<stop stop-color="#7DB1FF"/>
<stop offset="1" stop-color="#7DB1FF" stop-opacity="0"/>
</linearGradient>
</defs>
</svg>
