<svg width="37" height="36" viewBox="0 0 37 36" fill="none" xmlns="http://www.w3.org/2000/svg">
<rect width="36.4716" height="36" rx="8" transform="matrix(-1 0 0 1 36.7336 0)" fill="#E8EFF6"/>
<path d="M12.646 14.558V17.414H16.006V18.716H12.646V21.698H16.426V23H11.05V13.256H16.426V14.558H12.646ZM17.8598 18.114C17.8598 17.162 18.0791 16.308 18.5178 15.552C18.9658 14.796 19.5678 14.208 20.3238 13.788C21.0891 13.3587 21.9245 13.144 22.8298 13.144C23.8658 13.144 24.7851 13.4007 25.5878 13.914C26.3998 14.418 26.9878 15.1367 27.3518 16.07H25.4338C25.1818 15.5567 24.8318 15.174 24.3838 14.922C23.9358 14.67 23.4178 14.544 22.8298 14.544C22.1858 14.544 21.6118 14.6887 21.1078 14.978C20.6038 15.2673 20.2071 15.6827 19.9178 16.224C19.6378 16.7653 19.4978 17.3953 19.4978 18.114C19.4978 18.8327 19.6378 19.4627 19.9178 20.004C20.2071 20.5453 20.6038 20.9653 21.1078 21.264C21.6118 21.5533 22.1858 21.698 22.8298 21.698C23.4178 21.698 23.9358 21.572 24.3838 21.32C24.8318 21.068 25.1818 20.6853 25.4338 20.172H27.3518C26.9878 21.1053 26.3998 21.824 25.5878 22.328C24.7851 22.832 23.8658 23.084 22.8298 23.084C21.9151 23.084 21.0798 22.874 20.3238 22.454C19.5678 22.0247 18.9658 21.432 18.5178 20.676C18.0791 19.92 17.8598 19.066 17.8598 18.114Z" fill="#272835"/>
</svg>
