<svg width="37" height="36" viewBox="0 0 37 36" fill="none" xmlns="http://www.w3.org/2000/svg">
<rect width="36.4716" height="36" rx="8" transform="matrix(-1 0 0 1 36.7336 0)" fill="#E8EFF6"/>
<path d="M7.518 18.114C7.518 17.162 7.73733 16.308 8.176 15.552C8.624 14.796 9.226 14.208 9.982 13.788C10.7473 13.3587 11.5827 13.144 12.488 13.144C13.524 13.144 14.4433 13.4007 15.246 13.914C16.058 14.418 16.646 15.1367 17.01 16.07H15.092C14.84 15.5567 14.49 15.174 14.042 14.922C13.594 14.67 13.076 14.544 12.488 14.544C11.844 14.544 11.27 14.6887 10.766 14.978C10.262 15.2673 9.86533 15.6827 9.576 16.224C9.296 16.7653 9.156 17.3953 9.156 18.114C9.156 18.8327 9.296 19.4627 9.576 20.004C9.86533 20.5453 10.262 20.9653 10.766 21.264C11.27 21.5533 11.844 21.698 12.488 21.698C13.076 21.698 13.594 21.572 14.042 21.32C14.49 21.068 14.84 20.6853 15.092 20.172H17.01C16.646 21.1053 16.058 21.824 15.246 22.328C14.4433 22.832 13.524 23.084 12.488 23.084C11.5733 23.084 10.738 22.874 9.982 22.454C9.226 22.0247 8.624 21.432 8.176 20.676C7.73733 19.92 7.518 19.066 7.518 18.114ZM29.1261 13.27V23H27.5301V16.336L24.5621 23H23.4561L20.4741 16.336V23H18.8781V13.27H20.6001L24.0161 20.9L27.4181 13.27H29.1261Z" fill="#272835"/>
</svg>
