<svg width="37" height="36" viewBox="0 0 37 36" fill="none" xmlns="http://www.w3.org/2000/svg">
<rect width="36.4716" height="36" rx="8" transform="matrix(-1 0 0 1 36.4716 0)" fill="#E8EFF6"/>
<path d="M14.916 21.012H10.842L10.142 23H8.476L11.962 13.256H13.81L17.296 23H15.616L14.916 21.012ZM14.468 19.71L12.886 15.188L11.29 19.71H14.468ZM25.8537 16.07C25.6017 15.5847 25.2517 15.2207 24.8037 14.978C24.3557 14.726 23.8377 14.6 23.2497 14.6C22.6057 14.6 22.0317 14.7447 21.5277 15.034C21.0237 15.3233 20.6271 15.734 20.3377 16.266C20.0577 16.798 19.9177 17.414 19.9177 18.114C19.9177 18.814 20.0577 19.4347 20.3377 19.976C20.6271 20.508 21.0237 20.9187 21.5277 21.208C22.0317 21.4973 22.6057 21.642 23.2497 21.642C24.1177 21.642 24.8224 21.3993 25.3637 20.914C25.9051 20.4287 26.2364 19.7707 26.3577 18.94H22.7037V17.666H28.0657V18.912C27.9631 19.668 27.6924 20.3633 27.2537 20.998C26.8244 21.6327 26.2597 22.1413 25.5597 22.524C24.8691 22.8973 24.0991 23.084 23.2497 23.084C22.3351 23.084 21.4997 22.874 20.7437 22.454C19.9877 22.0247 19.3857 21.432 18.9377 20.676C18.4991 19.92 18.2797 19.066 18.2797 18.114C18.2797 17.162 18.4991 16.308 18.9377 15.552C19.3857 14.796 19.9877 14.208 20.7437 13.788C21.5091 13.3587 22.3444 13.144 23.2497 13.144C24.2857 13.144 25.2051 13.4007 26.0077 13.914C26.8197 14.418 27.4077 15.1367 27.7717 16.07H25.8537Z" fill="#272835"/>
</svg>
