<svg width="1432" height="37" viewBox="0 0 1432 37" fill="none" xmlns="http://www.w3.org/2000/svg">
<rect x="132.76" y="21.5652" width="2" height="1300" transform="rotate(-90 132.76 21.5652)" fill="#EB5353"/>
<rect x="124.972" y="24.5652" width="8" height="11.5754" rx="4" transform="rotate(-90 124.972 24.5652)" fill="#EB5353"/>
<path d="M0.165649 18.8299C0.146301 8.94611 8.14306 0.925046 18.0269 0.914409L97.9884 0.828347C107.872 0.817709 115.9 8.82153 115.92 18.7054V18.7054C115.939 28.5892 107.942 36.6103 98.0585 36.6209L58.0777 36.6639L18.097 36.707C8.21313 36.7176 0.184998 28.7138 0.165649 18.8299V18.8299Z" fill="#EB5353" fill-opacity="0.1"/>
<path d="M41.9547 11.8435L41.9817 24.6843L39.8635 24.6864L39.8418 14.3593L36.7064 15.4259L36.7027 13.6769L41.6998 11.8437L41.9547 11.8435ZM55.0035 22.9837L55.0071 24.6712L46.4289 24.6798L46.4259 23.2296L50.5824 18.6815C51.0383 18.1654 51.3977 17.7198 51.6606 17.3445C51.9235 16.9692 52.1074 16.6321 52.2122 16.3332C52.3229 16.0284 52.3779 15.7324 52.3773 15.4453C52.3765 15.041 52.2996 14.6866 52.1466 14.3821C51.9994 14.0717 51.7821 13.8287 51.4947 13.6533C51.2072 13.4719 50.8583 13.3814 50.4482 13.3818C49.9736 13.3823 49.5754 13.4853 49.2535 13.6907C48.9317 13.8961 48.6891 14.1805 48.5258 14.5439C48.3625 14.9015 48.2813 15.3117 48.2823 15.7746L46.1641 15.7768C46.1626 15.0326 46.3311 14.3528 46.6696 13.7372C47.0082 13.1158 47.4993 12.6231 48.1431 12.2592C48.7868 11.8894 49.5628 11.704 50.471 11.7031C51.3265 11.7022 52.0534 11.8451 52.6516 12.1316C53.2499 12.4181 53.7048 12.8249 54.0165 13.3519C54.334 13.8789 54.4935 14.5028 54.495 15.2235C54.4959 15.6219 54.4322 16.0175 54.3042 16.4102C54.1761 16.8029 53.9923 17.1957 53.7529 17.5885C53.5194 17.9754 53.2419 18.3654 52.9204 18.7583C52.599 19.1453 52.2453 19.5382 51.8594 19.9371L49.0973 22.9896L55.0035 22.9837ZM56.8066 23.6147C56.8059 23.2866 56.9167 23.0111 57.1389 22.7882C57.361 22.5595 57.6625 22.4449 58.0434 22.4445C58.4301 22.4441 58.7321 22.5581 58.9494 22.7864C59.1725 23.0088 59.2844 23.2841 59.2851 23.6122C59.2858 23.9404 59.1751 24.2159 58.9529 24.4387C58.7365 24.6616 58.435 24.7732 58.0483 24.7736C57.6674 24.774 57.3654 24.663 57.1423 24.4406C56.9192 24.2181 56.8073 23.9428 56.8066 23.6147ZM56.7997 16.1264C56.799 15.7983 56.9097 15.5228 57.1319 15.2999C57.3541 15.0712 57.6556 14.9566 58.0365 14.9563C58.4232 14.9559 58.7252 15.0698 58.9425 15.2981C59.1656 15.5206 59.2775 15.7958 59.2782 16.124C59.2789 16.4521 59.1681 16.7276 58.9459 16.9505C58.7296 17.1733 58.4281 17.285 58.0414 17.2854C57.6605 17.2857 57.3585 17.1747 57.1354 16.9523C56.9123 16.7298 56.8004 16.4546 56.7997 16.1264ZM67.1617 11.8182L67.1887 24.659L65.0705 24.6611L65.0488 14.334L61.9134 15.4006L61.9097 13.6516L66.9068 11.8185L67.1617 11.8182ZM80.1081 11.8492L80.1105 13.0093L75.0197 24.6511L72.7873 24.6534L77.8704 13.5389L71.2435 13.5455L71.2399 11.8581L80.1081 11.8492Z" fill="#EB5353"/>
</svg>
