<svg width="472" height="64" viewBox="0 0 472 64" fill="none" xmlns="http://www.w3.org/2000/svg">
<rect width="468" height="64" rx="32" fill="#9CD9D5"/>
<g opacity="0.8" filter="url(#filter0_f_1_33)">
<ellipse cx="447" cy="35" rx="9" ry="9" fill="#158B87"/>
</g>
<ellipse cx="444" cy="32" rx="12" ry="12" transform="rotate(-180 444 32)" fill="#9CD9D5"/>
<path d="M442.063 27.3333L446.73 32L442.063 36.6667" stroke="white" stroke-width="2" stroke-linecap="round" stroke-linejoin="round"/>
<path d="M90.432 27.49V29.164H87.102V40H85.05V29.164H81.702V27.49H90.432ZM101.6 34.798C101.6 35.17 101.576 35.506 101.528 35.806H93.9502C94.0102 36.598 94.3042 37.234 94.8322 37.714C95.3602 38.194 96.0082 38.434 96.7762 38.434C97.8802 38.434 98.6602 37.972 99.1162 37.048H101.33C101.03 37.96 100.484 38.71 99.6922 39.298C98.9122 39.874 97.9402 40.162 96.7762 40.162C95.8282 40.162 94.9762 39.952 94.2202 39.532C93.4762 39.1 92.8882 38.5 92.4562 37.732C92.0362 36.952 91.8262 36.052 91.8262 35.032C91.8262 34.012 92.0302 33.118 92.4382 32.35C92.8582 31.57 93.4402 30.97 94.1842 30.55C94.9402 30.13 95.8042 29.92 96.7762 29.92C97.7122 29.92 98.5462 30.124 99.2782 30.532C100.01 30.94 100.58 31.516 100.988 32.26C101.396 32.992 101.6 33.838 101.6 34.798ZM99.4582 34.15C99.4462 33.394 99.1762 32.788 98.6482 32.332C98.1202 31.876 97.4662 31.648 96.6862 31.648C95.9782 31.648 95.3722 31.876 94.8682 32.332C94.3642 32.776 94.0642 33.382 93.9682 34.15H99.4582ZM102.936 34.996C102.936 34 103.14 33.118 103.548 32.35C103.968 31.582 104.532 30.988 105.24 30.568C105.96 30.136 106.752 29.92 107.616 29.92C108.396 29.92 109.074 30.076 109.65 30.388C110.238 30.688 110.706 31.066 111.054 31.522V30.082H113.124V40H111.054V38.524C110.706 38.992 110.232 39.382 109.632 39.694C109.032 40.006 108.348 40.162 107.58 40.162C106.728 40.162 105.948 39.946 105.24 39.514C104.532 39.07 103.968 38.458 103.548 37.678C103.14 36.886 102.936 35.992 102.936 34.996ZM111.054 35.032C111.054 34.348 110.91 33.754 110.622 33.25C110.346 32.746 109.98 32.362 109.524 32.098C109.068 31.834 108.576 31.702 108.048 31.702C107.52 31.702 107.028 31.834 106.572 32.098C106.116 32.35 105.744 32.728 105.456 33.232C105.18 33.724 105.042 34.312 105.042 34.996C105.042 35.68 105.18 36.28 105.456 36.796C105.744 37.312 106.116 37.708 106.572 37.984C107.04 38.248 107.532 38.38 108.048 38.38C108.576 38.38 109.068 38.248 109.524 37.984C109.98 37.72 110.346 37.336 110.622 36.832C110.91 36.316 111.054 35.716 111.054 35.032ZM115.135 35.032C115.135 34.012 115.339 33.118 115.747 32.35C116.167 31.57 116.743 30.97 117.475 30.55C118.207 30.13 119.047 29.92 119.995 29.92C121.195 29.92 122.185 30.208 122.965 30.784C123.757 31.348 124.291 32.158 124.567 33.214H122.353C122.173 32.722 121.885 32.338 121.489 32.062C121.093 31.786 120.595 31.648 119.995 31.648C119.155 31.648 118.483 31.948 117.979 32.548C117.487 33.136 117.241 33.964 117.241 35.032C117.241 36.1 117.487 36.934 117.979 37.534C118.483 38.134 119.155 38.434 119.995 38.434C121.183 38.434 121.969 37.912 122.353 36.868H124.567C124.279 37.876 123.739 38.68 122.947 39.28C122.155 39.868 121.171 40.162 119.995 40.162C119.047 40.162 118.207 39.952 117.475 39.532C116.743 39.1 116.167 38.5 115.747 37.732C115.339 36.952 115.135 36.052 115.135 35.032ZM131.742 29.92C132.498 29.92 133.17 30.082 133.758 30.406C134.358 30.73 134.826 31.21 135.162 31.846C135.51 32.482 135.684 33.25 135.684 34.15V40H133.65V34.456C133.65 33.568 133.428 32.89 132.984 32.422C132.54 31.942 131.934 31.702 131.166 31.702C130.398 31.702 129.786 31.942 129.33 32.422C128.886 32.89 128.664 33.568 128.664 34.456V40H126.612V26.68H128.664V31.234C129.012 30.814 129.45 30.49 129.978 30.262C130.518 30.034 131.106 29.92 131.742 29.92ZM147.391 34.798C147.391 35.17 147.367 35.506 147.319 35.806H139.741C139.801 36.598 140.095 37.234 140.623 37.714C141.151 38.194 141.799 38.434 142.567 38.434C143.671 38.434 144.451 37.972 144.907 37.048H147.121C146.821 37.96 146.275 38.71 145.483 39.298C144.703 39.874 143.731 40.162 142.567 40.162C141.619 40.162 140.767 39.952 140.011 39.532C139.267 39.1 138.679 38.5 138.247 37.732C137.827 36.952 137.617 36.052 137.617 35.032C137.617 34.012 137.821 33.118 138.229 32.35C138.649 31.57 139.231 30.97 139.975 30.55C140.731 30.13 141.595 29.92 142.567 29.92C143.503 29.92 144.337 30.124 145.069 30.532C145.801 30.94 146.371 31.516 146.779 32.26C147.187 32.992 147.391 33.838 147.391 34.798ZM145.249 34.15C145.237 33.394 144.967 32.788 144.439 32.332C143.911 31.876 143.257 31.648 142.477 31.648C141.769 31.648 141.163 31.876 140.659 32.332C140.155 32.776 139.855 33.382 139.759 34.15H145.249ZM151.463 31.522C151.763 31.018 152.159 30.628 152.651 30.352C153.155 30.064 153.749 29.92 154.433 29.92V32.044H153.911C153.107 32.044 152.495 32.248 152.075 32.656C151.667 33.064 151.463 33.772 151.463 34.78V40H149.411V30.082H151.463V31.522ZM168.537 37.444H163.299L162.399 40H160.257L164.739 27.472H167.115L171.597 40H169.437L168.537 37.444ZM167.961 35.77L165.927 29.956L163.875 35.77H167.961ZM177.145 40.162C176.365 40.162 175.663 40.024 175.039 39.748C174.427 39.46 173.941 39.076 173.581 38.596C173.221 38.104 173.029 37.558 173.005 36.958H175.129C175.165 37.378 175.363 37.732 175.723 38.02C176.095 38.296 176.557 38.434 177.109 38.434C177.685 38.434 178.129 38.326 178.441 38.11C178.765 37.882 178.927 37.594 178.927 37.246C178.927 36.874 178.747 36.598 178.387 36.418C178.039 36.238 177.481 36.04 176.713 35.824C175.969 35.62 175.363 35.422 174.895 35.23C174.427 35.038 174.019 34.744 173.671 34.348C173.335 33.952 173.167 33.43 173.167 32.782C173.167 32.254 173.323 31.774 173.635 31.342C173.947 30.898 174.391 30.55 174.967 30.298C175.555 30.046 176.227 29.92 176.983 29.92C178.111 29.92 179.017 30.208 179.701 30.784C180.397 31.348 180.769 32.122 180.817 33.106H178.765C178.729 32.662 178.549 32.308 178.225 32.044C177.901 31.78 177.463 31.648 176.911 31.648C176.371 31.648 175.957 31.75 175.669 31.954C175.381 32.158 175.237 32.428 175.237 32.764C175.237 33.028 175.333 33.25 175.525 33.43C175.717 33.61 175.951 33.754 176.227 33.862C176.503 33.958 176.911 34.084 177.451 34.24C178.171 34.432 178.759 34.63 179.215 34.834C179.683 35.026 180.085 35.314 180.421 35.698C180.757 36.082 180.931 36.592 180.943 37.228C180.943 37.792 180.787 38.296 180.475 38.74C180.163 39.184 179.719 39.532 179.143 39.784C178.579 40.036 177.913 40.162 177.145 40.162ZM186.761 40.162C185.981 40.162 185.279 40.024 184.655 39.748C184.043 39.46 183.557 39.076 183.197 38.596C182.837 38.104 182.645 37.558 182.621 36.958H184.745C184.781 37.378 184.979 37.732 185.339 38.02C185.711 38.296 186.173 38.434 186.725 38.434C187.301 38.434 187.745 38.326 188.057 38.11C188.381 37.882 188.543 37.594 188.543 37.246C188.543 36.874 188.363 36.598 188.003 36.418C187.655 36.238 187.097 36.04 186.329 35.824C185.585 35.62 184.979 35.422 184.511 35.23C184.043 35.038 183.635 34.744 183.287 34.348C182.951 33.952 182.783 33.43 182.783 32.782C182.783 32.254 182.939 31.774 183.251 31.342C183.563 30.898 184.007 30.55 184.583 30.298C185.171 30.046 185.843 29.92 186.599 29.92C187.727 29.92 188.633 30.208 189.317 30.784C190.013 31.348 190.385 32.122 190.433 33.106H188.381C188.345 32.662 188.165 32.308 187.841 32.044C187.517 31.78 187.079 31.648 186.527 31.648C185.987 31.648 185.573 31.75 185.285 31.954C184.997 32.158 184.853 32.428 184.853 32.764C184.853 33.028 184.949 33.25 185.141 33.43C185.333 33.61 185.567 33.754 185.843 33.862C186.119 33.958 186.527 34.084 187.067 34.24C187.787 34.432 188.375 34.63 188.831 34.834C189.299 35.026 189.701 35.314 190.037 35.698C190.373 36.082 190.547 36.592 190.559 37.228C190.559 37.792 190.403 38.296 190.091 38.74C189.779 39.184 189.335 39.532 188.759 39.784C188.195 40.036 187.529 40.162 186.761 40.162ZM201.866 34.798C201.866 35.17 201.842 35.506 201.794 35.806H194.216C194.276 36.598 194.57 37.234 195.098 37.714C195.626 38.194 196.274 38.434 197.042 38.434C198.146 38.434 198.926 37.972 199.382 37.048H201.596C201.296 37.96 200.75 38.71 199.958 39.298C199.178 39.874 198.206 40.162 197.042 40.162C196.094 40.162 195.242 39.952 194.486 39.532C193.742 39.1 193.154 38.5 192.722 37.732C192.302 36.952 192.092 36.052 192.092 35.032C192.092 34.012 192.296 33.118 192.704 32.35C193.124 31.57 193.706 30.97 194.45 30.55C195.206 30.13 196.07 29.92 197.042 29.92C197.978 29.92 198.812 30.124 199.544 30.532C200.276 30.94 200.846 31.516 201.254 32.26C201.662 32.992 201.866 33.838 201.866 34.798ZM199.724 34.15C199.712 33.394 199.442 32.788 198.914 32.332C198.386 31.876 197.732 31.648 196.952 31.648C196.244 31.648 195.638 31.876 195.134 32.332C194.63 32.776 194.33 33.382 194.234 34.15H199.724ZM215.891 29.92C216.671 29.92 217.367 30.082 217.979 30.406C218.603 30.73 219.089 31.21 219.437 31.846C219.797 32.482 219.977 33.25 219.977 34.15V40H217.943V34.456C217.943 33.568 217.721 32.89 217.277 32.422C216.833 31.942 216.227 31.702 215.459 31.702C214.691 31.702 214.079 31.942 213.623 32.422C213.179 32.89 212.957 33.568 212.957 34.456V40H210.923V34.456C210.923 33.568 210.701 32.89 210.257 32.422C209.813 31.942 209.207 31.702 208.439 31.702C207.671 31.702 207.059 31.942 206.603 32.422C206.159 32.89 205.937 33.568 205.937 34.456V40H203.885V30.082H205.937V31.216C206.273 30.808 206.699 30.49 207.215 30.262C207.731 30.034 208.283 29.92 208.871 29.92C209.663 29.92 210.371 30.088 210.995 30.424C211.619 30.76 212.099 31.246 212.435 31.882C212.735 31.282 213.203 30.808 213.839 30.46C214.475 30.1 215.159 29.92 215.891 29.92ZM224.64 31.558C224.988 31.078 225.462 30.688 226.062 30.388C226.674 30.076 227.352 29.92 228.096 29.92C228.972 29.92 229.764 30.13 230.472 30.55C231.18 30.97 231.738 31.57 232.146 32.35C232.554 33.118 232.758 34 232.758 34.996C232.758 35.992 232.554 36.886 232.146 37.678C231.738 38.458 231.174 39.07 230.454 39.514C229.746 39.946 228.96 40.162 228.096 40.162C227.328 40.162 226.644 40.012 226.044 39.712C225.456 39.412 224.988 39.028 224.64 38.56V40H222.588V26.68H224.64V31.558ZM230.67 34.996C230.67 34.312 230.526 33.724 230.238 33.232C229.962 32.728 229.59 32.35 229.122 32.098C228.666 31.834 228.174 31.702 227.646 31.702C227.13 31.702 226.638 31.834 226.17 32.098C225.714 32.362 225.342 32.746 225.054 33.25C224.778 33.754 224.64 34.348 224.64 35.032C224.64 35.716 224.778 36.316 225.054 36.832C225.342 37.336 225.714 37.72 226.17 37.984C226.638 38.248 227.13 38.38 227.646 38.38C228.174 38.38 228.666 38.248 229.122 37.984C229.59 37.708 229.962 37.312 230.238 36.796C230.526 36.28 230.67 35.68 230.67 34.996ZM236.84 26.68V40H234.788V26.68H236.84ZM248.462 30.082L242.378 44.662H240.254L242.27 39.838L238.364 30.082H240.65L243.44 37.642L246.338 30.082H248.462Z" fill="white"/>
<rect x="41" y="18" width="30" height="30" rx="9" fill="white"/>
<rect x="43" y="20" width="26" height="26" rx="9" fill="#36C5F0"/>
<path d="M56.39 38.168C55.4007 38.168 54.5513 37.958 53.842 37.538C53.1327 37.1087 52.5867 36.516 52.204 35.76C51.8213 34.9947 51.63 34.1127 51.63 33.114C51.63 32.1153 51.8213 31.2333 52.204 30.468C52.5867 29.7027 53.1327 29.1053 53.842 28.676C54.5513 28.2467 55.4007 28.032 56.39 28.032C57.566 28.032 58.5273 28.326 59.274 28.914C60.03 29.4927 60.5013 30.3093 60.688 31.364H58.714C58.5927 30.832 58.3313 30.4167 57.93 30.118C57.538 29.81 57.0153 29.656 56.362 29.656C55.4567 29.656 54.7473 29.964 54.234 30.58C53.7207 31.196 53.464 32.0407 53.464 33.114C53.464 34.1873 53.7207 35.032 54.234 35.648C54.7473 36.2547 55.4567 36.558 56.362 36.558C57.0153 36.558 57.538 36.418 57.93 36.138C58.3313 35.8487 58.5927 35.452 58.714 34.948H60.688C60.5013 35.956 60.03 36.7447 59.274 37.314C58.5273 37.8833 57.566 38.168 56.39 38.168Z" fill="white"/>
<rect x="17" y="18" width="30" height="30" rx="9" fill="white"/>
<rect x="19" y="20" width="26" height="26" rx="9" fill="#0066DA"/>
<path d="M32.544 38.168C31.564 38.168 30.7053 37.9533 29.968 37.524C29.24 37.0947 28.666 36.502 28.246 35.746C27.8353 34.9807 27.63 34.0987 27.63 33.1C27.63 32.1013 27.8353 31.224 28.246 30.468C28.666 29.7027 29.24 29.1053 29.968 28.676C30.7053 28.2467 31.564 28.032 32.544 28.032C33.5147 28.032 34.3687 28.2467 35.106 28.676C35.8433 29.1053 36.4173 29.7027 36.828 30.468C37.2387 31.224 37.444 32.1013 37.444 33.1C37.444 34.0333 37.262 34.8687 36.898 35.606C36.534 36.334 36.03 36.9127 35.386 37.342L37.654 39.778H35.428L33.888 38.014C33.4587 38.1167 33.0107 38.168 32.544 38.168ZM32.544 36.558C33.4773 36.558 34.2193 36.25 34.77 35.634C35.33 35.018 35.61 34.1733 35.61 33.1C35.61 32.0267 35.33 31.182 34.77 30.566C34.2193 29.95 33.4773 29.642 32.544 29.642C31.6107 29.642 30.864 29.95 30.304 30.566C29.744 31.182 29.464 32.0267 29.464 33.1C29.464 34.1733 29.744 35.018 30.304 35.634C30.864 36.25 31.6107 36.558 32.544 36.558Z" fill="white"/>
<defs>
<filter id="filter0_f_1_33" x="422" y="10" width="50" height="50" filterUnits="userSpaceOnUse" color-interpolation-filters="sRGB">
<feFlood flood-opacity="0" result="BackgroundImageFix"/>
<feBlend mode="normal" in="SourceGraphic" in2="BackgroundImageFix" result="shape"/>
<feGaussianBlur stdDeviation="8" result="effect1_foregroundBlur_1_33"/>
</filter>
</defs>
</svg>
