<svg width="279" height="64" viewBox="0 0 279 64" fill="none" xmlns="http://www.w3.org/2000/svg">
<rect width="279" height="64" rx="32" fill="#63B4FF"/>
<g opacity="0.8" filter="url(#filter0_f_1_157)">
<circle cx="253" cy="36" r="9" fill="#1362AA"/>
</g>
<circle cx="250" cy="33" r="12" transform="rotate(-180 250 33)" fill="#63B4FF"/>
<path d="M248 28.3333L252.667 33L248 37.6667" stroke="white" stroke-width="2" stroke-linecap="round" stroke-linejoin="round"/>
<path d="M92.046 32.574C92.718 32.694 93.288 33.048 93.756 33.636C94.224 34.224 94.458 34.89 94.458 35.634C94.458 36.27 94.29 36.846 93.954 37.362C93.63 37.866 93.156 38.268 92.532 38.568C91.908 38.856 91.182 39 90.354 39H85.35V26.49H90.12C90.972 26.49 91.704 26.634 92.316 26.922C92.928 27.21 93.39 27.6 93.702 28.092C94.014 28.572 94.17 29.112 94.17 29.712C94.17 30.432 93.978 31.032 93.594 31.512C93.21 31.992 92.694 32.346 92.046 32.574ZM87.402 31.746H89.94C90.612 31.746 91.134 31.596 91.506 31.296C91.89 30.984 92.082 30.54 92.082 29.964C92.082 29.4 91.89 28.962 91.506 28.65C91.134 28.326 90.612 28.164 89.94 28.164H87.402V31.746ZM90.174 37.326C90.87 37.326 91.416 37.158 91.812 36.822C92.208 36.486 92.406 36.018 92.406 35.418C92.406 34.806 92.196 34.32 91.776 33.96C91.356 33.6 90.798 33.42 90.102 33.42H87.402V37.326H90.174ZM98.7399 30.522C99.0399 30.018 99.4359 29.628 99.9279 29.352C100.432 29.064 101.026 28.92 101.71 28.92V31.044H101.188C100.384 31.044 99.7719 31.248 99.3519 31.656C98.9439 32.064 98.7399 32.772 98.7399 33.78V39H96.6879V29.082H98.7399V30.522ZM104.64 27.768C104.268 27.768 103.956 27.642 103.704 27.39C103.452 27.138 103.326 26.826 103.326 26.454C103.326 26.082 103.452 25.77 103.704 25.518C103.956 25.266 104.268 25.14 104.64 25.14C105 25.14 105.306 25.266 105.558 25.518C105.81 25.77 105.936 26.082 105.936 26.454C105.936 26.826 105.81 27.138 105.558 27.39C105.306 27.642 105 27.768 104.64 27.768ZM105.648 29.082V39H103.596V29.082H105.648ZM117.432 33.798C117.432 34.17 117.408 34.506 117.36 34.806H109.782C109.842 35.598 110.136 36.234 110.664 36.714C111.192 37.194 111.84 37.434 112.608 37.434C113.712 37.434 114.492 36.972 114.948 36.048H117.162C116.862 36.96 116.316 37.71 115.524 38.298C114.744 38.874 113.772 39.162 112.608 39.162C111.66 39.162 110.808 38.952 110.052 38.532C109.308 38.1 108.72 37.5 108.288 36.732C107.868 35.952 107.658 35.052 107.658 34.032C107.658 33.012 107.862 32.118 108.27 31.35C108.69 30.57 109.272 29.97 110.016 29.55C110.772 29.13 111.636 28.92 112.608 28.92C113.544 28.92 114.378 29.124 115.11 29.532C115.842 29.94 116.412 30.516 116.82 31.26C117.228 31.992 117.432 32.838 117.432 33.798ZM115.29 33.15C115.278 32.394 115.008 31.788 114.48 31.332C113.952 30.876 113.298 30.648 112.518 30.648C111.81 30.648 111.204 30.876 110.7 31.332C110.196 31.776 109.896 32.382 109.8 33.15H115.29ZM123.61 30.756H121.774V39H119.704V30.756H118.534V29.082H119.704V28.38C119.704 27.24 120.004 26.412 120.604 25.896C121.216 25.368 122.17 25.104 123.466 25.104V26.814C122.842 26.814 122.404 26.934 122.152 27.174C121.9 27.402 121.774 27.804 121.774 28.38V29.082H123.61V30.756ZM126.472 27.768C126.1 27.768 125.788 27.642 125.536 27.39C125.284 27.138 125.158 26.826 125.158 26.454C125.158 26.082 125.284 25.77 125.536 25.518C125.788 25.266 126.1 25.14 126.472 25.14C126.832 25.14 127.138 25.266 127.39 25.518C127.642 25.77 127.768 26.082 127.768 26.454C127.768 26.826 127.642 27.138 127.39 27.39C127.138 27.642 126.832 27.768 126.472 27.768ZM127.48 29.082V39H125.428V29.082H127.48ZM135.178 28.92C135.958 28.92 136.654 29.082 137.266 29.406C137.89 29.73 138.376 30.21 138.724 30.846C139.072 31.482 139.246 32.25 139.246 33.15V39H137.212V33.456C137.212 32.568 136.99 31.89 136.546 31.422C136.102 30.942 135.496 30.702 134.728 30.702C133.96 30.702 133.348 30.942 132.892 31.422C132.448 31.89 132.226 32.568 132.226 33.456V39H130.174V29.082H132.226V30.216C132.562 29.808 132.988 29.49 133.504 29.262C134.032 29.034 134.59 28.92 135.178 28.92ZM145.86 28.92C146.628 28.92 147.306 29.076 147.894 29.388C148.494 29.688 148.962 30.066 149.298 30.522V29.082H151.368V39.162C151.368 40.074 151.176 40.884 150.792 41.592C150.408 42.312 149.85 42.876 149.118 43.284C148.398 43.692 147.534 43.896 146.526 43.896C145.182 43.896 144.066 43.578 143.178 42.942C142.29 42.318 141.786 41.466 141.666 40.386H143.7C143.856 40.902 144.186 41.316 144.69 41.628C145.206 41.952 145.818 42.114 146.526 42.114C147.354 42.114 148.02 41.862 148.524 41.358C149.04 40.854 149.298 40.122 149.298 39.162V37.506C148.95 37.974 148.476 38.37 147.876 38.694C147.288 39.006 146.616 39.162 145.86 39.162C144.996 39.162 144.204 38.946 143.484 38.514C142.776 38.07 142.212 37.458 141.792 36.678C141.384 35.886 141.18 34.992 141.18 33.996C141.18 33 141.384 32.118 141.792 31.35C142.212 30.582 142.776 29.988 143.484 29.568C144.204 29.136 144.996 28.92 145.86 28.92ZM149.298 34.032C149.298 33.348 149.154 32.754 148.866 32.25C148.59 31.746 148.224 31.362 147.768 31.098C147.312 30.834 146.82 30.702 146.292 30.702C145.764 30.702 145.272 30.834 144.816 31.098C144.36 31.35 143.988 31.728 143.7 32.232C143.424 32.724 143.286 33.312 143.286 33.996C143.286 34.68 143.424 35.28 143.7 35.796C143.988 36.312 144.36 36.708 144.816 36.984C145.284 37.248 145.776 37.38 146.292 37.38C146.82 37.38 147.312 37.248 147.768 36.984C148.224 36.72 148.59 36.336 148.866 35.832C149.154 35.316 149.298 34.716 149.298 34.032Z" fill="white"/>
<rect x="39" y="17" width="30" height="30" rx="9" fill="white"/>
<rect x="41" y="19" width="26" height="26" rx="9" fill="#E6ADAD"/>
<path d="M54.39 37.168C53.4007 37.168 52.5513 36.958 51.842 36.538C51.1327 36.1087 50.5867 35.516 50.204 34.76C49.8213 33.9947 49.63 33.1127 49.63 32.114C49.63 31.1153 49.8213 30.2333 50.204 29.468C50.5867 28.7027 51.1327 28.1053 51.842 27.676C52.5513 27.2467 53.4007 27.032 54.39 27.032C55.566 27.032 56.5273 27.326 57.274 27.914C58.03 28.4927 58.5013 29.3093 58.688 30.364H56.714C56.5927 29.832 56.3313 29.4167 55.93 29.118C55.538 28.81 55.0153 28.656 54.362 28.656C53.4567 28.656 52.7473 28.964 52.234 29.58C51.7207 30.196 51.464 31.0407 51.464 32.114C51.464 33.1873 51.7207 34.032 52.234 34.648C52.7473 35.2547 53.4567 35.558 54.362 35.558C55.0153 35.558 55.538 35.418 55.93 35.138C56.3313 34.8487 56.5927 34.452 56.714 33.948H58.688C58.5013 34.956 58.03 35.7447 57.274 36.314C56.5273 36.8833 55.566 37.168 54.39 37.168Z" fill="white"/>
<rect x="15" y="17" width="30" height="30" rx="9" fill="white"/>
<rect x="17" y="19" width="26" height="26" rx="9" fill="#F08484"/>
<path d="M25.952 37V27.2H29.886C30.9033 27.2 31.678 27.438 32.21 27.914C32.7513 28.3807 33.022 28.9827 33.022 29.72C33.022 30.336 32.854 30.8307 32.518 31.204C32.1913 31.568 31.79 31.8153 31.314 31.946C31.874 32.058 32.336 32.338 32.7 32.786C33.064 33.2247 33.246 33.738 33.246 34.326C33.246 35.1007 32.966 35.74 32.406 36.244C31.846 36.748 31.0527 37 30.026 37H25.952ZM27.744 31.316H29.62C30.124 31.316 30.5113 31.1993 30.782 30.966C31.0527 30.7327 31.188 30.4013 31.188 29.972C31.188 29.5613 31.0527 29.2393 30.782 29.006C30.5207 28.7633 30.124 28.642 29.592 28.642H27.744V31.316ZM27.744 35.544H29.746C30.278 35.544 30.6887 35.4227 30.978 35.18C31.2767 34.928 31.426 34.578 31.426 34.13C31.426 33.6727 31.272 33.3133 30.964 33.052C30.656 32.7907 30.2407 32.66 29.718 32.66H27.744V35.544Z" fill="white"/>
<defs>
<filter id="filter0_f_1_157" x="228" y="11" width="50" height="50" filterUnits="userSpaceOnUse" color-interpolation-filters="sRGB">
<feFlood flood-opacity="0" result="BackgroundImageFix"/>
<feBlend mode="normal" in="SourceGraphic" in2="BackgroundImageFix" result="shape"/>
<feGaussianBlur stdDeviation="8" result="effect1_foregroundBlur_1_157"/>
</filter>
</defs>
</svg>
