<svg width="287" height="64" viewBox="0 0 287 64" fill="none" xmlns="http://www.w3.org/2000/svg">
<rect width="279" height="64" rx="32" fill="#FFCB12"/>
<g opacity="0.8" filter="url(#filter0_f_1_171)">
<circle cx="262" cy="36" r="9" fill="#AB8500"/>
</g>
<circle cx="259" cy="33" r="12" transform="rotate(-180 259 33)" fill="#FFCB12"/>
<path d="M257 28.3333L261.667 33L257 37.6667" stroke="white" stroke-width="2" stroke-linecap="round" stroke-linejoin="round"/>
<path d="M74.412 39L71.692 34.274H70.213V39H68.275V27.185H72.355C73.2617 27.185 74.0267 27.3437 74.65 27.661C75.2847 27.9783 75.755 28.4033 76.061 28.936C76.3783 29.4687 76.537 30.0637 76.537 30.721C76.537 31.4917 76.3103 32.1943 75.857 32.829C75.415 33.4523 74.7293 33.8773 73.8 34.104L76.724 39H74.412ZM70.213 32.727H72.355C73.0803 32.727 73.6243 32.5457 73.987 32.183C74.361 31.8203 74.548 31.333 74.548 30.721C74.548 30.109 74.3667 29.633 74.004 29.293C73.6413 28.9417 73.0917 28.766 72.355 28.766H70.213V32.727ZM87.6012 34.087C87.6012 34.4383 87.5785 34.7557 87.5332 35.039H80.3762C80.4329 35.787 80.7105 36.3877 81.2092 36.841C81.7079 37.2943 82.3199 37.521 83.0452 37.521C84.0879 37.521 84.8245 37.0847 85.2552 36.212H87.3462C87.0629 37.0733 86.5472 37.7817 85.7992 38.337C85.0625 38.881 84.1445 39.153 83.0452 39.153C82.1499 39.153 81.3452 38.9547 80.6312 38.558C79.9285 38.15 79.3732 37.5833 78.9652 36.858C78.5685 36.1213 78.3702 35.2713 78.3702 34.308C78.3702 33.3447 78.5629 32.5003 78.9482 31.775C79.3449 31.0383 79.8945 30.4717 80.5972 30.075C81.3112 29.6783 82.1272 29.48 83.0452 29.48C83.9292 29.48 84.7169 29.6727 85.4082 30.058C86.0995 30.4433 86.6379 30.9873 87.0232 31.69C87.4085 32.3813 87.6012 33.1803 87.6012 34.087ZM85.5782 33.475C85.5669 32.761 85.3119 32.1887 84.8132 31.758C84.3145 31.3273 83.6969 31.112 82.9602 31.112C82.2915 31.112 81.7192 31.3273 81.2432 31.758C80.7672 32.1773 80.4839 32.7497 80.3932 33.475H85.5782ZM88.8624 34.308C88.8624 33.3447 89.0551 32.5003 89.4404 31.775C89.8371 31.0383 90.3811 30.4717 91.0724 30.075C91.7637 29.6783 92.5571 29.48 93.4524 29.48C94.5857 29.48 95.5207 29.752 96.2574 30.296C97.0054 30.8287 97.5097 31.5937 97.7704 32.591H95.6794C95.5094 32.1263 95.2374 31.7637 94.8634 31.503C94.4894 31.2423 94.0191 31.112 93.4524 31.112C92.6591 31.112 92.0244 31.3953 91.5484 31.962C91.0837 32.5173 90.8514 33.2993 90.8514 34.308C90.8514 35.3167 91.0837 36.1043 91.5484 36.671C92.0244 37.2377 92.6591 37.521 93.4524 37.521C94.5744 37.521 95.3167 37.028 95.6794 36.042H97.7704C97.4984 36.994 96.9884 37.7533 96.2404 38.32C95.4924 38.8753 94.5631 39.153 93.4524 39.153C92.5571 39.153 91.7637 38.9547 91.0724 38.558C90.3811 38.15 89.8371 37.5833 89.4404 36.858C89.0551 36.1213 88.8624 35.2713 88.8624 34.308ZM103.765 39.153C102.881 39.153 102.082 38.9547 101.368 38.558C100.654 38.15 100.093 37.5833 99.6848 36.858C99.2768 36.1213 99.0728 35.2713 99.0728 34.308C99.0728 33.356 99.2824 32.5117 99.7018 31.775C100.121 31.0383 100.693 30.4717 101.419 30.075C102.144 29.6783 102.954 29.48 103.85 29.48C104.745 29.48 105.555 29.6783 106.281 30.075C107.006 30.4717 107.578 31.0383 107.998 31.775C108.417 32.5117 108.627 33.356 108.627 34.308C108.627 35.26 108.411 36.1043 107.981 36.841C107.55 37.5777 106.961 38.15 106.213 38.558C105.476 38.9547 104.66 39.153 103.765 39.153ZM103.765 37.47C104.263 37.47 104.728 37.351 105.159 37.113C105.601 36.875 105.958 36.518 106.23 36.042C106.502 35.566 106.638 34.988 106.638 34.308C106.638 33.628 106.507 33.0557 106.247 32.591C105.986 32.115 105.64 31.758 105.21 31.52C104.779 31.282 104.314 31.163 103.816 31.163C103.317 31.163 102.852 31.282 102.422 31.52C102.002 31.758 101.668 32.115 101.419 32.591C101.169 33.0557 101.045 33.628 101.045 34.308C101.045 35.3167 101.3 36.0987 101.81 36.654C102.331 37.198 102.983 37.47 103.765 37.47ZM112.481 30.993C112.764 30.517 113.138 30.1487 113.603 29.888C114.079 29.616 114.64 29.48 115.286 29.48V31.486H114.793C114.033 31.486 113.455 31.6787 113.059 32.064C112.673 32.4493 112.481 33.118 112.481 34.07V39H110.543V29.633H112.481V30.993ZM116.421 34.274C116.421 33.3333 116.614 32.5003 116.999 31.775C117.396 31.0497 117.928 30.4887 118.597 30.092C119.277 29.684 120.031 29.48 120.858 29.48C121.47 29.48 122.071 29.616 122.66 29.888C123.261 30.1487 123.737 30.5 124.088 30.942V26.42H126.043V39H124.088V37.589C123.771 38.0423 123.329 38.4163 122.762 38.711C122.207 39.0057 121.566 39.153 120.841 39.153C120.025 39.153 119.277 38.949 118.597 38.541C117.928 38.1217 117.396 37.5437 116.999 36.807C116.614 36.059 116.421 35.2147 116.421 34.274ZM124.088 34.308C124.088 33.662 123.952 33.101 123.68 32.625C123.419 32.149 123.074 31.7863 122.643 31.537C122.212 31.2877 121.748 31.163 121.249 31.163C120.75 31.163 120.286 31.2877 119.855 31.537C119.424 31.775 119.073 32.132 118.801 32.608C118.54 33.0727 118.41 33.628 118.41 34.274C118.41 34.92 118.54 35.4867 118.801 35.974C119.073 36.4613 119.424 36.8353 119.855 37.096C120.297 37.3453 120.762 37.47 121.249 37.47C121.748 37.47 122.212 37.3453 122.643 37.096C123.074 36.8467 123.419 36.484 123.68 36.008C123.952 35.5207 124.088 34.954 124.088 34.308ZM141.266 30.704C141.266 31.3047 141.125 31.8713 140.841 32.404C140.558 32.9367 140.105 33.373 139.481 33.713C138.858 34.0417 138.059 34.206 137.084 34.206H134.942V39H133.004V27.185H137.084C137.991 27.185 138.756 27.3437 139.379 27.661C140.014 27.967 140.484 28.3863 140.79 28.919C141.108 29.4517 141.266 30.0467 141.266 30.704ZM137.084 32.625C137.821 32.625 138.371 32.4607 138.733 32.132C139.096 31.792 139.277 31.316 139.277 30.704C139.277 29.412 138.546 28.766 137.084 28.766H134.942V32.625H137.084ZM145.053 30.993C145.336 30.517 145.71 30.1487 146.175 29.888C146.651 29.616 147.212 29.48 147.858 29.48V31.486H147.365C146.606 31.486 146.028 31.6787 145.631 32.064C145.246 32.4493 145.053 33.118 145.053 34.07V39H143.115V29.633H145.053V30.993ZM158.224 34.087C158.224 34.4383 158.202 34.7557 158.156 35.039H150.999C151.056 35.787 151.334 36.3877 151.832 36.841C152.331 37.2943 152.943 37.521 153.668 37.521C154.711 37.521 155.448 37.0847 155.878 36.212H157.969C157.686 37.0733 157.17 37.7817 156.422 38.337C155.686 38.881 154.768 39.153 153.668 39.153C152.773 39.153 151.968 38.9547 151.254 38.558C150.552 38.15 149.996 37.5833 149.588 36.858C149.192 36.1213 148.993 35.2713 148.993 34.308C148.993 33.3447 149.186 32.5003 149.571 31.775C149.968 31.0383 150.518 30.4717 151.22 30.075C151.934 29.6783 152.75 29.48 153.668 29.48C154.552 29.48 155.34 29.6727 156.031 30.058C156.723 30.4433 157.261 30.9873 157.646 31.69C158.032 32.3813 158.224 33.1803 158.224 34.087ZM156.201 33.475C156.19 32.761 155.935 32.1887 155.436 31.758C154.938 31.3273 154.32 31.112 153.583 31.112C152.915 31.112 152.342 31.3273 151.866 31.758C151.39 32.1773 151.107 32.7497 151.016 33.475H156.201ZM163.531 39.153C162.795 39.153 162.132 39.0227 161.542 38.762C160.964 38.49 160.505 38.1273 160.165 37.674C159.825 37.2093 159.644 36.6937 159.621 36.127H161.627C161.661 36.5237 161.848 36.858 162.188 37.13C162.54 37.3907 162.976 37.521 163.497 37.521C164.041 37.521 164.461 37.419 164.755 37.215C165.061 36.9997 165.214 36.7277 165.214 36.399C165.214 36.0477 165.044 35.787 164.704 35.617C164.376 35.447 163.849 35.26 163.123 35.056C162.421 34.8633 161.848 34.6763 161.406 34.495C160.964 34.3137 160.579 34.036 160.25 33.662C159.933 33.288 159.774 32.795 159.774 32.183C159.774 31.6843 159.922 31.231 160.216 30.823C160.511 30.4037 160.93 30.075 161.474 29.837C162.03 29.599 162.664 29.48 163.378 29.48C164.444 29.48 165.299 29.752 165.945 30.296C166.603 30.8287 166.954 31.5597 166.999 32.489H165.061C165.027 32.0697 164.857 31.7353 164.551 31.486C164.245 31.2367 163.832 31.112 163.31 31.112C162.8 31.112 162.409 31.2083 162.137 31.401C161.865 31.5937 161.729 31.8487 161.729 32.166C161.729 32.4153 161.82 32.625 162.001 32.795C162.183 32.965 162.404 33.101 162.664 33.203C162.925 33.2937 163.31 33.4127 163.82 33.56C164.5 33.7413 165.056 33.9283 165.486 34.121C165.928 34.3023 166.308 34.5743 166.625 34.937C166.943 35.2997 167.107 35.7813 167.118 36.382C167.118 36.9147 166.971 37.3907 166.676 37.81C166.382 38.2293 165.962 38.558 165.418 38.796C164.886 39.034 164.257 39.153 163.531 39.153ZM177.798 34.087C177.798 34.4383 177.775 34.7557 177.73 35.039H170.573C170.629 35.787 170.907 36.3877 171.406 36.841C171.904 37.2943 172.516 37.521 173.242 37.521C174.284 37.521 175.021 37.0847 175.452 36.212H177.542C177.259 37.0733 176.744 37.7817 175.996 38.337C175.259 38.881 174.341 39.153 173.242 39.153C172.346 39.153 171.542 38.9547 170.828 38.558C170.125 38.15 169.57 37.5833 169.162 36.858C168.765 36.1213 168.567 35.2713 168.567 34.308C168.567 33.3447 168.759 32.5003 169.145 31.775C169.541 31.0383 170.091 30.4717 170.794 30.075C171.508 29.6783 172.324 29.48 173.242 29.48C174.126 29.48 174.913 29.6727 175.605 30.058C176.296 30.4433 176.834 30.9873 177.22 31.69C177.605 32.3813 177.798 33.1803 177.798 34.087ZM175.775 33.475C175.763 32.761 175.508 32.1887 175.01 31.758C174.511 31.3273 173.893 31.112 173.157 31.112C172.488 31.112 171.916 31.3273 171.44 31.758C170.964 32.1773 170.68 32.7497 170.59 33.475H175.775ZM184.431 29.48C185.167 29.48 185.825 29.633 186.403 29.939C186.992 30.245 187.451 30.6983 187.78 31.299C188.108 31.8997 188.273 32.625 188.273 33.475V39H186.352V33.764C186.352 32.9253 186.142 32.285 185.723 31.843C185.303 31.3897 184.731 31.163 184.006 31.163C183.28 31.163 182.702 31.3897 182.272 31.843C181.852 32.285 181.643 32.9253 181.643 33.764V39H179.705V29.633H181.643V30.704C181.96 30.3187 182.362 30.0183 182.85 29.803C183.348 29.5877 183.875 29.48 184.431 29.48ZM193.006 31.214V36.399C193.006 36.7503 193.085 37.0053 193.244 37.164C193.414 37.3113 193.697 37.385 194.094 37.385H195.284V39H193.754C192.881 39 192.212 38.796 191.748 38.388C191.283 37.98 191.051 37.317 191.051 36.399V31.214H189.946V29.633H191.051V27.304H193.006V29.633H195.284V31.214H193.006ZM196.424 34.274C196.424 33.3333 196.617 32.5003 197.002 31.775C197.399 31.0497 197.931 30.4887 198.6 30.092C199.28 29.684 200.028 29.48 200.844 29.48C201.581 29.48 202.221 29.6273 202.765 29.922C203.32 30.2053 203.762 30.5623 204.091 30.993V29.633H206.046V39H204.091V37.606C203.762 38.048 203.315 38.4163 202.748 38.711C202.181 39.0057 201.535 39.153 200.81 39.153C200.005 39.153 199.269 38.949 198.6 38.541C197.931 38.1217 197.399 37.5437 197.002 36.807C196.617 36.059 196.424 35.2147 196.424 34.274ZM204.091 34.308C204.091 33.662 203.955 33.101 203.683 32.625C203.422 32.149 203.077 31.7863 202.646 31.537C202.215 31.2877 201.751 31.163 201.252 31.163C200.753 31.163 200.289 31.2877 199.858 31.537C199.427 31.775 199.076 32.132 198.804 32.608C198.543 33.0727 198.413 33.628 198.413 34.274C198.413 34.92 198.543 35.4867 198.804 35.974C199.076 36.4613 199.427 36.8353 199.858 37.096C200.3 37.3453 200.765 37.47 201.252 37.47C201.751 37.47 202.215 37.3453 202.646 37.096C203.077 36.8467 203.422 36.484 203.683 36.008C203.955 35.5207 204.091 34.954 204.091 34.308ZM210.852 31.214V36.399C210.852 36.7503 210.932 37.0053 211.09 37.164C211.26 37.3113 211.544 37.385 211.94 37.385H213.13V39H211.6C210.728 39 210.059 38.796 209.594 38.388C209.13 37.98 208.897 37.317 208.897 36.399V31.214H207.792V29.633H208.897V27.304H210.852V29.633H213.13V31.214H210.852ZM215.903 28.392C215.551 28.392 215.257 28.273 215.019 28.035C214.781 27.797 214.662 27.5023 214.662 27.151C214.662 26.7997 214.781 26.505 215.019 26.267C215.257 26.029 215.551 25.91 215.903 25.91C216.243 25.91 216.532 26.029 216.77 26.267C217.008 26.505 217.127 26.7997 217.127 27.151C217.127 27.5023 217.008 27.797 216.77 28.035C216.532 28.273 216.243 28.392 215.903 28.392ZM216.855 29.633V39H214.917V29.633H216.855ZM223.462 39.153C222.578 39.153 221.779 38.9547 221.065 38.558C220.351 38.15 219.79 37.5833 219.382 36.858C218.974 36.1213 218.77 35.2713 218.77 34.308C218.77 33.356 218.98 32.5117 219.399 31.775C219.818 31.0383 220.391 30.4717 221.116 30.075C221.841 29.6783 222.652 29.48 223.547 29.48C224.442 29.48 225.253 29.6783 225.978 30.075C226.703 30.4717 227.276 31.0383 227.695 31.775C228.114 32.5117 228.324 33.356 228.324 34.308C228.324 35.26 228.109 36.1043 227.678 36.841C227.247 37.5777 226.658 38.15 225.91 38.558C225.173 38.9547 224.357 39.153 223.462 39.153ZM223.462 37.47C223.961 37.47 224.425 37.351 224.856 37.113C225.298 36.875 225.655 36.518 225.927 36.042C226.199 35.566 226.335 34.988 226.335 34.308C226.335 33.628 226.205 33.0557 225.944 32.591C225.683 32.115 225.338 31.758 224.907 31.52C224.476 31.282 224.012 31.163 223.513 31.163C223.014 31.163 222.55 31.282 222.119 31.52C221.7 31.758 221.365 32.115 221.116 32.591C220.867 33.0557 220.742 33.628 220.742 34.308C220.742 35.3167 220.997 36.0987 221.507 36.654C222.028 37.198 222.68 37.47 223.462 37.47ZM234.966 29.48C235.703 29.48 236.36 29.633 236.938 29.939C237.527 30.245 237.986 30.6983 238.315 31.299C238.644 31.8997 238.808 32.625 238.808 33.475V39H236.887V33.764C236.887 32.9253 236.677 32.285 236.258 31.843C235.839 31.3897 235.266 31.163 234.541 31.163C233.816 31.163 233.238 31.3897 232.807 31.843C232.388 32.285 232.178 32.9253 232.178 33.764V39H230.24V29.633H232.178V30.704C232.495 30.3187 232.898 30.0183 233.385 29.803C233.884 29.5877 234.411 29.48 234.966 29.48Z" fill="white"/>
<rect x="33" y="17" width="30" height="30" rx="9" fill="white"/>
<rect x="35" y="19" width="26" height="26" rx="9" fill="#EDA0A8"/>
<path d="M43.658 37V35.628L48.166 28.698H43.7V27.2H50.238V28.572L45.702 35.502H50.266V37H43.658Z" fill="white"/>
<rect x="9" y="17" width="30" height="30" rx="9" fill="white"/>
<rect x="11" y="19" width="26" height="26" rx="9" fill="#0ACF83"/>
<path d="M22.486 37V33.514L19.196 27.2H21.226L23.396 31.722L25.552 27.2H27.554L24.278 33.514V37H22.486Z" fill="white"/>
<defs>
<filter id="filter0_f_1_171" x="237" y="11" width="50" height="50" filterUnits="userSpaceOnUse" color-interpolation-filters="sRGB">
<feFlood flood-opacity="0" result="BackgroundImageFix"/>
<feBlend mode="normal" in="SourceGraphic" in2="BackgroundImageFix" result="shape"/>
<feGaussianBlur stdDeviation="8" result="effect1_foregroundBlur_1_171"/>
</filter>
</defs>
</svg>
