<svg width="283" height="64" viewBox="0 0 283 64" fill="none" xmlns="http://www.w3.org/2000/svg">
<rect width="280" height="64" rx="32" fill="#00DEEC"/>
<g opacity="0.8" filter="url(#filter0_f_1_60)">
<circle cx="258" cy="35" r="9" fill="#0D8E96"/>
</g>
<circle cx="255" cy="32" r="12" transform="rotate(-180 255 32)" fill="#00DEEC"/>
<path d="M253 27.3333L257.667 32L253 36.6667" stroke="white" stroke-width="2" stroke-linecap="round" stroke-linejoin="round"/>
<path d="M36.404 29.09C36.08 28.466 35.63 27.998 35.054 27.686C34.478 27.362 33.812 27.2 33.056 27.2C32.228 27.2 31.49 27.386 30.842 27.758C30.194 28.13 29.684 28.658 29.312 29.342C28.952 30.026 28.772 30.818 28.772 31.718C28.772 32.618 28.952 33.416 29.312 34.112C29.684 34.796 30.194 35.324 30.842 35.696C31.49 36.068 32.228 36.254 33.056 36.254C34.172 36.254 35.078 35.942 35.774 35.318C36.47 34.694 36.896 33.848 37.052 32.78H32.354V31.142H39.248V32.744C39.116 33.716 38.768 34.61 38.204 35.426C37.652 36.242 36.926 36.896 36.026 37.388C35.138 37.868 34.148 38.108 33.056 38.108C31.88 38.108 30.806 37.838 29.834 37.298C28.862 36.746 28.088 35.984 27.512 35.012C26.948 34.04 26.666 32.942 26.666 31.718C26.666 30.494 26.948 29.396 27.512 28.424C28.088 27.452 28.862 26.696 29.834 26.156C30.818 25.604 31.892 25.328 33.056 25.328C34.388 25.328 35.57 25.658 36.602 26.318C37.646 26.966 38.402 27.89 38.87 29.09H36.404ZM43.3239 29.522C43.6239 29.018 44.0199 28.628 44.5119 28.352C45.0159 28.064 45.6099 27.92 46.2939 27.92V30.044H45.7719C44.9679 30.044 44.3559 30.248 43.9359 30.656C43.5279 31.064 43.3239 31.772 43.3239 32.78V38H41.2719V28.082H43.3239V29.522ZM47.4961 32.996C47.4961 32 47.7001 31.118 48.1081 30.35C48.5281 29.582 49.0921 28.988 49.8001 28.568C50.5201 28.136 51.3121 27.92 52.1761 27.92C52.9561 27.92 53.6341 28.076 54.2101 28.388C54.7981 28.688 55.2661 29.066 55.6141 29.522V28.082H57.6841V38H55.6141V36.524C55.2661 36.992 54.7921 37.382 54.1921 37.694C53.5921 38.006 52.9081 38.162 52.1401 38.162C51.2881 38.162 50.5081 37.946 49.8001 37.514C49.0921 37.07 48.5281 36.458 48.1081 35.678C47.7001 34.886 47.4961 33.992 47.4961 32.996ZM55.6141 33.032C55.6141 32.348 55.4701 31.754 55.1821 31.25C54.9061 30.746 54.5401 30.362 54.0841 30.098C53.6281 29.834 53.1361 29.702 52.6081 29.702C52.0801 29.702 51.5881 29.834 51.1321 30.098C50.6761 30.35 50.3041 30.728 50.0161 31.232C49.7401 31.724 49.6021 32.312 49.6021 32.996C49.6021 33.68 49.7401 34.28 50.0161 34.796C50.3041 35.312 50.6761 35.708 51.1321 35.984C51.6001 36.248 52.0921 36.38 52.6081 36.38C53.1361 36.38 53.6281 36.248 54.0841 35.984C54.5401 35.72 54.9061 35.336 55.1821 34.832C55.4701 34.316 55.6141 33.716 55.6141 33.032ZM62.4313 29.54C62.7793 29.084 63.2533 28.7 63.8533 28.388C64.4533 28.076 65.1313 27.92 65.8873 27.92C66.7513 27.92 67.5373 28.136 68.2453 28.568C68.9653 28.988 69.5293 29.582 69.9373 30.35C70.3453 31.118 70.5493 32 70.5493 32.996C70.5493 33.992 70.3453 34.886 69.9373 35.678C69.5293 36.458 68.9653 37.07 68.2453 37.514C67.5373 37.946 66.7513 38.162 65.8873 38.162C65.1313 38.162 64.4593 38.012 63.8713 37.712C63.2833 37.4 62.8033 37.016 62.4313 36.56V42.716H60.3793V28.082H62.4313V29.54ZM68.4613 32.996C68.4613 32.312 68.3173 31.724 68.0293 31.232C67.7533 30.728 67.3813 30.35 66.9133 30.098C66.4573 29.834 65.9653 29.702 65.4373 29.702C64.9213 29.702 64.4293 29.834 63.9613 30.098C63.5053 30.362 63.1333 30.746 62.8453 31.25C62.5693 31.754 62.4313 32.348 62.4313 33.032C62.4313 33.716 62.5693 34.316 62.8453 34.832C63.1333 35.336 63.5053 35.72 63.9613 35.984C64.4293 36.248 64.9213 36.38 65.4373 36.38C65.9653 36.38 66.4573 36.248 66.9133 35.984C67.3813 35.708 67.7533 35.312 68.0293 34.796C68.3173 34.28 68.4613 33.68 68.4613 32.996ZM77.7085 27.92C78.4645 27.92 79.1365 28.082 79.7245 28.406C80.3245 28.73 80.7925 29.21 81.1285 29.846C81.4765 30.482 81.6505 31.25 81.6505 32.15V38H79.6165V32.456C79.6165 31.568 79.3945 30.89 78.9505 30.422C78.5065 29.942 77.9005 29.702 77.1325 29.702C76.3645 29.702 75.7525 29.942 75.2965 30.422C74.8525 30.89 74.6305 31.568 74.6305 32.456V38H72.5785V24.68H74.6305V29.234C74.9785 28.814 75.4165 28.49 75.9445 28.262C76.4845 28.034 77.0725 27.92 77.7085 27.92ZM93.0658 38.126C92.2258 38.126 91.4698 37.982 90.7978 37.694C90.1258 37.394 89.5978 36.974 89.2138 36.434C88.8298 35.894 88.6378 35.264 88.6378 34.544H90.8338C90.8818 35.084 91.0918 35.528 91.4638 35.876C91.8478 36.224 92.3818 36.398 93.0658 36.398C93.7738 36.398 94.3258 36.23 94.7218 35.894C95.1178 35.546 95.3158 35.102 95.3158 34.562C95.3158 34.142 95.1898 33.8 94.9378 33.536C94.6978 33.272 94.3918 33.068 94.0198 32.924C93.6598 32.78 93.1558 32.624 92.5078 32.456C91.6918 32.24 91.0258 32.024 90.5098 31.808C90.0058 31.58 89.5738 31.232 89.2138 30.764C88.8538 30.296 88.6738 29.672 88.6738 28.892C88.6738 28.172 88.8538 27.542 89.2138 27.002C89.5738 26.462 90.0778 26.048 90.7258 25.76C91.3738 25.472 92.1238 25.328 92.9758 25.328C94.1878 25.328 95.1778 25.634 95.9458 26.246C96.7258 26.846 97.1578 27.674 97.2418 28.73H94.9738C94.9378 28.274 94.7218 27.884 94.3258 27.56C93.9298 27.236 93.4078 27.074 92.7598 27.074C92.1718 27.074 91.6918 27.224 91.3198 27.524C90.9478 27.824 90.7618 28.256 90.7618 28.82C90.7618 29.204 90.8758 29.522 91.1038 29.774C91.3438 30.014 91.6438 30.206 92.0038 30.35C92.3638 30.494 92.8558 30.65 93.4798 30.818C94.3078 31.046 94.9798 31.274 95.4958 31.502C96.0238 31.73 96.4678 32.084 96.8278 32.564C97.1998 33.032 97.3858 33.662 97.3858 34.454C97.3858 35.09 97.2118 35.69 96.8638 36.254C96.5278 36.818 96.0298 37.274 95.3698 37.622C94.7218 37.958 93.9538 38.126 93.0658 38.126ZM102.201 29.756V35.246C102.201 35.618 102.285 35.888 102.453 36.056C102.633 36.212 102.933 36.29 103.353 36.29H104.613V38H102.993C102.069 38 101.361 37.784 100.869 37.352C100.377 36.92 100.131 36.218 100.131 35.246V29.756H98.961V28.082H100.131V25.616H102.201V28.082H104.613V29.756H102.201ZM115.486 28.082V38H113.434V36.83C113.11 37.238 112.684 37.562 112.156 37.802C111.64 38.03 111.088 38.144 110.5 38.144C109.72 38.144 109.018 37.982 108.394 37.658C107.782 37.334 107.296 36.854 106.936 36.218C106.588 35.582 106.414 34.814 106.414 33.914V28.082H108.448V33.608C108.448 34.496 108.67 35.18 109.114 35.66C109.558 36.128 110.164 36.362 110.932 36.362C111.7 36.362 112.306 36.128 112.75 35.66C113.206 35.18 113.434 34.496 113.434 33.608V28.082H115.486ZM117.51 32.996C117.51 32 117.714 31.118 118.122 30.35C118.542 29.582 119.106 28.988 119.814 28.568C120.534 28.136 121.332 27.92 122.208 27.92C122.856 27.92 123.492 28.064 124.116 28.352C124.752 28.628 125.256 29 125.628 29.468V24.68H127.698V38H125.628V36.506C125.292 36.986 124.824 37.382 124.224 37.694C123.636 38.006 122.958 38.162 122.19 38.162C121.326 38.162 120.534 37.946 119.814 37.514C119.106 37.07 118.542 36.458 118.122 35.678C117.714 34.886 117.51 33.992 117.51 32.996ZM125.628 33.032C125.628 32.348 125.484 31.754 125.196 31.25C124.92 30.746 124.554 30.362 124.098 30.098C123.642 29.834 123.15 29.702 122.622 29.702C122.094 29.702 121.602 29.834 121.146 30.098C120.69 30.35 120.318 30.728 120.03 31.232C119.754 31.724 119.616 32.312 119.616 32.996C119.616 33.68 119.754 34.28 120.03 34.796C120.318 35.312 120.69 35.708 121.146 35.984C121.614 36.248 122.106 36.38 122.622 36.38C123.15 36.38 123.642 36.248 124.098 35.984C124.554 35.72 124.92 35.336 125.196 34.832C125.484 34.316 125.628 33.716 125.628 33.032ZM139.321 28.082L133.237 42.662H131.113L133.129 37.838L129.223 28.082H131.509L134.299 35.642L137.197 28.082H139.321ZM147.597 27.146V30.818H151.917V32.492H147.597V36.326H152.457V38H145.545V25.472H152.457V27.146H147.597ZM154.301 33.032C154.301 32.012 154.505 31.118 154.913 30.35C155.333 29.57 155.909 28.97 156.641 28.55C157.373 28.13 158.213 27.92 159.161 27.92C160.361 27.92 161.351 28.208 162.131 28.784C162.923 29.348 163.457 30.158 163.733 31.214H161.519C161.339 30.722 161.051 30.338 160.655 30.062C160.259 29.786 159.761 29.648 159.161 29.648C158.321 29.648 157.649 29.948 157.145 30.548C156.653 31.136 156.407 31.964 156.407 33.032C156.407 34.1 156.653 34.934 157.145 35.534C157.649 36.134 158.321 36.434 159.161 36.434C160.349 36.434 161.135 35.912 161.519 34.868H163.733C163.445 35.876 162.905 36.68 162.113 37.28C161.321 37.868 160.337 38.162 159.161 38.162C158.213 38.162 157.373 37.952 156.641 37.532C155.909 37.1 155.333 36.5 154.913 35.732C154.505 34.952 154.301 34.052 154.301 33.032ZM170.08 38.162C169.144 38.162 168.298 37.952 167.542 37.532C166.786 37.1 166.192 36.5 165.76 35.732C165.328 34.952 165.112 34.052 165.112 33.032C165.112 32.024 165.334 31.13 165.778 30.35C166.222 29.57 166.828 28.97 167.596 28.55C168.364 28.13 169.222 27.92 170.17 27.92C171.118 27.92 171.976 28.13 172.744 28.55C173.512 28.97 174.118 29.57 174.562 30.35C175.006 31.13 175.228 32.024 175.228 33.032C175.228 34.04 175 34.934 174.544 35.714C174.088 36.494 173.464 37.1 172.672 37.532C171.892 37.952 171.028 38.162 170.08 38.162ZM170.08 36.38C170.608 36.38 171.1 36.254 171.556 36.002C172.024 35.75 172.402 35.372 172.69 34.868C172.978 34.364 173.122 33.752 173.122 33.032C173.122 32.312 172.984 31.706 172.708 31.214C172.432 30.71 172.066 30.332 171.61 30.08C171.154 29.828 170.662 29.702 170.134 29.702C169.606 29.702 169.114 29.828 168.658 30.08C168.214 30.332 167.86 30.71 167.596 31.214C167.332 31.706 167.2 32.312 167.2 33.032C167.2 34.1 167.47 34.928 168.01 35.516C168.562 36.092 169.252 36.38 170.08 36.38ZM182.26 27.92C183.04 27.92 183.736 28.082 184.348 28.406C184.972 28.73 185.458 29.21 185.806 29.846C186.154 30.482 186.328 31.25 186.328 32.15V38H184.294V32.456C184.294 31.568 184.072 30.89 183.628 30.422C183.184 29.942 182.578 29.702 181.81 29.702C181.042 29.702 180.43 29.942 179.974 30.422C179.53 30.89 179.308 31.568 179.308 32.456V38H177.256V28.082H179.308V29.216C179.644 28.808 180.07 28.49 180.586 28.262C181.114 28.034 181.672 27.92 182.26 27.92Z" fill="white"/>
<defs>
<filter id="filter0_f_1_60" x="233" y="10" width="50" height="50" filterUnits="userSpaceOnUse" color-interpolation-filters="sRGB">
<feFlood flood-opacity="0" result="BackgroundImageFix"/>
<feBlend mode="normal" in="SourceGraphic" in2="BackgroundImageFix" result="shape"/>
<feGaussianBlur stdDeviation="8" result="effect1_foregroundBlur_1_60"/>
</filter>
</defs>
</svg>
