<svg width="284" height="64" viewBox="0 0 284 64" fill="none" xmlns="http://www.w3.org/2000/svg">
<rect width="279" height="64" rx="32" fill="#EF83F1"/>
<g opacity="0.8" filter="url(#filter0_f_1_45)">
<circle cx="259" cy="35" r="9" fill="#9F13A2"/>
</g>
<circle cx="256" cy="32" r="12" transform="rotate(-180 256 32)" fill="#EF83F1"/>
<path d="M254 27.3333L258.667 32L254 36.6667" stroke="white" stroke-width="2" stroke-linecap="round" stroke-linejoin="round"/>
<path d="M77.64 27.49L73.932 40H71.61L68.982 30.532L66.192 40L63.888 40.018L60.342 27.49H62.52L65.112 37.678L67.92 27.49H70.224L72.834 37.624L75.444 27.49H77.64ZM83.6344 40.162C82.6984 40.162 81.8524 39.952 81.0964 39.532C80.3404 39.1 79.7464 38.5 79.3144 37.732C78.8824 36.952 78.6664 36.052 78.6664 35.032C78.6664 34.024 78.8884 33.13 79.3324 32.35C79.7764 31.57 80.3824 30.97 81.1504 30.55C81.9184 30.13 82.7764 29.92 83.7244 29.92C84.6724 29.92 85.5304 30.13 86.2984 30.55C87.0664 30.97 87.6724 31.57 88.1164 32.35C88.5604 33.13 88.7824 34.024 88.7824 35.032C88.7824 36.04 88.5544 36.934 88.0984 37.714C87.6424 38.494 87.0184 39.1 86.2264 39.532C85.4464 39.952 84.5824 40.162 83.6344 40.162ZM83.6344 38.38C84.1624 38.38 84.6544 38.254 85.1104 38.002C85.5784 37.75 85.9564 37.372 86.2444 36.868C86.5324 36.364 86.6764 35.752 86.6764 35.032C86.6764 34.312 86.5384 33.706 86.2624 33.214C85.9864 32.71 85.6204 32.332 85.1644 32.08C84.7084 31.828 84.2164 31.702 83.6884 31.702C83.1604 31.702 82.6684 31.828 82.2124 32.08C81.7684 32.332 81.4144 32.71 81.1504 33.214C80.8864 33.706 80.7544 34.312 80.7544 35.032C80.7544 36.1 81.0244 36.928 81.5644 37.516C82.1164 38.092 82.8064 38.38 83.6344 38.38ZM92.8629 31.522C93.1629 31.018 93.5589 30.628 94.0509 30.352C94.5549 30.064 95.1489 29.92 95.8329 29.92V32.044H95.3109C94.5069 32.044 93.8949 32.248 93.4749 32.656C93.0669 33.064 92.8629 33.772 92.8629 34.78V40H90.8109V30.082H92.8629V31.522ZM101.643 35.05L106.215 40H103.443L99.7711 35.734V40H97.7191V26.68H99.7711V34.42L103.371 30.082H106.215L101.643 35.05ZM111.286 40.162C110.506 40.162 109.804 40.024 109.18 39.748C108.568 39.46 108.082 39.076 107.722 38.596C107.362 38.104 107.17 37.558 107.146 36.958H109.27C109.306 37.378 109.504 37.732 109.864 38.02C110.236 38.296 110.698 38.434 111.25 38.434C111.826 38.434 112.27 38.326 112.582 38.11C112.906 37.882 113.068 37.594 113.068 37.246C113.068 36.874 112.888 36.598 112.528 36.418C112.18 36.238 111.622 36.04 110.854 35.824C110.11 35.62 109.504 35.422 109.036 35.23C108.568 35.038 108.16 34.744 107.812 34.348C107.476 33.952 107.308 33.43 107.308 32.782C107.308 32.254 107.464 31.774 107.776 31.342C108.088 30.898 108.532 30.55 109.108 30.298C109.696 30.046 110.368 29.92 111.124 29.92C112.252 29.92 113.158 30.208 113.842 30.784C114.538 31.348 114.91 32.122 114.958 33.106H112.906C112.87 32.662 112.69 32.308 112.366 32.044C112.042 31.78 111.604 31.648 111.052 31.648C110.512 31.648 110.098 31.75 109.81 31.954C109.522 32.158 109.378 32.428 109.378 32.764C109.378 33.028 109.474 33.25 109.666 33.43C109.858 33.61 110.092 33.754 110.368 33.862C110.644 33.958 111.052 34.084 111.592 34.24C112.312 34.432 112.9 34.63 113.356 34.834C113.824 35.026 114.226 35.314 114.562 35.698C114.898 36.082 115.072 36.592 115.084 37.228C115.084 37.792 114.928 38.296 114.616 38.74C114.304 39.184 113.86 39.532 113.284 39.784C112.72 40.036 112.054 40.162 111.286 40.162ZM122.431 29.92C123.187 29.92 123.859 30.082 124.447 30.406C125.047 30.73 125.515 31.21 125.851 31.846C126.199 32.482 126.373 33.25 126.373 34.15V40H124.339V34.456C124.339 33.568 124.117 32.89 123.673 32.422C123.229 31.942 122.623 31.702 121.855 31.702C121.087 31.702 120.475 31.942 120.019 32.422C119.575 32.89 119.353 33.568 119.353 34.456V40H117.301V26.68H119.353V31.234C119.701 30.814 120.139 30.49 120.667 30.262C121.207 30.034 121.795 29.92 122.431 29.92ZM133.293 40.162C132.357 40.162 131.511 39.952 130.755 39.532C129.999 39.1 129.405 38.5 128.973 37.732C128.541 36.952 128.325 36.052 128.325 35.032C128.325 34.024 128.547 33.13 128.991 32.35C129.435 31.57 130.041 30.97 130.809 30.55C131.577 30.13 132.435 29.92 133.383 29.92C134.331 29.92 135.189 30.13 135.957 30.55C136.725 30.97 137.331 31.57 137.775 32.35C138.219 33.13 138.441 34.024 138.441 35.032C138.441 36.04 138.213 36.934 137.757 37.714C137.301 38.494 136.677 39.1 135.885 39.532C135.105 39.952 134.241 40.162 133.293 40.162ZM133.293 38.38C133.821 38.38 134.313 38.254 134.769 38.002C135.237 37.75 135.615 37.372 135.903 36.868C136.191 36.364 136.335 35.752 136.335 35.032C136.335 34.312 136.197 33.706 135.921 33.214C135.645 32.71 135.279 32.332 134.823 32.08C134.367 31.828 133.875 31.702 133.347 31.702C132.819 31.702 132.327 31.828 131.871 32.08C131.427 32.332 131.073 32.71 130.809 33.214C130.545 33.706 130.413 34.312 130.413 35.032C130.413 36.1 130.683 36.928 131.223 37.516C131.775 38.092 132.465 38.38 133.293 38.38ZM142.521 31.54C142.869 31.084 143.343 30.7 143.943 30.388C144.543 30.076 145.221 29.92 145.977 29.92C146.841 29.92 147.627 30.136 148.335 30.568C149.055 30.988 149.619 31.582 150.027 32.35C150.435 33.118 150.639 34 150.639 34.996C150.639 35.992 150.435 36.886 150.027 37.678C149.619 38.458 149.055 39.07 148.335 39.514C147.627 39.946 146.841 40.162 145.977 40.162C145.221 40.162 144.549 40.012 143.961 39.712C143.373 39.4 142.893 39.016 142.521 38.56V44.716H140.469V30.082H142.521V31.54ZM148.551 34.996C148.551 34.312 148.407 33.724 148.119 33.232C147.843 32.728 147.471 32.35 147.003 32.098C146.547 31.834 146.055 31.702 145.527 31.702C145.011 31.702 144.519 31.834 144.051 32.098C143.595 32.362 143.223 32.746 142.935 33.25C142.659 33.754 142.521 34.348 142.521 35.032C142.521 35.716 142.659 36.316 142.935 36.832C143.223 37.336 143.595 37.72 144.051 37.984C144.519 38.248 145.011 38.38 145.527 38.38C146.055 38.38 146.547 38.248 147.003 37.984C147.471 37.708 147.843 37.312 148.119 36.796C148.407 36.28 148.551 35.68 148.551 34.996ZM156.268 40.162C155.488 40.162 154.786 40.024 154.162 39.748C153.55 39.46 153.064 39.076 152.704 38.596C152.344 38.104 152.152 37.558 152.128 36.958H154.252C154.288 37.378 154.486 37.732 154.846 38.02C155.218 38.296 155.68 38.434 156.232 38.434C156.808 38.434 157.252 38.326 157.564 38.11C157.888 37.882 158.05 37.594 158.05 37.246C158.05 36.874 157.87 36.598 157.51 36.418C157.162 36.238 156.604 36.04 155.836 35.824C155.092 35.62 154.486 35.422 154.018 35.23C153.55 35.038 153.142 34.744 152.794 34.348C152.458 33.952 152.29 33.43 152.29 32.782C152.29 32.254 152.446 31.774 152.758 31.342C153.07 30.898 153.514 30.55 154.09 30.298C154.678 30.046 155.35 29.92 156.106 29.92C157.234 29.92 158.14 30.208 158.824 30.784C159.52 31.348 159.892 32.122 159.94 33.106H157.888C157.852 32.662 157.672 32.308 157.348 32.044C157.024 31.78 156.586 31.648 156.034 31.648C155.494 31.648 155.08 31.75 154.792 31.954C154.504 32.158 154.36 32.428 154.36 32.764C154.36 33.028 154.456 33.25 154.648 33.43C154.84 33.61 155.074 33.754 155.35 33.862C155.626 33.958 156.034 34.084 156.574 34.24C157.294 34.432 157.882 34.63 158.338 34.834C158.806 35.026 159.208 35.314 159.544 35.698C159.88 36.082 160.054 36.592 160.066 37.228C160.066 37.792 159.91 38.296 159.598 38.74C159.286 39.184 158.842 39.532 158.266 39.784C157.702 40.036 157.036 40.162 156.268 40.162Z" fill="white"/>
<rect x="17" y="19" width="30" height="30" rx="9" fill="white"/>
<rect x="19" y="21" width="26" height="26" rx="9" fill="#60BCD9"/>
<path d="M30.234 39V30.642H27.378V29.2H34.896V30.642H32.026V39H30.234Z" fill="white"/>
<defs>
<filter id="filter0_f_1_45" x="234" y="10" width="50" height="50" filterUnits="userSpaceOnUse" color-interpolation-filters="sRGB">
<feFlood flood-opacity="0" result="BackgroundImageFix"/>
<feBlend mode="normal" in="SourceGraphic" in2="BackgroundImageFix" result="shape"/>
<feGaussianBlur stdDeviation="8" result="effect1_foregroundBlur_1_45"/>
</filter>
</defs>
</svg>
