<svg width="280" height="64" viewBox="0 0 280 64" fill="none" xmlns="http://www.w3.org/2000/svg">
<rect width="280" height="64" rx="32" fill="#1CCE66"/>
<path d="M83.719 26.185V38H81.781V29.908L78.177 38H76.834L73.213 29.908V38H71.275V26.185H73.366L77.514 35.45L81.645 26.185H83.719ZM94.8512 33.087C94.8512 33.4383 94.8285 33.7557 94.7832 34.039H87.6262C87.6829 34.787 87.9605 35.3877 88.4592 35.841C88.9579 36.2943 89.5699 36.521 90.2952 36.521C91.3379 36.521 92.0745 36.0847 92.5052 35.212H94.5962C94.3129 36.0733 93.7972 36.7817 93.0492 37.337C92.3125 37.881 91.3945 38.153 90.2952 38.153C89.3999 38.153 88.5952 37.9547 87.8812 37.558C87.1785 37.15 86.6232 36.5833 86.2152 35.858C85.8185 35.1213 85.6202 34.2713 85.6202 33.308C85.6202 32.3447 85.8129 31.5003 86.1982 30.775C86.5949 30.0383 87.1445 29.4717 87.8472 29.075C88.5612 28.6783 89.3772 28.48 90.2952 28.48C91.1792 28.48 91.9669 28.6727 92.6582 29.058C93.3495 29.4433 93.8879 29.9873 94.2732 30.69C94.6585 31.3813 94.8512 32.1803 94.8512 33.087ZM92.8282 32.475C92.8169 31.761 92.5619 31.1887 92.0632 30.758C91.5645 30.3273 90.9469 30.112 90.2102 30.112C89.5415 30.112 88.9692 30.3273 88.4932 30.758C88.0172 31.1773 87.7339 31.7497 87.6432 32.475H92.8282ZM101.484 28.48C102.221 28.48 102.878 28.633 103.456 28.939C104.046 29.245 104.505 29.6983 104.833 30.299C105.162 30.8997 105.326 31.625 105.326 32.475V38H103.405V32.764C103.405 31.9253 103.196 31.285 102.776 30.843C102.357 30.3897 101.785 30.163 101.059 30.163C100.334 30.163 99.7561 30.3897 99.3254 30.843C98.9061 31.285 98.6964 31.9253 98.6964 32.764V38H96.7584V28.633H98.6964V29.704C99.0137 29.3187 99.4161 29.0183 99.9034 28.803C100.402 28.5877 100.929 28.48 101.484 28.48ZM110.059 30.214V35.399C110.059 35.7503 110.139 36.0053 110.297 36.164C110.467 36.3113 110.751 36.385 111.147 36.385H112.337V38H110.807C109.935 38 109.266 37.796 108.801 37.388C108.337 36.98 108.104 36.317 108.104 35.399V30.214H106.999V28.633H108.104V26.304H110.059V28.633H112.337V30.214H110.059ZM118.187 38.153C117.303 38.153 116.504 37.9547 115.79 37.558C115.076 37.15 114.515 36.5833 114.107 35.858C113.699 35.1213 113.495 34.2713 113.495 33.308C113.495 32.356 113.704 31.5117 114.124 30.775C114.543 30.0383 115.115 29.4717 115.841 29.075C116.566 28.6783 117.376 28.48 118.272 28.48C119.167 28.48 119.977 28.6783 120.703 29.075C121.428 29.4717 122 30.0383 122.42 30.775C122.839 31.5117 123.049 32.356 123.049 33.308C123.049 34.26 122.833 35.1043 122.403 35.841C121.972 36.5777 121.383 37.15 120.635 37.558C119.898 37.9547 119.082 38.153 118.187 38.153ZM118.187 36.47C118.685 36.47 119.15 36.351 119.581 36.113C120.023 35.875 120.38 35.518 120.652 35.042C120.924 34.566 121.06 33.988 121.06 33.308C121.06 32.628 120.929 32.0557 120.669 31.591C120.408 31.115 120.062 30.758 119.632 30.52C119.201 30.282 118.736 30.163 118.238 30.163C117.739 30.163 117.274 30.282 116.844 30.52C116.424 30.758 116.09 31.115 115.841 31.591C115.591 32.0557 115.467 32.628 115.467 33.308C115.467 34.3167 115.722 35.0987 116.232 35.654C116.753 36.198 117.405 36.47 118.187 36.47ZM126.902 29.993C127.186 29.517 127.56 29.1487 128.024 28.888C128.5 28.616 129.061 28.48 129.707 28.48V30.486H129.214C128.455 30.486 127.877 30.6787 127.48 31.064C127.095 31.4493 126.902 32.118 126.902 33.07V38H124.964V28.633H126.902V29.993ZM134.889 38.153C134.152 38.153 133.489 38.0227 132.9 37.762C132.322 37.49 131.863 37.1273 131.523 36.674C131.183 36.2093 131.002 35.6937 130.979 35.127H132.985C133.019 35.5237 133.206 35.858 133.546 36.13C133.897 36.3907 134.334 36.521 134.855 36.521C135.399 36.521 135.818 36.419 136.113 36.215C136.419 35.9997 136.572 35.7277 136.572 35.399C136.572 35.0477 136.402 34.787 136.062 34.617C135.733 34.447 135.206 34.26 134.481 34.056C133.778 33.8633 133.206 33.6763 132.764 33.495C132.322 33.3137 131.937 33.036 131.608 32.662C131.291 32.288 131.132 31.795 131.132 31.183C131.132 30.6843 131.279 30.231 131.574 29.823C131.869 29.4037 132.288 29.075 132.832 28.837C133.387 28.599 134.022 28.48 134.736 28.48C135.801 28.48 136.657 28.752 137.303 29.296C137.96 29.8287 138.312 30.5597 138.357 31.489H136.419C136.385 31.0697 136.215 30.7353 135.909 30.486C135.603 30.2367 135.189 30.112 134.668 30.112C134.158 30.112 133.767 30.2083 133.495 30.401C133.223 30.5937 133.087 30.8487 133.087 31.166C133.087 31.4153 133.178 31.625 133.359 31.795C133.54 31.965 133.761 32.101 134.022 32.203C134.283 32.2937 134.668 32.4127 135.178 32.56C135.858 32.7413 136.413 32.9283 136.844 33.121C137.286 33.3023 137.666 33.5743 137.983 33.937C138.3 34.2997 138.465 34.7813 138.476 35.382C138.476 35.9147 138.329 36.3907 138.034 36.81C137.739 37.2293 137.32 37.558 136.776 37.796C136.243 38.034 135.614 38.153 134.889 38.153ZM145.415 28.48C146.129 28.48 146.764 28.633 147.319 28.939C147.886 29.245 148.328 29.6983 148.645 30.299C148.974 30.8997 149.138 31.625 149.138 32.475V38H147.217V32.764C147.217 31.9253 147.007 31.285 146.588 30.843C146.169 30.3897 145.596 30.163 144.871 30.163C144.146 30.163 143.568 30.3897 143.137 30.843C142.718 31.285 142.508 31.9253 142.508 32.764V38H140.57V25.42H142.508V29.721C142.837 29.3243 143.25 29.0183 143.749 28.803C144.259 28.5877 144.814 28.48 145.415 28.48ZM152.596 27.392C152.245 27.392 151.95 27.273 151.712 27.035C151.474 26.797 151.355 26.5023 151.355 26.151C151.355 25.7997 151.474 25.505 151.712 25.267C151.95 25.029 152.245 24.91 152.596 24.91C152.936 24.91 153.225 25.029 153.463 25.267C153.701 25.505 153.82 25.7997 153.82 26.151C153.82 26.5023 153.701 26.797 153.463 27.035C153.225 27.273 152.936 27.392 152.596 27.392ZM153.548 28.633V38H151.61V28.633H153.548ZM158.03 30.01C158.359 29.5793 158.807 29.2167 159.373 28.922C159.94 28.6273 160.58 28.48 161.294 28.48C162.11 28.48 162.853 28.684 163.521 29.092C164.201 29.4887 164.734 30.0497 165.119 30.775C165.505 31.5003 165.697 32.3333 165.697 33.274C165.697 34.2147 165.505 35.059 165.119 35.807C164.734 36.5437 164.201 37.1217 163.521 37.541C162.853 37.949 162.11 38.153 161.294 38.153C160.58 38.153 159.946 38.0113 159.39 37.728C158.835 37.4333 158.382 37.0707 158.03 36.64V42.454H156.092V28.633H158.03V30.01ZM163.725 33.274C163.725 32.628 163.589 32.0727 163.317 31.608C163.057 31.132 162.705 30.775 162.263 30.537C161.833 30.2877 161.368 30.163 160.869 30.163C160.382 30.163 159.917 30.2877 159.475 30.537C159.045 30.7863 158.693 31.149 158.421 31.625C158.161 32.101 158.03 32.662 158.03 33.308C158.03 33.954 158.161 34.5207 158.421 35.008C158.693 35.484 159.045 35.8467 159.475 36.096C159.917 36.3453 160.382 36.47 160.869 36.47C161.368 36.47 161.833 36.3453 162.263 36.096C162.705 35.8353 163.057 35.4613 163.317 34.974C163.589 34.4867 163.725 33.92 163.725 33.274ZM184.474 26.185V38H182.536V29.908L178.932 38H177.589L173.968 29.908V38H172.03V26.185H174.121L178.269 35.45L182.4 26.185H184.474ZM195.606 33.087C195.606 33.4383 195.583 33.7557 195.538 34.039H188.381C188.438 34.787 188.715 35.3877 189.214 35.841C189.713 36.2943 190.325 36.521 191.05 36.521C192.093 36.521 192.829 36.0847 193.26 35.212H195.351C195.068 36.0733 194.552 36.7817 193.804 37.337C193.067 37.881 192.149 38.153 191.05 38.153C190.155 38.153 189.35 37.9547 188.636 37.558C187.933 37.15 187.378 36.5833 186.97 35.858C186.573 35.1213 186.375 34.2713 186.375 33.308C186.375 32.3447 186.568 31.5003 186.953 30.775C187.35 30.0383 187.899 29.4717 188.602 29.075C189.316 28.6783 190.132 28.48 191.05 28.48C191.934 28.48 192.722 28.6727 193.413 29.058C194.104 29.4433 194.643 29.9873 195.028 30.69C195.413 31.3813 195.606 32.1803 195.606 33.087ZM193.583 32.475C193.572 31.761 193.317 31.1887 192.818 30.758C192.319 30.3273 191.702 30.112 190.965 30.112C190.296 30.112 189.724 30.3273 189.248 30.758C188.772 31.1773 188.489 31.7497 188.398 32.475H193.583ZM206.098 33.087C206.098 33.4383 206.076 33.7557 206.03 34.039H198.873C198.93 34.787 199.208 35.3877 199.706 35.841C200.205 36.2943 200.817 36.521 201.542 36.521C202.585 36.521 203.322 36.0847 203.752 35.212H205.843C205.56 36.0733 205.044 36.7817 204.296 37.337C203.56 37.881 202.642 38.153 201.542 38.153C200.647 38.153 199.842 37.9547 199.128 37.558C198.426 37.15 197.87 36.5833 197.462 35.858C197.066 35.1213 196.867 34.2713 196.867 33.308C196.867 32.3447 197.06 31.5003 197.445 30.775C197.842 30.0383 198.392 29.4717 199.094 29.075C199.808 28.6783 200.624 28.48 201.542 28.48C202.426 28.48 203.214 28.6727 203.905 29.058C204.597 29.4433 205.135 29.9873 205.52 30.69C205.906 31.3813 206.098 32.1803 206.098 33.087ZM204.075 32.475C204.064 31.761 203.809 31.1887 203.31 30.758C202.812 30.3273 202.194 30.112 201.457 30.112C200.789 30.112 200.216 30.3273 199.74 30.758C199.264 31.1773 198.981 31.7497 198.89 32.475H204.075ZM210.266 30.214V35.399C210.266 35.7503 210.346 36.0053 210.504 36.164C210.674 36.3113 210.958 36.385 211.354 36.385H212.544V38H211.014C210.142 38 209.473 37.796 209.008 37.388C208.544 36.98 208.311 36.317 208.311 35.399V30.214H207.206V28.633H208.311V26.304H210.266V28.633H212.544V30.214H210.266ZM215.317 27.392C214.965 27.392 214.671 27.273 214.433 27.035C214.195 26.797 214.076 26.5023 214.076 26.151C214.076 25.7997 214.195 25.505 214.433 25.267C214.671 25.029 214.965 24.91 215.317 24.91C215.657 24.91 215.946 25.029 216.184 25.267C216.422 25.505 216.541 25.7997 216.541 26.151C216.541 26.5023 216.422 26.797 216.184 27.035C215.946 27.273 215.657 27.392 215.317 27.392ZM216.269 28.633V38H214.331V28.633H216.269ZM223.539 28.48C224.276 28.48 224.933 28.633 225.511 28.939C226.1 29.245 226.559 29.6983 226.888 30.299C227.217 30.8997 227.381 31.625 227.381 32.475V38H225.46V32.764C225.46 31.9253 225.25 31.285 224.831 30.843C224.412 30.3897 223.839 30.163 223.114 30.163C222.389 30.163 221.811 30.3897 221.38 30.843C220.961 31.285 220.751 31.9253 220.751 32.764V38H218.813V28.633H220.751V29.704C221.068 29.3187 221.471 29.0183 221.958 28.803C222.457 28.5877 222.984 28.48 223.539 28.48ZM233.627 28.48C234.352 28.48 234.993 28.6273 235.548 28.922C236.115 29.2053 236.557 29.5623 236.874 29.993V28.633H238.829V38.153C238.829 39.0143 238.648 39.7793 238.285 40.448C237.922 41.128 237.395 41.6607 236.704 42.046C236.024 42.4313 235.208 42.624 234.256 42.624C232.987 42.624 231.933 42.3237 231.094 41.723C230.255 41.1337 229.779 40.329 229.666 39.309H231.587C231.734 39.7963 232.046 40.1873 232.522 40.482C233.009 40.788 233.587 40.941 234.256 40.941C235.038 40.941 235.667 40.703 236.143 40.227C236.63 39.751 236.874 39.0597 236.874 38.153V36.589C236.545 37.031 236.098 37.405 235.531 37.711C234.976 38.0057 234.341 38.153 233.627 38.153C232.811 38.153 232.063 37.949 231.383 37.541C230.714 37.1217 230.182 36.5437 229.785 35.807C229.4 35.059 229.207 34.2147 229.207 33.274C229.207 32.3333 229.4 31.5003 229.785 30.775C230.182 30.0497 230.714 29.4887 231.383 29.092C232.063 28.684 232.811 28.48 233.627 28.48ZM236.874 33.308C236.874 32.662 236.738 32.101 236.466 31.625C236.205 31.149 235.86 30.7863 235.429 30.537C234.998 30.2877 234.534 30.163 234.035 30.163C233.536 30.163 233.072 30.2877 232.641 30.537C232.21 30.775 231.859 31.132 231.587 31.608C231.326 32.0727 231.196 32.628 231.196 33.274C231.196 33.92 231.326 34.4867 231.587 34.974C231.859 35.4613 232.21 35.8353 232.641 36.096C233.083 36.3453 233.548 36.47 234.035 36.47C234.534 36.47 234.998 36.3453 235.429 36.096C235.86 35.8467 236.205 35.484 236.466 35.008C236.738 34.5207 236.874 33.954 236.874 33.308Z" fill="white"/>
<rect x="36" y="16" width="30" height="30" rx="9" fill="white"/>
<rect x="38" y="18" width="26" height="26" rx="9" fill="#39BFDC"/>
<path d="M49.486 36V32.514L46.196 26.2H48.226L50.396 30.722L52.552 26.2H54.554L51.278 32.514V36H49.486Z" fill="white"/>
<rect x="12" y="16" width="30" height="30" rx="9" fill="white"/>
<rect x="14" y="18" width="26" height="26" rx="9" fill="#607CC3"/>
<path d="M22.952 36V26.2H26.298C27.446 26.2 28.3887 26.4053 29.126 26.816C29.8727 27.2173 30.4233 27.7867 30.778 28.524C31.142 29.252 31.324 30.1107 31.324 31.1C31.324 32.0893 31.142 32.9527 30.778 33.69C30.4233 34.418 29.8727 34.9873 29.126 35.398C28.3887 35.7993 27.446 36 26.298 36H22.952ZM24.744 34.46H26.214C27.0353 34.46 27.684 34.3293 28.16 34.068C28.636 33.7973 28.9767 33.4147 29.182 32.92C29.3873 32.416 29.49 31.8093 29.49 31.1C29.49 30.4 29.3873 29.798 29.182 29.294C28.9767 28.79 28.636 28.4027 28.16 28.132C27.684 27.8613 27.0353 27.726 26.214 27.726H24.744V34.46Z" fill="white"/>
</svg>
