<svg width="279" height="64" viewBox="0 0 279 64" fill="none" xmlns="http://www.w3.org/2000/svg">
<rect width="279" height="64" rx="32" fill="#FF8F50"/>
<rect x="38" y="17" width="30" height="30" rx="9" fill="white"/>
<rect x="40" y="19" width="26" height="26" rx="9" fill="#FF981E"/>
<path d="M49.952 37V27.2H51.744L56.35 34.102V27.2H58.142V37H56.35L51.744 30.112V37H49.952Z" fill="white"/>
<rect x="14" y="17" width="30" height="30" rx="9" fill="white"/>
<rect x="16" y="19" width="26" height="26" rx="9" fill="#A0EDA8"/>
<path d="M24.322 37L27.906 27.2H29.922L33.506 37H31.602L30.818 34.732H26.996L26.198 37H24.322ZM27.486 33.332H30.328L28.9 29.258L27.486 33.332Z" fill="white"/>
<g opacity="0.8" filter="url(#filter0_f_1_352)">
<circle cx="254" cy="35" r="9" fill="#C55619"/>
</g>
<circle cx="251" cy="32" r="12" transform="rotate(-180 251 32)" fill="#FF8F50"/>
<path d="M249 27.3333L253.667 32L249 36.6667" stroke="white" stroke-width="2" stroke-linecap="round" stroke-linejoin="round"/>
<path d="M86.712 26.49V28.164H81.402V31.854H85.542V33.528H81.402V39H79.35V26.49H86.712ZM89.6577 27.768C89.2857 27.768 88.9737 27.642 88.7217 27.39C88.4697 27.138 88.3437 26.826 88.3437 26.454C88.3437 26.082 88.4697 25.77 88.7217 25.518C88.9737 25.266 89.2857 25.14 89.6577 25.14C90.0177 25.14 90.3237 25.266 90.5757 25.518C90.8277 25.77 90.9537 26.082 90.9537 26.454C90.9537 26.826 90.8277 27.138 90.5757 27.39C90.3237 27.642 90.0177 27.768 89.6577 27.768ZM90.6657 29.082V39H88.6137V29.082H90.6657ZM98.3638 28.92C99.1438 28.92 99.8398 29.082 100.452 29.406C101.076 29.73 101.562 30.21 101.91 30.846C102.258 31.482 102.432 32.25 102.432 33.15V39H100.398V33.456C100.398 32.568 100.176 31.89 99.7318 31.422C99.2878 30.942 98.6818 30.702 97.9138 30.702C97.1458 30.702 96.5338 30.942 96.0778 31.422C95.6338 31.89 95.4118 32.568 95.4118 33.456V39H93.3598V29.082H95.4118V30.216C95.7478 29.808 96.1738 29.49 96.6898 29.262C97.2178 29.034 97.7758 28.92 98.3638 28.92ZM106.093 27.768C105.721 27.768 105.409 27.642 105.157 27.39C104.905 27.138 104.779 26.826 104.779 26.454C104.779 26.082 104.905 25.77 105.157 25.518C105.409 25.266 105.721 25.14 106.093 25.14C106.453 25.14 106.759 25.266 107.011 25.518C107.263 25.77 107.389 26.082 107.389 26.454C107.389 26.826 107.263 27.138 107.011 27.39C106.759 27.642 106.453 27.768 106.093 27.768ZM107.101 29.082V39H105.049V29.082H107.101ZM113.395 39.162C112.615 39.162 111.913 39.024 111.289 38.748C110.677 38.46 110.191 38.076 109.831 37.596C109.471 37.104 109.279 36.558 109.255 35.958H111.379C111.415 36.378 111.613 36.732 111.973 37.02C112.345 37.296 112.807 37.434 113.359 37.434C113.935 37.434 114.379 37.326 114.691 37.11C115.015 36.882 115.177 36.594 115.177 36.246C115.177 35.874 114.997 35.598 114.637 35.418C114.289 35.238 113.731 35.04 112.963 34.824C112.219 34.62 111.613 34.422 111.145 34.23C110.677 34.038 110.269 33.744 109.921 33.348C109.585 32.952 109.417 32.43 109.417 31.782C109.417 31.254 109.573 30.774 109.885 30.342C110.197 29.898 110.641 29.55 111.217 29.298C111.805 29.046 112.477 28.92 113.233 28.92C114.361 28.92 115.267 29.208 115.951 29.784C116.647 30.348 117.019 31.122 117.067 32.106H115.015C114.979 31.662 114.799 31.308 114.475 31.044C114.151 30.78 113.713 30.648 113.161 30.648C112.621 30.648 112.207 30.75 111.919 30.954C111.631 31.158 111.487 31.428 111.487 31.764C111.487 32.028 111.583 32.25 111.775 32.43C111.967 32.61 112.201 32.754 112.477 32.862C112.753 32.958 113.161 33.084 113.701 33.24C114.421 33.432 115.009 33.63 115.465 33.834C115.933 34.026 116.335 34.314 116.671 34.698C117.007 35.082 117.181 35.592 117.193 36.228C117.193 36.792 117.037 37.296 116.725 37.74C116.413 38.184 115.969 38.532 115.393 38.784C114.829 39.036 114.163 39.162 113.395 39.162ZM124.541 28.92C125.297 28.92 125.969 29.082 126.557 29.406C127.157 29.73 127.625 30.21 127.961 30.846C128.309 31.482 128.483 32.25 128.483 33.15V39H126.449V33.456C126.449 32.568 126.227 31.89 125.783 31.422C125.339 30.942 124.733 30.702 123.965 30.702C123.197 30.702 122.585 30.942 122.129 31.422C121.685 31.89 121.463 32.568 121.463 33.456V39H119.411V25.68H121.463V30.234C121.811 29.814 122.249 29.49 122.777 29.262C123.317 29.034 123.905 28.92 124.541 28.92ZM142.274 39L139.394 33.996H137.828V39H135.776V26.49H140.096C141.056 26.49 141.866 26.658 142.526 26.994C143.198 27.33 143.696 27.78 144.02 28.344C144.356 28.908 144.524 29.538 144.524 30.234C144.524 31.05 144.284 31.794 143.804 32.466C143.336 33.126 142.61 33.576 141.626 33.816L144.722 39H142.274ZM137.828 32.358H140.096C140.864 32.358 141.44 32.166 141.824 31.782C142.22 31.398 142.418 30.882 142.418 30.234C142.418 29.586 142.226 29.082 141.842 28.722C141.458 28.35 140.876 28.164 140.096 28.164H137.828V32.358ZM156.239 33.798C156.239 34.17 156.215 34.506 156.167 34.806H148.589C148.649 35.598 148.943 36.234 149.471 36.714C149.999 37.194 150.647 37.434 151.415 37.434C152.519 37.434 153.299 36.972 153.755 36.048H155.969C155.669 36.96 155.123 37.71 154.331 38.298C153.551 38.874 152.579 39.162 151.415 39.162C150.467 39.162 149.615 38.952 148.859 38.532C148.115 38.1 147.527 37.5 147.095 36.732C146.675 35.952 146.465 35.052 146.465 34.032C146.465 33.012 146.669 32.118 147.077 31.35C147.497 30.57 148.079 29.97 148.823 29.55C149.579 29.13 150.443 28.92 151.415 28.92C152.351 28.92 153.185 29.124 153.917 29.532C154.649 29.94 155.219 30.516 155.627 31.26C156.035 31.992 156.239 32.838 156.239 33.798ZM154.097 33.15C154.085 32.394 153.815 31.788 153.287 31.332C152.759 30.876 152.105 30.648 151.325 30.648C150.617 30.648 150.011 30.876 149.507 31.332C149.003 31.776 148.703 32.382 148.607 33.15H154.097ZM160.31 30.54C160.658 30.084 161.132 29.7 161.732 29.388C162.332 29.076 163.01 28.92 163.766 28.92C164.63 28.92 165.416 29.136 166.124 29.568C166.844 29.988 167.408 30.582 167.816 31.35C168.224 32.118 168.428 33 168.428 33.996C168.428 34.992 168.224 35.886 167.816 36.678C167.408 37.458 166.844 38.07 166.124 38.514C165.416 38.946 164.63 39.162 163.766 39.162C163.01 39.162 162.338 39.012 161.75 38.712C161.162 38.4 160.682 38.016 160.31 37.56V43.716H158.258V29.082H160.31V30.54ZM166.34 33.996C166.34 33.312 166.196 32.724 165.908 32.232C165.632 31.728 165.26 31.35 164.792 31.098C164.336 30.834 163.844 30.702 163.316 30.702C162.8 30.702 162.308 30.834 161.84 31.098C161.384 31.362 161.012 31.746 160.724 32.25C160.448 32.754 160.31 33.348 160.31 34.032C160.31 34.716 160.448 35.316 160.724 35.832C161.012 36.336 161.384 36.72 161.84 36.984C162.308 37.248 162.8 37.38 163.316 37.38C163.844 37.38 164.336 37.248 164.792 36.984C165.26 36.708 165.632 36.312 165.908 35.796C166.196 35.28 166.34 34.68 166.34 33.996ZM174.759 39.162C173.823 39.162 172.977 38.952 172.221 38.532C171.465 38.1 170.871 37.5 170.439 36.732C170.007 35.952 169.791 35.052 169.791 34.032C169.791 33.024 170.013 32.13 170.457 31.35C170.901 30.57 171.507 29.97 172.275 29.55C173.043 29.13 173.901 28.92 174.849 28.92C175.797 28.92 176.655 29.13 177.423 29.55C178.191 29.97 178.797 30.57 179.241 31.35C179.685 32.13 179.907 33.024 179.907 34.032C179.907 35.04 179.679 35.934 179.223 36.714C178.767 37.494 178.143 38.1 177.351 38.532C176.571 38.952 175.707 39.162 174.759 39.162ZM174.759 37.38C175.287 37.38 175.779 37.254 176.235 37.002C176.703 36.75 177.081 36.372 177.369 35.868C177.657 35.364 177.801 34.752 177.801 34.032C177.801 33.312 177.663 32.706 177.387 32.214C177.111 31.71 176.745 31.332 176.289 31.08C175.833 30.828 175.341 30.702 174.813 30.702C174.285 30.702 173.793 30.828 173.337 31.08C172.893 31.332 172.539 31.71 172.275 32.214C172.011 32.706 171.879 33.312 171.879 34.032C171.879 35.1 172.149 35.928 172.689 36.516C173.241 37.092 173.931 37.38 174.759 37.38ZM183.988 30.522C184.288 30.018 184.684 29.628 185.176 29.352C185.68 29.064 186.274 28.92 186.958 28.92V31.044H186.436C185.632 31.044 185.02 31.248 184.6 31.656C184.192 32.064 183.988 32.772 183.988 33.78V39H181.936V29.082H183.988V30.522ZM191.238 30.756V36.246C191.238 36.618 191.322 36.888 191.49 37.056C191.67 37.212 191.97 37.29 192.39 37.29H193.65V39H192.03C191.106 39 190.398 38.784 189.906 38.352C189.414 37.92 189.168 37.218 189.168 36.246V30.756H187.998V29.082H189.168V26.616H191.238V29.082H193.65V30.756H191.238Z" fill="white"/>
<defs>
<filter id="filter0_f_1_352" x="229" y="10" width="50" height="50" filterUnits="userSpaceOnUse" color-interpolation-filters="sRGB">
<feFlood flood-opacity="0" result="BackgroundImageFix"/>
<feBlend mode="normal" in="SourceGraphic" in2="BackgroundImageFix" result="shape"/>
<feGaussianBlur stdDeviation="8" result="effect1_foregroundBlur_1_352"/>
</filter>
</defs>
</svg>
