<svg width="284" height="64" viewBox="0 0 284 64" fill="none" xmlns="http://www.w3.org/2000/svg">
<rect width="279" height="64" rx="32" fill="#FF6363"/>
<g opacity="0.8" filter="url(#filter0_f_1_204)">
<circle cx="259" cy="35" r="9" fill="#9A0F0F"/>
</g>
<circle cx="256" cy="32" r="12" transform="rotate(-180 256 32)" fill="#FF6363"/>
<path d="M254 27.3333L258.667 32L254 36.6667" stroke="white" stroke-width="2" stroke-linecap="round" stroke-linejoin="round"/>
<path d="M64.592 35.416C64.592 34.328 64.8427 33.352 65.344 32.488C65.856 31.624 66.544 30.952 67.408 30.472C68.2827 29.9813 69.2373 29.736 70.272 29.736C71.456 29.736 72.5067 30.0293 73.424 30.616C74.352 31.192 75.024 32.0133 75.44 33.08H73.248C72.96 32.4933 72.56 32.056 72.048 31.768C71.536 31.48 70.944 31.336 70.272 31.336C69.536 31.336 68.88 31.5013 68.304 31.832C67.728 32.1627 67.2747 32.6373 66.944 33.256C66.624 33.8747 66.464 34.5947 66.464 35.416C66.464 36.2373 66.624 36.9573 66.944 37.576C67.2747 38.1947 67.728 38.6747 68.304 39.016C68.88 39.3467 69.536 39.512 70.272 39.512C70.944 39.512 71.536 39.368 72.048 39.08C72.56 38.792 72.96 38.3547 73.248 37.768H75.44C75.024 38.8347 74.352 39.656 73.424 40.232C72.5067 40.808 71.456 41.096 70.272 41.096C69.2267 41.096 68.272 40.856 67.408 40.376C66.544 39.8853 65.856 39.208 65.344 38.344C64.8427 37.48 64.592 36.504 64.592 35.416ZM76.967 36.552C76.967 35.6667 77.1483 34.8827 77.511 34.2C77.8843 33.5173 78.3857 32.9893 79.015 32.616C79.655 32.232 80.359 32.04 81.127 32.04C81.8203 32.04 82.423 32.1787 82.935 32.456C83.4577 32.7227 83.8737 33.0587 84.183 33.464V32.184H86.023V41H84.183V39.688C83.8737 40.104 83.4523 40.4507 82.919 40.728C82.3857 41.0053 81.7777 41.144 81.095 41.144C80.3377 41.144 79.6443 40.952 79.015 40.568C78.3857 40.1733 77.8843 39.6293 77.511 38.936C77.1483 38.232 76.967 37.4373 76.967 36.552ZM84.183 36.584C84.183 35.976 84.055 35.448 83.799 35C83.5537 34.552 83.2283 34.2107 82.823 33.976C82.4177 33.7413 81.9803 33.624 81.511 33.624C81.0417 33.624 80.6043 33.7413 80.199 33.976C79.7937 34.2 79.463 34.536 79.207 34.984C78.9617 35.4213 78.839 35.944 78.839 36.552C78.839 37.16 78.9617 37.6933 79.207 38.152C79.463 38.6107 79.7937 38.9627 80.199 39.208C80.615 39.4427 81.0523 39.56 81.511 39.56C81.9803 39.56 82.4177 39.4427 82.823 39.208C83.2283 38.9733 83.5537 38.632 83.799 38.184C84.055 37.7253 84.183 37.192 84.183 36.584ZM90.2428 29.16V41H88.4188V29.16H90.2428ZM94.4615 29.16V41H92.6375V29.16H94.4615Z" fill="white"/>
<rect x="23" y="17" width="30" height="30" rx="9" fill="white"/>
<rect x="25" y="19" width="26" height="26" rx="9" fill="#ECB22E"/>
<path d="M34.952 37V27.2H36.744V35.6H41.084V37H34.952Z" fill="white"/>
<defs>
<filter id="filter0_f_1_204" x="234" y="10" width="50" height="50" filterUnits="userSpaceOnUse" color-interpolation-filters="sRGB">
<feFlood flood-opacity="0" result="BackgroundImageFix"/>
<feBlend mode="normal" in="SourceGraphic" in2="BackgroundImageFix" result="shape"/>
<feGaussianBlur stdDeviation="8" result="effect1_foregroundBlur_1_204"/>
</filter>
</defs>
</svg>
