<svg width="308" height="230" viewBox="0 0 308 230" fill="none" xmlns="http://www.w3.org/2000/svg">
<rect x="0.177734" y="0.914062" width="307.259" height="228.783" rx="12" fill="white"/>
<rect x="23.7129" y="20.7031" width="84.9864" height="27.2067" rx="4" fill="#4FBC8E"/>
<path d="M35.0249 38.4141V30.0141H37.9169C38.5809 30.0141 39.1249 30.1261 39.5489 30.3501C39.9809 30.5741 40.3009 30.8781 40.5089 31.2621C40.7169 31.6381 40.8209 32.0581 40.8209 32.5221C40.8209 33.0421 40.6809 33.5141 40.4009 33.9381C40.1289 34.3621 39.7009 34.6661 39.1169 34.8501L40.9049 38.4141H39.4289L37.7969 35.0301H36.2969V38.4141H35.0249ZM36.2969 34.0701H37.8449C38.4209 34.0701 38.8409 33.9301 39.1049 33.6501C39.3769 33.3701 39.5129 33.0061 39.5129 32.5581C39.5129 32.1101 39.3809 31.7541 39.1169 31.4901C38.8529 31.2181 38.4249 31.0821 37.8329 31.0821H36.2969V34.0701ZM44.6984 38.5581C44.1144 38.5581 43.5944 38.4301 43.1384 38.1741C42.6904 37.9101 42.3384 37.5461 42.0824 37.0821C41.8264 36.6181 41.6984 36.0781 41.6984 35.4621C41.6984 34.8381 41.8224 34.2901 42.0704 33.8181C42.3264 33.3461 42.6784 32.9781 43.1264 32.7141C43.5824 32.4501 44.1104 32.3181 44.7104 32.3181C45.2944 32.3181 45.8024 32.4501 46.2344 32.7141C46.6664 32.9701 47.0024 33.3141 47.2424 33.7461C47.4824 34.1781 47.6024 34.6541 47.6024 35.1741C47.6024 35.2541 47.5984 35.3421 47.5904 35.4381C47.5904 35.5261 47.5864 35.6261 47.5784 35.7381H42.9464C42.9864 36.3141 43.1744 36.7541 43.5104 37.0581C43.8544 37.3541 44.2504 37.5021 44.6984 37.5021C45.0584 37.5021 45.3584 37.4221 45.5984 37.2621C45.8464 37.0941 46.0304 36.8701 46.1504 36.5901H47.4224C47.2624 37.1501 46.9424 37.6181 46.4624 37.9941C45.9904 38.3701 45.4024 38.5581 44.6984 38.5581ZM44.6984 33.3621C44.2744 33.3621 43.8984 33.4901 43.5704 33.7461C43.2424 33.9941 43.0424 34.3701 42.9704 34.8741H46.3304C46.3064 34.4101 46.1424 34.0421 45.8384 33.7701C45.5344 33.4981 45.1544 33.3621 44.6984 33.3621ZM48.9222 41.0541V32.4621H50.0622L50.1942 33.3861C50.3862 33.1061 50.6502 32.8581 50.9862 32.6421C51.3222 32.4261 51.7542 32.3181 52.2822 32.3181C52.8582 32.3181 53.3662 32.4541 53.8062 32.7261C54.2462 32.9981 54.5902 33.3701 54.8382 33.8421C55.0942 34.3141 55.2222 34.8501 55.2222 35.4501C55.2222 36.0501 55.0942 36.5861 54.8382 37.0581C54.5902 37.5221 54.2462 37.8901 53.8062 38.1621C53.3662 38.4261 52.8542 38.5581 52.2702 38.5581C51.8062 38.5581 51.3942 38.4661 51.0342 38.2821C50.6822 38.0981 50.4022 37.8381 50.1942 37.5021V41.0541H48.9222ZM52.0542 37.4541C52.5982 37.4541 53.0462 37.2701 53.3982 36.9021C53.7502 36.5261 53.9262 36.0381 53.9262 35.4381C53.9262 35.0461 53.8462 34.6981 53.6862 34.3941C53.5262 34.0901 53.3062 33.8541 53.0262 33.6861C52.7462 33.5101 52.4222 33.4221 52.0542 33.4221C51.5102 33.4221 51.0622 33.6101 50.7102 33.9861C50.3662 34.3621 50.1942 34.8461 50.1942 35.4381C50.1942 36.0381 50.3662 36.5261 50.7102 36.9021C51.0622 37.2701 51.5102 37.4541 52.0542 37.4541ZM59.3819 38.5581C58.8139 38.5581 58.3019 38.4301 57.8459 38.1741C57.3979 37.9101 57.0419 37.5461 56.7779 37.0821C56.5139 36.6101 56.3819 36.0621 56.3819 35.4381C56.3819 34.8141 56.5139 34.2701 56.7779 33.8061C57.0499 33.3341 57.4139 32.9701 57.8699 32.7141C58.3259 32.4501 58.8339 32.3181 59.3939 32.3181C59.9619 32.3181 60.4699 32.4501 60.9179 32.7141C61.3739 32.9701 61.7339 33.3341 61.9979 33.8061C62.2699 34.2701 62.4059 34.8141 62.4059 35.4381C62.4059 36.0621 62.2699 36.6101 61.9979 37.0821C61.7339 37.5461 61.3739 37.9101 60.9179 38.1741C60.4619 38.4301 59.9499 38.5581 59.3819 38.5581ZM59.3819 37.4661C59.6859 37.4661 59.9659 37.3901 60.2219 37.2381C60.4859 37.0861 60.6979 36.8621 60.8579 36.5661C61.0179 36.2621 61.0979 35.8861 61.0979 35.4381C61.0979 34.9901 61.0179 34.6181 60.8579 34.3221C60.7059 34.0181 60.4979 33.7901 60.2339 33.6381C59.9779 33.4861 59.6979 33.4101 59.3939 33.4101C59.0899 33.4101 58.8059 33.4861 58.5419 33.6381C58.2859 33.7901 58.0779 34.0181 57.9179 34.3221C57.7579 34.6181 57.6779 34.9901 57.6779 35.4381C57.6779 35.8861 57.7579 36.2621 57.9179 36.5661C58.0779 36.8621 58.2859 37.0861 58.5419 37.2381C58.7979 37.3901 59.0779 37.4661 59.3819 37.4661ZM63.7815 38.4141V32.4621H64.9215L65.0295 33.5901C65.2375 33.1981 65.5255 32.8901 65.8935 32.6661C66.2695 32.4341 66.7215 32.3181 67.2495 32.3181V33.6501H66.9015C66.5495 33.6501 66.2335 33.7101 65.9535 33.8301C65.6815 33.9421 65.4615 34.1381 65.2935 34.4181C65.1335 34.6901 65.0535 35.0701 65.0535 35.5581V38.4141H63.7815ZM70.8361 38.4141C70.2521 38.4141 69.7881 38.2741 69.4441 37.9941C69.1001 37.7061 68.9281 37.1981 68.9281 36.4701V33.5301H67.9081V32.4621H68.9281L69.0841 30.9501H70.2001V32.4621H71.8801V33.5301H70.2001V36.4701C70.2001 36.7981 70.2681 37.0261 70.4041 37.1541C70.5481 37.2741 70.7921 37.3341 71.1361 37.3341H71.8201V38.4141H70.8361Z" fill="white"/>
<path d="M24.6359 78.2227V69.1227H26.0139V73.0227L29.6019 69.1227H31.3049L27.9379 72.7497L31.3829 78.2227H29.7059L26.9499 73.8027L26.0139 74.8167V78.2227H24.6359ZM33.3112 70.5527C33.0512 70.5527 32.8345 70.4747 32.6612 70.3187C32.4965 70.154 32.4142 69.9503 32.4142 69.7077C32.4142 69.465 32.4965 69.2657 32.6612 69.1097C32.8345 68.945 33.0512 68.8627 33.3112 68.8627C33.5712 68.8627 33.7835 68.945 33.9482 69.1097C34.1215 69.2657 34.2082 69.465 34.2082 69.7077C34.2082 69.9503 34.1215 70.154 33.9482 70.3187C33.7835 70.4747 33.5712 70.5527 33.3112 70.5527ZM32.6222 78.2227V71.7747H34.0002V78.2227H32.6222ZM35.8192 78.2227V71.7747H37.0412L37.1452 72.9057C37.3446 72.507 37.6349 72.195 38.0162 71.9697C38.4062 71.7357 38.8526 71.6187 39.3552 71.6187C40.1352 71.6187 40.7462 71.8613 41.1882 72.3467C41.6389 72.832 41.8642 73.5557 41.8642 74.5177V78.2227H40.4992V74.6607C40.4992 73.4127 39.9879 72.7887 38.9652 72.7887C38.4539 72.7887 38.0292 72.9707 37.6912 73.3347C37.3619 73.6987 37.1972 74.2187 37.1972 74.8947V78.2227H35.8192ZM46.4252 78.3787C45.8012 78.3787 45.2509 78.2313 44.7742 77.9367C44.2975 77.642 43.9249 77.239 43.6562 76.7277C43.3875 76.2163 43.2532 75.6357 43.2532 74.9857C43.2532 74.3357 43.3875 73.7593 43.6562 73.2567C43.9249 72.7453 44.2975 72.3467 44.7742 72.0607C45.2595 71.766 45.8142 71.6187 46.4382 71.6187C46.9495 71.6187 47.3959 71.7183 47.7772 71.9177C48.1672 72.117 48.4705 72.3987 48.6872 72.7627V68.8627H50.0652V78.2227H48.8302L48.6872 77.2217C48.4792 77.525 48.1932 77.7937 47.8292 78.0277C47.4652 78.2617 46.9972 78.3787 46.4252 78.3787ZM46.6722 77.1827C47.2615 77.1827 47.7425 76.979 48.1152 76.5717C48.4965 76.1643 48.6872 75.64 48.6872 74.9987C48.6872 74.3487 48.4965 73.8243 48.1152 73.4257C47.7425 73.0183 47.2615 72.8147 46.6722 72.8147C46.0829 72.8147 45.5975 73.0183 45.2162 73.4257C44.8349 73.8243 44.6442 74.3487 44.6442 74.9987C44.6442 75.4233 44.7309 75.8003 44.9042 76.1297C45.0775 76.459 45.3159 76.719 45.6192 76.9097C45.9312 77.0917 46.2822 77.1827 46.6722 77.1827ZM54.8186 78.3787C54.186 78.3787 53.6226 78.24 53.1286 77.9627C52.6433 77.6767 52.262 77.2823 51.9846 76.7797C51.7073 76.277 51.5686 75.692 51.5686 75.0247C51.5686 74.3487 51.703 73.755 51.9716 73.2437C52.249 72.7323 52.6303 72.3337 53.1156 72.0477C53.6096 71.7617 54.1816 71.6187 54.8316 71.6187C55.4643 71.6187 56.0146 71.7617 56.4826 72.0477C56.9506 72.325 57.3146 72.6977 57.5746 73.1657C57.8346 73.6337 57.9646 74.1493 57.9646 74.7127C57.9646 74.7993 57.9603 74.8947 57.9516 74.9987C57.9516 75.094 57.9473 75.2023 57.9386 75.3237H52.9206C52.964 75.9477 53.1676 76.4243 53.5316 76.7537C53.9043 77.0743 54.3333 77.2347 54.8186 77.2347C55.2086 77.2347 55.5336 77.148 55.7936 76.9747C56.0623 76.7927 56.2616 76.55 56.3916 76.2467H57.7696C57.5963 76.8533 57.2496 77.3603 56.7296 77.7677C56.2183 78.175 55.5813 78.3787 54.8186 78.3787ZM54.8186 72.7497C54.3593 72.7497 53.952 72.8883 53.5966 73.1657C53.2413 73.4343 53.0246 73.8417 52.9466 74.3877H56.5866C56.5606 73.885 56.383 73.4863 56.0536 73.1917C55.7243 72.897 55.3126 72.7497 54.8186 72.7497ZM59.3944 78.2227V71.7747H60.6294L60.7464 72.9967C60.9718 72.572 61.2838 72.2383 61.6824 71.9957C62.0898 71.7443 62.5794 71.6187 63.1514 71.6187V73.0617H62.7744C62.3931 73.0617 62.0508 73.1267 61.7474 73.2567C61.4528 73.378 61.2144 73.5903 61.0324 73.8937C60.8591 74.1883 60.7724 74.6 60.7724 75.1287V78.2227H59.3944ZM66.8196 76.2467C66.4816 76.2467 66.1696 76.2077 65.8836 76.1297L65.3246 76.6757C65.4199 76.7363 65.5369 76.7883 65.6756 76.8317C65.8142 76.875 66.0092 76.914 66.2606 76.9487C66.5119 76.9833 66.8542 77.018 67.2876 77.0527C68.1456 77.1307 68.7652 77.3387 69.1466 77.6767C69.5279 78.006 69.7186 78.448 69.7186 79.0027C69.7186 79.384 69.6146 79.7437 69.4066 80.0817C69.2072 80.4283 68.8909 80.7057 68.4576 80.9137C68.0329 81.1303 67.4869 81.2387 66.8196 81.2387C65.9182 81.2387 65.1859 81.0653 64.6226 80.7187C64.0679 80.3807 63.7906 79.865 63.7906 79.1717C63.7906 78.903 63.8599 78.6343 63.9986 78.3657C64.1459 78.1057 64.3756 77.8587 64.6876 77.6247C64.5056 77.5467 64.3452 77.4643 64.2066 77.3777C64.0766 77.2823 63.9596 77.187 63.8556 77.0917V76.7797L64.9736 75.6357C64.4709 75.2023 64.2196 74.6347 64.2196 73.9327C64.2196 73.508 64.3192 73.1223 64.5186 72.7757C64.7266 72.4203 65.0256 72.1387 65.4156 71.9307C65.8056 71.7227 66.2736 71.6187 66.8196 71.6187C67.1836 71.6187 67.5216 71.6707 67.8336 71.7747H70.2386V72.6847L69.0946 72.7497C69.3026 73.105 69.4066 73.4993 69.4066 73.9327C69.4066 74.366 69.3026 74.756 69.0946 75.1027C68.8952 75.4493 68.6006 75.7267 68.2106 75.9347C67.8292 76.1427 67.3656 76.2467 66.8196 76.2467ZM66.8196 75.1677C67.2182 75.1677 67.5389 75.0637 67.7816 74.8557C68.0329 74.639 68.1586 74.3357 68.1586 73.9457C68.1586 73.547 68.0329 73.2437 67.7816 73.0357C67.5389 72.8277 67.2182 72.7237 66.8196 72.7237C66.4122 72.7237 66.0829 72.8277 65.8316 73.0357C65.5889 73.2437 65.4676 73.547 65.4676 73.9457C65.4676 74.3357 65.5889 74.639 65.8316 74.8557C66.0829 75.0637 66.4122 75.1677 66.8196 75.1677ZM65.0906 79.0417C65.0906 79.4143 65.2552 79.6917 65.5846 79.8737C65.9139 80.0643 66.3256 80.1597 66.8196 80.1597C67.2962 80.1597 67.6819 80.0557 67.9766 79.8477C68.2712 79.6483 68.4186 79.3797 68.4186 79.0417C68.4186 78.7903 68.3189 78.5737 68.1196 78.3917C67.9202 78.2183 67.5432 78.11 66.9886 78.0667C66.5726 78.0407 66.2042 78.0017 65.8836 77.9497C65.5802 78.1143 65.3722 78.292 65.2596 78.4827C65.1469 78.6733 65.0906 78.8597 65.0906 79.0417ZM73.6517 78.3787C73.1057 78.3787 72.655 78.2877 72.2997 78.1057C71.9443 77.9237 71.68 77.6853 71.5067 77.3907C71.3333 77.0873 71.2467 76.758 71.2467 76.4027C71.2467 75.7787 71.4893 75.2847 71.9747 74.9207C72.46 74.5567 73.1533 74.3747 74.0547 74.3747H75.7447V74.2577C75.7447 73.755 75.606 73.378 75.3287 73.1267C75.06 72.8753 74.709 72.7497 74.2757 72.7497C73.8943 72.7497 73.5607 72.845 73.2747 73.0357C72.9973 73.2177 72.8283 73.4907 72.7677 73.8547H71.3897C71.433 73.3867 71.589 72.988 71.8577 72.6587C72.135 72.3207 72.4817 72.065 72.8977 71.8917C73.3223 71.7097 73.786 71.6187 74.2887 71.6187C75.19 71.6187 75.8877 71.857 76.3817 72.3337C76.8757 72.8017 77.1227 73.443 77.1227 74.2577V78.2227H75.9267L75.8097 77.1177C75.6277 77.473 75.3633 77.772 75.0167 78.0147C74.67 78.2573 74.215 78.3787 73.6517 78.3787ZM73.9247 77.2607C74.2973 77.2607 74.6093 77.174 74.8607 77.0007C75.1207 76.8187 75.32 76.5803 75.4587 76.2857C75.606 75.991 75.697 75.666 75.7317 75.3107H74.1977C73.6517 75.3107 73.2617 75.406 73.0277 75.5967C72.8023 75.7873 72.6897 76.0257 72.6897 76.3117C72.6897 76.6063 72.798 76.8403 73.0147 77.0137C73.24 77.1783 73.5433 77.2607 73.9247 77.2607ZM78.7294 78.2227V71.7747H79.9644L80.0814 72.9967C80.3067 72.572 80.6187 72.2383 81.0174 71.9957C81.4247 71.7443 81.9144 71.6187 82.4864 71.6187V73.0617H82.1094C81.7281 73.0617 81.3857 73.1267 81.0824 73.2567C80.7877 73.378 80.5494 73.5903 80.3674 73.8937C80.1941 74.1883 80.1074 74.6 80.1074 75.1287V78.2227H78.7294ZM86.3719 78.2227C85.7392 78.2227 85.2365 78.071 84.8639 77.7677C84.4912 77.4557 84.3049 76.9053 84.3049 76.1167V72.9317H83.1999V71.7747H84.3049L84.4739 70.1367H85.6829V71.7747H87.5029V72.9317H85.6829V76.1167C85.6829 76.472 85.7565 76.719 85.9039 76.8577C86.0599 76.9877 86.3242 77.0527 86.6969 77.0527H87.4379V78.2227H86.3719ZM91.7747 78.3787C91.142 78.3787 90.5787 78.24 90.0847 77.9627C89.5994 77.6767 89.218 77.2823 88.9407 76.7797C88.6634 76.277 88.5247 75.692 88.5247 75.0247C88.5247 74.3487 88.659 73.755 88.9277 73.2437C89.205 72.7323 89.5864 72.3337 90.0717 72.0477C90.5657 71.7617 91.1377 71.6187 91.7877 71.6187C92.4204 71.6187 92.9707 71.7617 93.4387 72.0477C93.9067 72.325 94.2707 72.6977 94.5307 73.1657C94.7907 73.6337 94.9207 74.1493 94.9207 74.7127C94.9207 74.7993 94.9164 74.8947 94.9077 74.9987C94.9077 75.094 94.9034 75.2023 94.8947 75.3237H89.8767C89.92 75.9477 90.1237 76.4243 90.4877 76.7537C90.8604 77.0743 91.2894 77.2347 91.7747 77.2347C92.1647 77.2347 92.4897 77.148 92.7497 76.9747C93.0184 76.7927 93.2177 76.55 93.3477 76.2467H94.7257C94.5524 76.8533 94.2057 77.3603 93.6857 77.7677C93.1744 78.175 92.5374 78.3787 91.7747 78.3787ZM91.7747 72.7497C91.3154 72.7497 90.908 72.8883 90.5527 73.1657C90.1974 73.4343 89.9807 73.8417 89.9027 74.3877H93.5427C93.5167 73.885 93.339 73.4863 93.0097 73.1917C92.6804 72.897 92.2687 72.7497 91.7747 72.7497ZM96.3505 78.2227V71.7747H97.5725L97.6765 72.9057C97.8758 72.507 98.1662 72.195 98.5475 71.9697C98.9375 71.7357 99.3838 71.6187 99.8865 71.6187C100.666 71.6187 101.277 71.8613 101.719 72.3467C102.17 72.832 102.395 73.5557 102.395 74.5177V78.2227H101.03V74.6607C101.03 73.4127 100.519 72.7887 99.4965 72.7887C98.9852 72.7887 98.5605 72.9707 98.2225 73.3347C97.8932 73.6987 97.7285 74.2187 97.7285 74.8947V78.2227H96.3505ZM107.346 78.2227V69.1227H108.724V78.2227H107.346ZM110.518 78.2227V71.7747H111.74L111.844 72.9057C112.044 72.507 112.334 72.195 112.715 71.9697C113.105 71.7357 113.552 71.6187 114.054 71.6187C114.834 71.6187 115.445 71.8613 115.887 72.3467C116.338 72.832 116.563 73.5557 116.563 74.5177V78.2227H115.198V74.6607C115.198 73.4127 114.687 72.7887 113.664 72.7887C113.153 72.7887 112.728 72.9707 112.39 73.3347C112.061 73.6987 111.896 74.2187 111.896 74.8947V78.2227H110.518ZM120.89 78.2227C120.258 78.2227 119.755 78.071 119.382 77.7677C119.01 77.4557 118.823 76.9053 118.823 76.1167V72.9317H117.718V71.7747H118.823L118.992 70.1367H120.201V71.7747H122.021V72.9317H120.201V76.1167C120.201 76.472 120.275 76.719 120.422 76.8577C120.578 76.9877 120.843 77.0527 121.215 77.0527H121.956V78.2227H120.89ZM126.293 78.3787C125.661 78.3787 125.097 78.24 124.603 77.9627C124.118 77.6767 123.737 77.2823 123.459 76.7797C123.182 76.277 123.043 75.692 123.043 75.0247C123.043 74.3487 123.178 73.755 123.446 73.2437C123.724 72.7323 124.105 72.3337 124.59 72.0477C125.084 71.7617 125.656 71.6187 126.306 71.6187C126.939 71.6187 127.489 71.7617 127.957 72.0477C128.425 72.325 128.789 72.6977 129.049 73.1657C129.309 73.6337 129.439 74.1493 129.439 74.7127C129.439 74.7993 129.435 74.8947 129.426 74.9987C129.426 75.094 129.422 75.2023 129.413 75.3237H124.395C124.439 75.9477 124.642 76.4243 125.006 76.7537C125.379 77.0743 125.808 77.2347 126.293 77.2347C126.683 77.2347 127.008 77.148 127.268 76.9747C127.537 76.7927 127.736 76.55 127.866 76.2467H129.244C129.071 76.8533 128.724 77.3603 128.204 77.7677C127.693 78.175 127.056 78.3787 126.293 78.3787ZM126.293 72.7497C125.834 72.7497 125.427 72.8883 125.071 73.1657C124.716 73.4343 124.499 73.8417 124.421 74.3877H128.061C128.035 73.885 127.858 73.4863 127.528 73.1917C127.199 72.897 126.787 72.7497 126.293 72.7497ZM130.869 78.2227V71.7747H132.104L132.221 72.9967C132.446 72.572 132.758 72.2383 133.157 71.9957C133.564 71.7443 134.054 71.6187 134.626 71.6187V73.0617H134.249C133.868 73.0617 133.525 73.1267 133.222 73.2567C132.927 73.378 132.689 73.5903 132.507 73.8937C132.334 74.1883 132.247 74.6 132.247 75.1287V78.2227H130.869ZM135.808 78.2227V71.7747H137.03L137.134 72.9057C137.333 72.507 137.623 72.195 138.005 71.9697C138.395 71.7357 138.841 71.6187 139.344 71.6187C140.124 71.6187 140.735 71.8613 141.177 72.3467C141.627 72.832 141.853 73.5557 141.853 74.5177V78.2227H140.488V74.6607C140.488 73.4127 139.976 72.7887 138.954 72.7887C138.442 72.7887 138.018 72.9707 137.68 73.3347C137.35 73.6987 137.186 74.2187 137.186 74.8947V78.2227H135.808ZM146.049 78.3787C145.235 78.3787 144.563 78.1793 144.034 77.7807C143.506 77.382 143.202 76.8533 143.124 76.1947H144.515C144.585 76.4893 144.749 76.745 145.009 76.9617C145.269 77.1697 145.612 77.2737 146.036 77.2737C146.452 77.2737 146.756 77.187 146.946 77.0137C147.137 76.8403 147.232 76.641 147.232 76.4157C147.232 76.0863 147.098 75.8653 146.829 75.7527C146.569 75.6313 146.205 75.523 145.737 75.4277C145.373 75.3497 145.009 75.2457 144.645 75.1157C144.29 74.9857 143.991 74.8037 143.748 74.5697C143.514 74.327 143.397 74.002 143.397 73.5947C143.397 73.0313 143.614 72.5633 144.047 72.1907C144.481 71.8093 145.087 71.6187 145.867 71.6187C146.587 71.6187 147.167 71.792 147.609 72.1387C148.06 72.4853 148.324 72.975 148.402 73.6077H147.076C147.033 73.3303 146.903 73.1137 146.686 72.9577C146.478 72.8017 146.197 72.7237 145.841 72.7237C145.495 72.7237 145.226 72.7973 145.035 72.9447C144.845 73.0833 144.749 73.2653 144.749 73.4907C144.749 73.716 144.879 73.8937 145.139 74.0237C145.408 74.1537 145.759 74.2707 146.192 74.3747C146.626 74.47 147.024 74.5827 147.388 74.7127C147.761 74.834 148.06 75.016 148.285 75.2587C148.511 75.5013 148.623 75.8567 148.623 76.3247C148.632 76.914 148.402 77.4037 147.934 77.7937C147.475 78.1837 146.847 78.3787 146.049 78.3787ZM150.128 78.2227V68.8627H151.506V72.8147C151.723 72.442 152.022 72.1517 152.403 71.9437C152.793 71.727 153.222 71.6187 153.69 71.6187C154.461 71.6187 155.068 71.8613 155.51 72.3467C155.952 72.832 156.173 73.5557 156.173 74.5177V78.2227H154.808V74.6607C154.808 73.4127 154.31 72.7887 153.313 72.7887C152.793 72.7887 152.36 72.9707 152.013 73.3347C151.675 73.6987 151.506 74.2187 151.506 74.8947V78.2227H150.128ZM158.576 70.5527C158.316 70.5527 158.099 70.4747 157.926 70.3187C157.761 70.154 157.679 69.9503 157.679 69.7077C157.679 69.465 157.761 69.2657 157.926 69.1097C158.099 68.945 158.316 68.8627 158.576 68.8627C158.836 68.8627 159.048 68.945 159.213 69.1097C159.386 69.2657 159.473 69.465 159.473 69.7077C159.473 69.9503 159.386 70.154 159.213 70.3187C159.048 70.4747 158.836 70.5527 158.576 70.5527ZM157.887 78.2227V71.7747H159.265V78.2227H157.887ZM161.084 81.0827V71.7747H162.319L162.462 72.7757C162.67 72.4723 162.956 72.2037 163.32 71.9697C163.684 71.7357 164.152 71.6187 164.724 71.6187C165.348 71.6187 165.898 71.766 166.375 72.0607C166.852 72.3553 167.224 72.7583 167.493 73.2697C167.77 73.781 167.909 74.3617 167.909 75.0117C167.909 75.6617 167.77 76.2423 167.493 76.7537C167.224 77.2563 166.852 77.655 166.375 77.9497C165.898 78.2357 165.344 78.3787 164.711 78.3787C164.208 78.3787 163.762 78.279 163.372 78.0797C162.991 77.8803 162.687 77.5987 162.462 77.2347V81.0827H161.084ZM164.477 77.1827C165.066 77.1827 165.552 76.9833 165.933 76.5847C166.314 76.1773 166.505 75.6487 166.505 74.9987C166.505 74.574 166.418 74.197 166.245 73.8677C166.072 73.5383 165.833 73.2827 165.53 73.1007C165.227 72.91 164.876 72.8147 164.477 72.8147C163.888 72.8147 163.402 73.0183 163.021 73.4257C162.648 73.833 162.462 74.3573 162.462 74.9987C162.462 75.6487 162.648 76.1773 163.021 76.5847C163.402 76.9833 163.888 77.1827 164.477 77.1827ZM172.727 78.2227V69.1227H175.86C176.579 69.1227 177.168 69.244 177.628 69.4867C178.096 69.7293 178.442 70.0587 178.668 70.4747C178.893 70.882 179.006 71.337 179.006 71.8397C179.006 72.403 178.854 72.9143 178.551 73.3737C178.256 73.833 177.792 74.1623 177.16 74.3617L179.097 78.2227H177.498L175.73 74.5567H174.105V78.2227H172.727ZM174.105 73.5167H175.782C176.406 73.5167 176.861 73.365 177.147 73.0617C177.441 72.7583 177.589 72.364 177.589 71.8787C177.589 71.3933 177.446 71.0077 177.16 70.7217C176.874 70.427 176.41 70.2797 175.769 70.2797H174.105V73.5167ZM183.206 78.3787C182.574 78.3787 182.01 78.24 181.516 77.9627C181.031 77.6767 180.65 77.2823 180.372 76.7797C180.095 76.277 179.956 75.692 179.956 75.0247C179.956 74.3487 180.091 73.755 180.359 73.2437C180.637 72.7323 181.018 72.3337 181.503 72.0477C181.997 71.7617 182.569 71.6187 183.219 71.6187C183.852 71.6187 184.402 71.7617 184.87 72.0477C185.338 72.325 185.702 72.6977 185.962 73.1657C186.222 73.6337 186.352 74.1493 186.352 74.7127C186.352 74.7993 186.348 74.8947 186.339 74.9987C186.339 75.094 186.335 75.2023 186.326 75.3237H181.308C181.352 75.9477 181.555 76.4243 181.919 76.7537C182.292 77.0743 182.721 77.2347 183.206 77.2347C183.596 77.2347 183.921 77.148 184.181 76.9747C184.45 76.7927 184.649 76.55 184.779 76.2467H186.157C185.984 76.8533 185.637 77.3603 185.117 77.7677C184.606 78.175 183.969 78.3787 183.206 78.3787ZM183.206 72.7497C182.747 72.7497 182.34 72.8883 181.984 73.1657C181.629 73.4343 181.412 73.8417 181.334 74.3877H184.974C184.948 73.885 184.771 73.4863 184.441 73.1917C184.112 72.897 183.7 72.7497 183.206 72.7497ZM187.782 81.0827V71.7747H189.017L189.16 72.7757C189.368 72.4723 189.654 72.2037 190.018 71.9697C190.382 71.7357 190.85 71.6187 191.422 71.6187C192.046 71.6187 192.596 71.766 193.073 72.0607C193.55 72.3553 193.922 72.7583 194.191 73.2697C194.468 73.781 194.607 74.3617 194.607 75.0117C194.607 75.6617 194.468 76.2423 194.191 76.7537C193.922 77.2563 193.55 77.655 193.073 77.9497C192.596 78.2357 192.042 78.3787 191.409 78.3787C190.906 78.3787 190.46 78.279 190.07 78.0797C189.689 77.8803 189.385 77.5987 189.16 77.2347V81.0827H187.782ZM191.175 77.1827C191.764 77.1827 192.25 76.9833 192.631 76.5847C193.012 76.1773 193.203 75.6487 193.203 74.9987C193.203 74.574 193.116 74.197 192.943 73.8677C192.77 73.5383 192.531 73.2827 192.228 73.1007C191.925 72.91 191.574 72.8147 191.175 72.8147C190.586 72.8147 190.1 73.0183 189.719 73.4257C189.346 73.833 189.16 74.3573 189.16 74.9987C189.16 75.6487 189.346 76.1773 189.719 76.5847C190.1 76.9833 190.586 77.1827 191.175 77.1827ZM199.114 78.3787C198.498 78.3787 197.944 78.24 197.45 77.9627C196.964 77.6767 196.579 77.2823 196.293 76.7797C196.007 76.2683 195.864 75.6747 195.864 74.9987C195.864 74.3227 196.007 73.7333 196.293 73.2307C196.587 72.7193 196.982 72.325 197.476 72.0477C197.97 71.7617 198.52 71.6187 199.127 71.6187C199.742 71.6187 200.292 71.7617 200.778 72.0477C201.272 72.325 201.662 72.7193 201.948 73.2307C202.242 73.7333 202.39 74.3227 202.39 74.9987C202.39 75.6747 202.242 76.2683 201.948 76.7797C201.662 77.2823 201.272 77.6767 200.778 77.9627C200.284 78.24 199.729 78.3787 199.114 78.3787ZM199.114 77.1957C199.443 77.1957 199.746 77.1133 200.024 76.9487C200.31 76.784 200.539 76.5413 200.713 76.2207C200.886 75.8913 200.973 75.484 200.973 74.9987C200.973 74.5133 200.886 74.1103 200.713 73.7897C200.548 73.4603 200.323 73.2133 200.037 73.0487C199.759 72.884 199.456 72.8017 199.127 72.8017C198.797 72.8017 198.49 72.884 198.204 73.0487C197.926 73.2133 197.701 73.4603 197.528 73.7897C197.354 74.1103 197.268 74.5133 197.268 74.9987C197.268 75.484 197.354 75.8913 197.528 76.2207C197.701 76.5413 197.926 76.784 198.204 76.9487C198.481 77.1133 198.784 77.1957 199.114 77.1957ZM203.88 78.2227V71.7747H205.115L205.232 72.9967C205.457 72.572 205.769 72.2383 206.168 71.9957C206.575 71.7443 207.065 71.6187 207.637 71.6187V73.0617H207.26C206.878 73.0617 206.536 73.1267 206.233 73.2567C205.938 73.378 205.7 73.5903 205.518 73.8937C205.344 74.1883 205.258 74.6 205.258 75.1287V78.2227H203.88ZM211.522 78.2227C210.89 78.2227 210.387 78.071 210.014 77.7677C209.642 77.4557 209.455 76.9053 209.455 76.1167V72.9317H208.35V71.7747H209.455L209.624 70.1367H210.833V71.7747H212.653V72.9317H210.833V76.1167C210.833 76.472 210.907 76.719 211.054 76.8577C211.21 76.9877 211.475 77.0527 211.847 77.0527H212.588V78.2227H211.522ZM217.402 78.2227V69.1227H218.78V78.2227H217.402Z" fill="#232360"/>
<path d="M25.8715 108.137V99.7367H28.7635C29.4275 99.7367 29.9715 99.8487 30.3955 100.073C30.8275 100.297 31.1475 100.601 31.3555 100.985C31.5635 101.361 31.6675 101.781 31.6675 102.245C31.6675 102.765 31.5275 103.237 31.2475 103.661C30.9755 104.085 30.5475 104.389 29.9635 104.573L31.7515 108.137H30.2755L28.6435 104.753H27.1435V108.137H25.8715ZM27.1435 103.793H28.6915C29.2675 103.793 29.6875 103.653 29.9515 103.373C30.2235 103.093 30.3595 102.729 30.3595 102.281C30.3595 101.833 30.2275 101.477 29.9635 101.213C29.6995 100.941 29.2715 100.805 28.6795 100.805H27.1435V103.793ZM35.545 108.281C34.961 108.281 34.441 108.153 33.985 107.897C33.537 107.633 33.185 107.269 32.929 106.805C32.673 106.341 32.545 105.801 32.545 105.185C32.545 104.561 32.669 104.013 32.917 103.541C33.173 103.069 33.525 102.701 33.973 102.437C34.429 102.173 34.957 102.041 35.557 102.041C36.141 102.041 36.649 102.173 37.081 102.437C37.513 102.693 37.849 103.037 38.089 103.469C38.329 103.901 38.449 104.377 38.449 104.897C38.449 104.977 38.445 105.065 38.437 105.161C38.437 105.249 38.433 105.349 38.425 105.461H33.793C33.833 106.037 34.021 106.477 34.357 106.781C34.701 107.077 35.097 107.225 35.545 107.225C35.905 107.225 36.205 107.145 36.445 106.985C36.693 106.817 36.877 106.593 36.997 106.313H38.269C38.109 106.873 37.789 107.341 37.309 107.717C36.837 108.093 36.249 108.281 35.545 108.281ZM35.545 103.085C35.121 103.085 34.745 103.213 34.417 103.469C34.089 103.717 33.889 104.093 33.817 104.597H37.177C37.153 104.133 36.989 103.765 36.685 103.493C36.381 103.221 36.001 103.085 35.545 103.085ZM39.7688 110.777V102.185H40.9088L41.0408 103.109C41.2328 102.829 41.4968 102.581 41.8328 102.365C42.1688 102.149 42.6008 102.041 43.1288 102.041C43.7048 102.041 44.2128 102.177 44.6528 102.449C45.0928 102.721 45.4368 103.093 45.6848 103.565C45.9408 104.037 46.0688 104.573 46.0688 105.173C46.0688 105.773 45.9408 106.309 45.6848 106.781C45.4368 107.245 45.0928 107.613 44.6528 107.885C44.2128 108.149 43.7008 108.281 43.1168 108.281C42.6528 108.281 42.2408 108.189 41.8808 108.005C41.5288 107.821 41.2488 107.561 41.0408 107.225V110.777H39.7688ZM42.9008 107.177C43.4448 107.177 43.8928 106.993 44.2448 106.625C44.5968 106.249 44.7728 105.761 44.7728 105.161C44.7728 104.769 44.6928 104.421 44.5328 104.117C44.3728 103.813 44.1528 103.577 43.8728 103.409C43.5928 103.233 43.2688 103.145 42.9008 103.145C42.3568 103.145 41.9088 103.333 41.5568 103.709C41.2128 104.085 41.0408 104.569 41.0408 105.161C41.0408 105.761 41.2128 106.249 41.5568 106.625C41.9088 106.993 42.3568 107.177 42.9008 107.177ZM50.2286 108.281C49.6606 108.281 49.1486 108.153 48.6926 107.897C48.2446 107.633 47.8886 107.269 47.6246 106.805C47.3606 106.333 47.2286 105.785 47.2286 105.161C47.2286 104.537 47.3606 103.993 47.6246 103.529C47.8966 103.057 48.2606 102.693 48.7166 102.437C49.1726 102.173 49.6806 102.041 50.2406 102.041C50.8086 102.041 51.3166 102.173 51.7646 102.437C52.2206 102.693 52.5806 103.057 52.8446 103.529C53.1166 103.993 53.2526 104.537 53.2526 105.161C53.2526 105.785 53.1166 106.333 52.8446 106.805C52.5806 107.269 52.2206 107.633 51.7646 107.897C51.3086 108.153 50.7966 108.281 50.2286 108.281ZM50.2286 107.189C50.5326 107.189 50.8126 107.113 51.0686 106.961C51.3326 106.809 51.5446 106.585 51.7046 106.289C51.8646 105.985 51.9446 105.609 51.9446 105.161C51.9446 104.713 51.8646 104.341 51.7046 104.045C51.5526 103.741 51.3446 103.513 51.0806 103.361C50.8246 103.209 50.5446 103.133 50.2406 103.133C49.9366 103.133 49.6526 103.209 49.3886 103.361C49.1326 103.513 48.9246 103.741 48.7646 104.045C48.6046 104.341 48.5246 104.713 48.5246 105.161C48.5246 105.609 48.6046 105.985 48.7646 106.289C48.9246 106.585 49.1326 106.809 49.3886 106.961C49.6446 107.113 49.9246 107.189 50.2286 107.189ZM54.6282 108.137V102.185H55.7682L55.8762 103.313C56.0842 102.921 56.3722 102.613 56.7402 102.389C57.1162 102.157 57.5682 102.041 58.0962 102.041V103.373H57.7482C57.3962 103.373 57.0802 103.433 56.8002 103.553C56.5282 103.665 56.3082 103.861 56.1402 104.141C55.9802 104.413 55.9002 104.793 55.9002 105.281V108.137H54.6282ZM61.6828 108.137C61.0988 108.137 60.6348 107.997 60.2908 107.717C59.9468 107.429 59.7748 106.921 59.7748 106.193V103.253H58.7548V102.185H59.7748L59.9308 100.673H61.0468V102.185H62.7268V103.253H61.0468V106.193C61.0468 106.521 61.1148 106.749 61.2508 106.877C61.3948 106.997 61.6388 107.057 61.9828 107.057H62.6668V108.137H61.6828ZM69.0778 108.281C68.5738 108.281 68.1578 108.197 67.8298 108.029C67.5018 107.861 67.2578 107.641 67.0978 107.369C66.9378 107.089 66.8578 106.785 66.8578 106.457C66.8578 105.881 67.0818 105.425 67.5298 105.089C67.9778 104.753 68.6178 104.585 69.4498 104.585H71.0098V104.477C71.0098 104.013 70.8818 103.665 70.6258 103.433C70.3778 103.201 70.0538 103.085 69.6538 103.085C69.3018 103.085 68.9938 103.173 68.7298 103.349C68.4738 103.517 68.3178 103.769 68.2618 104.105H66.9898C67.0298 103.673 67.1738 103.305 67.4218 103.001C67.6778 102.689 67.9978 102.453 68.3818 102.293C68.7738 102.125 69.2018 102.041 69.6658 102.041C70.4978 102.041 71.1418 102.261 71.5978 102.701C72.0538 103.133 72.2818 103.725 72.2818 104.477V108.137H71.1778L71.0698 107.117C70.9018 107.445 70.6578 107.721 70.3378 107.945C70.0178 108.169 69.5978 108.281 69.0778 108.281ZM69.3298 107.249C69.6738 107.249 69.9618 107.169 70.1938 107.009C70.4338 106.841 70.6178 106.621 70.7458 106.349C70.8818 106.077 70.9658 105.777 70.9978 105.449H69.5818C69.0778 105.449 68.7178 105.537 68.5018 105.713C68.2938 105.889 68.1898 106.109 68.1898 106.373C68.1898 106.645 68.2898 106.861 68.4898 107.021C68.6978 107.173 68.9778 107.249 69.3298 107.249ZM73.7649 108.137V102.185H74.8929L74.9889 103.229C75.1729 102.861 75.4409 102.573 75.7929 102.365C76.1529 102.149 76.5649 102.041 77.0289 102.041C77.7489 102.041 78.3129 102.265 78.7209 102.713C79.1369 103.161 79.3449 103.829 79.3449 104.717V108.137H78.0849V104.849C78.0849 103.697 77.6129 103.121 76.6689 103.121C76.1969 103.121 75.8049 103.289 75.4929 103.625C75.1889 103.961 75.0369 104.441 75.0369 105.065V108.137H73.7649ZM83.5551 108.281C82.9791 108.281 82.4711 108.145 82.0311 107.873C81.5911 107.601 81.2471 107.229 80.9991 106.757C80.7511 106.285 80.6271 105.749 80.6271 105.149C80.6271 104.549 80.7511 104.017 80.9991 103.553C81.2471 103.081 81.5911 102.713 82.0311 102.449C82.4791 102.177 82.9911 102.041 83.5671 102.041C84.0391 102.041 84.4511 102.133 84.8031 102.317C85.1631 102.501 85.4431 102.761 85.6431 103.097V99.4967H86.9151V108.137H85.7751L85.6431 107.213C85.4511 107.493 85.1871 107.741 84.8511 107.957C84.5151 108.173 84.0831 108.281 83.5551 108.281ZM83.7831 107.177C84.3271 107.177 84.7711 106.989 85.1151 106.613C85.4671 106.237 85.6431 105.753 85.6431 105.161C85.6431 104.561 85.4671 104.077 85.1151 103.709C84.7711 103.333 84.3271 103.145 83.7831 103.145C83.2391 103.145 82.7911 103.333 82.4391 103.709C82.0871 104.077 81.9111 104.561 81.9111 105.161C81.9111 105.553 81.9911 105.901 82.1511 106.205C82.3111 106.509 82.5311 106.749 82.8111 106.925C83.0991 107.093 83.4231 107.177 83.7831 107.177ZM91.5423 108.137V102.185H92.6823L92.7903 103.313C92.9983 102.921 93.2863 102.613 93.6543 102.389C94.0303 102.157 94.4823 102.041 95.0103 102.041V103.373H94.6623C94.3103 103.373 93.9943 103.433 93.7143 103.553C93.4423 103.665 93.2223 103.861 93.0543 104.141C92.8943 104.413 92.8143 104.793 92.8143 105.281V108.137H91.5423ZM98.7208 108.281C98.1368 108.281 97.6168 108.153 97.1608 107.897C96.7128 107.633 96.3608 107.269 96.1048 106.805C95.8488 106.341 95.7208 105.801 95.7208 105.185C95.7208 104.561 95.8448 104.013 96.0928 103.541C96.3488 103.069 96.7008 102.701 97.1488 102.437C97.6048 102.173 98.1328 102.041 98.7328 102.041C99.3168 102.041 99.8248 102.173 100.257 102.437C100.689 102.693 101.025 103.037 101.265 103.469C101.505 103.901 101.625 104.377 101.625 104.897C101.625 104.977 101.621 105.065 101.613 105.161C101.613 105.249 101.609 105.349 101.601 105.461H96.9688C97.0088 106.037 97.1968 106.477 97.5328 106.781C97.8768 107.077 98.2728 107.225 98.7208 107.225C99.0808 107.225 99.3808 107.145 99.6208 106.985C99.8688 106.817 100.053 106.593 100.173 106.313H101.445C101.285 106.873 100.965 107.341 100.485 107.717C100.013 108.093 99.4248 108.281 98.7208 108.281ZM98.7208 103.085C98.2968 103.085 97.9208 103.213 97.5928 103.469C97.2648 103.717 97.0648 104.093 96.9928 104.597H100.353C100.329 104.133 100.165 103.765 99.8608 103.493C99.5568 103.221 99.1768 103.085 98.7208 103.085ZM103.245 108.137V103.253H102.393V102.185H103.245V101.321C103.245 100.673 103.405 100.209 103.725 99.9287C104.053 99.6407 104.513 99.4967 105.105 99.4967H105.729V100.577H105.297C105.017 100.577 104.817 100.637 104.697 100.757C104.577 100.869 104.517 101.061 104.517 101.333V102.185H105.885V103.253H104.517V108.137H103.245ZM109.643 108.281C109.059 108.281 108.539 108.153 108.083 107.897C107.635 107.633 107.283 107.269 107.027 106.805C106.771 106.341 106.643 105.801 106.643 105.185C106.643 104.561 106.767 104.013 107.015 103.541C107.271 103.069 107.623 102.701 108.071 102.437C108.527 102.173 109.055 102.041 109.655 102.041C110.239 102.041 110.747 102.173 111.179 102.437C111.611 102.693 111.947 103.037 112.187 103.469C112.427 103.901 112.547 104.377 112.547 104.897C112.547 104.977 112.543 105.065 112.535 105.161C112.535 105.249 112.531 105.349 112.523 105.461H107.891C107.931 106.037 108.119 106.477 108.455 106.781C108.799 107.077 109.195 107.225 109.643 107.225C110.003 107.225 110.303 107.145 110.543 106.985C110.791 106.817 110.975 106.593 111.095 106.313H112.367C112.207 106.873 111.887 107.341 111.407 107.717C110.935 108.093 110.347 108.281 109.643 108.281ZM109.643 103.085C109.219 103.085 108.843 103.213 108.515 103.469C108.187 103.717 107.987 104.093 107.915 104.597H111.275C111.251 104.133 111.087 103.765 110.783 103.493C110.479 103.221 110.099 103.085 109.643 103.085ZM116.687 108.281C116.103 108.281 115.579 108.149 115.115 107.885C114.659 107.621 114.299 107.257 114.035 106.793C113.779 106.321 113.651 105.777 113.651 105.161C113.651 104.545 113.779 104.005 114.035 103.541C114.299 103.069 114.659 102.701 115.115 102.437C115.579 102.173 116.103 102.041 116.687 102.041C117.423 102.041 118.039 102.233 118.535 102.617C119.039 103.001 119.363 103.521 119.507 104.177H118.175C118.095 103.849 117.919 103.593 117.647 103.409C117.375 103.225 117.055 103.133 116.687 103.133C116.375 103.133 116.087 103.213 115.823 103.373C115.559 103.525 115.347 103.753 115.187 104.057C115.027 104.353 114.947 104.721 114.947 105.161C114.947 105.601 115.027 105.973 115.187 106.277C115.347 106.573 115.559 106.801 115.823 106.961C116.087 107.121 116.375 107.201 116.687 107.201C117.055 107.201 117.375 107.109 117.647 106.925C117.919 106.741 118.095 106.481 118.175 106.145H119.507C119.371 106.785 119.051 107.301 118.547 107.693C118.043 108.085 117.423 108.281 116.687 108.281ZM123.265 108.137C122.681 108.137 122.217 107.997 121.873 107.717C121.529 107.429 121.357 106.921 121.357 106.193V103.253H120.337V102.185H121.357L121.513 100.673H122.629V102.185H124.309V103.253H122.629V106.193C122.629 106.521 122.697 106.749 122.833 106.877C122.977 106.997 123.221 107.057 123.565 107.057H124.249V108.137H123.265ZM131.14 108.137C130.556 108.137 130.092 107.997 129.748 107.717C129.404 107.429 129.232 106.921 129.232 106.193V103.253H128.212V102.185H129.232L129.388 100.673H130.504V102.185H132.184V103.253H130.504V106.193C130.504 106.521 130.572 106.749 130.708 106.877C130.852 106.997 131.096 107.057 131.44 107.057H132.124V108.137H131.14ZM133.495 108.137V99.4967H134.767V103.145C134.967 102.801 135.243 102.533 135.595 102.341C135.955 102.141 136.351 102.041 136.783 102.041C137.495 102.041 138.055 102.265 138.463 102.713C138.871 103.161 139.075 103.829 139.075 104.717V108.137H137.815V104.849C137.815 103.697 137.355 103.121 136.435 103.121C135.955 103.121 135.555 103.289 135.235 103.625C134.923 103.961 134.767 104.441 134.767 105.065V108.137H133.495ZM143.358 108.281C142.774 108.281 142.254 108.153 141.798 107.897C141.35 107.633 140.998 107.269 140.742 106.805C140.486 106.341 140.358 105.801 140.358 105.185C140.358 104.561 140.482 104.013 140.73 103.541C140.986 103.069 141.338 102.701 141.786 102.437C142.242 102.173 142.77 102.041 143.37 102.041C143.954 102.041 144.462 102.173 144.894 102.437C145.326 102.693 145.662 103.037 145.902 103.469C146.142 103.901 146.262 104.377 146.262 104.897C146.262 104.977 146.258 105.065 146.25 105.161C146.25 105.249 146.246 105.349 146.238 105.461H141.606C141.646 106.037 141.834 106.477 142.17 106.781C142.514 107.077 142.91 107.225 143.358 107.225C143.718 107.225 144.018 107.145 144.258 106.985C144.506 106.817 144.69 106.593 144.81 106.313H146.082C145.922 106.873 145.602 107.341 145.122 107.717C144.65 108.093 144.062 108.281 143.358 108.281ZM143.358 103.085C142.934 103.085 142.558 103.213 142.23 103.469C141.902 103.717 141.702 104.093 141.63 104.597H144.99C144.966 104.133 144.802 103.765 144.498 103.493C144.194 103.221 143.814 103.085 143.358 103.085ZM151.517 108.137V101.177L150.161 101.489V100.553L152.021 99.7367H152.837V108.137H151.517ZM156.871 108.281C156.119 108.281 155.499 108.097 155.011 107.729C154.523 107.361 154.243 106.873 154.171 106.265H155.455C155.519 106.537 155.671 106.773 155.911 106.973C156.151 107.165 156.467 107.261 156.859 107.261C157.243 107.261 157.523 107.181 157.699 107.021C157.875 106.861 157.963 106.677 157.963 106.469C157.963 106.165 157.839 105.961 157.591 105.857C157.351 105.745 157.015 105.645 156.583 105.557C156.247 105.485 155.911 105.389 155.575 105.269C155.247 105.149 154.971 104.981 154.747 104.765C154.531 104.541 154.423 104.241 154.423 103.865C154.423 103.345 154.623 102.913 155.023 102.569C155.423 102.217 155.983 102.041 156.703 102.041C157.367 102.041 157.903 102.201 158.311 102.521C158.727 102.841 158.971 103.293 159.043 103.877H157.819C157.779 103.621 157.659 103.421 157.459 103.277C157.267 103.133 157.007 103.061 156.679 103.061C156.359 103.061 156.111 103.129 155.935 103.265C155.759 103.393 155.671 103.561 155.671 103.769C155.671 103.977 155.791 104.141 156.031 104.261C156.279 104.381 156.603 104.489 157.003 104.585C157.403 104.673 157.771 104.777 158.107 104.897C158.451 105.009 158.727 105.177 158.935 105.401C159.143 105.625 159.247 105.953 159.247 106.385C159.255 106.929 159.043 107.381 158.611 107.741C158.187 108.101 157.607 108.281 156.871 108.281ZM162.909 108.137C162.325 108.137 161.861 107.997 161.517 107.717C161.173 107.429 161.001 106.921 161.001 106.193V103.253H159.981V102.185H161.001L161.157 100.673H162.273V102.185H163.953V103.253H162.273V106.193C162.273 106.521 162.341 106.749 162.477 106.877C162.621 106.997 162.865 107.057 163.209 107.057H163.893V108.137H162.909ZM169.476 108.137L167.724 102.185H168.996L170.148 106.673L171.444 102.185H172.86L174.156 106.673L175.308 102.185H176.58L174.828 108.137H173.52L172.152 103.457L170.784 108.137H169.476ZM180.19 108.281C179.606 108.281 179.086 108.153 178.63 107.897C178.182 107.633 177.83 107.269 177.574 106.805C177.318 106.341 177.19 105.801 177.19 105.185C177.19 104.561 177.314 104.013 177.562 103.541C177.818 103.069 178.17 102.701 178.618 102.437C179.074 102.173 179.602 102.041 180.202 102.041C180.786 102.041 181.294 102.173 181.726 102.437C182.158 102.693 182.494 103.037 182.734 103.469C182.974 103.901 183.094 104.377 183.094 104.897C183.094 104.977 183.09 105.065 183.082 105.161C183.082 105.249 183.078 105.349 183.07 105.461H178.438C178.478 106.037 178.666 106.477 179.002 106.781C179.346 107.077 179.742 107.225 180.19 107.225C180.55 107.225 180.85 107.145 181.09 106.985C181.338 106.817 181.522 106.593 181.642 106.313H182.914C182.754 106.873 182.434 107.341 181.954 107.717C181.482 108.093 180.894 108.281 180.19 108.281ZM180.19 103.085C179.766 103.085 179.39 103.213 179.062 103.469C178.734 103.717 178.534 104.093 178.462 104.597H181.822C181.798 104.133 181.634 103.765 181.33 103.493C181.026 103.221 180.646 103.085 180.19 103.085ZM187.197 108.281C186.613 108.281 186.093 108.153 185.637 107.897C185.189 107.633 184.837 107.269 184.581 106.805C184.325 106.341 184.197 105.801 184.197 105.185C184.197 104.561 184.321 104.013 184.569 103.541C184.825 103.069 185.177 102.701 185.625 102.437C186.081 102.173 186.609 102.041 187.209 102.041C187.793 102.041 188.301 102.173 188.733 102.437C189.165 102.693 189.501 103.037 189.741 103.469C189.981 103.901 190.101 104.377 190.101 104.897C190.101 104.977 190.097 105.065 190.089 105.161C190.089 105.249 190.085 105.349 190.077 105.461H185.445C185.485 106.037 185.673 106.477 186.009 106.781C186.353 107.077 186.749 107.225 187.197 107.225C187.557 107.225 187.857 107.145 188.097 106.985C188.345 106.817 188.529 106.593 188.649 106.313H189.921C189.761 106.873 189.441 107.341 188.961 107.717C188.489 108.093 187.901 108.281 187.197 108.281ZM187.197 103.085C186.773 103.085 186.397 103.213 186.069 103.469C185.741 103.717 185.541 104.093 185.469 104.597H188.829C188.805 104.133 188.641 103.765 188.337 103.493C188.033 103.221 187.653 103.085 187.197 103.085ZM191.421 108.137V99.4967H192.693V104.645L194.973 102.185H196.497L193.965 104.885L196.869 108.137H195.261L192.693 105.089V108.137H191.421ZM203.662 108.281C203.094 108.281 202.582 108.153 202.126 107.897C201.678 107.633 201.322 107.269 201.058 106.805C200.794 106.333 200.662 105.785 200.662 105.161C200.662 104.537 200.794 103.993 201.058 103.529C201.33 103.057 201.694 102.693 202.15 102.437C202.606 102.173 203.114 102.041 203.674 102.041C204.242 102.041 204.75 102.173 205.198 102.437C205.654 102.693 206.014 103.057 206.278 103.529C206.55 103.993 206.686 104.537 206.686 105.161C206.686 105.785 206.55 106.333 206.278 106.805C206.014 107.269 205.654 107.633 205.198 107.897C204.742 108.153 204.23 108.281 203.662 108.281ZM203.662 107.189C203.966 107.189 204.246 107.113 204.502 106.961C204.766 106.809 204.978 106.585 205.138 106.289C205.298 105.985 205.378 105.609 205.378 105.161C205.378 104.713 205.298 104.341 205.138 104.045C204.986 103.741 204.778 103.513 204.514 103.361C204.258 103.209 203.978 103.133 203.674 103.133C203.37 103.133 203.086 103.209 202.822 103.361C202.566 103.513 202.358 103.741 202.198 104.045C202.038 104.341 201.958 104.713 201.958 105.161C201.958 105.609 202.038 105.985 202.198 106.289C202.358 106.585 202.566 106.809 202.822 106.961C203.078 107.113 203.358 107.189 203.662 107.189ZM208.362 108.137V103.253H207.51V102.185H208.362V101.321C208.362 100.673 208.522 100.209 208.842 99.9287C209.17 99.6407 209.63 99.4967 210.222 99.4967H210.846V100.577H210.414C210.134 100.577 209.934 100.637 209.814 100.757C209.694 100.869 209.634 101.061 209.634 101.333V102.185H211.002V103.253H209.634V108.137H208.362ZM215.93 110.777L217.358 107.645H217.01L214.658 102.185H216.038L217.862 106.589L219.77 102.185H221.114L217.274 110.777H215.93ZM224.404 108.281C223.836 108.281 223.324 108.153 222.868 107.897C222.42 107.633 222.064 107.269 221.8 106.805C221.536 106.333 221.404 105.785 221.404 105.161C221.404 104.537 221.536 103.993 221.8 103.529C222.072 103.057 222.436 102.693 222.892 102.437C223.348 102.173 223.856 102.041 224.416 102.041C224.984 102.041 225.492 102.173 225.94 102.437C226.396 102.693 226.756 103.057 227.02 103.529C227.292 103.993 227.428 104.537 227.428 105.161C227.428 105.785 227.292 106.333 227.02 106.805C226.756 107.269 226.396 107.633 225.94 107.897C225.484 108.153 224.972 108.281 224.404 108.281ZM224.404 107.189C224.708 107.189 224.988 107.113 225.244 106.961C225.508 106.809 225.72 106.585 225.88 106.289C226.04 105.985 226.12 105.609 226.12 105.161C226.12 104.713 226.04 104.341 225.88 104.045C225.728 103.741 225.52 103.513 225.256 103.361C225 103.209 224.72 103.133 224.416 103.133C224.112 103.133 223.828 103.209 223.564 103.361C223.308 103.513 223.1 103.741 222.94 104.045C222.78 104.341 222.7 104.713 222.7 105.161C222.7 105.609 222.78 105.985 222.94 106.289C223.1 106.585 223.308 106.809 223.564 106.961C223.82 107.113 224.1 107.189 224.404 107.189ZM231 108.281C230.28 108.281 229.712 108.057 229.296 107.609C228.888 107.161 228.684 106.493 228.684 105.605V102.185H229.956V105.473C229.956 106.625 230.428 107.201 231.372 107.201C231.844 107.201 232.232 107.033 232.536 106.697C232.84 106.361 232.992 105.881 232.992 105.257V102.185H234.264V108.137H233.136L233.04 107.093C232.856 107.461 232.584 107.753 232.224 107.969C231.872 108.177 231.464 108.281 231 108.281ZM235.882 108.137V102.185H237.022L237.13 103.313C237.338 102.921 237.626 102.613 237.994 102.389C238.37 102.157 238.822 102.041 239.35 102.041V103.373H239.002C238.65 103.373 238.334 103.433 238.054 103.553C237.782 103.665 237.562 103.861 237.394 104.141C237.234 104.413 237.154 104.793 237.154 105.281V108.137H235.882ZM244.184 101.057C243.944 101.057 243.744 100.985 243.584 100.841C243.432 100.689 243.356 100.501 243.356 100.277C243.356 100.053 243.432 99.8687 243.584 99.7247C243.744 99.5727 243.944 99.4967 244.184 99.4967C244.424 99.4967 244.62 99.5727 244.772 99.7247C244.932 99.8687 245.012 100.053 245.012 100.277C245.012 100.501 244.932 100.689 244.772 100.841C244.62 100.985 244.424 101.057 244.184 101.057ZM243.548 108.137V102.185H244.82V108.137H243.548ZM246.499 108.137V102.185H247.627L247.723 103.229C247.907 102.861 248.175 102.573 248.527 102.365C248.887 102.149 249.299 102.041 249.763 102.041C250.483 102.041 251.047 102.265 251.455 102.713C251.871 103.161 252.079 103.829 252.079 104.717V108.137H250.819V104.849C250.819 103.697 250.347 103.121 249.403 103.121C248.931 103.121 248.539 103.289 248.227 103.625C247.923 103.961 247.771 104.441 247.771 105.065V108.137H246.499ZM254.081 108.209C253.841 108.209 253.641 108.133 253.481 107.981C253.329 107.821 253.253 107.633 253.253 107.417C253.253 107.193 253.329 107.005 253.481 106.853C253.641 106.693 253.841 106.613 254.081 106.613C254.321 106.613 254.517 106.693 254.669 106.853C254.821 107.005 254.897 107.193 254.897 107.417C254.897 107.633 254.821 107.821 254.669 107.981C254.517 108.133 254.321 108.209 254.081 108.209ZM256.683 108.209C256.443 108.209 256.243 108.133 256.083 107.981C255.931 107.821 255.855 107.633 255.855 107.417C255.855 107.193 255.931 107.005 256.083 106.853C256.243 106.693 256.443 106.613 256.683 106.613C256.923 106.613 257.119 106.693 257.271 106.853C257.423 107.005 257.499 107.193 257.499 107.417C257.499 107.633 257.423 107.821 257.271 107.981C257.119 108.133 256.923 108.209 256.683 108.209ZM259.285 108.209C259.045 108.209 258.845 108.133 258.685 107.981C258.533 107.821 258.457 107.633 258.457 107.417C258.457 107.193 258.533 107.005 258.685 106.853C258.845 106.693 259.045 106.613 259.285 106.613C259.525 106.613 259.721 106.693 259.873 106.853C260.025 107.005 260.101 107.193 260.101 107.417C260.101 107.633 260.025 107.821 259.873 107.981C259.721 108.133 259.525 108.209 259.285 108.209Z" fill="#768396"/>
<rect x="24.5" y="136.5" width="152" height="26" rx="3.5" stroke="#E2E2E2"/>
<path d="M37.252 153.144C36.732 153.144 36.268 153.06 35.86 152.892C35.46 152.724 35.144 152.476 34.912 152.148C34.68 151.82 34.564 151.42 34.564 150.948C34.564 150.396 34.74 149.896 35.092 149.448C35.444 149 35.908 148.68 36.484 148.488C36.164 148.336 35.912 148.132 35.728 147.876C35.552 147.612 35.464 147.316 35.464 146.988C35.464 146.492 35.608 146.056 35.896 145.68C36.192 145.296 36.584 144.996 37.072 144.78C37.568 144.564 38.124 144.456 38.74 144.456C39.532 144.456 40.132 144.636 40.54 144.996C40.956 145.356 41.164 145.824 41.164 146.4C41.164 146.76 41.084 147.08 40.924 147.36C40.764 147.632 40.56 147.864 40.312 148.056C40.064 148.24 39.808 148.384 39.544 148.488C39.936 148.64 40.228 148.872 40.42 149.184C40.612 149.496 40.708 149.856 40.708 150.264C40.708 150.848 40.548 151.356 40.228 151.788C39.916 152.22 39.496 152.556 38.968 152.796C38.448 153.028 37.876 153.144 37.252 153.144ZM38.14 148.032C38.388 148.032 38.624 147.98 38.848 147.876C39.072 147.764 39.256 147.608 39.4 147.408C39.544 147.208 39.616 146.968 39.616 146.688C39.616 146.344 39.504 146.096 39.28 145.944C39.064 145.784 38.8 145.704 38.488 145.704C38.072 145.704 37.716 145.828 37.42 146.076C37.124 146.324 36.976 146.64 36.976 147.024C36.976 147.352 37.084 147.604 37.3 147.78C37.524 147.948 37.804 148.032 38.14 148.032ZM37.444 151.86C37.772 151.86 38.068 151.792 38.332 151.656C38.596 151.52 38.804 151.336 38.956 151.104C39.116 150.864 39.196 150.596 39.196 150.3C39.196 149.94 39.072 149.664 38.824 149.472C38.584 149.272 38.268 149.172 37.876 149.172C37.556 149.172 37.26 149.24 36.988 149.376C36.724 149.504 36.512 149.684 36.352 149.916C36.192 150.148 36.112 150.416 36.112 150.72C36.112 151.056 36.228 151.332 36.46 151.548C36.692 151.756 37.02 151.86 37.444 151.86ZM48.9023 153.144C48.1903 153.144 47.5623 152.988 47.0183 152.676C46.4743 152.364 46.0463 151.936 45.7343 151.392C45.4303 150.84 45.2783 150.216 45.2783 149.52C45.2783 148.816 45.4063 148.16 45.6623 147.552C45.9263 146.936 46.2863 146.396 46.7423 145.932C47.2063 145.468 47.7423 145.108 48.3503 144.852C48.9663 144.588 49.6223 144.456 50.3183 144.456C51.0303 144.456 51.6583 144.612 52.2023 144.924C52.7463 145.236 53.1703 145.664 53.4743 146.208C53.7863 146.752 53.9423 147.372 53.9423 148.068C53.9423 148.772 53.8103 149.432 53.5463 150.048C53.2903 150.664 52.9303 151.204 52.4663 151.668C52.0023 152.132 51.4663 152.496 50.8583 152.76C50.2503 153.016 49.5983 153.144 48.9023 153.144ZM49.0943 151.764C49.5423 151.764 49.9623 151.676 50.3543 151.5C50.7463 151.316 51.0903 151.06 51.3863 150.732C51.6903 150.404 51.9263 150.024 52.0943 149.592C52.2703 149.16 52.3583 148.696 52.3583 148.2C52.3583 147.48 52.1623 146.908 51.7703 146.484C51.3783 146.052 50.8343 145.836 50.1383 145.836C49.6823 145.836 49.2583 145.928 48.8663 146.112C48.4743 146.296 48.1263 146.548 47.8223 146.868C47.5263 147.188 47.2903 147.564 47.1143 147.996C46.9463 148.428 46.8623 148.892 46.8623 149.388C46.8623 150.108 47.0623 150.684 47.4623 151.116C47.8623 151.548 48.4063 151.764 49.0943 151.764ZM57.3468 153.144C56.8188 153.144 56.3588 153.04 55.9668 152.832C55.5748 152.616 55.2708 152.316 55.0548 151.932C54.8468 151.548 54.7428 151.1 54.7428 150.588C54.7428 150.076 54.8348 149.596 55.0188 149.148C55.2028 148.7 55.4628 148.308 55.7988 147.972C56.1348 147.636 56.5268 147.376 56.9748 147.192C57.4228 147 57.9108 146.904 58.4388 146.904C59.2068 146.904 59.8188 147.108 60.2748 147.516C60.7388 147.924 60.9708 148.488 60.9708 149.208H59.3508C59.3508 148.888 59.2428 148.644 59.0268 148.476C58.8108 148.3 58.5388 148.212 58.2108 148.212C57.8668 148.212 57.5508 148.312 57.2628 148.512C56.9748 148.704 56.7468 148.968 56.5788 149.304C56.4108 149.64 56.3268 150.02 56.3268 150.444C56.3268 150.868 56.4428 151.208 56.6748 151.464C56.9068 151.712 57.2068 151.836 57.5748 151.836C57.9028 151.836 58.2028 151.752 58.4748 151.584C58.7548 151.408 58.9548 151.16 59.0748 150.84H60.6828C60.5148 151.304 60.2668 151.708 59.9388 152.052C59.6108 152.396 59.2228 152.664 58.7748 152.856C58.3348 153.048 57.8588 153.144 57.3468 153.144ZM64.1947 153C63.6507 153 63.2147 152.888 62.8867 152.664C62.5667 152.44 62.4067 152.052 62.4067 151.5C62.4067 151.324 62.4267 151.128 62.4667 150.912L62.9227 148.332H61.9627L62.1907 147.048H63.1507L63.6067 145.452H64.9747L64.6867 147.048H66.3067L66.0667 148.332H64.4707L64.0027 150.924C63.9867 151.004 63.9787 151.084 63.9787 151.164C63.9787 151.356 64.0307 151.492 64.1347 151.572C64.2467 151.652 64.4267 151.692 64.6747 151.692H65.4907L65.2507 153H64.1947ZM69.5818 153L69.7738 151.884C70.7258 151.212 71.5578 150.58 72.2698 149.988C72.9898 149.388 73.5458 148.824 73.9378 148.296C74.3298 147.768 74.5258 147.264 74.5258 146.784C74.5258 146.512 74.4458 146.272 74.2858 146.064C74.1258 145.856 73.8578 145.752 73.4818 145.752C73.0578 145.752 72.7098 145.896 72.4378 146.184C72.1658 146.472 71.9978 146.82 71.9338 147.228H70.4458C70.5658 146.628 70.7778 146.124 71.0818 145.716C71.3938 145.3 71.7698 144.988 72.2098 144.78C72.6578 144.564 73.1418 144.456 73.6618 144.456C74.4218 144.456 75.0178 144.656 75.4498 145.056C75.8818 145.448 76.0978 145.96 76.0978 146.592C76.0978 147.216 75.9098 147.82 75.5338 148.404C75.1578 148.988 74.6538 149.556 74.0218 150.108C73.3978 150.66 72.7058 151.204 71.9458 151.74H75.5938L75.3658 153H69.5818ZM80.0138 153.144C79.3658 153.144 78.8098 153.008 78.3458 152.736C77.8898 152.464 77.5378 152.084 77.2898 151.596C77.0498 151.108 76.9298 150.532 76.9298 149.868C76.9298 149.108 77.0458 148.4 77.2778 147.744C77.5098 147.088 77.8298 146.516 78.2378 146.028C78.6538 145.532 79.1378 145.148 79.6898 144.876C80.2418 144.596 80.8378 144.456 81.4778 144.456C82.1338 144.456 82.6898 144.592 83.1458 144.864C83.6098 145.136 83.9618 145.52 84.2018 146.016C84.4498 146.504 84.5738 147.076 84.5738 147.732C84.5738 148.492 84.4578 149.2 84.2258 149.856C83.9938 150.512 83.6698 151.088 83.2538 151.584C82.8458 152.072 82.3658 152.456 81.8138 152.736C81.2618 153.008 80.6618 153.144 80.0138 153.144ZM80.2298 151.764C80.6058 151.764 80.9578 151.664 81.2858 151.464C81.6218 151.264 81.9178 150.988 82.1738 150.636C82.4298 150.284 82.6258 149.88 82.7618 149.424C82.9058 148.96 82.9778 148.464 82.9778 147.936C82.9778 147.28 82.8258 146.768 82.5218 146.4C82.2178 146.024 81.8018 145.836 81.2738 145.836C80.8978 145.836 80.5418 145.936 80.2058 146.136C79.8778 146.336 79.5858 146.612 79.3298 146.964C79.0738 147.316 78.8738 147.724 78.7298 148.188C78.5858 148.644 78.5138 149.136 78.5138 149.664C78.5138 150.32 78.6658 150.836 78.9698 151.212C79.2818 151.58 79.7018 151.764 80.2298 151.764ZM84.8982 153L85.0902 151.884C86.0422 151.212 86.8742 150.58 87.5862 149.988C88.3062 149.388 88.8622 148.824 89.2542 148.296C89.6462 147.768 89.8422 147.264 89.8422 146.784C89.8422 146.512 89.7622 146.272 89.6022 146.064C89.4422 145.856 89.1742 145.752 88.7982 145.752C88.3742 145.752 88.0262 145.896 87.7542 146.184C87.4822 146.472 87.3142 146.82 87.2502 147.228H85.7622C85.8822 146.628 86.0942 146.124 86.3982 145.716C86.7102 145.3 87.0862 144.988 87.5262 144.78C87.9742 144.564 88.4582 144.456 88.9782 144.456C89.7382 144.456 90.3342 144.656 90.7662 145.056C91.1982 145.448 91.4142 145.96 91.4142 146.592C91.4142 147.216 91.2262 147.82 90.8502 148.404C90.4742 148.988 89.9702 149.556 89.3382 150.108C88.7142 150.66 88.0222 151.204 87.2622 151.74H90.9102L90.6822 153H84.8982ZM91.8357 153L92.0277 151.884C92.9797 151.212 93.8117 150.58 94.5237 149.988C95.2437 149.388 95.7997 148.824 96.1917 148.296C96.5837 147.768 96.7797 147.264 96.7797 146.784C96.7797 146.512 96.6997 146.272 96.5397 146.064C96.3797 145.856 96.1117 145.752 95.7357 145.752C95.3117 145.752 94.9637 145.896 94.6917 146.184C94.4197 146.472 94.2517 146.82 94.1877 147.228H92.6997C92.8197 146.628 93.0317 146.124 93.3357 145.716C93.6477 145.3 94.0237 144.988 94.4637 144.78C94.9117 144.564 95.3957 144.456 95.9157 144.456C96.6757 144.456 97.2717 144.656 97.7037 145.056C98.1357 145.448 98.3517 145.96 98.3517 146.592C98.3517 147.216 98.1637 147.82 97.7877 148.404C97.4117 148.988 96.9077 149.556 96.2757 150.108C95.6517 150.66 94.9597 151.204 94.1997 151.74H97.8477L97.6197 153H91.8357ZM101.795 154.2L103.535 144.36H105.071L103.331 154.2H101.795Z" fill="#EC2222"/>
<path d="M108.136 153L108.328 151.884C109.28 151.212 110.112 150.58 110.824 149.988C111.544 149.388 112.1 148.824 112.492 148.296C112.884 147.768 113.08 147.264 113.08 146.784C113.08 146.512 113 146.272 112.84 146.064C112.68 145.856 112.412 145.752 112.036 145.752C111.612 145.752 111.264 145.896 110.992 146.184C110.72 146.472 110.552 146.82 110.488 147.228H109C109.12 146.628 109.332 146.124 109.636 145.716C109.948 145.3 110.324 144.988 110.764 144.78C111.212 144.564 111.696 144.456 112.216 144.456C112.976 144.456 113.572 144.656 114.004 145.056C114.436 145.448 114.652 145.96 114.652 146.592C114.652 147.216 114.464 147.82 114.088 148.404C113.712 148.988 113.208 149.556 112.576 150.108C111.952 150.66 111.26 151.204 110.5 151.74H114.148L113.92 153H108.136ZM117.942 153.144C117.454 153.144 117.014 153.064 116.622 152.904C116.23 152.744 115.922 152.5 115.698 152.172C115.474 151.844 115.362 151.432 115.362 150.936C115.362 150.752 115.374 150.576 115.398 150.408H116.91C116.902 150.448 116.894 150.492 116.886 150.54C116.886 150.588 116.886 150.644 116.886 150.708C116.886 151.036 116.994 151.308 117.21 151.524C117.426 151.74 117.742 151.848 118.158 151.848C118.622 151.848 119.006 151.708 119.31 151.428C119.622 151.14 119.778 150.78 119.778 150.348C119.778 149.98 119.646 149.696 119.382 149.496C119.118 149.296 118.77 149.196 118.338 149.196H117.714L117.93 147.936H118.554C119.042 147.936 119.438 147.816 119.742 147.576C120.046 147.336 120.198 147.012 120.198 146.604C120.198 146.356 120.11 146.156 119.934 146.004C119.758 145.844 119.514 145.764 119.202 145.764C118.81 145.764 118.482 145.88 118.218 146.112C117.962 146.344 117.79 146.628 117.702 146.964H116.202C116.378 146.188 116.75 145.576 117.318 145.128C117.894 144.68 118.586 144.456 119.394 144.456C120.162 144.456 120.746 144.636 121.146 144.996C121.546 145.348 121.746 145.792 121.746 146.328C121.746 146.824 121.59 147.28 121.278 147.696C120.966 148.104 120.554 148.384 120.042 148.536C120.426 148.616 120.73 148.804 120.954 149.1C121.178 149.396 121.29 149.764 121.29 150.204C121.29 150.764 121.142 151.268 120.846 151.716C120.558 152.156 120.162 152.504 119.658 152.76C119.154 153.016 118.582 153.144 117.942 153.144ZM123.146 153.084C122.858 153.084 122.626 152.996 122.45 152.82C122.274 152.644 122.186 152.432 122.186 152.184C122.186 151.928 122.274 151.712 122.45 151.536C122.626 151.36 122.858 151.272 123.146 151.272C123.426 151.272 123.654 151.36 123.83 151.536C124.006 151.712 124.094 151.928 124.094 152.184C124.094 152.432 124.006 152.644 123.83 152.82C123.654 152.996 123.426 153.084 123.146 153.084ZM128.261 153.144C127.413 153.144 126.753 152.928 126.281 152.496C125.817 152.064 125.589 151.516 125.597 150.852C125.597 150.82 125.597 150.788 125.597 150.756C125.605 150.716 125.613 150.676 125.621 150.636H127.121C127.121 150.996 127.245 151.288 127.493 151.512C127.749 151.728 128.073 151.836 128.465 151.836C128.825 151.836 129.145 151.748 129.425 151.572C129.705 151.396 129.925 151.16 130.085 150.864C130.253 150.56 130.337 150.216 130.337 149.832C130.337 149.44 130.225 149.116 130.001 148.86C129.777 148.604 129.473 148.476 129.089 148.476C128.721 148.476 128.389 148.564 128.093 148.74C127.805 148.916 127.585 149.136 127.433 149.4H125.957L127.529 144.6H132.173L131.945 145.944H128.429L127.709 147.888C127.925 147.696 128.189 147.54 128.501 147.42C128.813 147.292 129.157 147.228 129.533 147.228C130.045 147.228 130.473 147.34 130.817 147.564C131.161 147.78 131.417 148.068 131.585 148.428C131.761 148.788 131.849 149.176 131.849 149.592C131.849 150.272 131.689 150.88 131.369 151.416C131.049 151.952 130.617 152.376 130.073 152.688C129.537 152.992 128.933 153.144 128.261 153.144ZM135.277 153.144C134.701 153.144 134.233 153.032 133.873 152.808C133.513 152.576 133.253 152.276 133.093 151.908C132.941 151.54 132.881 151.144 132.913 150.72H134.341C134.341 151.088 134.437 151.372 134.629 151.572C134.821 151.772 135.093 151.872 135.445 151.872C135.965 151.872 136.433 151.636 136.849 151.164C137.273 150.684 137.585 149.96 137.785 148.992C137.529 149.296 137.217 149.544 136.849 149.736C136.481 149.928 136.065 150.024 135.601 150.024C135.153 150.024 134.753 149.924 134.401 149.724C134.057 149.524 133.785 149.248 133.585 148.896C133.385 148.536 133.285 148.132 133.285 147.684C133.285 147.076 133.433 146.528 133.729 146.04C134.033 145.552 134.441 145.168 134.953 144.888C135.465 144.6 136.033 144.456 136.657 144.456C137.321 144.456 137.857 144.596 138.265 144.876C138.673 145.148 138.969 145.508 139.153 145.956C139.345 146.404 139.441 146.892 139.441 147.42C139.441 148.204 139.337 148.94 139.129 149.628C138.929 150.316 138.641 150.924 138.265 151.452C137.897 151.98 137.457 152.396 136.945 152.7C136.441 152.996 135.885 153.144 135.277 153.144ZM136.093 148.728C136.429 148.728 136.729 148.652 136.993 148.5C137.265 148.348 137.477 148.148 137.629 147.9C137.789 147.644 137.869 147.36 137.869 147.048C137.869 146.688 137.745 146.388 137.497 146.148C137.257 145.9 136.937 145.776 136.537 145.776C136.201 145.776 135.901 145.848 135.637 145.992C135.373 146.136 135.165 146.336 135.013 146.592C134.861 146.84 134.785 147.128 134.785 147.456C134.785 147.816 134.901 148.12 135.133 148.368C135.373 148.608 135.693 148.728 136.093 148.728ZM143.12 153L144.596 144.6H147.704C148.288 144.6 148.772 144.704 149.156 144.912C149.54 145.112 149.824 145.38 150.008 145.716C150.192 146.052 150.284 146.42 150.284 146.82C150.284 147.428 150.136 147.952 149.84 148.392C149.544 148.824 149.132 149.16 148.604 149.4C148.084 149.632 147.484 149.748 146.804 149.748H145.232L144.656 153H143.12ZM145.448 148.5H146.924C147.484 148.5 147.92 148.368 148.232 148.104C148.544 147.832 148.7 147.444 148.7 146.94C148.7 146.612 148.596 146.348 148.388 146.148C148.18 145.948 147.848 145.848 147.392 145.848H145.916L145.448 148.5ZM150.456 153L151.932 144.6H153.756L155.496 149.928L159.072 144.6H160.896L159.42 153H157.884L158.904 147.204L155.76 151.8H154.548L153.012 147.204L151.992 153H150.456Z" fill="#EC2222"/>
<path d="M184.212 153L185.376 146.352L183.924 146.736L184.14 145.5L186.336 144.6H187.284L185.796 153H184.212ZM187.293 153L187.485 151.884C188.437 151.212 189.269 150.58 189.981 149.988C190.701 149.388 191.257 148.824 191.649 148.296C192.041 147.768 192.237 147.264 192.237 146.784C192.237 146.512 192.157 146.272 191.997 146.064C191.837 145.856 191.569 145.752 191.193 145.752C190.769 145.752 190.421 145.896 190.149 146.184C189.877 146.472 189.709 146.82 189.645 147.228H188.157C188.277 146.628 188.489 146.124 188.793 145.716C189.105 145.3 189.481 144.988 189.921 144.78C190.369 144.564 190.853 144.456 191.373 144.456C192.133 144.456 192.729 144.656 193.161 145.056C193.593 145.448 193.809 145.96 193.809 146.592C193.809 147.216 193.621 147.82 193.245 148.404C192.869 148.988 192.365 149.556 191.733 150.108C191.109 150.66 190.417 151.204 189.657 151.74H193.305L193.077 153H187.293ZM197.468 153L198.944 144.6H201.812C203.076 144.6 204.004 144.908 204.596 145.524C205.188 146.14 205.484 146.972 205.484 148.02C205.484 148.996 205.268 149.86 204.836 150.612C204.412 151.364 203.816 151.952 203.048 152.376C202.28 152.792 201.376 153 200.336 153H197.468ZM199.232 151.68H200.492C201.22 151.68 201.836 151.536 202.34 151.248C202.852 150.96 203.24 150.552 203.504 150.024C203.768 149.496 203.9 148.872 203.9 148.152C203.9 147.4 203.708 146.84 203.324 146.472C202.94 146.096 202.336 145.908 201.512 145.908H200.252L199.232 151.68ZM205.225 153L209.773 144.6H211.513L213.097 153H211.477L211.141 151.056H207.865L206.845 153H205.225ZM208.477 149.88H210.949L210.337 146.328L208.477 149.88ZM215.095 153L215.623 150.012L213.739 144.6H215.491L216.667 148.464L219.199 144.6H220.927L217.159 150.012L216.631 153H215.095ZM222.247 154.74C221.815 154.22 221.467 153.584 221.203 152.832C220.939 152.08 220.807 151.268 220.807 150.396C220.807 149.516 220.947 148.644 221.227 147.78C221.507 146.916 221.907 146.1 222.427 145.332C222.947 144.556 223.563 143.868 224.275 143.268H225.799L225.787 143.412C225.059 144.06 224.435 144.756 223.915 145.5C223.403 146.244 223.011 147.016 222.739 147.816C222.467 148.608 222.331 149.404 222.331 150.204C222.331 151.02 222.463 151.808 222.727 152.568C222.991 153.32 223.355 153.996 223.819 154.596L223.783 154.74H222.247ZM228.252 153.144C227.7 153.144 227.212 153.06 226.788 152.892C226.364 152.716 226.032 152.464 225.792 152.136C225.552 151.8 225.432 151.4 225.432 150.936C225.432 150.856 225.436 150.78 225.444 150.708C225.452 150.628 225.46 150.548 225.468 150.468H227.1C227.092 150.556 227.088 150.636 227.088 150.708C227.088 151.052 227.208 151.332 227.448 151.548C227.696 151.756 228.028 151.86 228.444 151.86C228.908 151.86 229.272 151.744 229.536 151.512C229.8 151.272 229.932 150.96 229.932 150.576C229.932 150.288 229.832 150.06 229.632 149.892C229.432 149.724 229.176 149.584 228.864 149.472C228.56 149.36 228.24 149.244 227.904 149.124C227.376 148.932 226.972 148.668 226.692 148.332C226.412 147.996 226.272 147.6 226.272 147.144C226.272 146.608 226.408 146.14 226.68 145.74C226.96 145.332 227.34 145.016 227.82 144.792C228.308 144.568 228.868 144.456 229.5 144.456C230.26 144.456 230.872 144.64 231.336 145.008C231.8 145.376 232.032 145.876 232.032 146.508C232.032 146.564 232.028 146.624 232.02 146.688C232.02 146.752 232.016 146.816 232.008 146.88H230.364C230.372 146.808 230.376 146.74 230.376 146.676C230.376 146.428 230.28 146.212 230.088 146.028C229.896 145.844 229.616 145.752 229.248 145.752C228.84 145.752 228.516 145.86 228.276 146.076C228.044 146.284 227.928 146.548 227.928 146.868C227.928 147.116 228.008 147.316 228.168 147.468C228.328 147.612 228.544 147.74 228.816 147.852C229.088 147.956 229.388 148.068 229.716 148.188C230.06 148.308 230.372 148.468 230.652 148.668C230.94 148.86 231.168 149.096 231.336 149.376C231.512 149.656 231.6 149.988 231.6 150.372C231.6 150.932 231.456 151.42 231.168 151.836C230.88 152.252 230.484 152.576 229.98 152.808C229.476 153.032 228.9 153.144 228.252 153.144ZM231.822 154.74L231.846 154.596C232.566 153.948 233.182 153.252 233.694 152.508C234.214 151.764 234.61 150.996 234.882 150.204C235.154 149.404 235.29 148.604 235.29 147.804C235.29 146.988 235.158 146.204 234.894 145.452C234.638 144.692 234.274 144.012 233.802 143.412L233.838 143.268H235.374C235.806 143.788 236.154 144.424 236.418 145.176C236.682 145.928 236.814 146.74 236.814 147.612C236.814 148.492 236.674 149.364 236.394 150.228C236.114 151.092 235.714 151.912 235.194 152.688C234.674 153.456 234.062 154.14 233.358 154.74H231.822ZM240.452 153L241.928 144.6H243.464L242.192 151.8H245.912L245.708 153H240.452ZM246.521 153L251.069 144.6H252.809L254.393 153H252.773L252.437 151.056H249.161L248.141 153H246.521ZM249.773 149.88H252.245L251.633 146.328L249.773 149.88ZM256.483 153L257.743 145.812H255.295L255.511 144.6H261.955L261.751 145.812H259.279L258.019 153H256.483ZM261.604 153L263.092 144.6H268.288L268.06 145.812H264.412L264.004 148.152H267.292L267.088 149.328H263.8L263.356 151.788H267.016L266.8 153H261.604Z" fill="#EC2222"/>
<path d="M43.43 200V194.2L42.3 194.46V193.68L43.85 193H44.53V200H43.43ZM51.5917 200.12C50.8984 200.12 50.2984 199.97 49.7917 199.67C49.2917 199.363 48.9051 198.94 48.6317 198.4C48.3584 197.853 48.2217 197.223 48.2217 196.51C48.2217 195.79 48.3584 195.16 48.6317 194.62C48.9051 194.073 49.2917 193.647 49.7917 193.34C50.2984 193.033 50.8984 192.88 51.5917 192.88C52.4117 192.88 53.0817 193.08 53.6017 193.48C54.1217 193.88 54.4517 194.44 54.5917 195.16H53.4117C53.3184 194.753 53.1184 194.43 52.8117 194.19C52.5051 193.95 52.0951 193.83 51.5817 193.83C50.8817 193.83 50.3284 194.07 49.9217 194.55C49.5151 195.023 49.3117 195.677 49.3117 196.51C49.3117 197.337 49.5151 197.987 49.9217 198.46C50.3284 198.933 50.8817 199.17 51.5817 199.17C52.0951 199.17 52.5051 199.057 52.8117 198.83C53.1184 198.603 53.3184 198.293 53.4117 197.9H54.5917C54.4517 198.593 54.1217 199.137 53.6017 199.53C53.0817 199.923 52.4117 200.12 51.5917 200.12ZM58.0369 200.12C57.5635 200.12 57.1369 200.013 56.7569 199.8C56.3835 199.58 56.0869 199.277 55.8669 198.89C55.6469 198.497 55.5369 198.04 55.5369 197.52C55.5369 197 55.6469 196.547 55.8669 196.16C56.0935 195.767 56.3969 195.463 56.7769 195.25C57.1569 195.03 57.5802 194.92 58.0469 194.92C58.5202 194.92 58.9435 195.03 59.3169 195.25C59.6969 195.463 59.9969 195.767 60.2169 196.16C60.4435 196.547 60.5569 197 60.5569 197.52C60.5569 198.04 60.4435 198.497 60.2169 198.89C59.9969 199.277 59.6969 199.58 59.3169 199.8C58.9369 200.013 58.5102 200.12 58.0369 200.12ZM58.0369 199.21C58.2902 199.21 58.5235 199.147 58.7369 199.02C58.9569 198.893 59.1335 198.707 59.2669 198.46C59.4002 198.207 59.4669 197.893 59.4669 197.52C59.4669 197.147 59.4002 196.837 59.2669 196.59C59.1402 196.337 58.9669 196.147 58.7469 196.02C58.5335 195.893 58.3002 195.83 58.0469 195.83C57.7935 195.83 57.5569 195.893 57.3369 196.02C57.1235 196.147 56.9502 196.337 56.8169 196.59C56.6835 196.837 56.6169 197.147 56.6169 197.52C56.6169 197.893 56.6835 198.207 56.8169 198.46C56.9502 198.707 57.1235 198.893 57.3369 199.02C57.5502 199.147 57.7835 199.21 58.0369 199.21ZM61.7032 200V195.04H62.6432L62.7332 195.74C62.8932 195.487 63.1032 195.287 63.3632 195.14C63.6299 194.993 63.9365 194.92 64.2832 194.92C65.0699 194.92 65.6165 195.23 65.9232 195.85C66.1032 195.563 66.3432 195.337 66.6432 195.17C66.9499 195.003 67.2799 194.92 67.6332 194.92C68.2532 194.92 68.7399 195.107 69.0932 195.48C69.4465 195.853 69.6232 196.41 69.6232 197.15V200H68.5632V197.26C68.5632 196.3 68.1965 195.82 67.4632 195.82C67.0899 195.82 66.7832 195.96 66.5432 196.24C66.3099 196.52 66.1932 196.92 66.1932 197.44V200H65.1332V197.26C65.1332 196.3 64.7632 195.82 64.0232 195.82C63.6565 195.82 63.3532 195.96 63.1132 196.24C62.8799 196.52 62.7632 196.92 62.7632 197.44V200H61.7032ZM70.8634 200V195.04H71.8034L71.8934 195.74C72.0534 195.487 72.2634 195.287 72.5234 195.14C72.79 194.993 73.0967 194.92 73.4434 194.92C74.23 194.92 74.7767 195.23 75.0834 195.85C75.2634 195.563 75.5034 195.337 75.8034 195.17C76.11 195.003 76.44 194.92 76.7934 194.92C77.4134 194.92 77.9 195.107 78.2534 195.48C78.6067 195.853 78.7834 196.41 78.7834 197.15V200H77.7234V197.26C77.7234 196.3 77.3567 195.82 76.6234 195.82C76.25 195.82 75.9434 195.96 75.7034 196.24C75.47 196.52 75.3534 196.92 75.3534 197.44V200H74.2934V197.26C74.2934 196.3 73.9234 195.82 73.1834 195.82C72.8167 195.82 72.5134 195.96 72.2734 196.24C72.04 196.52 71.9234 196.92 71.9234 197.44V200H70.8634ZM82.3435 200.12C81.8568 200.12 81.4235 200.013 81.0435 199.8C80.6702 199.58 80.3768 199.277 80.1635 198.89C79.9502 198.503 79.8435 198.053 79.8435 197.54C79.8435 197.02 79.9468 196.563 80.1535 196.17C80.3668 195.777 80.6602 195.47 81.0335 195.25C81.4135 195.03 81.8535 194.92 82.3535 194.92C82.8402 194.92 83.2635 195.03 83.6235 195.25C83.9835 195.463 84.2635 195.75 84.4635 196.11C84.6635 196.47 84.7635 196.867 84.7635 197.3C84.7635 197.367 84.7602 197.44 84.7535 197.52C84.7535 197.593 84.7502 197.677 84.7435 197.77H80.8835C80.9168 198.25 81.0735 198.617 81.3535 198.87C81.6402 199.117 81.9702 199.24 82.3435 199.24C82.6435 199.24 82.8935 199.173 83.0935 199.04C83.3002 198.9 83.4535 198.713 83.5535 198.48H84.6135C84.4802 198.947 84.2135 199.337 83.8135 199.65C83.4202 199.963 82.9302 200.12 82.3435 200.12ZM82.3435 195.79C81.9902 195.79 81.6768 195.897 81.4035 196.11C81.1302 196.317 80.9635 196.63 80.9035 197.05H83.7035C83.6835 196.663 83.5468 196.357 83.2935 196.13C83.0402 195.903 82.7235 195.79 82.3435 195.79ZM85.8634 200V195.04H86.8034L86.8834 195.91C87.0367 195.603 87.26 195.363 87.5534 195.19C87.8534 195.01 88.1967 194.92 88.5834 194.92C89.1834 194.92 89.6534 195.107 89.9934 195.48C90.34 195.853 90.5134 196.41 90.5134 197.15V200H89.4634V197.26C89.4634 196.3 89.07 195.82 88.2834 195.82C87.89 195.82 87.5634 195.96 87.3034 196.24C87.05 196.52 86.9234 196.92 86.9234 197.44V200H85.8634ZM93.8418 200C93.3551 200 92.9685 199.883 92.6818 199.65C92.3951 199.41 92.2518 198.987 92.2518 198.38V195.93H91.4018V195.04H92.2518L92.3818 193.78H93.3118V195.04H94.7118V195.93H93.3118V198.38C93.3118 198.653 93.3685 198.843 93.4818 198.95C93.6018 199.05 93.8051 199.1 94.0918 199.1H94.6618V200H93.8418Z" fill="#768396"/>
<path d="M34.6086 191.359H25.892C25.3141 191.359 24.7598 191.574 24.3511 191.957C23.9425 192.34 23.7129 192.859 23.7129 193.4V200.882C23.7129 201.423 23.9425 201.942 24.3511 202.325C24.7598 202.707 25.3141 202.922 25.892 202.922H27.7734L29.7346 204.765C29.8024 204.828 29.8829 204.878 29.9714 204.912C30.0599 204.946 30.1547 204.963 30.2503 204.963C30.4234 204.963 30.5909 204.905 30.7225 204.799L33.0614 202.922H34.6086C35.1865 202.922 35.7408 202.707 36.1495 202.325C36.5581 201.942 36.7877 201.423 36.7877 200.882V193.4C36.7877 192.859 36.5581 192.34 36.1495 191.957C35.7408 191.574 35.1865 191.359 34.6086 191.359ZM35.335 200.882C35.335 201.062 35.2584 201.235 35.1222 201.363C34.986 201.49 34.8012 201.562 34.6086 201.562H32.7926C32.6195 201.562 32.4521 201.62 32.3205 201.725L30.2866 203.358L28.5869 201.759C28.519 201.696 28.4385 201.646 28.35 201.612C28.2615 201.579 28.1668 201.561 28.0712 201.562H25.892C25.6994 201.562 25.5146 201.49 25.3784 201.363C25.2422 201.235 25.1656 201.062 25.1656 200.882V193.4C25.1656 193.219 25.2422 193.046 25.3784 192.919C25.5146 192.791 25.6994 192.72 25.892 192.72H34.6086C34.8012 192.72 34.986 192.791 35.1222 192.919C35.2584 193.046 35.335 193.219 35.335 193.4V200.882Z" fill="#768396"/>
<path d="M253.951 200.125V194.325L252.821 194.585V193.805L254.371 193.125H255.051V200.125H253.951ZM257.194 200.125V194.325L256.064 194.585V193.805L257.614 193.125H258.294V200.125H257.194ZM262.445 200.125V196.055H261.735V195.165H262.445V194.445C262.445 193.905 262.579 193.518 262.845 193.285C263.119 193.045 263.502 192.925 263.995 192.925H264.515V193.825H264.155C263.922 193.825 263.755 193.875 263.655 193.975C263.555 194.068 263.505 194.228 263.505 194.455V195.165H266.645V200.125H265.585V196.055H263.505V200.125H262.445ZM266.125 194.335C265.925 194.335 265.759 194.275 265.625 194.155C265.499 194.028 265.435 193.868 265.435 193.675C265.435 193.488 265.499 193.335 265.625 193.215C265.759 193.095 265.925 193.035 266.125 193.035C266.325 193.035 266.489 193.095 266.615 193.215C266.749 193.335 266.815 193.488 266.815 193.675C266.815 193.868 266.749 194.028 266.615 194.155C266.489 194.275 266.325 194.335 266.125 194.335ZM268.055 200.125V192.925H269.115V200.125H268.055ZM272.777 200.245C272.29 200.245 271.857 200.138 271.477 199.925C271.104 199.705 270.81 199.402 270.597 199.015C270.384 198.628 270.277 198.178 270.277 197.665C270.277 197.145 270.38 196.688 270.587 196.295C270.8 195.902 271.094 195.595 271.467 195.375C271.847 195.155 272.287 195.045 272.787 195.045C273.274 195.045 273.697 195.155 274.057 195.375C274.417 195.588 274.697 195.875 274.897 196.235C275.097 196.595 275.197 196.992 275.197 197.425C275.197 197.492 275.194 197.565 275.187 197.645C275.187 197.718 275.184 197.802 275.177 197.895H271.317C271.35 198.375 271.507 198.742 271.787 198.995C272.074 199.242 272.404 199.365 272.777 199.365C273.077 199.365 273.327 199.298 273.527 199.165C273.734 199.025 273.887 198.838 273.987 198.605H275.047C274.914 199.072 274.647 199.462 274.247 199.775C273.854 200.088 273.364 200.245 272.777 200.245ZM272.777 195.915C272.424 195.915 272.11 196.022 271.837 196.235C271.564 196.442 271.397 196.755 271.337 197.175H274.137C274.117 196.788 273.98 196.482 273.727 196.255C273.474 196.028 273.157 195.915 272.777 195.915Z" fill="#768396"/>
<path d="M242.087 200.502L240.044 202.434C239.797 202.66 239.467 202.786 239.123 202.786C238.779 202.786 238.449 202.66 238.201 202.434C238.08 202.32 237.984 202.184 237.918 202.034C237.853 201.885 237.819 201.724 237.819 201.563C237.819 201.401 237.853 201.24 237.918 201.091C237.984 200.941 238.08 200.805 238.201 200.691L240.244 198.759C240.343 198.665 240.399 198.538 240.399 198.405C240.399 198.273 240.343 198.145 240.244 198.052C240.145 197.958 240.011 197.905 239.871 197.905C239.73 197.905 239.596 197.958 239.497 198.052L237.454 199.989C237.042 200.413 236.82 200.97 236.833 201.545C236.845 202.121 237.093 202.669 237.523 203.076C237.953 203.483 238.533 203.717 239.141 203.729C239.749 203.741 240.339 203.53 240.787 203.141L242.835 201.209C242.934 201.115 242.99 200.988 242.99 200.855C242.99 200.723 242.934 200.596 242.835 200.502C242.736 200.408 242.601 200.355 242.461 200.355C242.321 200.355 242.186 200.408 242.087 200.502ZM246.605 194.486C246.162 194.07 245.563 193.836 244.938 193.836C244.314 193.836 243.715 194.07 243.272 194.486L241.224 196.418C241.175 196.465 241.136 196.52 241.109 196.58C241.083 196.641 241.069 196.706 241.069 196.772C241.069 196.837 241.083 196.902 241.109 196.963C241.136 197.024 241.175 197.079 241.224 197.125C241.273 197.172 241.331 197.209 241.395 197.234C241.459 197.259 241.528 197.272 241.598 197.272C241.667 197.272 241.736 197.259 241.8 197.234C241.864 197.209 241.922 197.172 241.971 197.125L244.014 195.193C244.262 194.967 244.592 194.841 244.936 194.841C245.279 194.841 245.61 194.967 245.857 195.193C245.978 195.307 246.075 195.443 246.14 195.593C246.206 195.742 246.24 195.903 246.24 196.065C246.24 196.227 246.206 196.387 246.14 196.536C246.075 196.686 245.978 196.822 245.857 196.936L243.814 198.868C243.765 198.915 243.726 198.97 243.699 199.03C243.672 199.091 243.658 199.156 243.658 199.222C243.658 199.288 243.672 199.353 243.699 199.413C243.726 199.474 243.765 199.529 243.814 199.575C243.863 199.622 243.921 199.659 243.985 199.685C244.05 199.71 244.118 199.723 244.188 199.723C244.257 199.723 244.326 199.71 244.39 199.685C244.455 199.659 244.513 199.622 244.562 199.575L246.605 197.638C247.045 197.219 247.292 196.653 247.292 196.062C247.292 195.471 247.045 194.905 246.605 194.486ZM240.36 200.392C240.409 200.438 240.468 200.475 240.532 200.5C240.596 200.524 240.665 200.537 240.734 200.537C240.803 200.537 240.872 200.524 240.936 200.5C241 200.475 241.059 200.438 241.108 200.392L243.698 197.942C243.797 197.848 243.853 197.721 243.853 197.588C243.853 197.456 243.797 197.329 243.698 197.235C243.599 197.141 243.465 197.088 243.324 197.088C243.184 197.088 243.05 197.141 242.951 197.235L240.36 199.685C240.311 199.731 240.272 199.786 240.245 199.847C240.218 199.908 240.204 199.973 240.204 200.039C240.204 200.104 240.218 200.169 240.245 200.23C240.272 200.291 240.311 200.346 240.36 200.392Z" fill="#768396"/>
</svg>
