<svg width="308" height="229" viewBox="0 0 308 229" fill="none" xmlns="http://www.w3.org/2000/svg">
<rect x="0.177734" y="0.0117188" width="307.259" height="228.783" rx="12" fill="white"/>
<path d="M24 26C24 22.6863 26.6863 20 30 20H147C150.314 20 153 22.6863 153 26V41C153 44.3137 150.314 47 147 47H30C26.6863 47 24 44.3137 24 41V26Z" fill="#EB77A8"/>
<path d="M38.336 37L35.228 28.6H36.584L39.104 35.68L41.636 28.6H42.98L39.872 37H38.336ZM44.7271 29.92C44.4871 29.92 44.2871 29.848 44.1271 29.704C43.9751 29.552 43.8991 29.364 43.8991 29.14C43.8991 28.916 43.9751 28.732 44.1271 28.588C44.2871 28.436 44.4871 28.36 44.7271 28.36C44.9671 28.36 45.1631 28.436 45.3151 28.588C45.4751 28.732 45.5551 28.916 45.5551 29.14C45.5551 29.364 45.4751 29.552 45.3151 29.704C45.1631 29.848 44.9671 29.92 44.7271 29.92ZM44.0911 37V31.048H45.3631V37H44.0911ZM49.4183 37.144C48.6663 37.144 48.0463 36.96 47.5583 36.592C47.0703 36.224 46.7903 35.736 46.7183 35.128H48.0023C48.0663 35.4 48.2183 35.636 48.4583 35.836C48.6983 36.028 49.0143 36.124 49.4063 36.124C49.7903 36.124 50.0703 36.044 50.2463 35.884C50.4223 35.724 50.5103 35.54 50.5103 35.332C50.5103 35.028 50.3863 34.824 50.1383 34.72C49.8983 34.608 49.5623 34.508 49.1303 34.42C48.7943 34.348 48.4583 34.252 48.1223 34.132C47.7943 34.012 47.5183 33.844 47.2943 33.628C47.0783 33.404 46.9703 33.104 46.9703 32.728C46.9703 32.208 47.1703 31.776 47.5703 31.432C47.9703 31.08 48.5303 30.904 49.2503 30.904C49.9143 30.904 50.4503 31.064 50.8583 31.384C51.2743 31.704 51.5183 32.156 51.5903 32.74H50.3663C50.3263 32.484 50.2063 32.284 50.0063 32.14C49.8143 31.996 49.5543 31.924 49.2263 31.924C48.9063 31.924 48.6583 31.992 48.4823 32.128C48.3063 32.256 48.2183 32.424 48.2183 32.632C48.2183 32.84 48.3383 33.004 48.5783 33.124C48.8263 33.244 49.1503 33.352 49.5503 33.448C49.9503 33.536 50.3183 33.64 50.6543 33.76C50.9983 33.872 51.2743 34.04 51.4823 34.264C51.6903 34.488 51.7943 34.816 51.7943 35.248C51.8023 35.792 51.5903 36.244 51.1583 36.604C50.7343 36.964 50.1543 37.144 49.4183 37.144ZM55.3789 37.144C54.6589 37.144 54.0909 36.92 53.6749 36.472C53.2669 36.024 53.0629 35.356 53.0629 34.468V31.048H54.3349V34.336C54.3349 35.488 54.8069 36.064 55.7509 36.064C56.2229 36.064 56.6109 35.896 56.9149 35.56C57.2189 35.224 57.3709 34.744 57.3709 34.12V31.048H58.6429V37H57.5149L57.4189 35.956C57.2349 36.324 56.9629 36.616 56.6029 36.832C56.2509 37.04 55.8429 37.144 55.3789 37.144ZM62.277 37.144C61.773 37.144 61.357 37.06 61.029 36.892C60.701 36.724 60.457 36.504 60.297 36.232C60.137 35.952 60.057 35.648 60.057 35.32C60.057 34.744 60.281 34.288 60.729 33.952C61.177 33.616 61.817 33.448 62.649 33.448H64.209V33.34C64.209 32.876 64.081 32.528 63.825 32.296C63.577 32.064 63.253 31.948 62.853 31.948C62.501 31.948 62.193 32.036 61.929 32.212C61.673 32.38 61.517 32.632 61.461 32.968H60.189C60.229 32.536 60.373 32.168 60.621 31.864C60.877 31.552 61.197 31.316 61.581 31.156C61.973 30.988 62.401 30.904 62.865 30.904C63.697 30.904 64.341 31.124 64.797 31.564C65.253 31.996 65.481 32.588 65.481 33.34V37H64.377L64.269 35.98C64.101 36.308 63.857 36.584 63.537 36.808C63.217 37.032 62.797 37.144 62.277 37.144ZM62.529 36.112C62.873 36.112 63.161 36.032 63.393 35.872C63.633 35.704 63.817 35.484 63.945 35.212C64.081 34.94 64.165 34.64 64.197 34.312H62.781C62.277 34.312 61.917 34.4 61.701 34.576C61.493 34.752 61.389 34.972 61.389 35.236C61.389 35.508 61.489 35.724 61.689 35.884C61.897 36.036 62.177 36.112 62.529 36.112ZM66.9642 37V28.36H68.2362V37H66.9642ZM72.3784 37L75.4744 28.6H76.8664L79.9384 37H78.5944L77.8744 34.948H74.4424L73.7224 37H72.3784ZM74.8024 33.94H77.5144L76.1584 30.112L74.8024 33.94ZM83.4378 37.144C82.6858 37.144 82.0658 36.96 81.5778 36.592C81.0898 36.224 80.8098 35.736 80.7378 35.128H82.0218C82.0858 35.4 82.2378 35.636 82.4778 35.836C82.7178 36.028 83.0338 36.124 83.4258 36.124C83.8098 36.124 84.0898 36.044 84.2658 35.884C84.4418 35.724 84.5298 35.54 84.5298 35.332C84.5298 35.028 84.4058 34.824 84.1578 34.72C83.9178 34.608 83.5818 34.508 83.1498 34.42C82.8138 34.348 82.4778 34.252 82.1418 34.132C81.8138 34.012 81.5378 33.844 81.3138 33.628C81.0978 33.404 80.9898 33.104 80.9898 32.728C80.9898 32.208 81.1898 31.776 81.5898 31.432C81.9898 31.08 82.5498 30.904 83.2698 30.904C83.9338 30.904 84.4698 31.064 84.8778 31.384C85.2938 31.704 85.5378 32.156 85.6098 32.74H84.3858C84.3458 32.484 84.2258 32.284 84.0258 32.14C83.8338 31.996 83.5738 31.924 83.2458 31.924C82.9258 31.924 82.6778 31.992 82.5018 32.128C82.3258 32.256 82.2378 32.424 82.2378 32.632C82.2378 32.84 82.3578 33.004 82.5978 33.124C82.8458 33.244 83.1698 33.352 83.5698 33.448C83.9698 33.536 84.3378 33.64 84.6738 33.76C85.0178 33.872 85.2938 34.04 85.5018 34.264C85.7098 34.488 85.8138 34.816 85.8138 35.248C85.8218 35.792 85.6098 36.244 85.1778 36.604C84.7538 36.964 84.1738 37.144 83.4378 37.144ZM89.5784 37.144C88.8264 37.144 88.2064 36.96 87.7184 36.592C87.2304 36.224 86.9504 35.736 86.8784 35.128H88.1624C88.2264 35.4 88.3784 35.636 88.6184 35.836C88.8584 36.028 89.1744 36.124 89.5664 36.124C89.9504 36.124 90.2304 36.044 90.4064 35.884C90.5824 35.724 90.6704 35.54 90.6704 35.332C90.6704 35.028 90.5464 34.824 90.2984 34.72C90.0584 34.608 89.7224 34.508 89.2904 34.42C88.9544 34.348 88.6184 34.252 88.2824 34.132C87.9544 34.012 87.6784 33.844 87.4544 33.628C87.2384 33.404 87.1304 33.104 87.1304 32.728C87.1304 32.208 87.3304 31.776 87.7304 31.432C88.1304 31.08 88.6904 30.904 89.4104 30.904C90.0744 30.904 90.6104 31.064 91.0184 31.384C91.4344 31.704 91.6784 32.156 91.7504 32.74H90.5264C90.4864 32.484 90.3664 32.284 90.1664 32.14C89.9744 31.996 89.7144 31.924 89.3864 31.924C89.0664 31.924 88.8184 31.992 88.6424 32.128C88.4664 32.256 88.3784 32.424 88.3784 32.632C88.3784 32.84 88.4984 33.004 88.7384 33.124C88.9864 33.244 89.3104 33.352 89.7104 33.448C90.1104 33.536 90.4784 33.64 90.8144 33.76C91.1584 33.872 91.4344 34.04 91.6424 34.264C91.8504 34.488 91.9544 34.816 91.9544 35.248C91.9624 35.792 91.7504 36.244 91.3184 36.604C90.8944 36.964 90.3144 37.144 89.5784 37.144ZM94.0631 29.92C93.8231 29.92 93.6231 29.848 93.4631 29.704C93.3111 29.552 93.2351 29.364 93.2351 29.14C93.2351 28.916 93.3111 28.732 93.4631 28.588C93.6231 28.436 93.8231 28.36 94.0631 28.36C94.3031 28.36 94.4991 28.436 94.6511 28.588C94.8111 28.732 94.8911 28.916 94.8911 29.14C94.8911 29.364 94.8111 29.552 94.6511 29.704C94.4991 29.848 94.3031 29.92 94.0631 29.92ZM93.4271 37V31.048H94.6991V37H93.4271ZM98.8142 35.176C98.5022 35.176 98.2142 35.14 97.9502 35.068L97.4342 35.572C97.5222 35.628 97.6302 35.676 97.7582 35.716C97.8862 35.756 98.0662 35.792 98.2982 35.824C98.5302 35.856 98.8462 35.888 99.2462 35.92C100.038 35.992 100.61 36.184 100.962 36.496C101.314 36.8 101.49 37.208 101.49 37.72C101.49 38.072 101.394 38.404 101.202 38.716C101.018 39.036 100.726 39.292 100.326 39.484C99.9342 39.684 99.4302 39.784 98.8142 39.784C97.9822 39.784 97.3062 39.624 96.7862 39.304C96.2742 38.992 96.0182 38.516 96.0182 37.876C96.0182 37.628 96.0822 37.38 96.2102 37.132C96.3462 36.892 96.5582 36.664 96.8462 36.448C96.6782 36.376 96.5302 36.3 96.4022 36.22C96.2822 36.132 96.1742 36.044 96.0782 35.956V35.668L97.1102 34.612C96.6462 34.212 96.4142 33.688 96.4142 33.04C96.4142 32.648 96.5062 32.292 96.6902 31.972C96.8822 31.644 97.1582 31.384 97.5182 31.192C97.8782 31 98.3102 30.904 98.8142 30.904C99.1502 30.904 99.4622 30.952 99.7502 31.048H101.97V31.888L100.914 31.948C101.106 32.276 101.202 32.64 101.202 33.04C101.202 33.44 101.106 33.8 100.914 34.12C100.73 34.44 100.458 34.696 100.098 34.888C99.7462 35.08 99.3182 35.176 98.8142 35.176ZM98.8142 34.18C99.1822 34.18 99.4782 34.084 99.7022 33.892C99.9342 33.692 100.05 33.412 100.05 33.052C100.05 32.684 99.9342 32.404 99.7022 32.212C99.4782 32.02 99.1822 31.924 98.8142 31.924C98.4382 31.924 98.1342 32.02 97.9022 32.212C97.6782 32.404 97.5662 32.684 97.5662 33.052C97.5662 33.412 97.6782 33.692 97.9022 33.892C98.1342 34.084 98.4382 34.18 98.8142 34.18ZM97.2182 37.756C97.2182 38.1 97.3702 38.356 97.6742 38.524C97.9782 38.7 98.3582 38.788 98.8142 38.788C99.2542 38.788 99.6102 38.692 99.8822 38.5C100.154 38.316 100.29 38.068 100.29 37.756C100.29 37.524 100.198 37.324 100.014 37.156C99.8302 36.996 99.4822 36.896 98.9702 36.856C98.5862 36.832 98.2462 36.796 97.9502 36.748C97.6702 36.9 97.4782 37.064 97.3742 37.24C97.2702 37.416 97.2182 37.588 97.2182 37.756ZM103.105 37V31.048H104.233L104.329 32.092C104.513 31.724 104.781 31.436 105.133 31.228C105.493 31.012 105.905 30.904 106.369 30.904C107.089 30.904 107.653 31.128 108.061 31.576C108.477 32.024 108.685 32.692 108.685 33.58V37H107.425V33.712C107.425 32.56 106.953 31.984 106.009 31.984C105.537 31.984 105.145 32.152 104.833 32.488C104.529 32.824 104.377 33.304 104.377 33.928V37H103.105ZM110.183 37V31.048H111.311L111.419 31.888C111.611 31.584 111.863 31.344 112.175 31.168C112.495 30.992 112.863 30.904 113.279 30.904C114.223 30.904 114.879 31.276 115.247 32.02C115.463 31.676 115.751 31.404 116.111 31.204C116.479 31.004 116.875 30.904 117.299 30.904C118.043 30.904 118.627 31.128 119.051 31.576C119.475 32.024 119.687 32.692 119.687 33.58V37H118.415V33.712C118.415 32.56 117.975 31.984 117.095 31.984C116.647 31.984 116.279 32.152 115.991 32.488C115.711 32.824 115.571 33.304 115.571 33.928V37H114.299V33.712C114.299 32.56 113.855 31.984 112.967 31.984C112.527 31.984 112.163 32.152 111.875 32.488C111.595 32.824 111.455 33.304 111.455 33.928V37H110.183ZM123.959 37.144C123.375 37.144 122.855 37.016 122.399 36.76C121.951 36.496 121.599 36.132 121.343 35.668C121.087 35.204 120.959 34.664 120.959 34.048C120.959 33.424 121.083 32.876 121.331 32.404C121.587 31.932 121.939 31.564 122.387 31.3C122.843 31.036 123.371 30.904 123.971 30.904C124.555 30.904 125.063 31.036 125.495 31.3C125.927 31.556 126.263 31.9 126.503 32.332C126.743 32.764 126.863 33.24 126.863 33.76C126.863 33.84 126.859 33.928 126.851 34.024C126.851 34.112 126.847 34.212 126.839 34.324H122.207C122.247 34.9 122.435 35.34 122.771 35.644C123.115 35.94 123.511 36.088 123.959 36.088C124.319 36.088 124.619 36.008 124.859 35.848C125.107 35.68 125.291 35.456 125.411 35.176H126.683C126.523 35.736 126.203 36.204 125.723 36.58C125.251 36.956 124.663 37.144 123.959 37.144ZM123.959 31.948C123.535 31.948 123.159 32.076 122.831 32.332C122.503 32.58 122.303 32.956 122.231 33.46H125.591C125.567 32.996 125.403 32.628 125.099 32.356C124.795 32.084 124.415 31.948 123.959 31.948ZM128.183 37V31.048H129.311L129.407 32.092C129.591 31.724 129.859 31.436 130.211 31.228C130.571 31.012 130.983 30.904 131.447 30.904C132.167 30.904 132.731 31.128 133.139 31.576C133.555 32.024 133.763 32.692 133.763 33.58V37H132.503V33.712C132.503 32.56 132.031 31.984 131.087 31.984C130.615 31.984 130.223 32.152 129.911 32.488C129.607 32.824 129.455 33.304 129.455 33.928V37H128.183ZM137.757 37C137.173 37 136.709 36.86 136.365 36.58C136.021 36.292 135.849 35.784 135.849 35.056V32.116H134.829V31.048H135.849L136.005 29.536H137.121V31.048H138.801V32.116H137.121V35.056C137.121 35.384 137.189 35.612 137.325 35.74C137.469 35.86 137.713 35.92 138.057 35.92H138.741V37H137.757Z" fill="white"/>
<path d="M24.6359 78.5547V69.4547H30.4209V70.5727H26.0139V73.4067H30.0309V74.4987H26.0139V77.4367H30.4209V78.5547H24.6359ZM32.0106 78.5547V72.1067H33.2326L33.3366 73.2377C33.536 72.839 33.8263 72.527 34.2076 72.3017C34.5976 72.0677 35.044 71.9507 35.5466 71.9507C36.3266 71.9507 36.9376 72.1934 37.3796 72.6787C37.8303 73.164 38.0556 73.8877 38.0556 74.8497V78.5547H36.6906V74.9927C36.6906 73.7447 36.1793 73.1207 35.1566 73.1207C34.6453 73.1207 34.2206 73.3027 33.8826 73.6667C33.5533 74.0307 33.3886 74.5507 33.3886 75.2267V78.5547H32.0106ZM42.3176 76.5787C41.9796 76.5787 41.6676 76.5397 41.3816 76.4617L40.8226 77.0077C40.918 77.0684 41.035 77.1204 41.1736 77.1637C41.3123 77.207 41.5073 77.246 41.7586 77.2807C42.01 77.3154 42.3523 77.35 42.7856 77.3847C43.6436 77.4627 44.2633 77.6707 44.6446 78.0087C45.026 78.338 45.2166 78.78 45.2166 79.3347C45.2166 79.716 45.1126 80.0757 44.9046 80.4137C44.7053 80.7604 44.389 81.0377 43.9556 81.2457C43.531 81.4624 42.985 81.5707 42.3176 81.5707C41.4163 81.5707 40.684 81.3974 40.1206 81.0507C39.566 80.7127 39.2886 80.197 39.2886 79.5037C39.2886 79.235 39.358 78.9664 39.4966 78.6977C39.644 78.4377 39.8736 78.1907 40.1856 77.9567C40.0036 77.8787 39.8433 77.7964 39.7046 77.7097C39.5746 77.6144 39.4576 77.519 39.3536 77.4237V77.1117L40.4716 75.9677C39.969 75.5344 39.7176 74.9667 39.7176 74.2647C39.7176 73.84 39.8173 73.4544 40.0166 73.1077C40.2246 72.7524 40.5236 72.4707 40.9136 72.2627C41.3036 72.0547 41.7716 71.9507 42.3176 71.9507C42.6816 71.9507 43.0196 72.0027 43.3316 72.1067H45.7366V73.0167L44.5926 73.0817C44.8006 73.437 44.9046 73.8314 44.9046 74.2647C44.9046 74.698 44.8006 75.088 44.5926 75.4347C44.3933 75.7814 44.0986 76.0587 43.7086 76.2667C43.3273 76.4747 42.8636 76.5787 42.3176 76.5787ZM42.3176 75.4997C42.7163 75.4997 43.037 75.3957 43.2796 75.1877C43.531 74.971 43.6566 74.6677 43.6566 74.2777C43.6566 73.879 43.531 73.5757 43.2796 73.3677C43.037 73.1597 42.7163 73.0557 42.3176 73.0557C41.9103 73.0557 41.581 73.1597 41.3296 73.3677C41.087 73.5757 40.9656 73.879 40.9656 74.2777C40.9656 74.6677 41.087 74.971 41.3296 75.1877C41.581 75.3957 41.9103 75.4997 42.3176 75.4997ZM40.5886 79.3737C40.5886 79.7464 40.7533 80.0237 41.0826 80.2057C41.412 80.3964 41.8236 80.4917 42.3176 80.4917C42.7943 80.4917 43.18 80.3877 43.4746 80.1797C43.7693 79.9804 43.9166 79.7117 43.9166 79.3737C43.9166 79.1224 43.817 78.9057 43.6176 78.7237C43.4183 78.5504 43.0413 78.442 42.4866 78.3987C42.0706 78.3727 41.7023 78.3337 41.3816 78.2817C41.0783 78.4464 40.8703 78.624 40.7576 78.8147C40.645 79.0054 40.5886 79.1917 40.5886 79.3737ZM46.9657 78.5547V69.1947H48.3437V78.5547H46.9657ZM50.8688 70.8847C50.6088 70.8847 50.3921 70.8067 50.2188 70.6507C50.0541 70.486 49.9718 70.2824 49.9718 70.0397C49.9718 69.797 50.0541 69.5977 50.2188 69.4417C50.3921 69.277 50.6088 69.1947 50.8688 69.1947C51.1288 69.1947 51.3411 69.277 51.5058 69.4417C51.6791 69.5977 51.7658 69.797 51.7658 70.0397C51.7658 70.2824 51.6791 70.486 51.5058 70.6507C51.3411 70.8067 51.1288 70.8847 50.8688 70.8847ZM50.1798 78.5547V72.1067H51.5578V78.5547H50.1798ZM55.9509 78.7107C55.1362 78.7107 54.4645 78.5114 53.9359 78.1127C53.4072 77.714 53.1039 77.1854 53.0259 76.5267H54.4169C54.4862 76.8214 54.6509 77.077 54.9109 77.2937C55.1709 77.5017 55.5132 77.6057 55.9379 77.6057C56.3539 77.6057 56.6572 77.519 56.8479 77.3457C57.0385 77.1724 57.1339 76.973 57.1339 76.7477C57.1339 76.4184 56.9995 76.1974 56.7309 76.0847C56.4709 75.9634 56.1069 75.855 55.6389 75.7597C55.2749 75.6817 54.9109 75.5777 54.5469 75.4477C54.1915 75.3177 53.8925 75.1357 53.6499 74.9017C53.4159 74.659 53.2989 74.334 53.2989 73.9267C53.2989 73.3634 53.5155 72.8954 53.9489 72.5227C54.3822 72.1414 54.9889 71.9507 55.7689 71.9507C56.4882 71.9507 57.0689 72.124 57.5109 72.4707C57.9615 72.8174 58.2259 73.307 58.3039 73.9397H56.9779C56.9345 73.6624 56.8045 73.4457 56.5879 73.2897C56.3799 73.1337 56.0982 73.0557 55.7429 73.0557C55.3962 73.0557 55.1275 73.1294 54.9369 73.2767C54.7462 73.4154 54.6509 73.5974 54.6509 73.8227C54.6509 74.048 54.7809 74.2257 55.0409 74.3557C55.3095 74.4857 55.6605 74.6027 56.0939 74.7067C56.5272 74.802 56.9259 74.9147 57.2899 75.0447C57.6625 75.166 57.9615 75.348 58.1869 75.5907C58.4122 75.8334 58.5249 76.1887 58.5249 76.6567C58.5335 77.246 58.3039 77.7357 57.8359 78.1257C57.3765 78.5157 56.7482 78.7107 55.9509 78.7107ZM60.0292 78.5547V69.1947H61.4072V73.1467C61.6239 72.774 61.9229 72.4837 62.3042 72.2757C62.6942 72.059 63.1232 71.9507 63.5912 71.9507C64.3625 71.9507 64.9692 72.1934 65.4112 72.6787C65.8532 73.164 66.0742 73.8877 66.0742 74.8497V78.5547H64.7092V74.9927C64.7092 73.7447 64.2109 73.1207 63.2142 73.1207C62.6942 73.1207 62.2609 73.3027 61.9142 73.6667C61.5762 74.0307 61.4072 74.5507 61.4072 75.2267V78.5547H60.0292ZM74.0276 78.7107C73.3602 78.7107 72.7752 78.5937 72.2726 78.3597C71.7699 78.1257 71.3756 77.792 71.0896 77.3587C70.8122 76.9254 70.6692 76.4097 70.6606 75.8117H72.1166C72.1252 76.297 72.2942 76.7087 72.6236 77.0467C72.9529 77.3847 73.4166 77.5537 74.0146 77.5537C74.5432 77.5537 74.9549 77.428 75.2496 77.1767C75.5529 76.9167 75.7046 76.5874 75.7046 76.1887C75.7046 75.868 75.6309 75.608 75.4836 75.4087C75.3449 75.2094 75.1499 75.0447 74.8986 74.9147C74.6559 74.7847 74.3742 74.6677 74.0536 74.5637C73.7329 74.4597 73.3949 74.347 73.0396 74.2257C72.3376 73.9917 71.8089 73.6884 71.4536 73.3157C71.1069 72.943 70.9336 72.4534 70.9336 71.8467C70.9249 71.3354 71.0419 70.889 71.2846 70.5077C71.5359 70.1264 71.8826 69.8317 72.3246 69.6237C72.7752 69.407 73.2996 69.2987 73.8976 69.2987C74.4869 69.2987 75.0026 69.407 75.4446 69.6237C75.8952 69.8404 76.2462 70.1437 76.4976 70.5337C76.7489 70.915 76.8789 71.3614 76.8876 71.8727H75.4316C75.4316 71.6387 75.3709 71.4177 75.2496 71.2097C75.1282 70.993 74.9506 70.8154 74.7166 70.6767C74.4826 70.538 74.1966 70.4687 73.8586 70.4687C73.4252 70.46 73.0656 70.5684 72.7796 70.7937C72.5022 71.019 72.3636 71.331 72.3636 71.7297C72.3636 72.085 72.4676 72.358 72.6756 72.5487C72.8836 72.7394 73.1696 72.8997 73.5336 73.0297C73.8976 73.151 74.3136 73.294 74.7816 73.4587C75.2322 73.606 75.6352 73.7837 75.9906 73.9917C76.3459 74.1997 76.6276 74.4727 76.8356 74.8107C77.0522 75.1487 77.1606 75.5777 77.1606 76.0977C77.1606 76.557 77.0436 76.986 76.8096 77.3847C76.5756 77.7747 76.2246 78.0954 75.7566 78.3467C75.2886 78.5894 74.7122 78.7107 74.0276 78.7107ZM78.6151 81.4147V72.1067H79.8501L79.9931 73.1077C80.2011 72.8044 80.4871 72.5357 80.8511 72.3017C81.2151 72.0677 81.6831 71.9507 82.2551 71.9507C82.8791 71.9507 83.4295 72.098 83.9061 72.3927C84.3828 72.6874 84.7555 73.0904 85.0241 73.6017C85.3015 74.113 85.4401 74.6937 85.4401 75.3437C85.4401 75.9937 85.3015 76.5744 85.0241 77.0857C84.7555 77.5884 84.3828 77.987 83.9061 78.2817C83.4295 78.5677 82.8748 78.7107 82.2421 78.7107C81.7395 78.7107 81.2931 78.611 80.9031 78.4117C80.5218 78.2124 80.2185 77.9307 79.9931 77.5667V81.4147H78.6151ZM82.0081 77.5147C82.5975 77.5147 83.0828 77.3154 83.4641 76.9167C83.8455 76.5094 84.0361 75.9807 84.0361 75.3307C84.0361 74.906 83.9495 74.529 83.7761 74.1997C83.6028 73.8704 83.3645 73.6147 83.0611 73.4327C82.7578 73.242 82.4068 73.1467 82.0081 73.1467C81.4188 73.1467 80.9335 73.3504 80.5521 73.7577C80.1795 74.165 79.9931 74.6894 79.9931 75.3307C79.9931 75.9807 80.1795 76.5094 80.5521 76.9167C80.9335 77.3154 81.4188 77.5147 82.0081 77.5147ZM89.9466 78.7107C89.3139 78.7107 88.7506 78.572 88.2566 78.2947C87.7712 78.0087 87.3899 77.6144 87.1126 77.1117C86.8352 76.609 86.6966 76.024 86.6966 75.3567C86.6966 74.6807 86.8309 74.087 87.0996 73.5757C87.3769 73.0644 87.7582 72.6657 88.2436 72.3797C88.7376 72.0937 89.3096 71.9507 89.9596 71.9507C90.5922 71.9507 91.1426 72.0937 91.6106 72.3797C92.0786 72.657 92.4426 73.0297 92.7026 73.4977C92.9626 73.9657 93.0926 74.4814 93.0926 75.0447C93.0926 75.1314 93.0882 75.2267 93.0796 75.3307C93.0796 75.426 93.0752 75.5344 93.0666 75.6557H88.0486C88.0919 76.2797 88.2956 76.7564 88.6596 77.0857C89.0322 77.4064 89.4612 77.5667 89.9466 77.5667C90.3366 77.5667 90.6616 77.48 90.9216 77.3067C91.1902 77.1247 91.3896 76.882 91.5196 76.5787H92.8976C92.7242 77.1854 92.3776 77.6924 91.8576 78.0997C91.3462 78.507 90.7092 78.7107 89.9466 78.7107ZM89.9466 73.0817C89.4872 73.0817 89.0799 73.2204 88.7246 73.4977C88.3692 73.7664 88.1526 74.1737 88.0746 74.7197H91.7146C91.6886 74.217 91.5109 73.8184 91.1816 73.5237C90.8522 73.229 90.4406 73.0817 89.9466 73.0817ZM96.7064 78.7107C96.1604 78.7107 95.7097 78.6197 95.3544 78.4377C94.999 78.2557 94.7347 78.0174 94.5614 77.7227C94.388 77.4194 94.3014 77.09 94.3014 76.7347C94.3014 76.1107 94.544 75.6167 95.0294 75.2527C95.5147 74.8887 96.208 74.7067 97.1094 74.7067H98.7994V74.5897C98.7994 74.087 98.6607 73.71 98.3834 73.4587C98.1147 73.2074 97.7637 73.0817 97.3304 73.0817C96.949 73.0817 96.6154 73.177 96.3294 73.3677C96.052 73.5497 95.883 73.8227 95.8224 74.1867H94.4444C94.4877 73.7187 94.6437 73.32 94.9124 72.9907C95.1897 72.6527 95.5364 72.397 95.9524 72.2237C96.377 72.0417 96.8407 71.9507 97.3434 71.9507C98.2447 71.9507 98.9424 72.189 99.4364 72.6657C99.9304 73.1337 100.177 73.775 100.177 74.5897V78.5547H98.9814L98.8644 77.4497C98.6824 77.805 98.418 78.104 98.0714 78.3467C97.7247 78.5894 97.2697 78.7107 96.7064 78.7107ZM96.9794 77.5927C97.352 77.5927 97.664 77.506 97.9154 77.3327C98.1754 77.1507 98.3747 76.9124 98.5134 76.6177C98.6607 76.323 98.7517 75.998 98.7864 75.6427H97.2524C96.7064 75.6427 96.3164 75.738 96.0824 75.9287C95.857 76.1194 95.7444 76.3577 95.7444 76.6437C95.7444 76.9384 95.8527 77.1724 96.0694 77.3457C96.2947 77.5104 96.598 77.5927 96.9794 77.5927ZM101.784 78.5547V69.1947H103.162V74.7717L105.632 72.1067H107.283L104.54 75.0317L107.686 78.5547H105.944L103.162 75.2527V78.5547H101.784ZM109.534 70.8847C109.274 70.8847 109.057 70.8067 108.884 70.6507C108.719 70.486 108.637 70.2824 108.637 70.0397C108.637 69.797 108.719 69.5977 108.884 69.4417C109.057 69.277 109.274 69.1947 109.534 69.1947C109.794 69.1947 110.006 69.277 110.171 69.4417C110.344 69.5977 110.431 69.797 110.431 70.0397C110.431 70.2824 110.344 70.486 110.171 70.6507C110.006 70.8067 109.794 70.8847 109.534 70.8847ZM108.845 78.5547V72.1067H110.223V78.5547H108.845ZM112.042 78.5547V72.1067H113.264L113.368 73.2377C113.567 72.839 113.858 72.527 114.239 72.3017C114.629 72.0677 115.075 71.9507 115.578 71.9507C116.358 71.9507 116.969 72.1934 117.411 72.6787C117.862 73.164 118.087 73.8877 118.087 74.8497V78.5547H116.722V74.9927C116.722 73.7447 116.211 73.1207 115.188 73.1207C114.677 73.1207 114.252 73.3027 113.914 73.6667C113.585 74.0307 113.42 74.5507 113.42 75.2267V78.5547H112.042ZM122.349 76.5787C122.011 76.5787 121.699 76.5397 121.413 76.4617L120.854 77.0077C120.949 77.0684 121.066 77.1204 121.205 77.1637C121.344 77.207 121.539 77.246 121.79 77.2807C122.041 77.3154 122.384 77.35 122.817 77.3847C123.675 77.4627 124.295 77.6707 124.676 78.0087C125.057 78.338 125.248 78.78 125.248 79.3347C125.248 79.716 125.144 80.0757 124.936 80.4137C124.737 80.7604 124.42 81.0377 123.987 81.2457C123.562 81.4624 123.016 81.5707 122.349 81.5707C121.448 81.5707 120.715 81.3974 120.152 81.0507C119.597 80.7127 119.32 80.197 119.32 79.5037C119.32 79.235 119.389 78.9664 119.528 78.6977C119.675 78.4377 119.905 78.1907 120.217 77.9567C120.035 77.8787 119.875 77.7964 119.736 77.7097C119.606 77.6144 119.489 77.519 119.385 77.4237V77.1117L120.503 75.9677C120 75.5344 119.749 74.9667 119.749 74.2647C119.749 73.84 119.849 73.4544 120.048 73.1077C120.256 72.7524 120.555 72.4707 120.945 72.2627C121.335 72.0547 121.803 71.9507 122.349 71.9507C122.713 71.9507 123.051 72.0027 123.363 72.1067H125.768V73.0167L124.624 73.0817C124.832 73.437 124.936 73.8314 124.936 74.2647C124.936 74.698 124.832 75.088 124.624 75.4347C124.425 75.7814 124.13 76.0587 123.74 76.2667C123.359 76.4747 122.895 76.5787 122.349 76.5787ZM122.349 75.4997C122.748 75.4997 123.068 75.3957 123.311 75.1877C123.562 74.971 123.688 74.6677 123.688 74.2777C123.688 73.879 123.562 73.5757 123.311 73.3677C123.068 73.1597 122.748 73.0557 122.349 73.0557C121.942 73.0557 121.612 73.1597 121.361 73.3677C121.118 73.5757 120.997 73.879 120.997 74.2777C120.997 74.6677 121.118 74.971 121.361 75.1877C121.612 75.3957 121.942 75.4997 122.349 75.4997ZM120.62 79.3737C120.62 79.7464 120.785 80.0237 121.114 80.2057C121.443 80.3964 121.855 80.4917 122.349 80.4917C122.826 80.4917 123.211 80.3877 123.506 80.1797C123.801 79.9804 123.948 79.7117 123.948 79.3737C123.948 79.1224 123.848 78.9057 123.649 78.7237C123.45 78.5504 123.073 78.442 122.518 78.3987C122.102 78.3727 121.734 78.3337 121.413 78.2817C121.11 78.4464 120.902 78.624 120.789 78.8147C120.676 79.0054 120.62 79.1917 120.62 79.3737ZM130.324 78.5547V69.4547H136.031V70.5727H131.702V73.4457H135.29V74.5507H131.702V78.5547H130.324ZM138.111 70.8847C137.851 70.8847 137.634 70.8067 137.461 70.6507C137.296 70.486 137.214 70.2824 137.214 70.0397C137.214 69.797 137.296 69.5977 137.461 69.4417C137.634 69.277 137.851 69.1947 138.111 69.1947C138.371 69.1947 138.583 69.277 138.748 69.4417C138.921 69.5977 139.008 69.797 139.008 70.0397C139.008 70.2824 138.921 70.486 138.748 70.6507C138.583 70.8067 138.371 70.8847 138.111 70.8847ZM137.422 78.5547V72.1067H138.8V78.5547H137.422ZM140.619 78.5547V72.1067H141.841L141.945 73.2377C142.144 72.839 142.435 72.527 142.816 72.3017C143.206 72.0677 143.652 71.9507 144.155 71.9507C144.935 71.9507 145.546 72.1934 145.988 72.6787C146.439 73.164 146.664 73.8877 146.664 74.8497V78.5547H145.299V74.9927C145.299 73.7447 144.788 73.1207 143.765 73.1207C143.254 73.1207 142.829 73.3027 142.491 73.6667C142.162 74.0307 141.997 74.5507 141.997 75.2267V78.5547H140.619ZM150.471 78.7107C149.925 78.7107 149.474 78.6197 149.119 78.4377C148.764 78.2557 148.499 78.0174 148.326 77.7227C148.153 77.4194 148.066 77.09 148.066 76.7347C148.066 76.1107 148.309 75.6167 148.794 75.2527C149.279 74.8887 149.973 74.7067 150.874 74.7067H152.564V74.5897C152.564 74.087 152.425 73.71 152.148 73.4587C151.879 73.2074 151.528 73.0817 151.095 73.0817C150.714 73.0817 150.38 73.177 150.094 73.3677C149.817 73.5497 149.648 73.8227 149.587 74.1867H148.209C148.252 73.7187 148.408 73.32 148.677 72.9907C148.954 72.6527 149.301 72.397 149.717 72.2237C150.142 72.0417 150.605 71.9507 151.108 71.9507C152.009 71.9507 152.707 72.189 153.201 72.6657C153.695 73.1337 153.942 73.775 153.942 74.5897V78.5547H152.746L152.629 77.4497C152.447 77.805 152.183 78.104 151.836 78.3467C151.489 78.5894 151.034 78.7107 150.471 78.7107ZM150.744 77.5927C151.117 77.5927 151.429 77.506 151.68 77.3327C151.94 77.1507 152.139 76.9124 152.278 76.6177C152.425 76.323 152.516 75.998 152.551 75.6427H151.017C150.471 75.6427 150.081 75.738 149.847 75.9287C149.622 76.1194 149.509 76.3577 149.509 76.6437C149.509 76.9384 149.617 77.1724 149.834 77.3457C150.059 77.5104 150.363 77.5927 150.744 77.5927ZM155.549 78.5547V69.1947H156.927V78.5547H155.549ZM161.414 78.5547L164.768 69.4547H166.276L169.604 78.5547H168.148L167.368 76.3317H163.65L162.87 78.5547H161.414ZM164.04 75.2397H166.978L165.509 71.0927L164.04 75.2397ZM173.395 78.7107C172.581 78.7107 171.909 78.5114 171.38 78.1127C170.852 77.714 170.548 77.1854 170.47 76.5267H171.861C171.931 76.8214 172.095 77.077 172.355 77.2937C172.615 77.5017 172.958 77.6057 173.382 77.6057C173.798 77.6057 174.102 77.519 174.292 77.3457C174.483 77.1724 174.578 76.973 174.578 76.7477C174.578 76.4184 174.444 76.1974 174.175 76.0847C173.915 75.9634 173.551 75.855 173.083 75.7597C172.719 75.6817 172.355 75.5777 171.991 75.4477C171.636 75.3177 171.337 75.1357 171.094 74.9017C170.86 74.659 170.743 74.334 170.743 73.9267C170.743 73.3634 170.96 72.8954 171.393 72.5227C171.827 72.1414 172.433 71.9507 173.213 71.9507C173.933 71.9507 174.513 72.124 174.955 72.4707C175.406 72.8174 175.67 73.307 175.748 73.9397H174.422C174.379 73.6624 174.249 73.4457 174.032 73.2897C173.824 73.1337 173.543 73.0557 173.187 73.0557C172.841 73.0557 172.572 73.1294 172.381 73.2767C172.191 73.4154 172.095 73.5974 172.095 73.8227C172.095 74.048 172.225 74.2257 172.485 74.3557C172.754 74.4857 173.105 74.6027 173.538 74.7067C173.972 74.802 174.37 74.9147 174.734 75.0447C175.107 75.166 175.406 75.348 175.631 75.5907C175.857 75.8334 175.969 76.1887 175.969 76.6567C175.978 77.246 175.748 77.7357 175.28 78.1257C174.821 78.5157 174.193 78.7107 173.395 78.7107ZM180.048 78.7107C179.233 78.7107 178.561 78.5114 178.033 78.1127C177.504 77.714 177.201 77.1854 177.123 76.5267H178.514C178.583 76.8214 178.748 77.077 179.008 77.2937C179.268 77.5017 179.61 77.6057 180.035 77.6057C180.451 77.6057 180.754 77.519 180.945 77.3457C181.135 77.1724 181.231 76.973 181.231 76.7477C181.231 76.4184 181.096 76.1974 180.828 76.0847C180.568 75.9634 180.204 75.855 179.736 75.7597C179.372 75.6817 179.008 75.5777 178.644 75.4477C178.288 75.3177 177.989 75.1357 177.747 74.9017C177.513 74.659 177.396 74.334 177.396 73.9267C177.396 73.3634 177.612 72.8954 178.046 72.5227C178.479 72.1414 179.086 71.9507 179.866 71.9507C180.585 71.9507 181.166 72.124 181.608 72.4707C182.058 72.8174 182.323 73.307 182.401 73.9397H181.075C181.031 73.6624 180.901 73.4457 180.685 73.2897C180.477 73.1337 180.195 73.0557 179.84 73.0557C179.493 73.0557 179.224 73.1294 179.034 73.2767C178.843 73.4154 178.748 73.5974 178.748 73.8227C178.748 74.048 178.878 74.2257 179.138 74.3557C179.406 74.4857 179.757 74.6027 180.191 74.7067C180.624 74.802 181.023 74.9147 181.387 75.0447C181.759 75.166 182.058 75.348 182.284 75.5907C182.509 75.8334 182.622 76.1887 182.622 76.6567C182.63 77.246 182.401 77.7357 181.933 78.1257C181.473 78.5157 180.845 78.7107 180.048 78.7107ZM184.906 70.8847C184.646 70.8847 184.429 70.8067 184.256 70.6507C184.091 70.486 184.009 70.2824 184.009 70.0397C184.009 69.797 184.091 69.5977 184.256 69.4417C184.429 69.277 184.646 69.1947 184.906 69.1947C185.166 69.1947 185.378 69.277 185.543 69.4417C185.716 69.5977 185.803 69.797 185.803 70.0397C185.803 70.2824 185.716 70.486 185.543 70.6507C185.378 70.8067 185.166 70.8847 184.906 70.8847ZM184.217 78.5547V72.1067H185.595V78.5547H184.217ZM190.053 76.5787C189.715 76.5787 189.403 76.5397 189.117 76.4617L188.558 77.0077C188.653 77.0684 188.77 77.1204 188.909 77.1637C189.048 77.207 189.243 77.246 189.494 77.2807C189.745 77.3154 190.088 77.35 190.521 77.3847C191.379 77.4627 191.999 77.6707 192.38 78.0087C192.761 78.338 192.952 78.78 192.952 79.3347C192.952 79.716 192.848 80.0757 192.64 80.4137C192.441 80.7604 192.124 81.0377 191.691 81.2457C191.266 81.4624 190.72 81.5707 190.053 81.5707C189.152 81.5707 188.419 81.3974 187.856 81.0507C187.301 80.7127 187.024 80.197 187.024 79.5037C187.024 79.235 187.093 78.9664 187.232 78.6977C187.379 78.4377 187.609 78.1907 187.921 77.9567C187.739 77.8787 187.579 77.7964 187.44 77.7097C187.31 77.6144 187.193 77.519 187.089 77.4237V77.1117L188.207 75.9677C187.704 75.5344 187.453 74.9667 187.453 74.2647C187.453 73.84 187.553 73.4544 187.752 73.1077C187.96 72.7524 188.259 72.4707 188.649 72.2627C189.039 72.0547 189.507 71.9507 190.053 71.9507C190.417 71.9507 190.755 72.0027 191.067 72.1067H193.472V73.0167L192.328 73.0817C192.536 73.437 192.64 73.8314 192.64 74.2647C192.64 74.698 192.536 75.088 192.328 75.4347C192.129 75.7814 191.834 76.0587 191.444 76.2667C191.063 76.4747 190.599 76.5787 190.053 76.5787ZM190.053 75.4997C190.452 75.4997 190.772 75.3957 191.015 75.1877C191.266 74.971 191.392 74.6677 191.392 74.2777C191.392 73.879 191.266 73.5757 191.015 73.3677C190.772 73.1597 190.452 73.0557 190.053 73.0557C189.646 73.0557 189.316 73.1597 189.065 73.3677C188.822 73.5757 188.701 73.879 188.701 74.2777C188.701 74.6677 188.822 74.971 189.065 75.1877C189.316 75.3957 189.646 75.4997 190.053 75.4997ZM188.324 79.3737C188.324 79.7464 188.489 80.0237 188.818 80.2057C189.147 80.3964 189.559 80.4917 190.053 80.4917C190.53 80.4917 190.915 80.3877 191.21 80.1797C191.505 79.9804 191.652 79.7117 191.652 79.3737C191.652 79.1224 191.552 78.9057 191.353 78.7237C191.154 78.5504 190.777 78.442 190.222 78.3987C189.806 78.3727 189.438 78.3337 189.117 78.2817C188.814 78.4464 188.606 78.624 188.493 78.8147C188.38 79.0054 188.324 79.1917 188.324 79.3737ZM194.701 78.5547V72.1067H195.923L196.027 73.2377C196.226 72.839 196.517 72.527 196.898 72.3017C197.288 72.0677 197.734 71.9507 198.237 71.9507C199.017 71.9507 199.628 72.1934 200.07 72.6787C200.521 73.164 200.746 73.8877 200.746 74.8497V78.5547H199.381V74.9927C199.381 73.7447 198.87 73.1207 197.847 73.1207C197.336 73.1207 196.911 73.3027 196.573 73.6667C196.244 74.0307 196.079 74.5507 196.079 75.2267V78.5547H194.701ZM202.369 78.5547V72.1067H203.591L203.708 73.0167C203.916 72.6874 204.189 72.4274 204.527 72.2367C204.874 72.046 205.272 71.9507 205.723 71.9507C206.746 71.9507 207.456 72.3537 207.855 73.1597C208.089 72.787 208.401 72.4924 208.791 72.2757C209.19 72.059 209.619 71.9507 210.078 71.9507C210.884 71.9507 211.517 72.1934 211.976 72.6787C212.435 73.164 212.665 73.8877 212.665 74.8497V78.5547H211.287V74.9927C211.287 73.7447 210.81 73.1207 209.857 73.1207C209.372 73.1207 208.973 73.3027 208.661 73.6667C208.358 74.0307 208.206 74.5507 208.206 75.2267V78.5547H206.828V74.9927C206.828 73.7447 206.347 73.1207 205.385 73.1207C204.908 73.1207 204.514 73.3027 204.202 73.6667C203.899 74.0307 203.747 74.5507 203.747 75.2267V78.5547H202.369ZM217.293 78.7107C216.661 78.7107 216.097 78.572 215.603 78.2947C215.118 78.0087 214.737 77.6144 214.459 77.1117C214.182 76.609 214.043 76.024 214.043 75.3567C214.043 74.6807 214.178 74.087 214.446 73.5757C214.724 73.0644 215.105 72.6657 215.59 72.3797C216.084 72.0937 216.656 71.9507 217.306 71.9507C217.939 71.9507 218.489 72.0937 218.957 72.3797C219.425 72.657 219.789 73.0297 220.049 73.4977C220.309 73.9657 220.439 74.4814 220.439 75.0447C220.439 75.1314 220.435 75.2267 220.426 75.3307C220.426 75.426 220.422 75.5344 220.413 75.6557H215.395C215.439 76.2797 215.642 76.7564 216.006 77.0857C216.379 77.4064 216.808 77.5667 217.293 77.5667C217.683 77.5667 218.008 77.48 218.268 77.3067C218.537 77.1247 218.736 76.882 218.866 76.5787H220.244C220.071 77.1854 219.724 77.6924 219.204 78.0997C218.693 78.507 218.056 78.7107 217.293 78.7107ZM217.293 73.0817C216.834 73.0817 216.427 73.2204 216.071 73.4977C215.716 73.7664 215.499 74.1737 215.421 74.7197H219.061C219.035 74.217 218.858 73.8184 218.528 73.5237C218.199 73.229 217.787 73.0817 217.293 73.0817ZM221.869 78.5547V72.1067H223.091L223.195 73.2377C223.394 72.839 223.685 72.527 224.066 72.3017C224.456 72.0677 224.902 71.9507 225.405 71.9507C226.185 71.9507 226.796 72.1934 227.238 72.6787C227.689 73.164 227.914 73.8877 227.914 74.8497V78.5547H226.549V74.9927C226.549 73.7447 226.038 73.1207 225.015 73.1207C224.504 73.1207 224.079 73.3027 223.741 73.6667C223.412 74.0307 223.247 74.5507 223.247 75.2267V78.5547H221.869ZM232.241 78.5547C231.608 78.5547 231.106 78.403 230.733 78.0997C230.36 77.7877 230.174 77.2374 230.174 76.4487V73.2637H229.069V72.1067H230.174L230.343 70.4687H231.552V72.1067H233.372V73.2637H231.552V76.4487C231.552 76.804 231.626 77.051 231.773 77.1897C231.929 77.3197 232.193 77.3847 232.566 77.3847H233.307V78.5547H232.241ZM26.8849 97.4397C26.3996 96.9717 25.9619 96.4214 25.5719 95.7887C25.1906 95.1647 24.8829 94.4714 24.6489 93.7087C24.4236 92.9374 24.3109 92.1097 24.3109 91.2257C24.3109 90.3417 24.4236 89.5184 24.6489 88.7557C24.8829 87.9844 25.1906 87.2867 25.5719 86.6627C25.9619 86.03 26.3996 85.4797 26.8849 85.0117H28.2629V85.1417C27.4829 85.9477 26.8546 86.8707 26.3779 87.9107C25.9099 88.9507 25.6759 90.0557 25.6759 91.2257C25.6759 92.3957 25.9099 93.5007 26.3779 94.5407C26.8546 95.5807 27.4872 96.5037 28.2759 97.3097V97.4397H26.8849ZM32.3415 95.5547L28.9745 86.4547H30.4435L33.1735 94.1247L35.9165 86.4547H37.3725L34.0055 95.5547H32.3415ZM39.2653 87.8847C39.0053 87.8847 38.7886 87.8067 38.6153 87.6507C38.4506 87.486 38.3683 87.2824 38.3683 87.0397C38.3683 86.797 38.4506 86.5977 38.6153 86.4417C38.7886 86.277 39.0053 86.1947 39.2653 86.1947C39.5253 86.1947 39.7376 86.277 39.9023 86.4417C40.0756 86.5977 40.1623 86.797 40.1623 87.0397C40.1623 87.2824 40.0756 87.486 39.9023 87.6507C39.7376 87.8067 39.5253 87.8847 39.2653 87.8847ZM38.5763 95.5547V89.1067H39.9543V95.5547H38.5763ZM44.7113 95.7107C44.0873 95.7107 43.537 95.5634 43.0603 95.2687C42.5837 94.974 42.211 94.571 41.9423 94.0597C41.6737 93.5484 41.5393 92.9677 41.5393 92.3177C41.5393 91.6677 41.6737 91.0914 41.9423 90.5887C42.211 90.0774 42.5837 89.6787 43.0603 89.3927C43.5457 89.098 44.1003 88.9507 44.7243 88.9507C45.2357 88.9507 45.682 89.0504 46.0633 89.2497C46.4533 89.449 46.7567 89.7307 46.9733 90.0947V86.1947H48.3513V95.5547H47.1163L46.9733 94.5537C46.7653 94.857 46.4793 95.1257 46.1153 95.3597C45.7513 95.5937 45.2833 95.7107 44.7113 95.7107ZM44.9583 94.5147C45.5477 94.5147 46.0287 94.311 46.4013 93.9037C46.7827 93.4964 46.9733 92.972 46.9733 92.3307C46.9733 91.6807 46.7827 91.1564 46.4013 90.7577C46.0287 90.3504 45.5477 90.1467 44.9583 90.1467C44.369 90.1467 43.8837 90.3504 43.5023 90.7577C43.121 91.1564 42.9303 91.6807 42.9303 92.3307C42.9303 92.7554 43.017 93.1324 43.1903 93.4617C43.3637 93.791 43.602 94.051 43.9053 94.2417C44.2173 94.4237 44.5683 94.5147 44.9583 94.5147ZM53.1048 95.7107C52.4721 95.7107 51.9088 95.572 51.4148 95.2947C50.9294 95.0087 50.5481 94.6144 50.2708 94.1117C49.9934 93.609 49.8548 93.024 49.8548 92.3567C49.8548 91.6807 49.9891 91.087 50.2578 90.5757C50.5351 90.0644 50.9164 89.6657 51.4018 89.3797C51.8958 89.0937 52.4678 88.9507 53.1178 88.9507C53.7504 88.9507 54.3008 89.0937 54.7688 89.3797C55.2368 89.657 55.6008 90.0297 55.8608 90.4977C56.1208 90.9657 56.2508 91.4814 56.2508 92.0447C56.2508 92.1314 56.2464 92.2267 56.2378 92.3307C56.2378 92.426 56.2334 92.5344 56.2248 92.6557H51.2068C51.2501 93.2797 51.4538 93.7564 51.8178 94.0857C52.1904 94.4064 52.6194 94.5667 53.1048 94.5667C53.4948 94.5667 53.8198 94.48 54.0798 94.3067C54.3484 94.1247 54.5478 93.882 54.6778 93.5787H56.0558C55.8824 94.1854 55.5358 94.6924 55.0158 95.0997C54.5044 95.507 53.8674 95.7107 53.1048 95.7107ZM53.1048 90.0817C52.6454 90.0817 52.2381 90.2204 51.8828 90.4977C51.5274 90.7664 51.3108 91.1737 51.2328 91.7197H54.8728C54.8468 91.217 54.6691 90.8184 54.3398 90.5237C54.0104 90.229 53.5988 90.0817 53.1048 90.0817ZM60.6966 95.7107C60.0812 95.7107 59.5266 95.572 59.0326 95.2947C58.5472 95.0087 58.1616 94.6144 57.8756 94.1117C57.5896 93.6004 57.4466 93.0067 57.4466 92.3307C57.4466 91.6547 57.5896 91.0654 57.8756 90.5627C58.1702 90.0514 58.5646 89.657 59.0586 89.3797C59.5526 89.0937 60.1029 88.9507 60.7096 88.9507C61.3249 88.9507 61.8752 89.0937 62.3606 89.3797C62.8546 89.657 63.2446 90.0514 63.5306 90.5627C63.8252 91.0654 63.9726 91.6547 63.9726 92.3307C63.9726 93.0067 63.8252 93.6004 63.5306 94.1117C63.2446 94.6144 62.8546 95.0087 62.3606 95.2947C61.8666 95.572 61.3119 95.7107 60.6966 95.7107ZM60.6966 94.5277C61.0259 94.5277 61.3292 94.4454 61.6066 94.2807C61.8926 94.116 62.1222 93.8734 62.2956 93.5527C62.4689 93.2234 62.5556 92.816 62.5556 92.3307C62.5556 91.8454 62.4689 91.4424 62.2956 91.1217C62.1309 90.7924 61.9056 90.5454 61.6196 90.3807C61.3422 90.216 61.0389 90.1337 60.7096 90.1337C60.3802 90.1337 60.0726 90.216 59.7866 90.3807C59.5092 90.5454 59.2839 90.7924 59.1106 91.1217C58.9372 91.4424 58.8506 91.8454 58.8506 92.3307C58.8506 92.816 58.9372 93.2234 59.1106 93.5527C59.2839 93.8734 59.5092 94.116 59.7866 94.2807C60.0639 94.4454 60.3672 94.5277 60.6966 94.5277ZM64.4755 97.4397V97.3097C65.2555 96.5037 65.8838 95.5807 66.3605 94.5407C66.8372 93.5007 67.0755 92.3957 67.0755 91.2257C67.0755 90.0557 66.8372 88.9507 66.3605 87.9107C65.8925 86.8707 65.2685 85.9477 64.4885 85.1417V85.0117H65.8665C66.3432 85.4797 66.7765 86.03 67.1665 86.6627C67.5565 87.2867 67.8642 87.9844 68.0895 88.7557C68.3235 89.5184 68.4405 90.3417 68.4405 91.2257C68.4405 92.1097 68.3235 92.9374 68.0895 93.7087C67.8642 94.4714 67.5565 95.1647 67.1665 95.7887C66.7765 96.4214 66.3432 96.9717 65.8665 97.4397H64.4755Z" fill="#232360"/>
<path d="M28.596 119.144C27.764 119.144 27.044 118.964 26.436 118.604C25.836 118.236 25.372 117.728 25.044 117.08C24.716 116.424 24.552 115.668 24.552 114.812C24.552 113.948 24.716 113.192 25.044 112.544C25.372 111.888 25.836 111.376 26.436 111.008C27.044 110.64 27.764 110.456 28.596 110.456C29.58 110.456 30.384 110.696 31.008 111.176C31.632 111.656 32.028 112.328 32.196 113.192H30.78C30.668 112.704 30.428 112.316 30.06 112.028C29.692 111.74 29.2 111.596 28.584 111.596C27.744 111.596 27.08 111.884 26.592 112.46C26.104 113.028 25.86 113.812 25.86 114.812C25.86 115.804 26.104 116.584 26.592 117.152C27.08 117.72 27.744 118.004 28.584 118.004C29.2 118.004 29.692 117.868 30.06 117.596C30.428 117.324 30.668 116.952 30.78 116.48H32.196C32.028 117.312 31.632 117.964 31.008 118.436C30.384 118.908 29.58 119.144 28.596 119.144ZM33.5942 119V110.6H36.4862C37.1502 110.6 37.6942 110.712 38.1182 110.936C38.5502 111.16 38.8702 111.464 39.0782 111.848C39.2862 112.224 39.3902 112.644 39.3902 113.108C39.3902 113.628 39.2502 114.1 38.9702 114.524C38.6982 114.948 38.2702 115.252 37.6862 115.436L39.4742 119H37.9982L36.3662 115.616H34.8662V119H33.5942ZM34.8662 114.656H36.4142C36.9902 114.656 37.4102 114.516 37.6742 114.236C37.9462 113.956 38.0822 113.592 38.0822 113.144C38.0822 112.696 37.9502 112.34 37.6862 112.076C37.4222 111.804 36.9942 111.668 36.4022 111.668H34.8662V114.656ZM40.895 119V110.6H42.167V119H40.895ZM45.8395 119V111.632H43.3555V110.6H49.5835V111.632H47.1115V119H45.8395ZM50.7739 119V110.6H56.1139V111.632H52.0459V114.248H55.7539V115.256H52.0459V117.968H56.1139V119H50.7739ZM57.6293 119V110.6H60.5213C61.1853 110.6 61.7293 110.712 62.1533 110.936C62.5853 111.16 62.9053 111.464 63.1133 111.848C63.3213 112.224 63.4253 112.644 63.4253 113.108C63.4253 113.628 63.2853 114.1 63.0053 114.524C62.7333 114.948 62.3053 115.252 61.7213 115.436L63.5093 119H62.0333L60.4013 115.616H58.9013V119H57.6293ZM58.9013 114.656H60.4493C61.0253 114.656 61.4453 114.516 61.7093 114.236C61.9813 113.956 62.1173 113.592 62.1173 113.144C62.1173 112.696 61.9853 112.34 61.7213 112.076C61.4573 111.804 61.0293 111.668 60.4373 111.668H58.9013V114.656ZM64.9301 119V110.6H66.2021V119H64.9301ZM67.3667 119L70.4627 110.6H71.8547L74.9267 119H73.5827L72.8627 116.948H69.4307L68.7107 119H67.3667ZM69.7907 115.94H72.5027L71.1467 112.112L69.7907 115.94ZM76.5541 119.072C76.3141 119.072 76.1141 118.996 75.9541 118.844C75.8021 118.684 75.7261 118.496 75.7261 118.28C75.7261 118.056 75.8021 117.868 75.9541 117.716C76.1141 117.556 76.3141 117.476 76.5541 117.476C76.7941 117.476 76.9901 117.556 77.1421 117.716C77.2941 117.868 77.3701 118.056 77.3701 118.28C77.3701 118.496 77.2941 118.684 77.1421 118.844C76.9901 118.996 76.7941 119.072 76.5541 119.072ZM76.5541 114.5C76.3141 114.5 76.1141 114.424 75.9541 114.272C75.8021 114.112 75.7261 113.924 75.7261 113.708C75.7261 113.484 75.8021 113.296 75.9541 113.144C76.1141 112.984 76.3141 112.904 76.5541 112.904C76.7941 112.904 76.9901 112.984 77.1421 113.144C77.2941 113.296 77.3701 113.484 77.3701 113.708C77.3701 113.924 77.2941 114.112 77.1421 114.272C76.9901 114.424 76.7941 114.5 76.5541 114.5ZM81.7583 119V110.6H83.0303V119H81.7583ZM84.6868 119V113.048H85.8148L85.9108 114.092C86.0948 113.724 86.3628 113.436 86.7148 113.228C87.0748 113.012 87.4868 112.904 87.9508 112.904C88.6708 112.904 89.2348 113.128 89.6428 113.576C90.0588 114.024 90.2668 114.692 90.2668 115.58V119H89.0068V115.712C89.0068 114.56 88.5348 113.984 87.5908 113.984C87.1188 113.984 86.7268 114.152 86.4148 114.488C86.1108 114.824 85.9588 115.304 85.9588 115.928V119H84.6868ZM94.2609 119C93.6769 119 93.2129 118.86 92.8689 118.58C92.5249 118.292 92.3529 117.784 92.3529 117.056V114.116H91.3329V113.048H92.3529L92.5089 111.536H93.6249V113.048H95.3049V114.116H93.6249V117.056C93.6249 117.384 93.6929 117.612 93.8289 117.74C93.9729 117.86 94.2169 117.92 94.5609 117.92H95.2449V119H94.2609ZM99.2482 119.144C98.6802 119.144 98.1682 119.016 97.7122 118.76C97.2642 118.496 96.9082 118.132 96.6442 117.668C96.3802 117.196 96.2482 116.648 96.2482 116.024C96.2482 115.4 96.3802 114.856 96.6442 114.392C96.9162 113.92 97.2802 113.556 97.7362 113.3C98.1922 113.036 98.7002 112.904 99.2602 112.904C99.8282 112.904 100.336 113.036 100.784 113.3C101.24 113.556 101.6 113.92 101.864 114.392C102.136 114.856 102.272 115.4 102.272 116.024C102.272 116.648 102.136 117.196 101.864 117.668C101.6 118.132 101.24 118.496 100.784 118.76C100.328 119.016 99.8162 119.144 99.2482 119.144ZM99.2482 118.052C99.5522 118.052 99.8322 117.976 100.088 117.824C100.352 117.672 100.564 117.448 100.724 117.152C100.884 116.848 100.964 116.472 100.964 116.024C100.964 115.576 100.884 115.204 100.724 114.908C100.572 114.604 100.364 114.376 100.1 114.224C99.8442 114.072 99.5642 113.996 99.2602 113.996C98.9562 113.996 98.6722 114.072 98.4082 114.224C98.1522 114.376 97.9442 114.604 97.7842 114.908C97.6242 115.204 97.5442 115.576 97.5442 116.024C97.5442 116.472 97.6242 116.848 97.7842 117.152C97.9442 117.448 98.1522 117.672 98.4082 117.824C98.6642 117.976 98.9442 118.052 99.2482 118.052ZM103.648 119V113.048H104.776L104.872 114.092C105.056 113.724 105.324 113.436 105.676 113.228C106.036 113.012 106.448 112.904 106.912 112.904C107.632 112.904 108.196 113.128 108.604 113.576C109.02 114.024 109.228 114.692 109.228 115.58V119H107.968V115.712C107.968 114.56 107.496 113.984 106.552 113.984C106.08 113.984 105.688 114.152 105.376 114.488C105.072 114.824 104.92 115.304 104.92 115.928V119H103.648ZM112.742 119.144C112.238 119.144 111.822 119.06 111.494 118.892C111.166 118.724 110.922 118.504 110.762 118.232C110.602 117.952 110.522 117.648 110.522 117.32C110.522 116.744 110.746 116.288 111.194 115.952C111.642 115.616 112.282 115.448 113.114 115.448H114.674V115.34C114.674 114.876 114.546 114.528 114.29 114.296C114.042 114.064 113.718 113.948 113.318 113.948C112.966 113.948 112.658 114.036 112.394 114.212C112.138 114.38 111.982 114.632 111.926 114.968H110.654C110.694 114.536 110.838 114.168 111.086 113.864C111.342 113.552 111.662 113.316 112.046 113.156C112.438 112.988 112.866 112.904 113.33 112.904C114.162 112.904 114.806 113.124 115.262 113.564C115.718 113.996 115.946 114.588 115.946 115.34V119H114.842L114.734 117.98C114.566 118.308 114.322 118.584 114.002 118.808C113.682 119.032 113.262 119.144 112.742 119.144ZM112.994 118.112C113.338 118.112 113.626 118.032 113.858 117.872C114.098 117.704 114.282 117.484 114.41 117.212C114.546 116.94 114.63 116.64 114.662 116.312H113.246C112.742 116.312 112.382 116.4 112.166 116.576C111.958 116.752 111.854 116.972 111.854 117.236C111.854 117.508 111.954 117.724 112.154 117.884C112.362 118.036 112.642 118.112 112.994 118.112ZM119.808 119C119.224 119 118.76 118.86 118.416 118.58C118.072 118.292 117.9 117.784 117.9 117.056V114.116H116.88V113.048H117.9L118.056 111.536H119.172V113.048H120.852V114.116H119.172V117.056C119.172 117.384 119.24 117.612 119.376 117.74C119.52 117.86 119.764 117.92 120.108 117.92H120.792V119H119.808ZM122.883 111.92C122.643 111.92 122.443 111.848 122.283 111.704C122.131 111.552 122.055 111.364 122.055 111.14C122.055 110.916 122.131 110.732 122.283 110.588C122.443 110.436 122.643 110.36 122.883 110.36C123.123 110.36 123.319 110.436 123.471 110.588C123.631 110.732 123.711 110.916 123.711 111.14C123.711 111.364 123.631 111.552 123.471 111.704C123.319 111.848 123.123 111.92 122.883 111.92ZM122.247 119V113.048H123.519V119H122.247ZM127.983 119.144C127.415 119.144 126.903 119.016 126.447 118.76C125.999 118.496 125.643 118.132 125.379 117.668C125.115 117.196 124.983 116.648 124.983 116.024C124.983 115.4 125.115 114.856 125.379 114.392C125.651 113.92 126.015 113.556 126.471 113.3C126.927 113.036 127.435 112.904 127.995 112.904C128.563 112.904 129.071 113.036 129.519 113.3C129.975 113.556 130.335 113.92 130.599 114.392C130.871 114.856 131.007 115.4 131.007 116.024C131.007 116.648 130.871 117.196 130.599 117.668C130.335 118.132 129.975 118.496 129.519 118.76C129.063 119.016 128.551 119.144 127.983 119.144ZM127.983 118.052C128.287 118.052 128.567 117.976 128.823 117.824C129.087 117.672 129.299 117.448 129.459 117.152C129.619 116.848 129.699 116.472 129.699 116.024C129.699 115.576 129.619 115.204 129.459 114.908C129.307 114.604 129.099 114.376 128.835 114.224C128.579 114.072 128.299 113.996 127.995 113.996C127.691 113.996 127.407 114.072 127.143 114.224C126.887 114.376 126.679 114.604 126.519 114.908C126.359 115.204 126.279 115.576 126.279 116.024C126.279 116.472 126.359 116.848 126.519 117.152C126.679 117.448 126.887 117.672 127.143 117.824C127.399 117.976 127.679 118.052 127.983 118.052ZM132.382 119V113.048H133.51L133.606 114.092C133.79 113.724 134.058 113.436 134.41 113.228C134.77 113.012 135.182 112.904 135.646 112.904C136.366 112.904 136.93 113.128 137.338 113.576C137.754 114.024 137.962 114.692 137.962 115.58V119H136.702V115.712C136.702 114.56 136.23 113.984 135.286 113.984C134.814 113.984 134.422 114.152 134.11 114.488C133.806 114.824 133.654 115.304 133.654 115.928V119H132.382ZM139.964 119.072C139.724 119.072 139.524 118.996 139.364 118.844C139.212 118.684 139.136 118.496 139.136 118.28C139.136 118.056 139.212 117.868 139.364 117.716C139.524 117.556 139.724 117.476 139.964 117.476C140.204 117.476 140.4 117.556 140.552 117.716C140.704 117.868 140.78 118.056 140.78 118.28C140.78 118.496 140.704 118.684 140.552 118.844C140.4 118.996 140.204 119.072 139.964 119.072ZM148.877 119.144C148.045 119.144 147.325 118.964 146.717 118.604C146.117 118.236 145.653 117.728 145.325 117.08C144.997 116.424 144.833 115.668 144.833 114.812C144.833 113.948 144.997 113.192 145.325 112.544C145.653 111.888 146.117 111.376 146.717 111.008C147.325 110.64 148.045 110.456 148.877 110.456C149.861 110.456 150.665 110.696 151.289 111.176C151.913 111.656 152.309 112.328 152.477 113.192H151.061C150.949 112.704 150.709 112.316 150.341 112.028C149.973 111.74 149.481 111.596 148.865 111.596C148.025 111.596 147.361 111.884 146.873 112.46C146.385 113.028 146.141 113.812 146.141 114.812C146.141 115.804 146.385 116.584 146.873 117.152C147.361 117.72 148.025 118.004 148.865 118.004C149.481 118.004 149.973 117.868 150.341 117.596C150.709 117.324 150.949 116.952 151.061 116.48H152.477C152.309 117.312 151.913 117.964 151.289 118.436C150.665 118.908 149.861 119.144 148.877 119.144ZM153.827 119V110.36H155.099V119H153.827ZM159.494 119.144C158.91 119.144 158.39 119.016 157.934 118.76C157.486 118.496 157.134 118.132 156.878 117.668C156.622 117.204 156.494 116.664 156.494 116.048C156.494 115.424 156.618 114.876 156.866 114.404C157.122 113.932 157.474 113.564 157.922 113.3C158.378 113.036 158.906 112.904 159.506 112.904C160.09 112.904 160.598 113.036 161.03 113.3C161.462 113.556 161.798 113.9 162.038 114.332C162.278 114.764 162.398 115.24 162.398 115.76C162.398 115.84 162.394 115.928 162.386 116.024C162.386 116.112 162.382 116.212 162.374 116.324H157.742C157.782 116.9 157.97 117.34 158.306 117.644C158.65 117.94 159.046 118.088 159.494 118.088C159.854 118.088 160.154 118.008 160.394 117.848C160.642 117.68 160.826 117.456 160.946 117.176H162.218C162.058 117.736 161.738 118.204 161.258 118.58C160.786 118.956 160.198 119.144 159.494 119.144ZM159.494 113.948C159.07 113.948 158.694 114.076 158.366 114.332C158.038 114.58 157.838 114.956 157.766 115.46H161.126C161.102 114.996 160.938 114.628 160.634 114.356C160.33 114.084 159.95 113.948 159.494 113.948ZM165.734 119.144C165.23 119.144 164.814 119.06 164.486 118.892C164.158 118.724 163.914 118.504 163.754 118.232C163.594 117.952 163.514 117.648 163.514 117.32C163.514 116.744 163.738 116.288 164.186 115.952C164.634 115.616 165.274 115.448 166.106 115.448H167.666V115.34C167.666 114.876 167.538 114.528 167.282 114.296C167.034 114.064 166.71 113.948 166.31 113.948C165.958 113.948 165.65 114.036 165.386 114.212C165.13 114.38 164.974 114.632 164.918 114.968H163.646C163.686 114.536 163.83 114.168 164.078 113.864C164.334 113.552 164.654 113.316 165.038 113.156C165.43 112.988 165.858 112.904 166.322 112.904C167.154 112.904 167.798 113.124 168.254 113.564C168.71 113.996 168.938 114.588 168.938 115.34V119H167.834L167.726 117.98C167.558 118.308 167.314 118.584 166.994 118.808C166.674 119.032 166.254 119.144 165.734 119.144ZM165.986 118.112C166.33 118.112 166.618 118.032 166.85 117.872C167.09 117.704 167.274 117.484 167.402 117.212C167.538 116.94 167.622 116.64 167.654 116.312H166.238C165.734 116.312 165.374 116.4 165.158 116.576C164.95 116.752 164.846 116.972 164.846 117.236C164.846 117.508 164.946 117.724 165.146 117.884C165.354 118.036 165.634 118.112 165.986 118.112ZM170.421 119V113.048H171.561L171.669 114.176C171.877 113.784 172.165 113.476 172.533 113.252C172.909 113.02 173.361 112.904 173.889 112.904V114.236H173.541C173.189 114.236 172.873 114.296 172.593 114.416C172.321 114.528 172.101 114.724 171.933 115.004C171.773 115.276 171.693 115.656 171.693 116.144V119H170.421ZM173.862 120.416L174.558 117.584H175.818L174.714 120.416H173.862ZM182.862 119.144C182.278 119.144 181.754 119.012 181.29 118.748C180.834 118.484 180.474 118.12 180.21 117.656C179.954 117.184 179.826 116.64 179.826 116.024C179.826 115.408 179.954 114.868 180.21 114.404C180.474 113.932 180.834 113.564 181.29 113.3C181.754 113.036 182.278 112.904 182.862 112.904C183.598 112.904 184.214 113.096 184.71 113.48C185.214 113.864 185.538 114.384 185.682 115.04H184.35C184.27 114.712 184.094 114.456 183.822 114.272C183.55 114.088 183.23 113.996 182.862 113.996C182.55 113.996 182.262 114.076 181.998 114.236C181.734 114.388 181.522 114.616 181.362 114.92C181.202 115.216 181.122 115.584 181.122 116.024C181.122 116.464 181.202 116.836 181.362 117.14C181.522 117.436 181.734 117.664 181.998 117.824C182.262 117.984 182.55 118.064 182.862 118.064C183.23 118.064 183.55 117.972 183.822 117.788C184.094 117.604 184.27 117.344 184.35 117.008H185.682C185.546 117.648 185.226 118.164 184.722 118.556C184.218 118.948 183.598 119.144 182.862 119.144ZM189.846 119.144C189.278 119.144 188.766 119.016 188.31 118.76C187.862 118.496 187.506 118.132 187.242 117.668C186.978 117.196 186.846 116.648 186.846 116.024C186.846 115.4 186.978 114.856 187.242 114.392C187.514 113.92 187.878 113.556 188.334 113.3C188.79 113.036 189.298 112.904 189.858 112.904C190.426 112.904 190.934 113.036 191.382 113.3C191.838 113.556 192.198 113.92 192.462 114.392C192.734 114.856 192.87 115.4 192.87 116.024C192.87 116.648 192.734 117.196 192.462 117.668C192.198 118.132 191.838 118.496 191.382 118.76C190.926 119.016 190.414 119.144 189.846 119.144ZM189.846 118.052C190.15 118.052 190.43 117.976 190.686 117.824C190.95 117.672 191.162 117.448 191.322 117.152C191.482 116.848 191.562 116.472 191.562 116.024C191.562 115.576 191.482 115.204 191.322 114.908C191.17 114.604 190.962 114.376 190.698 114.224C190.442 114.072 190.162 113.996 189.858 113.996C189.554 113.996 189.27 114.072 189.006 114.224C188.75 114.376 188.542 114.604 188.382 114.908C188.222 115.204 188.142 115.576 188.142 116.024C188.142 116.472 188.222 116.848 188.382 117.152C188.542 117.448 188.75 117.672 189.006 117.824C189.262 117.976 189.542 118.052 189.846 118.052ZM194.245 119V110.36H195.517V114.008C195.717 113.664 195.993 113.396 196.345 113.204C196.705 113.004 197.101 112.904 197.533 112.904C198.245 112.904 198.805 113.128 199.213 113.576C199.621 114.024 199.825 114.692 199.825 115.58V119H198.565V115.712C198.565 114.56 198.105 113.984 197.185 113.984C196.705 113.984 196.305 114.152 195.985 114.488C195.673 114.824 195.517 115.304 195.517 115.928V119H194.245ZM204.108 119.144C203.524 119.144 203.004 119.016 202.548 118.76C202.1 118.496 201.748 118.132 201.492 117.668C201.236 117.204 201.108 116.664 201.108 116.048C201.108 115.424 201.232 114.876 201.48 114.404C201.736 113.932 202.088 113.564 202.536 113.3C202.992 113.036 203.52 112.904 204.12 112.904C204.704 112.904 205.212 113.036 205.644 113.3C206.076 113.556 206.412 113.9 206.652 114.332C206.892 114.764 207.012 115.24 207.012 115.76C207.012 115.84 207.008 115.928 207 116.024C207 116.112 206.996 116.212 206.988 116.324H202.356C202.396 116.9 202.584 117.34 202.92 117.644C203.264 117.94 203.66 118.088 204.108 118.088C204.468 118.088 204.768 118.008 205.008 117.848C205.256 117.68 205.44 117.456 205.56 117.176H206.832C206.672 117.736 206.352 118.204 205.872 118.58C205.4 118.956 204.812 119.144 204.108 119.144ZM204.108 113.948C203.684 113.948 203.308 114.076 202.98 114.332C202.652 114.58 202.452 114.956 202.38 115.46H205.74C205.716 114.996 205.552 114.628 205.248 114.356C204.944 114.084 204.564 113.948 204.108 113.948ZM208.331 119V113.048H209.471L209.579 114.176C209.787 113.784 210.075 113.476 210.443 113.252C210.819 113.02 211.271 112.904 211.799 112.904V114.236H211.451C211.099 114.236 210.783 114.296 210.503 114.416C210.231 114.528 210.011 114.724 209.843 115.004C209.683 115.276 209.603 115.656 209.603 116.144V119H208.331ZM215.51 119.144C214.926 119.144 214.406 119.016 213.95 118.76C213.502 118.496 213.15 118.132 212.894 117.668C212.638 117.204 212.51 116.664 212.51 116.048C212.51 115.424 212.634 114.876 212.882 114.404C213.138 113.932 213.49 113.564 213.938 113.3C214.394 113.036 214.922 112.904 215.522 112.904C216.106 112.904 216.614 113.036 217.046 113.3C217.478 113.556 217.814 113.9 218.054 114.332C218.294 114.764 218.414 115.24 218.414 115.76C218.414 115.84 218.41 115.928 218.402 116.024C218.402 116.112 218.398 116.212 218.39 116.324H213.758C213.798 116.9 213.986 117.34 214.322 117.644C214.666 117.94 215.062 118.088 215.51 118.088C215.87 118.088 216.17 118.008 216.41 117.848C216.658 117.68 216.842 117.456 216.962 117.176H218.234C218.074 117.736 217.754 118.204 217.274 118.58C216.802 118.956 216.214 119.144 215.51 119.144ZM215.51 113.948C215.086 113.948 214.71 114.076 214.382 114.332C214.054 114.58 213.854 114.956 213.782 115.46H217.142C217.118 114.996 216.954 114.628 216.65 114.356C216.346 114.084 215.966 113.948 215.51 113.948ZM219.734 119V113.048H220.862L220.958 114.092C221.142 113.724 221.41 113.436 221.762 113.228C222.122 113.012 222.534 112.904 222.998 112.904C223.718 112.904 224.282 113.128 224.69 113.576C225.106 114.024 225.314 114.692 225.314 115.58V119H224.054V115.712C224.054 114.56 223.582 113.984 222.638 113.984C222.166 113.984 221.774 114.152 221.462 114.488C221.158 114.824 221.006 115.304 221.006 115.928V119H219.734ZM229.308 119C228.724 119 228.26 118.86 227.916 118.58C227.572 118.292 227.4 117.784 227.4 117.056V114.116H226.38V113.048H227.4L227.556 111.536H228.672V113.048H230.352V114.116H228.672V117.056C228.672 117.384 228.74 117.612 228.876 117.74C229.02 117.86 229.264 117.92 229.608 117.92H230.292V119H229.308ZM236.703 119.144C236.199 119.144 235.783 119.06 235.455 118.892C235.127 118.724 234.883 118.504 234.723 118.232C234.563 117.952 234.483 117.648 234.483 117.32C234.483 116.744 234.707 116.288 235.155 115.952C235.603 115.616 236.243 115.448 237.075 115.448H238.635V115.34C238.635 114.876 238.507 114.528 238.251 114.296C238.003 114.064 237.679 113.948 237.279 113.948C236.927 113.948 236.619 114.036 236.355 114.212C236.099 114.38 235.943 114.632 235.887 114.968H234.615C234.655 114.536 234.799 114.168 235.047 113.864C235.303 113.552 235.623 113.316 236.007 113.156C236.399 112.988 236.827 112.904 237.291 112.904C238.123 112.904 238.767 113.124 239.223 113.564C239.679 113.996 239.907 114.588 239.907 115.34V119H238.803L238.695 117.98C238.527 118.308 238.283 118.584 237.963 118.808C237.643 119.032 237.223 119.144 236.703 119.144ZM236.955 118.112C237.299 118.112 237.587 118.032 237.819 117.872C238.059 117.704 238.243 117.484 238.371 117.212C238.507 116.94 238.591 116.64 238.623 116.312H237.207C236.703 116.312 236.343 116.4 236.127 116.576C235.919 116.752 235.815 116.972 235.815 117.236C235.815 117.508 235.915 117.724 236.115 117.884C236.323 118.036 236.603 118.112 236.955 118.112ZM241.39 119V113.048H242.518L242.614 114.092C242.798 113.724 243.066 113.436 243.418 113.228C243.778 113.012 244.19 112.904 244.654 112.904C245.374 112.904 245.938 113.128 246.346 113.576C246.762 114.024 246.97 114.692 246.97 115.58V119H245.71V115.712C245.71 114.56 245.238 113.984 244.294 113.984C243.822 113.984 243.43 114.152 243.118 114.488C242.814 114.824 242.662 115.304 242.662 115.928V119H241.39ZM251.18 119.144C250.604 119.144 250.096 119.008 249.656 118.736C249.216 118.464 248.872 118.092 248.624 117.62C248.376 117.148 248.252 116.612 248.252 116.012C248.252 115.412 248.376 114.88 248.624 114.416C248.872 113.944 249.216 113.576 249.656 113.312C250.104 113.04 250.616 112.904 251.192 112.904C251.664 112.904 252.076 112.996 252.428 113.18C252.788 113.364 253.068 113.624 253.268 113.96V110.36H254.54V119H253.4L253.268 118.076C253.076 118.356 252.812 118.604 252.476 118.82C252.14 119.036 251.708 119.144 251.18 119.144ZM251.408 118.04C251.952 118.04 252.396 117.852 252.74 117.476C253.092 117.1 253.268 116.616 253.268 116.024C253.268 115.424 253.092 114.94 252.74 114.572C252.396 114.196 251.952 114.008 251.408 114.008C250.864 114.008 250.416 114.196 250.064 114.572C249.712 114.94 249.536 115.424 249.536 116.024C249.536 116.416 249.616 116.764 249.776 117.068C249.936 117.372 250.156 117.612 250.436 117.788C250.724 117.956 251.048 118.04 251.408 118.04ZM259.671 119.072C259.431 119.072 259.231 118.996 259.071 118.844C258.919 118.684 258.843 118.496 258.843 118.28C258.843 118.056 258.919 117.868 259.071 117.716C259.231 117.556 259.431 117.476 259.671 117.476C259.911 117.476 260.107 117.556 260.259 117.716C260.411 117.868 260.487 118.056 260.487 118.28C260.487 118.496 260.411 118.684 260.259 118.844C260.107 118.996 259.911 119.072 259.671 119.072ZM262.273 119.072C262.033 119.072 261.833 118.996 261.673 118.844C261.521 118.684 261.445 118.496 261.445 118.28C261.445 118.056 261.521 117.868 261.673 117.716C261.833 117.556 262.033 117.476 262.273 117.476C262.513 117.476 262.709 117.556 262.861 117.716C263.013 117.868 263.089 118.056 263.089 118.28C263.089 118.496 263.013 118.684 262.861 118.844C262.709 118.996 262.513 119.072 262.273 119.072ZM264.874 119.072C264.634 119.072 264.434 118.996 264.274 118.844C264.122 118.684 264.046 118.496 264.046 118.28C264.046 118.056 264.122 117.868 264.274 117.716C264.434 117.556 264.634 117.476 264.874 117.476C265.114 117.476 265.31 117.556 265.462 117.716C265.614 117.868 265.69 118.056 265.69 118.28C265.69 118.496 265.614 118.684 265.462 118.844C265.31 118.996 265.114 119.072 264.874 119.072Z" fill="#768396"/>
<rect x="24.5" y="135.5" width="158" height="26" rx="3.5" stroke="#E2E2E2"/>
<path d="M37.716 152V145.04L36.36 145.352V144.416L38.22 143.6H39.036V152H37.716ZM44.1026 152.144C43.3426 152.144 42.6866 151.964 42.1346 151.604C41.5906 151.236 41.1706 150.728 40.8746 150.08C40.5866 149.424 40.4426 148.664 40.4426 147.8C40.4426 146.936 40.5866 146.18 40.8746 145.532C41.1706 144.876 41.5906 144.368 42.1346 144.008C42.6866 143.64 43.3426 143.456 44.1026 143.456C44.8626 143.456 45.5146 143.64 46.0586 144.008C46.6026 144.368 47.0186 144.876 47.3066 145.532C47.6026 146.18 47.7506 146.936 47.7506 147.8C47.7506 148.664 47.6026 149.424 47.3066 150.08C47.0186 150.728 46.6026 151.236 46.0586 151.604C45.5146 151.964 44.8626 152.144 44.1026 152.144ZM44.1026 151.004C44.5586 151.004 44.9626 150.876 45.3146 150.62C45.6746 150.364 45.9546 149.996 46.1546 149.516C46.3546 149.036 46.4546 148.464 46.4546 147.8C46.4546 147.136 46.3546 146.564 46.1546 146.084C45.9546 145.604 45.6746 145.236 45.3146 144.98C44.9626 144.724 44.5586 144.596 44.1026 144.596C43.6386 144.596 43.2306 144.724 42.8786 144.98C42.5266 145.236 42.2506 145.604 42.0506 146.084C41.8506 146.564 41.7506 147.136 41.7506 147.8C41.7506 148.464 41.8506 149.036 42.0506 149.516C42.2506 149.996 42.5266 150.364 42.8786 150.62C43.2306 150.876 43.6386 151.004 44.1026 151.004ZM56.0678 152.144C55.2358 152.144 54.5078 151.96 53.8838 151.592C53.2598 151.224 52.7718 150.716 52.4198 150.068C52.0678 149.412 51.8918 148.656 51.8918 147.8C51.8918 146.944 52.0678 146.192 52.4198 145.544C52.7718 144.888 53.2598 144.376 53.8838 144.008C54.5078 143.64 55.2358 143.456 56.0678 143.456C56.8998 143.456 57.6278 143.64 58.2518 144.008C58.8758 144.376 59.3598 144.888 59.7038 145.544C60.0558 146.192 60.2318 146.944 60.2318 147.8C60.2318 148.656 60.0558 149.412 59.7038 150.068C59.3598 150.716 58.8758 151.224 58.2518 151.592C57.6278 151.96 56.8998 152.144 56.0678 152.144ZM56.0678 151.004C56.6438 151.004 57.1438 150.876 57.5678 150.62C57.9998 150.364 58.3358 149.996 58.5758 149.516C58.8158 149.036 58.9358 148.464 58.9358 147.8C58.9358 147.136 58.8158 146.564 58.5758 146.084C58.3358 145.604 57.9998 145.236 57.5678 144.98C57.1438 144.724 56.6438 144.596 56.0678 144.596C55.4918 144.596 54.9878 144.724 54.5558 144.98C54.1238 145.236 53.7878 145.604 53.5478 146.084C53.3158 146.564 53.1998 147.136 53.1998 147.8C53.1998 148.464 53.3158 149.036 53.5478 149.516C53.7878 149.996 54.1238 150.364 54.5558 150.62C54.9878 150.876 55.4918 151.004 56.0678 151.004ZM64.4209 152.144C63.8369 152.144 63.3129 152.012 62.8489 151.748C62.3929 151.484 62.0329 151.12 61.7689 150.656C61.5129 150.184 61.3849 149.64 61.3849 149.024C61.3849 148.408 61.5129 147.868 61.7689 147.404C62.0329 146.932 62.3929 146.564 62.8489 146.3C63.3129 146.036 63.8369 145.904 64.4209 145.904C65.1569 145.904 65.7729 146.096 66.2689 146.48C66.7729 146.864 67.0969 147.384 67.2409 148.04H65.9089C65.8289 147.712 65.6529 147.456 65.3809 147.272C65.1089 147.088 64.7889 146.996 64.4209 146.996C64.1089 146.996 63.8209 147.076 63.5569 147.236C63.2929 147.388 63.0809 147.616 62.9209 147.92C62.7609 148.216 62.6809 148.584 62.6809 149.024C62.6809 149.464 62.7609 149.836 62.9209 150.14C63.0809 150.436 63.2929 150.664 63.5569 150.824C63.8209 150.984 64.1089 151.064 64.4209 151.064C64.7889 151.064 65.1089 150.972 65.3809 150.788C65.6529 150.604 65.8289 150.344 65.9089 150.008H67.2409C67.1049 150.648 66.7849 151.164 66.2809 151.556C65.7769 151.948 65.1569 152.144 64.4209 152.144ZM70.9992 152C70.4152 152 69.9512 151.86 69.6072 151.58C69.2632 151.292 69.0912 150.784 69.0912 150.056V147.116H68.0712V146.048H69.0912L69.2472 144.536H70.3632V146.048H72.0432V147.116H70.3632V150.056C70.3632 150.384 70.4312 150.612 70.5672 150.74C70.7112 150.86 70.9552 150.92 71.2992 150.92H71.9832V152H70.9992ZM76.2582 152V151.088C76.8022 150.656 77.3222 150.22 77.8182 149.78C78.3142 149.34 78.7542 148.908 79.1382 148.484C79.5302 148.052 79.8382 147.632 80.0622 147.224C80.2862 146.808 80.3982 146.408 80.3982 146.024C80.3982 145.768 80.3542 145.528 80.2662 145.304C80.1782 145.072 80.0342 144.888 79.8342 144.752C79.6342 144.608 79.3662 144.536 79.0302 144.536C78.5262 144.536 78.1462 144.696 77.8902 145.016C77.6422 145.336 77.5222 145.72 77.5302 146.168H76.2942C76.3022 145.576 76.4262 145.08 76.6662 144.68C76.9142 144.28 77.2422 143.976 77.6502 143.768C78.0662 143.56 78.5342 143.456 79.0542 143.456C79.8462 143.456 80.4782 143.68 80.9502 144.128C81.4302 144.568 81.6702 145.184 81.6702 145.976C81.6702 146.448 81.5542 146.916 81.3222 147.38C81.0982 147.844 80.8022 148.292 80.4342 148.724C80.0742 149.148 79.6862 149.548 79.2702 149.924C78.8542 150.3 78.4582 150.64 78.0822 150.944H81.9222V152H76.2582ZM86.5597 152.144C85.7997 152.144 85.1437 151.964 84.5917 151.604C84.0477 151.236 83.6277 150.728 83.3317 150.08C83.0437 149.424 82.8997 148.664 82.8997 147.8C82.8997 146.936 83.0437 146.18 83.3317 145.532C83.6277 144.876 84.0477 144.368 84.5917 144.008C85.1437 143.64 85.7997 143.456 86.5597 143.456C87.3197 143.456 87.9717 143.64 88.5157 144.008C89.0597 144.368 89.4757 144.876 89.7637 145.532C90.0597 146.18 90.2077 146.936 90.2077 147.8C90.2077 148.664 90.0597 149.424 89.7637 150.08C89.4757 150.728 89.0597 151.236 88.5157 151.604C87.9717 151.964 87.3197 152.144 86.5597 152.144ZM86.5597 151.004C87.0157 151.004 87.4197 150.876 87.7717 150.62C88.1317 150.364 88.4117 149.996 88.6117 149.516C88.8117 149.036 88.9117 148.464 88.9117 147.8C88.9117 147.136 88.8117 146.564 88.6117 146.084C88.4117 145.604 88.1317 145.236 87.7717 144.98C87.4197 144.724 87.0157 144.596 86.5597 144.596C86.0957 144.596 85.6877 144.724 85.3357 144.98C84.9837 145.236 84.7077 145.604 84.5077 146.084C84.3077 146.564 84.2077 147.136 84.2077 147.8C84.2077 148.464 84.3077 149.036 84.5077 149.516C84.7077 149.996 84.9837 150.364 85.3357 150.62C85.6877 150.876 86.0957 151.004 86.5597 151.004ZM91.3637 152V151.088C91.9077 150.656 92.4277 150.22 92.9237 149.78C93.4197 149.34 93.8597 148.908 94.2437 148.484C94.6357 148.052 94.9437 147.632 95.1677 147.224C95.3917 146.808 95.5037 146.408 95.5037 146.024C95.5037 145.768 95.4597 145.528 95.3717 145.304C95.2837 145.072 95.1397 144.888 94.9397 144.752C94.7397 144.608 94.4717 144.536 94.1357 144.536C93.6317 144.536 93.2517 144.696 92.9957 145.016C92.7477 145.336 92.6277 145.72 92.6357 146.168H91.3997C91.4077 145.576 91.5317 145.08 91.7717 144.68C92.0197 144.28 92.3477 143.976 92.7557 143.768C93.1717 143.56 93.6397 143.456 94.1597 143.456C94.9517 143.456 95.5837 143.68 96.0557 144.128C96.5357 144.568 96.7757 145.184 96.7757 145.976C96.7757 146.448 96.6597 146.916 96.4277 147.38C96.2037 147.844 95.9077 148.292 95.5397 148.724C95.1797 149.148 94.7917 149.548 94.3757 149.924C93.9597 150.3 93.5637 150.64 93.1877 150.944H97.0277V152H91.3637ZM98.2309 152V151.088C98.7749 150.656 99.2949 150.22 99.7909 149.78C100.287 149.34 100.727 148.908 101.111 148.484C101.503 148.052 101.811 147.632 102.035 147.224C102.259 146.808 102.371 146.408 102.371 146.024C102.371 145.768 102.327 145.528 102.239 145.304C102.151 145.072 102.007 144.888 101.807 144.752C101.607 144.608 101.339 144.536 101.003 144.536C100.499 144.536 100.119 144.696 99.8629 145.016C99.6149 145.336 99.4949 145.72 99.5029 146.168H98.2669C98.2749 145.576 98.3989 145.08 98.6389 144.68C98.8869 144.28 99.2149 143.976 99.6229 143.768C100.039 143.56 100.507 143.456 101.027 143.456C101.819 143.456 102.451 143.68 102.923 144.128C103.403 144.568 103.643 145.184 103.643 145.976C103.643 146.448 103.527 146.916 103.295 147.38C103.071 147.844 102.775 148.292 102.407 148.724C102.047 149.148 101.659 149.548 101.243 149.924C100.827 150.3 100.431 150.64 100.055 150.944H103.895V152H98.2309ZM108.29 153.2V143.36H109.562V153.2H108.29Z" fill="#EC2222"/>
<path d="M114.638 152L115.862 145.04L114.434 145.412L114.602 144.416L116.618 143.6H117.434L115.946 152H114.638ZM120.796 152.144C120.14 152.144 119.612 152.008 119.212 151.736C118.82 151.464 118.532 151.108 118.348 150.668C118.172 150.22 118.084 149.736 118.084 149.216C118.084 148.432 118.184 147.696 118.384 147.008C118.584 146.312 118.868 145.7 119.236 145.172C119.604 144.636 120.04 144.216 120.544 143.912C121.048 143.608 121.604 143.456 122.212 143.456C122.748 143.456 123.188 143.564 123.532 143.78C123.876 143.996 124.124 144.284 124.276 144.644C124.436 145.004 124.504 145.396 124.48 145.82H123.292C123.292 145.412 123.184 145.096 122.968 144.872C122.752 144.64 122.448 144.524 122.056 144.524C121.48 144.524 120.956 144.792 120.484 145.328C120.02 145.856 119.672 146.676 119.44 147.788C119.704 147.436 120.032 147.152 120.424 146.936C120.824 146.712 121.276 146.6 121.78 146.6C122.236 146.6 122.64 146.704 122.992 146.912C123.352 147.112 123.632 147.388 123.832 147.74C124.032 148.092 124.132 148.492 124.132 148.94C124.132 149.532 123.98 150.072 123.676 150.56C123.38 151.04 122.98 151.424 122.476 151.712C121.972 152 121.412 152.144 120.796 152.144ZM120.892 151.04C121.276 151.04 121.616 150.96 121.912 150.8C122.208 150.632 122.44 150.404 122.608 150.116C122.776 149.828 122.86 149.5 122.86 149.132C122.86 148.724 122.728 148.384 122.464 148.112C122.208 147.832 121.856 147.692 121.408 147.692C121.024 147.692 120.684 147.78 120.388 147.956C120.092 148.124 119.856 148.352 119.68 148.64C119.504 148.928 119.416 149.244 119.416 149.588C119.416 149.996 119.548 150.34 119.812 150.62C120.084 150.9 120.444 151.04 120.892 151.04ZM125.401 152.072C125.161 152.072 124.961 151.996 124.801 151.844C124.649 151.684 124.573 151.496 124.573 151.28C124.573 151.056 124.649 150.868 124.801 150.716C124.961 150.556 125.161 150.476 125.401 150.476C125.641 150.476 125.837 150.556 125.989 150.716C126.141 150.868 126.217 151.056 126.217 151.28C126.217 151.496 126.141 151.684 125.989 151.844C125.837 151.996 125.641 152.072 125.401 152.072ZM130.259 152.144C129.619 152.144 129.071 152.008 128.615 151.736C128.167 151.464 127.823 151.084 127.583 150.596C127.351 150.108 127.235 149.536 127.235 148.88C127.235 148.12 127.347 147.412 127.571 146.756C127.803 146.092 128.123 145.516 128.531 145.028C128.939 144.532 129.415 144.148 129.959 143.876C130.503 143.596 131.095 143.456 131.735 143.456C132.375 143.456 132.919 143.592 133.367 143.864C133.823 144.136 134.167 144.516 134.399 145.004C134.639 145.492 134.759 146.064 134.759 146.72C134.759 147.488 134.643 148.2 134.411 148.856C134.187 149.512 133.871 150.088 133.463 150.584C133.055 151.072 132.579 151.456 132.035 151.736C131.491 152.008 130.899 152.144 130.259 152.144ZM130.427 151.004C130.843 151.004 131.231 150.9 131.591 150.692C131.951 150.476 132.271 150.18 132.551 149.804C132.831 149.42 133.047 148.98 133.199 148.484C133.359 147.98 133.439 147.444 133.439 146.876C133.439 146.164 133.267 145.608 132.923 145.208C132.587 144.8 132.135 144.596 131.567 144.596C131.151 144.596 130.759 144.704 130.391 144.92C130.031 145.136 129.711 145.432 129.431 145.808C129.159 146.184 128.943 146.624 128.783 147.128C128.631 147.624 128.555 148.156 128.555 148.724C128.555 149.444 128.723 150.004 129.059 150.404C129.403 150.804 129.859 151.004 130.427 151.004ZM138.72 152.144C138.08 152.144 137.532 152.008 137.076 151.736C136.628 151.464 136.284 151.084 136.044 150.596C135.812 150.108 135.696 149.536 135.696 148.88C135.696 148.12 135.808 147.412 136.032 146.756C136.264 146.092 136.584 145.516 136.992 145.028C137.4 144.532 137.876 144.148 138.42 143.876C138.964 143.596 139.556 143.456 140.196 143.456C140.836 143.456 141.38 143.592 141.828 143.864C142.284 144.136 142.628 144.516 142.86 145.004C143.1 145.492 143.22 146.064 143.22 146.72C143.22 147.488 143.104 148.2 142.872 148.856C142.648 149.512 142.332 150.088 141.924 150.584C141.516 151.072 141.04 151.456 140.496 151.736C139.952 152.008 139.36 152.144 138.72 152.144ZM138.888 151.004C139.304 151.004 139.692 150.9 140.052 150.692C140.412 150.476 140.732 150.18 141.012 149.804C141.292 149.42 141.508 148.98 141.66 148.484C141.82 147.98 141.9 147.444 141.9 146.876C141.9 146.164 141.728 145.608 141.384 145.208C141.048 144.8 140.596 144.596 140.028 144.596C139.612 144.596 139.22 144.704 138.852 144.92C138.492 145.136 138.172 145.432 137.892 145.808C137.62 146.184 137.404 146.624 137.244 147.128C137.092 147.624 137.016 148.156 137.016 148.724C137.016 149.444 137.184 150.004 137.52 150.404C137.864 150.804 138.32 151.004 138.888 151.004ZM147.078 152L148.554 143.6H151.494C152.07 143.6 152.546 143.7 152.922 143.9C153.298 144.1 153.574 144.364 153.75 144.692C153.934 145.02 154.026 145.376 154.026 145.76C154.026 146.36 153.882 146.876 153.594 147.308C153.306 147.732 152.902 148.056 152.382 148.28C151.87 148.504 151.278 148.616 150.606 148.616H148.95L148.35 152H147.078ZM149.13 147.572H150.738C151.362 147.572 151.846 147.428 152.19 147.14C152.534 146.852 152.706 146.424 152.706 145.856C152.706 145.504 152.59 145.216 152.358 144.992C152.134 144.76 151.766 144.644 151.254 144.644H149.646L149.13 147.572ZM154.238 152L155.714 143.6H157.214L159.086 149.192L162.89 143.6H164.39L162.914 152H161.642L162.734 145.796L159.29 150.8H158.306L156.602 145.808L155.51 152H154.238Z" fill="#EC2222"/>
<path d="M114.638 152L115.862 145.04L114.434 145.412L114.602 144.416L116.618 143.6H117.434L115.946 152H114.638ZM120.796 152.144C120.14 152.144 119.612 152.008 119.212 151.736C118.82 151.464 118.532 151.108 118.348 150.668C118.172 150.22 118.084 149.736 118.084 149.216C118.084 148.432 118.184 147.696 118.384 147.008C118.584 146.312 118.868 145.7 119.236 145.172C119.604 144.636 120.04 144.216 120.544 143.912C121.048 143.608 121.604 143.456 122.212 143.456C122.748 143.456 123.188 143.564 123.532 143.78C123.876 143.996 124.124 144.284 124.276 144.644C124.436 145.004 124.504 145.396 124.48 145.82H123.292C123.292 145.412 123.184 145.096 122.968 144.872C122.752 144.64 122.448 144.524 122.056 144.524C121.48 144.524 120.956 144.792 120.484 145.328C120.02 145.856 119.672 146.676 119.44 147.788C119.704 147.436 120.032 147.152 120.424 146.936C120.824 146.712 121.276 146.6 121.78 146.6C122.236 146.6 122.64 146.704 122.992 146.912C123.352 147.112 123.632 147.388 123.832 147.74C124.032 148.092 124.132 148.492 124.132 148.94C124.132 149.532 123.98 150.072 123.676 150.56C123.38 151.04 122.98 151.424 122.476 151.712C121.972 152 121.412 152.144 120.796 152.144ZM120.892 151.04C121.276 151.04 121.616 150.96 121.912 150.8C122.208 150.632 122.44 150.404 122.608 150.116C122.776 149.828 122.86 149.5 122.86 149.132C122.86 148.724 122.728 148.384 122.464 148.112C122.208 147.832 121.856 147.692 121.408 147.692C121.024 147.692 120.684 147.78 120.388 147.956C120.092 148.124 119.856 148.352 119.68 148.64C119.504 148.928 119.416 149.244 119.416 149.588C119.416 149.996 119.548 150.34 119.812 150.62C120.084 150.9 120.444 151.04 120.892 151.04ZM125.401 152.072C125.161 152.072 124.961 151.996 124.801 151.844C124.649 151.684 124.573 151.496 124.573 151.28C124.573 151.056 124.649 150.868 124.801 150.716C124.961 150.556 125.161 150.476 125.401 150.476C125.641 150.476 125.837 150.556 125.989 150.716C126.141 150.868 126.217 151.056 126.217 151.28C126.217 151.496 126.141 151.684 125.989 151.844C125.837 151.996 125.641 152.072 125.401 152.072ZM130.259 152.144C129.619 152.144 129.071 152.008 128.615 151.736C128.167 151.464 127.823 151.084 127.583 150.596C127.351 150.108 127.235 149.536 127.235 148.88C127.235 148.12 127.347 147.412 127.571 146.756C127.803 146.092 128.123 145.516 128.531 145.028C128.939 144.532 129.415 144.148 129.959 143.876C130.503 143.596 131.095 143.456 131.735 143.456C132.375 143.456 132.919 143.592 133.367 143.864C133.823 144.136 134.167 144.516 134.399 145.004C134.639 145.492 134.759 146.064 134.759 146.72C134.759 147.488 134.643 148.2 134.411 148.856C134.187 149.512 133.871 150.088 133.463 150.584C133.055 151.072 132.579 151.456 132.035 151.736C131.491 152.008 130.899 152.144 130.259 152.144ZM130.427 151.004C130.843 151.004 131.231 150.9 131.591 150.692C131.951 150.476 132.271 150.18 132.551 149.804C132.831 149.42 133.047 148.98 133.199 148.484C133.359 147.98 133.439 147.444 133.439 146.876C133.439 146.164 133.267 145.608 132.923 145.208C132.587 144.8 132.135 144.596 131.567 144.596C131.151 144.596 130.759 144.704 130.391 144.92C130.031 145.136 129.711 145.432 129.431 145.808C129.159 146.184 128.943 146.624 128.783 147.128C128.631 147.624 128.555 148.156 128.555 148.724C128.555 149.444 128.723 150.004 129.059 150.404C129.403 150.804 129.859 151.004 130.427 151.004ZM138.72 152.144C138.08 152.144 137.532 152.008 137.076 151.736C136.628 151.464 136.284 151.084 136.044 150.596C135.812 150.108 135.696 149.536 135.696 148.88C135.696 148.12 135.808 147.412 136.032 146.756C136.264 146.092 136.584 145.516 136.992 145.028C137.4 144.532 137.876 144.148 138.42 143.876C138.964 143.596 139.556 143.456 140.196 143.456C140.836 143.456 141.38 143.592 141.828 143.864C142.284 144.136 142.628 144.516 142.86 145.004C143.1 145.492 143.22 146.064 143.22 146.72C143.22 147.488 143.104 148.2 142.872 148.856C142.648 149.512 142.332 150.088 141.924 150.584C141.516 151.072 141.04 151.456 140.496 151.736C139.952 152.008 139.36 152.144 138.72 152.144ZM138.888 151.004C139.304 151.004 139.692 150.9 140.052 150.692C140.412 150.476 140.732 150.18 141.012 149.804C141.292 149.42 141.508 148.98 141.66 148.484C141.82 147.98 141.9 147.444 141.9 146.876C141.9 146.164 141.728 145.608 141.384 145.208C141.048 144.8 140.596 144.596 140.028 144.596C139.612 144.596 139.22 144.704 138.852 144.92C138.492 145.136 138.172 145.432 137.892 145.808C137.62 146.184 137.404 146.624 137.244 147.128C137.092 147.624 137.016 148.156 137.016 148.724C137.016 149.444 137.184 150.004 137.52 150.404C137.864 150.804 138.32 151.004 138.888 151.004ZM147.078 152L148.554 143.6H151.494C152.07 143.6 152.546 143.7 152.922 143.9C153.298 144.1 153.574 144.364 153.75 144.692C153.934 145.02 154.026 145.376 154.026 145.76C154.026 146.36 153.882 146.876 153.594 147.308C153.306 147.732 152.902 148.056 152.382 148.28C151.87 148.504 151.278 148.616 150.606 148.616H148.95L148.35 152H147.078ZM149.13 147.572H150.738C151.362 147.572 151.846 147.428 152.19 147.14C152.534 146.852 152.706 146.424 152.706 145.856C152.706 145.504 152.59 145.216 152.358 144.992C152.134 144.76 151.766 144.644 151.254 144.644H149.646L149.13 147.572ZM154.238 152L155.714 143.6H157.214L159.086 149.192L162.89 143.6H164.39L162.914 152H161.642L162.734 145.796L159.29 150.8H158.306L156.602 145.808L155.51 152H154.238Z" fill="#EC2222"/>
<path d="M239.202 192.645L234.434 197.165L232.6 195.431C232.501 195.321 232.378 195.231 232.24 195.168C232.102 195.105 231.952 195.07 231.799 195.064C231.646 195.059 231.494 195.083 231.351 195.136C231.208 195.189 231.079 195.269 230.97 195.371C230.862 195.474 230.777 195.596 230.722 195.731C230.666 195.866 230.64 196.01 230.646 196.155C230.652 196.3 230.689 196.442 230.756 196.572C230.823 196.703 230.917 196.819 231.033 196.913L233.645 199.394C233.749 199.491 233.872 199.568 234.008 199.621C234.143 199.673 234.288 199.699 234.434 199.699C234.726 199.697 235.005 199.588 235.212 199.394L240.769 194.138C240.873 194.04 240.956 193.924 241.012 193.796C241.069 193.668 241.098 193.53 241.098 193.392C241.098 193.253 241.069 193.115 241.012 192.987C240.956 192.859 240.873 192.743 240.769 192.645C240.561 192.449 240.279 192.34 239.985 192.34C239.692 192.34 239.41 192.449 239.202 192.645ZM236.179 185.508C233.981 185.508 231.832 186.124 230.005 187.279C228.177 188.434 226.753 190.076 225.911 191.997C225.07 193.918 224.85 196.031 225.279 198.07C225.708 200.109 226.766 201.982 228.321 203.452C229.875 204.922 231.855 205.924 234.011 206.329C236.167 206.735 238.401 206.527 240.432 205.731C242.463 204.935 244.198 203.588 245.42 201.859C246.641 200.131 247.293 198.098 247.293 196.019C247.293 194.639 247.005 193.272 246.447 191.997C245.888 190.722 245.07 189.563 244.038 188.587C243.006 187.611 241.78 186.836 240.432 186.308C239.084 185.78 237.638 185.508 236.179 185.508ZM236.179 204.429C234.421 204.429 232.702 203.936 231.24 203.012C229.777 202.088 228.638 200.774 227.965 199.238C227.292 197.701 227.116 196.01 227.459 194.379C227.802 192.748 228.649 191.249 229.892 190.073C231.136 188.897 232.72 188.096 234.445 187.772C236.169 187.447 237.957 187.614 239.581 188.25C241.206 188.887 242.595 189.965 243.572 191.348C244.548 192.73 245.07 194.356 245.07 196.019C245.07 198.25 244.133 200.389 242.466 201.966C240.798 203.543 238.537 204.429 236.179 204.429Z" fill="#768396"/>
<path d="M261.101 198.746V197.186H256.961V195.962L260.897 190.346H262.637V195.854H263.741V197.186H262.637V198.746H261.101ZM258.605 195.854H261.197V192.038L258.605 195.854ZM264.409 200.078L267.409 189.422H268.909L265.897 200.078H264.409ZM272.764 198.89C272.188 198.89 271.668 198.79 271.204 198.59C270.74 198.382 270.368 198.09 270.088 197.714C269.816 197.338 269.68 196.902 269.68 196.406C269.68 195.894 269.812 195.446 270.076 195.062C270.348 194.678 270.704 194.402 271.144 194.234C270.76 194.066 270.456 193.826 270.232 193.514C270.008 193.194 269.896 192.838 269.896 192.446C269.896 192.046 270.004 191.678 270.22 191.342C270.436 190.998 270.756 190.722 271.18 190.514C271.612 190.306 272.14 190.202 272.764 190.202C273.388 190.202 273.912 190.306 274.336 190.514C274.76 190.722 275.08 190.998 275.296 191.342C275.512 191.678 275.62 192.046 275.62 192.446C275.62 192.83 275.504 193.186 275.272 193.514C275.048 193.834 274.748 194.074 274.372 194.234C274.82 194.402 275.176 194.678 275.44 195.062C275.704 195.446 275.836 195.894 275.836 196.406C275.836 196.902 275.7 197.338 275.428 197.714C275.156 198.09 274.784 198.382 274.312 198.59C273.848 198.79 273.332 198.89 272.764 198.89ZM272.764 193.778C273.18 193.778 273.508 193.67 273.748 193.454C273.988 193.238 274.108 192.962 274.108 192.626C274.108 192.258 273.988 191.97 273.748 191.762C273.516 191.554 273.188 191.45 272.764 191.45C272.332 191.45 272 191.554 271.768 191.762C271.536 191.97 271.42 192.258 271.42 192.626C271.42 192.97 271.536 193.25 271.768 193.466C272.008 193.674 272.34 193.778 272.764 193.778ZM272.764 197.606C273.276 197.606 273.664 197.482 273.928 197.234C274.192 196.978 274.324 196.658 274.324 196.274C274.324 195.85 274.184 195.518 273.904 195.278C273.632 195.038 273.252 194.918 272.764 194.918C272.276 194.918 271.888 195.038 271.6 195.278C271.32 195.518 271.18 195.85 271.18 196.274C271.18 196.658 271.312 196.978 271.576 197.234C271.848 197.482 272.244 197.606 272.764 197.606Z" fill="#768396"/>
<path d="M192.212 151L193.376 144.352L191.924 144.736L192.14 143.5L194.336 142.6H195.284L193.796 151H192.212ZM198.893 151.144C198.245 151.144 197.689 151.008 197.225 150.736C196.769 150.464 196.417 150.084 196.169 149.596C195.929 149.108 195.809 148.532 195.809 147.868C195.809 147.108 195.925 146.4 196.157 145.744C196.389 145.088 196.709 144.516 197.117 144.028C197.533 143.532 198.017 143.148 198.569 142.876C199.121 142.596 199.717 142.456 200.357 142.456C201.013 142.456 201.569 142.592 202.025 142.864C202.489 143.136 202.841 143.52 203.081 144.016C203.329 144.504 203.453 145.076 203.453 145.732C203.453 146.492 203.337 147.2 203.105 147.856C202.873 148.512 202.549 149.088 202.133 149.584C201.725 150.072 201.245 150.456 200.693 150.736C200.141 151.008 199.541 151.144 198.893 151.144ZM199.109 149.764C199.485 149.764 199.837 149.664 200.165 149.464C200.501 149.264 200.797 148.988 201.053 148.636C201.309 148.284 201.505 147.88 201.641 147.424C201.785 146.96 201.857 146.464 201.857 145.936C201.857 145.28 201.705 144.768 201.401 144.4C201.097 144.024 200.681 143.836 200.153 143.836C199.777 143.836 199.421 143.936 199.085 144.136C198.757 144.336 198.465 144.612 198.209 144.964C197.953 145.316 197.753 145.724 197.609 146.188C197.465 146.644 197.393 147.136 197.393 147.664C197.393 148.32 197.545 148.836 197.849 149.212C198.161 149.58 198.581 149.764 199.109 149.764ZM207.085 151L208.561 142.6H211.429C212.693 142.6 213.621 142.908 214.213 143.524C214.805 144.14 215.101 144.972 215.101 146.02C215.101 146.996 214.885 147.86 214.453 148.612C214.029 149.364 213.433 149.952 212.665 150.376C211.897 150.792 210.993 151 209.953 151H207.085ZM208.849 149.68H210.109C210.837 149.68 211.453 149.536 211.957 149.248C212.469 148.96 212.857 148.552 213.121 148.024C213.385 147.496 213.517 146.872 213.517 146.152C213.517 145.4 213.325 144.84 212.941 144.472C212.557 144.096 211.953 143.908 211.129 143.908H209.869L208.849 149.68ZM214.842 151L219.39 142.6H221.13L222.714 151H221.094L220.758 149.056H217.482L216.462 151H214.842ZM218.094 147.88H220.566L219.954 144.328L218.094 147.88ZM224.712 151L225.24 148.012L223.356 142.6H225.108L226.284 146.464L228.816 142.6H230.544L226.776 148.012L226.248 151H224.712ZM231.864 152.74C231.432 152.22 231.084 151.584 230.82 150.832C230.556 150.08 230.424 149.268 230.424 148.396C230.424 147.516 230.564 146.644 230.844 145.78C231.124 144.916 231.524 144.1 232.044 143.332C232.564 142.556 233.18 141.868 233.892 141.268H235.416L235.404 141.412C234.676 142.06 234.052 142.756 233.532 143.5C233.02 144.244 232.628 145.016 232.356 145.816C232.084 146.608 231.948 147.404 231.948 148.204C231.948 149.02 232.08 149.808 232.344 150.568C232.608 151.32 232.972 151.996 233.436 152.596L233.4 152.74H231.864ZM237.869 151.144C237.317 151.144 236.829 151.06 236.405 150.892C235.981 150.716 235.649 150.464 235.409 150.136C235.169 149.8 235.049 149.4 235.049 148.936C235.049 148.856 235.053 148.78 235.061 148.708C235.069 148.628 235.077 148.548 235.085 148.468H236.717C236.709 148.556 236.705 148.636 236.705 148.708C236.705 149.052 236.825 149.332 237.065 149.548C237.313 149.756 237.645 149.86 238.061 149.86C238.525 149.86 238.889 149.744 239.153 149.512C239.417 149.272 239.549 148.96 239.549 148.576C239.549 148.288 239.449 148.06 239.249 147.892C239.049 147.724 238.793 147.584 238.481 147.472C238.177 147.36 237.857 147.244 237.521 147.124C236.993 146.932 236.589 146.668 236.309 146.332C236.029 145.996 235.889 145.6 235.889 145.144C235.889 144.608 236.025 144.14 236.297 143.74C236.577 143.332 236.957 143.016 237.437 142.792C237.925 142.568 238.485 142.456 239.117 142.456C239.877 142.456 240.489 142.64 240.953 143.008C241.417 143.376 241.649 143.876 241.649 144.508C241.649 144.564 241.645 144.624 241.637 144.688C241.637 144.752 241.633 144.816 241.625 144.88H239.981C239.989 144.808 239.993 144.74 239.993 144.676C239.993 144.428 239.897 144.212 239.705 144.028C239.513 143.844 239.233 143.752 238.865 143.752C238.457 143.752 238.133 143.86 237.893 144.076C237.661 144.284 237.545 144.548 237.545 144.868C237.545 145.116 237.625 145.316 237.785 145.468C237.945 145.612 238.161 145.74 238.433 145.852C238.705 145.956 239.005 146.068 239.333 146.188C239.677 146.308 239.989 146.468 240.269 146.668C240.557 146.86 240.785 147.096 240.953 147.376C241.129 147.656 241.217 147.988 241.217 148.372C241.217 148.932 241.073 149.42 240.785 149.836C240.497 150.252 240.101 150.576 239.597 150.808C239.093 151.032 238.517 151.144 237.869 151.144ZM241.439 152.74L241.463 152.596C242.183 151.948 242.799 151.252 243.311 150.508C243.831 149.764 244.227 148.996 244.499 148.204C244.771 147.404 244.907 146.604 244.907 145.804C244.907 144.988 244.775 144.204 244.511 143.452C244.255 142.692 243.891 142.012 243.419 141.412L243.455 141.268H244.991C245.423 141.788 245.771 142.424 246.035 143.176C246.299 143.928 246.431 144.74 246.431 145.612C246.431 146.492 246.291 147.364 246.011 148.228C245.731 149.092 245.331 149.912 244.811 150.688C244.291 151.456 243.679 152.14 242.975 152.74H241.439ZM250.07 151L251.546 142.6H253.082L251.81 149.8H255.53L255.326 151H250.07ZM256.139 151L260.687 142.6H262.427L264.011 151H262.391L262.055 149.056H258.779L257.759 151H256.139ZM259.391 147.88H261.863L261.251 144.328L259.391 147.88ZM266.1 151L267.36 143.812H264.912L265.128 142.6H271.572L271.368 143.812H268.896L267.636 151H266.1ZM271.222 151L272.71 142.6H277.906L277.678 143.812H274.03L273.622 146.152H276.91L276.706 147.328H273.418L272.974 149.788H276.634L276.418 151H271.222Z" fill="#EC2222"/>
</svg>
