<svg width="308" height="378" viewBox="0 0 308 378" fill="none" xmlns="http://www.w3.org/2000/svg">
<rect x="0.177734" y="0.105469" width="307.259" height="377.183" rx="12" fill="white"/>
<rect x="24" y="20" width="84" height="27" rx="4" fill="#6BCBF4"/>
<path d="M35.596 37.144C34.764 37.144 34.044 36.964 33.436 36.604C32.836 36.236 32.372 35.728 32.044 35.08C31.716 34.424 31.552 33.668 31.552 32.812C31.552 31.948 31.716 31.192 32.044 30.544C32.372 29.888 32.836 29.376 33.436 29.008C34.044 28.64 34.764 28.456 35.596 28.456C36.58 28.456 37.384 28.696 38.008 29.176C38.632 29.656 39.028 30.328 39.196 31.192H37.78C37.668 30.704 37.428 30.316 37.06 30.028C36.692 29.74 36.2 29.596 35.584 29.596C34.744 29.596 34.08 29.884 33.592 30.46C33.104 31.028 32.86 31.812 32.86 32.812C32.86 33.804 33.104 34.584 33.592 35.152C34.08 35.72 34.744 36.004 35.584 36.004C36.2 36.004 36.692 35.868 37.06 35.596C37.428 35.324 37.668 34.952 37.78 34.48H39.196C39.028 35.312 38.632 35.964 38.008 36.436C37.384 36.908 36.58 37.144 35.596 37.144ZM42.5622 37.144C42.0582 37.144 41.6422 37.06 41.3142 36.892C40.9862 36.724 40.7422 36.504 40.5822 36.232C40.4222 35.952 40.3422 35.648 40.3422 35.32C40.3422 34.744 40.5662 34.288 41.0142 33.952C41.4622 33.616 42.1022 33.448 42.9342 33.448H44.4942V33.34C44.4942 32.876 44.3662 32.528 44.1102 32.296C43.8622 32.064 43.5382 31.948 43.1382 31.948C42.7862 31.948 42.4782 32.036 42.2142 32.212C41.9582 32.38 41.8022 32.632 41.7462 32.968H40.4742C40.5142 32.536 40.6582 32.168 40.9062 31.864C41.1622 31.552 41.4822 31.316 41.8662 31.156C42.2582 30.988 42.6862 30.904 43.1502 30.904C43.9822 30.904 44.6262 31.124 45.0822 31.564C45.5382 31.996 45.7662 32.588 45.7662 33.34V37H44.6622L44.5542 35.98C44.3862 36.308 44.1422 36.584 43.8222 36.808C43.5022 37.032 43.0822 37.144 42.5622 37.144ZM42.8142 36.112C43.1582 36.112 43.4462 36.032 43.6782 35.872C43.9182 35.704 44.1022 35.484 44.2302 35.212C44.3662 34.94 44.4502 34.64 44.4822 34.312H43.0662C42.5622 34.312 42.2022 34.4 41.9862 34.576C41.7782 34.752 41.6742 34.972 41.6742 35.236C41.6742 35.508 41.7742 35.724 41.9742 35.884C42.1822 36.036 42.4622 36.112 42.8142 36.112ZM49.6253 37.144C48.8733 37.144 48.2533 36.96 47.7653 36.592C47.2773 36.224 46.9973 35.736 46.9253 35.128H48.2093C48.2733 35.4 48.4253 35.636 48.6653 35.836C48.9053 36.028 49.2213 36.124 49.6133 36.124C49.9973 36.124 50.2773 36.044 50.4533 35.884C50.6293 35.724 50.7173 35.54 50.7173 35.332C50.7173 35.028 50.5933 34.824 50.3453 34.72C50.1053 34.608 49.7693 34.508 49.3373 34.42C49.0013 34.348 48.6653 34.252 48.3293 34.132C48.0013 34.012 47.7253 33.844 47.5013 33.628C47.2853 33.404 47.1773 33.104 47.1773 32.728C47.1773 32.208 47.3773 31.776 47.7773 31.432C48.1773 31.08 48.7373 30.904 49.4573 30.904C50.1213 30.904 50.6573 31.064 51.0653 31.384C51.4813 31.704 51.7253 32.156 51.7973 32.74H50.5733C50.5333 32.484 50.4133 32.284 50.2133 32.14C50.0213 31.996 49.7613 31.924 49.4333 31.924C49.1133 31.924 48.8653 31.992 48.6893 32.128C48.5133 32.256 48.4253 32.424 48.4253 32.632C48.4253 32.84 48.5453 33.004 48.7853 33.124C49.0333 33.244 49.3573 33.352 49.7573 33.448C50.1573 33.536 50.5253 33.64 50.8613 33.76C51.2053 33.872 51.4813 34.04 51.6893 34.264C51.8973 34.488 52.0013 34.816 52.0013 35.248C52.0093 35.792 51.7973 36.244 51.3653 36.604C50.9413 36.964 50.3613 37.144 49.6253 37.144ZM56.1739 37.144C55.5899 37.144 55.0699 37.016 54.6139 36.76C54.1659 36.496 53.8139 36.132 53.5579 35.668C53.3019 35.204 53.1739 34.664 53.1739 34.048C53.1739 33.424 53.2979 32.876 53.5459 32.404C53.8019 31.932 54.1539 31.564 54.6019 31.3C55.0579 31.036 55.5859 30.904 56.1859 30.904C56.7699 30.904 57.2779 31.036 57.7099 31.3C58.1419 31.556 58.4779 31.9 58.7179 32.332C58.9579 32.764 59.0779 33.24 59.0779 33.76C59.0779 33.84 59.0739 33.928 59.0659 34.024C59.0659 34.112 59.0619 34.212 59.0539 34.324H54.4219C54.4619 34.9 54.6499 35.34 54.9859 35.644C55.3299 35.94 55.7259 36.088 56.1739 36.088C56.5339 36.088 56.8339 36.008 57.0739 35.848C57.3219 35.68 57.5059 35.456 57.6259 35.176H58.8979C58.7379 35.736 58.4179 36.204 57.9379 36.58C57.4659 36.956 56.8779 37.144 56.1739 37.144ZM56.1739 31.948C55.7499 31.948 55.3739 32.076 55.0459 32.332C54.7179 32.58 54.5179 32.956 54.4459 33.46H57.8059C57.7819 32.996 57.6179 32.628 57.3139 32.356C57.0099 32.084 56.6299 31.948 56.1739 31.948ZM66.2412 37.144C65.6252 37.144 65.0852 37.036 64.6212 36.82C64.1572 36.604 63.7932 36.296 63.5292 35.896C63.2732 35.496 63.1412 35.02 63.1332 34.468H64.4772C64.4852 34.916 64.6412 35.296 64.9452 35.608C65.2492 35.92 65.6772 36.076 66.2292 36.076C66.7172 36.076 67.0972 35.96 67.3692 35.728C67.6492 35.488 67.7892 35.184 67.7892 34.816C67.7892 34.52 67.7212 34.28 67.5852 34.096C67.4572 33.912 67.2772 33.76 67.0452 33.64C66.8212 33.52 66.5612 33.412 66.2652 33.316C65.9692 33.22 65.6572 33.116 65.3292 33.004C64.6812 32.788 64.1932 32.508 63.8652 32.164C63.5452 31.82 63.3852 31.368 63.3852 30.808C63.3772 30.336 63.4852 29.924 63.7092 29.572C63.9412 29.22 64.2612 28.948 64.6692 28.756C65.0852 28.556 65.5692 28.456 66.1212 28.456C66.6652 28.456 67.1412 28.556 67.5492 28.756C67.9652 28.956 68.2892 29.236 68.5212 29.596C68.7532 29.948 68.8732 30.36 68.8812 30.832H67.5372C67.5372 30.616 67.4812 30.412 67.3692 30.22C67.2572 30.02 67.0932 29.856 66.8772 29.728C66.6612 29.6 66.3972 29.536 66.0852 29.536C65.6852 29.528 65.3532 29.628 65.0892 29.836C64.8332 30.044 64.7052 30.332 64.7052 30.7C64.7052 31.028 64.8012 31.28 64.9932 31.456C65.1852 31.632 65.4492 31.78 65.7852 31.9C66.1212 32.012 66.5052 32.144 66.9372 32.296C67.3532 32.432 67.7252 32.596 68.0532 32.788C68.3812 32.98 68.6412 33.232 68.8332 33.544C69.0332 33.856 69.1332 34.252 69.1332 34.732C69.1332 35.156 69.0252 35.552 68.8092 35.92C68.5932 36.28 68.2692 36.576 67.8372 36.808C67.4052 37.032 66.8732 37.144 66.2412 37.144ZM72.9719 37C72.3879 37 71.9239 36.86 71.5799 36.58C71.2359 36.292 71.0639 35.784 71.0639 35.056V32.116H70.0439V31.048H71.0639L71.2199 29.536H72.3359V31.048H74.0159V32.116H72.3359V35.056C72.3359 35.384 72.4039 35.612 72.5399 35.74C72.6839 35.86 72.9279 35.92 73.2719 35.92H73.9559V37H72.9719ZM77.5234 37.144C76.8034 37.144 76.2354 36.92 75.8194 36.472C75.4114 36.024 75.2074 35.356 75.2074 34.468V31.048H76.4794V34.336C76.4794 35.488 76.9514 36.064 77.8954 36.064C78.3674 36.064 78.7554 35.896 79.0594 35.56C79.3634 35.224 79.5154 34.744 79.5154 34.12V31.048H80.7874V37H79.6594L79.5634 35.956C79.3794 36.324 79.1074 36.616 78.7474 36.832C78.3954 37.04 77.9874 37.144 77.5234 37.144ZM85.1176 37.144C84.5416 37.144 84.0336 37.008 83.5936 36.736C83.1536 36.464 82.8096 36.092 82.5616 35.62C82.3136 35.148 82.1896 34.612 82.1896 34.012C82.1896 33.412 82.3136 32.88 82.5616 32.416C82.8096 31.944 83.1536 31.576 83.5936 31.312C84.0416 31.04 84.5536 30.904 85.1296 30.904C85.6016 30.904 86.0136 30.996 86.3656 31.18C86.7256 31.364 87.0056 31.624 87.2056 31.96V28.36H88.4776V37H87.3376L87.2056 36.076C87.0136 36.356 86.7496 36.604 86.4136 36.82C86.0776 37.036 85.6456 37.144 85.1176 37.144ZM85.3456 36.04C85.8896 36.04 86.3336 35.852 86.6776 35.476C87.0296 35.1 87.2056 34.616 87.2056 34.024C87.2056 33.424 87.0296 32.94 86.6776 32.572C86.3336 32.196 85.8896 32.008 85.3456 32.008C84.8016 32.008 84.3536 32.196 84.0016 32.572C83.6496 32.94 83.4736 33.424 83.4736 34.024C83.4736 34.416 83.5536 34.764 83.7136 35.068C83.8736 35.372 84.0936 35.612 84.3736 35.788C84.6616 35.956 84.9856 36.04 85.3456 36.04ZM90.7773 39.64L92.2053 36.508H91.8573L89.5053 31.048H90.8853L92.7093 35.452L94.6173 31.048H95.9613L92.1213 39.64H90.7773Z" fill="white"/>
<path d="M29.122 230.156C28.2207 230.156 27.432 229.957 26.756 229.558C26.08 229.159 25.5513 228.609 25.17 227.907C24.7887 227.196 24.598 226.377 24.598 225.45C24.598 224.523 24.7887 223.708 25.17 223.006C25.5513 222.295 26.08 221.741 26.756 221.342C27.432 220.943 28.2207 220.744 29.122 220.744C30.0233 220.744 30.812 220.943 31.488 221.342C32.164 221.741 32.6883 222.295 33.061 223.006C33.4423 223.708 33.633 224.523 33.633 225.45C33.633 226.343 33.4553 227.136 33.1 227.829C32.7533 228.522 32.268 229.068 31.644 229.467L33.841 231.703H32.099L30.474 229.987C30.0493 230.1 29.5987 230.156 29.122 230.156ZM29.122 228.921C29.746 228.921 30.2877 228.782 30.747 228.505C31.215 228.228 31.579 227.829 31.839 227.309C32.099 226.789 32.229 226.169 32.229 225.45C32.229 224.731 32.099 224.111 31.839 223.591C31.579 223.071 31.215 222.672 30.747 222.395C30.2877 222.118 29.746 221.979 29.122 221.979C28.498 221.979 27.952 222.118 27.484 222.395C27.016 222.672 26.652 223.071 26.392 223.591C26.1407 224.111 26.015 224.731 26.015 225.45C26.015 226.169 26.1407 226.789 26.392 227.309C26.652 227.829 27.016 228.228 27.484 228.505C27.952 228.782 28.498 228.921 29.122 228.921ZM37.5967 230.156C36.8167 230.156 36.2013 229.913 35.7507 229.428C35.3087 228.943 35.0877 228.219 35.0877 227.257V223.552H36.4657V227.114C36.4657 228.362 36.977 228.986 37.9997 228.986C38.511 228.986 38.9313 228.804 39.2607 228.44C39.59 228.076 39.7547 227.556 39.7547 226.88V223.552H41.1327V230H39.9107L39.8067 228.869C39.6073 229.268 39.3127 229.584 38.9227 229.818C38.5413 230.043 38.0993 230.156 37.5967 230.156ZM45.0696 230.156C44.5236 230.156 44.073 230.065 43.7176 229.883C43.3623 229.701 43.098 229.463 42.9246 229.168C42.7513 228.865 42.6646 228.535 42.6646 228.18C42.6646 227.556 42.9073 227.062 43.3926 226.698C43.878 226.334 44.5713 226.152 45.4726 226.152H47.1626V226.035C47.1626 225.532 47.024 225.155 46.7466 224.904C46.478 224.653 46.127 224.527 45.6936 224.527C45.3123 224.527 44.9786 224.622 44.6926 224.813C44.4153 224.995 44.2463 225.268 44.1856 225.632H42.8076C42.851 225.164 43.007 224.765 43.2756 224.436C43.553 224.098 43.8996 223.842 44.3156 223.669C44.7403 223.487 45.204 223.396 45.7066 223.396C46.608 223.396 47.3056 223.634 47.7996 224.111C48.2936 224.579 48.5406 225.22 48.5406 226.035V230H47.3446L47.2276 228.895C47.0456 229.25 46.7813 229.549 46.4346 229.792C46.088 230.035 45.633 230.156 45.0696 230.156ZM45.3426 229.038C45.7153 229.038 46.0273 228.951 46.2786 228.778C46.5386 228.596 46.738 228.358 46.8766 228.063C47.024 227.768 47.115 227.443 47.1496 227.088H45.6156C45.0696 227.088 44.6796 227.183 44.4456 227.374C44.2203 227.565 44.1076 227.803 44.1076 228.089C44.1076 228.384 44.216 228.618 44.4326 228.791C44.658 228.956 44.9613 229.038 45.3426 229.038ZM50.1474 230V220.64H51.5254V230H50.1474ZM54.0504 222.33C53.7904 222.33 53.5737 222.252 53.4004 222.096C53.2357 221.931 53.1534 221.728 53.1534 221.485C53.1534 221.242 53.2357 221.043 53.4004 220.887C53.5737 220.722 53.7904 220.64 54.0504 220.64C54.3104 220.64 54.5227 220.722 54.6874 220.887C54.8607 221.043 54.9474 221.242 54.9474 221.485C54.9474 221.728 54.8607 221.931 54.6874 222.096C54.5227 222.252 54.3104 222.33 54.0504 222.33ZM53.3614 230V223.552H54.7394V230H53.3614ZM59.2625 230C58.6298 230 58.1272 229.848 57.7545 229.545C57.3818 229.233 57.1955 228.683 57.1955 227.894V224.709H56.0905V223.552H57.1955L57.3645 221.914H58.5735V223.552H60.3935V224.709H58.5735V227.894C58.5735 228.249 58.6472 228.496 58.7945 228.635C58.9505 228.765 59.2148 228.83 59.5875 228.83H60.3285V230H59.2625ZM62.5684 232.86L64.1154 229.467H63.7384L61.1904 223.552H62.6854L64.6614 228.323L66.7284 223.552H68.1844L64.0244 232.86H62.5684ZM75.6087 230.156C74.9933 230.156 74.4387 230.017 73.9447 229.74C73.4593 229.454 73.0737 229.06 72.7877 228.557C72.5017 228.046 72.3587 227.452 72.3587 226.776C72.3587 226.1 72.5017 225.511 72.7877 225.008C73.0823 224.497 73.4767 224.102 73.9707 223.825C74.4647 223.539 75.015 223.396 75.6217 223.396C76.237 223.396 76.7873 223.539 77.2727 223.825C77.7667 224.102 78.1567 224.497 78.4427 225.008C78.7373 225.511 78.8847 226.1 78.8847 226.776C78.8847 227.452 78.7373 228.046 78.4427 228.557C78.1567 229.06 77.7667 229.454 77.2727 229.74C76.7787 230.017 76.224 230.156 75.6087 230.156ZM75.6087 228.973C75.938 228.973 76.2413 228.891 76.5187 228.726C76.8047 228.561 77.0343 228.319 77.2077 227.998C77.381 227.669 77.4677 227.261 77.4677 226.776C77.4677 226.291 77.381 225.888 77.2077 225.567C77.043 225.238 76.8177 224.991 76.5317 224.826C76.2543 224.661 75.951 224.579 75.6217 224.579C75.2923 224.579 74.9847 224.661 74.6987 224.826C74.4213 224.991 74.196 225.238 74.0227 225.567C73.8493 225.888 73.7627 226.291 73.7627 226.776C73.7627 227.261 73.8493 227.669 74.0227 227.998C74.196 228.319 74.4213 228.561 74.6987 228.726C74.976 228.891 75.2793 228.973 75.6087 228.973ZM80.6999 230V224.709H79.7769V223.552H80.6999V222.616C80.6999 221.914 80.8732 221.411 81.2199 221.108C81.5752 220.796 82.0736 220.64 82.7149 220.64H83.3909V221.81H82.9229C82.6196 221.81 82.4029 221.875 82.2729 222.005C82.1429 222.126 82.0779 222.334 82.0779 222.629V223.552H83.5599V224.709H82.0779V230H80.6999ZM88.1964 230V220.9H93.9814V222.018H89.5744V224.852H93.5914V225.944H89.5744V228.882H93.9814V230H88.1964ZM98.5092 230.156C97.8852 230.156 97.3349 230.009 96.8582 229.714C96.3815 229.419 96.0089 229.016 95.7402 228.505C95.4715 227.994 95.3372 227.413 95.3372 226.763C95.3372 226.113 95.4715 225.537 95.7402 225.034C96.0089 224.523 96.3815 224.124 96.8582 223.838C97.3435 223.543 97.8982 223.396 98.5222 223.396C99.0335 223.396 99.4799 223.496 99.8612 223.695C100.251 223.894 100.555 224.176 100.771 224.54V220.64H102.149V230H100.914L100.771 228.999C100.563 229.302 100.277 229.571 99.9132 229.805C99.5492 230.039 99.0812 230.156 98.5092 230.156ZM98.7562 228.96C99.3455 228.96 99.8265 228.756 100.199 228.349C100.581 227.942 100.771 227.417 100.771 226.776C100.771 226.126 100.581 225.602 100.199 225.203C99.8265 224.796 99.3455 224.592 98.7562 224.592C98.1669 224.592 97.6815 224.796 97.3002 225.203C96.9189 225.602 96.7282 226.126 96.7282 226.776C96.7282 227.201 96.8149 227.578 96.9882 227.907C97.1615 228.236 97.3999 228.496 97.7032 228.687C98.0152 228.869 98.3662 228.96 98.7562 228.96ZM106.266 230.156C105.486 230.156 104.87 229.913 104.42 229.428C103.978 228.943 103.757 228.219 103.757 227.257V223.552H105.135V227.114C105.135 228.362 105.646 228.986 106.669 228.986C107.18 228.986 107.6 228.804 107.93 228.44C108.259 228.076 108.424 227.556 108.424 226.88V223.552H109.802V230H108.58L108.476 228.869C108.276 229.268 107.982 229.584 107.592 229.818C107.21 230.043 106.768 230.156 106.266 230.156ZM114.61 230.156C113.977 230.156 113.409 230.013 112.907 229.727C112.413 229.441 112.023 229.047 111.737 228.544C111.459 228.033 111.321 227.443 111.321 226.776C111.321 226.109 111.459 225.524 111.737 225.021C112.023 224.51 112.413 224.111 112.907 223.825C113.409 223.539 113.977 223.396 114.61 223.396C115.407 223.396 116.074 223.604 116.612 224.02C117.158 224.436 117.509 224.999 117.665 225.71H116.222C116.135 225.355 115.944 225.077 115.65 224.878C115.355 224.679 115.008 224.579 114.61 224.579C114.272 224.579 113.96 224.666 113.674 224.839C113.388 225.004 113.158 225.251 112.985 225.58C112.811 225.901 112.725 226.299 112.725 226.776C112.725 227.253 112.811 227.656 112.985 227.985C113.158 228.306 113.388 228.553 113.674 228.726C113.96 228.899 114.272 228.986 114.61 228.986C115.008 228.986 115.355 228.886 115.65 228.687C115.944 228.488 116.135 228.206 116.222 227.842H117.665C117.517 228.535 117.171 229.094 116.625 229.519C116.079 229.944 115.407 230.156 114.61 230.156ZM121.343 230.156C120.797 230.156 120.346 230.065 119.991 229.883C119.636 229.701 119.371 229.463 119.198 229.168C119.025 228.865 118.938 228.535 118.938 228.18C118.938 227.556 119.181 227.062 119.666 226.698C120.151 226.334 120.845 226.152 121.746 226.152H123.436V226.035C123.436 225.532 123.297 225.155 123.02 224.904C122.751 224.653 122.4 224.527 121.967 224.527C121.586 224.527 121.252 224.622 120.966 224.813C120.689 224.995 120.52 225.268 120.459 225.632H119.081C119.124 225.164 119.28 224.765 119.549 224.436C119.826 224.098 120.173 223.842 120.589 223.669C121.014 223.487 121.477 223.396 121.98 223.396C122.881 223.396 123.579 223.634 124.073 224.111C124.567 224.579 124.814 225.22 124.814 226.035V230H123.618L123.501 228.895C123.319 229.25 123.055 229.549 122.708 229.792C122.361 230.035 121.906 230.156 121.343 230.156ZM121.616 229.038C121.989 229.038 122.301 228.951 122.552 228.778C122.812 228.596 123.011 228.358 123.15 228.063C123.297 227.768 123.388 227.443 123.423 227.088H121.889C121.343 227.088 120.953 227.183 120.719 227.374C120.494 227.565 120.381 227.803 120.381 228.089C120.381 228.384 120.489 228.618 120.706 228.791C120.931 228.956 121.235 229.038 121.616 229.038ZM128.998 230C128.365 230 127.863 229.848 127.49 229.545C127.117 229.233 126.931 228.683 126.931 227.894V224.709H125.826V223.552H126.931L127.1 221.914H128.309V223.552H130.129V224.709H128.309V227.894C128.309 228.249 128.383 228.496 128.53 228.635C128.686 228.765 128.95 228.83 129.323 228.83H130.064V230H128.998ZM132.33 222.33C132.07 222.33 131.853 222.252 131.68 222.096C131.515 221.931 131.433 221.728 131.433 221.485C131.433 221.242 131.515 221.043 131.68 220.887C131.853 220.722 132.07 220.64 132.33 220.64C132.59 220.64 132.802 220.722 132.967 220.887C133.14 221.043 133.227 221.242 133.227 221.485C133.227 221.728 133.14 221.931 132.967 222.096C132.802 222.252 132.59 222.33 132.33 222.33ZM131.641 230V223.552H133.019V230H131.641ZM137.854 230.156C137.238 230.156 136.684 230.017 136.19 229.74C135.704 229.454 135.319 229.06 135.033 228.557C134.747 228.046 134.604 227.452 134.604 226.776C134.604 226.1 134.747 225.511 135.033 225.008C135.327 224.497 135.722 224.102 136.216 223.825C136.71 223.539 137.26 223.396 137.867 223.396C138.482 223.396 139.032 223.539 139.518 223.825C140.012 224.102 140.402 224.497 140.688 225.008C140.982 225.511 141.13 226.1 141.13 226.776C141.13 227.452 140.982 228.046 140.688 228.557C140.402 229.06 140.012 229.454 139.518 229.74C139.024 230.017 138.469 230.156 137.854 230.156ZM137.854 228.973C138.183 228.973 138.486 228.891 138.764 228.726C139.05 228.561 139.279 228.319 139.453 227.998C139.626 227.669 139.713 227.261 139.713 226.776C139.713 226.291 139.626 225.888 139.453 225.567C139.288 225.238 139.063 224.991 138.777 224.826C138.499 224.661 138.196 224.579 137.867 224.579C137.537 224.579 137.23 224.661 136.944 224.826C136.666 224.991 136.441 225.238 136.268 225.567C136.094 225.888 136.008 226.291 136.008 226.776C136.008 227.261 136.094 227.669 136.268 227.998C136.441 228.319 136.666 228.561 136.944 228.726C137.221 228.891 137.524 228.973 137.854 228.973ZM142.62 230V223.552H143.842L143.946 224.683C144.145 224.284 144.436 223.972 144.817 223.747C145.207 223.513 145.653 223.396 146.156 223.396C146.936 223.396 147.547 223.639 147.989 224.124C148.44 224.609 148.665 225.333 148.665 226.295V230H147.3V226.438C147.3 225.19 146.789 224.566 145.766 224.566C145.255 224.566 144.83 224.748 144.492 225.112C144.163 225.476 143.998 225.996 143.998 226.672V230H142.62ZM155.747 230.156C155.201 230.156 154.751 230.065 154.395 229.883C154.04 229.701 153.776 229.463 153.602 229.168C153.429 228.865 153.342 228.535 153.342 228.18C153.342 227.556 153.585 227.062 154.07 226.698C154.556 226.334 155.249 226.152 156.15 226.152H157.84V226.035C157.84 225.532 157.702 225.155 157.424 224.904C157.156 224.653 156.805 224.527 156.371 224.527C155.99 224.527 155.656 224.622 155.37 224.813C155.093 224.995 154.924 225.268 154.863 225.632H153.485C153.529 225.164 153.685 224.765 153.953 224.436C154.231 224.098 154.577 223.842 154.993 223.669C155.418 223.487 155.882 223.396 156.384 223.396C157.286 223.396 157.983 223.634 158.477 224.111C158.971 224.579 159.218 225.22 159.218 226.035V230H158.022L157.905 228.895C157.723 229.25 157.459 229.549 157.112 229.792C156.766 230.035 156.311 230.156 155.747 230.156ZM156.02 229.038C156.393 229.038 156.705 228.951 156.956 228.778C157.216 228.596 157.416 228.358 157.554 228.063C157.702 227.768 157.793 227.443 157.827 227.088H156.293C155.747 227.088 155.357 227.183 155.123 227.374C154.898 227.565 154.785 227.803 154.785 228.089C154.785 228.384 154.894 228.618 155.11 228.791C155.336 228.956 155.639 229.038 156.02 229.038ZM160.825 230V223.552H162.047L162.151 224.683C162.35 224.284 162.641 223.972 163.022 223.747C163.412 223.513 163.858 223.396 164.361 223.396C165.141 223.396 165.752 223.639 166.194 224.124C166.645 224.609 166.87 225.333 166.87 226.295V230H165.505V226.438C165.505 225.19 164.994 224.566 163.971 224.566C163.46 224.566 163.035 224.748 162.697 225.112C162.368 225.476 162.203 225.996 162.203 226.672V230H160.825ZM171.431 230.156C170.807 230.156 170.257 230.009 169.78 229.714C169.303 229.419 168.931 229.016 168.662 228.505C168.393 227.994 168.259 227.413 168.259 226.763C168.259 226.113 168.393 225.537 168.662 225.034C168.931 224.523 169.303 224.124 169.78 223.838C170.265 223.543 170.82 223.396 171.444 223.396C171.955 223.396 172.402 223.496 172.783 223.695C173.173 223.894 173.476 224.176 173.693 224.54V220.64H175.071V230H173.836L173.693 228.999C173.485 229.302 173.199 229.571 172.835 229.805C172.471 230.039 172.003 230.156 171.431 230.156ZM171.678 228.96C172.267 228.96 172.748 228.756 173.121 228.349C173.502 227.942 173.693 227.417 173.693 226.776C173.693 226.126 173.502 225.602 173.121 225.203C172.748 224.796 172.267 224.592 171.678 224.592C171.089 224.592 170.603 224.796 170.222 225.203C169.841 225.602 169.65 226.126 169.65 226.776C169.65 227.201 169.737 227.578 169.91 227.907C170.083 228.236 170.322 228.496 170.625 228.687C170.937 228.869 171.288 228.96 171.678 228.96ZM180.136 230V220.9H183.087C184.153 220.9 185.028 221.086 185.713 221.459C186.406 221.832 186.918 222.36 187.247 223.045C187.585 223.721 187.754 224.527 187.754 225.463C187.754 226.39 187.585 227.196 187.247 227.881C186.918 228.557 186.406 229.081 185.713 229.454C185.028 229.818 184.153 230 183.087 230H180.136ZM181.514 228.83H183.035C183.858 228.83 184.508 228.696 184.985 228.427C185.47 228.158 185.817 227.773 186.025 227.27C186.242 226.767 186.35 226.165 186.35 225.463C186.35 224.761 186.242 224.154 186.025 223.643C185.817 223.132 185.47 222.742 184.985 222.473C184.508 222.196 183.858 222.057 183.035 222.057H181.514V228.83ZM189.225 230V223.552H190.46L190.577 224.774C190.802 224.349 191.114 224.016 191.513 223.773C191.92 223.522 192.41 223.396 192.982 223.396V224.839H192.605C192.223 224.839 191.881 224.904 191.578 225.034C191.283 225.155 191.045 225.368 190.863 225.671C190.689 225.966 190.603 226.377 190.603 226.906V230H189.225ZM197.001 230.156C196.386 230.156 195.831 230.017 195.337 229.74C194.852 229.454 194.466 229.06 194.18 228.557C193.894 228.046 193.751 227.452 193.751 226.776C193.751 226.1 193.894 225.511 194.18 225.008C194.475 224.497 194.869 224.102 195.363 223.825C195.857 223.539 196.408 223.396 197.014 223.396C197.63 223.396 198.18 223.539 198.665 223.825C199.159 224.102 199.549 224.497 199.835 225.008C200.13 225.511 200.277 226.1 200.277 226.776C200.277 227.452 200.13 228.046 199.835 228.557C199.549 229.06 199.159 229.454 198.665 229.74C198.171 230.017 197.617 230.156 197.001 230.156ZM197.001 228.973C197.331 228.973 197.634 228.891 197.911 228.726C198.197 228.561 198.427 228.319 198.6 227.998C198.774 227.669 198.86 227.261 198.86 226.776C198.86 226.291 198.774 225.888 198.6 225.567C198.436 225.238 198.21 224.991 197.924 224.826C197.647 224.661 197.344 224.579 197.014 224.579C196.685 224.579 196.377 224.661 196.091 224.826C195.814 224.991 195.589 225.238 195.415 225.567C195.242 225.888 195.155 226.291 195.155 226.776C195.155 227.261 195.242 227.669 195.415 227.998C195.589 228.319 195.814 228.561 196.091 228.726C196.369 228.891 196.672 228.973 197.001 228.973ZM201.767 232.86V223.552H203.002L203.145 224.553C203.353 224.25 203.639 223.981 204.003 223.747C204.367 223.513 204.835 223.396 205.407 223.396C206.031 223.396 206.582 223.543 207.058 223.838C207.535 224.133 207.908 224.536 208.176 225.047C208.454 225.558 208.592 226.139 208.592 226.789C208.592 227.439 208.454 228.02 208.176 228.531C207.908 229.034 207.535 229.432 207.058 229.727C206.582 230.013 206.027 230.156 205.394 230.156C204.892 230.156 204.445 230.056 204.055 229.857C203.674 229.658 203.371 229.376 203.145 229.012V232.86H201.767ZM205.16 228.96C205.75 228.96 206.235 228.761 206.616 228.362C206.998 227.955 207.188 227.426 207.188 226.776C207.188 226.351 207.102 225.974 206.928 225.645C206.755 225.316 206.517 225.06 206.213 224.878C205.91 224.687 205.559 224.592 205.16 224.592C204.571 224.592 204.086 224.796 203.704 225.203C203.332 225.61 203.145 226.135 203.145 226.776C203.145 227.426 203.332 227.955 203.704 228.362C204.086 228.761 204.571 228.96 205.16 228.96ZM213.099 230.156C212.484 230.156 211.929 230.017 211.435 229.74C210.95 229.454 210.564 229.06 210.278 228.557C209.992 228.046 209.849 227.452 209.849 226.776C209.849 226.1 209.992 225.511 210.278 225.008C210.573 224.497 210.967 224.102 211.461 223.825C211.955 223.539 212.505 223.396 213.112 223.396C213.727 223.396 214.278 223.539 214.763 223.825C215.257 224.102 215.647 224.497 215.933 225.008C216.228 225.511 216.375 226.1 216.375 226.776C216.375 227.452 216.228 228.046 215.933 228.557C215.647 229.06 215.257 229.454 214.763 229.74C214.269 230.017 213.714 230.156 213.099 230.156ZM213.099 228.973C213.428 228.973 213.732 228.891 214.009 228.726C214.295 228.561 214.525 228.319 214.698 227.998C214.871 227.669 214.958 227.261 214.958 226.776C214.958 226.291 214.871 225.888 214.698 225.567C214.533 225.238 214.308 224.991 214.022 224.826C213.745 224.661 213.441 224.579 213.112 224.579C212.783 224.579 212.475 224.661 212.189 224.826C211.912 224.991 211.686 225.238 211.513 225.567C211.34 225.888 211.253 226.291 211.253 226.776C211.253 227.261 211.34 227.669 211.513 227.998C211.686 228.319 211.912 228.561 212.189 228.726C212.466 228.891 212.77 228.973 213.099 228.973ZM220.244 230.156C219.464 230.156 218.849 229.913 218.398 229.428C217.956 228.943 217.735 228.219 217.735 227.257V223.552H219.113V227.114C219.113 228.362 219.624 228.986 220.647 228.986C221.158 228.986 221.579 228.804 221.908 228.44C222.237 228.076 222.402 227.556 222.402 226.88V223.552H223.78V230H222.558L222.454 228.869C222.255 229.268 221.96 229.584 221.57 229.818C221.189 230.043 220.747 230.156 220.244 230.156ZM228.237 230C227.604 230 227.102 229.848 226.729 229.545C226.356 229.233 226.17 228.683 226.17 227.894V224.709H225.065V223.552H226.17L226.339 221.914H227.548V223.552H229.368V224.709H227.548V227.894C227.548 228.249 227.622 228.496 227.769 228.635C227.925 228.765 228.189 228.83 228.562 228.83H229.303V230H228.237ZM234.116 230V220.9H237.249C237.969 220.9 238.558 221.021 239.017 221.264C239.485 221.507 239.832 221.836 240.057 222.252C240.283 222.659 240.395 223.114 240.395 223.617C240.395 224.18 240.244 224.692 239.94 225.151C239.646 225.61 239.182 225.94 238.549 226.139L240.486 230H238.887L237.119 226.334H235.494V230H234.116ZM235.494 225.294H237.171C237.795 225.294 238.25 225.142 238.536 224.839C238.831 224.536 238.978 224.141 238.978 223.656C238.978 223.171 238.835 222.785 238.549 222.499C238.263 222.204 237.8 222.057 237.158 222.057H235.494V225.294ZM243.954 230.156C243.408 230.156 242.958 230.065 242.602 229.883C242.247 229.701 241.983 229.463 241.809 229.168C241.636 228.865 241.549 228.535 241.549 228.18C241.549 227.556 241.792 227.062 242.277 226.698C242.763 226.334 243.456 226.152 244.357 226.152H246.047V226.035C246.047 225.532 245.909 225.155 245.631 224.904C245.363 224.653 245.012 224.527 244.578 224.527C244.197 224.527 243.863 224.622 243.577 224.813C243.3 224.995 243.131 225.268 243.07 225.632H241.692C241.736 225.164 241.892 224.765 242.16 224.436C242.438 224.098 242.784 223.842 243.2 223.669C243.625 223.487 244.089 223.396 244.591 223.396C245.493 223.396 246.19 223.634 246.684 224.111C247.178 224.579 247.425 225.22 247.425 226.035V230H246.229L246.112 228.895C245.93 229.25 245.666 229.549 245.319 229.792C244.973 230.035 244.518 230.156 243.954 230.156ZM244.227 229.038C244.6 229.038 244.912 228.951 245.163 228.778C245.423 228.596 245.623 228.358 245.761 228.063C245.909 227.768 246 227.443 246.034 227.088H244.5C243.954 227.088 243.564 227.183 243.33 227.374C243.105 227.565 242.992 227.803 242.992 228.089C242.992 228.384 243.101 228.618 243.317 228.791C243.543 228.956 243.846 229.038 244.227 229.038ZM251.609 230C250.977 230 250.474 229.848 250.101 229.545C249.729 229.233 249.542 228.683 249.542 227.894V224.709H248.437V223.552H249.542L249.711 221.914H250.92V223.552H252.74V224.709H250.92V227.894C250.92 228.249 250.994 228.496 251.141 228.635C251.297 228.765 251.562 228.83 251.934 228.83H252.675V230H251.609ZM257.012 230.156C256.379 230.156 255.816 230.017 255.322 229.74C254.837 229.454 254.455 229.06 254.178 228.557C253.901 228.054 253.762 227.469 253.762 226.802C253.762 226.126 253.896 225.532 254.165 225.021C254.442 224.51 254.824 224.111 255.309 223.825C255.803 223.539 256.375 223.396 257.025 223.396C257.658 223.396 258.208 223.539 258.676 223.825C259.144 224.102 259.508 224.475 259.768 224.943C260.028 225.411 260.158 225.927 260.158 226.49C260.158 226.577 260.154 226.672 260.145 226.776C260.145 226.871 260.141 226.98 260.132 227.101H255.114C255.157 227.725 255.361 228.202 255.725 228.531C256.098 228.852 256.527 229.012 257.012 229.012C257.402 229.012 257.727 228.925 257.987 228.752C258.256 228.57 258.455 228.327 258.585 228.024H259.963C259.79 228.631 259.443 229.138 258.923 229.545C258.412 229.952 257.775 230.156 257.012 230.156ZM257.012 224.527C256.553 224.527 256.145 224.666 255.79 224.943C255.435 225.212 255.218 225.619 255.14 226.165H258.78C258.754 225.662 258.576 225.264 258.247 224.969C257.918 224.674 257.506 224.527 257.012 224.527ZM264.162 230.156C263.347 230.156 262.675 229.957 262.147 229.558C261.618 229.159 261.315 228.631 261.237 227.972H262.628C262.697 228.267 262.862 228.522 263.122 228.739C263.382 228.947 263.724 229.051 264.149 229.051C264.565 229.051 264.868 228.964 265.059 228.791C265.249 228.618 265.345 228.418 265.345 228.193C265.345 227.864 265.21 227.643 264.942 227.53C264.682 227.409 264.318 227.3 263.85 227.205C263.486 227.127 263.122 227.023 262.758 226.893C262.402 226.763 262.103 226.581 261.861 226.347C261.627 226.104 261.51 225.779 261.51 225.372C261.51 224.809 261.726 224.341 262.16 223.968C262.593 223.587 263.2 223.396 263.98 223.396C264.699 223.396 265.28 223.569 265.722 223.916C266.172 224.263 266.437 224.752 266.515 225.385H265.189C265.145 225.108 265.015 224.891 264.799 224.735C264.591 224.579 264.309 224.501 263.954 224.501C263.607 224.501 263.338 224.575 263.148 224.722C262.957 224.861 262.862 225.043 262.862 225.268C262.862 225.493 262.992 225.671 263.252 225.801C263.52 225.931 263.871 226.048 264.305 226.152C264.738 226.247 265.137 226.36 265.501 226.49C265.873 226.611 266.172 226.793 266.398 227.036C266.623 227.279 266.736 227.634 266.736 228.102C266.744 228.691 266.515 229.181 266.047 229.571C265.587 229.961 264.959 230.156 264.162 230.156Z" fill="#232360"/>
<path d="M25.3315 258.203L28.4275 249.803H29.8195L32.8915 258.203H31.5475L30.8275 256.151H27.3955L26.6755 258.203H25.3315ZM27.7555 255.143H30.4675L29.1115 251.315L27.7555 255.143ZM34.0149 258.203V252.251H35.1429L35.2389 253.295C35.4229 252.927 35.6909 252.639 36.0429 252.431C36.4029 252.215 36.8149 252.107 37.2789 252.107C37.9989 252.107 38.5629 252.331 38.9709 252.779C39.3869 253.227 39.5949 253.895 39.5949 254.783V258.203H38.3349V254.915C38.3349 253.763 37.8629 253.187 36.9189 253.187C36.4469 253.187 36.0549 253.355 35.7429 253.691C35.4389 254.027 35.2869 254.507 35.2869 255.131V258.203H34.0149ZM43.1091 258.347C42.6051 258.347 42.1891 258.263 41.8611 258.095C41.5331 257.927 41.2891 257.707 41.1291 257.435C40.9691 257.155 40.8891 256.851 40.8891 256.523C40.8891 255.947 41.1131 255.491 41.5611 255.155C42.0091 254.819 42.6491 254.651 43.4811 254.651H45.0411V254.543C45.0411 254.079 44.9131 253.731 44.6571 253.499C44.4091 253.267 44.0851 253.151 43.6851 253.151C43.3331 253.151 43.0251 253.239 42.7611 253.415C42.5051 253.583 42.3491 253.835 42.2931 254.171H41.0211C41.0611 253.739 41.2051 253.371 41.4531 253.067C41.7091 252.755 42.0291 252.519 42.4131 252.359C42.8051 252.191 43.2331 252.107 43.6971 252.107C44.5291 252.107 45.1731 252.327 45.6291 252.767C46.0851 253.199 46.3131 253.791 46.3131 254.543V258.203H45.2091L45.1011 257.183C44.9331 257.511 44.6891 257.787 44.3691 258.011C44.0491 258.235 43.6291 258.347 43.1091 258.347ZM43.3611 257.315C43.7051 257.315 43.9931 257.235 44.2251 257.075C44.4651 256.907 44.6491 256.687 44.7771 256.415C44.9131 256.143 44.9971 255.843 45.0291 255.515H43.6131C43.1091 255.515 42.7491 255.603 42.5331 255.779C42.3251 255.955 42.2211 256.175 42.2211 256.439C42.2211 256.711 42.3211 256.927 42.5211 257.087C42.7291 257.239 43.0091 257.315 43.3611 257.315ZM47.7962 258.203V249.563H49.0682V258.203H47.7962ZM51.375 260.843L52.803 257.711H52.455L50.103 252.251H51.483L53.307 256.655L55.215 252.251H56.559L52.719 260.843H51.375ZM57.2088 258.203V257.171L60.3888 253.307H57.2568V252.251H61.8288V253.283L58.6248 257.147H61.8888V258.203H57.2088ZM65.9786 258.347C65.3946 258.347 64.8746 258.219 64.4186 257.963C63.9706 257.699 63.6186 257.335 63.3626 256.871C63.1066 256.407 62.9786 255.867 62.9786 255.251C62.9786 254.627 63.1026 254.079 63.3506 253.607C63.6066 253.135 63.9586 252.767 64.4066 252.503C64.8626 252.239 65.3906 252.107 65.9906 252.107C66.5746 252.107 67.0826 252.239 67.5146 252.503C67.9466 252.759 68.2826 253.103 68.5226 253.535C68.7626 253.967 68.8826 254.443 68.8826 254.963C68.8826 255.043 68.8786 255.131 68.8706 255.227C68.8706 255.315 68.8666 255.415 68.8586 255.527H64.2266C64.2666 256.103 64.4546 256.543 64.7906 256.847C65.1346 257.143 65.5306 257.291 65.9786 257.291C66.3386 257.291 66.6386 257.211 66.8786 257.051C67.1266 256.883 67.3106 256.659 67.4306 256.379H68.7026C68.5426 256.939 68.2226 257.407 67.7426 257.783C67.2706 258.159 66.6826 258.347 65.9786 258.347ZM65.9786 253.151C65.5546 253.151 65.1786 253.279 64.8506 253.535C64.5226 253.783 64.3226 254.159 64.2506 254.663H67.6106C67.5866 254.199 67.4226 253.831 67.1186 253.559C66.8146 253.287 66.4346 253.151 65.9786 253.151ZM75.2419 258.347C74.7379 258.347 74.3219 258.263 73.9939 258.095C73.6659 257.927 73.4219 257.707 73.2619 257.435C73.1019 257.155 73.0219 256.851 73.0219 256.523C73.0219 255.947 73.2459 255.491 73.6939 255.155C74.1419 254.819 74.7819 254.651 75.6139 254.651H77.1739V254.543C77.1739 254.079 77.0459 253.731 76.7899 253.499C76.5419 253.267 76.2179 253.151 75.8179 253.151C75.4659 253.151 75.1579 253.239 74.8939 253.415C74.6379 253.583 74.4819 253.835 74.4259 254.171H73.1539C73.1939 253.739 73.3379 253.371 73.5859 253.067C73.8419 252.755 74.1619 252.519 74.5459 252.359C74.9379 252.191 75.3659 252.107 75.8299 252.107C76.6619 252.107 77.3059 252.327 77.7619 252.767C78.2179 253.199 78.4459 253.791 78.4459 254.543V258.203H77.3419L77.2339 257.183C77.0659 257.511 76.8219 257.787 76.5019 258.011C76.1819 258.235 75.7619 258.347 75.2419 258.347ZM75.4939 257.315C75.8379 257.315 76.1259 257.235 76.3579 257.075C76.5979 256.907 76.7819 256.687 76.9099 256.415C77.0459 256.143 77.1299 255.843 77.1619 255.515H75.7459C75.2419 255.515 74.8819 255.603 74.6659 255.779C74.4579 255.955 74.3539 256.175 74.3539 256.439C74.3539 256.711 74.4539 256.927 74.6539 257.087C74.8619 257.239 75.1419 257.315 75.4939 257.315ZM79.929 258.203V252.251H81.057L81.153 253.295C81.337 252.927 81.605 252.639 81.957 252.431C82.317 252.215 82.729 252.107 83.193 252.107C83.913 252.107 84.477 252.331 84.885 252.779C85.301 253.227 85.509 253.895 85.509 254.783V258.203H84.249V254.915C84.249 253.763 83.777 253.187 82.833 253.187C82.361 253.187 81.969 253.355 81.657 253.691C81.353 254.027 81.201 254.507 81.201 255.131V258.203H79.929ZM89.7191 258.347C89.1431 258.347 88.6351 258.211 88.1951 257.939C87.7551 257.667 87.4111 257.295 87.1631 256.823C86.9151 256.351 86.7911 255.815 86.7911 255.215C86.7911 254.615 86.9151 254.083 87.1631 253.619C87.4111 253.147 87.7551 252.779 88.1951 252.515C88.6431 252.243 89.1551 252.107 89.7311 252.107C90.2031 252.107 90.6151 252.199 90.9671 252.383C91.3271 252.567 91.6071 252.827 91.8071 253.163V249.563H93.0791V258.203H91.9391L91.8071 257.279C91.6151 257.559 91.3511 257.807 91.0151 258.023C90.6791 258.239 90.2471 258.347 89.7191 258.347ZM89.9471 257.243C90.4911 257.243 90.9351 257.055 91.2791 256.679C91.6311 256.303 91.8071 255.819 91.8071 255.227C91.8071 254.627 91.6311 254.143 91.2791 253.775C90.9351 253.399 90.4911 253.211 89.9471 253.211C89.4031 253.211 88.9551 253.399 88.6031 253.775C88.2511 254.143 88.0751 254.627 88.0751 255.227C88.0751 255.619 88.1551 255.967 88.3151 256.271C88.4751 256.575 88.6951 256.815 88.9751 256.991C89.2631 257.159 89.5871 257.243 89.9471 257.243ZM100.526 258.347C99.9423 258.347 99.4183 258.215 98.9543 257.951C98.4983 257.687 98.1383 257.323 97.8743 256.859C97.6183 256.387 97.4903 255.843 97.4903 255.227C97.4903 254.611 97.6183 254.071 97.8743 253.607C98.1383 253.135 98.4983 252.767 98.9543 252.503C99.4183 252.239 99.9423 252.107 100.526 252.107C101.262 252.107 101.878 252.299 102.374 252.683C102.878 253.067 103.202 253.587 103.346 254.243H102.014C101.934 253.915 101.758 253.659 101.486 253.475C101.214 253.291 100.894 253.199 100.526 253.199C100.214 253.199 99.9263 253.279 99.6623 253.439C99.3983 253.591 99.1863 253.819 99.0263 254.123C98.8663 254.419 98.7863 254.787 98.7863 255.227C98.7863 255.667 98.8663 256.039 99.0263 256.343C99.1863 256.639 99.3983 256.867 99.6623 257.027C99.9263 257.187 100.214 257.267 100.526 257.267C100.894 257.267 101.214 257.175 101.486 256.991C101.758 256.807 101.934 256.547 102.014 256.211H103.346C103.21 256.851 102.89 257.367 102.386 257.759C101.882 258.151 101.262 258.347 100.526 258.347ZM107.51 258.347C106.942 258.347 106.43 258.219 105.974 257.963C105.526 257.699 105.17 257.335 104.906 256.871C104.642 256.399 104.51 255.851 104.51 255.227C104.51 254.603 104.642 254.059 104.906 253.595C105.178 253.123 105.542 252.759 105.998 252.503C106.454 252.239 106.962 252.107 107.522 252.107C108.09 252.107 108.598 252.239 109.046 252.503C109.502 252.759 109.862 253.123 110.126 253.595C110.398 254.059 110.534 254.603 110.534 255.227C110.534 255.851 110.398 256.399 110.126 256.871C109.862 257.335 109.502 257.699 109.046 257.963C108.59 258.219 108.078 258.347 107.51 258.347ZM107.51 257.255C107.814 257.255 108.094 257.179 108.35 257.027C108.614 256.875 108.826 256.651 108.986 256.355C109.146 256.051 109.226 255.675 109.226 255.227C109.226 254.779 109.146 254.407 108.986 254.111C108.834 253.807 108.626 253.579 108.362 253.427C108.106 253.275 107.826 253.199 107.522 253.199C107.218 253.199 106.934 253.275 106.67 253.427C106.414 253.579 106.206 253.807 106.046 254.111C105.886 254.407 105.806 254.779 105.806 255.227C105.806 255.675 105.886 256.051 106.046 256.355C106.206 256.651 106.414 256.875 106.67 257.027C106.926 257.179 107.206 257.255 107.51 257.255ZM111.909 258.203V252.251H113.049L113.157 253.379C113.365 252.987 113.653 252.679 114.021 252.455C114.397 252.223 114.849 252.107 115.377 252.107V253.439H115.029C114.677 253.439 114.361 253.499 114.081 253.619C113.809 253.731 113.589 253.927 113.421 254.207C113.261 254.479 113.181 254.859 113.181 255.347V258.203H111.909ZM116.468 258.203V252.251H117.608L117.716 253.379C117.924 252.987 118.212 252.679 118.58 252.455C118.956 252.223 119.408 252.107 119.936 252.107V253.439H119.588C119.236 253.439 118.92 253.499 118.64 253.619C118.368 253.731 118.148 253.927 117.98 254.207C117.82 254.479 117.74 254.859 117.74 255.347V258.203H116.468ZM123.647 258.347C123.063 258.347 122.543 258.219 122.087 257.963C121.639 257.699 121.287 257.335 121.031 256.871C120.775 256.407 120.647 255.867 120.647 255.251C120.647 254.627 120.771 254.079 121.019 253.607C121.275 253.135 121.627 252.767 122.075 252.503C122.531 252.239 123.059 252.107 123.659 252.107C124.243 252.107 124.751 252.239 125.183 252.503C125.615 252.759 125.951 253.103 126.191 253.535C126.431 253.967 126.551 254.443 126.551 254.963C126.551 255.043 126.547 255.131 126.539 255.227C126.539 255.315 126.535 255.415 126.527 255.527H121.895C121.935 256.103 122.123 256.543 122.459 256.847C122.803 257.143 123.199 257.291 123.647 257.291C124.007 257.291 124.307 257.211 124.547 257.051C124.795 256.883 124.979 256.659 125.099 256.379H126.371C126.211 256.939 125.891 257.407 125.411 257.783C124.939 258.159 124.351 258.347 123.647 258.347ZM123.647 253.151C123.223 253.151 122.847 253.279 122.519 253.535C122.191 253.783 121.991 254.159 121.919 254.663H125.279C125.255 254.199 125.091 253.831 124.787 253.559C124.483 253.287 124.103 253.151 123.647 253.151ZM127.87 258.203V249.563H129.142V258.203H127.87ZM132.769 258.347C132.265 258.347 131.849 258.263 131.521 258.095C131.193 257.927 130.949 257.707 130.789 257.435C130.629 257.155 130.549 256.851 130.549 256.523C130.549 255.947 130.773 255.491 131.221 255.155C131.669 254.819 132.309 254.651 133.141 254.651H134.701V254.543C134.701 254.079 134.573 253.731 134.317 253.499C134.069 253.267 133.745 253.151 133.345 253.151C132.993 253.151 132.685 253.239 132.421 253.415C132.165 253.583 132.009 253.835 131.953 254.171H130.681C130.721 253.739 130.865 253.371 131.113 253.067C131.369 252.755 131.689 252.519 132.073 252.359C132.465 252.191 132.893 252.107 133.357 252.107C134.189 252.107 134.833 252.327 135.289 252.767C135.745 253.199 135.973 253.791 135.973 254.543V258.203H134.869L134.761 257.183C134.593 257.511 134.349 257.787 134.029 258.011C133.709 258.235 133.289 258.347 132.769 258.347ZM133.021 257.315C133.365 257.315 133.653 257.235 133.885 257.075C134.125 256.907 134.309 256.687 134.437 256.415C134.573 256.143 134.657 255.843 134.689 255.515H133.273C132.769 255.515 132.409 255.603 132.193 255.779C131.985 255.955 131.881 256.175 131.881 256.439C131.881 256.711 131.981 256.927 132.181 257.087C132.389 257.239 132.669 257.315 133.021 257.315ZM139.835 258.203C139.251 258.203 138.787 258.063 138.443 257.783C138.099 257.495 137.927 256.987 137.927 256.259V253.319H136.907V252.251H137.927L138.083 250.739H139.199V252.251H140.879V253.319H139.199V256.259C139.199 256.587 139.267 256.815 139.403 256.943C139.547 257.063 139.791 257.123 140.135 257.123H140.819V258.203H139.835ZM144.822 258.347C144.238 258.347 143.718 258.219 143.262 257.963C142.814 257.699 142.462 257.335 142.206 256.871C141.95 256.407 141.822 255.867 141.822 255.251C141.822 254.627 141.946 254.079 142.194 253.607C142.45 253.135 142.802 252.767 143.25 252.503C143.706 252.239 144.234 252.107 144.834 252.107C145.418 252.107 145.926 252.239 146.358 252.503C146.79 252.759 147.126 253.103 147.366 253.535C147.606 253.967 147.726 254.443 147.726 254.963C147.726 255.043 147.722 255.131 147.714 255.227C147.714 255.315 147.71 255.415 147.702 255.527H143.07C143.11 256.103 143.298 256.543 143.634 256.847C143.978 257.143 144.374 257.291 144.822 257.291C145.182 257.291 145.482 257.211 145.722 257.051C145.97 256.883 146.154 256.659 146.274 256.379H147.546C147.386 256.939 147.066 257.407 146.586 257.783C146.114 258.159 145.526 258.347 144.822 258.347ZM144.822 253.151C144.398 253.151 144.022 253.279 143.694 253.535C143.366 253.783 143.166 254.159 143.094 254.663H146.454C146.43 254.199 146.266 253.831 145.962 253.559C145.658 253.287 145.278 253.151 144.822 253.151ZM154.782 258.347C154.206 258.347 153.698 258.211 153.258 257.939C152.818 257.667 152.474 257.295 152.226 256.823C151.978 256.351 151.854 255.815 151.854 255.215C151.854 254.615 151.978 254.083 152.226 253.619C152.474 253.147 152.818 252.779 153.258 252.515C153.706 252.243 154.218 252.107 154.794 252.107C155.266 252.107 155.678 252.199 156.03 252.383C156.39 252.567 156.67 252.827 156.87 253.163V249.563H158.142V258.203H157.002L156.87 257.279C156.678 257.559 156.414 257.807 156.078 258.023C155.742 258.239 155.31 258.347 154.782 258.347ZM155.01 257.243C155.554 257.243 155.998 257.055 156.342 256.679C156.694 256.303 156.87 255.819 156.87 255.227C156.87 254.627 156.694 254.143 156.342 253.775C155.998 253.399 155.554 253.211 155.01 253.211C154.466 253.211 154.018 253.399 153.666 253.775C153.314 254.143 153.138 254.627 153.138 255.227C153.138 255.619 153.218 255.967 153.378 256.271C153.538 256.575 153.758 256.815 154.038 256.991C154.326 257.159 154.65 257.243 155.01 257.243ZM159.745 258.203V252.251H160.885L160.993 253.379C161.201 252.987 161.489 252.679 161.857 252.455C162.233 252.223 162.685 252.107 163.213 252.107V253.439H162.865C162.513 253.439 162.197 253.499 161.917 253.619C161.645 253.731 161.425 253.927 161.257 254.207C161.097 254.479 161.017 254.859 161.017 255.347V258.203H159.745ZM166.924 258.347C166.356 258.347 165.844 258.219 165.388 257.963C164.94 257.699 164.584 257.335 164.32 256.871C164.056 256.399 163.924 255.851 163.924 255.227C163.924 254.603 164.056 254.059 164.32 253.595C164.592 253.123 164.956 252.759 165.412 252.503C165.868 252.239 166.376 252.107 166.936 252.107C167.504 252.107 168.012 252.239 168.46 252.503C168.916 252.759 169.276 253.123 169.54 253.595C169.812 254.059 169.948 254.603 169.948 255.227C169.948 255.851 169.812 256.399 169.54 256.871C169.276 257.335 168.916 257.699 168.46 257.963C168.004 258.219 167.492 258.347 166.924 258.347ZM166.924 257.255C167.228 257.255 167.508 257.179 167.764 257.027C168.028 256.875 168.24 256.651 168.4 256.355C168.56 256.051 168.64 255.675 168.64 255.227C168.64 254.779 168.56 254.407 168.4 254.111C168.248 253.807 168.04 253.579 167.776 253.427C167.52 253.275 167.24 253.199 166.936 253.199C166.632 253.199 166.348 253.275 166.084 253.427C165.828 253.579 165.62 253.807 165.46 254.111C165.3 254.407 165.22 254.779 165.22 255.227C165.22 255.675 165.3 256.051 165.46 256.355C165.62 256.651 165.828 256.875 166.084 257.027C166.34 257.179 166.62 257.255 166.924 257.255ZM171.324 260.843V252.251H172.464L172.596 253.175C172.788 252.895 173.052 252.647 173.388 252.431C173.724 252.215 174.156 252.107 174.684 252.107C175.26 252.107 175.768 252.243 176.208 252.515C176.648 252.787 176.992 253.159 177.24 253.631C177.496 254.103 177.624 254.639 177.624 255.239C177.624 255.839 177.496 256.375 177.24 256.847C176.992 257.311 176.648 257.679 176.208 257.951C175.768 258.215 175.256 258.347 174.672 258.347C174.208 258.347 173.796 258.255 173.436 258.071C173.084 257.887 172.804 257.627 172.596 257.291V260.843H171.324ZM174.456 257.243C175 257.243 175.448 257.059 175.8 256.691C176.152 256.315 176.328 255.827 176.328 255.227C176.328 254.835 176.248 254.487 176.088 254.183C175.928 253.879 175.708 253.643 175.428 253.475C175.148 253.299 174.824 253.211 174.456 253.211C173.912 253.211 173.464 253.399 173.112 253.775C172.768 254.151 172.596 254.635 172.596 255.227C172.596 255.827 172.768 256.315 173.112 256.691C173.464 257.059 173.912 257.243 174.456 257.243ZM181.783 258.347C181.215 258.347 180.703 258.219 180.247 257.963C179.799 257.699 179.443 257.335 179.179 256.871C178.915 256.399 178.783 255.851 178.783 255.227C178.783 254.603 178.915 254.059 179.179 253.595C179.451 253.123 179.815 252.759 180.271 252.503C180.727 252.239 181.235 252.107 181.795 252.107C182.363 252.107 182.871 252.239 183.319 252.503C183.775 252.759 184.135 253.123 184.399 253.595C184.671 254.059 184.807 254.603 184.807 255.227C184.807 255.851 184.671 256.399 184.399 256.871C184.135 257.335 183.775 257.699 183.319 257.963C182.863 258.219 182.351 258.347 181.783 258.347ZM181.783 257.255C182.087 257.255 182.367 257.179 182.623 257.027C182.887 256.875 183.099 256.651 183.259 256.355C183.419 256.051 183.499 255.675 183.499 255.227C183.499 254.779 183.419 254.407 183.259 254.111C183.107 253.807 182.899 253.579 182.635 253.427C182.379 253.275 182.099 253.199 181.795 253.199C181.491 253.199 181.207 253.275 180.943 253.427C180.687 253.579 180.479 253.807 180.319 254.111C180.159 254.407 180.079 254.779 180.079 255.227C180.079 255.675 180.159 256.051 180.319 256.355C180.479 256.651 180.687 256.875 180.943 257.027C181.199 257.179 181.479 257.255 181.783 257.255ZM188.379 258.347C187.659 258.347 187.091 258.123 186.675 257.675C186.267 257.227 186.063 256.559 186.063 255.671V252.251H187.335V255.539C187.335 256.691 187.807 257.267 188.751 257.267C189.223 257.267 189.611 257.099 189.915 256.763C190.219 256.427 190.371 255.947 190.371 255.323V252.251H191.643V258.203H190.515L190.419 257.159C190.235 257.527 189.963 257.819 189.603 258.035C189.251 258.243 188.843 258.347 188.379 258.347ZM195.757 258.203C195.173 258.203 194.709 258.063 194.365 257.783C194.021 257.495 193.849 256.987 193.849 256.259V253.319H192.829V252.251H193.849L194.005 250.739H195.121V252.251H196.801V253.319H195.121V256.259C195.121 256.587 195.189 256.815 195.325 256.943C195.469 257.063 195.713 257.123 196.057 257.123H196.741V258.203H195.757ZM201.136 258.203V252.251H202.276L202.384 253.379C202.592 252.987 202.88 252.679 203.248 252.455C203.624 252.223 204.076 252.107 204.604 252.107V253.439H204.256C203.904 253.439 203.588 253.499 203.308 253.619C203.036 253.731 202.816 253.927 202.648 254.207C202.488 254.479 202.408 254.859 202.408 255.347V258.203H201.136ZM207.711 258.347C207.207 258.347 206.791 258.263 206.463 258.095C206.135 257.927 205.891 257.707 205.731 257.435C205.571 257.155 205.491 256.851 205.491 256.523C205.491 255.947 205.715 255.491 206.163 255.155C206.611 254.819 207.251 254.651 208.083 254.651H209.643V254.543C209.643 254.079 209.515 253.731 209.259 253.499C209.011 253.267 208.687 253.151 208.287 253.151C207.935 253.151 207.627 253.239 207.363 253.415C207.107 253.583 206.951 253.835 206.895 254.171H205.623C205.663 253.739 205.807 253.371 206.055 253.067C206.311 252.755 206.631 252.519 207.015 252.359C207.407 252.191 207.835 252.107 208.299 252.107C209.131 252.107 209.775 252.327 210.231 252.767C210.687 253.199 210.915 253.791 210.915 254.543V258.203H209.811L209.703 257.183C209.535 257.511 209.291 257.787 208.971 258.011C208.651 258.235 208.231 258.347 207.711 258.347ZM207.963 257.315C208.307 257.315 208.595 257.235 208.827 257.075C209.067 256.907 209.251 256.687 209.379 256.415C209.515 256.143 209.599 255.843 209.631 255.515H208.215C207.711 255.515 207.351 255.603 207.135 255.779C206.927 255.955 206.823 256.175 206.823 256.439C206.823 256.711 206.923 256.927 207.123 257.087C207.331 257.239 207.611 257.315 207.963 257.315ZM214.777 258.203C214.193 258.203 213.729 258.063 213.385 257.783C213.041 257.495 212.869 256.987 212.869 256.259V253.319H211.849V252.251H212.869L213.025 250.739H214.141V252.251H215.821V253.319H214.141V256.259C214.141 256.587 214.209 256.815 214.345 256.943C214.489 257.063 214.733 257.123 215.077 257.123H215.761V258.203H214.777ZM219.764 258.347C219.18 258.347 218.66 258.219 218.204 257.963C217.756 257.699 217.404 257.335 217.148 256.871C216.892 256.407 216.764 255.867 216.764 255.251C216.764 254.627 216.888 254.079 217.136 253.607C217.392 253.135 217.744 252.767 218.192 252.503C218.648 252.239 219.176 252.107 219.776 252.107C220.36 252.107 220.868 252.239 221.3 252.503C221.732 252.759 222.068 253.103 222.308 253.535C222.548 253.967 222.668 254.443 222.668 254.963C222.668 255.043 222.664 255.131 222.656 255.227C222.656 255.315 222.652 255.415 222.644 255.527H218.012C218.052 256.103 218.24 256.543 218.576 256.847C218.92 257.143 219.316 257.291 219.764 257.291C220.124 257.291 220.424 257.211 220.664 257.051C220.912 256.883 221.096 256.659 221.216 256.379H222.488C222.328 256.939 222.008 257.407 221.528 257.783C221.056 258.159 220.468 258.347 219.764 258.347ZM219.764 253.151C219.34 253.151 218.964 253.279 218.636 253.535C218.308 253.783 218.108 254.159 218.036 254.663H221.396C221.372 254.199 221.208 253.831 220.904 253.559C220.6 253.287 220.22 253.151 219.764 253.151ZM226.364 258.347C225.612 258.347 224.992 258.163 224.504 257.795C224.016 257.427 223.736 256.939 223.664 256.331H224.948C225.012 256.603 225.164 256.839 225.404 257.039C225.644 257.231 225.96 257.327 226.352 257.327C226.736 257.327 227.016 257.247 227.192 257.087C227.368 256.927 227.456 256.743 227.456 256.535C227.456 256.231 227.332 256.027 227.084 255.923C226.844 255.811 226.508 255.711 226.076 255.623C225.74 255.551 225.404 255.455 225.068 255.335C224.74 255.215 224.464 255.047 224.24 254.831C224.024 254.607 223.916 254.307 223.916 253.931C223.916 253.411 224.116 252.979 224.516 252.635C224.916 252.283 225.476 252.107 226.196 252.107C226.86 252.107 227.396 252.267 227.804 252.587C228.22 252.907 228.464 253.359 228.536 253.943H227.312C227.272 253.687 227.152 253.487 226.952 253.343C226.76 253.199 226.5 253.127 226.172 253.127C225.852 253.127 225.604 253.195 225.428 253.331C225.252 253.459 225.164 253.627 225.164 253.835C225.164 254.043 225.284 254.207 225.524 254.327C225.772 254.447 226.096 254.555 226.496 254.651C226.896 254.739 227.264 254.843 227.6 254.963C227.944 255.075 228.22 255.243 228.428 255.467C228.636 255.691 228.74 256.019 228.74 256.451C228.748 256.995 228.536 257.447 228.104 257.807C227.68 258.167 227.1 258.347 226.364 258.347ZM234.34 258.203L232.588 252.251H233.86L235.012 256.739L236.308 252.251H237.724L239.02 256.739L240.172 252.251H241.444L239.692 258.203H238.384L237.016 253.523L235.648 258.203H234.34ZM243.212 251.123C242.972 251.123 242.772 251.051 242.612 250.907C242.46 250.755 242.384 250.567 242.384 250.343C242.384 250.119 242.46 249.935 242.612 249.791C242.772 249.639 242.972 249.563 243.212 249.563C243.452 249.563 243.648 249.639 243.8 249.791C243.96 249.935 244.04 250.119 244.04 250.343C244.04 250.567 243.96 250.755 243.8 250.907C243.648 251.051 243.452 251.123 243.212 251.123ZM242.576 258.203V252.251H243.848V258.203H242.576ZM248.023 258.203C247.439 258.203 246.975 258.063 246.631 257.783C246.287 257.495 246.115 256.987 246.115 256.259V253.319H245.095V252.251H246.115L246.271 250.739H247.387V252.251H249.067V253.319H247.387V256.259C247.387 256.587 247.455 256.815 247.591 256.943C247.735 257.063 247.979 257.123 248.323 257.123H249.007V258.203H248.023ZM250.882 258.275C250.642 258.275 250.442 258.199 250.282 258.047C250.13 257.887 250.054 257.699 250.054 257.483C250.054 257.259 250.13 257.071 250.282 256.919C250.442 256.759 250.642 256.679 250.882 256.679C251.122 256.679 251.318 256.759 251.47 256.919C251.622 257.071 251.698 257.259 251.698 257.483C251.698 257.699 251.622 257.887 251.47 258.047C251.318 258.199 251.122 258.275 250.882 258.275ZM253.484 258.275C253.244 258.275 253.044 258.199 252.884 258.047C252.732 257.887 252.656 257.699 252.656 257.483C252.656 257.259 252.732 257.071 252.884 256.919C253.044 256.759 253.244 256.679 253.484 256.679C253.724 256.679 253.92 256.759 254.072 256.919C254.224 257.071 254.3 257.259 254.3 257.483C254.3 257.699 254.224 257.887 254.072 258.047C253.92 258.199 253.724 258.275 253.484 258.275ZM256.085 258.275C255.845 258.275 255.645 258.199 255.485 258.047C255.333 257.887 255.257 257.699 255.257 257.483C255.257 257.259 255.333 257.071 255.485 256.919C255.645 256.759 255.845 256.679 256.085 256.679C256.325 256.679 256.521 256.759 256.673 256.919C256.825 257.071 256.901 257.259 256.901 257.483C256.901 257.699 256.825 257.887 256.673 258.047C256.521 258.199 256.325 258.275 256.085 258.275Z" fill="#768396"/>
<rect x="24.5" y="283.5" width="163" height="27" rx="3.5" stroke="#E2E2E2"/>
<path d="M33.684 300V299.088C34.228 298.656 34.748 298.22 35.244 297.78C35.74 297.34 36.18 296.908 36.564 296.484C36.956 296.052 37.264 295.632 37.488 295.224C37.712 294.808 37.824 294.408 37.824 294.024C37.824 293.768 37.78 293.528 37.692 293.304C37.604 293.072 37.46 292.888 37.26 292.752C37.06 292.608 36.792 292.536 36.456 292.536C35.952 292.536 35.572 292.696 35.316 293.016C35.068 293.336 34.948 293.72 34.956 294.168H33.72C33.728 293.576 33.852 293.08 34.092 292.68C34.34 292.28 34.668 291.976 35.076 291.768C35.492 291.56 35.96 291.456 36.48 291.456C37.272 291.456 37.904 291.68 38.376 292.128C38.856 292.568 39.096 293.184 39.096 293.976C39.096 294.448 38.98 294.916 38.748 295.38C38.524 295.844 38.228 296.292 37.86 296.724C37.5 297.148 37.112 297.548 36.696 297.924C36.28 298.3 35.884 298.64 35.508 298.944H39.348V300H33.684ZM40.5512 300V299.088C41.0952 298.656 41.6152 298.22 42.1112 297.78C42.6072 297.34 43.0472 296.908 43.4312 296.484C43.8232 296.052 44.1312 295.632 44.3552 295.224C44.5792 294.808 44.6912 294.408 44.6912 294.024C44.6912 293.768 44.6472 293.528 44.5592 293.304C44.4712 293.072 44.3272 292.888 44.1272 292.752C43.9272 292.608 43.6592 292.536 43.3232 292.536C42.8192 292.536 42.4392 292.696 42.1832 293.016C41.9352 293.336 41.8152 293.72 41.8232 294.168H40.5872C40.5952 293.576 40.7192 293.08 40.9592 292.68C41.2072 292.28 41.5352 291.976 41.9432 291.768C42.3592 291.56 42.8272 291.456 43.3472 291.456C44.1392 291.456 44.7712 291.68 45.2432 292.128C45.7232 292.568 45.9632 293.184 45.9632 293.976C45.9632 294.448 45.8472 294.916 45.6152 295.38C45.3912 295.844 45.0952 296.292 44.7272 296.724C44.3672 297.148 43.9792 297.548 43.5632 297.924C43.1472 298.3 42.7512 298.64 42.3752 298.944H46.2152V300H40.5512ZM53.3818 300.144C52.7658 300.144 52.2258 300.036 51.7618 299.82C51.2978 299.604 50.9338 299.296 50.6698 298.896C50.4138 298.496 50.2818 298.02 50.2738 297.468H51.6178C51.6258 297.916 51.7818 298.296 52.0858 298.608C52.3898 298.92 52.8178 299.076 53.3698 299.076C53.8578 299.076 54.2378 298.96 54.5098 298.728C54.7898 298.488 54.9298 298.184 54.9298 297.816C54.9298 297.52 54.8618 297.28 54.7258 297.096C54.5978 296.912 54.4178 296.76 54.1858 296.64C53.9618 296.52 53.7018 296.412 53.4058 296.316C53.1098 296.22 52.7978 296.116 52.4698 296.004C51.8218 295.788 51.3338 295.508 51.0058 295.164C50.6858 294.82 50.5258 294.368 50.5258 293.808C50.5178 293.336 50.6258 292.924 50.8498 292.572C51.0818 292.22 51.4018 291.948 51.8098 291.756C52.2258 291.556 52.7098 291.456 53.2618 291.456C53.8058 291.456 54.2818 291.556 54.6898 291.756C55.1058 291.956 55.4298 292.236 55.6618 292.596C55.8938 292.948 56.0138 293.36 56.0218 293.832H54.6778C54.6778 293.616 54.6218 293.412 54.5098 293.22C54.3978 293.02 54.2338 292.856 54.0178 292.728C53.8018 292.6 53.5378 292.536 53.2258 292.536C52.8258 292.528 52.4938 292.628 52.2298 292.836C51.9738 293.044 51.8458 293.332 51.8458 293.7C51.8458 294.028 51.9418 294.28 52.1338 294.456C52.3258 294.632 52.5898 294.78 52.9258 294.9C53.2618 295.012 53.6458 295.144 54.0778 295.296C54.4938 295.432 54.8658 295.596 55.1938 295.788C55.5218 295.98 55.7818 296.232 55.9738 296.544C56.1738 296.856 56.2738 297.252 56.2738 297.732C56.2738 298.156 56.1658 298.552 55.9498 298.92C55.7338 299.28 55.4098 299.576 54.9778 299.808C54.5458 300.032 54.0138 300.144 53.3818 300.144ZM60.4005 300.144C59.8165 300.144 59.2965 300.016 58.8405 299.76C58.3925 299.496 58.0405 299.132 57.7845 298.668C57.5285 298.204 57.4005 297.664 57.4005 297.048C57.4005 296.424 57.5245 295.876 57.7725 295.404C58.0285 294.932 58.3805 294.564 58.8285 294.3C59.2845 294.036 59.8125 293.904 60.4125 293.904C60.9965 293.904 61.5045 294.036 61.9365 294.3C62.3685 294.556 62.7045 294.9 62.9445 295.332C63.1845 295.764 63.3045 296.24 63.3045 296.76C63.3045 296.84 63.3005 296.928 63.2925 297.024C63.2925 297.112 63.2885 297.212 63.2805 297.324H58.6485C58.6885 297.9 58.8765 298.34 59.2125 298.644C59.5565 298.94 59.9525 299.088 60.4005 299.088C60.7605 299.088 61.0605 299.008 61.3005 298.848C61.5485 298.68 61.7325 298.456 61.8525 298.176H63.1245C62.9645 298.736 62.6445 299.204 62.1645 299.58C61.6925 299.956 61.1045 300.144 60.4005 300.144ZM60.4005 294.948C59.9765 294.948 59.6005 295.076 59.2725 295.332C58.9445 295.58 58.7445 295.956 58.6725 296.46H62.0325C62.0085 295.996 61.8445 295.628 61.5405 295.356C61.2365 295.084 60.8565 294.948 60.4005 294.948ZM64.6243 302.64V294.048H65.7643L65.8963 294.972C66.0883 294.692 66.3523 294.444 66.6883 294.228C67.0243 294.012 67.4563 293.904 67.9843 293.904C68.5603 293.904 69.0683 294.04 69.5083 294.312C69.9483 294.584 70.2923 294.956 70.5403 295.428C70.7963 295.9 70.9243 296.436 70.9243 297.036C70.9243 297.636 70.7963 298.172 70.5403 298.644C70.2923 299.108 69.9483 299.476 69.5083 299.748C69.0683 300.012 68.5563 300.144 67.9723 300.144C67.5083 300.144 67.0963 300.052 66.7363 299.868C66.3843 299.684 66.1043 299.424 65.8963 299.088V302.64H64.6243ZM67.7563 299.04C68.3003 299.04 68.7483 298.856 69.1003 298.488C69.4523 298.112 69.6283 297.624 69.6283 297.024C69.6283 296.632 69.5483 296.284 69.3883 295.98C69.2283 295.676 69.0083 295.44 68.7283 295.272C68.4483 295.096 68.1243 295.008 67.7563 295.008C67.2123 295.008 66.7643 295.196 66.4123 295.572C66.0683 295.948 65.8963 296.432 65.8963 297.024C65.8963 297.624 66.0683 298.112 66.4123 298.488C66.7643 298.856 67.2123 299.04 67.7563 299.04ZM74.5617 300C73.9777 300 73.5137 299.86 73.1697 299.58C72.8257 299.292 72.6537 298.784 72.6537 298.056V295.116H71.6337V294.048H72.6537L72.8097 292.536H73.9257V294.048H75.6057V295.116H73.9257V298.056C73.9257 298.384 73.9937 298.612 74.1297 298.74C74.2737 298.86 74.5177 298.92 74.8617 298.92H75.5457V300H74.5617ZM79.8207 300V299.088C80.3647 298.656 80.8847 298.22 81.3807 297.78C81.8767 297.34 82.3167 296.908 82.7007 296.484C83.0927 296.052 83.4007 295.632 83.6247 295.224C83.8487 294.808 83.9607 294.408 83.9607 294.024C83.9607 293.768 83.9167 293.528 83.8287 293.304C83.7407 293.072 83.5967 292.888 83.3967 292.752C83.1967 292.608 82.9287 292.536 82.5927 292.536C82.0887 292.536 81.7087 292.696 81.4527 293.016C81.2047 293.336 81.0847 293.72 81.0927 294.168H79.8567C79.8647 293.576 79.9887 293.08 80.2287 292.68C80.4767 292.28 80.8047 291.976 81.2127 291.768C81.6287 291.56 82.0967 291.456 82.6167 291.456C83.4087 291.456 84.0407 291.68 84.5127 292.128C84.9927 292.568 85.2327 293.184 85.2327 293.976C85.2327 294.448 85.1167 294.916 84.8847 295.38C84.6607 295.844 84.3647 296.292 83.9967 296.724C83.6367 297.148 83.2487 297.548 82.8327 297.924C82.4167 298.3 82.0207 298.64 81.6447 298.944H85.4847V300H79.8207ZM90.1222 300.144C89.3622 300.144 88.7062 299.964 88.1542 299.604C87.6102 299.236 87.1902 298.728 86.8942 298.08C86.6062 297.424 86.4622 296.664 86.4622 295.8C86.4622 294.936 86.6062 294.18 86.8942 293.532C87.1902 292.876 87.6102 292.368 88.1542 292.008C88.7062 291.64 89.3622 291.456 90.1222 291.456C90.8822 291.456 91.5342 291.64 92.0782 292.008C92.6222 292.368 93.0382 292.876 93.3262 293.532C93.6222 294.18 93.7702 294.936 93.7702 295.8C93.7702 296.664 93.6222 297.424 93.3262 298.08C93.0382 298.728 92.6222 299.236 92.0782 299.604C91.5342 299.964 90.8822 300.144 90.1222 300.144ZM90.1222 299.004C90.5782 299.004 90.9822 298.876 91.3342 298.62C91.6942 298.364 91.9742 297.996 92.1742 297.516C92.3742 297.036 92.4742 296.464 92.4742 295.8C92.4742 295.136 92.3742 294.564 92.1742 294.084C91.9742 293.604 91.6942 293.236 91.3342 292.98C90.9822 292.724 90.5782 292.596 90.1222 292.596C89.6582 292.596 89.2502 292.724 88.8982 292.98C88.5462 293.236 88.2702 293.604 88.0702 294.084C87.8702 294.564 87.7702 295.136 87.7702 295.8C87.7702 296.464 87.8702 297.036 88.0702 297.516C88.2702 297.996 88.5462 298.364 88.8982 298.62C89.2502 298.876 89.6582 299.004 90.1222 299.004ZM94.9262 300V299.088C95.4702 298.656 95.9902 298.22 96.4862 297.78C96.9822 297.34 97.4222 296.908 97.8062 296.484C98.1982 296.052 98.5062 295.632 98.7302 295.224C98.9542 294.808 99.0662 294.408 99.0662 294.024C99.0662 293.768 99.0222 293.528 98.9342 293.304C98.8462 293.072 98.7022 292.888 98.5022 292.752C98.3022 292.608 98.0342 292.536 97.6982 292.536C97.1942 292.536 96.8142 292.696 96.5582 293.016C96.3102 293.336 96.1902 293.72 96.1982 294.168H94.9622C94.9702 293.576 95.0942 293.08 95.3342 292.68C95.5822 292.28 95.9102 291.976 96.3182 291.768C96.7342 291.56 97.2022 291.456 97.7222 291.456C98.5142 291.456 99.1462 291.68 99.6182 292.128C100.098 292.568 100.338 293.184 100.338 293.976C100.338 294.448 100.222 294.916 99.9902 295.38C99.7662 295.844 99.4702 296.292 99.1022 296.724C98.7422 297.148 98.3542 297.548 97.9382 297.924C97.5222 298.3 97.1262 298.64 96.7502 298.944H100.59V300H94.9262ZM101.793 300V299.088C102.337 298.656 102.857 298.22 103.353 297.78C103.849 297.34 104.289 296.908 104.673 296.484C105.065 296.052 105.373 295.632 105.597 295.224C105.821 294.808 105.933 294.408 105.933 294.024C105.933 293.768 105.889 293.528 105.801 293.304C105.713 293.072 105.569 292.888 105.369 292.752C105.169 292.608 104.901 292.536 104.565 292.536C104.061 292.536 103.681 292.696 103.425 293.016C103.177 293.336 103.057 293.72 103.065 294.168H101.829C101.837 293.576 101.961 293.08 102.201 292.68C102.449 292.28 102.777 291.976 103.185 291.768C103.601 291.56 104.069 291.456 104.589 291.456C105.381 291.456 106.013 291.68 106.485 292.128C106.965 292.568 107.205 293.184 107.205 293.976C107.205 294.448 107.089 294.916 106.857 295.38C106.633 295.844 106.337 296.292 105.969 296.724C105.609 297.148 105.221 297.548 104.805 297.924C104.389 298.3 103.993 298.64 103.617 298.944H107.457V300H101.793ZM111.852 301.2V291.36H113.124V301.2H111.852ZM118.2 300L119.424 293.04L117.996 293.412L118.164 292.416L120.18 291.6H120.996L119.508 300H118.2ZM124.359 300.144C123.703 300.144 123.175 300.008 122.775 299.736C122.383 299.464 122.095 299.108 121.911 298.668C121.735 298.22 121.647 297.736 121.647 297.216C121.647 296.432 121.747 295.696 121.947 295.008C122.147 294.312 122.431 293.7 122.799 293.172C123.167 292.636 123.603 292.216 124.107 291.912C124.611 291.608 125.167 291.456 125.775 291.456C126.311 291.456 126.751 291.564 127.095 291.78C127.439 291.996 127.687 292.284 127.839 292.644C127.999 293.004 128.067 293.396 128.043 293.82H126.855C126.855 293.412 126.747 293.096 126.531 292.872C126.315 292.64 126.011 292.524 125.619 292.524C125.043 292.524 124.519 292.792 124.047 293.328C123.583 293.856 123.235 294.676 123.003 295.788C123.267 295.436 123.595 295.152 123.987 294.936C124.387 294.712 124.839 294.6 125.343 294.6C125.799 294.6 126.203 294.704 126.555 294.912C126.915 295.112 127.195 295.388 127.395 295.74C127.595 296.092 127.695 296.492 127.695 296.94C127.695 297.532 127.543 298.072 127.239 298.56C126.943 299.04 126.543 299.424 126.039 299.712C125.535 300 124.975 300.144 124.359 300.144ZM124.455 299.04C124.839 299.04 125.179 298.96 125.475 298.8C125.771 298.632 126.003 298.404 126.171 298.116C126.339 297.828 126.423 297.5 126.423 297.132C126.423 296.724 126.291 296.384 126.027 296.112C125.771 295.832 125.419 295.692 124.971 295.692C124.587 295.692 124.247 295.78 123.951 295.956C123.655 296.124 123.419 296.352 123.243 296.64C123.067 296.928 122.979 297.244 122.979 297.588C122.979 297.996 123.111 298.34 123.375 298.62C123.647 298.9 124.007 299.04 124.455 299.04ZM128.963 300.072C128.723 300.072 128.523 299.996 128.363 299.844C128.211 299.684 128.135 299.496 128.135 299.28C128.135 299.056 128.211 298.868 128.363 298.716C128.523 298.556 128.723 298.476 128.963 298.476C129.203 298.476 129.399 298.556 129.551 298.716C129.703 298.868 129.779 299.056 129.779 299.28C129.779 299.496 129.703 299.684 129.551 299.844C129.399 299.996 129.203 300.072 128.963 300.072ZM133.821 300.144C133.181 300.144 132.633 300.008 132.177 299.736C131.729 299.464 131.385 299.084 131.145 298.596C130.913 298.108 130.797 297.536 130.797 296.88C130.797 296.12 130.909 295.412 131.133 294.756C131.365 294.092 131.685 293.516 132.093 293.028C132.501 292.532 132.977 292.148 133.521 291.876C134.065 291.596 134.657 291.456 135.297 291.456C135.937 291.456 136.481 291.592 136.929 291.864C137.385 292.136 137.729 292.516 137.961 293.004C138.201 293.492 138.321 294.064 138.321 294.72C138.321 295.488 138.205 296.2 137.973 296.856C137.749 297.512 137.433 298.088 137.025 298.584C136.617 299.072 136.141 299.456 135.597 299.736C135.053 300.008 134.461 300.144 133.821 300.144ZM133.989 299.004C134.405 299.004 134.793 298.9 135.153 298.692C135.513 298.476 135.833 298.18 136.113 297.804C136.393 297.42 136.609 296.98 136.761 296.484C136.921 295.98 137.001 295.444 137.001 294.876C137.001 294.164 136.829 293.608 136.485 293.208C136.149 292.8 135.697 292.596 135.129 292.596C134.713 292.596 134.321 292.704 133.953 292.92C133.593 293.136 133.273 293.432 132.993 293.808C132.721 294.184 132.505 294.624 132.345 295.128C132.193 295.624 132.117 296.156 132.117 296.724C132.117 297.444 132.285 298.004 132.621 298.404C132.965 298.804 133.421 299.004 133.989 299.004ZM142.282 300.144C141.642 300.144 141.094 300.008 140.638 299.736C140.19 299.464 139.846 299.084 139.606 298.596C139.374 298.108 139.258 297.536 139.258 296.88C139.258 296.12 139.37 295.412 139.594 294.756C139.826 294.092 140.146 293.516 140.554 293.028C140.962 292.532 141.438 292.148 141.982 291.876C142.526 291.596 143.118 291.456 143.758 291.456C144.398 291.456 144.942 291.592 145.39 291.864C145.846 292.136 146.19 292.516 146.422 293.004C146.662 293.492 146.782 294.064 146.782 294.72C146.782 295.488 146.666 296.2 146.434 296.856C146.21 297.512 145.894 298.088 145.486 298.584C145.078 299.072 144.602 299.456 144.058 299.736C143.514 300.008 142.922 300.144 142.282 300.144ZM142.45 299.004C142.866 299.004 143.254 298.9 143.614 298.692C143.974 298.476 144.294 298.18 144.574 297.804C144.854 297.42 145.07 296.98 145.222 296.484C145.382 295.98 145.462 295.444 145.462 294.876C145.462 294.164 145.29 293.608 144.946 293.208C144.61 292.8 144.158 292.596 143.59 292.596C143.174 292.596 142.782 292.704 142.414 292.92C142.054 293.136 141.734 293.432 141.454 293.808C141.182 294.184 140.966 294.624 140.806 295.128C140.654 295.624 140.578 296.156 140.578 296.724C140.578 297.444 140.746 298.004 141.082 298.404C141.426 298.804 141.882 299.004 142.45 299.004ZM150.641 300L152.117 291.6H155.057C155.633 291.6 156.109 291.7 156.485 291.9C156.861 292.1 157.137 292.364 157.313 292.692C157.497 293.02 157.589 293.376 157.589 293.76C157.589 294.36 157.445 294.876 157.157 295.308C156.869 295.732 156.465 296.056 155.945 296.28C155.433 296.504 154.841 296.616 154.169 296.616H152.513L151.913 300H150.641ZM152.693 295.572H154.301C154.925 295.572 155.409 295.428 155.753 295.14C156.097 294.852 156.269 294.424 156.269 293.856C156.269 293.504 156.153 293.216 155.921 292.992C155.697 292.76 155.329 292.644 154.817 292.644H153.209L152.693 295.572ZM157.801 300L159.277 291.6H160.777L162.649 297.192L166.453 291.6H167.953L166.477 300H165.205L166.297 293.796L162.853 298.8H161.869L160.165 293.808L159.073 300H157.801Z" fill="#FF0000"/>
<path d="M239.201 341.141L234.433 345.661L232.599 343.927C232.5 343.817 232.377 343.728 232.239 343.664C232.101 343.601 231.951 343.566 231.798 343.56C231.645 343.555 231.493 343.579 231.35 343.632C231.207 343.685 231.078 343.765 230.97 343.867C230.861 343.97 230.776 344.092 230.721 344.227C230.665 344.362 230.639 344.506 230.645 344.651C230.651 344.796 230.688 344.938 230.755 345.068C230.822 345.199 230.916 345.315 231.032 345.409L233.644 347.89C233.748 347.987 233.871 348.064 234.007 348.117C234.142 348.169 234.287 348.195 234.433 348.195C234.725 348.193 235.004 348.084 235.211 347.89L240.768 342.634C240.872 342.536 240.955 342.42 241.011 342.292C241.068 342.164 241.097 342.026 241.097 341.888C241.097 341.749 241.068 341.611 241.011 341.483C240.955 341.355 240.872 341.239 240.768 341.141C240.56 340.946 240.278 340.836 239.984 340.836C239.691 340.836 239.409 340.946 239.201 341.141ZM236.178 334.004C233.98 334.004 231.831 334.62 230.004 335.775C228.176 336.93 226.752 338.572 225.91 340.493C225.069 342.414 224.849 344.527 225.278 346.566C225.707 348.605 226.765 350.478 228.32 351.948C229.874 353.419 231.854 354.42 234.01 354.825C236.166 355.231 238.4 355.023 240.431 354.227C242.462 353.431 244.198 352.084 245.419 350.356C246.64 348.627 247.292 346.595 247.292 344.516C247.292 343.135 247.004 341.768 246.446 340.493C245.887 339.218 245.069 338.059 244.037 337.083C243.005 336.107 241.779 335.332 240.431 334.804C239.083 334.276 237.638 334.004 236.178 334.004ZM236.178 352.925C234.42 352.925 232.701 352.432 231.239 351.508C229.776 350.584 228.637 349.27 227.964 347.734C227.291 346.197 227.115 344.506 227.458 342.875C227.801 341.244 228.648 339.745 229.891 338.569C231.135 337.393 232.719 336.592 234.444 336.268C236.168 335.943 237.956 336.11 239.58 336.746C241.205 337.383 242.594 338.461 243.571 339.844C244.547 341.227 245.069 342.852 245.069 344.516C245.069 346.746 244.132 348.885 242.465 350.462C240.797 352.039 238.536 352.925 236.178 352.925Z" fill="#768396"/>
<path d="M260.008 347.39C259.456 347.39 258.956 347.294 258.508 347.102C258.06 346.902 257.7 346.598 257.428 346.19C257.156 345.782 257.012 345.27 256.996 344.654H258.508C258.516 345.062 258.648 345.406 258.904 345.686C259.168 345.958 259.536 346.094 260.008 346.094C260.456 346.094 260.8 345.97 261.04 345.722C261.28 345.474 261.4 345.162 261.4 344.786C261.4 344.346 261.24 344.014 260.92 343.79C260.608 343.558 260.204 343.442 259.708 343.442H259.084V342.182H259.72C260.128 342.182 260.468 342.086 260.74 341.894C261.012 341.702 261.148 341.418 261.148 341.042C261.148 340.73 261.044 340.482 260.836 340.298C260.636 340.106 260.356 340.01 259.996 340.01C259.604 340.01 259.296 340.126 259.072 340.358C258.856 340.59 258.736 340.874 258.712 341.21H257.212C257.244 340.434 257.512 339.822 258.016 339.374C258.528 338.926 259.188 338.702 259.996 338.702C260.572 338.702 261.056 338.806 261.448 339.014C261.848 339.214 262.148 339.482 262.348 339.818C262.556 340.154 262.66 340.526 262.66 340.934C262.66 341.406 262.528 341.806 262.264 342.134C262.008 342.454 261.688 342.67 261.304 342.782C261.776 342.878 262.16 343.11 262.456 343.478C262.752 343.838 262.9 344.294 262.9 344.846C262.9 345.31 262.788 345.734 262.564 346.118C262.34 346.502 262.012 346.81 261.58 347.042C261.156 347.274 260.632 347.39 260.008 347.39ZM263.4 348.578L266.4 337.922H267.9L264.888 348.578H263.4ZM271.756 347.39C271.18 347.39 270.66 347.29 270.196 347.09C269.732 346.882 269.36 346.59 269.08 346.214C268.808 345.838 268.672 345.402 268.672 344.906C268.672 344.394 268.804 343.946 269.068 343.562C269.34 343.178 269.696 342.902 270.136 342.734C269.752 342.566 269.448 342.326 269.224 342.014C269 341.694 268.888 341.338 268.888 340.946C268.888 340.546 268.996 340.178 269.212 339.842C269.428 339.498 269.748 339.222 270.172 339.014C270.604 338.806 271.132 338.702 271.756 338.702C272.38 338.702 272.904 338.806 273.328 339.014C273.752 339.222 274.072 339.498 274.288 339.842C274.504 340.178 274.612 340.546 274.612 340.946C274.612 341.33 274.496 341.686 274.264 342.014C274.04 342.334 273.74 342.574 273.364 342.734C273.812 342.902 274.168 343.178 274.432 343.562C274.696 343.946 274.828 344.394 274.828 344.906C274.828 345.402 274.692 345.838 274.42 346.214C274.148 346.59 273.776 346.882 273.304 347.09C272.84 347.29 272.324 347.39 271.756 347.39ZM271.756 342.278C272.172 342.278 272.5 342.17 272.74 341.954C272.98 341.738 273.1 341.462 273.1 341.126C273.1 340.758 272.98 340.47 272.74 340.262C272.508 340.054 272.18 339.95 271.756 339.95C271.324 339.95 270.992 340.054 270.76 340.262C270.528 340.47 270.412 340.758 270.412 341.126C270.412 341.47 270.528 341.75 270.76 341.966C271 342.174 271.332 342.278 271.756 342.278ZM271.756 346.106C272.268 346.106 272.656 345.982 272.92 345.734C273.184 345.478 273.316 345.158 273.316 344.774C273.316 344.35 273.176 344.018 272.896 343.778C272.624 343.538 272.244 343.418 271.756 343.418C271.268 343.418 270.88 343.538 270.592 343.778C270.312 344.018 270.172 344.35 270.172 344.774C270.172 345.158 270.304 345.478 270.568 345.734C270.84 345.982 271.236 346.106 271.756 346.106Z" fill="#768396"/>
<mask id="mask0_1095_93" style="mask-type:alpha" maskUnits="userSpaceOnUse" x="22" y="65" width="266" height="137">
<rect x="22.4053" y="65.6484" width="265.419" height="136.033" rx="12" fill="#D72626"/>
</mask>
<g mask="url(#mask0_1095_93)">
<rect x="-63.8887" y="37.207" width="436.699" height="233.73" fill="#D72626"/>
<rect x="-57.3506" y="53.2812" width="400.09" height="212.707" fill="#D72626"/>
<rect x="-138.415" y="-55.543" width="585.752" height="311.64" fill="#D72626"/>
<path d="M16 116.011L66.3215 189L148.793 89L187 135.552" stroke="white" stroke-width="6" stroke-linecap="round"/>
</g>
<path d="M202.212 301L203.376 294.352L201.924 294.736L202.14 293.5L204.336 292.6H205.284L203.796 301H202.212ZM208.53 301L210.006 292.6H211.83L213.57 297.928L217.146 292.6H218.97L217.494 301H215.958L216.978 295.204L213.834 299.8H212.622L211.086 295.204L210.066 301H208.53ZM223.168 301.144C222.456 301.144 221.828 300.988 221.284 300.676C220.74 300.364 220.312 299.936 220 299.392C219.696 298.84 219.544 298.216 219.544 297.52C219.544 296.816 219.672 296.16 219.928 295.552C220.192 294.936 220.552 294.396 221.008 293.932C221.472 293.468 222.008 293.108 222.616 292.852C223.232 292.588 223.888 292.456 224.584 292.456C225.296 292.456 225.924 292.612 226.468 292.924C227.012 293.236 227.436 293.664 227.74 294.208C228.052 294.752 228.208 295.372 228.208 296.068C228.208 296.772 228.076 297.432 227.812 298.048C227.556 298.664 227.196 299.204 226.732 299.668C226.268 300.132 225.732 300.496 225.124 300.76C224.516 301.016 223.864 301.144 223.168 301.144ZM223.36 299.764C223.808 299.764 224.228 299.676 224.62 299.5C225.012 299.316 225.356 299.06 225.652 298.732C225.956 298.404 226.192 298.024 226.36 297.592C226.536 297.16 226.624 296.696 226.624 296.2C226.624 295.48 226.428 294.908 226.036 294.484C225.644 294.052 225.1 293.836 224.404 293.836C223.948 293.836 223.524 293.928 223.132 294.112C222.74 294.296 222.392 294.548 222.088 294.868C221.792 295.188 221.556 295.564 221.38 295.996C221.212 296.428 221.128 296.892 221.128 297.388C221.128 298.108 221.328 298.684 221.728 299.116C222.128 299.548 222.672 299.764 223.36 299.764ZM228.768 301L230.256 292.6H231.804L234.684 298.588L235.74 292.6H237.276L235.788 301H234.252L231.372 295.012L230.304 301H228.768ZM239.385 301L240.645 293.812H238.197L238.413 292.6H244.857L244.653 293.812H242.181L240.921 301H239.385ZM244.507 301L245.995 292.6H247.531L246.907 296.104H250.687L251.299 292.6H252.835L251.347 301H249.811L250.471 297.316H246.703L246.043 301H244.507ZM256.085 301L257.561 292.6H259.097L257.825 299.8H261.545L261.341 301H256.085ZM262.154 301L266.702 292.6H268.442L270.026 301H268.406L268.07 299.056H264.794L263.774 301H262.154ZM265.406 297.88H267.878L267.266 294.328L265.406 297.88ZM272.115 301L273.375 293.812H270.927L271.143 292.6H277.587L277.383 293.812H274.911L273.651 301H272.115ZM277.237 301L278.725 292.6H283.921L283.693 293.812H280.045L279.637 296.152H282.925L282.721 297.328H279.433L278.989 299.788H282.649L282.433 301H277.237Z" fill="#EC2222"/>
</svg>
