<svg width="308" height="229" viewBox="0 0 308 229" fill="none" xmlns="http://www.w3.org/2000/svg">
<rect x="0.741211" y="0.214844" width="307.259" height="228.783" rx="12" fill="white"/>
<rect x="24.2764" y="20" width="84.9864" height="27.2067" rx="4" fill="#1EA7FF"/>
<path d="M37.5563 36.7109V29.3429H35.0723V28.3109H41.3003V29.3429H38.8283V36.7109H37.5563ZM42.4427 36.7109V28.0709H43.7147V31.7189C43.9147 31.3749 44.1907 31.1069 44.5427 30.9149C44.9027 30.7149 45.2987 30.6149 45.7307 30.6149C46.4427 30.6149 47.0027 30.8389 47.4107 31.2869C47.8187 31.7349 48.0227 32.4029 48.0227 33.2909V36.7109H46.7627V33.4229C46.7627 32.2709 46.3027 31.6949 45.3827 31.6949C44.9027 31.6949 44.5027 31.8629 44.1827 32.1989C43.8707 32.5349 43.7147 33.0149 43.7147 33.6389V36.7109H42.4427ZM52.3048 36.8549C51.7208 36.8549 51.2008 36.7269 50.7448 36.4709C50.2968 36.2069 49.9448 35.8429 49.6888 35.3789C49.4328 34.9149 49.3048 34.3749 49.3048 33.7589C49.3048 33.1349 49.4288 32.5869 49.6768 32.1149C49.9328 31.6429 50.2848 31.2749 50.7328 31.0109C51.1888 30.7469 51.7168 30.6149 52.3168 30.6149C52.9008 30.6149 53.4088 30.7469 53.8408 31.0109C54.2728 31.2669 54.6088 31.6109 54.8488 32.0429C55.0888 32.4749 55.2088 32.9509 55.2088 33.4709C55.2088 33.5509 55.2048 33.6389 55.1968 33.7349C55.1968 33.8229 55.1928 33.9229 55.1848 34.0349H50.5528C50.5928 34.6109 50.7808 35.0509 51.1168 35.3549C51.4608 35.6509 51.8568 35.7989 52.3048 35.7989C52.6648 35.7989 52.9648 35.7189 53.2048 35.5589C53.4528 35.3909 53.6368 35.1669 53.7568 34.8869H55.0288C54.8688 35.4469 54.5488 35.9149 54.0688 36.2909C53.5968 36.6669 53.0088 36.8549 52.3048 36.8549ZM52.3048 31.6589C51.8808 31.6589 51.5048 31.7869 51.1768 32.0429C50.8488 32.2909 50.6488 32.6669 50.5768 33.1709H53.9368C53.9128 32.7069 53.7488 32.3389 53.4448 32.0669C53.1408 31.7949 52.7608 31.6589 52.3048 31.6589ZM58.9046 36.8549C58.1526 36.8549 57.5326 36.6709 57.0446 36.3029C56.5566 35.9349 56.2766 35.4469 56.2046 34.8389H57.4886C57.5526 35.1109 57.7046 35.3469 57.9446 35.5469C58.1846 35.7389 58.5006 35.8349 58.8926 35.8349C59.2766 35.8349 59.5566 35.7549 59.7326 35.5949C59.9086 35.4349 59.9966 35.2509 59.9966 35.0429C59.9966 34.7389 59.8726 34.5349 59.6246 34.4309C59.3846 34.3189 59.0486 34.2189 58.6166 34.1309C58.2806 34.0589 57.9446 33.9629 57.6086 33.8429C57.2806 33.7229 57.0046 33.5549 56.7806 33.3389C56.5646 33.1149 56.4566 32.8149 56.4566 32.4389C56.4566 31.9189 56.6566 31.4869 57.0566 31.1429C57.4566 30.7909 58.0166 30.6149 58.7366 30.6149C59.4006 30.6149 59.9366 30.7749 60.3446 31.0949C60.7606 31.4149 61.0046 31.8669 61.0766 32.4509H59.8526C59.8126 32.1949 59.6926 31.9949 59.4926 31.8509C59.3006 31.7069 59.0406 31.6349 58.7126 31.6349C58.3926 31.6349 58.1446 31.7029 57.9686 31.8389C57.7926 31.9669 57.7046 32.1349 57.7046 32.3429C57.7046 32.5509 57.8246 32.7149 58.0646 32.8349C58.3126 32.9549 58.6366 33.0629 59.0366 33.1589C59.4366 33.2469 59.8046 33.3509 60.1406 33.4709C60.4846 33.5829 60.7606 33.7509 60.9686 33.9749C61.1766 34.1989 61.2806 34.5269 61.2806 34.9589C61.2886 35.5029 61.0766 35.9549 60.6446 36.3149C60.2206 36.6749 59.6406 36.8549 58.9046 36.8549ZM63.3892 29.6309C63.1492 29.6309 62.9492 29.5589 62.7892 29.4149C62.6372 29.2629 62.5612 29.0749 62.5612 28.8509C62.5612 28.6269 62.6372 28.4429 62.7892 28.2989C62.9492 28.1469 63.1492 28.0709 63.3892 28.0709C63.6292 28.0709 63.8252 28.1469 63.9772 28.2989C64.1372 28.4429 64.2172 28.6269 64.2172 28.8509C64.2172 29.0749 64.1372 29.2629 63.9772 29.4149C63.8252 29.5589 63.6292 29.6309 63.3892 29.6309ZM62.7532 36.7109V30.7589H64.0252V36.7109H62.7532ZM68.0804 36.8549C67.3284 36.8549 66.7084 36.6709 66.2204 36.3029C65.7324 35.9349 65.4524 35.4469 65.3804 34.8389H66.6644C66.7284 35.1109 66.8804 35.3469 67.1204 35.5469C67.3604 35.7389 67.6764 35.8349 68.0684 35.8349C68.4524 35.8349 68.7324 35.7549 68.9084 35.5949C69.0844 35.4349 69.1724 35.2509 69.1724 35.0429C69.1724 34.7389 69.0484 34.5349 68.8004 34.4309C68.5604 34.3189 68.2244 34.2189 67.7924 34.1309C67.4564 34.0589 67.1204 33.9629 66.7844 33.8429C66.4564 33.7229 66.1804 33.5549 65.9564 33.3389C65.7404 33.1149 65.6324 32.8149 65.6324 32.4389C65.6324 31.9189 65.8324 31.4869 66.2324 31.1429C66.6324 30.7909 67.1924 30.6149 67.9124 30.6149C68.5764 30.6149 69.1124 30.7749 69.5204 31.0949C69.9364 31.4149 70.1804 31.8669 70.2524 32.4509H69.0284C68.9884 32.1949 68.8684 31.9949 68.6684 31.8509C68.4764 31.7069 68.2164 31.6349 67.8884 31.6349C67.5684 31.6349 67.3204 31.7029 67.1444 31.8389C66.9684 31.9669 66.8804 32.1349 66.8804 32.3429C66.8804 32.5509 67.0004 32.7149 67.2404 32.8349C67.4884 32.9549 67.8124 33.0629 68.2124 33.1589C68.6124 33.2469 68.9804 33.3509 69.3164 33.4709C69.6604 33.5829 69.9364 33.7509 70.1444 33.9749C70.3524 34.1989 70.4564 34.5269 70.4564 34.9589C70.4644 35.5029 70.2524 35.9549 69.8204 36.3149C69.3964 36.6749 68.8164 36.8549 68.0804 36.8549Z" fill="white"/>
<path d="M25.1994 77.5234V68.4234H26.5774V72.3234H30.9844V68.4234H32.3624V77.5234H30.9844V73.4544H26.5774V77.5234H25.1994ZM37.177 77.6794C36.5617 77.6794 36.007 77.5408 35.513 77.2634C35.0277 76.9774 34.642 76.5831 34.356 76.0804C34.07 75.5691 33.927 74.9754 33.927 74.2994C33.927 73.6234 34.07 73.0341 34.356 72.5314C34.6507 72.0201 35.045 71.6258 35.539 71.3484C36.033 71.0624 36.5834 70.9194 37.19 70.9194C37.8054 70.9194 38.3557 71.0624 38.841 71.3484C39.335 71.6258 39.725 72.0201 40.011 72.5314C40.3057 73.0341 40.453 73.6234 40.453 74.2994C40.453 74.9754 40.3057 75.5691 40.011 76.0804C39.725 76.5831 39.335 76.9774 38.841 77.2634C38.347 77.5408 37.7924 77.6794 37.177 77.6794ZM37.177 76.4964C37.5064 76.4964 37.8097 76.4141 38.087 76.2494C38.373 76.0848 38.6027 75.8421 38.776 75.5214C38.9494 75.1921 39.036 74.7848 39.036 74.2994C39.036 73.8141 38.9494 73.4111 38.776 73.0904C38.6114 72.7611 38.386 72.5141 38.1 72.3494C37.8227 72.1848 37.5194 72.1024 37.19 72.1024C36.8607 72.1024 36.553 72.1848 36.267 72.3494C35.9897 72.5141 35.7644 72.7611 35.591 73.0904C35.4177 73.4111 35.331 73.8141 35.331 74.2994C35.331 74.7848 35.4177 75.1921 35.591 75.5214C35.7644 75.8421 35.9897 76.0848 36.267 76.2494C36.5444 76.4141 36.8477 76.4964 37.177 76.4964ZM41.9433 77.5234V68.1634H43.3213V77.5234H41.9433ZM45.8463 69.8534C45.5863 69.8534 45.3696 69.7754 45.1963 69.6194C45.0316 69.4548 44.9493 69.2511 44.9493 69.0084C44.9493 68.7658 45.0316 68.5664 45.1963 68.4104C45.3696 68.2458 45.5863 68.1634 45.8463 68.1634C46.1063 68.1634 46.3186 68.2458 46.4833 68.4104C46.6566 68.5664 46.7433 68.7658 46.7433 69.0084C46.7433 69.2511 46.6566 69.4548 46.4833 69.6194C46.3186 69.7754 46.1063 69.8534 45.8463 69.8534ZM45.1573 77.5234V71.0754H46.5353V77.5234H45.1573ZM50.9284 77.6794C50.1137 77.6794 49.4421 77.4801 48.9134 77.0814C48.3847 76.6828 48.0814 76.1541 48.0034 75.4954H49.3944C49.4637 75.7901 49.6284 76.0458 49.8884 76.2624C50.1484 76.4704 50.4907 76.5744 50.9154 76.5744C51.3314 76.5744 51.6347 76.4878 51.8254 76.3144C52.0161 76.1411 52.1114 75.9418 52.1114 75.7164C52.1114 75.3871 51.9771 75.1661 51.7084 75.0534C51.4484 74.9321 51.0844 74.8238 50.6164 74.7284C50.2524 74.6504 49.8884 74.5464 49.5244 74.4164C49.1691 74.2864 48.8701 74.1044 48.6274 73.8704C48.3934 73.6278 48.2764 73.3028 48.2764 72.8954C48.2764 72.3321 48.4931 71.8641 48.9264 71.4914C49.3597 71.1101 49.9664 70.9194 50.7464 70.9194C51.4657 70.9194 52.0464 71.0928 52.4884 71.4394C52.9391 71.7861 53.2034 72.2758 53.2814 72.9084H51.9554C51.9121 72.6311 51.7821 72.4144 51.5654 72.2584C51.3574 72.1024 51.0757 72.0244 50.7204 72.0244C50.3737 72.0244 50.1051 72.0981 49.9144 72.2454C49.7237 72.3841 49.6284 72.5661 49.6284 72.7914C49.6284 73.0168 49.7584 73.1944 50.0184 73.3244C50.2871 73.4544 50.6381 73.5714 51.0714 73.6754C51.5047 73.7708 51.9034 73.8834 52.2674 74.0134C52.6401 74.1348 52.9391 74.3168 53.1644 74.5594C53.3897 74.8021 53.5024 75.1574 53.5024 75.6254C53.5111 76.2148 53.2814 76.7044 52.8134 77.0944C52.3541 77.4844 51.7257 77.6794 50.9284 77.6794ZM57.4695 77.5234C56.8369 77.5234 56.3342 77.3718 55.9615 77.0684C55.5889 76.7564 55.4025 76.2061 55.4025 75.4174V72.2324H54.2975V71.0754H55.4025L55.5715 69.4374H56.7805V71.0754H58.6005V72.2324H56.7805V75.4174C56.7805 75.7728 56.8542 76.0198 57.0015 76.1584C57.1575 76.2884 57.4219 76.3534 57.7945 76.3534H58.5355V77.5234H57.4695ZM60.8014 69.8534C60.5414 69.8534 60.3247 69.7754 60.1514 69.6194C59.9867 69.4548 59.9044 69.2511 59.9044 69.0084C59.9044 68.7658 59.9867 68.5664 60.1514 68.4104C60.3247 68.2458 60.5414 68.1634 60.8014 68.1634C61.0614 68.1634 61.2737 68.2458 61.4384 68.4104C61.6117 68.5664 61.6984 68.7658 61.6984 69.0084C61.6984 69.2511 61.6117 69.4548 61.4384 69.6194C61.2737 69.7754 61.0614 69.8534 60.8014 69.8534ZM60.1124 77.5234V71.0754H61.4904V77.5234H60.1124ZM66.3645 77.6794C65.7318 77.6794 65.1641 77.5364 64.6615 77.2504C64.1675 76.9644 63.7775 76.5701 63.4915 76.0674C63.2141 75.5561 63.0755 74.9668 63.0755 74.2994C63.0755 73.6321 63.2141 73.0471 63.4915 72.5444C63.7775 72.0331 64.1675 71.6344 64.6615 71.3484C65.1641 71.0624 65.7318 70.9194 66.3645 70.9194C67.1618 70.9194 67.8291 71.1274 68.3665 71.5434C68.9125 71.9594 69.2635 72.5228 69.4195 73.2334H67.9765C67.8898 72.8781 67.6991 72.6008 67.4045 72.4014C67.1098 72.2021 66.7631 72.1024 66.3645 72.1024C66.0265 72.1024 65.7145 72.1891 65.4285 72.3624C65.1425 72.5271 64.9128 72.7741 64.7395 73.1034C64.5661 73.4241 64.4795 73.8228 64.4795 74.2994C64.4795 74.7761 64.5661 75.1791 64.7395 75.5084C64.9128 75.8291 65.1425 76.0761 65.4285 76.2494C65.7145 76.4228 66.0265 76.5094 66.3645 76.5094C66.7631 76.5094 67.1098 76.4098 67.4045 76.2104C67.6991 76.0111 67.8898 75.7294 67.9765 75.3654H69.4195C69.2721 76.0588 68.9255 76.6178 68.3795 77.0424C67.8335 77.4671 67.1618 77.6794 66.3645 77.6794ZM74.2414 77.5234V68.4234H77.1924C78.2584 68.4234 79.1337 68.6098 79.8184 68.9824C80.5117 69.3551 81.023 69.8838 81.3524 70.5684C81.6904 71.2444 81.8594 72.0504 81.8594 72.9864C81.8594 73.9138 81.6904 74.7198 81.3524 75.4044C81.023 76.0804 80.5117 76.6048 79.8184 76.9774C79.1337 77.3414 78.2584 77.5234 77.1924 77.5234H74.2414ZM75.6194 76.3534H77.1404C77.9637 76.3534 78.6137 76.2191 79.0904 75.9504C79.5757 75.6818 79.9224 75.2961 80.1304 74.7934C80.347 74.2908 80.4554 73.6884 80.4554 72.9864C80.4554 72.2844 80.347 71.6778 80.1304 71.1664C79.9224 70.6551 79.5757 70.2651 79.0904 69.9964C78.6137 69.7191 77.9637 69.5804 77.1404 69.5804H75.6194V76.3534ZM86.346 77.6794C85.7133 77.6794 85.15 77.5408 84.656 77.2634C84.1707 76.9774 83.7893 76.5831 83.512 76.0804C83.2347 75.5778 83.096 74.9928 83.096 74.3254C83.096 73.6494 83.2303 73.0558 83.499 72.5444C83.7763 72.0331 84.1577 71.6344 84.643 71.3484C85.137 71.0624 85.709 70.9194 86.359 70.9194C86.9917 70.9194 87.542 71.0624 88.01 71.3484C88.478 71.6258 88.842 71.9984 89.102 72.4664C89.362 72.9344 89.492 73.4501 89.492 74.0134C89.492 74.1001 89.4877 74.1954 89.479 74.2994C89.479 74.3948 89.4747 74.5031 89.466 74.6244H84.448C84.4913 75.2484 84.695 75.7251 85.059 76.0544C85.4317 76.3751 85.8607 76.5354 86.346 76.5354C86.736 76.5354 87.061 76.4488 87.321 76.2754C87.5897 76.0934 87.789 75.8508 87.919 75.5474H89.297C89.1237 76.1541 88.777 76.6611 88.257 77.0684C87.7457 77.4758 87.1087 77.6794 86.346 77.6794ZM86.346 72.0504C85.8867 72.0504 85.4793 72.1891 85.124 72.4664C84.7687 72.7351 84.552 73.1424 84.474 73.6884H88.114C88.088 73.1858 87.9103 72.7871 87.581 72.4924C87.2517 72.1978 86.84 72.0504 86.346 72.0504ZM92.4749 77.5234L90.0569 71.0754H91.4999L93.2939 76.2104L95.0879 71.0754H96.5179L94.1129 77.5234H92.4749ZM100.336 77.6794C99.7036 77.6794 99.1402 77.5408 98.6462 77.2634C98.1609 76.9774 97.7796 76.5831 97.5022 76.0804C97.2249 75.5778 97.0862 74.9928 97.0862 74.3254C97.0862 73.6494 97.2206 73.0558 97.4892 72.5444C97.7666 72.0331 98.1479 71.6344 98.6332 71.3484C99.1272 71.0624 99.6992 70.9194 100.349 70.9194C100.982 70.9194 101.532 71.0624 102 71.3484C102.468 71.6258 102.832 71.9984 103.092 72.4664C103.352 72.9344 103.482 73.4501 103.482 74.0134C103.482 74.1001 103.478 74.1954 103.469 74.2994C103.469 74.3948 103.465 74.5031 103.456 74.6244H98.4382C98.4816 75.2484 98.6852 75.7251 99.0492 76.0544C99.4219 76.3751 99.8509 76.5354 100.336 76.5354C100.726 76.5354 101.051 76.4488 101.311 76.2754C101.58 76.0934 101.779 75.8508 101.909 75.5474H103.287C103.114 76.1541 102.767 76.6611 102.247 77.0684C101.736 77.4758 101.099 77.6794 100.336 77.6794ZM100.336 72.0504C99.8769 72.0504 99.4696 72.1891 99.1142 72.4664C98.7589 72.7351 98.5422 73.1424 98.4642 73.6884H102.104C102.078 73.1858 101.901 72.7871 101.571 72.4924C101.242 72.1978 100.83 72.0504 100.336 72.0504ZM104.912 77.5234V68.1634H106.29V77.5234H104.912ZM111.051 77.6794C110.436 77.6794 109.881 77.5408 109.387 77.2634C108.902 76.9774 108.516 76.5831 108.23 76.0804C107.944 75.5691 107.801 74.9754 107.801 74.2994C107.801 73.6234 107.944 73.0341 108.23 72.5314C108.525 72.0201 108.919 71.6258 109.413 71.3484C109.907 71.0624 110.457 70.9194 111.064 70.9194C111.679 70.9194 112.23 71.0624 112.715 71.3484C113.209 71.6258 113.599 72.0201 113.885 72.5314C114.18 73.0341 114.327 73.6234 114.327 74.2994C114.327 74.9754 114.18 75.5691 113.885 76.0804C113.599 76.5831 113.209 76.9774 112.715 77.2634C112.221 77.5408 111.666 77.6794 111.051 77.6794ZM111.051 76.4964C111.38 76.4964 111.684 76.4141 111.961 76.2494C112.247 76.0848 112.477 75.8421 112.65 75.5214C112.823 75.1921 112.91 74.7848 112.91 74.2994C112.91 73.8141 112.823 73.4111 112.65 73.0904C112.485 72.7611 112.26 72.5141 111.974 72.3494C111.697 72.1848 111.393 72.1024 111.064 72.1024C110.735 72.1024 110.427 72.1848 110.141 72.3494C109.864 72.5141 109.638 72.7611 109.465 73.0904C109.292 73.4111 109.205 73.8141 109.205 74.2994C109.205 74.7848 109.292 75.1921 109.465 75.5214C109.638 75.8421 109.864 76.0848 110.141 76.2494C110.418 76.4141 110.722 76.4964 111.051 76.4964ZM115.817 80.3834V71.0754H117.052L117.195 72.0764C117.403 71.7731 117.689 71.5044 118.053 71.2704C118.417 71.0364 118.885 70.9194 119.457 70.9194C120.081 70.9194 120.632 71.0668 121.108 71.3614C121.585 71.6561 121.958 72.0591 122.226 72.5704C122.504 73.0818 122.642 73.6624 122.642 74.3124C122.642 74.9624 122.504 75.5431 122.226 76.0544C121.958 76.5571 121.585 76.9558 121.108 77.2504C120.632 77.5364 120.077 77.6794 119.444 77.6794C118.942 77.6794 118.495 77.5798 118.105 77.3804C117.724 77.1811 117.421 76.8994 117.195 76.5354V80.3834H115.817ZM119.21 76.4834C119.8 76.4834 120.285 76.2841 120.666 75.8854C121.048 75.4781 121.238 74.9494 121.238 74.2994C121.238 73.8748 121.152 73.4978 120.978 73.1684C120.805 72.8391 120.567 72.5834 120.263 72.4014C119.96 72.2108 119.609 72.1154 119.21 72.1154C118.621 72.1154 118.136 72.3191 117.754 72.7264C117.382 73.1338 117.195 73.6581 117.195 74.2994C117.195 74.9494 117.382 75.4781 117.754 75.8854C118.136 76.2841 118.621 76.4834 119.21 76.4834ZM124.133 77.5234V71.0754H125.355L125.472 71.9854C125.68 71.6561 125.953 71.3961 126.291 71.2054C126.637 71.0148 127.036 70.9194 127.487 70.9194C128.509 70.9194 129.22 71.3224 129.619 72.1284C129.853 71.7558 130.165 71.4611 130.555 71.2444C130.953 71.0278 131.382 70.9194 131.842 70.9194C132.648 70.9194 133.28 71.1621 133.74 71.6474C134.199 72.1328 134.429 72.8564 134.429 73.8184V77.5234H133.051V73.9614C133.051 72.7134 132.574 72.0894 131.621 72.0894C131.135 72.0894 130.737 72.2714 130.425 72.6354C130.121 72.9994 129.97 73.5194 129.97 74.1954V77.5234H128.592V73.9614C128.592 72.7134 128.111 72.0894 127.149 72.0894C126.672 72.0894 126.278 72.2714 125.966 72.6354C125.662 72.9994 125.511 73.5194 125.511 74.1954V77.5234H124.133ZM139.057 77.6794C138.424 77.6794 137.861 77.5408 137.367 77.2634C136.882 76.9774 136.5 76.5831 136.223 76.0804C135.946 75.5778 135.807 74.9928 135.807 74.3254C135.807 73.6494 135.941 73.0558 136.21 72.5444C136.487 72.0331 136.869 71.6344 137.354 71.3484C137.848 71.0624 138.42 70.9194 139.07 70.9194C139.703 70.9194 140.253 71.0624 140.721 71.3484C141.189 71.6258 141.553 71.9984 141.813 72.4664C142.073 72.9344 142.203 73.4501 142.203 74.0134C142.203 74.1001 142.199 74.1954 142.19 74.2994C142.19 74.3948 142.186 74.5031 142.177 74.6244H137.159C137.202 75.2484 137.406 75.7251 137.77 76.0544C138.143 76.3751 138.572 76.5354 139.057 76.5354C139.447 76.5354 139.772 76.4488 140.032 76.2754C140.301 76.0934 140.5 75.8508 140.63 75.5474H142.008C141.835 76.1541 141.488 76.6611 140.968 77.0684C140.457 77.4758 139.82 77.6794 139.057 77.6794ZM139.057 72.0504C138.598 72.0504 138.19 72.1891 137.835 72.4664C137.48 72.7351 137.263 73.1424 137.185 73.6884H140.825C140.799 73.1858 140.621 72.7871 140.292 72.4924C139.963 72.1978 139.551 72.0504 139.057 72.0504ZM143.633 77.5234V71.0754H144.855L144.959 72.2064C145.158 71.8078 145.448 71.4958 145.83 71.2704C146.22 71.0364 146.666 70.9194 147.169 70.9194C147.949 70.9194 148.56 71.1621 149.002 71.6474C149.452 72.1328 149.678 72.8564 149.678 73.8184V77.5234H148.313V73.9614C148.313 72.7134 147.801 72.0894 146.779 72.0894C146.267 72.0894 145.843 72.2714 145.505 72.6354C145.175 72.9994 145.011 73.5194 145.011 74.1954V77.5234H143.633ZM154.005 77.5234C153.372 77.5234 152.869 77.3718 152.497 77.0684C152.124 76.7564 151.938 76.2061 151.938 75.4174V72.2324H150.833V71.0754H151.938L152.107 69.4374H153.316V71.0754H155.136V72.2324H153.316V75.4174C153.316 75.7728 153.389 76.0198 153.537 76.1584C153.693 76.2884 153.957 76.3534 154.33 76.3534H155.071V77.5234H154.005ZM160.612 69.8534C160.352 69.8534 160.135 69.7754 159.962 69.6194C159.797 69.4548 159.715 69.2511 159.715 69.0084C159.715 68.7658 159.797 68.5664 159.962 68.4104C160.135 68.2458 160.352 68.1634 160.612 68.1634C160.872 68.1634 161.084 68.2458 161.249 68.4104C161.422 68.5664 161.509 68.7658 161.509 69.0084C161.509 69.2511 161.422 69.4548 161.249 69.6194C161.084 69.7754 160.872 69.8534 160.612 69.8534ZM159.923 77.5234V71.0754H161.301V77.5234H159.923ZM163.12 77.5234V71.0754H164.342L164.446 72.2064C164.645 71.8078 164.936 71.4958 165.317 71.2704C165.707 71.0364 166.153 70.9194 166.656 70.9194C167.436 70.9194 168.047 71.1621 168.489 71.6474C168.94 72.1328 169.165 72.8564 169.165 73.8184V77.5234H167.8V73.9614C167.8 72.7134 167.289 72.0894 166.266 72.0894C165.755 72.0894 165.33 72.2714 164.992 72.6354C164.663 72.9994 164.498 73.5194 164.498 74.1954V77.5234H163.12ZM174.115 77.5234V68.4234H179.9V69.5414H175.493V72.3754H179.51V73.4674H175.493V76.4054H179.9V77.5234H174.115ZM183.674 77.6794C183.128 77.6794 182.677 77.5884 182.322 77.4064C181.967 77.2244 181.702 76.9861 181.529 76.6914C181.356 76.3881 181.269 76.0588 181.269 75.7034C181.269 75.0794 181.512 74.5854 181.997 74.2214C182.482 73.8574 183.176 73.6754 184.077 73.6754H185.767V73.5584C185.767 73.0558 185.628 72.6788 185.351 72.4274C185.082 72.1761 184.731 72.0504 184.298 72.0504C183.917 72.0504 183.583 72.1458 183.297 72.3364C183.02 72.5184 182.851 72.7914 182.79 73.1554H181.412C181.455 72.6874 181.611 72.2888 181.88 71.9594C182.157 71.6214 182.504 71.3658 182.92 71.1924C183.345 71.0104 183.808 70.9194 184.311 70.9194C185.212 70.9194 185.91 71.1578 186.404 71.6344C186.898 72.1024 187.145 72.7438 187.145 73.5584V77.5234H185.949L185.832 76.4184C185.65 76.7738 185.386 77.0728 185.039 77.3154C184.692 77.5581 184.237 77.6794 183.674 77.6794ZM183.947 76.5614C184.32 76.5614 184.632 76.4748 184.883 76.3014C185.143 76.1194 185.342 75.8811 185.481 75.5864C185.628 75.2918 185.719 74.9668 185.754 74.6114H184.22C183.674 74.6114 183.284 74.7068 183.05 74.8974C182.825 75.0881 182.712 75.3264 182.712 75.6124C182.712 75.9071 182.82 76.1411 183.037 76.3144C183.262 76.4791 183.566 76.5614 183.947 76.5614ZM188.752 77.5234V71.0754H189.987L190.104 72.2974C190.329 71.8728 190.641 71.5391 191.04 71.2964C191.447 71.0451 191.937 70.9194 192.509 70.9194V72.3624H192.132C191.751 72.3624 191.408 72.4274 191.105 72.5574C190.81 72.6788 190.572 72.8911 190.39 73.1944C190.217 73.4891 190.13 73.9008 190.13 74.4294V77.5234H188.752ZM193.69 77.5234V68.1634H195.068V77.5234H193.69ZM197.567 80.3834L199.114 76.9904H198.737L196.189 71.0754H197.684L199.66 75.8464L201.727 71.0754H203.183L199.023 80.3834H197.567ZM29.2554 95.6794C28.354 95.6794 27.574 95.4844 26.9154 95.0944C26.2654 94.6958 25.7627 94.1454 25.4074 93.4434C25.052 92.7328 24.8744 91.9138 24.8744 90.9864C24.8744 90.0504 25.052 89.2314 25.4074 88.5294C25.7627 87.8188 26.2654 87.2641 26.9154 86.8654C27.574 86.4668 28.354 86.2674 29.2554 86.2674C30.3214 86.2674 31.1924 86.5274 31.8684 87.0474C32.5444 87.5674 32.9734 88.2954 33.1554 89.2314H31.6214C31.5 88.7028 31.24 88.2824 30.8414 87.9704C30.4427 87.6584 29.9097 87.5024 29.2424 87.5024C28.3324 87.5024 27.613 87.8144 27.0844 88.4384C26.5557 89.0538 26.2914 89.9031 26.2914 90.9864C26.2914 92.0611 26.5557 92.9061 27.0844 93.5214C27.613 94.1368 28.3324 94.4444 29.2424 94.4444C29.9097 94.4444 30.4427 94.2971 30.8414 94.0024C31.24 93.7078 31.5 93.3048 31.6214 92.7934H33.1554C32.9734 93.6948 32.5444 94.4011 31.8684 94.9124C31.1924 95.4238 30.3214 95.6794 29.2554 95.6794ZM34.6181 95.5234V86.1634H35.9961V90.1154C36.2127 89.7428 36.5117 89.4524 36.8931 89.2444C37.2831 89.0278 37.7121 88.9194 38.1801 88.9194C38.9514 88.9194 39.5581 89.1621 40.0001 89.6474C40.4421 90.1328 40.6631 90.8564 40.6631 91.8184V95.5234H39.2981V91.9614C39.2981 90.7134 38.7997 90.0894 37.8031 90.0894C37.2831 90.0894 36.8497 90.2714 36.5031 90.6354C36.1651 90.9994 35.9961 91.5194 35.9961 92.1954V95.5234H34.6181ZM43.066 87.8534C42.806 87.8534 42.5894 87.7754 42.416 87.6194C42.2514 87.4548 42.169 87.2511 42.169 87.0084C42.169 86.7658 42.2514 86.5664 42.416 86.4104C42.5894 86.2458 42.806 86.1634 43.066 86.1634C43.326 86.1634 43.5384 86.2458 43.703 86.4104C43.8764 86.5664 43.963 86.7658 43.963 87.0084C43.963 87.2511 43.8764 87.4548 43.703 87.6194C43.5384 87.7754 43.326 87.8534 43.066 87.8534ZM42.377 95.5234V89.0754H43.755V95.5234H42.377ZM45.5741 95.5234V86.1634H46.9521V95.5234H45.5741ZM51.6352 95.6794C51.0112 95.6794 50.4608 95.5321 49.9842 95.2374C49.5075 94.9428 49.1348 94.5398 48.8662 94.0284C48.5975 93.5171 48.4632 92.9364 48.4632 92.2864C48.4632 91.6364 48.5975 91.0601 48.8662 90.5574C49.1348 90.0461 49.5075 89.6474 49.9842 89.3614C50.4695 89.0668 51.0242 88.9194 51.6482 88.9194C52.1595 88.9194 52.6058 89.0191 52.9872 89.2184C53.3772 89.4178 53.6805 89.6994 53.8972 90.0634V86.1634H55.2752V95.5234H54.0402L53.8972 94.5224C53.6892 94.8258 53.4032 95.0944 53.0392 95.3284C52.6752 95.5624 52.2072 95.6794 51.6352 95.6794ZM51.8822 94.4834C52.4715 94.4834 52.9525 94.2798 53.3252 93.8724C53.7065 93.4651 53.8972 92.9408 53.8972 92.2994C53.8972 91.6494 53.7065 91.1251 53.3252 90.7264C52.9525 90.3191 52.4715 90.1154 51.8822 90.1154C51.2928 90.1154 50.8075 90.3191 50.4262 90.7264C50.0448 91.1251 49.8542 91.6494 49.8542 92.2994C49.8542 92.7241 49.9408 93.1011 50.1142 93.4304C50.2875 93.7598 50.5258 94.0198 50.8292 94.2104C51.1412 94.3924 51.4922 94.4834 51.8822 94.4834ZM57.0126 95.5234V86.1634H58.3906V90.1154C58.6073 89.7428 58.9063 89.4524 59.2876 89.2444C59.6776 89.0278 60.1066 88.9194 60.5746 88.9194C61.3459 88.9194 61.9526 89.1621 62.3946 89.6474C62.8366 90.1328 63.0576 90.8564 63.0576 91.8184V95.5234H61.6926V91.9614C61.6926 90.7134 61.1943 90.0894 60.1976 90.0894C59.6776 90.0894 59.2443 90.2714 58.8976 90.6354C58.5596 90.9994 58.3906 91.5194 58.3906 92.1954V95.5234H57.0126ZM67.6966 95.6794C67.0812 95.6794 66.5266 95.5408 66.0326 95.2634C65.5472 94.9774 65.1616 94.5831 64.8756 94.0804C64.5896 93.5691 64.4466 92.9754 64.4466 92.2994C64.4466 91.6234 64.5896 91.0341 64.8756 90.5314C65.1702 90.0201 65.5646 89.6258 66.0586 89.3484C66.5526 89.0624 67.1029 88.9194 67.7096 88.9194C68.3249 88.9194 68.8752 89.0624 69.3606 89.3484C69.8546 89.6258 70.2446 90.0201 70.5306 90.5314C70.8252 91.0341 70.9726 91.6234 70.9726 92.2994C70.9726 92.9754 70.8252 93.5691 70.5306 94.0804C70.2446 94.5831 69.8546 94.9774 69.3606 95.2634C68.8666 95.5408 68.3119 95.6794 67.6966 95.6794ZM67.6966 94.4964C68.0259 94.4964 68.3292 94.4141 68.6066 94.2494C68.8926 94.0848 69.1222 93.8421 69.2956 93.5214C69.4689 93.1921 69.5556 92.7848 69.5556 92.2994C69.5556 91.8141 69.4689 91.4111 69.2956 91.0904C69.1309 90.7611 68.9056 90.5141 68.6196 90.3494C68.3422 90.1848 68.0389 90.1024 67.7096 90.1024C67.3802 90.1024 67.0726 90.1848 66.7866 90.3494C66.5092 90.5141 66.2839 90.7611 66.1106 91.0904C65.9372 91.4111 65.8506 91.8141 65.8506 92.2994C65.8506 92.7848 65.9372 93.1921 66.1106 93.5214C66.2839 93.8421 66.5092 94.0848 66.7866 94.2494C67.0639 94.4141 67.3672 94.4964 67.6966 94.4964ZM75.4788 95.6794C74.8635 95.6794 74.3088 95.5408 73.8148 95.2634C73.3295 94.9774 72.9438 94.5831 72.6578 94.0804C72.3718 93.5691 72.2288 92.9754 72.2288 92.2994C72.2288 91.6234 72.3718 91.0341 72.6578 90.5314C72.9525 90.0201 73.3468 89.6258 73.8408 89.3484C74.3348 89.0624 74.8851 88.9194 75.4918 88.9194C76.1071 88.9194 76.6575 89.0624 77.1428 89.3484C77.6368 89.6258 78.0268 90.0201 78.3128 90.5314C78.6075 91.0341 78.7548 91.6234 78.7548 92.2994C78.7548 92.9754 78.6075 93.5691 78.3128 94.0804C78.0268 94.5831 77.6368 94.9774 77.1428 95.2634C76.6488 95.5408 76.0941 95.6794 75.4788 95.6794ZM75.4788 94.4964C75.8081 94.4964 76.1115 94.4141 76.3888 94.2494C76.6748 94.0848 76.9045 93.8421 77.0778 93.5214C77.2511 93.1921 77.3378 92.7848 77.3378 92.2994C77.3378 91.8141 77.2511 91.4111 77.0778 91.0904C76.9131 90.7611 76.6878 90.5141 76.4018 90.3494C76.1245 90.1848 75.8211 90.1024 75.4918 90.1024C75.1625 90.1024 74.8548 90.1848 74.5688 90.3494C74.2915 90.5141 74.0661 90.7611 73.8928 91.0904C73.7195 91.4111 73.6328 91.8141 73.6328 92.2994C73.6328 92.7848 73.7195 93.1921 73.8928 93.5214C74.0661 93.8421 74.2915 94.0848 74.5688 94.2494C74.8461 94.4141 75.1495 94.4964 75.4788 94.4964ZM83.183 95.6794C82.559 95.6794 82.0087 95.5321 81.532 95.2374C81.0554 94.9428 80.6827 94.5398 80.414 94.0284C80.1454 93.5171 80.011 92.9364 80.011 92.2864C80.011 91.6364 80.1454 91.0601 80.414 90.5574C80.6827 90.0461 81.0554 89.6474 81.532 89.3614C82.0174 89.0668 82.572 88.9194 83.196 88.9194C83.7074 88.9194 84.1537 89.0191 84.535 89.2184C84.925 89.4178 85.2284 89.6994 85.445 90.0634V86.1634H86.823V95.5234H85.588L85.445 94.5224C85.237 94.8258 84.951 95.0944 84.587 95.3284C84.223 95.5624 83.755 95.6794 83.183 95.6794ZM83.43 94.4834C84.0194 94.4834 84.5004 94.2798 84.873 93.8724C85.2544 93.4651 85.445 92.9408 85.445 92.2994C85.445 91.6494 85.2544 91.1251 84.873 90.7264C84.5004 90.3191 84.0194 90.1154 83.43 90.1154C82.8407 90.1154 82.3554 90.3191 81.974 90.7264C81.5927 91.1251 81.402 91.6494 81.402 92.2994C81.402 92.7241 81.4887 93.1011 81.662 93.4304C81.8354 93.7598 82.0737 94.0198 82.377 94.2104C82.689 94.3924 83.04 94.4834 83.43 94.4834Z" fill="#232360"/>
<path d="M25.895 117.438L26.939 111.485H27.851L27.731 112.565C27.987 112.181 28.315 111.881 28.715 111.665C29.115 111.449 29.543 111.341 29.999 111.341C30.591 111.341 31.059 111.509 31.403 111.845C31.747 112.173 31.919 112.645 31.919 113.261C31.919 113.373 31.911 113.489 31.895 113.609C31.887 113.721 31.871 113.837 31.847 113.957L31.235 117.438H30.227L30.815 114.065C30.831 113.961 30.843 113.861 30.851 113.765C30.867 113.669 30.875 113.577 30.875 113.489C30.875 112.633 30.455 112.205 29.615 112.205C29.111 112.205 28.659 112.381 28.259 112.733C27.867 113.085 27.603 113.589 27.467 114.245L26.903 117.438H25.895ZM35.5219 117.582C35.0259 117.582 34.5859 117.469 34.2019 117.245C33.8179 117.021 33.5179 116.713 33.3019 116.321C33.0859 115.929 32.9779 115.485 32.9779 114.989C32.9779 114.461 33.0699 113.977 33.2539 113.537C33.4379 113.097 33.6899 112.713 34.0099 112.385C34.3299 112.057 34.7019 111.801 35.1259 111.617C35.5499 111.433 36.0099 111.341 36.5059 111.341C37.0019 111.341 37.4419 111.449 37.8259 111.665C38.2099 111.881 38.5099 112.181 38.7259 112.565C38.9419 112.949 39.0499 113.393 39.0499 113.897C39.0499 114.417 38.9579 114.901 38.7739 115.349C38.5979 115.797 38.3459 116.189 38.0179 116.525C37.6979 116.853 37.3259 117.113 36.9019 117.305C36.4779 117.489 36.0179 117.582 35.5219 117.582ZM35.6539 116.717C36.1019 116.717 36.5019 116.597 36.8539 116.357C37.2139 116.117 37.4979 115.789 37.7059 115.373C37.9139 114.957 38.0179 114.489 38.0179 113.969C38.0179 113.409 37.8539 112.977 37.5259 112.673C37.2059 112.361 36.8219 112.205 36.3739 112.205C35.9339 112.205 35.5379 112.325 35.1859 112.565C34.8339 112.805 34.5539 113.133 34.3459 113.549C34.1379 113.965 34.0339 114.433 34.0339 114.953C34.0339 115.329 34.1059 115.649 34.2499 115.913C34.4019 116.169 34.6019 116.369 34.8499 116.513C35.0979 116.649 35.3659 116.717 35.6539 116.717ZM45.9728 117.582C45.4608 117.582 45.0208 117.465 44.6528 117.233C44.2928 116.993 44.0168 116.673 43.8248 116.273C43.6328 115.873 43.5368 115.433 43.5368 114.953C43.5368 114.249 43.6848 113.629 43.9808 113.093C44.2848 112.549 44.6928 112.121 45.2048 111.809C45.7168 111.497 46.2888 111.341 46.9208 111.341C47.4488 111.341 47.8808 111.445 48.2168 111.653C48.5528 111.861 48.8008 112.137 48.9608 112.481L49.6088 108.797H50.6168L49.0928 117.438H48.1688L48.2528 116.453C48.0208 116.741 47.7208 117.001 47.3528 117.233C46.9848 117.465 46.5248 117.582 45.9728 117.582ZM46.2608 116.705C46.7168 116.705 47.1208 116.581 47.4728 116.333C47.8328 116.085 48.1128 115.753 48.3128 115.337C48.5208 114.913 48.6248 114.449 48.6248 113.945C48.6248 113.425 48.4768 113.009 48.1808 112.697C47.8848 112.377 47.4768 112.217 46.9568 112.217C46.5008 112.217 46.0928 112.333 45.7328 112.565C45.3728 112.797 45.0888 113.113 44.8808 113.513C44.6808 113.905 44.5808 114.353 44.5808 114.857C44.5808 115.385 44.7288 115.825 45.0248 116.177C45.3288 116.529 45.7408 116.705 46.2608 116.705ZM53.4022 117.582C52.6662 117.582 52.0742 117.353 51.6262 116.897C51.1862 116.441 50.9662 115.829 50.9662 115.061C50.9662 114.373 51.1182 113.749 51.4222 113.189C51.7262 112.621 52.1422 112.173 52.6702 111.845C53.2062 111.509 53.8142 111.341 54.4942 111.341C55.0142 111.341 55.4502 111.445 55.8022 111.653C56.1622 111.853 56.4302 112.125 56.6062 112.469C56.7902 112.813 56.8822 113.193 56.8822 113.609C56.8822 113.769 56.8622 113.953 56.8222 114.161C56.7902 114.361 56.7582 114.537 56.7262 114.689H51.9742C51.9582 114.825 51.9502 114.945 51.9502 115.049C51.9502 115.617 52.1102 116.041 52.4302 116.321C52.7502 116.593 53.1262 116.729 53.5582 116.729C53.9742 116.729 54.3382 116.633 54.6502 116.441C54.9702 116.241 55.2182 115.981 55.3942 115.661H56.3902C56.1422 116.213 55.7582 116.673 55.2382 117.042C54.7182 117.402 54.1062 117.582 53.4022 117.582ZM54.3622 112.193C53.8822 112.193 53.4302 112.341 53.0062 112.637C52.5822 112.925 52.2902 113.349 52.1302 113.91H55.8742C55.8822 113.861 55.8862 113.817 55.8862 113.777C55.8942 113.729 55.8982 113.685 55.8982 113.645C55.8982 113.189 55.7582 112.833 55.4782 112.577C55.1982 112.321 54.8262 112.193 54.3622 112.193ZM59.8745 117.582C59.1305 117.582 58.5505 117.394 58.1345 117.017C57.7185 116.633 57.5385 116.117 57.5945 115.469H58.6145C58.5985 115.805 58.6985 116.101 58.9145 116.357C59.1305 116.605 59.4985 116.729 60.0185 116.729C60.4425 116.729 60.7825 116.637 61.0385 116.453C61.2945 116.261 61.4225 115.997 61.4225 115.661C61.4225 115.397 61.3025 115.205 61.0625 115.085C60.8305 114.965 60.5185 114.865 60.1265 114.785C59.8305 114.721 59.5425 114.633 59.2625 114.521C58.9825 114.401 58.7465 114.237 58.5545 114.029C58.3705 113.821 58.2785 113.557 58.2785 113.237C58.2785 112.877 58.3825 112.557 58.5905 112.277C58.7985 111.989 59.0825 111.761 59.4425 111.593C59.8105 111.425 60.2265 111.341 60.6905 111.341C61.3225 111.341 61.8265 111.501 62.2025 111.821C62.5865 112.133 62.7625 112.581 62.7305 113.165H61.7225C61.7385 112.869 61.6425 112.633 61.4345 112.457C61.2345 112.281 60.9505 112.193 60.5825 112.193C60.2145 112.193 59.9105 112.281 59.6705 112.457C59.4385 112.625 59.3225 112.833 59.3225 113.081C59.3225 113.321 59.4345 113.501 59.6585 113.621C59.8905 113.741 60.1985 113.845 60.5825 113.933C60.9105 114.005 61.2185 114.101 61.5065 114.221C61.7945 114.341 62.0265 114.505 62.2025 114.713C62.3865 114.921 62.4785 115.193 62.4785 115.529C62.4785 115.945 62.3665 116.309 62.1425 116.621C61.9185 116.925 61.6105 117.161 61.2185 117.329C60.8265 117.497 60.3785 117.582 59.8745 117.582ZM66.0947 117.582C65.6067 117.582 65.1747 117.477 64.7987 117.269C64.4227 117.053 64.1307 116.757 63.9227 116.381C63.7147 115.997 63.6107 115.553 63.6107 115.049C63.6107 114.521 63.7027 114.033 63.8867 113.585C64.0707 113.129 64.3267 112.733 64.6547 112.397C64.9827 112.061 65.3627 111.801 65.7947 111.617C66.2267 111.433 66.6907 111.341 67.1867 111.341C67.9067 111.341 68.4787 111.529 68.9027 111.905C69.3267 112.281 69.5427 112.789 69.5507 113.429H68.5187C68.5187 113.021 68.3747 112.717 68.0867 112.517C67.7987 112.309 67.4507 112.205 67.0427 112.205C66.6027 112.205 66.2027 112.325 65.8427 112.565C65.4827 112.797 65.1947 113.121 64.9787 113.537C64.7627 113.945 64.6547 114.413 64.6547 114.941C64.6547 115.509 64.8107 115.949 65.1227 116.261C65.4347 116.573 65.8107 116.729 66.2507 116.729C66.6587 116.729 67.0387 116.625 67.3907 116.417C67.7507 116.209 68.0067 115.901 68.1587 115.493H69.1907C69.0387 115.901 68.8107 116.265 68.5067 116.585C68.2027 116.897 67.8427 117.141 67.4267 117.317C67.0187 117.493 66.5747 117.582 66.0947 117.582ZM70.2388 117.438L71.2828 111.485H72.2068L72.0988 112.541C72.3548 112.173 72.6908 111.881 73.1068 111.665C73.5308 111.449 74.0108 111.341 74.5468 111.341L74.3668 112.397H74.0908C73.7308 112.397 73.3908 112.453 73.0708 112.565C72.7588 112.677 72.4908 112.869 72.2668 113.141C72.0428 113.405 71.8908 113.769 71.8108 114.233L71.2468 117.438H70.2388ZM76.6844 110.165C76.4844 110.165 76.3164 110.101 76.1804 109.973C76.0524 109.845 75.9884 109.681 75.9884 109.481C75.9884 109.281 76.0524 109.117 76.1804 108.989C76.3164 108.861 76.4844 108.797 76.6844 108.797C76.8764 108.797 77.0404 108.861 77.1764 108.989C77.3124 109.117 77.3804 109.281 77.3804 109.481C77.3804 109.681 77.3124 109.845 77.1764 109.973C77.0404 110.101 76.8764 110.165 76.6844 110.165ZM74.7764 117.438L75.8204 111.485H76.8284L75.7844 117.438H74.7764ZM77.083 120.078L78.607 111.485H79.543L79.447 112.469C79.695 112.157 79.999 111.893 80.359 111.677C80.727 111.453 81.179 111.341 81.715 111.341C82.227 111.341 82.667 111.453 83.035 111.677C83.403 111.901 83.683 112.205 83.875 112.589C84.075 112.973 84.175 113.409 84.175 113.897C84.175 114.593 84.023 115.221 83.719 115.781C83.423 116.333 83.015 116.773 82.495 117.101C81.975 117.421 81.387 117.582 80.731 117.582C80.411 117.582 80.115 117.526 79.843 117.413C79.579 117.301 79.351 117.157 79.159 116.981C78.975 116.805 78.839 116.621 78.751 116.429L78.091 120.078H77.083ZM80.791 116.705C81.247 116.705 81.651 116.589 82.003 116.357C82.355 116.125 82.631 115.809 82.831 115.409C83.031 115.009 83.131 114.553 83.131 114.041C83.131 113.513 82.979 113.077 82.675 112.733C82.379 112.389 81.975 112.217 81.463 112.217C81.007 112.217 80.599 112.337 80.239 112.577C79.879 112.817 79.595 113.145 79.387 113.561C79.179 113.969 79.075 114.425 79.075 114.929C79.075 115.465 79.231 115.897 79.543 116.225C79.855 116.545 80.271 116.705 80.791 116.705ZM86.918 117.438C86.422 117.438 86.038 117.341 85.766 117.149C85.494 116.949 85.358 116.613 85.358 116.141C85.358 116.061 85.362 115.977 85.37 115.889C85.378 115.793 85.39 115.693 85.406 115.589L85.982 112.337H85.058L85.214 111.485H86.138L86.522 110.057H87.41L87.146 111.485H88.91L88.754 112.337H87.002L86.414 115.589C86.398 115.717 86.39 115.829 86.39 115.925C86.39 116.173 86.454 116.345 86.582 116.441C86.718 116.529 86.934 116.573 87.23 116.573H88.01L87.854 117.438H86.918ZM91.2274 110.165C91.0274 110.165 90.8594 110.101 90.7234 109.973C90.5954 109.845 90.5314 109.681 90.5314 109.481C90.5314 109.281 90.5954 109.117 90.7234 108.989C90.8594 108.861 91.0274 108.797 91.2274 108.797C91.4194 108.797 91.5834 108.861 91.7194 108.989C91.8554 109.117 91.9234 109.281 91.9234 109.481C91.9234 109.681 91.8554 109.845 91.7194 109.973C91.5834 110.101 91.4194 110.165 91.2274 110.165ZM89.3194 117.438L90.3634 111.485H91.3714L90.3274 117.438H89.3194ZM94.8539 117.582C94.3579 117.582 93.9179 117.469 93.5339 117.245C93.1499 117.021 92.8499 116.713 92.6339 116.321C92.4179 115.929 92.3099 115.485 92.3099 114.989C92.3099 114.461 92.4019 113.977 92.5859 113.537C92.7699 113.097 93.0219 112.713 93.3419 112.385C93.6619 112.057 94.0339 111.801 94.4579 111.617C94.8819 111.433 95.3419 111.341 95.8379 111.341C96.3339 111.341 96.7739 111.449 97.1579 111.665C97.5419 111.881 97.8419 112.181 98.0579 112.565C98.2739 112.949 98.3819 113.393 98.3819 113.897C98.3819 114.417 98.2899 114.901 98.1059 115.349C97.9299 115.797 97.6779 116.189 97.3499 116.525C97.0299 116.853 96.6579 117.113 96.2339 117.305C95.8099 117.489 95.3499 117.582 94.8539 117.582ZM94.9859 116.717C95.4339 116.717 95.8339 116.597 96.1859 116.357C96.5459 116.117 96.8299 115.789 97.0379 115.373C97.2459 114.957 97.3499 114.489 97.3499 113.969C97.3499 113.409 97.1859 112.977 96.8579 112.673C96.5379 112.361 96.1539 112.205 95.7059 112.205C95.2659 112.205 94.8699 112.325 94.5179 112.565C94.1659 112.805 93.8859 113.133 93.6779 113.549C93.4699 113.965 93.3659 114.433 93.3659 114.953C93.3659 115.329 93.4379 115.649 93.5819 115.913C93.7339 116.169 93.9339 116.369 94.1819 116.513C94.4299 116.649 94.6979 116.717 94.9859 116.717ZM99.2192 117.438L100.263 111.485H101.175L101.055 112.565C101.311 112.181 101.639 111.881 102.039 111.665C102.439 111.449 102.867 111.341 103.323 111.341C103.915 111.341 104.383 111.509 104.727 111.845C105.071 112.173 105.243 112.645 105.243 113.261C105.243 113.373 105.235 113.489 105.219 113.609C105.211 113.721 105.195 113.837 105.171 113.957L104.559 117.438H103.551L104.139 114.065C104.155 113.961 104.167 113.861 104.175 113.765C104.191 113.669 104.199 113.577 104.199 113.489C104.199 112.633 103.779 112.205 102.939 112.205C102.435 112.205 101.983 112.381 101.583 112.733C101.191 113.085 100.927 113.589 100.791 114.245L100.227 117.438H99.2192Z" fill="#B1B1B1"/>
<path d="M46.4811 199.422V198.022H42.9711V197.182L46.3111 192.422H47.5311V197.102H48.5111V198.022H47.5311V199.422H46.4811ZM44.1211 197.102H46.5411V193.592L44.1211 197.102ZM55.1611 199.542C54.4677 199.542 53.8677 199.392 53.3611 199.092C52.8611 198.785 52.4744 198.362 52.2011 197.822C51.9277 197.275 51.7911 196.645 51.7911 195.932C51.7911 195.212 51.9277 194.582 52.2011 194.042C52.4744 193.495 52.8611 193.069 53.3611 192.762C53.8677 192.455 54.4677 192.302 55.1611 192.302C55.9811 192.302 56.6511 192.502 57.1711 192.902C57.6911 193.302 58.0211 193.862 58.1611 194.582H56.9811C56.8877 194.175 56.6877 193.852 56.3811 193.612C56.0744 193.372 55.6644 193.252 55.1511 193.252C54.4511 193.252 53.8977 193.492 53.4911 193.972C53.0844 194.445 52.8811 195.099 52.8811 195.932C52.8811 196.759 53.0844 197.409 53.4911 197.882C53.8977 198.355 54.4511 198.592 55.1511 198.592C55.6644 198.592 56.0744 198.479 56.3811 198.252C56.6877 198.025 56.8877 197.715 56.9811 197.322H58.1611C58.0211 198.015 57.6911 198.559 57.1711 198.952C56.6511 199.345 55.9811 199.542 55.1611 199.542ZM61.6062 199.542C61.1329 199.542 60.7062 199.435 60.3262 199.222C59.9529 199.002 59.6562 198.699 59.4362 198.312C59.2162 197.919 59.1062 197.462 59.1062 196.942C59.1062 196.422 59.2162 195.969 59.4362 195.582C59.6629 195.189 59.9662 194.885 60.3462 194.672C60.7262 194.452 61.1495 194.342 61.6162 194.342C62.0895 194.342 62.5129 194.452 62.8862 194.672C63.2662 194.885 63.5662 195.189 63.7862 195.582C64.0129 195.969 64.1262 196.422 64.1262 196.942C64.1262 197.462 64.0129 197.919 63.7862 198.312C63.5662 198.699 63.2662 199.002 62.8862 199.222C62.5062 199.435 62.0795 199.542 61.6062 199.542ZM61.6062 198.632C61.8595 198.632 62.0929 198.569 62.3062 198.442C62.5262 198.315 62.7029 198.129 62.8362 197.882C62.9695 197.629 63.0362 197.315 63.0362 196.942C63.0362 196.569 62.9695 196.259 62.8362 196.012C62.7095 195.759 62.5362 195.569 62.3162 195.442C62.1029 195.315 61.8695 195.252 61.6162 195.252C61.3629 195.252 61.1262 195.315 60.9062 195.442C60.6929 195.569 60.5195 195.759 60.3862 196.012C60.2529 196.259 60.1862 196.569 60.1862 196.942C60.1862 197.315 60.2529 197.629 60.3862 197.882C60.5195 198.129 60.6929 198.315 60.9062 198.442C61.1195 198.569 61.3529 198.632 61.6062 198.632ZM65.2725 199.422V194.462H66.2125L66.3025 195.162C66.4625 194.909 66.6725 194.709 66.9325 194.562C67.1992 194.415 67.5059 194.342 67.8525 194.342C68.6392 194.342 69.1859 194.652 69.4925 195.272C69.6725 194.985 69.9125 194.759 70.2125 194.592C70.5192 194.425 70.8492 194.342 71.2025 194.342C71.8225 194.342 72.3092 194.529 72.6625 194.902C73.0159 195.275 73.1925 195.832 73.1925 196.572V199.422H72.1325V196.682C72.1325 195.722 71.7659 195.242 71.0325 195.242C70.6592 195.242 70.3525 195.382 70.1125 195.662C69.8792 195.942 69.7625 196.342 69.7625 196.862V199.422H68.7025V196.682C68.7025 195.722 68.3325 195.242 67.5925 195.242C67.2259 195.242 66.9225 195.382 66.6825 195.662C66.4492 195.942 66.3325 196.342 66.3325 196.862V199.422H65.2725ZM74.4327 199.422V194.462H75.3727L75.4627 195.162C75.6227 194.909 75.8327 194.709 76.0927 194.562C76.3594 194.415 76.666 194.342 77.0127 194.342C77.7994 194.342 78.346 194.652 78.6527 195.272C78.8327 194.985 79.0727 194.759 79.3727 194.592C79.6794 194.425 80.0094 194.342 80.3627 194.342C80.9827 194.342 81.4694 194.529 81.8227 194.902C82.176 195.275 82.3527 195.832 82.3527 196.572V199.422H81.2927V196.682C81.2927 195.722 80.926 195.242 80.1927 195.242C79.8194 195.242 79.5127 195.382 79.2727 195.662C79.0394 195.942 78.9227 196.342 78.9227 196.862V199.422H77.8627V196.682C77.8627 195.722 77.4927 195.242 76.7527 195.242C76.386 195.242 76.0827 195.382 75.8427 195.662C75.6094 195.942 75.4927 196.342 75.4927 196.862V199.422H74.4327ZM85.9129 199.542C85.4262 199.542 84.9929 199.435 84.6129 199.222C84.2395 199.002 83.9462 198.699 83.7329 198.312C83.5195 197.925 83.4129 197.475 83.4129 196.962C83.4129 196.442 83.5162 195.985 83.7229 195.592C83.9362 195.199 84.2295 194.892 84.6029 194.672C84.9829 194.452 85.4229 194.342 85.9229 194.342C86.4095 194.342 86.8329 194.452 87.1929 194.672C87.5529 194.885 87.8329 195.172 88.0329 195.532C88.2329 195.892 88.3329 196.289 88.3329 196.722C88.3329 196.789 88.3295 196.862 88.3229 196.942C88.3229 197.015 88.3195 197.099 88.3129 197.192H84.4529C84.4862 197.672 84.6429 198.039 84.9229 198.292C85.2095 198.539 85.5395 198.662 85.9129 198.662C86.2129 198.662 86.4629 198.595 86.6629 198.462C86.8695 198.322 87.0229 198.135 87.1229 197.902H88.1829C88.0495 198.369 87.7829 198.759 87.3829 199.072C86.9895 199.385 86.4995 199.542 85.9129 199.542ZM85.9129 195.212C85.5595 195.212 85.2462 195.319 84.9729 195.532C84.6995 195.739 84.5329 196.052 84.4729 196.472H87.2729C87.2529 196.085 87.1162 195.779 86.8629 195.552C86.6095 195.325 86.2929 195.212 85.9129 195.212ZM89.4327 199.422V194.462H90.3727L90.4527 195.332C90.606 195.025 90.8294 194.785 91.1227 194.612C91.4227 194.432 91.766 194.342 92.1527 194.342C92.7527 194.342 93.2227 194.529 93.5627 194.902C93.9094 195.275 94.0827 195.832 94.0827 196.572V199.422H93.0327V196.682C93.0327 195.722 92.6394 195.242 91.8527 195.242C91.4594 195.242 91.1327 195.382 90.8727 195.662C90.6194 195.942 90.4927 196.342 90.4927 196.862V199.422H89.4327ZM97.4111 199.422C96.9245 199.422 96.5378 199.305 96.2511 199.072C95.9645 198.832 95.8211 198.409 95.8211 197.802V195.352H94.9711V194.462H95.8211L95.9511 193.202H96.8811V194.462H98.2811V195.352H96.8811V197.802C96.8811 198.075 96.9378 198.265 97.0511 198.372C97.1711 198.472 97.3745 198.522 97.6611 198.522H98.2311V199.422H97.4111ZM101.354 199.542C100.727 199.542 100.211 199.389 99.8041 199.082C99.3974 198.775 99.1641 198.369 99.1041 197.862H100.174C100.227 198.089 100.354 198.285 100.554 198.452C100.754 198.612 101.017 198.692 101.344 198.692C101.664 198.692 101.897 198.625 102.044 198.492C102.191 198.359 102.264 198.205 102.264 198.032C102.264 197.779 102.161 197.609 101.954 197.522C101.754 197.429 101.474 197.345 101.114 197.272C100.834 197.212 100.554 197.132 100.274 197.032C100.001 196.932 99.7708 196.792 99.5841 196.612C99.4041 196.425 99.3141 196.175 99.3141 195.862C99.3141 195.429 99.4808 195.069 99.8141 194.782C100.147 194.489 100.614 194.342 101.214 194.342C101.767 194.342 102.214 194.475 102.554 194.742C102.901 195.009 103.104 195.385 103.164 195.872H102.144C102.111 195.659 102.011 195.492 101.844 195.372C101.684 195.252 101.467 195.192 101.194 195.192C100.927 195.192 100.721 195.249 100.574 195.362C100.427 195.469 100.354 195.609 100.354 195.782C100.354 195.955 100.454 196.092 100.654 196.192C100.861 196.292 101.131 196.382 101.464 196.462C101.797 196.535 102.104 196.622 102.384 196.722C102.671 196.815 102.901 196.955 103.074 197.142C103.247 197.329 103.334 197.602 103.334 197.962C103.341 198.415 103.164 198.792 102.804 199.092C102.451 199.392 101.967 199.542 101.354 199.542Z" fill="#768396"/>
<path d="M35.1721 190.656H26.4555C25.8776 190.656 25.3233 190.871 24.9146 191.254C24.506 191.637 24.2764 192.156 24.2764 192.697V200.179C24.2764 200.72 24.506 201.239 24.9146 201.621C25.3233 202.004 25.8776 202.219 26.4555 202.219H28.3368L30.2981 204.062C30.3659 204.125 30.4464 204.175 30.5349 204.209C30.6234 204.243 30.7182 204.26 30.8138 204.26C30.9869 204.26 31.1544 204.202 31.2859 204.096L33.6249 202.219H35.1721C35.75 202.219 36.3043 202.004 36.7129 201.621C37.1216 201.239 37.3512 200.72 37.3512 200.179V192.697C37.3512 192.156 37.1216 191.637 36.7129 191.254C36.3043 190.871 35.75 190.656 35.1721 190.656ZM35.8984 200.179C35.8984 200.359 35.8219 200.532 35.6857 200.66C35.5495 200.787 35.3647 200.859 35.1721 200.859H33.3561C33.183 200.859 33.0155 200.917 32.884 201.022L30.8501 202.654L29.1504 201.056C29.0825 200.993 29.002 200.943 28.9135 200.909C28.825 200.875 28.7302 200.858 28.6346 200.859H26.4555C26.2629 200.859 26.0781 200.787 25.9419 200.66C25.8057 200.532 25.7291 200.359 25.7291 200.179V192.697C25.7291 192.516 25.8057 192.343 25.9419 192.216C26.0781 192.088 26.2629 192.017 26.4555 192.017H35.1721C35.3647 192.017 35.5495 192.088 35.6857 192.216C35.8219 192.343 35.8984 192.516 35.8984 192.697V200.179Z" fill="#768396"/>
<path d="M254.516 199.422V193.622L253.386 193.882V193.102L254.936 192.422H255.616V199.422H254.516ZM257.758 199.422V193.622L256.628 193.882V193.102L258.178 192.422H258.858V199.422H257.758ZM263.01 199.422V195.352H262.3V194.462H263.01V193.742C263.01 193.202 263.143 192.815 263.41 192.582C263.683 192.342 264.067 192.222 264.56 192.222H265.08V193.122H264.72C264.487 193.122 264.32 193.172 264.22 193.272C264.12 193.365 264.07 193.525 264.07 193.752V194.462H267.21V199.422H266.15V195.352H264.07V199.422H263.01ZM266.69 193.632C266.49 193.632 266.323 193.572 266.19 193.452C266.063 193.325 266 193.165 266 192.972C266 192.785 266.063 192.632 266.19 192.512C266.323 192.392 266.49 192.332 266.69 192.332C266.89 192.332 267.053 192.392 267.18 192.512C267.313 192.632 267.38 192.785 267.38 192.972C267.38 193.165 267.313 193.325 267.18 193.452C267.053 193.572 266.89 193.632 266.69 193.632ZM268.619 199.422V192.222H269.679V199.422H268.619ZM273.342 199.542C272.855 199.542 272.422 199.435 272.042 199.222C271.668 199.002 271.375 198.699 271.162 198.312C270.948 197.925 270.842 197.475 270.842 196.962C270.842 196.442 270.945 195.985 271.152 195.592C271.365 195.199 271.658 194.892 272.032 194.672C272.412 194.452 272.852 194.342 273.352 194.342C273.838 194.342 274.262 194.452 274.622 194.672C274.982 194.885 275.262 195.172 275.462 195.532C275.662 195.892 275.762 196.289 275.762 196.722C275.762 196.789 275.758 196.862 275.752 196.942C275.752 197.015 275.748 197.099 275.742 197.192H271.882C271.915 197.672 272.072 198.039 272.352 198.292C272.638 198.539 272.968 198.662 273.342 198.662C273.642 198.662 273.892 198.595 274.092 198.462C274.298 198.322 274.452 198.135 274.552 197.902H275.612C275.478 198.369 275.212 198.759 274.812 199.072C274.418 199.385 273.928 199.542 273.342 199.542ZM273.342 195.212C272.988 195.212 272.675 195.319 272.402 195.532C272.128 195.739 271.962 196.052 271.902 196.472H274.702C274.682 196.085 274.545 195.779 274.292 195.552C274.038 195.325 273.722 195.212 273.342 195.212Z" fill="#768396"/>
<path d="M242.652 199.799L240.609 201.731C240.361 201.957 240.031 202.083 239.687 202.083C239.344 202.083 239.013 201.957 238.766 201.731C238.645 201.617 238.548 201.481 238.483 201.331C238.417 201.182 238.383 201.021 238.383 200.859C238.383 200.697 238.417 200.537 238.483 200.388C238.548 200.238 238.645 200.102 238.766 199.988L240.809 198.056C240.908 197.962 240.964 197.835 240.964 197.702C240.964 197.569 240.908 197.442 240.809 197.348C240.71 197.255 240.575 197.202 240.435 197.202C240.295 197.202 240.16 197.255 240.061 197.348L238.018 199.286C237.607 199.709 237.384 200.267 237.397 200.842C237.41 201.418 237.657 201.966 238.087 202.373C238.517 202.78 239.097 203.013 239.705 203.026C240.314 203.038 240.903 202.827 241.351 202.438L243.399 200.506C243.498 200.412 243.554 200.285 243.554 200.152C243.554 200.02 243.498 199.892 243.399 199.799C243.3 199.705 243.166 199.652 243.025 199.652C242.885 199.652 242.751 199.705 242.652 199.799ZM247.169 193.783C246.726 193.366 246.127 193.133 245.503 193.133C244.878 193.133 244.279 193.366 243.836 193.783L241.788 195.715C241.739 195.761 241.7 195.817 241.674 195.877C241.647 195.938 241.633 196.003 241.633 196.069C241.633 196.134 241.647 196.199 241.674 196.26C241.7 196.321 241.739 196.376 241.788 196.422C241.837 196.469 241.895 196.505 241.96 196.531C242.024 196.556 242.093 196.569 242.162 196.569C242.231 196.569 242.3 196.556 242.364 196.531C242.428 196.505 242.487 196.469 242.536 196.422L244.579 194.49C244.826 194.264 245.156 194.138 245.5 194.138C245.844 194.138 246.174 194.264 246.421 194.49C246.543 194.604 246.639 194.74 246.705 194.89C246.77 195.039 246.804 195.2 246.804 195.361C246.804 195.523 246.77 195.684 246.705 195.833C246.639 195.983 246.543 196.119 246.421 196.233L244.379 198.165C244.329 198.212 244.29 198.267 244.263 198.327C244.237 198.388 244.223 198.453 244.223 198.519C244.223 198.585 244.237 198.65 244.263 198.71C244.29 198.771 244.329 198.826 244.379 198.872C244.428 198.919 244.486 198.956 244.55 198.981C244.614 199.007 244.683 199.02 244.752 199.02C244.822 199.02 244.891 199.007 244.955 198.981C245.019 198.956 245.077 198.919 245.126 198.872L247.169 196.935C247.609 196.516 247.856 195.95 247.856 195.359C247.856 194.768 247.609 194.202 247.169 193.783ZM240.925 199.689C240.974 199.735 241.032 199.772 241.096 199.797C241.16 199.821 241.229 199.834 241.298 199.834C241.368 199.834 241.436 199.821 241.501 199.797C241.565 199.772 241.623 199.735 241.672 199.689L244.263 197.239C244.362 197.145 244.418 197.018 244.418 196.885C244.418 196.753 244.362 196.626 244.263 196.532C244.164 196.438 244.029 196.385 243.889 196.385C243.749 196.385 243.614 196.438 243.515 196.532L240.925 198.982C240.875 199.028 240.836 199.083 240.809 199.144C240.783 199.205 240.769 199.27 240.769 199.336C240.769 199.401 240.783 199.466 240.809 199.527C240.836 199.588 240.875 199.643 240.925 199.689Z" fill="#768396"/>
<rect x="24.5" y="136.5" width="175" height="26" rx="3.5" stroke="#E2E2E2"/>
<path d="M35.852 152V143.6H38.744C39.408 143.6 39.952 143.712 40.376 143.936C40.808 144.16 41.128 144.464 41.336 144.848C41.544 145.224 41.648 145.644 41.648 146.108C41.648 146.628 41.508 147.1 41.228 147.524C40.956 147.948 40.528 148.252 39.944 148.436L41.732 152H40.256L38.624 148.616H37.124V152H35.852ZM37.124 147.656H38.672C39.248 147.656 39.668 147.516 39.932 147.236C40.204 146.956 40.34 146.592 40.34 146.144C40.34 145.696 40.208 145.34 39.944 145.076C39.68 144.804 39.252 144.668 38.66 144.668H37.124V147.656ZM45.5255 152.144C44.9415 152.144 44.4215 152.016 43.9655 151.76C43.5175 151.496 43.1655 151.132 42.9095 150.668C42.6535 150.204 42.5255 149.664 42.5255 149.048C42.5255 148.424 42.6495 147.876 42.8975 147.404C43.1535 146.932 43.5055 146.564 43.9535 146.3C44.4095 146.036 44.9375 145.904 45.5375 145.904C46.1215 145.904 46.6295 146.036 47.0615 146.3C47.4935 146.556 47.8295 146.9 48.0695 147.332C48.3095 147.764 48.4295 148.24 48.4295 148.76C48.4295 148.84 48.4255 148.928 48.4175 149.024C48.4175 149.112 48.4135 149.212 48.4055 149.324H43.7735C43.8135 149.9 44.0015 150.34 44.3375 150.644C44.6815 150.94 45.0775 151.088 45.5255 151.088C45.8855 151.088 46.1855 151.008 46.4255 150.848C46.6735 150.68 46.8575 150.456 46.9775 150.176H48.2495C48.0895 150.736 47.7695 151.204 47.2895 151.58C46.8175 151.956 46.2295 152.144 45.5255 152.144ZM45.5255 146.948C45.1015 146.948 44.7255 147.076 44.3975 147.332C44.0695 147.58 43.8695 147.956 43.7975 148.46H47.1575C47.1335 147.996 46.9695 147.628 46.6655 147.356C46.3615 147.084 45.9815 146.948 45.5255 146.948ZM52.093 152C51.509 152 51.045 151.86 50.701 151.58C50.357 151.292 50.185 150.784 50.185 150.056V147.116H49.165V146.048H50.185L50.341 144.536H51.457V146.048H53.137V147.116H51.457V150.056C51.457 150.384 51.525 150.612 51.661 150.74C51.805 150.86 52.049 150.92 52.393 150.92H53.077V152H52.093ZM56.6445 152.144C55.9245 152.144 55.3565 151.92 54.9405 151.472C54.5325 151.024 54.3285 150.356 54.3285 149.468V146.048H55.6005V149.336C55.6005 150.488 56.0725 151.064 57.0165 151.064C57.4885 151.064 57.8765 150.896 58.1805 150.56C58.4845 150.224 58.6365 149.744 58.6365 149.12V146.048H59.9085V152H58.7805L58.6845 150.956C58.5005 151.324 58.2285 151.616 57.8685 151.832C57.5165 152.04 57.1085 152.144 56.6445 152.144ZM61.5267 152V146.048H62.6667L62.7747 147.176C62.9827 146.784 63.2707 146.476 63.6387 146.252C64.0147 146.02 64.4667 145.904 64.9947 145.904V147.236H64.6467C64.2947 147.236 63.9787 147.296 63.6987 147.416C63.4267 147.528 63.2067 147.724 63.0387 148.004C62.8787 148.276 62.7987 148.656 62.7987 149.144V152H61.5267ZM66.0853 152V146.048H67.2133L67.3093 147.092C67.4933 146.724 67.7613 146.436 68.1133 146.228C68.4733 146.012 68.8853 145.904 69.3493 145.904C70.0693 145.904 70.6333 146.128 71.0413 146.576C71.4573 147.024 71.6653 147.692 71.6653 148.58V152H70.4053V148.712C70.4053 147.56 69.9333 146.984 68.9893 146.984C68.5173 146.984 68.1253 147.152 67.8133 147.488C67.5093 147.824 67.3573 148.304 67.3573 148.928V152H66.0853ZM75.9474 152.144C75.3634 152.144 74.8434 152.016 74.3874 151.76C73.9394 151.496 73.5874 151.132 73.3314 150.668C73.0754 150.204 72.9474 149.664 72.9474 149.048C72.9474 148.424 73.0714 147.876 73.3194 147.404C73.5754 146.932 73.9274 146.564 74.3754 146.3C74.8314 146.036 75.3594 145.904 75.9594 145.904C76.5434 145.904 77.0514 146.036 77.4834 146.3C77.9154 146.556 78.2514 146.9 78.4914 147.332C78.7314 147.764 78.8514 148.24 78.8514 148.76C78.8514 148.84 78.8474 148.928 78.8394 149.024C78.8394 149.112 78.8354 149.212 78.8274 149.324H74.1954C74.2354 149.9 74.4234 150.34 74.7594 150.644C75.1034 150.94 75.4994 151.088 75.9474 151.088C76.3074 151.088 76.6074 151.008 76.8474 150.848C77.0954 150.68 77.2794 150.456 77.3994 150.176H78.6714C78.5114 150.736 78.1914 151.204 77.7114 151.58C77.2394 151.956 76.6514 152.144 75.9474 152.144ZM75.9474 146.948C75.5234 146.948 75.1474 147.076 74.8194 147.332C74.4914 147.58 74.2914 147.956 74.2194 148.46H77.5794C77.5554 147.996 77.3914 147.628 77.0874 147.356C76.7834 147.084 76.4034 146.948 75.9474 146.948ZM82.8832 152.144C82.3072 152.144 81.7992 152.008 81.3592 151.736C80.9192 151.464 80.5752 151.092 80.3272 150.62C80.0792 150.148 79.9552 149.612 79.9552 149.012C79.9552 148.412 80.0792 147.88 80.3272 147.416C80.5752 146.944 80.9192 146.576 81.3592 146.312C81.8072 146.04 82.3192 145.904 82.8952 145.904C83.3672 145.904 83.7792 145.996 84.1312 146.18C84.4912 146.364 84.7712 146.624 84.9712 146.96V143.36H86.2432V152H85.1032L84.9712 151.076C84.7792 151.356 84.5152 151.604 84.1792 151.82C83.8432 152.036 83.4112 152.144 82.8832 152.144ZM83.1112 151.04C83.6552 151.04 84.0992 150.852 84.4432 150.476C84.7952 150.1 84.9712 149.616 84.9712 149.024C84.9712 148.424 84.7952 147.94 84.4432 147.572C84.0992 147.196 83.6552 147.008 83.1112 147.008C82.5672 147.008 82.1192 147.196 81.7672 147.572C81.4152 147.94 81.2392 148.424 81.2392 149.024C81.2392 149.416 81.3192 149.764 81.4792 150.068C81.6392 150.372 81.8592 150.612 82.1392 150.788C82.4272 150.956 82.7512 151.04 83.1112 151.04ZM91.7824 152V145.04L90.4264 145.352V144.416L92.2864 143.6H93.1024V152H91.7824ZM98.169 152.144C97.409 152.144 96.753 151.964 96.201 151.604C95.657 151.236 95.237 150.728 94.941 150.08C94.653 149.424 94.509 148.664 94.509 147.8C94.509 146.936 94.653 146.18 94.941 145.532C95.237 144.876 95.657 144.368 96.201 144.008C96.753 143.64 97.409 143.456 98.169 143.456C98.929 143.456 99.581 143.64 100.125 144.008C100.669 144.368 101.085 144.876 101.373 145.532C101.669 146.18 101.817 146.936 101.817 147.8C101.817 148.664 101.669 149.424 101.373 150.08C101.085 150.728 100.669 151.236 100.125 151.604C99.581 151.964 98.929 152.144 98.169 152.144ZM98.169 151.004C98.625 151.004 99.029 150.876 99.381 150.62C99.741 150.364 100.021 149.996 100.221 149.516C100.421 149.036 100.521 148.464 100.521 147.8C100.521 147.136 100.421 146.564 100.221 146.084C100.021 145.604 99.741 145.236 99.381 144.98C99.029 144.724 98.625 144.596 98.169 144.596C97.705 144.596 97.297 144.724 96.945 144.98C96.593 145.236 96.317 145.604 96.117 146.084C95.917 146.564 95.817 147.136 95.817 147.8C95.817 148.464 95.917 149.036 96.117 149.516C96.317 149.996 96.593 150.364 96.945 150.62C97.297 150.876 97.705 151.004 98.169 151.004ZM110.134 152.144C109.302 152.144 108.574 151.96 107.95 151.592C107.326 151.224 106.838 150.716 106.486 150.068C106.134 149.412 105.958 148.656 105.958 147.8C105.958 146.944 106.134 146.192 106.486 145.544C106.838 144.888 107.326 144.376 107.95 144.008C108.574 143.64 109.302 143.456 110.134 143.456C110.966 143.456 111.694 143.64 112.318 144.008C112.942 144.376 113.426 144.888 113.77 145.544C114.122 146.192 114.298 146.944 114.298 147.8C114.298 148.656 114.122 149.412 113.77 150.068C113.426 150.716 112.942 151.224 112.318 151.592C111.694 151.96 110.966 152.144 110.134 152.144ZM110.134 151.004C110.71 151.004 111.21 150.876 111.634 150.62C112.066 150.364 112.402 149.996 112.642 149.516C112.882 149.036 113.002 148.464 113.002 147.8C113.002 147.136 112.882 146.564 112.642 146.084C112.402 145.604 112.066 145.236 111.634 144.98C111.21 144.724 110.71 144.596 110.134 144.596C109.558 144.596 109.054 144.724 108.622 144.98C108.19 145.236 107.854 145.604 107.614 146.084C107.382 146.564 107.266 147.136 107.266 147.8C107.266 148.464 107.382 149.036 107.614 149.516C107.854 149.996 108.19 150.364 108.622 150.62C109.054 150.876 109.558 151.004 110.134 151.004ZM118.487 152.144C117.903 152.144 117.379 152.012 116.915 151.748C116.459 151.484 116.099 151.12 115.835 150.656C115.579 150.184 115.451 149.64 115.451 149.024C115.451 148.408 115.579 147.868 115.835 147.404C116.099 146.932 116.459 146.564 116.915 146.3C117.379 146.036 117.903 145.904 118.487 145.904C119.223 145.904 119.839 146.096 120.335 146.48C120.839 146.864 121.163 147.384 121.307 148.04H119.975C119.895 147.712 119.719 147.456 119.447 147.272C119.175 147.088 118.855 146.996 118.487 146.996C118.175 146.996 117.887 147.076 117.623 147.236C117.359 147.388 117.147 147.616 116.987 147.92C116.827 148.216 116.747 148.584 116.747 149.024C116.747 149.464 116.827 149.836 116.987 150.14C117.147 150.436 117.359 150.664 117.623 150.824C117.887 150.984 118.175 151.064 118.487 151.064C118.855 151.064 119.175 150.972 119.447 150.788C119.719 150.604 119.895 150.344 119.975 150.008H121.307C121.171 150.648 120.851 151.164 120.347 151.556C119.843 151.948 119.223 152.144 118.487 152.144ZM125.066 152C124.482 152 124.018 151.86 123.674 151.58C123.33 151.292 123.158 150.784 123.158 150.056V147.116H122.138V146.048H123.158L123.314 144.536H124.43V146.048H126.11V147.116H124.43V150.056C124.43 150.384 124.498 150.612 124.634 150.74C124.778 150.86 125.022 150.92 125.366 150.92H126.05V152H125.066ZM130.325 152V151.088C130.869 150.656 131.389 150.22 131.885 149.78C132.381 149.34 132.821 148.908 133.205 148.484C133.597 148.052 133.905 147.632 134.129 147.224C134.353 146.808 134.465 146.408 134.465 146.024C134.465 145.768 134.421 145.528 134.333 145.304C134.245 145.072 134.101 144.888 133.901 144.752C133.701 144.608 133.433 144.536 133.097 144.536C132.593 144.536 132.213 144.696 131.957 145.016C131.709 145.336 131.589 145.72 131.597 146.168H130.361C130.369 145.576 130.493 145.08 130.733 144.68C130.981 144.28 131.309 143.976 131.717 143.768C132.133 143.56 132.601 143.456 133.121 143.456C133.913 143.456 134.545 143.68 135.017 144.128C135.497 144.568 135.737 145.184 135.737 145.976C135.737 146.448 135.621 146.916 135.389 147.38C135.165 147.844 134.869 148.292 134.501 148.724C134.141 149.148 133.753 149.548 133.337 149.924C132.921 150.3 132.525 150.64 132.149 150.944H135.989V152H130.325ZM140.626 152.144C139.866 152.144 139.21 151.964 138.658 151.604C138.114 151.236 137.694 150.728 137.398 150.08C137.11 149.424 136.966 148.664 136.966 147.8C136.966 146.936 137.11 146.18 137.398 145.532C137.694 144.876 138.114 144.368 138.658 144.008C139.21 143.64 139.866 143.456 140.626 143.456C141.386 143.456 142.038 143.64 142.582 144.008C143.126 144.368 143.542 144.876 143.83 145.532C144.126 146.18 144.274 146.936 144.274 147.8C144.274 148.664 144.126 149.424 143.83 150.08C143.542 150.728 143.126 151.236 142.582 151.604C142.038 151.964 141.386 152.144 140.626 152.144ZM140.626 151.004C141.082 151.004 141.486 150.876 141.838 150.62C142.198 150.364 142.478 149.996 142.678 149.516C142.878 149.036 142.978 148.464 142.978 147.8C142.978 147.136 142.878 146.564 142.678 146.084C142.478 145.604 142.198 145.236 141.838 144.98C141.486 144.724 141.082 144.596 140.626 144.596C140.162 144.596 139.754 144.724 139.402 144.98C139.05 145.236 138.774 145.604 138.574 146.084C138.374 146.564 138.274 147.136 138.274 147.8C138.274 148.464 138.374 149.036 138.574 149.516C138.774 149.996 139.05 150.364 139.402 150.62C139.754 150.876 140.162 151.004 140.626 151.004ZM145.43 152V151.088C145.974 150.656 146.494 150.22 146.99 149.78C147.486 149.34 147.926 148.908 148.31 148.484C148.702 148.052 149.01 147.632 149.234 147.224C149.458 146.808 149.57 146.408 149.57 146.024C149.57 145.768 149.526 145.528 149.438 145.304C149.35 145.072 149.206 144.888 149.006 144.752C148.806 144.608 148.538 144.536 148.202 144.536C147.698 144.536 147.318 144.696 147.062 145.016C146.814 145.336 146.694 145.72 146.702 146.168H145.466C145.474 145.576 145.598 145.08 145.838 144.68C146.086 144.28 146.414 143.976 146.822 143.768C147.238 143.56 147.706 143.456 148.226 143.456C149.018 143.456 149.65 143.68 150.122 144.128C150.602 144.568 150.842 145.184 150.842 145.976C150.842 146.448 150.726 146.916 150.494 147.38C150.27 147.844 149.974 148.292 149.606 148.724C149.246 149.148 148.858 149.548 148.442 149.924C148.026 150.3 147.63 150.64 147.254 150.944H151.094V152H145.43ZM152.297 152V151.088C152.841 150.656 153.361 150.22 153.857 149.78C154.353 149.34 154.793 148.908 155.177 148.484C155.569 148.052 155.877 147.632 156.101 147.224C156.325 146.808 156.437 146.408 156.437 146.024C156.437 145.768 156.393 145.528 156.305 145.304C156.217 145.072 156.073 144.888 155.873 144.752C155.673 144.608 155.405 144.536 155.069 144.536C154.565 144.536 154.185 144.696 153.929 145.016C153.681 145.336 153.561 145.72 153.569 146.168H152.333C152.341 145.576 152.465 145.08 152.705 144.68C152.953 144.28 153.281 143.976 153.689 143.768C154.105 143.56 154.573 143.456 155.093 143.456C155.885 143.456 156.517 143.68 156.989 144.128C157.469 144.568 157.709 145.184 157.709 145.976C157.709 146.448 157.593 146.916 157.361 147.38C157.137 147.844 156.841 148.292 156.473 148.724C156.113 149.148 155.725 149.548 155.309 149.924C154.893 150.3 154.497 150.64 154.121 150.944H157.961V152H152.297Z" fill="#232360"/>
<circle cx="37" cy="192" r="3" fill="#EC2222"/>
</svg>
